<svg width="70" height="71" viewBox="0 0 70 71" fill="none" xmlns="http://www.w3.org/2000/svg">
<path d="M12.7816 0.499878C5.70115 0.499878 0 6.20103 0 13.2815V57.7184C0 64.7988 5.70115 70.4999 12.7816 70.4999H36.866V43.1343H29.6297V33.2818H36.866V24.8643C36.866 18.251 41.1415 12.179 50.9907 12.179C54.9784 12.179 57.9272 12.5618 57.9272 12.5618L57.6953 21.7624C57.6953 21.7624 54.6879 21.734 51.4062 21.734C47.8545 21.734 47.285 23.3705 47.285 26.0872V33.2819H57.9775L57.5116 43.1344H47.285V70.5H57.2184C64.2989 70.5 70 64.7989 70 57.7184V13.2815C70 6.2011 64.2989 0.499948 57.2184 0.499948L12.7816 0.499878Z" fill="#C7933F"/>
</svg>
