<svg width="70" height="71" viewBox="0 0 70 71" fill="none" xmlns="http://www.w3.org/2000/svg">
<path d="M46.2 35.5C46.2 37.7152 45.5431 39.8806 44.3125 41.7224C43.0818 43.5642 41.3326 44.9997 39.2861 45.8475C37.2395 46.6952 34.9876 46.9169 32.815 46.4848C30.6424 46.0526 28.6468 44.9859 27.0804 43.4196C25.5141 41.8532 24.4474 39.8576 24.0152 37.685C23.583 35.5124 23.8048 33.2605 24.6525 31.2139C25.5002 29.1674 26.9358 27.4182 28.7776 26.1875C30.6194 24.9569 32.7848 24.3 35 24.3C37.9694 24.3034 40.8162 25.4845 42.9158 27.5842C45.0155 29.6838 46.1966 32.5306 46.2 35.5ZM70 20.1V50.9C69.9941 56.0964 67.9272 61.0784 64.2528 64.7528C60.5784 68.4272 55.5964 70.4941 50.4 70.5H19.6C14.4036 70.4941 9.42165 68.4272 5.74721 64.7528C2.07277 61.0784 0.00588516 56.0964 0 50.9V20.1C0.00588516 14.9036 2.07277 9.92165 5.74721 6.24721C9.42165 2.57277 14.4036 0.505885 19.6 0.5H50.4C55.5964 0.505885 60.5784 2.57277 64.2528 6.24721C67.9272 9.92165 69.9941 14.9036 70 20.1ZM51.8 35.5C51.8 32.1773 50.8147 28.9292 48.9687 26.1664C47.1227 23.4037 44.4989 21.2504 41.4291 19.9788C38.3593 18.7073 34.9814 18.3746 31.7225 19.0228C28.4636 19.671 25.4701 21.2711 23.1206 23.6206C20.7711 25.9701 19.171 28.9636 18.5228 32.2225C17.8746 35.4814 18.2073 38.8593 19.4788 41.9291C20.7504 44.9989 22.9037 47.6227 25.6664 49.4687C28.4292 51.3147 31.6773 52.3 35 52.3C39.4541 52.295 43.7243 50.5233 46.8738 47.3738C50.0233 44.2243 51.795 39.9541 51.8 35.5ZM57.4 17.3C57.4 16.4693 57.1537 15.6573 56.6922 14.9666C56.2307 14.2759 55.5747 13.7376 54.8073 13.4197C54.0398 13.1018 53.1953 13.0186 52.3806 13.1807C51.5659 13.3428 50.8175 13.7428 50.2302 14.3302C49.6428 14.9175 49.2428 15.6659 49.0807 16.4806C48.9186 17.2953 49.0018 18.1398 49.3197 18.9073C49.6376 19.6747 50.1759 20.3307 50.8666 20.7922C51.5573 21.2537 52.3693 21.5 53.2 21.5C54.3139 21.5 55.3822 21.0575 56.1698 20.2698C56.9575 19.4822 57.4 18.4139 57.4 17.3Z" fill="#C7933F"/>
</svg>
