<svg xmlns="http://www.w3.org/2000/svg" viewBox="0 0 1029.86 568.55"><defs><style>.f8f21868-9cc4-464d-a1df-9298926db1dd{fill:#416358;}.ac5263ed-211a-4879-a231-197ab05a80c3{fill:#061508;}.f58a2cb6-44a8-4377-b54f-bb6d1aaefede{fill:#21443b;}.b9cdf77d-b10f-4ef7-95c9-06bd47b28f45{fill:#6c8872;}.afd33331-43ad-482f-b0b0-8cf0850aa92c{fill:#7ba696;}.f5d765ef-231f-4942-8f3e-b02218e0f0f4{fill:#558071;}.aadca221-850e-46ef-9b68-2be81c25f6dd{fill:#1d3830;}.b0a78e07-9607-468b-8a0d-a584f69751bf{fill:#040000;}</style></defs><title>資產 10</title><g id="a7161a19-1a14-473f-af3d-584dfc740544" data-name="圖層 2"><g id="ef302d9a-29f5-4e2d-a219-46487f8fd38b" data-name="圖層 7"><path class="f8f21868-9cc4-464d-a1df-9298926db1dd" d="M607.81,129a18.76,18.76,0,0,0-8.16,21.34c3.82,14.66,17.42,60.16-24.27,86.86s-81.08,3.34-81.08,3.34-2.79-78.62,28.15-102.41,67.52-7.5,67.52-7.5,6,5.65,15-9.56a34.49,34.49,0,0,0,5.34-5.73c1.52-2.44,4.74,3.55,4.74,3.55L616.5,122S607.58,124.41,607.81,129Z"/><path class="ac5263ed-211a-4879-a231-197ab05a80c3" d="M595.9,140.53l-4.16,3.81L587,148.73c-1.84,1.71-3.78,3.84-6,6.06-4.39,4.42-9.31,9.9-14.74,15.62l-8.47,8.77c-2.81,2.95-5.81,5.81-8.48,9-5.54,6.23-10.7,13-16,18.81-5.56,5.6-10.65,10.91-15.16,15.29L502.35,236s6.08-5.74,15.21-14.33c4.32-4.55,9.19-10.06,14.48-15.83,5.06-6,9.92-12.91,15.29-19.47,2.58-3.38,5.53-6.43,8.29-9.58l8-9c5.18-5.92,9.87-11.59,14.16-16.28,2.14-2.35,4-4.58,5.83-6.42l4.76-4.72,4.16-4.13Z"/><path class="ac5263ed-211a-4879-a231-197ab05a80c3" d="M528.87,211v.57a101.84,101.84,0,0,1-.66,12.77,44.93,44.93,0,0,1-3.58,12.2,41.52,41.52,0,0,1-2,3.73c-.51.9-.81,1.41-.81,1.41l1-1.27a40.24,40.24,0,0,0,2.57-3.43,46.83,46.83,0,0,0,5.46-12.08,109.68,109.68,0,0,0,2.54-13.07c.47-3.55.79-5.92.79-5.92H534A26.5,26.5,0,0,1,528.87,211Z"/><path class="ac5263ed-211a-4879-a231-197ab05a80c3" d="M546.26,188.91c-.35-.39-.76-.79-1.23-1.25a22.08,22.08,0,0,0-2.17-1.45,32.45,32.45,0,0,0-12-3.14,51.63,51.63,0,0,0-11.93.3,27,27,0,0,0-3.83.89l-1.39.55a17.88,17.88,0,0,1,5.26-.57,50.06,50.06,0,0,1,11.41,1.59,29.67,29.67,0,0,1,10.07,4.42c.52.44.95.87,1.31,1.23s.52.72.68,1a3,3,0,0,0,.3.79l.26-.11A13.55,13.55,0,0,1,546.26,188.91Z"/><path class="ac5263ed-211a-4879-a231-197ab05a80c3" d="M560.64,175.21l1.37,1.85a15.29,15.29,0,0,1,1.41,2.23,20.94,20.94,0,0,1,1.55,3,35.61,35.61,0,0,1,2.48,8.08,54.78,54.78,0,0,1,.81,9.5,94.46,94.46,0,0,1-2,17.38c-.92,4.65-1.67,7.7-1.67,7.7s.42-3.12.85-7.81a93.27,93.27,0,0,0,.13-17.08c-.6-6.1-2.37-11.87-4.6-15.48a16.1,16.1,0,0,0-1.58-2.4,11.57,11.57,0,0,0-1.36-1.7l-1.28-1.38Z"/><path class="ac5263ed-211a-4879-a231-197ab05a80c3" d="M573,160.31a40.79,40.79,0,0,1-5.49-3.51c-3.06-2.22-6.81-5.35-10.8-8s-8.35-4.8-11.93-4.69a11.65,11.65,0,0,0-5.73,1.62,12.23,12.23,0,0,1,5.69-2.49c3.81-.67,8.8,1,13.26,3.09s8.7,4.77,11.87,6.44a34.29,34.29,0,0,0,5.18,2.37Z"/><path class="ac5263ed-211a-4879-a231-197ab05a80c3" d="M585,149.12s.21.87.6,2.4,1,3.68,1.53,6.34a107.81,107.81,0,0,1,2.27,19.73,116.47,116.47,0,0,1-1.78,19.67c-1,5.27-1.75,8.75-1.75,8.75s.45-3.54.92-8.85a114.51,114.51,0,0,0,0-19.35,102.64,102.64,0,0,0-4-18.62c-.73-2.47-1.55-4.48-2-5.9l-.79-2.23Z"/><path class="f8f21868-9cc4-464d-a1df-9298926db1dd" d="M665.32,162.47s2.12,14.32,17.7,15.21,64.57,1.86,75.27,52.83-26.21,83.36-26.21,83.36S655,291.16,643.16,252s17.26-70.94,17.26-70.94,7.66-4.28-3.82-18.28c0,0-1.8-4.95-3.61-7.29s5.17-3.65,5.17-3.65l3.51-.51S660.8,161.2,665.32,162.47Z"/><path class="f58a2cb6-44a8-4377-b54f-bb6d1aaefede" d="M662.66,161.39s35.73-2.87,36.73-33.81-73.26-68.1-59-98.14c0,0-93,66-45.29,120.2C640.25,184.88,662.66,161.39,662.66,161.39Z"/><path class="ac5263ed-211a-4879-a231-197ab05a80c3" d="M627.71,51.9a58.82,58.82,0,0,0-1.77,6.15c-.61,2.4-1.37,5.09-1.84,8.1-.27,1.5-.56,3.06-.86,4.68s-.37,3.33-.57,5.06c-.5,3.48-.44,7.18-.61,11A107.43,107.43,0,0,0,625,110.74a102.67,102.67,0,0,0,8.84,22.48,99.23,99.23,0,0,0,6,9.44c1.05,1.44,2,2.89,3.05,4.2s2.12,2.51,3.12,3.7a78.06,78.06,0,0,0,5.79,6.19,55.17,55.17,0,0,0,4.76,4.47l3,2.62a19.56,19.56,0,0,0,3.13-2.45s.37,0,1-.12l.65-.84-4.25-3.38a51.48,51.48,0,0,1-4.74-4.06,77.31,77.31,0,0,1-5.78-5.66l-3.14-3.41c-1-1.2-2-2.54-3.08-3.87a96.67,96.67,0,0,1-6.12-8.78A99.22,99.22,0,0,1,627.73,110a106.83,106.83,0,0,1-3.87-23.13c0-3.76-.22-7.41.14-10.86.12-1.72.23-3.41.34-5s.44-3.17.64-4.67c.33-3,1-5.72,1.47-8.13a58.85,58.85,0,0,1,1.49-6.2c.95-3.41,1.5-5.36,1.5-5.36Z"/><path class="ac5263ed-211a-4879-a231-197ab05a80c3" d="M630.25,121.79s-.87.18-2.36.38l-2.49,0c-.9-.13-1.92-.26-3-.47A54,54,0,0,1,608.35,116a56.14,56.14,0,0,1-11.93-8.83,25.59,25.59,0,0,1-3-3.83c-.52-1-.83-1.64-.83-1.64l1,1.5a23.88,23.88,0,0,0,3.42,3.3,54.1,54.1,0,0,0,12.57,6.92,49.6,49.6,0,0,0,13.55,3.49c.9.06,1.71,0,2.42.06l1.7-.2c.78-.27,1.21-.37,1.21-.37Z"/><path class="ac5263ed-211a-4879-a231-197ab05a80c3" d="M640.52,135.26s.6-.18,1.72-.41a14.37,14.37,0,0,0,4.44-2.71c3.48-3.13,7.1-9,9.72-15.25a83.14,83.14,0,0,0,5.19-18.09,49.92,49.92,0,0,0,.55-6.23c-.08-1.51-.13-2.38-.13-2.38s.14.86.37,2.37a49.14,49.14,0,0,1,.1,6.33,85.21,85.21,0,0,1-3.39,19c-2.05,6.75-5.12,13.36-9,17.68a28.63,28.63,0,0,1-3,2.7,18.84,18.84,0,0,1-2.82,1.69c-1.78.65-2.84,1-2.84,1Z"/><path class="ac5263ed-211a-4879-a231-197ab05a80c3" d="M652.66,154.56l-2.69.76a29.41,29.41,0,0,1-7.11.81c-5.88.13-13.29-1.73-20.1-4.6A81.33,81.33,0,0,1,605.4,141.3a62.35,62.35,0,0,1-5-4.29l-1.77-1.76,1.93,1.57a62.16,62.16,0,0,0,5.37,3.75,79.82,79.82,0,0,0,17.84,8.28c6.79,2.1,13.86,3.09,18.88,2.46a24,24,0,0,0,5.82-1.25l2-.79Z"/><path class="ac5263ed-211a-4879-a231-197ab05a80c3" d="M657.2,155.82l1.67-.84a23.29,23.29,0,0,0,4.2-3.17c3.35-3,7-8.27,9.93-13.92a70.51,70.51,0,0,0,6-16.53,42.42,42.42,0,0,0,.81-5.79c0-1.42,0-2.23,0-2.23s.08.81.2,2.23a42.25,42.25,0,0,1-.16,5.92A71.94,71.94,0,0,1,675.62,139c-2.38,6.17-5.59,12.14-9,16.09a28.26,28.26,0,0,1-4.72,4.44l-2.18,1.4Z"/><path class="b9cdf77d-b10f-4ef7-95c9-06bd47b28f45" d="M664.52,161.11s-11.34,64.49-94.49,42a94.57,94.57,0,0,0,14.56-17.73C591.93,174.09,627.54,147.53,664.52,161.11Z"/><path class="ac5263ed-211a-4879-a231-197ab05a80c3" d="M599,197.57a268.15,268.15,0,0,0,31.12-12.41c2.76-1.22,5.55-2.54,8.32-3.88a79,79,0,0,0,7.69-4.62c4.86-3.22,9-6.65,12.59-9.48,2-1.66,3.86-3.09,5.46-4.34.27-1.09.39-1.73.39-1.73-1.56-.57-3.11-1.05-4.66-1.48q-2,1.74-4.31,3.87c-6.75,6.21-15.64,14-26.71,19.08a264.62,264.62,0,0,1-30.18,14.14c-4.23,1.68-7.95,2.5-10.47,3.35l-4,1.2,4.07-1C590.81,199.61,594.61,199,599,197.57Z"/><path class="b9cdf77d-b10f-4ef7-95c9-06bd47b28f45" d="M659.91,166.41s83.19,27.1,70.54-49.58c0,0-12,15.58-22,16.48S667.7,143.23,659.91,166.41Z"/><path class="ac5263ed-211a-4879-a231-197ab05a80c3" d="M659.91,166.41l.91.28,9-3.85c6.87-2.7,16-6.4,25.65-8.59,4.7-1.16,9.81-2.41,14.07-4.57a28.6,28.6,0,0,0,9.87-8.34,27.33,27.33,0,0,0,2.69-4.38,25.76,25.76,0,0,0,1.63-3.58l1.18-3.21-1.41,3.11a24.54,24.54,0,0,1-1.86,3.42,26.18,26.18,0,0,1-2.93,4.08,27.18,27.18,0,0,1-9.94,7.26c-4.22,1.75-8.91,2.56-13.92,3.42-9.92,1.52-19.54,4.62-26.7,6.85l-5.35,1.85A34.25,34.25,0,0,0,659.91,166.41Z"/><path class="ac5263ed-211a-4879-a231-197ab05a80c3" d="M672.16,178.29l2.18,5.47c.7,1.74,1.54,3.85,2.51,6.28s2.35,5.08,3.7,8c2.69,5.89,6.2,12.66,9.77,20,1.75,3.71,3.56,7.55,5.41,11.45s3.51,7.78,5.67,11.54c4,7.65,8.68,15.07,12.39,22.37,3.4,7.46,6.7,14.35,9.3,20.35l7.52,20.44-8.35-20.09c-2.83-5.87-6.39-12.59-10.06-19.83-4-7.09-8.89-14.25-13.3-21.84-2.33-3.71-4.21-7.7-6.26-11.52s-3.92-7.49-5.8-11.09c-3.85-7.18-7.63-13.78-10.61-19.66-1.5-2.93-3-5.54-4.1-8l-2.85-6.37-2.48-5.56Z"/><path class="ac5263ed-211a-4879-a231-197ab05a80c3" d="M716,269.2l.55.18a98.42,98.42,0,0,1,12.13,4.83,43,43,0,0,1,10.51,7.59,40.06,40.06,0,0,1,2.87,3.27l1.07,1.28s-.32-.51-.86-1.42a42,42,0,0,0-2.4-3.71,45,45,0,0,0-9.71-9.46,102.84,102.84,0,0,0-11.73-6.82L713,262.21l0,.09A27.05,27.05,0,0,1,716,269.2Z"/><path class="ac5263ed-211a-4879-a231-197ab05a80c3" d="M701,244.37c-.51.24-1,.52-1.66.85a25.33,25.33,0,0,0-2.19,1.73,36.93,36.93,0,0,0-7.39,11.13,58.62,58.62,0,0,0-4.05,12.2,32.61,32.61,0,0,0-.53,4.18c0,1,0,1.59,0,1.59a20,20,0,0,1,1.35-5.53,57.45,57.45,0,0,1,5.69-11,33.24,33.24,0,0,1,7.93-8.78c.62-.39,1.19-.68,1.67-.93s.88-.3,1.2-.37a3.59,3.59,0,0,0,.87,0V249A13.38,13.38,0,0,1,701,244.37Z"/><path class="ac5263ed-211a-4879-a231-197ab05a80c3" d="M692.92,225.33l2.3-.78a16.52,16.52,0,0,1,2.67-.72,22,22,0,0,1,3.5-.58,36.19,36.19,0,0,1,8.73.11,53.29,53.29,0,0,1,9.48,2.27,90.68,90.68,0,0,1,16.12,7.63c4.17,2.44,6.86,4.2,6.86,4.2s-2.88-1.45-7.27-3.4a89.38,89.38,0,0,0-16.48-5.68c-6.13-1.37-12.35-1.46-16.66-.36a16.74,16.74,0,0,0-2.89.82,11.5,11.5,0,0,0-2.14.84l-1.81.84Z"/><path class="ac5263ed-211a-4879-a231-197ab05a80c3" d="M683,207.91a46.15,46.15,0,0,1-5.4,4.43c-3.26,2.38-7.65,5.18-11.7,8.35s-7.69,6.92-8.88,10.59a12.82,12.82,0,0,0-.51,6.34,13.22,13.22,0,0,1-.35-6.59c.74-4.08,4.13-8.62,7.81-12.45s7.79-7.28,10.55-10a39,39,0,0,0,4.18-4.49Z"/><path class="ac5263ed-211a-4879-a231-197ab05a80c3" d="M676.49,192.2l2.55.16c1.62.14,3.93.19,6.69.52A105.83,105.83,0,0,1,705.66,197a114.1,114.1,0,0,1,18.4,8.2c4.75,2.71,7.83,4.62,7.83,4.62s-3.27-1.61-8.23-3.81a110.15,110.15,0,0,0-18.75-6.25,101.18,101.18,0,0,0-19.46-2c-2.66-.06-4.9.12-6.46.14l-2.44.08Z"/><path class="f58a2cb6-44a8-4377-b54f-bb6d1aaefede" d="M680.76,148.56s-10,36.27,20.1,48.4,93.53-47.7,118-22.81c0,0-31.56-115.45-102.21-88C665.66,118,680.76,148.56,680.76,148.56Z"/><path class="ac5263ed-211a-4879-a231-197ab05a80c3" d="M801.29,153.54a59.52,59.52,0,0,0-5.42-4c-2.14-1.46-4.52-3.18-7.33-4.73l-4.3-2.53-4.79-2.38c-3.25-1.75-6.92-3-10.63-4.58a114.08,114.08,0,0,0-24.56-5.71,107.89,107.89,0,0,0-25.35.63,106.54,106.54,0,0,0-11.47,2.49c-1.78.52-3.56.93-5.22,1.5L697.44,136a81.13,81.13,0,0,0-8.19,3.47,55.83,55.83,0,0,0-6.13,3.09l-3.65,2a20.07,20.07,0,0,0,1.29,4s-.11.38-.26,1.05l.6.95,4.86-3a50.74,50.74,0,0,1,5.71-3.21,79.49,79.49,0,0,1,7.67-3.66l4.48-1.87c1.57-.61,3.24-1.07,4.93-1.65a102.71,102.71,0,0,1,10.86-2.87,104.52,104.52,0,0,1,24.4-1.68,111.56,111.56,0,0,1,24.2,4.52c3.7,1.37,7.39,2.46,10.66,4l4.83,2.15,4.38,2.32a84.68,84.68,0,0,1,7.48,4.37,59.82,59.82,0,0,1,5.58,3.71l4.75,3.41Z"/><path class="ac5263ed-211a-4879-a231-197ab05a80c3" d="M731.46,130.87s.15-.91.49-2.46c.26-.67.57-1.49.94-2.43s1-1.8,1.54-2.78a56.34,56.34,0,0,1,10.68-11.82,58.82,58.82,0,0,1,13-8.58,26.79,26.79,0,0,1,4.86-1.61l1.92-.22-1.85.48a25.36,25.36,0,0,0-4.49,2.18,57.35,57.35,0,0,0-11.35,9.9,52.5,52.5,0,0,0-8.32,12.1c-.38.87-.66,1.68-.93,2.37s-.3,1.26-.42,1.75a12.59,12.59,0,0,1-.07,1.33Z"/><path class="ac5263ed-211a-4879-a231-197ab05a80c3" d="M714.49,136.15s0,.66-.22,1.84a15.4,15.4,0,0,0,1.07,5.36c1.84,4.55,6.29,10.23,11.54,15.07a87.75,87.75,0,0,0,16,11.64,53,53,0,0,0,5.94,2.78l2.39.73-2.46-.48a52.76,52.76,0,0,1-6.28-2.19A89.39,89.39,0,0,1,725,160.73c-5.91-4.46-11.32-9.87-14.19-15.23a28.92,28.92,0,0,1-1.59-3.93,19.69,19.69,0,0,1-.64-3.38c0-2,.06-3.16.06-3.16Z"/><path class="ac5263ed-211a-4879-a231-197ab05a80c3" d="M691.08,141.17s.08-1.07.23-2.93a30.88,30.88,0,0,1,1.76-7.3c2-5.85,6.5-12.48,11.77-18.16a85.69,85.69,0,0,1,16.34-13.44,67.31,67.31,0,0,1,6-3.39l2.37-1.12-2.25,1.34a67.87,67.87,0,0,0-5.62,3.94,83.77,83.77,0,0,0-14.59,14.61c-4.52,5.94-8,12.55-9.22,17.73a25,25,0,0,0-.87,6.19c0,1.46,0,2.3,0,2.3Z"/><path class="ac5263ed-211a-4879-a231-197ab05a80c3" d="M688.21,145.19s.08.71.23,1.95a24.13,24.13,0,0,0,1.6,5.28c1.8,4.4,5.64,9.9,10.16,14.81a73.9,73.9,0,0,0,14.14,11.85,43.79,43.79,0,0,0,5.41,2.88l2.19.85-2.27-.61a44.36,44.36,0,0,1-5.78-2.3,75.29,75.29,0,0,1-15.77-10.5c-5.24-4.57-10-9.89-12.61-14.72a29.89,29.89,0,0,1-2.67-6.26c-.39-1.69-.6-2.65-.6-2.65Z"/><path class="b9cdf77d-b10f-4ef7-95c9-06bd47b28f45" d="M672.07,173.6S603.75,166,621.76,77.42A99.63,99.63,0,0,0,641.3,91.49C653.62,98.42,683.83,134,672.07,173.6Z"/><path class="ac5263ed-211a-4879-a231-197ab05a80c3" d="M629.49,107.34a279.68,279.68,0,0,0,15.08,31.78c1.46,2.81,3,5.65,4.62,8.46a87.54,87.54,0,0,0,5.36,7.75c3.7,4.87,7.56,9,10.77,12.55,1.87,2,3.5,3.84,4.91,5.43,1.17.21,1.84.29,1.84.29.5-1.67.89-3.33,1.24-5q-1.95-2-4.35-4.26c-7-6.65-15.71-15.45-21.77-26.7A278.3,278.3,0,0,1,630.36,107c-2-4.32-3.14-8.16-4.2-10.74s-1.53-4.12-1.53-4.12.47,1.52,1.28,4.2S627.7,102.9,629.49,107.34Z"/><path class="f58a2cb6-44a8-4377-b54f-bb6d1aaefede" d="M666.21,169.13s-22.83,89,56.65,70.58c0,0-17.11-11.52-18.74-22S691,175.74,666.21,169.13Z"/><path class="ac5263ed-211a-4879-a231-197ab05a80c3" d="M666.21,169.13l-.23,1c1,2,2.63,5.2,4.63,9.18,3.29,7,7.78,16.36,10.72,26.3,1.52,4.84,3.17,10.12,5.72,14.44a30.09,30.09,0,0,0,9.4,9.78,28.81,28.81,0,0,0,4.76,2.52,27,27,0,0,0,3.87,1.46l3.44,1-3.35-1.27a25.87,25.87,0,0,1-3.71-1.72A27.18,27.18,0,0,1,697,229a28.64,28.64,0,0,1-8.27-9.93c-2.12-4.31-3.28-9.17-4.51-14.35-2.26-10.3-6.15-20.17-9-27.52-.85-2-1.62-3.88-2.28-5.49A37.6,37.6,0,0,0,666.21,169.13Z"/><path class="f58a2cb6-44a8-4377-b54f-bb6d1aaefede" d="M965.67,263.63s-39.72-21.44-62,10.57,30.77,122.11-4.87,144.08c0,0,143.43-6,130.16-96C1005.42,254.15,965.67,263.63,965.67,263.63Z"/><path class="ac5263ed-211a-4879-a231-197ab05a80c3" d="M927.63,403.24a72.63,72.63,0,0,0,6.08-5.28,104.6,104.6,0,0,0,7.49-7.31c1.31-1.4,2.69-2.85,4.11-4.36l4.07-5c2.91-3.33,5.37-7.29,8.19-11.21a136.62,136.62,0,0,0,13.24-27.19,129.49,129.49,0,0,0,6-29.81,125.58,125.58,0,0,0,.15-14.07c-.13-2.23-.13-4.42-.36-6.51s-.51-4.12-.76-6.06A98.84,98.84,0,0,0,974,276a68.46,68.46,0,0,0-2-8c-.59-2.06-1-3.65-1.38-4.82a24,24,0,0,0-5,.45l-1.16-.58-1.26.45s.79,2.36,2.18,6.48a63.93,63.93,0,0,1,2.23,7.53,93.34,93.34,0,0,1,2.22,9.95c.32,1.84.65,3.76,1,5.74s.39,4.08.61,6.2a120.31,120.31,0,0,1,.45,13.47,124.52,124.52,0,0,1-4.56,29,133.55,133.55,0,0,1-11.74,27.09c-2.59,4-4.85,8-7.58,11.38l-3.8,5.08-3.88,4.49c-2.42,3-4.94,5.38-7.11,7.59a77,77,0,0,1-5.83,5.53l-5.26,4.64Z"/><path class="ac5263ed-211a-4879-a231-197ab05a80c3" d="M972.8,327.65s1,.41,2.75,1.22l2.59,1.76c.87.75,1.85,1.59,2.83,2.54a68.34,68.34,0,0,1,11,15.64,71,71,0,0,1,6.55,17.5,31,31,0,0,1,.58,6.11l-.25,2.3s0-.82-.06-2.29a30.17,30.17,0,0,0-1.36-5.82,68.29,68.29,0,0,0-8.53-15.92,63.07,63.07,0,0,0-11.93-13c-.92-.68-1.79-1.22-2.52-1.71l-1.94-1c-1-.25-1.54-.44-1.54-.44Z"/><path class="ac5263ed-211a-4879-a231-197ab05a80c3" d="M971.17,306.39s-.76-.22-2.1-.74a18,18,0,0,0-6.55-.18c-5.82.93-13.65,4.61-20.71,9.46a105.26,105.26,0,0,0-17.88,15.56,63.87,63.87,0,0,0-4.83,6.2l-1.5,2.6,1.23-2.75a62.44,62.44,0,0,1,4.23-6.75,107.36,107.36,0,0,1,16.57-17.73c6.8-5.72,14.56-10.6,21.6-12.53a34.63,34.63,0,0,1,5-.8,24.13,24.13,0,0,1,4.13.15c2.33.53,3.67.91,3.67.91Z"/><path class="ac5263ed-211a-4879-a231-197ab05a80c3" d="M971.55,277.69l3.37,1a36.52,36.52,0,0,1,8.06,4c6.31,3.89,12.86,10.93,18.09,18.62a102.67,102.67,0,0,1,11.35,22.7,79.56,79.56,0,0,1,2.35,8c.43,2,.67,3.07.67,3.07l-1-3c-.66-1.88-1.67-4.55-3.1-7.63a101.31,101.31,0,0,0-13.19-21c-5.73-6.87-12.52-12.75-18.26-15.51a29.83,29.83,0,0,0-7-2.67l-2.71-.57Z"/><path class="ac5263ed-211a-4879-a231-197ab05a80c3" d="M967.63,273.25l-2.35-.26a30,30,0,0,0-6.61.47c-5.61.92-13.07,3.94-20,7.91A88.91,88.91,0,0,0,921,294.74a52.07,52.07,0,0,0-4.81,5.57l-1.58,2.32s.47-.91,1.32-2.49a52.25,52.25,0,0,1,4.23-6.14,90.49,90.49,0,0,1,16.5-15.64c6.74-4.89,14.21-9,20.58-10.8a35.57,35.57,0,0,1,8-1.45h3.26Z"/><path class="f8f21868-9cc4-464d-a1df-9298926db1dd" d="M885.22,203.17s-7.37,12.46,4.17,23,49,42.14,25.15,88.46-72.89,48.21-72.89,48.21-45.57-66.24-30.08-104,58.11-44.21,58.11-44.21,8.64,1.5,8.55-16.6c0,0,1.73-5,1.79-7.93s6.32.41,6.32.41l3,1.82S882.51,199.34,885.22,203.17Z"/><path class="f58a2cb6-44a8-4377-b54f-bb6d1aaefede" d="M896.51,185.13s28.37,21.92,49.92-.3S938,85.16,968.79,72.53c0,0-113.18-13.73-114.36,58.48C864.13,187.45,896.51,185.13,896.51,185.13Z"/><path class="ac5263ed-211a-4879-a231-197ab05a80c3" d="M944.29,80.61A56.93,56.93,0,0,0,938.85,84,80,80,0,0,0,932,88.73l-3.78,2.89L924.43,95c-2.71,2.23-5.16,5-7.86,7.73a107.85,107.85,0,0,0-13.88,19.61,102.73,102.73,0,0,0-8.57,22.58,101.63,101.63,0,0,0-1.93,11c-.19,1.76-.46,3.48-.56,5.15s-.12,3.29-.18,4.84a80.43,80.43,0,0,0,.11,8.48,54.68,54.68,0,0,0,.53,6.51c.2,1.69.35,3,.46,4a19.08,19.08,0,0,0,4,.28s.3.23.83.6l1-.18-.88-5.36a52.87,52.87,0,0,1-.77-6.19,74.47,74.47,0,0,1-.47-8.08c0-1.48,0-3,0-4.63s.22-3.24.32-4.94a95.23,95.23,0,0,1,1.38-10.62,99.69,99.69,0,0,1,7.3-22.12,106.81,106.81,0,0,1,12.69-19.72c2.54-2.77,4.83-5.63,7.41-7.94L929,92.46l3.62-3c2.27-2,4.56-3.58,6.55-5a59.26,59.26,0,0,1,5.28-3.58l4.71-3Z"/><path class="ac5263ed-211a-4879-a231-197ab05a80c3" d="M899.16,134s-.75-.45-2-1.31l-1.8-1.71c-.58-.7-1.25-1.48-1.89-2.36A53.51,53.51,0,0,1,886.88,115,55.89,55.89,0,0,1,884,100.43a24.48,24.48,0,0,1,.33-4.86l.49-1.78-.25,1.81a24.2,24.2,0,0,0,.32,4.74,54.27,54.27,0,0,0,4.64,13.58,49.69,49.69,0,0,0,7.68,11.69c.63.65,1.24,1.19,1.75,1.67l1.4,1c.76.33,1.14.54,1.14.54Z"/><path class="ac5263ed-211a-4879-a231-197ab05a80c3" d="M897.71,150.91s.56.27,1.54.86a14.77,14.77,0,0,0,5.11,1c4.68,0,11.29-1.86,17.45-4.75a82.6,82.6,0,0,0,16-9.9,47.9,47.9,0,0,0,4.6-4.24l1.5-1.84-1.32,2a48.67,48.67,0,0,1-4.18,4.75,85.14,85.14,0,0,1-15.27,11.76c-6.06,3.61-12.78,6.44-18.54,7a27,27,0,0,1-4,0,19.18,19.18,0,0,1-3.22-.65c-1.75-.71-2.76-1.19-2.76-1.19Z"/><path class="ac5263ed-211a-4879-a231-197ab05a80c3" d="M893.71,173.36l-2.5-1.25a29.09,29.09,0,0,1-5.81-4.18c-4.44-3.86-8.67-10.22-11.78-16.92a81.77,81.77,0,0,1-6-19.25,62,62,0,0,1-.82-6.55c-.08-1.59-.13-2.5-.13-2.5s.14.9.37,2.47a65.13,65.13,0,0,0,1.45,6.39,79.93,79.93,0,0,0,7.64,18.12c3.6,6.12,8.17,11.61,12.31,14.51a23.87,23.87,0,0,0,5.15,3l2,.79Z"/><path class="ac5263ed-211a-4879-a231-197ab05a80c3" d="M896.22,177.34l1.8.51a23.44,23.44,0,0,0,5.24.48c4.52,0,10.75-1.4,16.71-3.62a70.7,70.7,0,0,0,15.55-8.21,44.92,44.92,0,0,0,4.49-3.74l1.53-1.62-1.35,1.78a43.11,43.11,0,0,1-4.11,4.27,71.75,71.75,0,0,1-15,10.13c-5.91,3-12.29,5.22-17.51,5.82a29.29,29.29,0,0,1-6.48.11l-2.56-.43Z"/><path class="b9cdf77d-b10f-4ef7-95c9-06bd47b28f45" d="M898.08,186.18s-51.77,40.1-98.18-32.47a94.76,94.76,0,0,0,22.7-3.33C835.63,147,879.85,151.26,898.08,186.18Z"/><path class="ac5263ed-211a-4879-a231-197ab05a80c3" d="M825,169.06a264.92,264.92,0,0,0,31.38,11.75c2.86,1,5.82,1.85,8.76,2.73a82.6,82.6,0,0,0,8.81,1.75c5.76.88,11.14,1.15,15.69,1.45,2.62.14,4.93.31,7,.46.93-.62,1.45-1,1.45-1-.77-1.47-1.6-2.86-2.45-4.23-1.76,0-3.69,0-5.8,0-9.17.06-21-.16-32.6-3.84a267.65,267.65,0,0,1-31.84-9.84c-4.26-1.6-7.56-3.5-10-4.56l-3.77-1.81,3.65,2C817.64,165.1,820.86,167.2,825,169.06Z"/><path class="b9cdf77d-b10f-4ef7-95c9-06bd47b28f45" d="M891.11,187s43.33,76,85.54,10.77c0,0-19.35,3.45-27.4-2.63S912.46,175.09,891.11,187Z"/><path class="ac5263ed-211a-4879-a231-197ab05a80c3" d="M891.11,187s.16.3.48.82c2,.71,5.24,1.83,9.25,3.21,6.9,2.63,16.16,6,24.76,10.9,4.26,2.3,8.88,4.81,13.49,6.08a28.45,28.45,0,0,0,12.91.47,26.84,26.84,0,0,0,4.93-1.43,24.73,24.73,0,0,0,3.62-1.56l3-1.58-3.13,1.36a25,25,0,0,1-3.68,1.28,26.57,26.57,0,0,1-4.91,1,27.31,27.31,0,0,1-12.24-1.32c-4.3-1.54-8.31-4.1-12.6-6.83-8.36-5.55-17.57-9.73-24.37-12.89l-5.2-2.23A34.57,34.57,0,0,0,891.11,187Z"/><path class="ac5263ed-211a-4879-a231-197ab05a80c3" d="M880.56,219.77s-.63,2-1.75,5.62c-.55,1.78-1.23,4-2,6.46s-1.38,5.42-2.18,8.56c-1.62,6.26-3.16,13.74-5,21.7-1,4-2,8.1-3,12.29s-2.18,8.26-2.87,12.54c-1.7,8.47-2.76,17.17-4.48,25.18-2.06,7.93-3.84,15.36-5.6,21.66-4.23,12.36-7,20.61-7,20.61l6.18-20.86c1.49-6.34,3-13.8,4.68-21.74,1.38-8,2.08-16.67,3.44-25.34.52-4.35,1.58-8.63,2.4-12.89s1.67-8.28,2.47-12.26c1.54-8,2.76-15.51,4.15-22,.69-3.22,1.18-6.18,1.86-8.78s1.3-4.88,1.8-6.75c1-3.74,1.58-5.88,1.58-5.88Z"/><path class="ac5263ed-211a-4879-a231-197ab05a80c3" d="M857.35,318c.11.17.21.32.31.49A98.14,98.14,0,0,1,864,329.88a43,43,0,0,1,3.38,12.53,40.46,40.46,0,0,1,.16,4.34c0,1.07,0,1.67,0,1.67s.07-.6.22-1.64a41.67,41.67,0,0,0,.48-4.4,44.89,44.89,0,0,0-1.58-13.46,101.84,101.84,0,0,0-4.81-12.69l-2.5-5.55-.09.05A27.07,27.07,0,0,1,857.35,318Z"/><path class="ac5263ed-211a-4879-a231-197ab05a80c3" d="M861.29,289.23c-.54-.13-1.13-.25-1.81-.39a25.73,25.73,0,0,0-2.8,0,36.93,36.93,0,0,0-12.76,4,58.87,58.87,0,0,0-10.83,6.93,33.2,33.2,0,0,0-3,2.91l-1,1.26a20,20,0,0,1,4.53-3.44,56.58,56.58,0,0,1,11.38-5,33.31,33.31,0,0,1,11.7-1.82c.72.08,1.34.22,1.88.33s.87.32,1.16.46a3.56,3.56,0,0,0,.71.52l.18-.25A13.63,13.63,0,0,1,861.29,289.23Z"/><path class="ac5263ed-211a-4879-a231-197ab05a80c3" d="M867,269.38l2.28.84a15.63,15.63,0,0,1,2.52,1.12,22.3,22.3,0,0,1,3.09,1.76,36.47,36.47,0,0,1,6.71,5.58,53.94,53.94,0,0,1,5.94,7.74,91.67,91.67,0,0,1,7.7,16.08c1.7,4.53,2.68,7.58,2.68,7.58s-1.32-2.93-3.5-7.21a89.29,89.29,0,0,0-9.22-14.8c-3.89-4.93-8.67-8.91-12.71-10.78a16.89,16.89,0,0,0-2.76-1.19,12.48,12.48,0,0,0-2.19-.69l-1.94-.48Z"/><path class="ac5263ed-211a-4879-a231-197ab05a80c3" d="M870.32,249.6a44.43,44.43,0,0,1-7,.05c-4-.21-9.2-.81-14.35-.9s-10.33.53-13.56,2.63A12.66,12.66,0,0,0,831,256a13,13,0,0,1,3.87-5.33c3.15-2.71,8.64-4.1,13.91-4.75s10.64-.75,14.46-1.08a39.57,39.57,0,0,0,6.08-.85Z"/><path class="ac5263ed-211a-4879-a231-197ab05a80c3" d="M875.17,233.3s.67.63,1.87,1.73,2.93,2.62,4.87,4.62a104.89,104.89,0,0,1,12.89,15.73,113.62,113.62,0,0,1,9.12,18c2,5.1,3.17,8.53,3.17,8.53s-1.52-3.31-4-8.15a111.45,111.45,0,0,0-10.63-16.67,101.73,101.73,0,0,0-13.82-13.84c-2-1.72-3.89-3-5.11-4l-1.95-1.47Z"/><path class="f8f21868-9cc4-464d-a1df-9298926db1dd" d="M906.6,189.38s-14.23-5.34-23,8.51-34.57,58.33-86.81,42.22-63.2-66.48-63.2-66.48,60.1-59.26,102-50.18,56.35,52,56.35,52,0,9.21,18.73,5.8c0,0,5.46.86,8.53.39s.72,6.6.72,6.6l-1.32,3.49S910.06,185.87,906.6,189.38Z"/><path class="f58a2cb6-44a8-4377-b54f-bb6d1aaefede" d="M910.39,199.13s-25.31,27.85-3.86,52.26,105-.43,115.62,32.82c0,0,23.87-117.28-51.6-124.58C910.69,165.05,910.39,199.13,910.39,199.13Z"/><path class="ac5263ed-211a-4879-a231-197ab05a80c3" d="M1015.75,257.89a62.19,62.19,0,0,0-3-6c-1.26-2.27-2.61-4.87-4.41-7.52l-2.71-4.2-3.2-4.29c-2.1-3-4.81-5.81-7.42-8.87a114.39,114.39,0,0,0-19.35-16.16,98.13,98.13,0,0,0-34.27-13.81c-1.84-.35-3.61-.78-5.34-1l-5.06-.6a84.61,84.61,0,0,0-8.87-.59,57.93,57.93,0,0,0-6.87,0L911,195a20.27,20.27,0,0,0-.64,4.12s-.26.29-.7.82l.11,1.11,5.68-.47a52.55,52.55,0,0,1,6.55-.29,78.16,78.16,0,0,1,8.49.19l4.85.36c1.67.15,3.37.49,5.14.74a102.74,102.74,0,0,1,11,2.34A104.2,104.2,0,0,1,974,213.42a112,112,0,0,1,19.56,14.94c2.69,2.89,5.49,5.52,7.69,8.41l3.35,4.1,2.86,4c1.92,2.55,3.37,5.08,4.72,7.28a62,62,0,0,1,3.3,5.82c1.72,3.3,2.71,5.18,2.71,5.18Z"/><path class="ac5263ed-211a-4879-a231-197ab05a80c3" d="M963.63,206.19s.54-.75,1.54-2l1.94-1.75c.78-.55,1.66-1.18,2.63-1.78a56.52,56.52,0,0,1,14.86-5.75,58.91,58.91,0,0,1,15.47-1.79,26.37,26.37,0,0,1,5.06.75l1.81.67-1.86-.41a24.67,24.67,0,0,0-5-.07,56.76,56.76,0,0,0-14.59,3.71,52.88,52.88,0,0,0-12.89,7.06c-.73.61-1.34,1.2-1.89,1.69l-1.16,1.38c-.4.77-.66,1.16-.66,1.16Z"/><path class="ac5263ed-211a-4879-a231-197ab05a80c3" d="M946.1,203.25s-.33.57-1,1.55a15,15,0,0,0-1.46,5.26c-.41,4.89,1,12,3.5,18.65a87.64,87.64,0,0,0,9,17.59,49.59,49.59,0,0,0,4.05,5.16l1.8,1.73-2-1.54a52.25,52.25,0,0,1-4.62-4.78,89.41,89.41,0,0,1-11-17c-3.27-6.65-5.66-13.91-5.81-20a28.48,28.48,0,0,1,.35-4.23,20.28,20.28,0,0,1,1-3.31c.9-1.78,1.48-2.79,1.48-2.79Z"/><path class="ac5263ed-211a-4879-a231-197ab05a80c3" d="M923,197.18l1.51-2.51a31,31,0,0,1,4.87-5.73c4.41-4.32,11.42-8.21,18.69-10.9a85.23,85.23,0,0,1,20.64-4.63,64,64,0,0,1,6.93-.31l2.62.07-2.62.18c-1.65.15-4,.44-6.79,1a84.18,84.18,0,0,0-19.61,6.47c-6.71,3.27-12.84,7.58-16.22,11.67a25.3,25.3,0,0,0-3.57,5.13l-1,2.08Z"/><path class="ac5263ed-211a-4879-a231-197ab05a80c3" d="M918.57,199.47s-.25.67-.68,1.85a25.25,25.25,0,0,0-.95,5.44c-.37,4.73.57,11.37,2.4,17.79a74.09,74.09,0,0,0,7.28,17,44,44,0,0,0,3.54,5l1.56,1.74L930,246.69a45,45,0,0,1-4.12-4.65,75.71,75.71,0,0,1-9.35-16.49c-2.61-6.44-4.43-13.31-4.62-18.82a29.49,29.49,0,0,1,.44-6.79c.41-1.68.66-2.64.66-2.64Z"/><path class="b9cdf77d-b10f-4ef7-95c9-06bd47b28f45" d="M904.34,192.31S860.07,139.73,934.2,88a99.63,99.63,0,0,0,4.46,23.67C942.81,125.13,940.19,171.7,904.34,192.31Z"/><path class="ac5263ed-211a-4879-a231-197ab05a80c3" d="M919.18,115a279.59,279.59,0,0,0-11,33.42c-.88,3-1.69,6.18-2.48,9.31a85,85,0,0,0-1.46,9.31c-.68,6.08-.73,11.73-.85,16.52,0,2.75-.11,5.18-.19,7.31.7,1,1.13,1.48,1.13,1.48,1.51-.86,2.94-1.8,4.34-2.75,0-1.85-.12-3.87-.22-6.08-.45-9.61-.73-22,2.64-34.36a278.25,278.25,0,0,1,8.95-33.82c1.5-4.53,3.35-8.07,4.36-10.68s1.74-4,1.74-4-.72,1.42-2,3.92S921,110.51,919.18,115Z"/><path class="f58a2cb6-44a8-4377-b54f-bb6d1aaefede" d="M903.18,185s-77.87,48.69-7.62,90.17c0,0-4.45-20.14,1.58-28.84S916.59,206.92,903.18,185Z"/><path class="ac5263ed-211a-4879-a231-197ab05a80c3" d="M903.18,185l-.83.53-3,9.85c-2.46,7.35-5.64,17.21-10.36,26.44-2.24,4.56-4.68,9.52-5.81,14.41a30.12,30.12,0,0,0,.06,13.56,28.26,28.26,0,0,0,1.72,5.11,26.07,26.07,0,0,0,1.79,3.72l1.78,3.12L887,258.55a25.66,25.66,0,0,1-1.5-3.81,28,28,0,0,1-1.32-5.1,28.8,28.8,0,0,1,.86-12.9c1.44-4.58,4-8.89,6.63-13.5,5.46-9,9.44-18.85,12.47-26.11q1.18-3.12,2.13-5.55A36.75,36.75,0,0,0,903.18,185Z"/><path class="ac5263ed-211a-4879-a231-197ab05a80c3" d="M888.59,187.6l-6.12-.77-7.05-.9c-2.72-.33-5.86-.43-9.25-.68-6.77-.53-14.78-.75-23.35-1.22l-13.26-.86c-4.44-.25-8.93-.73-13.48-.66-9.07-.2-18.25.29-26.85,0-8.58-.68-16.58-1.16-23.41-1.83l-22.6-3.48,22.69,2.55c6.83.38,14.81.54,23.33.86,8.54,0,17.61-.92,26.82-1.1,4.59-.25,9.22.05,13.77.12l13.12.31c8.56.12,16.54,0,23.46.26,3.45.12,6.61.08,9.42.3l7.3.63,6.37.55Z"/><path class="ac5263ed-211a-4879-a231-197ab05a80c3" d="M782.79,181.63l-.44.42a105,105,0,0,1-10.6,8.68,45.25,45.25,0,0,1-12.32,5.78,42.37,42.37,0,0,1-4.47,1l-1.72.33,1.75-.07a45.22,45.22,0,0,0,4.63-.31,47.28,47.28,0,0,0,13.62-4.1,107.75,107.75,0,0,0,12.24-7.3l5.27-3.61-.07-.07A28.63,28.63,0,0,1,782.79,181.63Z"/><path class="ac5263ed-211a-4879-a231-197ab05a80c3" d="M813.27,180.42c0-.58.05-1.21.06-1.94a24.62,24.62,0,0,0-.48-2.9,39,39,0,0,0-6.45-12.45,62.74,62.74,0,0,0-9.15-9.93,32.2,32.2,0,0,0-3.57-2.6l-1.47-.78a21.16,21.16,0,0,1,4.38,4.05,60.05,60.05,0,0,1,7.26,10.85,35,35,0,0,1,4,11.76,19.23,19.23,0,0,1,0,2c-.13.5-.18,1-.27,1.28a4.34,4.34,0,0,0-.4.83l.29.14A14.39,14.39,0,0,1,813.27,180.42Z"/><path class="ac5263ed-211a-4879-a231-197ab05a80c3" d="M834.83,182.73l-.44,2.5a17.7,17.7,0,0,1-.7,2.82,23,23,0,0,1-1.25,3.51,37.52,37.52,0,0,1-4.54,8,56.34,56.34,0,0,1-6.91,7.56A95.69,95.69,0,0,1,805.78,218c-4.36,2.59-7.34,4.15-7.34,4.15s2.79-1.89,6.82-4.93A95.1,95.1,0,0,0,818.86,205c4.38-4.93,7.62-10.6,8.81-15.11a18.21,18.21,0,0,0,.72-3.08,13.28,13.28,0,0,0,.32-2.39c.09-1.33.14-2.09.14-2.09Z"/><path class="ac5263ed-211a-4879-a231-197ab05a80c3" d="M855.88,182.49a47.54,47.54,0,0,1-1.33-7.21c-.52-4.2-.85-9.66-1.71-15s-2.43-10.58-5.2-13.53a13.23,13.23,0,0,0-5.56-3.7,13.64,13.64,0,0,1,6.22,3c3.38,2.75,5.82,8.17,7.46,13.5s2.73,10.86,3.77,14.75a39.35,39.35,0,0,0,2,6.12Z"/><path class="ac5263ed-211a-4879-a231-197ab05a80c3" d="M873.62,184.51s-.53.81-1.45,2.25-2.16,3.51-3.87,5.88a110.48,110.48,0,0,1-13.9,16.21,118.84,118.84,0,0,1-16.89,12.72c-4.9,3-8.23,4.84-8.23,4.84s3.14-2.17,7.69-5.61a117.12,117.12,0,0,0,15.28-14A106.56,106.56,0,0,0,864,189.94c1.41-2.42,2.38-4.57,3.16-6s1.17-2.29,1.17-2.29Z"/><path class="afd33331-43ad-482f-b0b0-8cf0850aa92c" d="M52.21,213.44c-9.41-2.74-63.49-.23-50.09,20.15,10.72,17.09,48.78-13,49.37-19"/><path class="f5d765ef-231f-4942-8f3e-b02218e0f0f4" d="M60.74,203.7c-5.11-9.58-49.26-49.34-56.19-28.25-6.21,20,48.64,25.08,56.19,28.25"/><path class="aadca221-850e-46ef-9b68-2be81c25f6dd" d="M96.6,211.18c-13,2.95-64,23.31-57.23,40.31,9.82,26.08,50.85-34,56.51-39.17"/><path class="aadca221-850e-46ef-9b68-2be81c25f6dd" d="M125.29,208.57c-4.52,5.91-51.54,65.38-22.22,65.56,12.7.05,22.37-30.45,24.19-39.65a92.32,92.32,0,0,0-1.05-26.12"/><path class="f5d765ef-231f-4942-8f3e-b02218e0f0f4" d="M93.81,211.81c-8.44,5.82-53.6,43.4-36.3,55.09,22.06,15.49,34.78-48.89,36.09-56"/><path class="afd33331-43ad-482f-b0b0-8cf0850aa92c" d="M126.84,211.15c-5.82,13-11,28.85-9.71,43.2,1.51,15.27,8.38,28.35,20.5,12.91,13.55-17.71,3.09-46.57-10.28-58.18"/><path class="aadca221-850e-46ef-9b68-2be81c25f6dd" d="M116.39,203.76c-14.77-.55-66.83-6.31-64.25-29.34,2.29-20,57.08,19.26,63.82,27.48"/><path class="f5d765ef-231f-4942-8f3e-b02218e0f0f4" d="M117.1,202.62c-14-1.69-66.89-45.33-41.83-51,16.71-3.79,37.87,42.16,44.11,52.46"/><path class="aadca221-850e-46ef-9b68-2be81c25f6dd" d="M173.31,187.92c-11.53,9.44-20.94,28.17-21.49,42.94-1.4,11,1.59,32.82,16.82,22.53,13.38-9.86,10-55,5.38-66.61"/><path class="f5d765ef-231f-4942-8f3e-b02218e0f0f4" d="M174.23,187.71c-6,12.1-9.39,70.45,15.51,51.14,15.74-12.36-4.33-44.9-15-53.21"/><path class="aadca221-850e-46ef-9b68-2be81c25f6dd" d="M170.39,183.7c-14.13,2.23-78.46-23.19-57.87-35.67,14.52-9.15,52.05,27.23,62,36.68"/><path class="f5d765ef-231f-4942-8f3e-b02218e0f0f4" d="M173.39,184c-8.48-3-59.1-32.46-42.22-44.1,14.52-9.15,39,34.1,43.87,42.75"/><path class="aadca221-850e-46ef-9b68-2be81c25f6dd" d="M205.67,154.22c-16.7,3.79-38.22-5-53.32-11.33-9.83-4.6-41.59-19.84-17.24-24.39,19.7-3.49,57,23.18,70.35,34.79"/><path class="afd33331-43ad-482f-b0b0-8cf0850aa92c" d="M205.25,152.36c-21.55,3.92-60.61-26.26-63.09-50.1,18.77-3.28,51,35.29,61.24,50.52"/><path class="aadca221-850e-46ef-9b68-2be81c25f6dd" d="M203.64,184c11.93,13.89,27.67,23,44.63,28.92,10.33,2.53,36.07,8.41,25.15-9.61-8.44-15.66-55.56-25.46-71.85-19.82"/><path class="f5d765ef-231f-4942-8f3e-b02218e0f0f4" d="M203.85,184.89c4,8.86,32.21,68.82,45.67,55,18.19-18.77-36.47-53.21-47-56.68"/><path class="f5d765ef-231f-4942-8f3e-b02218e0f0f4" d="M202.5,183.24c-6.16,7.26-39.59,57.79-20.57,64.21s24.53-55.34,22-66.48"/><path class="aadca221-850e-46ef-9b68-2be81c25f6dd" d="M233.57,135.2c-17-2-38.85-7.78-54.38-16-9.11-5.74-33.87-24.52-10.33-24,18.7.64,51.64,25.38,65,37"/><path class="f5d765ef-231f-4942-8f3e-b02218e0f0f4" d="M232.43,134.48c-7.76-4.09-62.92-57.95-40.35-66,16.08-6.57,37.83,54.86,41.28,65.79"/><path class="afd33331-43ad-482f-b0b0-8cf0850aa92c" d="M232.84,157.81c-.55,14.77,30.23,64.4,48.55,50.48,19-15.06-36.77-50.22-51.33-49.85"/><path class="aadca221-850e-46ef-9b68-2be81c25f6dd" d="M277.83,128.09c-5.83,13-5.93,59.9,15.25,62.91,23,2.58-4.37-53.67-15.76-60.85"/><path class="f5d765ef-231f-4942-8f3e-b02218e0f0f4" d="M277.53,131.08c.71,20.34,32.52,44.35,52.69,30,22.53-16.83-41.63-28.62-53.11-31.87"/><path class="f5d765ef-231f-4942-8f3e-b02218e0f0f4" d="M271.93,102.09c-16.92,2.87-32.82,1.6-48.13-5.67-7.56-3.16-42.23-22.62-27.92-32.7S260.75,95.85,272.65,101"/><path class="aadca221-850e-46ef-9b68-2be81c25f6dd" d="M294,74.64c-11.44,5.52-94.29-6.91-81.29-31.34,10.55-18,69.9,24.16,80.15,30.62"/><path class="f5d765ef-231f-4942-8f3e-b02218e0f0f4" d="M294.94,74.43c-18.19-2.71-38.77-11.7-51.85-26.31-6.53-7.3-20.45-25.61-5.18-27.13,18.78-3.28,42.52,41.11,54,53.14"/><path class="afd33331-43ad-482f-b0b0-8cf0850aa92c" d="M309.66,87.68c.16,13.63,6.63,76.57,35,68.19s-20.74-65.57-35.2-69.12"/><path class="b0a78e07-9607-468b-8a0d-a584f69751bf" d="M52.17,214.28c45.41-3.93,90.77-12.8,132.68-31.18a276,276,0,0,0,57.87-34.16c18.61-14.36,34.57-31.39,49.08-49.81,22.77-28.89,38.42-62.9,48.72-98.06a.83.83,0,0,0-1.59-.5A314.6,314.6,0,0,1,311.85,66,282.29,282.29,0,0,1,269,123.09c-32,33.28-72.74,56.36-116.47,70.44C120.08,204,86.19,209.67,52.25,212.61c-1.06.09-1.15,1.76-.08,1.67Z"/><path class="b0a78e07-9607-468b-8a0d-a584f69751bf" d="M203,153.49c8.24,5.84,18.34,6.76,28,4.63a.84.84,0,0,0-.37-1.63c-9.26,2-18.85,1.18-26.75-4.41-.88-.63-1.76.79-.89,1.41Z"/><path class="b0a78e07-9607-468b-8a0d-a584f69751bf" d="M231.61,134.13c5.59,5.87,13.83,7,21.47,5.31a.84.84,0,0,0-.37-1.63c-7.06,1.52-14.7.62-19.88-4.83a.84.84,0,0,0-1.22,1.15Z"/><path class="b0a78e07-9607-468b-8a0d-a584f69751bf" d="M270.75,103.1c6.37,1.45,12.73.19,18.71-2.2,1-.4.2-1.87-.79-1.48-5.52,2.22-11.52,3.43-17.41,2.09-1.05-.24-1.56,1.36-.51,1.59Z"/><path class="b0a78e07-9607-468b-8a0d-a584f69751bf" d="M290.26,76.31c5.72.56,12.47,1.24,17.56-2,.9-.58.12-2.06-.79-1.47-4.84,3.11-11.26,2.36-16.7,1.83-1.07-.1-1.14,1.57-.07,1.67Z"/><path class="b0a78e07-9607-468b-8a0d-a584f69751bf" d="M310.91,89.57c-.32-5.46-.64-10.93-.79-16.41,0-1.07-1.7-1.15-1.67-.08.15,5.48.47,11,.79,16.42.06,1.07,1.74,1.15,1.67.07Z"/><path class="b0a78e07-9607-468b-8a0d-a584f69751bf" d="M278.37,131.12a56.85,56.85,0,0,1,3-21,.83.83,0,0,0-1.59-.5,58.08,58.08,0,0,0-3,21.39c.07,1.07,1.74,1.15,1.67.08Z"/><path class="b0a78e07-9607-468b-8a0d-a584f69751bf" d="M203.51,184.43a34.26,34.26,0,0,1,6.66-13.06c.69-.83-.73-1.71-1.41-.89a35.21,35.21,0,0,0-6.84,13.44c-.28,1,1.32,1.55,1.59.51Z"/><path class="f5d765ef-231f-4942-8f3e-b02218e0f0f4" d="M170,181.84c2.07.51,5.07.8,6.2,1.52"/><path class="b0a78e07-9607-468b-8a0d-a584f69751bf" d="M169.72,182.64c1.91.45,4.28.45,6,1.43.93.53,1.83-.88.89-1.42-1.89-1.07-4.31-1.12-6.39-1.61-1-.24-1.56,1.35-.51,1.6Z"/><path class="f5d765ef-231f-4942-8f3e-b02218e0f0f4" d="M126.84,211.15c.51-2.07,3.38-6.62,5.75-9.11"/><path class="b0a78e07-9607-468b-8a0d-a584f69751bf" d="M127.64,211.4c.88-3.19,3.3-6.37,5.52-8.75.73-.79-.41-2-1.14-1.22-2.42,2.6-5,6-6,9.47-.29,1,1.31,1.54,1.59.5Z"/><path class="f5d765ef-231f-4942-8f3e-b02218e0f0f4" d="M96.09,213.25c1.64-1.35,4-3.84,5.65-5.19"/><path class="b0a78e07-9607-468b-8a0d-a584f69751bf" d="M96.66,213.86c2-1.65,3.69-3.55,5.66-5.19.82-.69-.32-1.91-1.15-1.22-2,1.64-3.69,3.54-5.65,5.18-.83.7.31,1.92,1.14,1.23Z"/><path class="b0a78e07-9607-468b-8a0d-a584f69751bf" d="M59,203.55a33.51,33.51,0,0,0,14.95,8.63c1,.27,1.55-1.32.51-1.6a31.77,31.77,0,0,1-14.24-8.17c-.76-.76-2,.37-1.22,1.14Z"/><path class="ac5263ed-211a-4879-a231-197ab05a80c3" d="M273.42,260.07C297.94,238,329.1,224,350.71,198.54c10.86-12.81,17.75-28.93,26.3-43.29,8.82-14.82,19.22-27.95,32.34-39.19a.89.89,0,0,0-1.16-1.36A152,152,0,0,0,378.74,149c-9,14.16-15.88,29.75-25.58,43.46-20.41,28.85-55.2,43.06-80.91,66.24-.86.78.31,2.14,1.17,1.36Z"/><path class="afd33331-43ad-482f-b0b0-8cf0850aa92c" d="M343.18,192.22c-2.33,1.86-4.54,2.19-6.16,4.88-.72,1.15-1.72,3.19-2.38.74-.44-1.59,1.08-3.17.21-4.64s-4-2.35-5.37-3.52a23.28,23.28,0,0,1-3.9-4.39c-1.22-2.35-.47-6.67,2.92-5.77,3.59,1,6.81,4.9,10,6.9a6.18,6.18,0,0,0,2,1c.62.11,1.57-.31,2,.22s-.21,1.75-.05,2.4,1.11,1.14.83,2"/><path class="ac5263ed-211a-4879-a231-197ab05a80c3" d="M358.31,185.31a10.86,10.86,0,0,1-5.7.84c-.57-.09-.64.81-.07.89a11.82,11.82,0,0,0,6.15-.92c.54-.2.15-1-.38-.81Z"/><path class="f58a2cb6-44a8-4377-b54f-bb6d1aaefede" d="M353.71,186.47a14.93,14.93,0,0,1-5,5.33,15.34,15.34,0,0,1-3.75,1.89c-.43.11-1.66.51-2,.27-.73-.55.1-1.4-.26-2.13-.74-1.47-1.46-.33-1.17-2.28.06-.7.42-.89.27-1.67,0-.5-.61-1.18-.57-1.74.47-3.42,6.2-1.78,8.16-1.49,1.6.2,3.34.54,4.35,2"/><path class="ac5263ed-211a-4879-a231-197ab05a80c3" d="M335.21,212.3a10.81,10.81,0,0,1-5.69.85c-.57-.09-.64.8-.07.89a11.82,11.82,0,0,0,6.15-.92c.54-.21.15-1-.39-.82Z"/><path class="f58a2cb6-44a8-4377-b54f-bb6d1aaefede" d="M329.27,213.65a14.79,14.79,0,0,1-5,5.33,15.65,15.65,0,0,1-3.74,1.9c-.43.11-1.66.51-2,.27-.73-.55.11-1.41-.26-2.14-.73-1.47-1.45-.32-1.16-2.27.05-.7.42-.89.27-1.68,0-.49-.61-1.17-.57-1.73.47-3.42,6.2-1.78,8.15-1.49,1.61.19,3.35.53,4.36,2"/><path class="afd33331-43ad-482f-b0b0-8cf0850aa92c" d="M318.06,220c-2.33,1.87-4.54,2.19-6.16,4.89-.73,1.14-1.73,3.18-2.39.73-.44-1.58,1.09-3.16.22-4.63s-4-2.36-5.37-3.52a23.2,23.2,0,0,1-3.9-4.39c-1.23-2.36-.47-6.67,2.92-5.78,3.59,1,6.81,4.9,10,6.91a6.31,6.31,0,0,0,2,1c.63.12,1.58-.3,2,.23s-.2,1.75,0,2.4,1.11,1.14.83,2"/><path class="afd33331-43ad-482f-b0b0-8cf0850aa92c" d="M292.93,236.58c-2.09.92-3.79.73-5.52,2.4-.75.71-1.89,2-1.9.08,0-1.26,1.43-2.13,1.07-3.39s-2.48-2.52-3.28-3.66a17.92,17.92,0,0,1-2-4c-.44-2,1-5,3.29-3.69s4.08,5,6,7.07a4.76,4.76,0,0,0,1.31,1.14c.44.21,1.22.08,1.45.56s-.5,1.26-.5,1.77.59,1.06.21,1.67"/><path class="ac5263ed-211a-4879-a231-197ab05a80c3" d="M305.7,234.17a8.05,8.05,0,0,1-4.32-.49c-.53-.23-.82.61-.3.84a9.07,9.07,0,0,0,4.78.54c.58-.06.41-.94-.16-.89Z"/><path class="f58a2cb6-44a8-4377-b54f-bb6d1aaefede" d="M302,234.2a11.43,11.43,0,0,1-4.74,3,11.18,11.18,0,0,1-3.15.67c-.34,0-1.32.05-1.53-.19-.43-.55.36-1,.24-1.64-.26-1.22-1-.52-.42-1.91.18-.5.49-.57.53-1.18.07-.37-.22-1-.08-1.39,1-2.44,4.93-.1,6.32.5a4.37,4.37,0,0,1,2.83,2.36"/><path class="afd33331-43ad-482f-b0b0-8cf0850aa92c" d="M297,251.25c-1.23,1.92-1.3,3.63-3.22,5.08-.81.65-2.28,1.57-.36,1.87,1.24.21,2.31-1.08,3.51-.54s2.11,2.84,3.11,3.8a17.42,17.42,0,0,0,3.66,2.61c1.89.74,5.11-.18,4.15-2.69s-4.28-4.78-6.06-7a4.75,4.75,0,0,1-.93-1.46c-.14-.47.1-1.23-.34-1.53s-1.31.3-1.82.23-1-.75-1.62-.47"/><path class="ac5263ed-211a-4879-a231-197ab05a80c3" d="M300,238.75a9.21,9.21,0,0,0-.21,4.8c.16.55,1,.4.89-.16a8.14,8.14,0,0,1,.17-4.35c.14-.56-.7-.85-.85-.29Z"/><path class="f58a2cb6-44a8-4377-b54f-bb6d1aaefede" d="M300.23,242.74a11.31,11.31,0,0,0-3.65,4.23,11.87,11.87,0,0,0-1.14,3c0,.34-.25,1.31,0,1.55.48.51,1.06-.2,1.64,0,1.18.44.37,1.08,1.83.7.53-.1.64-.39,1.25-.34.38,0,.95.37,1.37.29,2.56-.64.85-4.86.47-6.32a4.37,4.37,0,0,0-1.9-3.16"/><path class="afd33331-43ad-482f-b0b0-8cf0850aa92c" d="M309.23,243.86c-1.22,1.93-1.29,3.64-3.21,5.08-.81.65-2.28,1.58-.36,1.88,1.24.2,2.31-1.09,3.51-.54s2.11,2.83,3.11,3.8a17.38,17.38,0,0,0,3.66,2.6c1.89.75,5.11-.18,4.15-2.68-1-2.66-4.28-4.79-6.06-7a5.15,5.15,0,0,1-.94-1.47c-.14-.47.11-1.22-.33-1.53s-1.31.3-1.82.23-1-.75-1.62-.46"/><path class="ac5263ed-211a-4879-a231-197ab05a80c3" d="M312,231.1a9.14,9.14,0,0,0-.21,4.81c.15.55,1,.39.88-.16a8.24,8.24,0,0,1,.17-4.35c.15-.56-.7-.86-.84-.3Z"/><path class="f58a2cb6-44a8-4377-b54f-bb6d1aaefede" d="M312.18,235.3a11.4,11.4,0,0,0-3.65,4.23,11.66,11.66,0,0,0-1.14,3c-.05.33-.25,1.3,0,1.53.47.52,1.06-.19,1.64,0,1.18.44.37,1.08,1.83.7.53-.1.64-.39,1.25-.34.38,0,.95.37,1.37.29,2.56-.64.85-4.86.47-6.32a4.33,4.33,0,0,0-1.9-3.15"/><path class="afd33331-43ad-482f-b0b0-8cf0850aa92c" d="M334.74,224.37c-1.42,2.22-1.5,4.19-3.71,5.86-.94.74-2.63,1.81-.42,2.16,1.43.24,2.67-1.26,4.05-.63s2.44,3.27,3.59,4.39a20.41,20.41,0,0,0,4.21,3c2.18.86,5.9-.21,4.79-3.1-1.19-3.06-4.93-5.52-7-8.1a6,6,0,0,1-1.07-1.69c-.16-.54.12-1.42-.39-1.76s-1.51.34-2.1.26-1.1-.87-1.86-.54"/><path class="ac5263ed-211a-4879-a231-197ab05a80c3" d="M338.57,209.86a10.38,10.38,0,0,0-.23,5.5c.15.55,1,.4.88-.16a9.43,9.43,0,0,1,.2-5c.14-.56-.7-.86-.85-.29Z"/><path class="f58a2cb6-44a8-4377-b54f-bb6d1aaefede" d="M338.76,214.74a12.92,12.92,0,0,0-4.21,4.88,13.42,13.42,0,0,0-1.32,3.46c-.05.38-.28,1.5-.05,1.77.56.6,1.23-.22,1.9,0,1.36.51.42,1.25,2.11.81.61-.11.74-.45,1.44-.39.44,0,1.09.42,1.58.33,3-.73,1-5.6.54-7.29-.32-1.39-.79-2.89-2.19-3.63"/><path class="afd33331-43ad-482f-b0b0-8cf0850aa92c" d="M321.79,235.1c-1.42,2.22-1.49,4.19-3.7,5.86-.94.74-2.64,1.82-.43,2.16,1.43.24,2.67-1.25,4-.62s2.44,3.27,3.59,4.38a20.52,20.52,0,0,0,4.22,3c2.18.85,5.89-.22,4.79-3.1-1.2-3.06-4.94-5.52-7-8.11a5.51,5.51,0,0,1-1.08-1.69c-.16-.54.12-1.41-.38-1.76s-1.52.34-2.1.26-1.11-.87-1.87-.53"/><path class="ac5263ed-211a-4879-a231-197ab05a80c3" d="M325.57,220.36a10.42,10.42,0,0,0-.24,5.51c.15.55,1,.39.88-.17a9.43,9.43,0,0,1,.21-5c.14-.55-.71-.85-.85-.29Z"/><path class="f58a2cb6-44a8-4377-b54f-bb6d1aaefede" d="M325.65,225.22a13.09,13.09,0,0,0-4.2,4.89,13.42,13.42,0,0,0-1.32,3.46c-.05.39-.28,1.5-.05,1.78.56.59,1.23-.23,1.9,0,1.36.51.43,1.25,2.11.81.61-.12.74-.45,1.44-.39.44,0,1.09.42,1.58.33,2.95-.73,1-5.6.54-7.29-.32-1.39-.79-2.89-2.19-3.64"/><path class="afd33331-43ad-482f-b0b0-8cf0850aa92c" d="M350.88,204.86c-1.42,2.22-1.49,4.18-3.71,5.86-.93.74-2.63,1.81-.42,2.16,1.43.24,2.67-1.26,4.05-.63s2.44,3.27,3.59,4.38a20.52,20.52,0,0,0,4.22,3c2.18.86,5.89-.21,4.79-3.1-1.2-3-4.94-5.52-7-8.1a5.77,5.77,0,0,1-1.08-1.69c-.16-.54.12-1.42-.38-1.76s-1.52.34-2.1.26-1.11-.87-1.87-.54"/><path class="ac5263ed-211a-4879-a231-197ab05a80c3" d="M355.19,190.65a10.39,10.39,0,0,0-.24,5.5c.15.56,1,.4.88-.16a9.53,9.53,0,0,1,.2-5.05c.14-.55-.7-.85-.84-.29Z"/><path class="f58a2cb6-44a8-4377-b54f-bb6d1aaefede" d="M355.06,195.08a13.06,13.06,0,0,0-4.2,4.88,13.86,13.86,0,0,0-1.32,3.47c-.05.38-.28,1.5-.05,1.77.56.59,1.23-.23,1.9,0,1.36.51.42,1.25,2.11.81.61-.12.74-.45,1.44-.4.44,0,1.09.43,1.58.34,3-.74,1-5.61.54-7.29-.32-1.4-.79-2.88-2.19-3.64"/><path class="afd33331-43ad-482f-b0b0-8cf0850aa92c" d="M273.33,252.48c-2.13,1.64-7.7,2.48-9-.69-2.51-5.91,6.69-1.81,8.67-1.34"/><path class="f58a2cb6-44a8-4377-b54f-bb6d1aaefede" d="M279.54,253.46c-2,1.12-10.07.17-6.85-3.18,1.94-1.85,4.66,2.69,6.42,3.15"/><path class="afd33331-43ad-482f-b0b0-8cf0850aa92c" d="M269.81,262.64c.14,2.68-2.32,7.75-5.7,7.06-6.29-1.28,2.31-6.55,3.81-7.91"/><path class="f58a2cb6-44a8-4377-b54f-bb6d1aaefede" d="M274.13,258.08c-.21,2.28-5.56,8.39-6.49,3.84-.43-2.65,4.85-2.32,6.22-3.51"/><path class="afd33331-43ad-482f-b0b0-8cf0850aa92c" d="M282.93,263.43c1.78,2,3,7.52-.09,9.07-5.73,2.9-2.25-6.56-1.92-8.56"/><path class="f58a2cb6-44a8-4377-b54f-bb6d1aaefede" d="M283.49,257.17c1.24,1.91.84,10-2.71,7-2-1.81,2.37-4.82,2.7-6.61"/><path class="ac5263ed-211a-4879-a231-197ab05a80c3" d="M283.93,259.31c.78-2.64-1.49-4.63-1.2-7.19.07-.58-.83-.65-.89-.08-.28,2.47,2,4.54,1.24,7-.16.55.68.85.85.3Z"/><path class="ac5263ed-211a-4879-a231-197ab05a80c3" d="M413,106.47c-4.12,6.58-10.29,10.6-18.14,8.08a.89.89,0,0,0-.52,1.71c8.6,2.75,15.63-1.56,20.17-8.83a.9.9,0,0,0-1.51-1Z"/><path class="ac5263ed-211a-4879-a231-197ab05a80c3" d="M404.13,115.35c-4.26,1.25-8.55,2.4-12.68,4-1.07.43-.23,2,.84,1.59,4-1.59,8.14-2.67,12.24-3.89,1.11-.32.71-2.07-.4-1.74Z"/><path class="f58a2cb6-44a8-4377-b54f-bb6d1aaefede" d="M392.28,120c-4.44,12.37-25.11,12.56-35.24,11-21.41-3.48-42-22.92-64.58-17.4,8.73-6,14.86-14.78,24.89-17.94,11.06-3.46,25.49.36,36.33,3.7a104.92,104.92,0,0,1,23.44,10c4.89,3.38,9.34,8.19,15,10.23"/><path class="ac5263ed-211a-4879-a231-197ab05a80c3" d="M295.46,111.32c-.7.56-1.41,1.1-2.15,1.63a.87.87,0,0,0,.41.35,33.13,33.13,0,0,1,4.25-.59c17.46-2.7,33.15.64,50.13,5.81,7.89,2.4,15.83,5.15,24,6.28,7.59,1,12.92-1.42,19.66-3.63.18-.39.35-.79.5-1.2l-.2-.37-.5-.2c-3.05,1.07-5.95,2.5-9.07,3.35-5.14,1.41-11.39.28-16.43-.86-8.82-2-17.51-5.09-26.14-7.75A92.57,92.57,0,0,0,295.46,111.32Z"/><path class="f5d765ef-231f-4942-8f3e-b02218e0f0f4" d="M394.74,116c9.51-10.6,6.68-27.08-1.61-37.34-5.5-6.48-11.8-12.37-14.19-20.82-1.38-5-1.51-10.66-2.44-15.73-5.47,11-6.9,25.77-7.37,38.11-.65,12.91.8,27.1,13.35,33.67,3.63,1.74,8.13,3.34,12.2,2.3"/><path class="ac5263ed-211a-4879-a231-197ab05a80c3" d="M383.19,86.63c-2.48-14-7.74-27.44-6.27-41.82-.12-.86-.25-1.71-.4-2.55h-.08c-.49,1-.94,2-1.38,3.1-1.41,15.54,4.53,30.54,7.07,45.72,1.21,7.19,3.4,22.34,11.85,25.26.23,0,.47-.06.7-.12l.06-.19c.31-.35.61-.7.9-1.07l-.05,0c-4.72-1-7.06-7.4-8.69-11.38C384.68,98.13,384.2,92.36,383.19,86.63Z"/><path class="ac5263ed-211a-4879-a231-197ab05a80c3" d="M412.77,107.06c-5.75,16.62,9.14,40.46,26.23,43.57,1.12.21,1.66-1.5.53-1.71-16.14-2.94-30.49-25.59-25-41.33.38-1.09-1.33-1.61-1.71-.53Z"/><path class="f58a2cb6-44a8-4377-b54f-bb6d1aaefede" d="M437.16,150.54c4.83-7.57,10.69-15.44,18.21-20.62,9.4-6.16,18.13-4.09,28.26-2.53,9.28,1.3,17.16,3.1,25,8,8.62,5.46,15.61,14.17,24.49,18.78-9.87-2.41-19-7.11-29.78-6.67-12.07.64-23.13,4.11-34.56,7.77-8.62,2.65-29.29,6.89-31.46-5.33"/><path class="ac5263ed-211a-4879-a231-197ab05a80c3" d="M437.18,150.44h0l.16-.25a1.89,1.89,0,0,0-.05-.23Z"/><path class="ac5263ed-211a-4879-a231-197ab05a80c3" d="M437.38,150.19c0,.09.05.18.07.28,6.45.89,12.72-.46,18.83-2.59,7.14-2.49,13-7.27,20.4-9.09,18.43-4.53,37.46,6.93,53.48,14.6.57.17,1.15.33,1.73.48a1.21,1.21,0,0,0,.3-.2,49.45,49.45,0,0,1-6.42-4.37C512.21,142.69,498.4,136,483,136.22c-7.06.1-13.28,2.7-19.24,6.26-7.42,4.41-16.76,7.27-25.45,6.31Z"/><path class="ac5263ed-211a-4879-a231-197ab05a80c3" d="M411.43,109.81c-6.83,5.68-11.94,15.15-12.5,24a.9.9,0,0,0,1.79.06c.53-8.42,5.47-17.41,11.92-22.77.89-.75-.33-2.06-1.21-1.33Z"/><path class="f58a2cb6-44a8-4377-b54f-bb6d1aaefede" d="M401.26,134.41c.37,7.92,1.2,15.36-1.46,23-3.45,10.17-10.6,19.21-16.44,28-9.13,13.42-19.62,25.17-29.15,37.85-5.6,7-7.2,15.27-11.57,22.35,2.9-13.47,3.43-27.35,7.56-40.75l9.5-30.8c5.09-16.54,19.12-42.82,40.6-40.57"/><path class="ac5263ed-211a-4879-a231-197ab05a80c3" d="M342.64,245.61a56,56,0,0,0,3.66-7.31c2-5.3,4.08-10.56,5.68-16.13,3.35-11.68,9.78-21.61,15.74-32.07,5.73-10.08,12.76-18.87,20.1-27.78,6.22-7.56,11.56-15.35,13.6-24.81-.05-1-.11-2.06-.16-3.1l-.93-.9a.71.71,0,0,0-.07.22c-1.52,13-9.77,22.77-18,32.38a160.43,160.43,0,0,0-18.2,26.82c-5.29,9.54-10.67,18.16-13.81,28.71C348.38,228,346,234,343.71,240.07,343.39,241.92,343,243.77,342.64,245.61Z"/><path class="ac5263ed-211a-4879-a231-197ab05a80c3" d="M406,114.81c-6.48,3.28-9.55,11.32-12.5,17.49-.49,1,1,2,1.51,1,2.79-5.83,5.72-13.77,11.82-16.86a.9.9,0,0,0-.83-1.59Z"/><path class="f5d765ef-231f-4942-8f3e-b02218e0f0f4" d="M396,130.08c-3.11,8.09-2.7,17.9-7.82,25.37-5.49,7.68-13.17,14.37-22.45,17.13-14,3.81-29.74-.74-43.37,6,8.43-15.2,23.42-28.37,39.81-33.94,12.64-4.54,23.32-3.74,33-13.87"/><path class="ac5263ed-211a-4879-a231-197ab05a80c3" d="M322.56,178.48c.8-.39,1.61-.75,2.42-1.06,2-2,3.72-4.12,5.59-6.25,3.1-3.52,7.38-5.09,11.78-6.31,6.47-1.8,13.17-2.26,19.49-4.71,6.59-2.54,12.5-6.6,18.11-10.82,6.19-4.66,9.87-11.9,15.37-17.27.15-.49.32-1,.5-1.46a2,2,0,0,0-.19-.22l-.46.38a31.12,31.12,0,0,1-4.93,4.2c-3.73,4.46-7,9.28-11.5,13.06A61.41,61.41,0,0,1,356,160.18c-6.44,1.75-13.07,2.27-19.35,4.68-5.78,2.21-8.68,7.15-12.86,11.23-.46.75-.9,1.51-1.33,2.28A1,1,0,0,0,322.56,178.48Z"/><path class="ac5263ed-211a-4879-a231-197ab05a80c3" d="M410,112c.45,16.53,2.44,33.57,9.61,48.65.49,1,2.07.2,1.58-.83-7-14.8-9-31.57-9.4-47.76,0-1.15-1.82-1.21-1.79-.06Z"/><path class="f58a2cb6-44a8-4377-b54f-bb6d1aaefede" d="M419.23,159c17.56,4.79,36.3,6.82,45.86,24.44,4.34,8.2,4.05,20.29,6,29.31,1.82,9.3,5.61,18.28,9.58,26.68-6-3.73-9.23-11.58-13.79-17a80.25,80.25,0,0,0-8.71-9.24c-5.68-4.87-11.16-9.37-15.83-15.49-5.05-5.93-8.71-13.3-13.29-19.71-4.1-5.95-9.6-11.39-9.86-18.65"/><path class="ac5263ed-211a-4879-a231-197ab05a80c3" d="M442.86,179.23a38.82,38.82,0,0,1,10.52,9.22c11.3,13.24,14.12,31.33,22.28,46.42a23.16,23.16,0,0,0,3.06,3.12.77.77,0,0,0,.19-1.05c-8.65-14.24-11.18-31.69-20.89-45.3-4.71-6.61-10.1-12.06-17.48-15.6-9.14-4.37-15.66-7.9-21-17l-.34-.1-.09.29a15.73,15.73,0,0,0,.48,3.24,36.57,36.57,0,0,0,11.68,11.33C435,176,439.12,177.19,442.86,179.23Z"/><path class="ac5263ed-211a-4879-a231-197ab05a80c3" d="M416.08,153.18c-.27,5.25-.34,10.52,1.22,15.59.34,1.1,2.09.7,1.74-.4-1.52-4.93-1.43-10-1.17-15.13a.9.9,0,0,0-1.79-.06Z"/><path class="f5d765ef-231f-4942-8f3e-b02218e0f0f4" d="M417.31,165.18c1.51,4.21,5.17,7.53,7.52,11.06,3.11,4.08,3.87,8.69,5.59,13.27,3,8.43,5.65,16.11,12.86,22.08,7.9,6.8,16.45,9.44,21.41,19.71,4.84,9.61,6.46,22.6,3.86,33-3.18,13.38-8.84,25.69-13.37,38.34,2-14.67,4.66-31.34-2.55-45.43-6.9-13.06-18.81-22-28.77-32.28-8-8.41-13.2-15.94-13-27.74.12-7.46,2.4-14.87,4.31-22.09,1-3.14,2.6-6.38,2.33-9.59"/><path class="ac5263ed-211a-4879-a231-197ab05a80c3" d="M417.48,165.57a.64.64,0,0,0,0,.07v-.08Z"/><path class="ac5263ed-211a-4879-a231-197ab05a80c3" d="M417.5,165.64a10.17,10.17,0,0,1-.19,2.69c.93,5.63,2.43,11,2.45,16.83,0,5.12-.42,10,1.46,14.88,2,5.19,6.53,9.47,9.19,14.34a75.76,75.76,0,0,0,10.11,14c4.91,5.5,9.86,10.95,14.58,16.61,5.59,6.69,10.5,12.4,8.94,21.57-.88,5.15-3.17,10-4.38,15.06-1.3,5.47-2.15,11-3.72,16.46a.83.83,0,0,0,.56,1.06c.93-2.49,1.89-5,2.86-7.49.69-3.16,1.31-6.34,2-9.5,1.14-5.12,3.24-9.94,4.38-15.07,2.62-11.88-6.52-20.12-13.66-28.4-4.67-5.41-9.68-10.54-14.13-16.14-4.1-5.15-6.86-11.12-10.75-16.42-2.26-3.07-4.32-5.92-5.29-9.66-.92-3.5-.43-7.6-.36-11.19.09-5.63-1.38-10.95-2.35-16.4A18.43,18.43,0,0,1,417.5,165.64Z"/><path class="ac5263ed-211a-4879-a231-197ab05a80c3" d="M447.14,161.5c-3.53-2-5.86-5.37-9-7.87-3.59-2.86-7.35-5.49-11-8.3-4.47-3.46-9.41-7-12.37-11.92-2.76-4.6-2.71-10.63-2.8-15.8,0-1.16-1.81-1.22-1.79-.06.17,9.87,1.74,17.07,9.31,23.81a164.08,164.08,0,0,0,13.24,10.44c4.72,3.4,8.39,8.36,13.42,11.21,1,.57,2-.94,1-1.51Z"/><path class="ac5263ed-211a-4879-a231-197ab05a80c3" d="M412.26,111.31A46.55,46.55,0,0,0,418,93.67c1-8.3-1.63-16.17,1.63-24.27.43-1.07-1.28-1.59-1.71-.52-2.55,6.33-1.95,12.78-1.62,19.46a40.81,40.81,0,0,1-5.51,22c-.57,1,.94,2,1.51,1Z"/><path class="f5d765ef-231f-4942-8f3e-b02218e0f0f4" d="M526.73,225.85c13.85-5.09-15.81-33.8-19.54-37.24-5.59-4.84-9.69-11.1-15-16.27-5.21-4.73-16.25-8.75-23.43-9.09-9.94-.15-18.15,1.48-27-4.17,4.35,5.51,7.35,7.26,14.13,9.56,7.74,2.59,16.1,5.17,19.74,13,5.36,11.65,12.61,20.54,21.07,30.23,6.47,7.4,15,10,24.15,12.85,1.9.59,3.55,1.3,5.49,1.07"/><path class="ac5263ed-211a-4879-a231-197ab05a80c3" d="M448.08,162a25.29,25.29,0,0,1-5.63-2.53.92.92,0,0,0-.07.36q.63.76,1.23,1.44c6.47,4.81,14.55,6.59,22.21,8.77,10.42,3,19.74,6.8,26.69,15.45,5.1,6.33,8.94,13.95,15.3,19.19,7.25,6,16.06,10.74,19.69,19.88a.71.71,0,0,0,.79.49,7,7,0,0,0,.81-.69.94.94,0,0,0,0-.64c-2.88-7.26-9-11.89-15-16.44-8.07-6-13.2-13.51-19.08-21.53-5.43-7.4-12.31-11.82-20.84-15S456,166.42,448.08,162Z"/><path class="ac5263ed-211a-4879-a231-197ab05a80c3" d="M373.89,308.23c8.92-31.8,27.82-60.24,32.49-93.3,2.35-16.63-.44-33.94-.88-50.64-.46-17.25,1.33-33.9,6.42-50.41a.9.9,0,0,0-1.71-.53,152.27,152.27,0,0,0-6.58,44.74c-.07,16.78,2.47,33.63,1.58,50.4-1.85,35.29-23.68,65.88-33,99.21a.9.9,0,0,0,1.71.53Z"/><path class="afd33331-43ad-482f-b0b0-8cf0850aa92c" d="M396.64,213.61c-1,2.82-2.67,4.27-2.6,7.42,0,1.35.24,3.61-1.62,1.89-1.23-1.11-.77-3.26-2.3-4s-4.62.14-6.42-.11a23.07,23.07,0,0,1-5.64-1.63c-2.29-1.33-4-5.38-.62-6.43,3.57-1.09,8.38.5,12.13.51a6.69,6.69,0,0,0,2.26-.24c.59-.24,1.17-1.1,1.83-.89s.76,1.58,1.25,2,1.55.38,1.79,1.28"/><path class="ac5263ed-211a-4879-a231-197ab05a80c3" d="M405.74,199.69a10.89,10.89,0,0,1-4.37,3.76c-.53.22-.11,1,.42.79a11.8,11.8,0,0,0,4.71-4.07c.34-.46-.42-.94-.76-.48Z"/><path class="f58a2cb6-44a8-4377-b54f-bb6d1aaefede" d="M402.47,203.12a16.68,16.68,0,0,1-3.53,10.78c-.31.32-1.13,1.31-1.54,1.29-.91-.07-.66-1.25-1.36-1.67-1.41-.85-1.41.51-2.2-1.3-.33-.62-.12-1-.67-1.56-.29-.4-1.14-.66-1.41-1.16-1.42-3.15,4.3-4.82,6.1-5.62,1.47-.69,3.12-1.32,4.77-.61"/><path class="ac5263ed-211a-4879-a231-197ab05a80c3" d="M400.63,234.84a10.81,10.81,0,0,1-4.37,3.76c-.53.23-.1,1,.42.79a11.79,11.79,0,0,0,4.71-4.07c.34-.45-.41-.94-.76-.48Z"/><path class="f58a2cb6-44a8-4377-b54f-bb6d1aaefede" d="M396.32,239.16a14.69,14.69,0,0,1-1.38,7.17,14.86,14.86,0,0,1-2.15,3.6c-.3.32-1.13,1.32-1.54,1.3-.92-.08-.66-1.25-1.36-1.67-1.41-.85-1.41.51-2.2-1.3-.33-.62-.12-1-.67-1.56-.29-.41-1.14-.67-1.41-1.17-1.43-3.14,4.29-4.81,6.1-5.61,1.47-.69,3.12-1.33,4.77-.61"/><path class="afd33331-43ad-482f-b0b0-8cf0850aa92c" d="M390.22,250.49c-1,2.83-2.67,4.28-2.6,7.43,0,1.35.25,3.61-1.62,1.89-1.22-1.11-.77-3.26-2.29-4s-4.63.14-6.43-.1a22.89,22.89,0,0,1-5.63-1.64c-2.3-1.33-4-5.38-.62-6.43,3.56-1.09,8.38.5,12.12.51a6.42,6.42,0,0,0,2.26-.24c.6-.24,1.17-1.1,1.84-.9s.76,1.59,1.24,2.05,1.55.38,1.79,1.28"/><path class="afd33331-43ad-482f-b0b0-8cf0850aa92c" d="M377.84,278c-1.27,1.89-2.81,2.63-3.38,5-.26,1-.53,2.72-1.57,1.08-.69-1.06.07-2.55-.9-3.43s-3.45-.81-4.73-1.35a17.57,17.57,0,0,1-3.84-2.31c-1.44-1.44-1.87-4.76.8-4.88,2.85-.11,6.1,2,8.87,2.76a4.85,4.85,0,0,0,1.72.27c.48-.06,1.08-.58,1.53-.3s.25,1.32.51,1.76,1.08.58,1.07,1.3"/><path class="ac5263ed-211a-4879-a231-197ab05a80c3" d="M387.35,269.09a8,8,0,0,1-3.92,1.89c-.57.09-.36,1,.21.87a9.12,9.12,0,0,0,4.32-2.1c.46-.36-.15-1-.61-.66Z"/><path class="f58a2cb6-44a8-4377-b54f-bb6d1aaefede" d="M384.22,271.1a11.33,11.33,0,0,1-2.43,5,12,12,0,0,1-2.3,2.25c-.29.17-1.1.74-1.4.65-.66-.24-.24-1-.68-1.5-.87-.91-1.13.09-1.37-1.4-.12-.52.11-.74-.18-1.29-.14-.35-.72-.71-.81-1.13-.44-2.61,4.12-2.72,5.61-2.95a4.33,4.33,0,0,1,3.64.48"/><path class="afd33331-43ad-482f-b0b0-8cf0850aa92c" d="M389.07,288.2c0,2.29.84,3.77,0,6-.35,1-1.1,2.54.69,1.78,1.16-.49,1.37-2.16,2.68-2.34s3.3,1.27,4.66,1.55a17.71,17.71,0,0,0,4.48.26c2-.39,4.23-2.89,2.08-4.49-2.3-1.69-6.18-1.77-8.88-2.71a5,5,0,0,1-1.57-.74c-.37-.32-.57-1.09-1.1-1.11s-.95.95-1.42,1.16-1.21-.12-1.62.47"/><path class="ac5263ed-211a-4879-a231-197ab05a80c3" d="M385,276a9.09,9.09,0,0,0,2.38,4.17c.43.39,1.09-.21.67-.61a8.13,8.13,0,0,1-2.18-3.76c-.18-.55-1.05-.35-.87.2Z"/><path class="f58a2cb6-44a8-4377-b54f-bb6d1aaefede" d="M387.3,279.26a11.24,11.24,0,0,0-.82,5.53,11.4,11.4,0,0,0,.64,3.14c.14.31.48,1.24.78,1.33.68.17.79-.74,1.41-.86,1.23-.26.88.72,1.92-.38.39-.37.33-.68.87-1,.31-.22,1-.19,1.31-.48,1.83-1.92-1.87-4.57-3-5.6a4.35,4.35,0,0,0-3.28-1.66"/><path class="afd33331-43ad-482f-b0b0-8cf0850aa92c" d="M395.51,275.39c0,2.29.85,3.77,0,6-.34,1-1.09,2.55.69,1.78,1.16-.49,1.38-2.15,2.68-2.34s3.3,1.28,4.66,1.56a18.26,18.26,0,0,0,4.49.25c2-.38,4.22-2.89,2.08-4.49-2.3-1.69-6.18-1.76-8.89-2.71a5,5,0,0,1-1.57-.74c-.37-.32-.56-1.09-1.1-1.11s-.94.95-1.41,1.16-1.22-.12-1.62.47"/><path class="ac5263ed-211a-4879-a231-197ab05a80c3" d="M391,263.15a9.16,9.16,0,0,0,2.39,4.17c.42.38,1.08-.22.66-.61a8.16,8.16,0,0,1-2.18-3.77c-.17-.54-1.05-.34-.87.21Z"/><path class="f58a2cb6-44a8-4377-b54f-bb6d1aaefede" d="M393.43,266.59a11.33,11.33,0,0,0-.82,5.52,11.47,11.47,0,0,0,.64,3.15c.14.31.48,1.23.78,1.33.68.17.79-.73,1.41-.87,1.22-.25.89.73,1.92-.38.39-.36.33-.67.87-.95.31-.22,1-.19,1.32-.49,1.82-1.91-1.88-4.56-3-5.6a4.44,4.44,0,0,0-3.29-1.65"/><path class="afd33331-43ad-482f-b0b0-8cf0850aa92c" d="M406.67,245.29c0,2.64,1,4.35,0,6.94-.4,1.13-1.25,2.94.8,2.05,1.34-.56,1.59-2.48,3.09-2.69s3.81,1.46,5.37,1.79a20,20,0,0,0,5.17.29c2.3-.44,4.88-3.33,2.4-5.18-2.65-1.94-7.12-2-10.24-3.12a5.6,5.6,0,0,1-1.81-.85c-.42-.37-.66-1.26-1.27-1.29s-1.1,1.11-1.63,1.35-1.4-.15-1.87.54"/><path class="ac5263ed-211a-4879-a231-197ab05a80c3" d="M402.16,231a10.45,10.45,0,0,0,2.74,4.78c.42.39,1.08-.21.66-.61a9.45,9.45,0,0,1-2.52-4.37c-.19-.55-1.06-.35-.88.2Z"/><path class="f58a2cb6-44a8-4377-b54f-bb6d1aaefede" d="M404.92,235a14.62,14.62,0,0,0-.21,10c.16.36.56,1.43.9,1.53.79.2.91-.85,1.62-1,1.42-.3,1,.83,2.22-.45.45-.41.38-.77,1-1.1.35-.25,1.15-.22,1.51-.55,2.1-2.2-2.17-5.27-3.44-6.46-1-1-2.2-2-3.79-1.9"/><path class="afd33331-43ad-482f-b0b0-8cf0850aa92c" d="M401.45,261.29c0,2.63,1,4.33,0,6.93-.4,1.13-1.26,2.94.8,2,1.34-.56,1.59-2.48,3.09-2.69s3.8,1.47,5.37,1.79a20.87,20.87,0,0,0,5.17.29c2.3-.44,4.87-3.33,2.4-5.18-2.65-1.94-7.12-2-10.24-3.12a5.6,5.6,0,0,1-1.81-.85c-.43-.38-.66-1.26-1.27-1.29s-1.1,1.11-1.63,1.35-1.41-.15-1.87.54"/><path class="ac5263ed-211a-4879-a231-197ab05a80c3" d="M396.77,246.81a10.54,10.54,0,0,0,2.74,4.78c.43.38,1.09-.22.66-.61a9.43,9.43,0,0,1-2.52-4.38c-.18-.54-1-.35-.88.21Z"/><path class="f58a2cb6-44a8-4377-b54f-bb6d1aaefede" d="M399.44,250.87a13.2,13.2,0,0,0-.94,6.37,13.38,13.38,0,0,0,.73,3.63c.16.36.56,1.43.91,1.53.78.21.91-.84,1.62-1,1.42-.3,1,.83,2.21-.44.46-.42.38-.78,1-1.1.36-.25,1.15-.22,1.52-.56,2.1-2.2-2.17-5.26-3.44-6.45-1-1-2.21-2-3.8-1.91"/><path class="afd33331-43ad-482f-b0b0-8cf0850aa92c" d="M409.9,220.18c0,2.63,1,4.34,0,6.94-.4,1.12-1.26,2.93.79,2,1.34-.57,1.59-2.49,3.09-2.69s3.81,1.46,5.37,1.79a20.45,20.45,0,0,0,5.18.28c2.3-.44,4.87-3.32,2.39-5.17-2.64-1.95-7.12-2-10.24-3.12a5.63,5.63,0,0,1-1.81-.86c-.43-.37-.66-1.26-1.27-1.28s-1.1,1.1-1.63,1.34-1.4-.14-1.86.54"/><path class="ac5263ed-211a-4879-a231-197ab05a80c3" d="M406,205.87a10.45,10.45,0,0,0,2.74,4.78c.42.39,1.09-.22.66-.61a9.49,9.49,0,0,1-2.53-4.38c-.17-.54-1-.34-.87.21Z"/><path class="f58a2cb6-44a8-4377-b54f-bb6d1aaefede" d="M408.22,209.68a13,13,0,0,0-1,6.37,13.53,13.53,0,0,0,.73,3.64c.17.35.56,1.42.91,1.52.78.21.91-.84,1.62-1,1.42-.29,1,.83,2.21-.44.46-.42.39-.78,1-1.1.36-.26,1.15-.22,1.52-.56,2.1-2.2-2.17-5.27-3.44-6.45-1-1-2.21-2-3.79-1.91"/><path class="afd33331-43ad-482f-b0b0-8cf0850aa92c" d="M369.76,301.86c-.93,2.52-5.19,6.21-8,4.24-5.27-3.65,4.7-5.11,6.62-5.77"/><path class="f58a2cb6-44a8-4377-b54f-bb6d1aaefede" d="M375.53,299.37c-1.09,2-8.42,5.52-7.48,1,.64-2.61,5.37-.22,7.1-.78"/><path class="afd33331-43ad-482f-b0b0-8cf0850aa92c" d="M372.21,312.32c1.55,2.2,2.17,7.8-1.06,9-6,2.27-1.54-6.77-1-8.72"/><path class="f58a2cb6-44a8-4377-b54f-bb6d1aaefede" d="M373.43,306.16c1,2-.23,10.07-3.45,6.72-1.78-2,2.87-4.55,3.4-6.3"/><path class="afd33331-43ad-482f-b0b0-8cf0850aa92c" d="M383.72,306c2.58.76,6.54,4.76,4.77,7.72-3.3,5.5-5.41-4.35-6.2-6.22"/><path class="f58a2cb6-44a8-4377-b54f-bb6d1aaefede" d="M380.85,300.4c2.08,1,6.07,8,1.47,7.4-2.65-.47-.57-5.35-1.25-7"/><path class="ac5263ed-211a-4879-a231-197ab05a80c3" d="M382.36,302c-.74-2.65-3.72-3.12-4.84-5.44-.26-.53-1-.11-.8.41,1.08,2.24,4.09,2.79,4.77,5.23.15.55,1,.35.87-.2Z"/><path class="ac5263ed-211a-4879-a231-197ab05a80c3" d="M328.92,324.79c9.19-31.73,8.14-65.85,21.61-96.41,6.78-15.36,18.28-28.6,27.46-42.56,9.49-14.41,16.75-29.49,21.14-46.21a.89.89,0,0,1,1.73.45,151.8,151.8,0,0,1-18,41.48c-8.79,14.3-19.83,27.28-27.93,42-17,30.95-14.63,68.46-24.27,101.71a.89.89,0,0,1-1.73-.45Z"/><path class="afd33331-43ad-482f-b0b0-8cf0850aa92c" d="M359.51,232.39c-.67,2.92,0,5.05-1.71,7.68-.71,1.15-2.11,2.94.38,2.47,1.62-.3,2.37-2.37,4.08-2.22s3.85,2.55,5.51,3.29a23.31,23.31,0,0,0,5.65,1.59c2.65.08,6.21-2.49,3.92-5.14-2.45-2.81-7.38-4-10.57-6A6.34,6.34,0,0,1,365,232.7c-.38-.51-.42-1.55-1.09-1.73s-1.48.95-2.13,1.09-1.52-.5-2.2.14"/><path class="ac5263ed-211a-4879-a231-197ab05a80c3" d="M359.11,215.77a11,11,0,0,0,1.73,5.5c.33.47-.44.92-.77.44a11.73,11.73,0,0,1-1.85-5.93c-.05-.57.84-.58.89,0Z"/><path class="f58a2cb6-44a8-4377-b54f-bb6d1aaefede" d="M360.08,220.41a14.8,14.8,0,0,0-2.61,6.82,15,15,0,0,0-.07,4.19c.09.44.26,1.72.62,1.92.82.42,1.22-.71,2-.7,1.64,0,.93,1.17,2.55.06.61-.36.62-.77,1.39-1,.46-.19,1.33,0,1.81-.24,2.87-1.92-1.1-6.36-2.22-8-.88-1.36-1.94-2.77-3.72-3"/><path class="ac5263ed-211a-4879-a231-197ab05a80c3" d="M344.91,248.33a10.85,10.85,0,0,0,1.73,5.5c.33.47-.45.92-.77.45a11.77,11.77,0,0,1-1.85-5.94c-.06-.57.84-.58.89,0Z"/><path class="f58a2cb6-44a8-4377-b54f-bb6d1aaefede" d="M346.3,254.27a14.8,14.8,0,0,0-2.61,6.82,15.07,15.07,0,0,0-.08,4.2c.09.43.27,1.71.63,1.91.82.42,1.22-.71,2-.7,1.65,0,.93,1.17,2.56.06.61-.36.61-.77,1.39-1,.46-.19,1.32,0,1.81-.24,2.87-1.92-1.11-6.36-2.22-8-.88-1.36-1.95-2.77-3.73-3"/><path class="afd33331-43ad-482f-b0b0-8cf0850aa92c" d="M345.49,267.12c-.66,2.91,0,5-1.7,7.67-.71,1.16-2.11,2.95.38,2.47,1.62-.29,2.37-2.36,4.08-2.22s3.85,2.55,5.51,3.3a23.16,23.16,0,0,0,5.65,1.58c2.65.08,6.21-2.48,3.92-5.14-2.45-2.8-7.38-4-10.57-6a6.52,6.52,0,0,1-1.79-1.39c-.38-.52-.42-1.55-1.09-1.73s-1.48.95-2.14,1.08-1.51-.5-2.19.15"/><path class="afd33331-43ad-482f-b0b0-8cf0850aa92c" d="M341.53,297c.09,2.28,1,3.73.26,6-.31,1-1,2.59.76,1.75,1.14-.54,1.29-2.21,2.58-2.45s3.35,1.14,4.72,1.36a18.24,18.24,0,0,0,4.49.06c2-.47,4.1-3.06,1.89-4.57-2.37-1.6-6.25-1.5-9-2.33a4.79,4.79,0,0,1-1.6-.68c-.38-.3-.61-1.07-1.15-1.06s-.91,1-1.36,1.22-1.22-.07-1.6.54"/><path class="ac5263ed-211a-4879-a231-197ab05a80c3" d="M338.13,284.43a8,8,0,0,0,2.33,3.67c.44.38-.2,1-.63.64a9.06,9.06,0,0,1-2.57-4.07c-.2-.54.66-.77.87-.24Z"/><path class="f58a2cb6-44a8-4377-b54f-bb6d1aaefede" d="M339.73,287.79a11.39,11.39,0,0,0-.59,5.56,11.87,11.87,0,0,0,.77,3.12c.16.3.54,1.21.85,1.29.68.15.75-.77,1.36-.92,1.22-.31.92.68,1.9-.46.38-.38.3-.69.83-1,.31-.22,1-.23,1.3-.53,1.74-2-2.07-4.48-3.22-5.47a4.34,4.34,0,0,0-3.35-1.51"/><path class="afd33331-43ad-482f-b0b0-8cf0850aa92c" d="M326.59,299.76c-1.2,1.95-2.7,2.76-3.17,5.12-.23,1-.42,2.74-1.53,1.14-.73-1,0-2.56-1.05-3.39s-3.47-.67-4.77-1.14a17.75,17.75,0,0,1-3.94-2.16c-1.5-1.37-2.07-4.67.6-4.91,2.84-.22,6.18,1.77,9,2.39a5,5,0,0,0,1.73.2c.48-.08,1.05-.63,1.52-.37s.3,1.31.58,1.74,1.1.53,1.13,1.25"/><path class="ac5263ed-211a-4879-a231-197ab05a80c3" d="M336.5,291.55a9.05,9.05,0,0,1-4.23,2.29c-.56.11-.81-.76-.24-.86a8.19,8.19,0,0,0,3.84-2.06c.43-.37,1.07.26.63.63Z"/><path class="f58a2cb6-44a8-4377-b54f-bb6d1aaefede" d="M332.81,293.09a12.79,12.79,0,0,1-4.42,7.47c-.28.19-1.07.8-1.37.71-.67-.2-.28-1-.74-1.47-.91-.87-1.13.14-1.43-1.33-.14-.53.08-.75-.23-1.28-.16-.35-.75-.69-.87-1.1-.54-2.59,4-2.89,5.49-3.19a4.39,4.39,0,0,1,3.66.33"/><path class="afd33331-43ad-482f-b0b0-8cf0850aa92c" d="M327.87,285.48c-1.2,1.95-2.71,2.75-3.17,5.11-.23,1-.42,2.74-1.53,1.15-.73-1,0-2.56-1.05-3.39s-3.47-.67-4.77-1.14a17.75,17.75,0,0,1-3.94-2.16c-1.5-1.38-2.07-4.68.6-4.91,2.84-.22,6.18,1.76,9,2.39a5,5,0,0,0,1.73.2c.48-.08,1.05-.63,1.52-.37s.3,1.31.59,1.73,1.09.54,1.12,1.26"/><path class="ac5263ed-211a-4879-a231-197ab05a80c3" d="M338.15,277.44a9.05,9.05,0,0,1-4.23,2.29c-.57.11-.81-.76-.24-.86a8.16,8.16,0,0,0,3.83-2.06c.44-.37,1.08.26.64.63Z"/><path class="f58a2cb6-44a8-4377-b54f-bb6d1aaefede" d="M334.28,279.1a11.3,11.3,0,0,1-2.21,5.13,11.83,11.83,0,0,1-2.21,2.33c-.28.19-1.06.8-1.36.71-.67-.2-.29-1-.74-1.47-.91-.86-1.14.15-1.43-1.33-.14-.52.08-.75-.24-1.28-.15-.35-.75-.68-.86-1.1-.54-2.59,4-2.89,5.48-3.19a4.38,4.38,0,0,1,3.67.34"/><path class="afd33331-43ad-482f-b0b0-8cf0850aa92c" d="M334.27,254c-1.38,2.24-3.12,3.17-3.65,5.89-.26,1.17-.49,3.16-1.76,1.32-.85-1.18,0-2.95-1.21-3.91s-4-.77-5.51-1.32a20.08,20.08,0,0,1-4.55-2.48c-1.72-1.58-2.38-5.39.7-5.66,3.28-.26,7.12,2,10.35,2.75a5.51,5.51,0,0,0,2,.23c.55-.09,1.22-.72,1.75-.42s.35,1.51.68,2,1.26.62,1.3,1.45"/><path class="ac5263ed-211a-4879-a231-197ab05a80c3" d="M345.65,244.24a10.28,10.28,0,0,1-4.85,2.61c-.56.11-.8-.75-.24-.86a9.43,9.43,0,0,0,4.45-2.38c.44-.37,1.08.26.64.63Z"/><path class="f58a2cb6-44a8-4377-b54f-bb6d1aaefede" d="M341.18,246.21a13.19,13.19,0,0,1-2.55,5.92,13.73,13.73,0,0,1-2.55,2.69c-.32.22-1.22.91-1.57.82-.78-.24-.33-1.2-.85-1.7-1.05-1-1.31.17-1.65-1.54-.17-.6.08-.86-.28-1.47-.17-.4-.86-.79-1-1.27-.63-3,4.62-3.33,6.33-3.67,1.39-.32,2.94-.55,4.22.38"/><path class="afd33331-43ad-482f-b0b0-8cf0850aa92c" d="M330.26,270.36c-1.37,2.25-3.11,3.17-3.65,5.9-.26,1.16-.48,3.15-1.76,1.32-.84-1.18,0-2.95-1.21-3.92s-4-.76-5.51-1.31a21.05,21.05,0,0,1-4.54-2.48c-1.72-1.59-2.38-5.4.7-5.67,3.27-.25,7.12,2,10.34,2.75a5.53,5.53,0,0,0,2,.23c.56-.09,1.22-.72,1.75-.42s.36,1.51.68,2,1.27.62,1.3,1.45"/><path class="ac5263ed-211a-4879-a231-197ab05a80c3" d="M341.88,260.53a10.58,10.58,0,0,1-4.85,2.62c-.57.1-.81-.76-.24-.87a9.41,9.41,0,0,0,4.45-2.39c.44-.37,1.08.26.64.64Z"/><path class="f58a2cb6-44a8-4377-b54f-bb6d1aaefede" d="M337.46,262.57a13,13,0,0,1-2.55,5.92,13.41,13.41,0,0,1-2.54,2.69c-.33.22-1.23.92-1.58.82-.77-.24-.33-1.2-.85-1.69-1.05-1-1.31.16-1.65-1.54-.16-.61.09-.87-.28-1.48-.16-.4-.85-.79-1-1.27-.62-3,4.62-3.32,6.33-3.67,1.39-.31,2.94-.55,4.23.39"/><path class="afd33331-43ad-482f-b0b0-8cf0850aa92c" d="M344.77,231c-1.37,2.25-3.11,3.18-3.65,5.9-.26,1.17-.48,3.16-1.76,1.32-.84-1.18,0-2.95-1.21-3.91s-4-.77-5.51-1.32a20.22,20.22,0,0,1-4.54-2.48c-1.72-1.59-2.38-5.4.69-5.66,3.28-.26,7.13,2,10.35,2.75a5.56,5.56,0,0,0,2,.22c.55-.08,1.22-.72,1.75-.42s.36,1.52.68,2,1.27.61,1.3,1.44"/><path class="ac5263ed-211a-4879-a231-197ab05a80c3" d="M355.68,220.91a10.67,10.67,0,0,1-4.85,2.62c-.57.11-.81-.76-.25-.87a9.39,9.39,0,0,0,4.46-2.39c.44-.36,1.07.27.64.64Z"/><path class="f58a2cb6-44a8-4377-b54f-bb6d1aaefede" d="M351.74,223a12.9,12.9,0,0,1-2.56,5.92,13.44,13.44,0,0,1-2.54,2.7c-.32.21-1.23.91-1.57.81-.78-.23-.33-1.2-.86-1.69-1-1-1.3.16-1.64-1.54-.17-.6.08-.87-.28-1.48-.17-.4-.86-.79-1-1.27-.62-3,4.62-3.33,6.33-3.67,1.39-.32,2.93-.55,4.22.38"/><path class="afd33331-43ad-482f-b0b0-8cf0850aa92c" d="M335.79,321.55c-.54,2.63,1.13,8,4.57,7.83,6.41-.32-1.29-6.81-2.57-8.39"/><path class="f58a2cb6-44a8-4377-b54f-bb6d1aaefede" d="M332.2,316.39c-.14,2.28,4.24,9.14,5.85,4.77.82-2.56-4.46-3-5.63-4.4"/><path class="afd33331-43ad-482f-b0b0-8cf0850aa92c" d="M328.19,329.15c-2.48,1.05-6,5.47-3.86,8.21,3.89,5.1,4.88-4.94,5.45-6.88"/><path class="f58a2cb6-44a8-4377-b54f-bb6d1aaefede" d="M330.4,323.27c-1.95,1.18-5.12,8.67-.61,7.52,2.57-.77,0-5.38.43-7.14"/><path class="afd33331-43ad-482f-b0b0-8cf0850aa92c" d="M321.75,317.69c-2.6-.71-8.07.6-8.12,4.05-.11,6.41,6.89-.84,8.54-2"/><path class="f58a2cb6-44a8-4377-b54f-bb6d1aaefede" d="M327.14,314.46c-2.27-.29-9.4,3.62-5.16,5.51,2.5,1,3.31-4.24,4.78-5.32"/><path class="ac5263ed-211a-4879-a231-197ab05a80c3" d="M325,315c2-1.85,4.81-.68,7-2.06.49-.31.94.46.46.77-2.1,1.33-4.94.22-6.81,1.93-.43.38-1.06-.24-.64-.64Z"/><path class="ac5263ed-211a-4879-a231-197ab05a80c3" d="M865.36,471.56c-8.58-6.48-14.86-15-21.65-25.8s-13.61-21.34-18.83-29.39a594.66,594.66,0,0,1-35.18-61.29c-21.15-43.07-38.1-83.87-51.81-124.73-8.59-25.56-16-51.82-22-78-1.76-7.72-3.76-15.53-5.69-23.07-4.7-18.4-9.57-37.42-11.44-56.66a1,1,0,0,0-1.06-.87h0a1,1,0,0,0-.9,1.06,1.93,1.93,0,0,1-.09.37,3.17,3.17,0,0,0-.15,1.12c1.91,19.66,6.88,39,11.69,57.79.76,3,1.53,5.94,2.28,8.92,1.46,5.78,2.88,11.56,4.3,17.34,3.91,15.92,8,32.38,12.75,48.41,12.27,41.05,28.09,82.31,48.35,126.13a680.69,680.69,0,0,0,39.41,74.08c3.48,5.6,7.16,11.2,10.71,16.62,4,6.15,8.21,12.51,12.1,18.88,7.11,11.63,14.45,23.65,25.76,32.2l.61-.8h0l.6-.79a.87.87,0,0,1,.36.76c0-.1.07-.24.11-.38C865.77,472.86,866,472.06,865.36,471.56Z"/><path class="afd33331-43ad-482f-b0b0-8cf0850aa92c" d="M864.44,473c15.58.45,38.6,24.23,46.34,37.17,11.68,17.46,11.69,39,19.93,57.89-41.34-23.35-81.26-49.09-66.23-96.36"/><path class="ac5263ed-211a-4879-a231-197ab05a80c3" d="M925,567.06c-10.68-15.93-17.54-34.27-26.1-51.35-7.79-15.55-17.42-34.5-33.93-42.33.12.06-.37,1.42-.24,1.49,16.23,7.7,25.68,26.11,33.44,41.36,8.84,17.36,15.7,36.08,26.59,52.32-.2-.3.45-1.18.24-1.49Z"/><path class="ac5263ed-211a-4879-a231-197ab05a80c3" d="M921,563.84c-15.31-8.4-28.71-20.66-39.38-34.41-11.27-14.5-21.13-34-17.66-52.91.06-.3.21-1.37.2-1.29-3.28,17.85,2.93,34.75,12.77,49.52a127.84,127.84,0,0,0,43.83,40.58c-.13-.08.4-1.4.24-1.49Z"/><path class="ac5263ed-211a-4879-a231-197ab05a80c3" d="M918.07,557.15c-19.42-26.63-36.38-54.92-55-82.1.2.29-.45,1.18-.24,1.49,18.61,27.18,35.57,55.47,55,82.1-.2-.28.46-1.2.24-1.49Z"/><path class="f5d765ef-231f-4942-8f3e-b02218e0f0f4" d="M834.83,434c24.33,21.52,61.39,44.23,94.58,24.55-22.9-29.22-57.92-43.2-91.76-24.29"/><path class="ac5263ed-211a-4879-a231-197ab05a80c3" d="M927.35,458.28c-12.8-9-26.53-16.91-41.22-22.44C871.6,430.38,854.88,427.2,840,433c-.25.1,0,1.4-.24,1.49,14.68-5.68,30.85-2.62,45.22,2.51,15.06,5.39,29.14,13.6,42.17,22.79-.17-.12.43-1.35.24-1.49Z"/><path class="ac5263ed-211a-4879-a231-197ab05a80c3" d="M924.52,458c-27.28-9.07-54.6-19.25-83.42-22.08,0,0-.22,1.49-.24,1.49,28.82,2.83,56.14,13,83.42,22.08-.06,0,.33-1.46.24-1.49Z"/><path class="ac5263ed-211a-4879-a231-197ab05a80c3" d="M925,460.2c-15.46.54-31-2.48-45.77-6.7-15-4.28-29.9-10.21-43-18.73.17.1-.41,1.37-.23,1.49,13.16,8.54,28,14.36,43,18.73,14.75,4.3,30.35,7.24,45.77,6.7.11,0,.16-1.48.24-1.49Z"/><path class="aadca221-850e-46ef-9b68-2be81c25f6dd" d="M795.33,369c22.66,24.21,60.77,35.62,92.13,27.87-7.92-14.27-28-27.56-44.22-29.79-14.76-2.1-33.28,5.43-44.72,5.78"/><path class="ac5263ed-211a-4879-a231-197ab05a80c3" d="M884.12,395.09c-8.36-11.5-23.33-15.5-36.6-18-14.26-2.72-28.82-3.23-43.09-5.82,0,0-.26,1.48-.24,1.49,14.27,2.59,28.82,3.2,43.09,5.82,13.25,2.44,28.28,6.6,36.6,18-.2-.28.45-1.19.24-1.49Z"/><path class="ac5263ed-211a-4879-a231-197ab05a80c3" d="M885.52,396.42c-29.4-1.22-57.08-10.62-83.41-23.27.12.06-.38,1.42-.24,1.49,26.33,12.64,54,22.05,83.42,23.26.06,0,.19-1.49.23-1.48Z"/><path class="afd33331-43ad-482f-b0b0-8cf0850aa92c" d="M762.65,299.67c23,27.81,69.6,47.85,104.82,36.91-16-11.48-27.4-26.8-48.19-33-16.69-4.42-36.86-2-54.07-.8"/><path class="ac5263ed-211a-4879-a231-197ab05a80c3" d="M863.23,336.85c-27.66-20.41-61.59-29.86-94.94-36,0,0-.26,1.48-.24,1.49,33.35,6.12,67.28,15.57,94.94,36-.18-.13.43-1.35.24-1.49Z"/><path class="ac5263ed-211a-4879-a231-197ab05a80c3" d="M862.07,336c-33.44-2.22-64.29-14-91.86-32.76.17.11-.42,1.36-.24,1.48,27.57,18.81,58.42,30.55,91.86,32.77.06,0,.2-1.49.24-1.49Z"/><path class="aadca221-850e-46ef-9b68-2be81c25f6dd" d="M729.1,205.3c21.42,50.26,103.37,98.15,157.08,72-25.32-19.47-43.72-48.33-72.48-63.09-27.87-13.67-55.61-7.23-83.88-5.86"/><path class="ac5263ed-211a-4879-a231-197ab05a80c3" d="M881.46,274.82c-21.25-15.92-43.05-31-66.92-42.75-11.8-5.79-23.63-11-36.48-14-14-3.23-28.35-4.59-42.28-8.19.05,0-.42,2.08-.34,2.1,13.39,3.46,27.12,5,40.64,7.82s25.79,8.38,38.12,14.36c23.9,11.61,45.71,26.86,66.92,42.75-.26-.19.61-1.89.34-2.1Z"/><path class="ac5263ed-211a-4879-a231-197ab05a80c3" d="M882.09,275.15c-30.42,2.76-61.2-6.51-88.45-19.37-22.71-10.73-47.72-25.64-62-47,.28.43-.63,1.66-.34,2.1,14.34,21.42,39.29,36.08,62,47,27.1,13,58.15,22.13,88.46,19.38.19,0,.17-2.09.33-2.1Z"/><path class="afd33331-43ad-482f-b0b0-8cf0850aa92c" d="M716.76,160.92C743.23,225,697.84,279,689.79,341,665.71,287.2,640.56,185.14,719,161.13"/><path class="ac5263ed-211a-4879-a231-197ab05a80c3" d="M716.33,166.42c-12.93,24.79-19.4,52.48-23.74,79.93a393.37,393.37,0,0,0-4.38,86.71c-.05-.76.43-1.56.38-2.34a396.15,396.15,0,0,1,2.61-74.23c3.72-29.93,10.7-60.8,24.75-87.74.35-.66,0-1.68.38-2.33Z"/><path class="ac5263ed-211a-4879-a231-197ab05a80c3" d="M717.76,173.41c-2.82,51.85-32.24,100.49-26.7,153.2-.08-.75.46-1.58.37-2.34-5.51-52.48,23.89-101.3,26.7-153.2,0,.78-.33,1.55-.37,2.34Z"/><path class="ac5263ed-211a-4879-a231-197ab05a80c3" d="M717.13,169.85c-26.22,11.91-37.65,39.44-41.58,66.41-4.52,30.91-1.09,64.76,11.86,93.37-.26-.59.65-1.73.38-2.34-11.21-24.77-14.94-53.23-13.29-80.21,1.81-29.58,13.54-61.85,42.25-74.89.41-.19,0-2.16.38-2.34Z"/><path class="aadca221-850e-46ef-9b68-2be81c25f6dd" d="M758.3,292.85c18.52,38.07-10.22,71-10.2,108.76-12-23.93-38.11-102.6,10.84-108"/><path class="ac5263ed-211a-4879-a231-197ab05a80c3" d="M757.14,297.06c1.92,34.55-11.63,67.9-10.37,102.41,0-.49.26-1,.24-1.49-1.26-34.5,12.28-67.85,10.37-102.41,0,.49-.26,1-.24,1.49Z"/><path class="ac5263ed-211a-4879-a231-197ab05a80c3" d="M756.74,294.8c-9.23,13.68-14,29.91-16.49,46.08-2.68,17.27-2.45,36.12,4.68,52.35-.17-.38.41-1.1.24-1.49-6.36-14.47-7.06-30.87-5.45-46.39,1.76-17,7.13-34.76,16.78-49.06.26-.38,0-1.12.24-1.49Z"/><path class="ac5263ed-211a-4879-a231-197ab05a80c3" d="M757.27,295.17C740.68,303,735.18,322,733.75,338.94a103.7,103.7,0,0,0,2.54,32.14c2,8.48,5.11,17.44,10.94,24.08-.21-.24.45-1.24.24-1.49-10.66-12.14-13.45-31.29-13.77-46.82-.38-18.7,4.82-41.42,23.33-50.19.26-.13,0-1.37.24-1.49Z"/><path class="f5d765ef-231f-4942-8f3e-b02218e0f0f4" d="M794.55,369.63c17.53,25.87-8,62.66-12.58,88.59-9.45-20.83-18.12-42.31-13.18-64.64,1.71-10.53,10.76-31.05,24-27.68"/><path class="ac5263ed-211a-4879-a231-197ab05a80c3" d="M791,369.34c2.77,16.56,1.73,33.72-.35,50.29-1.63,13-9.22,24.05-10.69,37,0-.35.18-1,.24-1.44.94-8.27,5.45-15.9,8.07-23.71a69.87,69.87,0,0,0,2.61-13.27c2.17-16.57,3.13-33.8.36-50.34.08.46-.32,1-.24,1.48Z"/><path class="ac5263ed-211a-4879-a231-197ab05a80c3" d="M789,368.36c-18.18,24.83-15,59-8.06,87.12-.11-.45.35-1,.24-1.49-6.78-27.48-10.12-59.95,7.59-84.14.26-.37,0-1.14.23-1.49Z"/><path class="ac5263ed-211a-4879-a231-197ab05a80c3" d="M788,370.46c-2.56,26.55-9.35,52.94-8.19,79.76,0-.49.26-1,.24-1.48-1.16-26.82,5.63-53.17,8.19-79.71,0,.35-.19,1-.24,1.43Z"/><path class="aadca221-850e-46ef-9b68-2be81c25f6dd" d="M827.65,426.89c20.35,26.12,7.77,69.12-4,95.8-29.31-37-22.31-58.38,3-92.34"/><path class="ac5263ed-211a-4879-a231-197ab05a80c3" d="M826.23,433.92c3.81,11.32,4.29,23.4,3.69,35.24-.82,16.1-4.06,32-7.81,47.64-.11.49-.12,1-.23,1.49A351.48,351.48,0,0,0,829,480.38c2-15.81,2.6-32.66-2.54-47.95.14.42-.38,1.06-.24,1.49Z"/><path class="ac5263ed-211a-4879-a231-197ab05a80c3" d="M824.93,433.71c-3.13,12.43-5.84,25.08-6.88,37.88a153.12,153.12,0,0,0,4.33,48.89c-.11-.45.35-1,.24-1.49a158.43,158.43,0,0,1-4.84-37.47c0-15.7,3.09-31.15,6.91-46.32.12-.49.11-1,.24-1.49Z"/></g></g></svg>