<svg xmlns="http://www.w3.org/2000/svg" viewBox="0 0 1052.93 532.64"><defs><style>.b54e6de4-08ee-4d84-bbe8-14fd008b0bab{fill:#416358;}.b44cb294-9ad5-4c16-ad72-22655501479c{fill:#061508;}.f0687b29-fa03-48a4-8abf-fe6594105399{fill:#21443b;}.a75b1678-8d08-49b0-bcaf-abed75ff1c76{fill:#6c8872;}.ad91cd6b-4081-4604-b754-9bcbcb2e3abf{fill:#7ba696;}.b4e57052-54d7-4cd0-9a6a-4e19036c0118{fill:#558071;}.bce8637f-3a47-4a10-baba-8d5075803395{fill:#1d3830;}.ade3e783-28ce-4ca9-a6bf-c7fd65680c3e{fill:#040000;}.b91c7def-e41e-4e4b-b724-319982889e1a{fill:#173029;}</style></defs><title>資產 11</title><g id="a1fed07b-6b98-421e-81d9-711143b16717" data-name="圖層 2"><g id="ba6067ec-e23a-4bf8-a240-bb9185339e74" data-name="圖層 7"><path class="b54e6de4-08ee-4d84-bbe8-14fd008b0bab" d="M644.84,434.32a11.6,11.6,0,0,0,4-14.09c-3.62-9.1-16-37.22,10.15-56.79s54.34-7.13,54.34-7.13,7.48,49.88-11.65,66.93-44.92,8.94-44.92,8.94-4.46-3.23-9.39,7a22.1,22.1,0,0,0-3.19,4c-.85,1.65-3.44-2-3.44-2l-1.22-1.86S645.31,437.22,644.84,434.32Z"/><path class="b44cb294-9ad5-4c16-ad72-22655501479c" d="M652,426.24l2.53-2.68,2.91-3.09c1.12-1.2,2.27-2.68,3.58-4.23,2.64-3.08,5.57-6.87,8.81-10.85l5.08-6.1c1.68-2.06,3.5-4.06,5.07-6.28,3.28-4.31,6.27-8.92,9.44-13,3.35-3.91,6.4-7.61,9.12-10.67l9.64-9.69L699,369.75c-2.59,3.17-5.47,7-8.62,11-3,4.14-5.76,8.83-8.91,13.34-1.49,2.31-3.26,4.44-4.9,6.61l-4.77,6.23c-3.06,4.09-5.82,8-8.37,11.24-1.28,1.62-2.37,3.16-3.47,4.44l-2.87,3.31-2.5,2.88Z"/><path class="b44cb294-9ad5-4c16-ad72-22655501479c" d="M692.14,377.24c0-.12,0-.23,0-.36a63.58,63.58,0,0,1-.46-8.17,24.34,24.34,0,0,1,2.64-10.49l.45-.94-.58.86a27.24,27.24,0,0,0-1.48,2.35,28.2,28.2,0,0,0-2.81,8,64.06,64.06,0,0,0-.78,8.48c-.07,2.29-.11,3.81-.11,3.81H689A16.83,16.83,0,0,1,692.14,377.24Z"/><path class="b44cb294-9ad5-4c16-ad72-22655501479c" d="M682,392.39l.91.71a16.38,16.38,0,0,0,1.57.79,23,23,0,0,0,8.29,1.26,36.56,36.56,0,0,0,8-.92,20,20,0,0,0,2.52-.81l.89-.44a12.42,12.42,0,0,1-3.5.7,35.93,35.93,0,0,1-7.79-.32,20.81,20.81,0,0,1-7.1-2.19c-.38-.25-.7-.49-1-.7s-.4-.43-.52-.58a2.18,2.18,0,0,0-.26-.49l-.17.09A8.6,8.6,0,0,1,682,392.39Z"/><path class="b44cb294-9ad5-4c16-ad72-22655501479c" d="M673.3,402l-1.06-1.1a11,11,0,0,1-1.11-1.32,14,14,0,0,1-1.26-1.84,23.43,23.43,0,0,1-2.25-5,33.28,33.28,0,0,1-1.21-6,57.19,57.19,0,0,1,.08-11.19c.29-3,.57-5,.57-5s-.06,2,0,5a56.17,56.17,0,0,0,1.13,10.88,24,24,0,0,0,4.2,9.57,10.1,10.1,0,0,0,1.23,1.43,7.83,7.83,0,0,0,1,1l1,.8Z"/><path class="b44cb294-9ad5-4c16-ad72-22655501479c" d="M666,412.24a27.69,27.69,0,0,1,3.94,1.9c2.22,1.22,5,3,7.85,4.45s6,2.54,8.37,2.25a8,8,0,0,0,3.74-1.39,8.21,8.21,0,0,1-3.65,1.94c-2.52.66-6-.06-9.15-1.15s-6.2-2.5-8.45-3.37a26,26,0,0,0-3.66-1.19Z"/><path class="b44cb294-9ad5-4c16-ad72-22655501479c" d="M658.79,420.1l-.58-1.49c-.35-1-.93-2.28-1.47-3.94a64.92,64.92,0,0,1-2.94-12.42,70.6,70.6,0,0,1-.2-12.63c.28-3.42.55-5.68.55-5.68s0,2.28,0,5.69a69.78,69.78,0,0,0,1.4,12.32,63.94,63.94,0,0,0,4,11.6c.67,1.53,1.37,2.76,1.79,3.64l.69,1.37Z"/><path class="b54e6de4-08ee-4d84-bbe8-14fd008b0bab" d="M419.14,424.66s13.47-7,9-22.78-20.37-64.67,26.5-92.83,91.69-2.69,91.69-2.69,4,84.31-30.72,109.46-76.3,7.29-76.3,7.29-6.88-6.12-16.82,10.09c0,0-4.29,3.48-6,6.08s-5.4-3.86-5.4-3.86l-1.71-3.31S419.44,429.58,419.14,424.66Z"/><path class="b44cb294-9ad5-4c16-ad72-22655501479c" d="M432.48,412.44l4.67-4.05,5.37-4.64c2.06-1.81,4.23-4.08,6.68-6.43,4.91-4.7,10.42-10.52,16.49-16.58l9.49-9.3c3.15-3.14,6.51-6.17,9.49-9.6,6.2-6.62,12-13.79,17.93-20,6.23-5.94,11.92-11.58,17-16.22l17.68-14.5-17,15.19c-4.84,4.84-10.28,10.68-16.21,16.81-5.66,6.38-11.07,13.72-17.08,20.7-2.88,3.59-6.19,6.83-9.27,10.17s-6.08,6.47-9,9.58c-5.8,6.28-11.05,12.31-15.85,17.29-2.4,2.49-4.48,4.86-6.52,6.81l-5.34,5-4.66,4.38Z"/><path class="b44cb294-9ad5-4c16-ad72-22655501479c" d="M507.54,337.63c0-.2,0-.39,0-.61a106,106,0,0,1,.61-13.68,45.49,45.49,0,0,1,3.92-13,43.5,43.5,0,0,1,2.26-4l.9-1.5-1.11,1.35a42.68,42.68,0,0,0-2.86,3.65,47.41,47.41,0,0,0-6,12.88,108.75,108.75,0,0,0-2.73,14c-.5,3.8-.83,6.33-.83,6.33h.1A28.56,28.56,0,0,1,507.54,337.63Z"/><path class="b44cb294-9ad5-4c16-ad72-22655501479c" d="M488.1,361.13c.41.42.87.86,1.4,1.35a24.22,24.22,0,0,0,2.48,1.58,38.72,38.72,0,0,0,13.58,3.5,61.36,61.36,0,0,0,13.5-.19,31.33,31.33,0,0,0,4.32-.91l1.57-.58a21.41,21.41,0,0,1-6,.56,60.26,60.26,0,0,1-12.92-1.84c-4.57-1.14-8.93-3-11.44-4.85-.6-.47-1.08-.94-1.5-1.33s-.6-.77-.78-1.05a4.34,4.34,0,0,0-.34-.86l-.3.12A14.36,14.36,0,0,1,488.1,361.13Z"/><path class="b44cb294-9ad5-4c16-ad72-22655501479c" d="M472,375.66l-1.57-2a16.5,16.5,0,0,1-1.63-2.4A21.66,21.66,0,0,1,467,368a37.37,37.37,0,0,1-2.9-8.69,56.57,56.57,0,0,1-1-10.18,95.91,95.91,0,0,1,2-18.61c1-5,1.8-8.24,1.8-8.24s-.44,3.34-.87,8.37a93.92,93.92,0,0,0,0,18.3c.75,6.55,2.81,12.75,5.37,16.65a18.92,18.92,0,0,0,1.81,2.58,13.71,13.71,0,0,0,1.57,1.84l1.46,1.49Z"/><path class="b44cb294-9ad5-4c16-ad72-22655501479c" d="M458.12,391.49a47.6,47.6,0,0,1,6.25,3.82c3.49,2.42,7.77,5.81,12.31,8.74s9.51,5.24,13.55,5.16a13.24,13.24,0,0,0,6.46-1.68,13.57,13.57,0,0,1-6.4,2.61c-4.31.68-10-1.12-15-3.46s-9.9-5.21-13.5-7a40.43,40.43,0,0,0-5.89-2.6Z"/><path class="b44cb294-9ad5-4c16-ad72-22655501479c" d="M444.78,403.35s-.26-.93-.71-2.58-1.17-3.95-1.8-6.81a110.51,110.51,0,0,1-2.79-21.17,118.26,118.26,0,0,1,1.8-21.07c1-5.64,1.88-9.36,1.88-9.36s-.47,3.8-1,9.48a117.51,117.51,0,0,0,.26,20.74,105.7,105.7,0,0,0,4.68,20c.85,2.66,1.81,4.82,2.36,6.35l.92,2.4Z"/><path class="b54e6de4-08ee-4d84-bbe8-14fd008b0bab" d="M400.48,369.68s-2.12-14.32-17.7-15.21-64.56-1.87-75.27-52.84,26.21-83.36,26.21-83.36S410.85,241,422.65,280.1,405.38,351,405.38,351s-7.65,4.29,3.82,18.29c0,0,1.8,4.95,3.61,7.28s-5.16,3.66-5.16,3.66l-3.52.51S405,370.94,400.48,369.68Z"/><path class="f0687b29-fa03-48a4-8abf-fe6594105399" d="M403.15,370.76s-35.73,2.87-36.73,33.81,73.25,68.1,59,98.14c0,0,93-66,45.3-120.21C425.55,347.27,403.15,370.76,403.15,370.76Z"/><path class="b44cb294-9ad5-4c16-ad72-22655501479c" d="M438.1,480.25a58.82,58.82,0,0,0,1.77-6.15,81.72,81.72,0,0,0,1.83-8.1c.28-1.5.56-3.07.86-4.68s.37-3.33.57-5.07c.51-3.47.44-7.18.62-11a108.19,108.19,0,0,0-2.92-23.85A93.72,93.72,0,0,0,426,389.48c-1.05-1.43-2-2.89-3.05-4.19s-2.13-2.51-3.12-3.7a80.22,80.22,0,0,0-5.79-6.2,56.74,56.74,0,0,0-4.77-4.47l-3-2.61a19.12,19.12,0,0,0-3.12,2.45s-.37,0-1,.12l-.65.84,4.26,3.38a50,50,0,0,1,4.73,4.06,73.62,73.62,0,0,1,5.78,5.66c1,1.09,2.05,2.23,3.14,3.4s2,2.55,3.09,3.87a89.91,89.91,0,0,1,15.59,30.07,106.22,106.22,0,0,1,3.87,23.13c0,3.76.22,7.41-.13,10.86-.12,1.72-.24,3.4-.34,5s-.44,3.17-.65,4.67c-.33,3-1,5.71-1.46,8.13a59.24,59.24,0,0,1-1.5,6.2l-1.49,5.36Z"/><path class="b44cb294-9ad5-4c16-ad72-22655501479c" d="M435.55,410.35s.87-.17,2.37-.37l2.48,0c.9.12,1.92.26,3,.47a53.75,53.75,0,0,1,14.07,5.69A55.8,55.8,0,0,1,469.38,425a25,25,0,0,1,3,3.82l.83,1.65-1-1.51a24.07,24.07,0,0,0-3.43-3.29,54.23,54.23,0,0,0-12.56-6.93,50.34,50.34,0,0,0-13.55-3.49c-.9,0-1.71,0-2.42,0l-1.71.2a12.39,12.39,0,0,1-1.21.37Z"/><path class="b44cb294-9ad5-4c16-ad72-22655501479c" d="M425.28,396.89s-.6.18-1.71.4a14.78,14.78,0,0,0-4.45,2.72c-3.47,3.13-7.1,9-9.71,15.24a83.85,83.85,0,0,0-5.2,18.1,49.58,49.58,0,0,0-.54,6.23c.08,1.51.12,2.37.12,2.37s-.13-.86-.37-2.36a51,51,0,0,1-.1-6.33,85.11,85.11,0,0,1,3.39-19c2.06-6.76,5.13-13.36,9-17.68a26.89,26.89,0,0,1,3-2.71,19.16,19.16,0,0,1,2.81-1.68c1.79-.66,2.85-1,2.85-1Z"/><path class="b44cb294-9ad5-4c16-ad72-22655501479c" d="M413.14,377.59l2.7-.76A29.34,29.34,0,0,1,423,376c5.88-.13,13.29,1.73,20.09,4.6a81.67,81.67,0,0,1,17.37,10.22,65.66,65.66,0,0,1,5,4.3l1.77,1.76-1.93-1.58c-1.25-1-3.07-2.31-5.36-3.75a80.15,80.15,0,0,0-17.85-8.27c-6.79-2.11-13.86-3.1-18.87-2.46a23.88,23.88,0,0,0-5.82,1.25l-2.05.79Z"/><path class="b44cb294-9ad5-4c16-ad72-22655501479c" d="M408.61,376.33l-1.68.84a24,24,0,0,0-4.2,3.16c-3.34,3-7,8.28-9.93,13.93a70.51,70.51,0,0,0-6,16.53,42.31,42.31,0,0,0-.81,5.78c0,1.42,0,2.23,0,2.23s-.07-.81-.2-2.22a42.7,42.7,0,0,1,.17-5.93,71.87,71.87,0,0,1,4.25-17.54c2.37-6.18,5.58-12.14,9-16.09a28.66,28.66,0,0,1,4.73-4.44l2.18-1.4Z"/><path class="a75b1678-8d08-49b0-bcaf-abed75ff1c76" d="M401.28,371s11.34-64.5,94.5-42a94.81,94.81,0,0,0-14.57,17.73C473.88,358.06,438.26,384.62,401.28,371Z"/><path class="b44cb294-9ad5-4c16-ad72-22655501479c" d="M466.86,334.58A265.76,265.76,0,0,0,435.73,347c-2.76,1.22-5.55,2.54-8.31,3.88a79.2,79.2,0,0,0-7.7,4.62c-4.86,3.22-9,6.64-12.59,9.48-2,1.65-3.85,3.09-5.46,4.34-.27,1.09-.39,1.73-.39,1.73,1.56.57,3.12,1,4.67,1.48q2-1.74,4.31-3.88c6.74-6.2,15.64-14,26.7-19.08a265.62,265.62,0,0,1,30.19-14.14c4.22-1.68,7.94-2.49,10.46-3.34l4-1.2-4.07,1C475,332.54,471.2,333.14,466.86,334.58Z"/><path class="a75b1678-8d08-49b0-bcaf-abed75ff1c76" d="M405.89,365.74s-83.19-27.1-70.54,49.57c0,0,12-15.57,22-16.48S398.1,388.92,405.89,365.74Z"/><path class="b44cb294-9ad5-4c16-ad72-22655501479c" d="M405.89,365.74l-.9-.28-9,3.85c-6.88,2.69-16,6.4-25.65,8.59-4.7,1.16-9.81,2.41-14.07,4.57a28.73,28.73,0,0,0-9.88,8.34,26.74,26.74,0,0,0-2.68,4.37,23.66,23.66,0,0,0-1.63,3.59L340.89,402l1.4-3.11a24.16,24.16,0,0,1,1.87-3.42,26.6,26.6,0,0,1,2.92-4.09,27.32,27.32,0,0,1,9.95-7.25c4.22-1.76,8.91-2.56,13.91-3.42,9.93-1.52,19.55-4.62,26.71-6.86L403,372A35.22,35.22,0,0,0,405.89,365.74Z"/><path class="b44cb294-9ad5-4c16-ad72-22655501479c" d="M393.64,353.85l-2.18-5.46c-.69-1.74-1.53-3.86-2.5-6.28s-2.35-5.08-3.7-8c-2.69-5.89-6.21-12.66-9.77-20l-5.41-11.45c-1.85-3.81-3.52-7.78-5.67-11.54-4-7.65-8.68-15.07-12.4-22.37-3.4-7.46-6.69-14.36-9.29-20.35l-7.53-20.44L343.54,248c2.83,5.87,6.39,12.59,10.06,19.84,4,7.09,8.9,14.25,13.3,21.84,2.33,3.71,4.22,7.7,6.26,11.52s3.92,7.49,5.81,11.08c3.84,7.18,7.63,13.78,10.61,19.67,1.5,2.93,3,5.54,4.09,8l2.85,6.37c1.58,3.53,2.48,5.56,2.48,5.56Z"/><path class="b44cb294-9ad5-4c16-ad72-22655501479c" d="M349.76,262.94l-.55-.18a96,96,0,0,1-12.12-4.82,43.36,43.36,0,0,1-10.52-7.59,42.23,42.23,0,0,1-2.87-3.28c-.68-.81-1.06-1.28-1.06-1.28l.86,1.42a42.29,42.29,0,0,0,2.39,3.72,45.24,45.24,0,0,0,9.71,9.46,102,102,0,0,0,11.74,6.82l5.43,2.73,0-.09A27.31,27.31,0,0,1,349.76,262.94Z"/><path class="b44cb294-9ad5-4c16-ad72-22655501479c" d="M364.84,287.78c.51-.24,1-.52,1.65-.85a25.4,25.4,0,0,0,2.2-1.73,37,37,0,0,0,7.39-11.14,58.94,58.94,0,0,0,4-12.2,30.7,30.7,0,0,0,.53-4.18c0-1,0-1.59,0-1.59a20.38,20.38,0,0,1-1.35,5.53,57.22,57.22,0,0,1-5.69,11.06,33.42,33.42,0,0,1-7.94,8.78,19,19,0,0,1-1.67.93c-.48.13-.88.3-1.19.37a3.73,3.73,0,0,0-.88.05l0,.3A13.53,13.53,0,0,1,364.84,287.78Z"/><path class="b44cb294-9ad5-4c16-ad72-22655501479c" d="M372.88,306.81l-2.29.78a15.55,15.55,0,0,1-2.67.72,21.06,21.06,0,0,1-3.51.58,36.16,36.16,0,0,1-8.73-.1,54.17,54.17,0,0,1-9.48-2.27,92.1,92.1,0,0,1-16.12-7.63c-4.16-2.45-6.85-4.2-6.85-4.2s2.87,1.45,7.26,3.4A89.65,89.65,0,0,0,347,303.77c6.13,1.37,12.36,1.45,16.66.36a17.13,17.13,0,0,0,2.9-.82,13.46,13.46,0,0,0,2.14-.84l1.8-.84Z"/><path class="b44cb294-9ad5-4c16-ad72-22655501479c" d="M382.8,324.23a45.6,45.6,0,0,1,5.39-4.43c3.26-2.38,7.65-5.17,11.71-8.35s7.68-6.91,8.87-10.58a12.54,12.54,0,0,0,.51-6.34,12.89,12.89,0,0,1,.35,6.58c-.73,4.09-4.12,8.63-7.81,12.45s-7.78,7.29-10.54,9.95a37.16,37.16,0,0,0-4.18,4.5Z"/><path class="b44cb294-9ad5-4c16-ad72-22655501479c" d="M389.31,340l-2.54-.17c-1.63-.14-3.93-.18-6.7-.51a105.74,105.74,0,0,1-19.92-4.09,114.58,114.58,0,0,1-18.4-8.2c-4.75-2.71-7.83-4.63-7.83-4.63s3.26,1.62,8.22,3.82a111.52,111.52,0,0,0,18.76,6.24,100.31,100.31,0,0,0,19.45,2c2.66.06,4.91-.12,6.46-.14l2.44-.08Z"/><path class="f0687b29-fa03-48a4-8abf-fe6594105399" d="M394.15,360.48s-5.39-37.25-37.87-36.22-66.45,81.29-98.87,68.34c0,0,75.33,93,129,39.43C420.26,382.38,394.15,360.48,394.15,360.48Z"/><path class="b44cb294-9ad5-4c16-ad72-22655501479c" d="M281.79,404.4a61.22,61.22,0,0,0,6.56,1.45c2.55.48,5.42,1.09,8.61,1.38l5,.59,5.34.25c3.68.3,7.55,0,11.57-.08a114,114,0,0,0,24.78-4.65,98.95,98.95,0,0,0,32.46-17.66c1.43-1.2,2.89-2.29,4.18-3.48l3.67-3.52a81.58,81.58,0,0,0,6.1-6.47,56.27,56.27,0,0,0,4.37-5.3l2.53-3.32a20.12,20.12,0,0,0-2.77-3.11s-.06-.39-.19-1.06l-.92-.63-3.26,4.69a53.73,53.73,0,0,1-3.94,5.23,76.82,76.82,0,0,1-5.54,6.43l-3.36,3.52c-1.18,1.19-2.53,2.29-3.85,3.49a102.68,102.68,0,0,1-8.79,7,104.34,104.34,0,0,1-21.66,11.35,111.93,111.93,0,0,1-24,5.6c-3.94.24-7.75.72-11.39.58l-5.29,0-4.93-.36c-3.19-.15-6.06-.63-8.62-1a62,62,0,0,1-6.6-1.16l-5.71-1.21Z"/><path class="b44cb294-9ad5-4c16-ad72-22655501479c" d="M354.84,397.07s.24.9.55,2.45c0,.72.07,1.6.11,2.61s-.14,2-.29,3.16a57.1,57.1,0,0,1-5,15.12,58.56,58.56,0,0,1-8.46,13.08,26.72,26.72,0,0,1-3.8,3.43l-1.66,1,1.5-1.18a24.9,24.9,0,0,0,3.23-3.8,57.16,57.16,0,0,0,6.41-13.63,52.78,52.78,0,0,0,2.75-14.43c0-1-.07-1.8-.1-2.53l-.33-1.77c-.33-.8-.47-1.25-.47-1.25Z"/><path class="b44cb294-9ad5-4c16-ad72-22655501479c" d="M368.26,385.41s-.23-.61-.54-1.77a15.54,15.54,0,0,0-3.14-4.48c-3.51-3.43-9.87-6.83-16.62-9.15a87.83,87.83,0,0,0-19.31-4.24,53.42,53.42,0,0,0-6.56-.15l-2.48.29,2.45-.55a53.55,53.55,0,0,1,6.63-.52,89.4,89.4,0,0,1,20.1,2.28c7.21,1.71,14.34,4.48,19.12,8.23a29.7,29.7,0,0,1,3,3,20.22,20.22,0,0,1,1.95,2.84c.8,1.83,1.21,2.92,1.21,2.92Z"/><path class="b44cb294-9ad5-4c16-ad72-22655501479c" d="M387.67,371.4l1,2.78a30.73,30.73,0,0,1,1.32,7.39c.53,6.15-.92,14-3.47,21.36a85.76,85.76,0,0,1-9.55,18.87,64.59,64.59,0,0,1-4.17,5.54l-1.72,2,1.52-2.13a68.4,68.4,0,0,0,3.57-5.87,84.42,84.42,0,0,0,7.48-19.25c1.74-7.25,2.31-14.72,1.31-19.93a25.23,25.23,0,0,0-1.7-6l-1-2.09Z"/><path class="b44cb294-9ad5-4c16-ad72-22655501479c" d="M388.68,366.57l-1-1.7a24.35,24.35,0,0,0-3.6-4.19c-3.4-3.3-9.13-6.79-15.25-9.47a73.77,73.77,0,0,0-17.71-5.16,43.77,43.77,0,0,0-6.12-.46l-2.34.1,2.32-.36a45.86,45.86,0,0,1,6.22-.21,75.56,75.56,0,0,1,18.67,3.27c6.62,2.08,13.08,5.05,17.46,8.4a29.84,29.84,0,0,1,5,4.66l1.61,2.18Z"/><path class="a75b1678-8d08-49b0-bcaf-abed75ff1c76" d="M393.74,358.54s68.32,7.57,50.31,96.19a99.93,99.93,0,0,0-19.55-14.07C412.18,433.73,382,398.19,393.74,358.54Z"/><path class="b44cb294-9ad5-4c16-ad72-22655501479c" d="M436.31,424.8A281.12,281.12,0,0,0,421.24,393c-1.47-2.82-3-5.65-4.63-8.46a86,86,0,0,0-5.35-7.75c-3.7-4.88-7.57-9-10.78-12.55-1.87-2-3.49-3.84-4.91-5.44-1.16-.21-1.83-.29-1.83-.29-.5,1.67-.89,3.33-1.25,5q2,2,4.35,4.26c7,6.64,15.71,15.44,21.77,26.7a276.5,276.5,0,0,1,16.83,30.67c2.05,4.32,3.15,8.16,4.21,10.74l1.52,4.12-1.27-4.2C439,433.19,438.1,429.25,436.31,424.8Z"/><path class="f0687b29-fa03-48a4-8abf-fe6594105399" d="M399.59,363s22.84-88.95-56.64-70.57c0,0,17.11,11.52,18.74,22S374.79,356.41,399.59,363Z"/><path class="b44cb294-9ad5-4c16-ad72-22655501479c" d="M399.59,363s.09-.33.24-1c-1-2-2.63-5.21-4.63-9.18-3.29-7-7.78-16.36-10.72-26.3-1.53-4.84-3.18-10.12-5.73-14.44a30.2,30.2,0,0,0-9.39-9.79,28.77,28.77,0,0,0-4.77-2.51,27.93,27.93,0,0,0-3.86-1.47l-3.44-1,3.35,1.27a24.82,24.82,0,0,1,3.71,1.72,27.61,27.61,0,0,1,4.47,2.79,28.66,28.66,0,0,1,8.27,9.93c2.12,4.31,3.27,9.17,4.51,14.35,2.25,10.3,6.15,20.17,9,27.52l2.29,5.48A35.8,35.8,0,0,0,399.59,363Z"/><path class="f0687b29-fa03-48a4-8abf-fe6594105399" d="M80,194.18s29.6,34.08,61.71,12S156,81.05,197.14,73.08c0,0-136.33-45-155.67,43.86C39.47,189,80,194.18,80,194.18Z"/><path class="b44cb294-9ad5-4c16-ad72-22655501479c" d="M164.89,77a73.84,73.84,0,0,0-7.56,2.79c-2.88,1.17-6.17,2.41-9.58,4.19l-5.38,2.63-5.56,3.2c-3.9,2.09-7.61,4.92-11.62,7.59a136.4,136.4,0,0,0-22,20.77A129,129,0,0,0,87,143.92,125.19,125.19,0,0,0,81.92,157c-.67,2.13-1.44,4.19-2,6.22s-1,4-1.42,5.93a99.2,99.2,0,0,0-2,10.49,68.54,68.54,0,0,0-1,8.18c-.18,2.13-.31,3.78-.41,5A23.82,23.82,0,0,0,80,194.18s.31.35.88.95l1.34,0s.09-2.49.25-6.84a64,64,0,0,1,.57-7.83,94.14,94.14,0,0,1,1.43-10.09q.54-2.75,1.11-5.72c.42-2,1.07-4,1.61-6a122.75,122.75,0,0,1,4.34-12.77A124.79,124.79,0,0,1,106,120.39a133.94,133.94,0,0,1,20.56-21.2c3.81-2.79,7.34-5.75,11.1-8l5.35-3.4L148.26,85c3.3-1.92,6.52-3.29,9.33-4.59A72.44,72.44,0,0,1,165,77.28l6.55-2.49Z"/><path class="b44cb294-9ad5-4c16-ad72-22655501479c" d="M95.94,131.76s-.82-.75-2.14-2.11L92,127.09c-.54-1-1.17-2.14-1.75-3.38A67.81,67.81,0,0,1,85.5,105.2a70.69,70.69,0,0,1,0-18.68,30.3,30.3,0,0,1,1.61-5.92l1-2.07-.76,2.17a30.34,30.34,0,0,0-.78,5.93A68.33,68.33,0,0,0,89,104.54a63.05,63.05,0,0,0,6.59,16.34c.62,1,1.23,1.77,1.75,2.49L98.84,125c.86.59,1.29,1,1.29,1Z"/><path class="b44cb294-9ad5-4c16-ad72-22655501479c" d="M90,152.23s.64.48,1.7,1.44a18.29,18.29,0,0,0,6.07,2.48c5.77,1.18,14.4.5,22.71-1.54a105.64,105.64,0,0,0,22.23-8.25,64.2,64.2,0,0,0,6.71-4.1l2.32-1.9-2.12,2.14a63.15,63.15,0,0,1-6.35,4.82,107,107,0,0,1-21.76,10.74c-8.38,2.95-17.37,4.78-24.63,4.1a37,37,0,0,1-5-1,24.44,24.44,0,0,1-3.81-1.6c-2-1.32-3.12-2.15-3.12-2.15Z"/><path class="b44cb294-9ad5-4c16-ad72-22655501479c" d="M79.47,179l-2.78-2.16a36.67,36.67,0,0,1-6.13-6.61c-4.52-5.86-8.17-14.76-10.35-23.8a102.88,102.88,0,0,1-2.6-25.24,76.6,76.6,0,0,1,.61-8.29c.29-2,.46-3.11.46-3.11s-.06,1.14-.16,3.14a81.34,81.34,0,0,0,.21,8.24,100.5,100.5,0,0,0,4.94,24.26c2.94,8.45,7.21,16.36,11.6,21a30.56,30.56,0,0,0,5.61,5l2.33,1.48Z"/><path class="b44cb294-9ad5-4c16-ad72-22655501479c" d="M81.58,184.49l2.1,1.07A29.74,29.74,0,0,0,90,187.45c5.58,1.12,13.62.93,21.53-.33a88.73,88.73,0,0,0,21.22-6.29,52.93,52.93,0,0,0,6.47-3.5l2.29-1.62-2.11,1.87a54.74,54.74,0,0,1-6.12,4.25,91.13,91.13,0,0,1-21,8.8c-8,2.2-16.48,3.4-23.07,2.85a35.8,35.8,0,0,1-8-1.48c-1.94-.73-3-1.16-3-1.16Z"/><path class="b54e6de4-08ee-4d84-bbe8-14fd008b0bab" d="M140.51,351.31s7.38-12.45-4.16-23-49-42.14-25.15-88.46,72.88-48.21,72.88-48.21,45.58,66.24,30.08,104.05-58.1,44.2-58.1,44.2-8.65-1.5-8.56,16.61c0,0-1.72,5-1.79,7.92s-6.31-.41-6.31-.41l-3.05-1.82S143.22,355.14,140.51,351.31Z"/><path class="f0687b29-fa03-48a4-8abf-fe6594105399" d="M129.22,369.35s-28.37-21.91-49.92.31S87.7,469.33,56.94,482c0,0,113.19,13.74,114.37-58.48C161.6,367,129.22,369.35,129.22,369.35Z"/><path class="b44cb294-9ad5-4c16-ad72-22655501479c" d="M81.44,473.87a60.07,60.07,0,0,0,5.45-3.35c2.06-1.37,4.43-2.85,6.8-4.77l3.79-2.88,3.83-3.37c2.71-2.23,5.15-5,7.85-7.72A108.55,108.55,0,0,0,123,432.17a102.49,102.49,0,0,0,8.57-22.59,96.43,96.43,0,0,0,1.93-11c.19-1.77.47-3.49.56-5.16s.13-3.28.19-4.84a80.11,80.11,0,0,0-.12-8.47,55.08,55.08,0,0,0-.52-6.52c-.2-1.68-.36-3-.47-3.95a18.74,18.74,0,0,0-4-.29s-.29-.23-.83-.6l-1,.18.88,5.37a50.3,50.3,0,0,1,.77,6.19,74.43,74.43,0,0,1,.47,8.07c0,1.49,0,3,0,4.64s-.21,3.24-.32,4.94a95.07,95.07,0,0,1-1.38,10.61,98.33,98.33,0,0,1-7.3,22.12,105.64,105.64,0,0,1-12.69,19.72c-2.54,2.77-4.82,5.63-7.4,7.94L96.76,462l-3.62,3c-2.27,2-4.56,3.58-6.55,5a57.18,57.18,0,0,1-5.28,3.58l-4.71,3Z"/><path class="b44cb294-9ad5-4c16-ad72-22655501479c" d="M126.57,420.44s.76.46,2,1.32l1.81,1.7c.58.7,1.24,1.48,1.89,2.36a54.18,54.18,0,0,1,6.59,13.67,56.31,56.31,0,0,1,2.88,14.56,25.38,25.38,0,0,1-.33,4.87c-.32,1.12-.49,1.77-.49,1.77s.08-.66.24-1.81a24.1,24.1,0,0,0-.31-4.74,54.21,54.21,0,0,0-4.64-13.57,50.41,50.41,0,0,0-7.68-11.7c-.64-.65-1.24-1.19-1.76-1.67l-1.39-1a12.32,12.32,0,0,1-1.15-.54Z"/><path class="b44cb294-9ad5-4c16-ad72-22655501479c" d="M128,403.57s-.57-.27-1.55-.85a14.45,14.45,0,0,0-5.11-1c-4.68,0-11.29,1.87-17.45,4.75a83.9,83.9,0,0,0-16,9.9,50.3,50.3,0,0,0-4.59,4.24l-1.51,1.84,1.32-2a50.08,50.08,0,0,1,4.18-4.75A85.86,85.86,0,0,1,102.58,404c6.07-3.62,12.78-6.44,18.54-7a27.11,27.11,0,0,1,4,0,19,19,0,0,1,3.22.65c1.76.72,2.76,1.19,2.76,1.19Z"/><path class="b44cb294-9ad5-4c16-ad72-22655501479c" d="M132,381.12l2.5,1.25a29.47,29.47,0,0,1,5.8,4.19c4.44,3.86,8.67,10.22,11.78,16.92a82.25,82.25,0,0,1,6,19.24c.47,2.7.7,5,.82,6.55s.12,2.5.12,2.5-.13-.9-.37-2.47a61.65,61.65,0,0,0-1.45-6.38,79.53,79.53,0,0,0-7.64-18.13c-3.6-6.12-8.17-11.61-12.31-14.51a24.47,24.47,0,0,0-5.14-3l-2.05-.78Z"/><path class="b44cb294-9ad5-4c16-ad72-22655501479c" d="M129.52,377.14l-1.81-.5a23.26,23.26,0,0,0-5.24-.49c-4.51,0-10.75,1.41-16.71,3.63A70.42,70.42,0,0,0,90.22,388a40.37,40.37,0,0,0-4.49,3.74l-1.54,1.62,1.36-1.79a41.68,41.68,0,0,1,4.1-4.27,71.74,71.74,0,0,1,14.95-10.12c5.91-3,12.3-5.23,17.51-5.83a28.68,28.68,0,0,1,6.49-.1l2.55.43Z"/><path class="a75b1678-8d08-49b0-bcaf-abed75ff1c76" d="M127.66,368.3s51.76-40.1,98.17,32.48a95,95,0,0,0-22.7,3.32C190.1,407.52,145.89,403.22,127.66,368.3Z"/><path class="b44cb294-9ad5-4c16-ad72-22655501479c" d="M200.7,385.43a266.58,266.58,0,0,0-31.38-11.76c-2.86-.95-5.82-1.85-8.76-2.72a83,83,0,0,0-8.8-1.76c-5.77-.88-11.15-1.15-15.7-1.45-2.61-.14-4.93-.3-6.95-.46-.94.63-1.45,1-1.45,1,.76,1.47,1.59,2.87,2.45,4.23,1.76,0,3.69.05,5.79,0,9.17-.05,21,.17,32.6,3.85a263.64,263.64,0,0,1,31.85,9.84c4.25,1.6,7.55,3.49,10,4.56l3.77,1.81-3.65-2C208.09,389.39,204.88,387.28,200.7,385.43Z"/><path class="a75b1678-8d08-49b0-bcaf-abed75ff1c76" d="M134.63,367.48s-43.33-76-85.54-10.76c0,0,19.34-3.46,27.39,2.63S113.27,379.39,134.63,367.48Z"/><path class="b44cb294-9ad5-4c16-ad72-22655501479c" d="M134.63,367.48l-.48-.82-9.26-3.21c-6.9-2.63-16.16-6-24.76-10.9-4.26-2.3-8.88-4.81-13.49-6.08A28.74,28.74,0,0,0,73.73,346a26.81,26.81,0,0,0-4.93,1.44A23.76,23.76,0,0,0,65.18,349l-3,1.58,3.13-1.36A24.31,24.31,0,0,1,69,347.94a26.54,26.54,0,0,1,4.91-1.06,27.31,27.31,0,0,1,12.24,1.32c4.31,1.54,8.32,4.1,12.6,6.83,8.36,5.55,17.57,9.73,24.37,12.89l5.2,2.24A35.11,35.11,0,0,0,134.63,367.48Z"/><path class="b44cb294-9ad5-4c16-ad72-22655501479c" d="M145.17,334.71s.64-2,1.75-5.61l2-6.46c.76-2.5,1.37-5.42,2.17-8.56,1.63-6.27,3.16-13.74,5-21.7,1-4,2-8.11,3-12.3s2.17-8.26,2.87-12.54c1.69-8.47,2.75-17.16,4.47-25.17,2.06-7.94,3.85-15.37,5.61-21.66l7-20.62L173,221c-1.5,6.34-3,13.81-4.69,21.75-1.38,8-2.07,16.66-3.43,25.33-.53,4.35-1.58,8.64-2.4,12.89s-1.68,8.29-2.48,12.27c-1.54,8-2.76,15.5-4.15,21.95-.69,3.22-1.18,6.19-1.86,8.79s-1.3,4.87-1.8,6.74c-1,3.74-1.58,5.88-1.58,5.88Z"/><path class="b44cb294-9ad5-4c16-ad72-22655501479c" d="M168.38,236.47l-.31-.49a97.36,97.36,0,0,1-6.37-11.38,43,43,0,0,1-3.38-12.52,38.55,38.55,0,0,1-.17-4.35c0-1.06,0-1.67,0-1.67s-.08.6-.23,1.65-.45,2.56-.48,4.39A45.18,45.18,0,0,0,159,225.56a104.28,104.28,0,0,0,4.81,12.7c1.51,3.32,2.51,5.54,2.51,5.54l.08-.05A27.27,27.27,0,0,1,168.38,236.47Z"/><path class="b44cb294-9ad5-4c16-ad72-22655501479c" d="M164.44,265.25c.55.14,1.14.26,1.82.39a25.57,25.57,0,0,0,2.8,0,37.13,37.13,0,0,0,12.75-4,59.05,59.05,0,0,0,10.83-6.92,30.62,30.62,0,0,0,3-2.92l1-1.25a20.31,20.31,0,0,1-4.53,3.44,57.51,57.51,0,0,1-11.39,5,33.22,33.22,0,0,1-11.69,1.81c-.72-.08-1.35-.22-1.88-.32s-.88-.33-1.17-.47a3.52,3.52,0,0,0-.7-.51l-.18.24A13.41,13.41,0,0,1,164.44,265.25Z"/><path class="b44cb294-9ad5-4c16-ad72-22655501479c" d="M158.69,285.1l-2.27-.84a15.69,15.69,0,0,1-2.53-1.12,22.3,22.3,0,0,1-3.09-1.76,36.32,36.32,0,0,1-6.71-5.58,53.33,53.33,0,0,1-5.93-7.74,91,91,0,0,1-7.7-16.08c-1.7-4.52-2.68-7.58-2.68-7.58s1.32,2.93,3.49,7.22a90.18,90.18,0,0,0,9.22,14.79c3.9,4.93,8.68,8.92,12.71,10.78a17,17,0,0,0,2.77,1.19,12.34,12.34,0,0,0,2.19.7l1.93.48Z"/><path class="b44cb294-9ad5-4c16-ad72-22655501479c" d="M155.41,304.88a46.89,46.89,0,0,1,7,0c4,.21,9.21.8,14.36.89s10.32-.53,13.55-2.63a12.67,12.67,0,0,0,4.4-4.6,13.09,13.09,0,0,1-3.88,5.34c-3.15,2.71-8.64,4.09-13.91,4.74s-10.64.75-14.46,1.08a38.07,38.07,0,0,0-6.07.86Z"/><path class="b44cb294-9ad5-4c16-ad72-22655501479c" d="M150.57,321.18l-1.87-1.73c-1.17-1.13-2.94-2.61-4.88-4.61a106.15,106.15,0,0,1-12.89-15.74,113.62,113.62,0,0,1-9.12-18c-2-5.09-3.17-8.52-3.17-8.52s1.52,3.31,4,8.15a110.47,110.47,0,0,0,10.62,16.66,101.18,101.18,0,0,0,13.83,13.84c2,1.73,3.88,3,5.1,4l1.95,1.48Z"/><path class="b54e6de4-08ee-4d84-bbe8-14fd008b0bab" d="M119.13,365.1s14.23,5.34,23-8.51,34.57-58.33,86.82-42.22,63.19,66.49,63.19,66.49S232,440.12,190.09,431s-56.35-52-56.35-52,0-9.21-18.73-5.8c0,0-5.46-.87-8.52-.39s-.73-6.61-.73-6.61l1.32-3.48S115.67,368.61,119.13,365.1Z"/><path class="f0687b29-fa03-48a4-8abf-fe6594105399" d="M115.34,355.36s25.31-27.85,3.87-52.27-105,.43-115.63-32.82c0,0-23.86,117.29,51.6,124.58C115.05,389.43,115.34,355.36,115.34,355.36Z"/><path class="b44cb294-9ad5-4c16-ad72-22655501479c" d="M10,296.59a58.9,58.9,0,0,0,3,6,85.44,85.44,0,0,0,4.41,7.52l2.7,4.2,3.2,4.29c2.11,3,4.82,5.81,7.43,8.87a113.19,113.19,0,0,0,19.35,16.17A107.44,107.44,0,0,0,73,354.48a104.79,104.79,0,0,0,11.36,2.95c1.83.34,3.6.77,5.34,1l5.05.6a82.32,82.32,0,0,0,8.88.59,55.7,55.7,0,0,0,6.86,0l4.18-.16a19.68,19.68,0,0,0,.63-4.11s.26-.29.7-.82l-.11-1.11-5.68.46a52.38,52.38,0,0,1-6.54.29,75.61,75.61,0,0,1-8.49-.19l-4.85-.35c-1.67-.16-3.38-.5-5.14-.75a102.8,102.8,0,0,1-11-2.33,104.38,104.38,0,0,1-22.53-9.5,111.22,111.22,0,0,1-19.57-14.94c-2.69-2.88-5.48-5.52-7.69-8.41l-3.35-4.1-2.86-4c-1.91-2.55-3.36-5.08-4.71-7.28a60.13,60.13,0,0,1-3.31-5.83l-2.7-5.18Z"/><path class="b44cb294-9ad5-4c16-ad72-22655501479c" d="M62.1,348.29s-.54.76-1.54,2L58.62,352c-.78.55-1.65,1.18-2.62,1.78a56.45,56.45,0,0,1-14.86,5.75,58.6,58.6,0,0,1-15.48,1.79,25.6,25.6,0,0,1-5.06-.75l-1.81-.66,1.86.41a26.25,26.25,0,0,0,5,.07,57.39,57.39,0,0,0,14.6-3.72,52.8,52.8,0,0,0,12.88-7.06c.73-.6,1.35-1.19,1.89-1.69l1.16-1.37c.41-.77.67-1.16.67-1.16Z"/><path class="b44cb294-9ad5-4c16-ad72-22655501479c" d="M79.64,351.24a17.09,17.09,0,0,1,1-1.55,15.37,15.37,0,0,0,1.45-5.27c.42-4.89-1-12-3.5-18.65a87.65,87.65,0,0,0-9-17.59,55,55,0,0,0-4-5.16l-1.81-1.73s.73.56,2,1.55a50.64,50.64,0,0,1,4.62,4.77,89.35,89.35,0,0,1,11,17c3.27,6.65,5.66,13.91,5.81,20a29.79,29.79,0,0,1-.36,4.22,20.43,20.43,0,0,1-.95,3.32c-.89,1.78-1.47,2.79-1.47,2.79Z"/><path class="b44cb294-9ad5-4c16-ad72-22655501479c" d="M102.79,357.3l-1.52,2.52a30.92,30.92,0,0,1-4.87,5.72C92,369.86,85,373.75,77.71,376.45a86.08,86.08,0,0,1-20.64,4.63,66.05,66.05,0,0,1-6.92.3l-2.62-.07,2.61-.18a66,66,0,0,0,6.8-1,84,84,0,0,0,19.61-6.47c6.7-3.26,12.83-7.58,16.21-11.66a25.32,25.32,0,0,0,3.57-5.14c.63-1.32,1-2.07,1-2.07Z"/><path class="b44cb294-9ad5-4c16-ad72-22655501479c" d="M107.16,355s.25-.67.68-1.85a24.53,24.53,0,0,0,1-5.43c.38-4.73-.57-11.37-2.39-17.8A73.8,73.8,0,0,0,99.11,313a44.53,44.53,0,0,0-3.53-5L94,306.23s.64.56,1.75,1.56a43.11,43.11,0,0,1,4.12,4.66,75.06,75.06,0,0,1,9.35,16.49c2.61,6.43,4.43,13.3,4.62,18.81a30.1,30.1,0,0,1-.43,6.79l-.66,2.64Z"/><path class="a75b1678-8d08-49b0-bcaf-abed75ff1c76" d="M121.39,362.17s44.28,52.58-29.86,104.36a99.72,99.72,0,0,0-4.46-23.67C82.92,429.35,85.54,382.79,121.39,362.17Z"/><path class="b44cb294-9ad5-4c16-ad72-22655501479c" d="M106.56,439.52a281.31,281.31,0,0,0,11-33.41c.88-3.05,1.69-6.19,2.48-9.31a85,85,0,0,0,1.46-9.31c.69-6.08.73-11.74.85-16.52,0-2.76.12-5.19.19-7.32-.69-1-1.13-1.48-1.13-1.48-1.51.87-2.94,1.8-4.33,2.75q.06,2.77.21,6.09c.45,9.61.73,22-2.64,34.35a277.27,277.27,0,0,1-8.95,33.82c-1.49,4.54-3.34,8.08-4.36,10.68l-1.73,4,2-3.92C102.72,447.44,104.79,444,106.56,439.52Z"/><path class="f0687b29-fa03-48a4-8abf-fe6594105399" d="M122.55,369.45s77.87-48.7,7.62-90.18c0,0,4.46,20.14-1.58,28.84S109.14,347.56,122.55,369.45Z"/><path class="b44cb294-9ad5-4c16-ad72-22655501479c" d="M122.55,369.45l.84-.54c.65-2.18,1.68-5.58,3-9.85,2.46-7.35,5.64-17.21,10.37-26.43,2.23-4.57,4.67-9.52,5.8-14.41a30.12,30.12,0,0,0-.05-13.56,29.06,29.06,0,0,0-1.72-5.11,28,28,0,0,0-1.79-3.73l-1.79-3.11s.57,1.17,1.55,3.23a26.55,26.55,0,0,1,1.51,3.8,27.43,27.43,0,0,1,1.31,5.1,28.52,28.52,0,0,1-.86,12.9c-1.43,4.58-3.94,8.9-6.62,13.5-5.47,9-9.45,18.85-12.48,26.12l-2.12,5.55A36.7,36.7,0,0,0,122.55,369.45Z"/><path class="b44cb294-9ad5-4c16-ad72-22655501479c" d="M137.14,366.88l6.13.78,7,.9c2.73.32,5.86.42,9.25.68,6.77.53,14.78.74,23.35,1.22l13.26.85c4.44.25,8.94.74,13.49.67,9.06.19,18.25-.3,26.84,0,8.58.67,16.59,1.15,23.42,1.82l22.59,3.49-22.69-2.56c-6.83-.38-14.81-.53-23.33-.86-8.53.05-17.61.92-26.82,1.1-4.59.26-9.21,0-13.76-.11l-13.13-.31c-8.56-.12-16.54,0-23.46-.26-3.45-.12-6.6-.09-9.42-.31l-7.3-.63-6.36-.55Z"/><path class="b44cb294-9ad5-4c16-ad72-22655501479c" d="M242.94,372.85l.45-.42A103.66,103.66,0,0,1,254,363.76,45.35,45.35,0,0,1,266.31,358a42.28,42.28,0,0,1,4.46-1l1.72-.33-1.74.08a41.91,41.91,0,0,0-4.63.3,47.24,47.24,0,0,0-13.63,4.1,109,109,0,0,0-12.23,7.3L235,372.06l.06.08A28.22,28.22,0,0,1,242.94,372.85Z"/><path class="b44cb294-9ad5-4c16-ad72-22655501479c" d="M212.47,374.06c0,.58-.05,1.22-.07,1.94a24.29,24.29,0,0,0,.48,2.9,38.71,38.71,0,0,0,6.46,12.45,61.82,61.82,0,0,0,9.14,9.93,33.51,33.51,0,0,0,3.57,2.61l1.48.78a20.94,20.94,0,0,1-4.39-4.06,59.7,59.7,0,0,1-7.26-10.85,35,35,0,0,1-4-11.75c-.05-.76,0-1.44,0-2s.18-1,.27-1.29a3.21,3.21,0,0,0,.4-.82l-.28-.15A14.4,14.4,0,0,1,212.47,374.06Z"/><path class="b44cb294-9ad5-4c16-ad72-22655501479c" d="M190.9,371.75s.16-.91.45-2.5a16.68,16.68,0,0,1,.7-2.82,22,22,0,0,1,1.25-3.51,37.69,37.69,0,0,1,4.53-8,57,57,0,0,1,6.91-7.56A96,96,0,0,1,220,336.5c4.37-2.59,7.34-4.16,7.34-4.16s-2.79,1.9-6.81,4.93a94,94,0,0,0-13.6,12.24c-4.39,4.94-7.63,10.61-8.82,15.12a18.23,18.23,0,0,0-.71,3.07,14.48,14.48,0,0,0-.33,2.4c-.08,1.32-.13,2.08-.13,2.08Z"/><path class="b44cb294-9ad5-4c16-ad72-22655501479c" d="M169.85,372a45.78,45.78,0,0,1,1.33,7.2c.53,4.21.86,9.66,1.71,15s2.44,10.57,5.2,13.53a13.36,13.36,0,0,0,5.56,3.7,13.77,13.77,0,0,1-6.22-3c-3.38-2.76-5.82-8.17-7.46-13.51s-2.72-10.85-3.77-14.75a39.85,39.85,0,0,0-2-6.12Z"/><path class="b44cb294-9ad5-4c16-ad72-22655501479c" d="M152.11,370l1.45-2.26c.95-1.41,2.17-3.51,3.88-5.88a110.39,110.39,0,0,1,13.9-16.21,118.24,118.24,0,0,1,16.88-12.72c4.91-3,8.23-4.84,8.23-4.84s-3.14,2.18-7.69,5.62a117,117,0,0,0-15.27,14,106.26,106.26,0,0,0-11.77,16.83c-1.41,2.41-2.38,4.56-3.16,6l-1.17,2.28Z"/><path class="ad91cd6b-4081-4604-b754-9bcbcb2e3abf" d="M998.55,397.16c8.32,5.18,61.08,17.34,53.67-5.9-5.71-19.35-50.48-.62-52.67,5"/><path class="b4e57052-54d7-4cd0-9a6a-4e19036c0118" d="M987.71,404.24c2.34,10.6,34.14,60.79,46.5,42.35,11.36-17.54-40.08-37.27-46.5-42.35"/><path class="bce8637f-3a47-4a10-baba-8d5075803395" d="M955.2,387.37c13.31.66,67.92-5.19,66-23.39-2.42-27.76-58.13,19-65,22.49"/><path class="bce8637f-3a47-4a10-baba-8d5075803395" d="M926.87,382.14c5.94-4.47,67.26-49.06,39.07-57.14-12.22-3.46-29.76,23.3-34,31.67a92.7,92.7,0,0,0-6,25.43"/><path class="b4e57052-54d7-4cd0-9a6a-4e19036c0118" d="M958.05,387.51c9.7-3.33,63.31-27.34,49.81-43.26C990.8,323.39,961.19,382,958,388.46"/><path class="ad91cd6b-4081-4604-b754-9bcbcb2e3abf" d="M926.06,379.24c9.13-11,18.4-24.81,21-39,2.66-15.12-.43-29.57-16.26-18-17.82,13.41-15.54,44-5.79,58.8"/><path class="bce8637f-3a47-4a10-baba-8d5075803395" d="M934.14,389.18c14.07,4.51,62.65,24.09,54,45.58-7.61,18.68-49.77-33.94-54.05-43.68"/><path class="b4e57052-54d7-4cd0-9a6a-4e19036c0118" d="M933.15,390.08c13.07,5.42,52.19,61.69,26.52,60.41-17.11-.85-25.1-50.81-28.33-62.4"/><path class="bce8637f-3a47-4a10-baba-8d5075803395" d="M875.06,389.09c13.64-6,27.76-21.49,32.27-35.56,4.33-10.27,7.32-32-10.13-26.24-15.54,5.9-24.42,50.25-23.14,62.7"/><path class="b4e57052-54d7-4cd0-9a6a-4e19036c0118" d="M874.11,389c9.08-10,28-65.31-1.15-53.43-18.49,7.66-7.93,44.4.1,55.29"/><path class="bce8637f-3a47-4a10-baba-8d5075803395" d="M876.72,393.94c14.22,1.66,69.31,43.48,46.12,49.95-16.45,4.9-42.79-40.26-49.82-52"/><path class="b4e57052-54d7-4cd0-9a6a-4e19036c0118" d="M873.92,392.84c7.37,5.14,48.16,47.2,28.76,53.86-16.44,4.89-28.33-43.35-30.71-53"/><path class="bce8637f-3a47-4a10-baba-8d5075803395" d="M834.8,412.81c17.12.86,35.46,15.11,48.3,25.28,8.22,7.09,34.7,30.33,10,28.14-19.92-1.94-48.63-37.68-58.37-52.47"/><path class="ad91cd6b-4081-4604-b754-9bcbcb2e3abf" d="M834.71,414.71c21.81,2,51.29,41.64,47.25,65.26-19-1.9-39.55-47.72-45.35-65.16"/><path class="bce8637f-3a47-4a10-baba-8d5075803395" d="M844.78,384.72c-7.75-16.59-20.44-29.61-35.18-39.88-9.27-5.22-32.46-17.82-26.81,2.48,3.9,17.35,46.64,39.49,63.84,38.44"/><path class="b4e57052-54d7-4cd0-9a6a-4e19036c0118" d="M844.83,383.77c-1.43-9.6-12.46-75-29.15-65.31-22.57,13.17,20.78,61.08,30,67.26"/><path class="b4e57052-54d7-4cd0-9a6a-4e19036c0118" d="M845.68,385.72c7.9-5.33,53.71-45,37.12-56.29s-38.54,46.69-39.11,58.09"/><path class="bce8637f-3a47-4a10-baba-8d5075803395" d="M802.81,423.61c15.88,6.51,35.32,18,48.06,30,7.23,8,26,32.75,3.48,25.91-17.83-5.66-42.88-38.36-52.63-53.14"/><path class="b4e57052-54d7-4cd0-9a6a-4e19036c0118" d="M803.72,424.6c6.37,6,45,72.77,21.06,74.44-17.25,2-21.63-63-22-74.48"/><path class="ad91cd6b-4081-4604-b754-9bcbcb2e3abf" d="M809.61,402c4.51-14.08-11.75-70.16-33.14-61.7-22.39,9.37,21.87,58.27,36,61.84"/><path class="bce8637f-3a47-4a10-baba-8d5075803395" d="M758.27,418.52c9.13-11,21.86-56.09,2.28-64.69-21.49-8.69-10.26,52.86-1.23,62.84"/><path class="b4e57052-54d7-4cd0-9a6a-4e19036c0118" d="M759.37,415.72c4.8-19.77-19.35-51.48-42.64-43.11-26.24,10.13,32.37,38.78,42.54,45"/><path class="b4e57052-54d7-4cd0-9a6a-4e19036c0118" d="M757,445.14c17.06,1.81,32,7.32,44.82,18.44,6.42,5.09,34.56,33.18,18.07,39S766,454.17,756,446.05"/><path class="bce8637f-3a47-4a10-baba-8d5075803395" d="M728.29,465.63c12.5-2.23,88.93,32.08,69.83,52.09-15,14.5-60.8-42.11-68.93-51.09"/><path class="b4e57052-54d7-4cd0-9a6a-4e19036c0118" d="M727.34,465.59c16.77,7.5,34.17,21.71,42.83,39.3,4.32,8.79,12.79,30.18-2.33,27.52-19-1.9-29.86-51-37.7-65.73"/><path class="ad91cd6b-4081-4604-b754-9bcbcb2e3abf" d="M716.73,448.85c3.52-13.16,14.26-75.53-15.31-75.1s2.29,68.74,15.27,76.05"/><path class="ade3e783-28ce-4ca9-a6bf-c7fd65680c3e" d="M998.81,396.36C954,387.9,908,384.21,862.64,390.61a276.15,276.15,0,0,0-64.94,17.3C775.91,416.72,756,428.82,737,442.64c-29.71,21.68-54,50.21-73.35,81.29-.57.92.83,1.83,1.4.92a314.07,314.07,0,0,1,43.72-55.71,281.85,281.85,0,0,1,56.62-43.43c39.78-23.43,85.24-34.66,131.15-36.43,34.1-1.32,68.27,2.35,101.74,8.67,1.05.2,1.58-1.39.52-1.59Z"/><path class="ade3e783-28ce-4ca9-a6bf-c7fd65680c3e" d="M837.23,414.25c-6.36-7.85-15.84-11.45-25.73-12a.84.84,0,0,0-.08,1.67c9.47.53,18.48,3.94,24.57,11.46.68.84,1.92-.29,1.24-1.12Z"/><path class="ade3e783-28ce-4ca9-a6bf-c7fd65680c3e" d="M804.41,425.17c-3.79-7.16-11.44-10.44-19.24-10.91a.84.84,0,0,0-.08,1.67c7.2.44,14.32,3.37,17.84,10a.83.83,0,0,0,1.48-.77Z"/><path class="ade3e783-28ce-4ca9-a6bf-c7fd65680c3e" d="M758.35,444.49c-5.74-3.11-12.2-3.61-18.6-2.92-1.07.12-.7,1.75.36,1.63,5.91-.64,12-.19,17.33,2.69.94.51,1.86-.89.91-1.4Z"/><path class="ade3e783-28ce-4ca9-a6bf-c7fd65680c3e" d="M732.35,465c-5.36-2.08-11.68-4.56-17.46-2.78-1,.31-.67,1.95.36,1.63,5.5-1.69,11.48.76,16.58,2.74,1,.39,1.52-1.2.52-1.59Z"/><path class="ade3e783-28ce-4ca9-a6bf-c7fd65680c3e" d="M716,446.69c-1.16,5.35-2.32,10.71-3.65,16-.26,1,1.32,1.57,1.58.52,1.34-5.31,2.49-10.66,3.66-16,.23-1-1.36-1.57-1.59-.52Z"/><path class="ade3e783-28ce-4ca9-a6bf-c7fd65680c3e" d="M758.57,415.46a56.83,56.83,0,0,1-8.5,19.39.84.84,0,0,0,1.4.91A58.11,58.11,0,0,0,760.16,416c.22-1-1.37-1.58-1.59-.52Z"/><path class="ade3e783-28ce-4ca9-a6bf-c7fd65680c3e" d="M845,384.31a34.2,34.2,0,0,1-9.93,10.77c-.89.61.25,1.85,1.12,1.24a35.3,35.3,0,0,0,10.21-11.1c.54-.93-.85-1.84-1.4-.91Z"/><path class="b4e57052-54d7-4cd0-9a6a-4e19036c0118" d="M876.63,395.84c-1.86-1-4.66-2.14-5.56-3.14"/><path class="ade3e783-28ce-4ca9-a6bf-c7fd65680c3e" d="M877.09,395.14c-1.71-.95-4-1.59-5.4-3-.76-.76-2,.36-1.24,1.12,1.53,1.55,3.85,2.25,5.72,3.28.94.52,1.86-.88.92-1.4Z"/><path class="b4e57052-54d7-4cd0-9a6a-4e19036c0118" d="M926.06,379.24c-1,1.86-5,5.47-8,7.23"/><path class="ade3e783-28ce-4ca9-a6bf-c7fd65680c3e" d="M925.36,378.79c-1.7,2.83-4.89,5.24-7.67,6.94-.91.56-.15,2,.77,1.48,3-1.85,6.44-4.41,8.3-7.51.56-.92-.84-1.84-1.4-.91Z"/><path class="b4e57052-54d7-4cd0-9a6a-4e19036c0118" d="M956.25,385.52c-2,.85-4.9,2.61-6.85,3.47"/><path class="ade3e783-28ce-4ca9-a6bf-c7fd65680c3e" d="M955.86,384.77c-2.33,1.06-4.51,2.42-6.84,3.47-1,.45-.21,1.93.77,1.49,2.33-1.05,4.51-2.42,6.84-3.47,1-.44.21-1.93-.77-1.49Z"/><path class="ade3e783-28ce-4ca9-a6bf-c7fd65680c3e" d="M989.36,404.85a33.53,33.53,0,0,0-12.07-12.34c-.93-.54-1.85.86-.92,1.4a31.92,31.92,0,0,1,11.51,11.71c.52.94,2,.18,1.48-.77Z"/><path class="b54e6de4-08ee-4d84-bbe8-14fd008b0bab" d="M273,209.18c-22.6-39.76-3-65.45,9.21-102.4C293,73.47,309.08,41.83,314.77,7.9c7.55,74-1.31,138-42,200.21"/><path class="b44cb294-9ad5-4c16-ad72-22655501479c" d="M272.73,208.11c.74-1.13,1.4-2.27,2.12-3.4q.27-2.75.65-5.9c.37-4.17,1.2-8.81,2-13.89,3.51-20.28,10.43-46.95,17.9-73.39,7.67-26.42,14.33-53.11,16.9-73.56,2.31-10.15,1.33-18.6,1.6-24.74,0-.42,0-.8,0-1.19,0,.16-.07.33-.1.49s0,.45,0,.7c-.34,6.17.56,14.56-1.85,24.69-2.79,20.43-9.7,46.91-17.65,73.29-7.76,26.38-15,53-18.7,73.35-.86,5.11-1.74,9.77-2.16,14-.46,3.66-.83,6.82-1,9.62.19.34.33.67.53,1Z"/><path class="f0687b29-fa03-48a4-8abf-fe6594105399" d="M242.37,242.67c-41.82-25.82-56.39-72.23-56.1-118.93.14-39.45,1.48-86.37,13.1-123.74,11.4,20.42,14.15,47.06,21.53,69.41,7.81,21.72,12.43,44.08,19.59,65.37,10,35.14,16.24,70.5,4.19,105.75"/><path class="b44cb294-9ad5-4c16-ad72-22655501479c" d="M244.66,240.54a71.55,71.55,0,0,0-5.21-29.95,138.5,138.5,0,0,0-6.86-14.52c-2.42-4.74-4.61-9.56-6.93-14.35L224,178.1l-1.41-3.72-2.82-7.47c-2.1-4.9-3.19-10.12-4.62-15.25-.63-2.58-1.5-5.12-1.93-7.74L212,136l-1.21-7.9c-.3-2.64-.41-5.31-.63-8l-2.33-31.89-1.56-31.91c0-10.71-2.62-21-5-31.38-1.42-6.44-2.91-13-3.38-19.75,0,.1-.06.19-.08.28A137.6,137.6,0,0,0,201,25.05c2.33,10.47,4.79,20.64,4.74,31.36L207,88.31l2.06,32c.2,2.66.29,5.33.57,8l1.14,8,1.14,8c.41,2.65,1.27,5.21,1.88,7.82,1.39,5.18,2.46,10.46,4.53,15.43l2.77,7.54,1.39,3.77,1.68,3.65c2.29,4.83,4.47,9.77,6.85,14.52a137.42,137.42,0,0,1,6.66,14.38,81.91,81.91,0,0,1,5.51,30.64Z"/><path class="b44cb294-9ad5-4c16-ad72-22655501479c" d="M129.11,417.24s34.18-37.08,37.33-48.11a117.13,117.13,0,0,0,3.8-22.35l1.82-.38s1.57,10.74,0,15.35a6.16,6.16,0,0,1-.3.73c-2.06,4.07,31.83-48.65,31.83-48.65s7.8-24.69,3.07-34.45-7.07-51.7-3.73-60.94l2.65-.36s-1.77,43.13,3,56.54S209,306,209,306s31.43-34.07,36.77-45.92-3.26-17.53-3.26-17.53l2-2.6s6.54,8.26,5.26,14.65c0,0,13-11.3,15.32-17.62s8.75-30.37,8.75-30.37l1.47,1s-2.76,21.68-6.41,27.72l41.79-43.65,1.15.76s-41.12,44.25-41.65,46.44c0,0-3.19,2.11,10.19-.19l1,2.17s-12.44,2.46-16.52,6.86S234.5,283,238.27,284.16s69.79-35.67,78-59.2l2.52,1.67s-26.92,44.59-86.29,63.64c0,0-14.62,14.76-19.67,23.17s-44.39,67.85-44.39,67.85,25.15-16.38,28.07-16.7l.66,1.05S169,380.17,166.6,387s29.81,1.33,29.81,1.33v1.82a330.71,330.71,0,0,1-34.22,3.59s-6.21-2-23.66,28.36Z"/><path class="f0687b29-fa03-48a4-8abf-fe6594105399" d="M216.14,298.48c-7.53-6.37,2.05-24.17,8.38-29.63,13.92-12.86,42-3.24,57.18,2,21.38,7.25,46.43,14.17,69,13.27,15.12-1,40.93,1.56,50.86-12.56-7.56,11.54-20.56,18.8-31.49,26.05-14.1,10-35.45,9-52,7-30.91-3.22-72.11-18.05-102.6-7.19"/><path class="f0687b29-fa03-48a4-8abf-fe6594105399" d="M171.87,347.52c-13.08-8.08-29-12.48-40.28-23.92s-13.75-27.72-16.32-42.26c-6.43-31.55-4-61.72-6.32-92.77C144.71,224,188.23,291.76,173,345.5"/><path class="b44cb294-9ad5-4c16-ad72-22655501479c" d="M172.89,345.64c-1.13-4.74-2.71-11.24-4.41-19.16A82.31,82.31,0,0,0,157.14,300c-5.59-9-12.61-17.78-18.66-27.24-6.83-9.05-10.15-20.17-12.28-30.45s-3.54-20.09-5.74-28.18a65.81,65.81,0,0,0-7.57-18.52,34.11,34.11,0,0,0-3.24-4.51c-.26-.34-.42-.53-.6-.75,0,0,0,0,0,0,.18.23.32.42.58.74a31.87,31.87,0,0,1,3.17,4.56,65.14,65.14,0,0,1,7.31,18.55c2.09,8.08,3.35,17.83,5.37,28.23s5.28,21.73,12,30.91c6,9.63,12.88,18.51,18.31,27.46a80.64,80.64,0,0,1,10.78,26.11c1.65,8.22,3.25,15.13,4.32,19.92,0,.07,0,.13.05.19.3.19.61.34.91.52Z"/><path class="f0687b29-fa03-48a4-8abf-fe6594105399" d="M195.35,388.21c19.71-32.94,65.19-56.19,102.11-59.34,37.55-2.74,76.47,6.45,112.69-5.44-24.79,35.08-79.33,68-119.56,81.81-26.67,9.93-71.34-.3-95-16"/><path class="b44cb294-9ad5-4c16-ad72-22655501479c" d="M339,359.65a105.29,105.29,0,0,0,19.29-6.91l8.66-3.95,7.89-4.11c5.13-2.52,9.59-5.25,13.58-7.61l5.59-3.3,4.58-3,8.66-5.84-8.72,5.75-4.6,3c-1.74,1-3.61,2.08-5.62,3.23-4,2.33-8.49,5-13.63,7.49l-7.92,4-8.68,3.87a105.14,105.14,0,0,1-19.25,6.69c-13.76,3.46-29,4.18-44.23,4.64-7.62.25-15.27.51-22.77,1.1s-14.91,1.15-22,2.23c-14.23,2.1-27.28,6-37.68,11.07a84.59,84.59,0,0,0-16.69,10.49l.16.8c.4.26.85.52,1.27.78a82.74,82.74,0,0,1,16.1-10.31c10.15-5.08,23-9.05,37.08-11.27,7-1.14,14.39-1.87,21.87-2.43s15.1-1,22.72-1.3C309.82,364.13,325.16,363.26,339,359.65Z"/><path class="b4e57052-54d7-4cd0-9a6a-4e19036c0118" d="M194.54,366.76c6.81-25.14,39.15-45.13,59.91-56.9,14.12-7.9,29.51-15.66,45.24-19.73,15.26-4.39,30.24-2.05,44.71-4.21-12.82,10.14-21.94,26.18-33.63,37.75-12,12.05-25.46,23.14-40.69,31.69-22.82,13.86-50.1,28.23-74.44,10.76"/><path class="b44cb294-9ad5-4c16-ad72-22655501479c" d="M342.91,287.23c-4.61,2.59-10.16,6.12-16.38,10.35l-13.19,8.88c-4.68,3.15-9.56,6.53-14.9,9.58s-10.69,6.45-16.38,9.52-11.38,6.33-17.17,9.42c-11.53,6.29-23.23,12.23-34.48,17.08-2.84,1.17-5.58,2.41-8.33,3.46l-8.18,2.75c-5.27,1.94-10.45,2.87-15.28,4l-2.79.65c-.28.74-.52,1.49-.75,2.23,1.29-.34,2.6-.66,4-1,4.75-1.16,10.09-2.18,15.39-4.2l8.23-2.87c2.76-1.09,5.52-2.37,8.36-3.58,11.28-5,22.93-11.1,34.4-17.51,5.77-3.16,11.49-6.38,17.09-9.61s11.07-6.48,16.3-9.73,10.17-6.55,14.81-9.75l13.1-9c5.87-4.1,11.14-7.54,15.58-10.14Z"/><path class="b91c7def-e41e-4e4b-b724-319982889e1a" d="M286.73,212.47c9.23-24.38,43.4-41.37,65.24-51.22,14.84-6.6,30.94-12.93,47-15.57,15.63-3,30.35.65,45-.19-13.76,8.93-24.41,24.06-37.18,34.52-13.14,10.9-27.62,20.74-43.63,27.87-24.1,11.75-52.69,23.59-75.27,4.05"/><path class="b44cb294-9ad5-4c16-ad72-22655501479c" d="M442.37,146.65c-4.85,2.16-10.73,5.18-17.34,8.84l-14,7.64c-5,2.71-10.16,5.64-15.78,8.2s-11.28,5.45-17.25,8-12,5.27-18,7.83c-12.11,5.22-24.35,10.08-36,13.9-2.94.91-5.8,1.89-8.64,2.69l-8.42,2c-5.44,1.46-10.69,1.92-15.62,2.6-1,.12-1.91.25-2.84.39-.35.71-.66,1.43-1,2.15,1.32-.22,2.66-.42,4.06-.61,4.85-.73,10.26-1.27,15.74-2.8l8.49-2.12c2.86-.84,5.73-1.86,8.68-2.81,11.73-4,24-9,36-14.34,6.06-2.63,12.08-5.32,18-8s11.67-5.45,17.2-8.21,10.77-5.61,15.71-8.38l13.94-7.8c6.24-3.54,11.83-6.49,16.51-8.68Z"/><path class="b4e57052-54d7-4cd0-9a6a-4e19036c0118" d="M199.86,237c23.71-10.54,38.53-45.66,47-68.06,5.66-15.2,11-31.66,12.63-47.9,2-15.81-2.52-30.34-2.57-45-8.05,14.25-22.46,25.72-32.09,39.07-10.06,13.74-19,28.77-25.09,45.18-10.21,24.75-20.25,54,.59,75.56"/><path class="b44cb294-9ad5-4c16-ad72-22655501479c" d="M255.85,77.68c-1.86,5-4.5,11-7.74,17.83-2.09,4.47-4.35,9.32-6.75,14.44s-5,10.47-7.2,16.23-4.73,11.59-6.9,17.7-4.52,12.26-6.69,18.47c-4.46,12.41-8.55,24.91-11.63,36.82-.73,3-1.53,5.91-2.16,8.8l-1.47,8.54c-1.13,5.52-1.27,10.8-1.63,15.77-.07,1-.14,1.92-.22,2.87-.69.39-1.39.73-2.08,1.08.14-1.33.25-2.68.36-4.09.42-4.9.63-10.35,1.82-15.92q.78-4.2,1.59-8.6c.66-2.91,1.5-5.84,2.26-8.84,3.24-12,7.49-24.46,12.07-36.81,2.25-6.2,4.56-12.37,6.9-18.41s4.71-12,7.12-17.66c2.26-5.74,4.93-11.08,7.38-16.17l6.91-14.38c3.15-6.44,5.74-12.19,7.64-17Z"/><path class="b44cb294-9ad5-4c16-ad72-22655501479c" d="M683,270.27c-18.86,27.12-46,47.79-61.28,77.5C614.05,362.7,611,380,606,395.9c-5.22,16.44-12.37,31.58-22.59,45.51a.89.89,0,0,0,1.44,1.06,151.86,151.86,0,0,0,20.88-40.11c5.57-15.83,8.7-32.58,15-48.13,13.32-32.73,44-54.47,63.73-82.9.66-.95-.78-2-1.44-1.06Z"/><path class="ad91cd6b-4081-4604-b754-9bcbcb2e3abf" d="M630.49,352.21c1.84-2.35,3.92-3.16,4.89-6.16.44-1.28,1-3.49,2.15-1.26.79,1.45-.34,3.33.84,4.57s4.42,1.38,6,2.2A23.72,23.72,0,0,1,649.2,355c1.73,2,2,6.39-1.53,6.29-3.72-.14-7.75-3.22-11.29-4.46a6.29,6.29,0,0,0-2.21-.51c-.64,0-1.46.65-2,.24s-.19-1.75-.5-2.34c-.33-.74-1.34-.86-1.27-1.8"/><path class="b44cb294-9ad5-4c16-ad72-22655501479c" d="M617.33,362.37a10.81,10.81,0,0,1,5.35-2.11c.58-.05.44-.93-.13-.89a11.79,11.79,0,0,0-5.78,2.3c-.48.32.08,1,.56.7Z"/><path class="f0687b29-fa03-48a4-8abf-fe6594105399" d="M621.54,360.2a14.81,14.81,0,0,1,3.65-6.32,15.18,15.18,0,0,1,3.22-2.7c.39-.2,1.5-.87,1.88-.72.84.37.21,1.39.74,2,1,1.27,1.49,0,1.65,1.95.1.7-.21,1,.12,1.7.14.47.86,1,1,1.56.31,3.43-5.64,3.14-7.61,3.3-1.61.17-3.37.24-4.7-1"/><path class="b44cb294-9ad5-4c16-ad72-22655501479c" d="M633.68,330.84a10.83,10.83,0,0,1,5.35-2.12c.58,0,.44-.93-.13-.89a11.82,11.82,0,0,0-5.78,2.3c-.48.33.08,1,.56.71Z"/><path class="f0687b29-fa03-48a4-8abf-fe6594105399" d="M639.17,328.18a14.68,14.68,0,0,1,3.65-6.33,15.42,15.42,0,0,1,3.21-2.7c.4-.2,1.5-.87,1.88-.72.84.37.22,1.4.74,2,1.05,1.27,1.49,0,1.65,1.95.11.7-.2,1,.12,1.7.15.47.86,1,1,1.56.32,3.44-5.64,3.14-7.6,3.3-1.61.18-3.38.24-4.71-1"/><path class="ad91cd6b-4081-4604-b754-9bcbcb2e3abf" d="M648.64,319.46c1.84-2.35,3.93-3.16,4.89-6.16.44-1.28,1-3.49,2.15-1.26.79,1.45-.34,3.33.85,4.57s4.41,1.38,6,2.2a23.76,23.76,0,0,1,4.79,3.4c1.73,2,2,6.38-1.53,6.28-3.72-.14-7.75-3.22-11.28-4.46a6.58,6.58,0,0,0-2.22-.51c-.63,0-1.46.65-2,.24s-.2-1.75-.51-2.34-1.34-.87-1.27-1.8"/><path class="ad91cd6b-4081-4604-b754-9bcbcb2e3abf" d="M669.34,297.58c1.82-1.37,3.52-1.56,4.82-3.59.58-.86,1.39-2.39,1.84-.5.3,1.22-.91,2.39-.27,3.54s3,1.89,4,2.82a17.55,17.55,0,0,1,2.87,3.45c.89,1.83.21,5.11-2.36,4.34s-5.1-3.91-7.47-5.52a5,5,0,0,0-1.53-.81c-.48-.11-1.21.19-1.55-.22s.2-1.34.09-1.83-.82-.9-.58-1.58"/><path class="b44cb294-9ad5-4c16-ad72-22655501479c" d="M657.45,302.83a8.19,8.19,0,0,1,4.32-.5c.57.11.66-.78.1-.89a9.08,9.08,0,0,0-4.78.57c-.55.19-.19,1,.36.82Z"/><path class="f0687b29-fa03-48a4-8abf-fe6594105399" d="M661.07,302a12.76,12.76,0,0,1,6.85-5.32c.34-.07,1.29-.34,1.54-.16.54.44-.12,1.07.14,1.65.53,1.13,1.11.27.84,1.76-.06.54-.34.67-.25,1.27,0,.38.44.92.4,1.34-.45,2.61-4.78,1.22-6.27.95A4.36,4.36,0,0,1,661,301.8"/><path class="ad91cd6b-4081-4604-b754-9bcbcb2e3abf" d="M662.09,284.22c.76-2.16.44-3.84,2-5.69.64-.81,1.86-2-.07-1.9-1.26.07-2,1.58-3.3,1.32s-2.7-2.28-3.89-3a17.71,17.71,0,0,0-4.16-1.71c-2-.29-4.93,1.34-3.43,3.56s5.25,3.69,7.5,5.47a5.06,5.06,0,0,1,1.24,1.21c.24.43.18,1.22.68,1.42s1.21-.59,1.71-.64,1.11.51,1.69.09"/><path class="b44cb294-9ad5-4c16-ad72-22655501479c" d="M662,297.08a9.15,9.15,0,0,0-.89-4.72c-.27-.5-1.1-.15-.83.36a8.17,8.17,0,0,1,.83,4.27c0,.57.87.67.89.09Z"/><path class="f0687b29-fa03-48a4-8abf-fe6594105399" d="M660.83,293.24a11.22,11.22,0,0,0,2.59-4.95,11.74,11.74,0,0,0,.43-3.18c0-.34-.06-1.33-.31-1.51-.58-.39-1,.44-1.61.35-1.25-.16-.6-1-1.94-.27-.49.22-.53.53-1.14.63-.36.09-1-.15-1.4,0-2.35,1.2.28,4.93,1,6.26a4.36,4.36,0,0,0,2.57,2.64"/><path class="ad91cd6b-4081-4604-b754-9bcbcb2e3abf" d="M651.81,294.2c.75-2.15.43-3.83,2-5.68.64-.81,1.86-2-.07-1.91-1.26.09-2,1.58-3.3,1.33s-2.7-2.28-3.89-3a17.53,17.53,0,0,0-4.16-1.71c-2-.3-4.93,1.34-3.43,3.56s5.26,3.69,7.5,5.47a4.72,4.72,0,0,1,1.24,1.21c.25.43.18,1.22.68,1.41s1.21-.59,1.72-.63,1.1.51,1.68.08"/><path class="b44cb294-9ad5-4c16-ad72-22655501479c" d="M652,307.25a9.07,9.07,0,0,0-.89-4.73c-.27-.5-1.09-.15-.82.36a8.08,8.08,0,0,1,.82,4.28c0,.57.88.67.89.09Z"/><path class="f0687b29-fa03-48a4-8abf-fe6594105399" d="M650.89,303.21a11.31,11.31,0,0,0,2.58-4.95,11.54,11.54,0,0,0,.43-3.19c0-.33,0-1.32-.31-1.51-.58-.39-1,.44-1.6.36-1.25-.17-.61-1-1.94-.28-.5.22-.54.54-1.15.62-.36.11-1-.14-1.39,0-2.35,1.21.27,4.93,1,6.26a4.34,4.34,0,0,0,2.56,2.64"/><path class="ad91cd6b-4081-4604-b754-9bcbcb2e3abf" d="M631.4,319c.88-2.48.5-4.42,2.28-6.55.74-.93,2.15-2.36-.08-2.2-1.45.09-2.32,1.83-3.8,1.53s-3.12-2.63-4.49-3.46a21,21,0,0,0-4.79-2c-2.32-.34-5.7,1.55-4,4.11s6.06,4.25,8.65,6.3a5.57,5.57,0,0,1,1.43,1.4c.28.49.2,1.41.77,1.63s1.4-.68,2-.73,1.27.59,1.94.1"/><path class="b44cb294-9ad5-4c16-ad72-22655501479c" d="M631,334a10.33,10.33,0,0,0-1-5.42c-.27-.5-1.09-.15-.82.36a9.43,9.43,0,0,1,1,5c0,.57.88.67.89.1Z"/><path class="f0687b29-fa03-48a4-8abf-fe6594105399" d="M629.68,329.27a13.06,13.06,0,0,0,3-5.71,13.67,13.67,0,0,0,.49-3.67c0-.38-.06-1.53-.36-1.74-.67-.45-1.14.5-1.85.41-1.44-.18-.69-1.12-2.24-.31-.57.25-.61.61-1.31.71-.42.12-1.16-.17-1.61,0-2.72,1.39.32,5.68,1.13,7.23.63,1.28,1.42,2.63,3,3"/><path class="ad91cd6b-4081-4604-b754-9bcbcb2e3abf" d="M641.57,305.58c.87-2.48.5-4.41,2.27-6.55.75-.93,2.16-2.36-.08-2.19-1.44.09-2.31,1.82-3.8,1.52s-3.11-2.63-4.49-3.45a20.23,20.23,0,0,0-4.79-2c-2.31-.34-5.69,1.55-4,4.11s6.06,4.25,8.65,6.3a5.61,5.61,0,0,1,1.43,1.41c.29.49.21,1.4.78,1.62s1.4-.68,2-.73,1.28.59,1.94.09"/><path class="b44cb294-9ad5-4c16-ad72-22655501479c" d="M641.24,320.8a10.42,10.42,0,0,0-1-5.42c-.27-.5-1.09-.15-.82.36a9.45,9.45,0,0,1,1,5c0,.57.88.67.89.09Z"/><path class="f0687b29-fa03-48a4-8abf-fe6594105399" d="M640.05,316.08a13.06,13.06,0,0,0,3-5.71,13.78,13.78,0,0,0,.49-3.67c0-.39-.06-1.53-.35-1.74-.68-.45-1.15.5-1.86.41-1.44-.19-.69-1.12-2.23-.31-.57.25-.62.61-1.32.71-.42.12-1.16-.17-1.61,0-2.71,1.39.32,5.68,1.13,7.22.63,1.29,1.42,2.64,3,3.05"/><path class="ad91cd6b-4081-4604-b754-9bcbcb2e3abf" d="M620.12,341.65c.87-2.48.5-4.42,2.27-6.55.75-.94,2.15-2.36-.08-2.2-1.45.09-2.31,1.83-3.8,1.53S615.4,331.8,614,331a20.4,20.4,0,0,0-4.79-2c-2.32-.34-5.69,1.55-4,4.11s6.06,4.25,8.65,6.3a5.41,5.41,0,0,1,1.43,1.4c.28.49.21,1.41.78,1.63s1.4-.68,2-.73,1.28.59,1.94.09"/><path class="b44cb294-9ad5-4c16-ad72-22655501479c" d="M619.15,356.47a10.42,10.42,0,0,0-1-5.42c-.27-.5-1.09-.15-.82.36a9.42,9.42,0,0,1,1,5c0,.57.88.67.89.1Z"/><path class="f0687b29-fa03-48a4-8abf-fe6594105399" d="M618.26,352.12a13.12,13.12,0,0,0,3-5.71,13.72,13.72,0,0,0,.49-3.67c0-.39-.06-1.53-.35-1.74-.67-.45-1.14.5-1.86.41-1.43-.19-.69-1.12-2.23-.31-.57.25-.62.6-1.32.71-.42.12-1.16-.17-1.61,0-2.71,1.39.32,5.68,1.13,7.22.63,1.29,1.42,2.63,3,3"/><path class="ad91cd6b-4081-4604-b754-9bcbcb2e3abf" d="M684.81,277.64c1.71-2.08,6.94-4.16,9-1.38,3.79,5.18-6.11,3.29-8.13,3.28"/><path class="f0687b29-fa03-48a4-8abf-fe6594105399" d="M678.54,278.11c1.69-1.55,9.77-2.47,7.39,1.53-1.47,2.25-5.15-1.56-7-1.6"/><path class="ad91cd6b-4081-4604-b754-9bcbcb2e3abf" d="M685.93,267c-.75-2.58.5-8.07,4-8.17,6.41-.18-.76,6.9-1.92,8.57"/><path class="f0687b29-fa03-48a4-8abf-fe6594105399" d="M682.76,272.37c-.32-2.26,3.51-9.43,5.45-5.21,1,2.48-4.2,3.36-5.27,4.83"/><path class="ad91cd6b-4081-4604-b754-9bcbcb2e3abf" d="M673,269.17c-2.18-1.57-4.61-6.65-2-8.86,4.92-4.12,3.69,5.88,3.82,7.9"/><path class="f0687b29-fa03-48a4-8abf-fe6594105399" d="M673.86,275.39c-1.65-1.58-3.11-9.58,1-7.48,2.35,1.32-1.21,5.24-1.13,7.06"/><path class="b44cb294-9ad5-4c16-ad72-22655501479c" d="M672.94,273.41c-.17,2.75,2.5,4.16,2.8,6.73.06.57,1,.44.88-.13-.28-2.47-2.94-4-2.79-6.51,0-.57-.86-.67-.89-.09Z"/><path class="b44cb294-9ad5-4c16-ad72-22655501479c" d="M582,451.58c2.51-7.35,7.6-12.66,15.82-12a.9.9,0,0,0,.13-1.79c-9-.72-14.87,5.08-17.64,13.19a.9.9,0,0,0,1.69.59Z"/><path class="b44cb294-9ad5-4c16-ad72-22655501479c" d="M588.61,440.92c3.86-2.19,7.77-4.29,11.42-6.82,1-.66-.23-2-1.17-1.35-3.52,2.44-7.32,4.45-11,6.56-1,.57-.22,2.18.79,1.61Z"/><path class="f0687b29-fa03-48a4-8abf-fe6594105399" d="M599.1,433.72c1.5-13.05,21.59-17.93,31.81-18.71,21.64-1.49,46.07,12.78,66.84,2.26-7.12,7.88-11.1,17.77-20.15,23.13-10,5.88-24.91,5.44-36.22,4.65a104.4,104.4,0,0,1-25.11-4.45c-5.54-2.17-11-5.85-16.9-6.56"/><path class="b44cb294-9ad5-4c16-ad72-22655501479c" d="M695.35,420.14c.55-.7,1.12-1.4,1.72-2.08a.88.88,0,0,0-.48-.24,34.43,34.43,0,0,1-4,1.54c-16.39,6.6-32.42,6.91-50.13,5.74-8.23-.55-16.59-1.42-24.82-.66-7.63.71-12.26,4.32-18.32,8-.09.42-.16.85-.21,1.28l.27.32.54.08c2.72-1.74,5.22-3.79,8.07-5.33,4.69-2.53,11-2.86,16.19-2.89,9-.07,18.21,1,27.22,1.6A92.43,92.43,0,0,0,695.35,420.14Z"/><path class="b4e57052-54d7-4cd0-9a6a-4e19036c0118" d="M597.6,438.13c-6.85,12.48-.35,27.89,10,36,6.83,5.06,14.31,9.36,18.56,17,2.47,4.56,3.88,10,5.95,14.77,2.82-12,.86-26.66-1.49-38.79-2.3-12.72-6.94-26.2-20.66-29.75-3.92-.87-8.67-1.4-12.4.53"/><path class="b44cb294-9ad5-4c16-ad72-22655501479c" d="M615.53,464.12c5.59,13.08,13.77,25,15.61,39.31.31.81.63,1.61,1,2.39h.08c.25-1.09.46-2.2.64-3.33-2.16-15.46-11.35-28.71-17.28-42.92-2.81-6.72-8.39-21-17.27-21.91-.22.1-.44.17-.66.28v.2c-.23.41-.44.82-.63,1.25h0c4.83-.11,8.56,5.6,11,9.11C611.46,453.26,613.24,458.78,615.53,464.12Z"/><path class="b44cb294-9ad5-4c16-ad72-22655501479c" d="M582.07,451c1.83-17.49-18.09-37.32-35.45-36.47-1.13.06-1.27,1.85-.12,1.79,16.39-.8,35.51,18,33.79,34.56-.13,1.15,1.66,1.27,1.78.12Z"/><path class="f0687b29-fa03-48a4-8abf-fe6594105399" d="M548.45,414.16c-3,8.47-6.91,17.46-13.06,24.22-7.75,8.13-16.72,8.1-26.94,8.88-9.33.85-17.41.88-26.18-2.12-9.63-3.36-18.42-10.25-28.12-12.73,10.16.11,20.16,2.61,30.52-.26,11.61-3.38,21.59-9.27,31.89-15.43,7.79-4.54,27-13.37,31.84-2"/><path class="b44cb294-9ad5-4c16-ad72-22655501479c" d="M548.44,414.26h0c0,.1-.07.2-.11.29s.07.13.1.21Z"/><path class="b44cb294-9ad5-4c16-ad72-22655501479c" d="M548.3,414.55c0-.09-.09-.17-.13-.26-6.48.6-12.28,3.34-17.74,6.8-6.39,4.05-11,10-17.81,13.5-16.92,8.6-38.05,1.76-55.4-2.07-.59,0-1.19-.06-1.78-.07a1,1,0,0,0-.25.25,50.1,50.1,0,0,1,7.24,2.81c14.71,3.35,29.68,6.75,44.63,3,6.86-1.7,12.32-5.65,17.32-10.47,6.22-6,14.66-10.89,23.35-11.93Z"/><path class="b44cb294-9ad5-4c16-ad72-22655501479c" d="M582.76,448c5.35-7.09,8.18-17.46,6.7-26.25-.19-1.14-1.94-.78-1.75.35,1.39,8.32-1.38,18.19-6.43,24.88-.7.93.78,1.93,1.48,1Z"/><path class="f0687b29-fa03-48a4-8abf-fe6594105399" d="M587.06,421.71c-2.16-7.64-4.65-14.69-3.8-22.71,1-10.69,6-21.11,9.65-31,5.84-15.15,13.38-29,19.78-43.49,3.85-8.11,3.54-16.51,6.19-24.4.23,13.78,2.87,27.42,1.89,41.41l-2.24,32.15c-1.2,17.26-8.89,46-30.32,48.73"/><path class="b44cb294-9ad5-4c16-ad72-22655501479c" d="M618.88,300.09a54.74,54.74,0,0,0-1.91,8c-.77,5.63-1.57,11.21-1.86,17-.61,12.14-4.62,23.27-8,34.81-3.29,11.11-8.14,21.27-13.26,31.62-4.34,8.77-7.77,17.57-7.61,27.26.29,1,.58,2,.86,3l1.12.66a.86.86,0,0,0,0-.23c-1.48-13,4.33-24.4,10.15-35.62A161.4,161.4,0,0,0,610,356.27c3-10.5,6.25-20.11,6.92-31.11.39-6.61,1.36-13,2.19-19.43C619,303.85,618.91,302,618.88,300.09Z"/><path class="b44cb294-9ad5-4c16-ad72-22655501479c" d="M586.93,441.86c5.56-4.67,6.73-13.19,8.2-19.87.24-1.11-1.45-1.72-1.69-.59-1.39,6.31-2.44,14.71-7.69,19.1-.88.75.29,2.1,1.18,1.36Z"/><path class="b4e57052-54d7-4cd0-9a6a-4e19036c0118" d="M593.17,424.73c1.2-8.59-1.43-18.05,1.85-26.49,3.6-8.73,9.56-17,18-21.78,12.74-6.89,29.13-6,40.88-15.7-4.76,16.72-16.36,33-31.06,42.11-11.27,7.29-21.86,8.94-29,21"/><path class="b44cb294-9ad5-4c16-ad72-22655501479c" d="M653.69,360.9c-.69.56-1.4,1.09-2.12,1.58-1.5,2.36-2.68,4.86-4,7.36-2.22,4.13-6,6.63-10,8.82-5.89,3.23-12.31,5.19-17.91,9-5.83,4-10.67,9.27-15.17,14.66-5,5.94-6.91,13.84-11,20.31,0,.51-.09,1-.15,1.53a1.08,1.08,0,0,0,.24.18l.36-.47a31.8,31.8,0,0,1,3.85-5.22c2.61-5.19,4.71-10.62,8.23-15.32a61.32,61.32,0,0,1,19.35-17c5.88-3.16,12.22-5.17,17.79-8.95,5.12-3.47,6.83-8.94,10-13.86q.42-1.26.78-2.52A.43.43,0,0,0,653.69,360.9Z"/><path class="b44cb294-9ad5-4c16-ad72-22655501479c" d="M583.61,445.54c-4.19-16-10-32.14-20.41-45.19-.72-.9-2.07.27-1.35,1.17,10.21,12.81,15.89,28.7,20,44.37.29,1.12,2,.77,1.75-.35Z"/><path class="f0687b29-fa03-48a4-8abf-fe6594105399" d="M564,401.89c-18.19-.67-36.9,1.61-50.21-13.37-6.1-7-8.56-18.85-12.46-27.19-3.89-8.65-9.62-16.53-15.39-23.81,6.72,2.26,11.62,9.18,17.3,13.47a81.87,81.87,0,0,0,10.58,7c6.64,3.45,13,6.59,18.94,11.49,6.26,4.62,11.5,11,17.42,16.17,5.34,4.86,11.94,8.91,13.84,15.92"/><path class="b44cb294-9ad5-4c16-ad72-22655501479c" d="M536.37,387.51c-4.54-1.27-8.59-3.82-12.35-6.59-14-10.32-20.87-27.3-32.24-40.13a23.68,23.68,0,0,0-3.69-2.35.77.77,0,0,0,.05,1.06c11.67,11.9,18.1,28.33,30.64,39.37,6.1,5.37,12.58,9.45,20.57,11.22,9.9,2.18,17,4.13,24.28,11.79H564l0-.3a15,15,0,0,0-1.2-3,36.55,36.55,0,0,0-13.95-8.39C544.8,388.85,540.47,388.65,536.37,387.51Z"/><path class="b44cb294-9ad5-4c16-ad72-22655501479c" d="M568.37,406.79c-.93-5.17-2.06-10.32-4.74-14.9-.58-1-2.19-.21-1.6.79,2.6,4.45,3.68,9.44,4.58,14.46a.9.9,0,0,0,1.76-.35Z"/><path class="b4e57052-54d7-4cd0-9a6a-4e19036c0118" d="M564.45,395.39c-2.44-3.76-6.75-6.16-9.84-9.06-4-3.27-5.75-7.59-8.46-11.66-4.86-7.52-9.17-14.4-17.55-18.57-9.23-4.83-18.16-5.46-25.32-14.33-6.9-8.26-11.43-20.54-11.28-31.3.06-13.75,2.78-27,4.31-40.37,1.37,14.74,2.58,31.58,12.81,43.66,9.69,11.14,23.33,17.18,35.35,24.9,9.73,6.36,16.48,12.51,19,24,1.59,7.29,1.05,15,.83,22.49-.23,3.28-1.07,6.81-.09,9.87"/><path class="b44cb294-9ad5-4c16-ad72-22655501479c" d="M564.19,395l0-.06,0,.08Z"/><path class="b44cb294-9ad5-4c16-ad72-22655501479c" d="M564.15,395a9.86,9.86,0,0,1-.42-2.66c-2.19-5.28-4.87-10.18-6.22-15.83-1.18-5-1.86-9.86-4.8-14.16-3.15-4.59-8.51-7.74-12.2-11.88a75.8,75.8,0,0,0-13-11.29c-6-4.23-12.08-8.42-18-12.85-7-5.24-13-9.69-13.6-19-.32-5.21.81-10.44.83-15.66,0-5.63-.41-11.24-.11-16.87a.84.84,0,0,0-.79-.91c-.34,2.64-.71,5.29-1.08,7.94.05,3.24.16,6.48.2,9.72.05,5.24-.9,10.41-.84,15.66.14,12.17,10.92,18.12,19.76,24.56,5.78,4.21,11.82,8.07,17.43,12.5,5.16,4.09,9.21,9.27,14.2,13.54,2.89,2.48,5.55,4.79,7.35,8.21,1.68,3.21,2.15,7.31,2.89,10.82,1.19,5.5,3.83,10.35,6,15.44A18.41,18.41,0,0,1,564.15,395Z"/><path class="b44cb294-9ad5-4c16-ad72-22655501479c" d="M536.23,405.75c3.9,1.15,6.93,3.9,10.55,5.62,4.15,2,8.41,3.67,12.58,5.59,5.14,2.35,10.76,4.68,14.76,8.79,3.73,3.85,5,9.74,6.32,14.76.28,1.11,2,.77,1.75-.35-2.41-9.58-5.57-16.23-14.48-21.08a161.65,161.65,0,0,0-15.26-7.15c-5.37-2.24-10.07-6.23-15.62-7.87-1.11-.32-1.71,1.36-.6,1.69Z"/><path class="b44cb294-9ad5-4c16-ad72-22655501479c" d="M581.6,446.7a46.64,46.64,0,0,0-1.53,18.47c.87,8.32,5.25,15.38,3.92,24-.17,1.14,1.61,1.25,1.79.12,1-6.74-1-12.9-2.84-19.32a40.72,40.72,0,0,1,.35-22.69c.33-1.1-1.36-1.7-1.69-.59Z"/><path class="b4e57052-54d7-4cd0-9a6a-4e19036c0118" d="M444.1,361.17c-12.33,8.12,23.08,29.33,27.49,31.83,6.54,3.45,12,8.61,18.28,12.44,6.14,3.42,17.81,4.83,24.88,3.53,9.72-2.11,17.34-5.57,27.26-2.08-5.47-4.38-8.79-5.41-15.92-6.1-8.13-.77-16.86-1.38-22.17-8.13C496.05,382.54,487,375.53,476.53,368c-8-5.75-16.91-6.37-26.44-7-2-.14-3.75-.46-5.59.21"/><path class="b44cb294-9ad5-4c16-ad72-22655501479c" d="M535.2,405.47a25.11,25.11,0,0,1,6.06,1.18,1.45,1.45,0,0,0,0-.36c-.53-.41-1-.78-1.53-1.12-7.4-3.22-15.67-3.11-23.62-3.5-10.83-.51-20.77-2.13-29.51-9-6.4-5-11.87-11.56-19.26-15.22-8.41-4.17-18.08-6.81-23.69-14.88a.72.72,0,0,0-.88-.3,5.39,5.39,0,0,0-.63.86.88.88,0,0,0,.16.61c4.46,6.42,11.44,9.55,18.39,12.6,9.22,4,15.92,10.15,23.47,16.63,7,6,14.67,8.71,23.69,9.85S526.44,403,535.2,405.47Z"/><path class="b44cb294-9ad5-4c16-ad72-22655501479c" d="M574.21,246.21c-1.46,33-13.39,65-10.43,98.25,1.49,16.72,8.14,33,12.37,49.11,4.36,16.69,6.4,33.31,5.2,50.55a.9.9,0,0,0,1.79.12,151.78,151.78,0,0,0-3.77-45.05c-3.74-16.37-10-32.2-13-48.73-6.22-34.78,8.09-69.54,9.62-104.12a.9.9,0,0,0-1.79-.13Z"/><path class="ad91cd6b-4081-4604-b754-9bcbcb2e3abf" d="M573.57,343.53c.3-3,1.63-4.77.84-7.82-.31-1.31-1-3.46,1.15-2.21,1.44.8,1.49,3,3.15,3.41s4.47-1.18,6.28-1.35a22.56,22.56,0,0,1,5.86.31c2.54.77,5.08,4.34,2.07,6.12-3.22,1.87-8.28,1.42-11.93,2.26a6.54,6.54,0,0,0-2.14.75c-.53.36-.89,1.33-1.59,1.28s-1.1-1.37-1.67-1.71-1.6,0-2-.84"/><path class="b44cb294-9ad5-4c16-ad72-22655501479c" d="M567.87,359.15a11,11,0,0,1,3.39-4.65c.47-.34-.12-1-.58-.67a11.79,11.79,0,0,0-3.66,5c-.23.52.62.81.85.29Z"/><path class="f0687b29-fa03-48a4-8abf-fe6594105399" d="M570.27,355.07a14.84,14.84,0,0,1-.29-7.3,15.26,15.26,0,0,1,1.28-4c.22-.38.8-1.54,1.21-1.61.9-.14.92,1.06,1.7,1.32,1.56.5,1.25-.82,2.44.76.46.54.34.92,1,1.37.38.33,1.27.39,1.64.81,2.1,2.74-3.09,5.67-4.67,6.86-1.26,1-2.73,2-4.5,1.68"/><path class="b44cb294-9ad5-4c16-ad72-22655501479c" d="M564.85,323.76a10.81,10.81,0,0,1,3.4-4.65c.46-.35-.13-1-.59-.68a11.69,11.69,0,0,0-3.65,5c-.24.52.61.82.84.3Z"/><path class="f0687b29-fa03-48a4-8abf-fe6594105399" d="M568.07,318.58a14.84,14.84,0,0,1-.29-7.3,15.26,15.26,0,0,1,1.28-4c.22-.38.8-1.54,1.2-1.61.91-.14.93,1.06,1.71,1.31,1.56.51,1.25-.81,2.44.77.46.53.33.92,1,1.37.38.33,1.27.39,1.64.81,2.1,2.74-3.09,5.67-4.67,6.85-1.27,1-2.73,2-4.5,1.68"/><path class="ad91cd6b-4081-4604-b754-9bcbcb2e3abf" d="M571.43,306.15c.31-3,1.63-4.77.84-7.82-.3-1.32-1-3.46,1.15-2.21,1.45.8,1.49,3,3.15,3.41s4.48-1.19,6.28-1.36a23.45,23.45,0,0,1,5.86.31c2.54.78,5.09,4.34,2.07,6.13-3.22,1.87-8.28,1.41-11.92,2.26a6.08,6.08,0,0,0-2.15.75c-.52.36-.89,1.33-1.58,1.28s-1.11-1.37-1.68-1.71-1.6,0-2-.84"/><path class="ad91cd6b-4081-4604-b754-9bcbcb2e3abf" d="M577.24,276.6c.82-2.13,2.15-3.2,2.17-5.61,0-1-.1-2.77,1.28-1.41.91.87.51,2.51,1.66,3.14s3.54,0,4.91.23a17.78,17.78,0,0,1,4.27,1.39c1.73,1.07,2.9,4.21.32,4.93-2.75.75-6.4-.58-9.26-.68a5,5,0,0,0-1.73.13c-.46.17-.92.82-1.43.64s-.54-1.23-.9-1.59-1.17-.32-1.33-1"/><path class="b44cb294-9ad5-4c16-ad72-22655501479c" d="M570,287.38a8.19,8.19,0,0,1,3.38-2.73c.54-.21.14-1-.39-.8a9.11,9.11,0,0,0-3.73,3c-.37.45.37.95.74.5Z"/><path class="f0687b29-fa03-48a4-8abf-fe6594105399" d="M572.6,284.72a11.16,11.16,0,0,1,1.22-5.45,11.4,11.4,0,0,1,1.73-2.71c.24-.24.9-1,1.21-.95.7.08.47,1,1,1.3,1,.69,1.08-.35,1.65,1,.24.48.07.75.47,1.21.22.31.86.54,1,.92,1,2.44-3.39,3.59-4.8,4.15a4.33,4.33,0,0,1-3.65.36"/><path class="ad91cd6b-4081-4604-b754-9bcbcb2e3abf" d="M564,269.17c-.51-2.23-1.67-3.48-1.36-5.86.11-1,.48-2.73-1.08-1.58-1,.74-.85,2.41-2.08,2.88s-3.5-.48-4.89-.45a17.82,17.82,0,0,0-4.42.78c-1.86.82-3.46,3.76-1,4.84,2.62,1.12,6.42.31,9.27.62a4.94,4.94,0,0,1,1.7.36c.43.23.8.94,1.32.84s.71-1.15,1.11-1.46,1.21-.15,1.47-.83"/><path class="b44cb294-9ad5-4c16-ad72-22655501479c" d="M570.74,280.12a9,9,0,0,0-3.27-3.52c-.5-.28-1,.46-.51.74a8.14,8.14,0,0,1,3,3.18c.29.49,1.1.1.8-.4Z"/><path class="f0687b29-fa03-48a4-8abf-fe6594105399" d="M567.74,277.48a11.37,11.37,0,0,0-.46-5.58,11.71,11.71,0,0,0-1.34-2.91c-.2-.27-.75-1.1-1.06-1.11-.7,0-.61.89-1.17,1.15-1.14.53-1-.5-1.79.81-.3.45-.17.73-.63,1.13-.26.28-.93.41-1.17.77-1.34,2.27,2.87,4,4.18,4.77a4.35,4.35,0,0,0,3.57.87"/><path class="ad91cd6b-4081-4604-b754-9bcbcb2e3abf" d="M560.62,283.1c-.51-2.22-1.68-3.47-1.37-5.85.11-1,.48-2.73-1.08-1.58-1,.74-.85,2.41-2.08,2.88s-3.5-.49-4.89-.45a17.9,17.9,0,0,0-4.42.78c-1.85.82-3.46,3.76-1,4.84,2.62,1.12,6.41.31,9.26.62a4.9,4.9,0,0,1,1.7.36c.43.23.8.93,1.32.84s.71-1.15,1.12-1.46,1.21-.16,1.46-.82"/><path class="b44cb294-9ad5-4c16-ad72-22655501479c" d="M567.78,294a9.18,9.18,0,0,0-3.28-3.52c-.5-.28-1,.45-.5.74a8.21,8.21,0,0,1,3,3.18c.29.49,1.1.1.8-.4Z"/><path class="f0687b29-fa03-48a4-8abf-fe6594105399" d="M564.65,291.21a11.34,11.34,0,0,0-.46-5.57,11.61,11.61,0,0,0-1.34-2.92c-.2-.27-.75-1.09-1.06-1.11-.7,0-.6.89-1.17,1.16-1.14.52-1-.5-1.79.8-.3.45-.16.73-.63,1.13-.25.29-.93.42-1.17.77-1.34,2.28,2.87,4,4.17,4.78a4.43,4.43,0,0,0,3.58.86"/><path class="ad91cd6b-4081-4604-b754-9bcbcb2e3abf" d="M556.6,315c-.59-2.57-1.94-4-1.57-6.76.13-1.19.55-3.14-1.25-1.81-1.17.85-1,2.78-2.39,3.32s-4-.56-5.65-.52a20.51,20.51,0,0,0-5.1.89c-2.13.95-4,4.35-1.15,5.59,3,1.29,7.4.36,10.68.71a5.76,5.76,0,0,1,2,.42c.49.27.92,1.08,1.52,1s.82-1.32,1.29-1.68,1.39-.17,1.69-.95"/><path class="b44cb294-9ad5-4c16-ad72-22655501479c" d="M564.24,327.87a10.39,10.39,0,0,0-3.75-4c-.5-.29-1,.45-.51.74a9.33,9.33,0,0,1,3.45,3.68c.3.49,1.11.1.81-.39Z"/><path class="f0687b29-fa03-48a4-8abf-fe6594105399" d="M560.64,324.57a14.74,14.74,0,0,0-2.07-9.79c-.24-.31-.87-1.26-1.23-1.28-.81,0-.69,1-1.35,1.33-1.31.61-1.18-.57-2.06.94-.34.51-.19.84-.73,1.3-.29.32-1.07.48-1.35.89-1.55,2.62,3.31,4.63,4.82,5.5,1.22.75,2.61,1.47,4.12,1"/><path class="ad91cd6b-4081-4604-b754-9bcbcb2e3abf" d="M558,298.19c-.58-2.56-1.93-4-1.57-6.75.13-1.19.56-3.15-1.24-1.82-1.18.86-1,2.79-2.4,3.33s-4-.57-5.64-.53a21.07,21.07,0,0,0-5.11.9c-2.13.95-4,4.34-1.15,5.58,3,1.29,7.4.36,10.68.71a5.56,5.56,0,0,1,2,.43c.5.26.92,1.07,1.52,1s.82-1.32,1.29-1.68,1.4-.18,1.69-1"/><path class="b44cb294-9ad5-4c16-ad72-22655501479c" d="M565.89,311.23a10.49,10.49,0,0,0-3.76-4c-.5-.28-1,.45-.5.74a9.43,9.43,0,0,1,3.45,3.69c.3.49,1.1.1.81-.4Z"/><path class="f0687b29-fa03-48a4-8abf-fe6594105399" d="M562.36,307.88a13.1,13.1,0,0,0-.52-6.42,13.59,13.59,0,0,0-1.54-3.37c-.24-.31-.87-1.26-1.24-1.28-.8,0-.69,1-1.34,1.33-1.32.61-1.19-.57-2.06.94-.35.51-.19.84-.73,1.3-.29.32-1.07.47-1.35.88-1.55,2.63,3.31,4.64,4.81,5.51,1.22.75,2.61,1.46,4.13,1"/><path class="ad91cd6b-4081-4604-b754-9bcbcb2e3abf" d="M559.16,340.14c-.58-2.56-1.94-4-1.57-6.75.13-1.19.55-3.15-1.25-1.82-1.17.85-1,2.78-2.39,3.32s-4-.55-5.64-.52a20.15,20.15,0,0,0-5.11.9c-2.13,1-4,4.34-1.15,5.58,3,1.3,7.4.36,10.68.71a5.78,5.78,0,0,1,2,.43c.5.26.93,1.07,1.52,1s.83-1.32,1.29-1.68,1.4-.18,1.69-.95"/><path class="b44cb294-9ad5-4c16-ad72-22655501479c" d="M566.26,353.18a10.49,10.49,0,0,0-3.76-4c-.5-.28-1,.46-.5.74a9.43,9.43,0,0,1,3.45,3.69c.3.49,1.1.1.81-.4Z"/><path class="f0687b29-fa03-48a4-8abf-fe6594105399" d="M563.18,350a13,13,0,0,0-.52-6.43,13.75,13.75,0,0,0-1.54-3.37c-.24-.3-.87-1.26-1.23-1.28-.81,0-.7,1-1.35,1.34-1.32.61-1.19-.58-2.06.93-.35.52-.2.84-.73,1.3-.29.33-1.07.48-1.35.89-1.55,2.62,3.31,4.64,4.82,5.5,1.21.75,2.6,1.47,4.12,1"/><path class="ad91cd6b-4081-4604-b754-9bcbcb2e3abf" d="M579.68,251.48c.33-2.67,3.64-7.23,6.84-5.95,6,2.35-3.41,6-5.13,7.11"/><path class="f0687b29-fa03-48a4-8abf-fe6594105399" d="M574.63,255.22c.6-2.21,6.94-7.3,7.07-2.65,0,2.68-5.19,1.43-6.75,2.37"/><path class="ad91cd6b-4081-4604-b754-9bcbcb2e3abf" d="M574.92,241.84c-2-1.79-3.89-7.1-1-9,5.32-3.58,3,6.24,3,8.26"/><path class="f0687b29-fa03-48a4-8abf-fe6594105399" d="M575.13,248.12c-1.47-1.75-2.07-9.85,1.83-7.32,2.19,1.55-1.76,5.08-1.87,6.9"/><path class="ad91cd6b-4081-4604-b754-9bcbcb2e3abf" d="M565.15,250.63c-2.69-.15-7.45-3.15-6.4-6.43,2-6.11,6.26,3,7.45,4.64"/><path class="f0687b29-fa03-48a4-8abf-fe6594105399" d="M569.21,255.42c-2.23-.45-7.74-6.44-3.11-6.87,2.69-.14,1.77,5.07,2.81,6.57"/><path class="b44cb294-9ad5-4c16-ad72-22655501479c" d="M567.38,254.24c1.33,2.41,4.34,2.18,6,4.19.37.46,1-.13.68-.58-1.56-1.94-4.61-1.79-5.84-4-.27-.5-1.07-.11-.8.4Z"/><path class="b44cb294-9ad5-4c16-ad72-22655501479c" d="M614.24,219.87c-1.74,33,7,66,.87,98.79-3.11,16.51-11.3,32-17.07,47.69-6,16.19-9.61,32.53-10.08,49.81a.9.9,0,0,1-1.79-.05,152,152,0,0,1,8.11-44.49c5.32-15.92,13.12-31.07,17.66-47.24,9.56-34-1.31-70,.51-104.56a.9.9,0,0,1,1.79.05Z"/><path class="ad91cd6b-4081-4604-b754-9bcbcb2e3abf" d="M605.46,316.8c0-3-1.16-4.91-.09-7.87.44-1.28,1.39-3.34-.93-2.31-1.51.66-1.77,2.84-3.47,3.09s-4.33-1.61-6.11-2a23.05,23.05,0,0,0-5.86-.26c-2.6.52-5.48,3.83-2.65,5.89,3,2.18,8.09,2.22,11.64,3.41a6.6,6.6,0,0,1,2.07.95c.49.41.75,1.42,1.45,1.43s1.23-1.26,1.83-1.54,1.59.15,2.11-.63"/><path class="b44cb294-9ad5-4c16-ad72-22655501479c" d="M609.62,332.89a11,11,0,0,0-2.94-5c-.43-.38.23-1,.65-.61a11.8,11.8,0,0,1,3.16,5.36c.18.55-.69.76-.87.21Z"/><path class="f0687b29-fa03-48a4-8abf-fe6594105399" d="M607.62,328.59a14.83,14.83,0,0,0,1-7.23,15.46,15.46,0,0,0-.89-4.1c-.19-.41-.65-1.61-1.05-1.72-.88-.23-1,1-1.82,1.14-1.6.36-1.17-.93-2.5.53-.51.48-.42.88-1.13,1.26-.41.29-1.3.26-1.71.65-2.36,2.52,2.52,5.94,4,7.27,1.17,1.13,2.52,2.26,4.32,2.11"/><path class="b44cb294-9ad5-4c16-ad72-22655501479c" d="M616.05,298a10.93,10.93,0,0,0-2.94-5c-.42-.39.23-1,.65-.62a11.86,11.86,0,0,1,3.16,5.36c.18.55-.69.76-.87.22Z"/><path class="f0687b29-fa03-48a4-8abf-fe6594105399" d="M613.34,292.49a14.75,14.75,0,0,0,1-7.23,15.13,15.13,0,0,0-.88-4.11c-.19-.4-.65-1.61-1.05-1.72-.89-.22-1,1-1.82,1.14-1.61.36-1.17-.92-2.5.53-.51.48-.43.88-1.13,1.27-.41.28-1.3.26-1.71.64-2.36,2.52,2.52,5.94,4,7.27,1.16,1.14,2.52,2.27,4.32,2.11"/><path class="ad91cd6b-4081-4604-b754-9bcbcb2e3abf" d="M611.21,279.79c0-3-1.16-4.9-.09-7.86.44-1.28,1.39-3.34-.93-2.31-1.51.65-1.77,2.83-3.46,3.09s-4.34-1.62-6.12-2a23.05,23.05,0,0,0-5.86-.26c-2.61.52-5.49,3.83-2.65,5.89,3,2.18,8.09,2.22,11.64,3.41a6.5,6.5,0,0,1,2.07.95c.48.42.75,1.41,1.45,1.43s1.23-1.26,1.83-1.54,1.59.14,2.11-.64"/><path class="ad91cd6b-4081-4604-b754-9bcbcb2e3abf" d="M608.28,249.82c-.6-2.2-1.82-3.4-1.61-5.79.07-1,.37-2.75-1.14-1.53-1,.78-.75,2.44-2,3s-3.52-.34-4.91-.25a17.35,17.35,0,0,0-4.38,1c-1.82.9-3.3,3.9-.8,4.87,2.67,1,6.43,0,9.28.23a4.73,4.73,0,0,1,1.72.3c.44.2.83.89,1.35.77s.66-1.18,1-1.5,1.2-.21,1.43-.89"/><path class="b44cb294-9ad5-4c16-ad72-22655501479c" d="M614.45,261.26a8.06,8.06,0,0,0-3.11-3.05c-.51-.26,0-1,.47-.76a9,9,0,0,1,3.43,3.38c.31.48-.47.9-.79.43Z"/><path class="f0687b29-fa03-48a4-8abf-fe6594105399" d="M612.12,258.35a11.21,11.21,0,0,0-.69-5.54,11.61,11.61,0,0,0-1.46-2.87c-.21-.25-.8-1.06-1.11-1.06-.7,0-.56.92-1.12,1.2-1.12.58-1-.45-1.75.89-.28.45-.14.73-.58,1.15-.25.29-.91.45-1.14.82-1.24,2.33,3,3.89,4.38,4.59a4.29,4.29,0,0,0,3.6.71"/><path class="ad91cd6b-4081-4604-b754-9bcbcb2e3abf" d="M622.2,243.7c.72-2.16,2-3.29,1.93-5.69,0-1-.22-2.77,1.22-1.46.95.83.62,2.48,1.79,3.06s3.53-.14,4.91,0a17.39,17.39,0,0,1,4.33,1.2c1.77,1,3.08,4.08.53,4.92-2.71.86-6.42-.32-9.28-.29a5.07,5.07,0,0,0-1.73.2c-.45.19-.88.85-1.39.7s-.6-1.2-1-1.55-1.19-.27-1.38-1"/><path class="b44cb294-9ad5-4c16-ad72-22655501479c" d="M614.41,254a9.07,9.07,0,0,1,3.6-3.19c.53-.24,1,.55.43.78a8.25,8.25,0,0,0-3.27,2.88c-.34.46-1.1,0-.76-.47Z"/><path class="f0687b29-fa03-48a4-8abf-fe6594105399" d="M617.66,251.61a11.36,11.36,0,0,1,1-5.5,11.52,11.52,0,0,1,1.62-2.77c.23-.25.85-1,1.17-1,.69,0,.51.94,1,1.26,1.08.64,1.07-.4,1.7,1,.25.47.09.74.51,1.18.23.31.89.51,1.1.88,1.11,2.4-3.25,3.72-4.62,4.35a4.39,4.39,0,0,1-3.65.51"/><path class="ad91cd6b-4081-4604-b754-9bcbcb2e3abf" d="M624.2,257.9c.72-2.16,2-3.29,1.93-5.69,0-1-.22-2.77,1.22-1.47.94.84.62,2.49,1.79,3.07s3.53-.14,4.91,0a18,18,0,0,1,4.33,1.21c1.77,1,3.08,4.08.53,4.92-2.72.86-6.42-.31-9.28-.29a5.07,5.07,0,0,0-1.73.2c-.45.19-.88.85-1.39.7s-.6-1.21-1-1.55-1.19-.28-1.38-1"/><path class="b44cb294-9ad5-4c16-ad72-22655501479c" d="M616,268.07a9.08,9.08,0,0,1,3.6-3.19c.52-.23,1,.55.43.79a8.1,8.1,0,0,0-3.27,2.87c-.34.46-1.11,0-.76-.47Z"/><path class="f0687b29-fa03-48a4-8abf-fe6594105399" d="M619.4,265.58a11.23,11.23,0,0,1,1-5.5A11.53,11.53,0,0,1,622,257.3c.23-.24.85-1,1.17-1,.7.05.51.95,1.05,1.27,1.08.63,1.08-.4,1.7,1,.25.48.09.75.52,1.19.23.31.88.5,1.09.88,1.12,2.4-3.24,3.72-4.62,4.35a4.37,4.37,0,0,1-3.64.51"/><path class="ad91cd6b-4081-4604-b754-9bcbcb2e3abf" d="M625.11,290c.84-2.5,2.32-3.8,2.22-6.57,0-1.2-.25-3.19,1.42-1.68,1.09,1,.71,2.86,2.06,3.53s4.08-.16,5.67,0a20.54,20.54,0,0,1,5,1.38c2,1.15,3.54,4.72.6,5.68-3.13,1-7.39-.36-10.7-.33a5.63,5.63,0,0,0-2,.23c-.51.21-1,1-1.61.81s-.68-1.4-1.11-1.8-1.37-.31-1.59-1.11"/><path class="b44cb294-9ad5-4c16-ad72-22655501479c" d="M616.26,302.11a10.25,10.25,0,0,1,4.13-3.65c.52-.23,1,.55.42.79a9.44,9.44,0,0,0-3.79,3.33c-.34.46-1.11,0-.76-.47Z"/><path class="f0687b29-fa03-48a4-8abf-fe6594105399" d="M620.16,299.18a13.14,13.14,0,0,1,1.14-6.35,13.57,13.57,0,0,1,1.87-3.2c.26-.28,1-1.17,1.35-1.15.8,0,.59,1.09,1.21,1.45,1.25.74,1.24-.45,2,1.13.29.55.11.86.6,1.37.26.35,1,.58,1.25,1,1.29,2.76-3.73,4.29-5.32,5-1.28.63-2.74,1.21-4.2.59"/><path class="ad91cd6b-4081-4604-b754-9bcbcb2e3abf" d="M625.3,273.17c.83-2.49,2.31-3.79,2.22-6.57,0-1.19-.25-3.18,1.41-1.68,1.09,1,.71,2.86,2.07,3.54s4.07-.17,5.66,0a21.08,21.08,0,0,1,5,1.38c2,1.16,3.54,4.72.6,5.68-3.12,1-7.39-.36-10.7-.33a5.63,5.63,0,0,0-2,.23c-.52.22-1,1-1.61.81s-.68-1.39-1.11-1.8-1.38-.31-1.59-1.11"/><path class="b44cb294-9ad5-4c16-ad72-22655501479c" d="M616.23,285.39a10.43,10.43,0,0,1,4.12-3.65c.53-.23,1,.55.44.78a9.5,9.5,0,0,0-3.8,3.34c-.34.46-1.11,0-.76-.47Z"/><path class="f0687b29-fa03-48a4-8abf-fe6594105399" d="M620.06,282.39a13,13,0,0,1,1.15-6.33,13.2,13.2,0,0,1,1.86-3.21c.27-.28,1-1.17,1.34-1.15.81.05.6,1.09,1.22,1.45,1.25.74,1.23-.46,2,1.13.29.55.11.86.6,1.37.26.35,1,.58,1.25,1,1.29,2.76-3.74,4.29-5.32,5-1.28.62-2.74,1.2-4.21.58"/><path class="ad91cd6b-4081-4604-b754-9bcbcb2e3abf" d="M620.12,314.82c.83-2.5,2.32-3.8,2.22-6.57,0-1.2-.25-3.19,1.42-1.69,1.08,1,.7,2.86,2.06,3.54s4.08-.17,5.66,0a20.51,20.51,0,0,1,5,1.39c2,1.15,3.54,4.71.61,5.67-3.14,1-7.4-.35-10.71-.32a5.41,5.41,0,0,0-2,.23c-.52.21-1,1-1.6.8s-.69-1.39-1.13-1.79-1.37-.31-1.59-1.11"/><path class="b44cb294-9ad5-4c16-ad72-22655501479c" d="M611.8,327.11a10.43,10.43,0,0,1,4.12-3.65c.53-.24,1,.55.44.78a9.5,9.5,0,0,0-3.8,3.34c-.34.46-1.1,0-.76-.47Z"/><path class="f0687b29-fa03-48a4-8abf-fe6594105399" d="M615.17,324.22a12.89,12.89,0,0,1,1.14-6.34,13.67,13.67,0,0,1,1.86-3.2c.27-.29,1-1.17,1.35-1.16.81.06.59,1.1,1.22,1.46,1.24.74,1.23-.46,2,1.13.3.54.11.86.6,1.37.26.35,1,.57,1.26,1,1.28,2.76-3.74,4.29-5.33,5-1.28.63-2.73,1.2-4.2.59"/><path class="ad91cd6b-4081-4604-b754-9bcbcb2e3abf" d="M608.29,224.58c-.07-2.69-2.93-7.54-6.24-6.58-6.16,1.76,2.81,6.34,4.42,7.58"/><path class="f0687b29-fa03-48a4-8abf-fe6594105399" d="M613,228.79c-.38-2.25-6.2-7.93-6.77-3.32-.22,2.68,5,1.93,6.48,3"/><path class="ad91cd6b-4081-4604-b754-9bcbcb2e3abf" d="M614,215.46c2.18-1.59,4.56-6.69,1.9-8.88-5-4.08-3.64,5.92-3.75,7.94"/><path class="f0687b29-fa03-48a4-8abf-fe6594105399" d="M613.14,221.68c1.64-1.6,3-9.6-1.11-7.46-2.33,1.33,1.26,5.23,1.2,7.05"/><path class="ad91cd6b-4081-4604-b754-9bcbcb2e3abf" d="M622.84,225.15c2.69.1,7.72-2.42,7-5.79-1.36-6.27-6.52,2.39-7.86,3.91"/><path class="f0687b29-fa03-48a4-8abf-fe6594105399" d="M618.33,229.52c2.27-.24,8.32-5.66,3.76-6.54-2.66-.4-2.25,4.88-3.44,6.27"/><path class="b44cb294-9ad5-4c16-ad72-22655501479c" d="M620.26,228.52c-1.56,2.27-4.53,1.75-6.33,3.6-.41.41-1-.24-.62-.65,1.74-1.77,4.76-1.34,6.19-3.42.32-.48,1.09,0,.76.47Z"/></g></g></svg>