<?xml version="1.0" encoding="utf-8"?>
<svg xmlns="http://www.w3.org/2000/svg" style="margin: auto; background: none; display: block; shape-rendering: auto;" width="480" height="170" preserveAspectRatio="xMidYMid">
<style type="text/css">
  text {
    text-anchor: middle; font-size: 54px; opacity: 0;
  }
</style>
<g style="transform-origin:0px 85px;transform:scale(1.6)">
<g transform="translate(140,85)">
  <g transform="translate(0,0)"><g class="path" style="transform: scale(0.91); transform-origin: -109.225px -3.10896px; animation: 1s linear -0.563636s infinite normal forwards running breath-4a578746-b393-4282-ada5-a42bbd32db13;"><path d="M14.77-14.19L14.77 0L4.30 0L4.30-37.97L24.81-37.97L24.81-37.97Q27.47-37.97 29.91-37.26L29.91-37.26L29.91-37.26Q32.35-36.54 34.22-35.11L34.22-35.11L34.22-35.11Q36.10-33.67 37.22-31.50L37.22-31.50L37.22-31.50Q38.34-29.32 38.34-26.39L38.34-26.39L38.34-26.39Q38.34-24.55 37.81-22.93L37.81-22.93L37.81-22.93Q37.28-21.30 36.35-19.96L36.35-19.96L36.35-19.96Q35.41-18.62 34.15-17.53L34.15-17.53L34.15-17.53Q32.88-16.45 31.38-15.71L31.38-15.71L31.38-15.71Q29.87-14.98 28.20-14.58L28.20-14.58L28.20-14.58Q26.53-14.19 24.81-14.19L24.81-14.19L14.77-14.19zM27.74-26.39L27.74-26.39L27.74-26.39Q27.74-30.06 25.88-32.15L25.88-32.15L25.88-32.15Q24.02-34.25 20.28-34.25L20.28-34.25L14.77-34.25L14.77-17.77L20.28-17.77L20.28-17.77Q22.28-17.77 23.69-18.42L23.69-18.42L23.69-18.42Q25.10-19.06 26.00-20.22L26.00-20.22L26.00-20.22Q26.89-21.38 27.32-22.95L27.32-22.95L27.32-22.95Q27.74-24.52 27.74-26.39" fill="#0f2d28" stroke="none" stroke-width="none" transform="translate(-130.54501342773438,15.876046364524141)" style="fill: rgb(15, 45, 40);"></path></g><g class="path" style="transform: scale(0.91); transform-origin: -83.14px -6.36395px; animation: 1s linear -0.507273s infinite normal forwards running breath-4a578746-b393-4282-ada5-a42bbd32db13;"><path d="M51.86-35.23L51.86 0L42.95 0L42.95-44.48L46.38-44.48L51.86-35.23" fill="#0f2d28" stroke="none" stroke-width="none" transform="translate(-130.54501342773438,15.876046364524141)" style="fill: rgb(68, 103, 39);"></path></g><g class="path" style="transform: scale(0.91); transform-origin: -60.01px 0.651046px; animation: 1s linear -0.450909s infinite normal forwards running breath-4a578746-b393-4282-ada5-a42bbd32db13;"><path d="M83.43-3.53L83.43 0L57.64 0L57.64-3.53L57.64-3.53L73.59-26.92L57.64-26.92L57.64-30.45L83.43-30.45L83.43-26.92L67.47-3.53L83.43-3.53" fill="#0f2d28" stroke="none" stroke-width="none" transform="translate(-130.54501342773438,15.876046364524141)" style="fill: rgb(15, 45, 40);"></path></g><g class="path" style="transform: scale(0.91); transform-origin: -6.91002px 0.651046px; animation: 1s linear -0.394545s infinite normal forwards running breath-4a578746-b393-4282-ada5-a42bbd32db13;"><path d="M123.45-18.51L118.42 0L110.40 0L102.07-30.45L110.98-30.45L116.20-9.10L120.55-30.45L128.57-30.45L133.89-8.52L139.03-30.45L145.20-30.45L135.98 0L127.96 0L123.45-18.51" fill="#0f2d28" stroke="none" stroke-width="none" transform="translate(-130.54501342773438,15.876046364524141)" style="fill: rgb(68, 103, 39);"></path></g><g class="path" style="transform: scale(0.91); transform-origin: 33.325px 0.586046px; animation: 1s linear -0.338182s infinite normal forwards running breath-4a578746-b393-4282-ada5-a42bbd32db13;"><path d="M180.06-30.45L180.06 0L171.15 0L171.15-3.64L171.15-3.64Q169.57-1.48 167.34-0.44L167.34-0.44L167.34-0.44Q165.11 0.61 162.45 0.61L162.45 0.61L162.45 0.61Q158.97 0.61 156.23-0.63L156.23-0.63L156.23-0.63Q153.48-1.87 151.58-4.02L151.58-4.02L151.58-4.02Q149.69-6.17 148.68-9.07L148.68-9.07L148.68-9.07Q147.68-11.97 147.68-15.29L147.68-15.29L147.68-15.29Q147.68-18.62 148.68-21.52L148.68-21.52L148.68-21.52Q149.69-24.42 151.58-26.56L151.58-26.56L151.58-26.56Q153.48-28.71 156.23-29.95L156.23-29.95L156.23-29.95Q158.97-31.19 162.45-31.19L162.45-31.19L162.45-31.19Q164.21-31.19 165.81-30.67L165.81-30.67L165.81-30.67Q167.41-30.14 168.74-29.18L168.74-29.18L168.74-29.18Q170.07-28.21 171.08-26.85L171.08-26.85L171.08-26.85Q172.10-25.50 172.68-23.84L172.68-23.84L176.63-30.45L180.06-30.45zM171.10-15.29L171.10-15.29L171.10-15.29Q171.10-16.48 170.98-17.80L170.98-17.80L170.98-17.80Q170.86-19.12 170.57-20.41L170.57-20.41L170.57-20.41Q170.28-21.70 169.77-22.87L169.77-22.87L169.77-22.87Q169.25-24.05 168.45-24.96L168.45-24.96L168.45-24.96Q167.64-25.87 166.51-26.39L166.51-26.39L166.51-26.39Q165.38-26.92 163.87-26.92L163.87-26.92L163.87-26.92Q162.37-26.92 161.26-26.38L161.26-26.38L161.26-26.38Q160.15-25.84 159.36-24.93L159.36-24.93L159.36-24.93Q158.57-24.02 158.06-22.83L158.06-22.83L158.06-22.83Q157.54-21.65 157.25-20.36L157.25-20.36L157.25-20.36Q156.96-19.06 156.85-17.76L156.85-17.76L156.85-17.76Q156.73-16.45 156.73-15.29L156.73-15.29L156.73-15.29Q156.73-14.13 156.85-12.81L156.85-12.81L156.85-12.81Q156.96-11.50 157.25-10.20L157.25-10.20L157.25-10.20Q157.54-8.91 158.06-7.73L158.06-7.73L158.06-7.73Q158.57-6.54 159.36-5.63L159.36-5.63L159.36-5.63Q160.15-4.72 161.26-4.18L161.26-4.18L161.26-4.18Q162.37-3.64 163.87-3.64L163.87-3.64L163.87-3.64Q165.24-3.64 166.31-4.21L166.31-4.21L166.31-4.21Q167.38-4.77 168.18-5.72L168.18-5.72L168.18-5.72Q168.99-6.67 169.54-7.88L169.54-7.88L169.54-7.88Q170.09-9.10 170.44-10.39L170.44-10.39L170.44-10.39Q170.78-11.68 170.94-12.96L170.94-12.96L170.94-12.96Q171.10-14.24 171.10-15.29" fill="#0f2d28" stroke="none" stroke-width="none" transform="translate(-130.54501342773438,15.876046364524141)" style="fill: rgb(15, 45, 40);"></path></g><g class="path" style="transform: scale(0.91); transform-origin: 61.45px -21.919px; animation: 1s linear -0.281818s infinite normal forwards running breath-4a578746-b393-4282-ada5-a42bbd32db13;"><path d="M196.86-37.81L196.86-37.81L196.86-37.81Q196.86-36.81 196.48-35.91L196.48-35.91L196.48-35.91Q196.09-35.02 195.43-34.36L195.43-34.36L195.43-34.36Q194.77-33.70 193.88-33.31L193.88-33.31L193.88-33.31Q192.98-32.93 191.98-32.93L191.98-32.93L191.98-32.93Q190.98-32.93 190.09-33.31L190.09-33.31L190.09-33.31Q189.21-33.70 188.55-34.36L188.55-34.36L188.55-34.36Q187.89-35.02 187.51-35.91L187.51-35.91L187.51-35.91Q187.13-36.81 187.13-37.81L187.13-37.81L187.13-37.81Q187.13-38.81 187.51-39.70L187.51-39.70L187.51-39.70Q187.89-40.58 188.55-41.24L188.55-41.24L188.55-41.24Q189.21-41.90 190.09-42.28L190.09-42.28L190.09-42.28Q190.98-42.66 191.98-42.66L191.98-42.66L191.98-42.66Q192.98-42.66 193.88-42.28L193.88-42.28L193.88-42.28Q194.77-41.90 195.43-41.24L195.43-41.24L195.43-41.24Q196.09-40.58 196.48-39.70L196.48-39.70L196.48-39.70Q196.86-38.81 196.86-37.81" fill="#0f2d28" stroke="none" stroke-width="none" transform="translate(-130.54501342773438,15.876046364524141)" style="fill: rgb(68, 103, 39);"></path></g><g class="path" style="transform: scale(0.91); transform-origin: 61.445px 0.661046px; animation: 1s linear -0.225455s infinite normal forwards running breath-4a578746-b393-4282-ada5-a42bbd32db13;"><path d="M196.46-30.43L196.46 0L187.52 0L187.52-30.43L196.46-30.43" fill="#0f2d28" stroke="none" stroke-width="none" transform="translate(-130.54501342773438,15.876046364524141)" style="fill: rgb(15, 45, 40);"></path></g><g class="path" style="transform: scale(0.91); transform-origin: 82.225px -4.95395px; animation: 1s linear -0.169091s infinite normal forwards running breath-4a578746-b393-4282-ada5-a42bbd32db13;"><path d="M215.39-26.92L215.39 0L206.46 0L206.46-26.92L200.92-26.92L200.92-30.45L206.46-30.45L206.46-41.66L215.39-41.66L215.39-30.45L224.62-30.45L224.62-26.92L215.39-26.92" fill="#0f2d28" stroke="none" stroke-width="none" transform="translate(-130.54501342773438,15.876046364524141)" style="fill: rgb(68, 103, 39);"></path></g><g class="path" style="transform: scale(0.91); transform-origin: 99.775px 11.936px; animation: 1s linear -0.112727s infinite normal forwards running breath-4a578746-b393-4282-ada5-a42bbd32db13;"><path d="M235.12-3.96L235.12-3.96L235.12-3.96Q235.12-2.95 234.75-2.07L234.75-2.07L234.75-2.07Q234.38-1.19 233.72-0.54L233.72-0.54L233.72-0.54Q233.06 0.11 232.19 0.49L232.19 0.49L232.19 0.49Q231.32 0.87 230.32 0.87L230.32 0.87L230.32 0.87Q229.32 0.87 228.45 0.49L228.45 0.49L228.45 0.49Q227.58 0.11 226.92-0.54L226.92-0.54L226.92-0.54Q226.26-1.19 225.89-2.07L225.89-2.07L225.89-2.07Q225.52-2.95 225.52-3.96L225.52-3.96L225.52-3.96Q225.52-4.93 225.89-5.81L225.89-5.81L225.89-5.81Q226.26-6.70 226.92-7.34L226.92-7.34L226.92-7.34Q227.58-7.99 228.45-8.37L228.45-8.37L228.45-8.37Q229.32-8.75 230.32-8.75L230.32-8.75L230.32-8.75Q231.32-8.75 232.19-8.37L232.19-8.37L232.19-8.37Q233.06-7.99 233.72-7.34L233.72-7.34L233.72-7.34Q234.38-6.70 234.75-5.81L234.75-5.81L234.75-5.81Q235.12-4.93 235.12-3.96" fill="#0f2d28" stroke="none" stroke-width="none" transform="translate(-130.54501342773438,15.876046364524141)" style="fill: rgb(15, 45, 40);"></path></g><g class="path" style="transform: scale(0.91); transform-origin: 114.905px 11.936px; animation: 1s linear -0.0563636s infinite normal forwards running breath-4a578746-b393-4282-ada5-a42bbd32db13;"><path d="M250.25-3.96L250.25-3.96L250.25-3.96Q250.25-2.95 249.88-2.07L249.88-2.07L249.88-2.07Q249.51-1.19 248.85-0.54L248.85-0.54L248.85-0.54Q248.19 0.11 247.32 0.49L247.32 0.49L247.32 0.49Q246.45 0.87 245.45 0.87L245.45 0.87L245.45 0.87Q244.45 0.87 243.58 0.49L243.58 0.49L243.58 0.49Q242.71 0.11 242.05-0.54L242.05-0.54L242.05-0.54Q241.39-1.19 241.02-2.07L241.02-2.07L241.02-2.07Q240.65-2.95 240.65-3.96L240.65-3.96L240.65-3.96Q240.65-4.93 241.02-5.81L241.02-5.81L241.02-5.81Q241.39-6.70 242.05-7.34L242.05-7.34L242.05-7.34Q242.71-7.99 243.58-8.37L243.58-8.37L243.58-8.37Q244.45-8.75 245.45-8.75L245.45-8.75L245.45-8.75Q246.45-8.75 247.32-8.37L247.32-8.37L247.32-8.37Q248.19-7.99 248.85-7.34L248.85-7.34L248.85-7.34Q249.51-6.70 249.88-5.81L249.88-5.81L249.88-5.81Q250.25-4.93 250.25-3.96" fill="#0f2d28" stroke="none" stroke-width="none" transform="translate(-130.54501342773438,15.876046364524141)" style="fill: rgb(68, 103, 39);"></path></g><g class="path" style="transform: scale(0.91); transform-origin: 130.045px 11.936px; animation: 1s linear 0s infinite normal forwards running breath-4a578746-b393-4282-ada5-a42bbd32db13;"><path d="M265.39-3.96L265.39-3.96L265.39-3.96Q265.39-2.95 265.02-2.07L265.02-2.07L265.02-2.07Q264.65-1.19 263.99-0.54L263.99-0.54L263.99-0.54Q263.33 0.11 262.46 0.49L262.46 0.49L262.46 0.49Q261.59 0.87 260.59 0.87L260.59 0.87L260.59 0.87Q259.58 0.87 258.71 0.49L258.71 0.49L258.71 0.49Q257.84 0.11 257.19-0.54L257.19-0.54L257.19-0.54Q256.53-1.19 256.16-2.07L256.16-2.07L256.16-2.07Q255.79-2.95 255.79-3.96L255.79-3.96L255.79-3.96Q255.79-4.93 256.16-5.81L256.16-5.81L256.16-5.81Q256.53-6.70 257.19-7.34L257.19-7.34L257.19-7.34Q257.84-7.99 258.71-8.37L258.71-8.37L258.71-8.37Q259.58-8.75 260.59-8.75L260.59-8.75L260.59-8.75Q261.59-8.75 262.46-8.37L262.46-8.37L262.46-8.37Q263.33-7.99 263.99-7.34L263.99-7.34L263.99-7.34Q264.65-6.70 265.02-5.81L265.02-5.81L265.02-5.81Q265.39-4.93 265.39-3.96" fill="#0f2d28" stroke="none" stroke-width="none" transform="translate(-130.54501342773438,15.876046364524141)" style="fill: rgb(15, 45, 40);"></path></g></g>
</g>
</g>
<style id="breath-4a578746-b393-4282-ada5-a42bbd32db13" data-anikit="">@keyframes breath-4a578746-b393-4282-ada5-a42bbd32db13
{
  0% {
    animation-timing-function: cubic-bezier(0.9647,0.2413,-0.0705,0.7911);
    transform: scale(0.9099999999999999);
  }
  51% {
    animation-timing-function: cubic-bezier(0.9226,0.2631,-0.0308,0.7628);
    transform: scale(1.02994);
  }
  100% {
    transform: scale(0.9099999999999999);
  }
}</style></svg>