<svg width="611" height="444" viewBox="0 0 611 444" fill="none" xmlns="http://www.w3.org/2000/svg">
<path d="M561.654 131.255L588.365 114.242C588.94 113.683 589.35 112.976 589.55 112.199C589.751 111.423 589.734 110.606 589.501 109.838C589.269 109.07 588.829 108.381 588.232 107.846C587.634 107.311 586.9 106.951 586.112 106.804L526.491 95.8953C523.062 95.2727 519.525 95.9962 516.615 97.9154C513.706 99.8345 511.649 102.802 510.871 106.199C510.871 106.199 477.357 253.048 477.24 253.908C476.607 258.302 476.872 262.778 478.019 267.066C479.166 271.355 481.171 275.366 483.913 278.857C486.654 282.348 490.076 285.246 493.97 287.376C497.865 289.507 502.151 290.825 506.569 291.251C524.223 292.987 539.887 279.759 542.403 262.199L561.654 131.255Z" fill="#DDBCB6"/>
<path d="M528.683 149.966L540.234 120.455C540.364 119.665 540.276 118.855 539.978 118.112C539.68 117.37 539.184 116.723 538.544 116.243C537.904 115.762 537.145 115.466 536.349 115.388C535.553 115.309 534.75 115.449 534.028 115.795L479.461 142.134C476.318 143.652 473.881 146.324 472.659 149.593C471.436 152.863 471.522 156.478 472.898 159.686C472.898 159.686 532.46 298.039 532.854 298.769C534.935 302.69 537.789 306.148 541.244 308.934C544.699 311.72 548.684 313.776 552.957 314.978C557.229 316.18 561.702 316.502 566.103 315.926C570.504 315.349 574.742 313.886 578.561 311.625C593.838 302.619 598.687 282.697 590.36 267.033L528.683 149.966Z" fill="#F8DEDB"/>
<path d="M376.587 252.895L480.23 245.166C488.376 244.55 496.461 246.979 502.918 251.982C509.376 256.985 513.747 264.207 515.185 272.249C516.623 280.291 515.025 288.58 510.701 295.511C506.378 302.442 499.635 307.522 491.781 309.767L391.879 338.417C386.366 339.997 380.596 340.476 374.899 339.827C369.201 339.177 363.688 337.411 358.672 334.631C348.544 329.015 341.061 319.605 337.87 308.472C334.679 297.339 336.041 285.395 341.657 275.266C347.272 265.137 356.682 257.654 367.815 254.463C370.681 253.657 373.619 253.131 376.587 252.895V252.895Z" fill="#DDBCB6"/>
<path d="M416.577 286.644L532.325 258.897C550.015 254.653 572.781 267.648 579.723 284.23C583.369 293.061 585.134 305.552 571.228 315.549L444.345 368.979C439.09 371.367 433.412 372.688 427.642 372.866C421.871 373.043 416.123 372.073 410.731 370.012C405.338 367.951 400.409 364.84 396.228 360.859C392.047 356.878 388.698 352.107 386.375 346.822C384.052 341.537 382.801 335.843 382.695 330.071C382.589 324.299 383.631 318.564 385.758 313.197C387.886 307.831 391.058 302.94 395.09 298.808C399.123 294.677 403.935 291.387 409.248 289.13C411.617 288.097 414.069 287.265 416.577 286.644V286.644Z" fill="#F8DEDB"/>
<mask id="mask0_52_202" style="mask-type:alpha" maskUnits="userSpaceOnUse" x="40" y="245" width="571" height="166">
<path d="M609.782 366.645C596.875 353.388 528.62 334.705 528.62 334.705C513.985 284.033 492.014 280.168 473.259 268.085C457.479 257.934 422.345 242.314 369.711 249.541C343.102 253.187 313.671 266.473 301.58 285.702C276.51 271.118 243.542 240.491 205.324 246.712C183.506 259.99 158.385 255.221 158.385 255.221L111.716 253.479C111.716 253.479 110.52 263.688 114.377 279.402L40.8362 336.251L42.8561 390.665L131.258 348.313C133.614 353.986 137.486 363.983 142.517 368.081C157.189 380.011 226.668 388.711 240.458 388.623C251.36 388.543 276.466 389.484 313.379 383.606C321.685 388.448 347.616 387.858 362.302 388.813C454.963 394.865 414.63 413.985 495.179 410.077C529.561 408.823 622.689 379.895 609.782 366.645Z" fill="#1B1E17"/>
</mask>
<g mask="url(#mask0_52_202)">
<path d="M609.782 366.645C596.875 353.388 528.62 334.705 528.62 334.705C513.985 284.033 492.014 280.168 473.259 268.085C457.479 257.934 422.345 242.314 369.711 249.541C343.102 253.187 313.671 266.473 301.58 285.702C276.51 271.118 243.542 240.491 205.324 246.712C183.506 259.99 158.385 255.221 158.385 255.221L111.716 253.479C111.716 253.479 110.52 263.688 114.377 279.402L40.8362 336.251L42.8561 390.665L131.258 348.313C133.614 353.986 137.486 363.983 142.517 368.081C157.189 380.011 226.668 388.711 240.458 388.623C251.36 388.543 276.466 389.484 313.379 383.606C321.685 388.448 347.616 387.858 362.302 388.813C454.963 394.865 414.63 413.985 495.179 410.077C529.561 408.823 622.689 379.895 609.782 366.645Z" fill="#1B1E17"/>
<path d="M407.863 360.381C374.523 300.207 362.025 293.199 343.379 285.819C324.733 278.44 311.753 291.602 309.9 293.841C308.048 296.079 329.509 306.055 342.89 334.64C353.712 357.749 313.364 383.599 313.364 383.599L311.082 390.738L312.839 391.125L315.435 384.875C346.675 382.141 351.167 360.585 373.685 370.838C385.352 376.132 424.153 399.35 424.153 399.35L428.39 406.234L484.313 420.57L589.203 406.621L591.055 384.628C591.055 384.628 438.636 415.94 407.863 360.381Z" fill="#32342C"/>
<path d="M360.311 247.054C360.311 247.054 422.396 245.02 458.244 270.287C458.244 270.287 494.901 281.772 504.571 305.836C514.24 329.9 515.458 339.066 515.458 339.066C515.458 339.066 586.14 359.936 603.415 378.043" stroke="#677F49" stroke-width="6" stroke-linecap="round" stroke-linejoin="round"/>
</g>
<path d="M143.254 363.984C142.55 362.616 141.701 361.328 140.724 360.141C138.696 357.705 136.443 355.036 134.35 355.816C135.364 355.379 135.809 354.241 135.94 352.9C136.035 351.442 136.008 349.978 135.86 348.524C135.532 344.543 134.328 340.766 132.104 340.758C134.328 340.656 135.342 336.726 135.393 332.737C135.444 328.748 134.445 324.716 132.206 324.635C134.438 324.635 135.67 320.676 135.758 316.614C135.829 314.657 135.583 312.702 135.029 310.824C134.915 310.207 134.762 309.598 134.569 309.001C134.236 308.587 133.86 308.211 133.446 307.878C133.282 307.701 133.075 307.57 132.845 307.497C132.615 307.424 132.37 307.412 132.134 307.462C135.481 304.976 129.545 291.099 125.571 292.725C129.669 290.96 123.427 276.026 119.292 277.754C117.321 278.591 115.761 280.172 114.951 282.154C114.141 284.136 114.146 286.358 114.967 288.335C115.787 290.313 117.356 291.886 119.331 292.713C121.306 293.539 123.528 293.551 125.512 292.747C123.685 293.612 122.247 295.129 121.482 297.001C120.717 298.873 120.68 300.963 121.379 302.86C122.077 304.758 123.461 306.325 125.257 307.253C127.053 308.182 129.131 308.405 131.083 307.878C130.362 308.291 129.687 308.78 129.071 309.336C128.677 309.665 128.342 309.971 127.948 310.233C127.573 310.487 127.178 310.709 126.767 310.897C126.402 310.941 126.037 311.531 125.768 311.896C125.483 312.324 125.238 312.778 125.038 313.252C124.5 314.464 124.266 315.789 124.359 317.111C124.451 318.434 124.866 319.714 125.568 320.838C126.27 321.963 127.236 322.899 128.383 323.563C129.531 324.228 130.823 324.601 132.148 324.65C131.077 324.622 130.011 324.808 129.014 325.199C128.016 325.589 127.106 326.176 126.339 326.923C125.572 327.671 124.962 328.565 124.545 329.552C124.129 330.539 123.915 331.6 123.915 332.671C123.895 333.743 124.092 334.809 124.494 335.803C124.896 336.797 125.495 337.7 126.254 338.457C127.013 339.214 127.918 339.811 128.913 340.21C129.908 340.609 130.974 340.803 132.046 340.78C130.977 340.812 129.925 341.061 128.955 341.512C127.984 341.963 127.116 342.606 126.401 343.402C125.686 344.198 125.141 345.132 124.798 346.145C124.455 347.158 124.321 348.231 124.404 349.297C124.463 350.561 124.833 351.791 125.48 352.879C126.128 353.966 127.033 354.877 128.116 355.532C129.05 356.064 130.097 356.369 131.171 356.422C132.245 356.475 133.317 356.275 134.299 355.838C133.295 356.221 132.394 356.834 131.67 357.628C130.945 358.422 130.417 359.375 130.128 360.41C129.839 361.599 129.833 362.84 130.111 364.031C130.388 365.223 130.941 366.333 131.725 367.272C132.523 368.283 133.537 369.103 134.693 369.671C135.746 370.16 136.894 370.409 138.055 370.401C139.134 370.35 140.186 370.047 141.126 369.515C142.066 368.983 142.867 368.237 143.465 367.338C144.1 366.412 143.888 365.172 143.254 363.984Z" fill="#677F49"/>
<mask id="mask1_52_202" style="mask-type:alpha" maskUnits="userSpaceOnUse" x="118" y="246" width="182" height="141">
<path d="M228.907 246.172L118.198 277.98L131.258 309.183C131.185 322.747 130.208 335.333 131.258 348.313C131.712 352.347 133.011 356.241 135.072 359.739C137.133 363.238 139.908 366.262 143.217 368.614C155.461 377.262 198.71 386.297 222.432 386.195C222.476 386.195 222.519 386.178 222.55 386.146C222.582 386.115 222.599 386.072 222.599 386.028L223.081 317.759C223.115 310.77 225.313 303.963 229.374 298.274C237.169 287.373 251.301 270.644 266.075 268.15C274.825 266.692 299.356 284.332 299.356 284.332C299.356 284.332 262.217 253.005 228.907 246.172Z" fill="#CFD1D1"/>
</mask>
<g mask="url(#mask1_52_202)">
<path d="M228.907 246.172L118.198 277.98L131.258 309.183C131.185 322.747 130.208 335.333 131.258 348.313C131.712 352.347 133.011 356.241 135.072 359.739C137.133 363.238 139.908 366.262 143.217 368.614C155.461 377.262 198.71 386.297 222.432 386.195C222.476 386.195 222.519 386.178 222.55 386.146C222.582 386.115 222.599 386.072 222.599 386.028L223.081 317.759C223.115 310.77 225.313 303.963 229.374 298.274C237.169 287.373 251.301 270.644 266.075 268.15C274.825 266.692 299.356 284.332 299.356 284.332C299.356 284.332 262.217 253.005 228.907 246.172Z" fill="#CFD1D1"/>
<path d="M122.179 278.454L133.592 308.891C133.592 308.891 131.404 342.435 134.664 352.87C137.143 360.892 142.393 367.681 148.118 372.996" stroke="#677F49" stroke-width="3" stroke-linecap="round" stroke-linejoin="round"/>
<path d="M125.461 278.221L137.457 308.746C137.457 308.746 135.189 343.274 138.755 354.409C141.132 361.818 148.118 371.64 154.797 376.767" stroke="#677F49" stroke-width="3" stroke-linecap="round" stroke-linejoin="round"/>
<path d="M281.913 269.281C281.913 269.281 270.931 263.6 264.463 263.301C257.995 263.002 222.767 285.601 219.099 314.806C217.568 325.204 223.795 364.465 223.795 364.465" stroke="#677F49" stroke-width="3" stroke-linecap="round" stroke-linejoin="round"/>
<path d="M279.288 264.854C279.288 264.854 268.284 259.867 261.787 259.531C252.307 259.043 215.409 287.445 213.834 315.032C214.067 327.078 221.374 374.44 221.374 374.44" stroke="#677F49" stroke-width="3" stroke-linecap="round" stroke-linejoin="round"/>
</g>
<path d="M173.706 294.708C173.706 294.708 142.349 296.305 134.503 292.521C132.254 291.494 130.262 289.979 128.67 288.088C127.079 286.196 125.928 283.974 125.3 281.583L164.926 273.605L173.706 294.708Z" fill="#AEBAB8"/>
<path d="M141.03 272.635L166.552 288.867C166.552 288.867 179.583 292.951 189.202 281.933C198.82 270.914 193.759 256.41 193.759 256.41L175.193 243.707L141.03 272.635Z" fill="#CDACA3"/>
<path d="M127.437 281.772C127.437 281.772 124.987 295.066 153.04 290.377C181.092 285.688 198.513 259.415 198.513 259.415L215.621 249.986C215.621 249.986 218.574 256.294 209.998 272.395C201.321 288.692 182.004 305.253 172.393 306.755C167.237 307.564 124.929 299.609 125.3 281.604L127.437 281.772Z" fill="#DDDDDD"/>
<path d="M175.236 301.867C176.218 299.501 174.007 296.336 170.298 294.797C166.589 293.259 162.787 293.93 161.806 296.296C160.824 298.661 163.035 301.827 166.744 303.365C170.453 304.904 174.255 304.233 175.236 301.867Z" fill="#32342C"/>
<path d="M176.665 325.744C178.912 322.788 178.589 318.761 175.944 316.751C173.299 314.74 169.333 315.506 167.086 318.463C164.839 321.419 165.162 325.445 167.807 327.456C170.452 329.466 174.418 328.7 176.665 325.744Z" fill="#32342C"/>
<path d="M176.732 375.841C179.029 378.634 178.591 381.332 176.097 381.448C173.689 381.482 171.295 381.066 169.039 380.223C165.641 378.998 165.48 377.241 167.908 374.813C170.337 372.384 174.442 373.041 176.732 375.841Z" fill="#32342C"/>
<path d="M174.315 353.126C174.636 349.426 172.213 346.195 168.903 345.907C165.593 345.62 162.649 348.386 162.328 352.085C162.007 355.785 164.43 359.016 167.74 359.304C171.05 359.591 173.994 356.825 174.315 353.126Z" fill="#32342C"/>
<path d="M191.732 298.712C191.926 298.573 192.096 298.403 192.235 298.209C194.197 295.328 193.19 292.185 188.968 289.983C186.051 288.445 182.5 288.627 180.422 290.712C181.625 287.241 180.254 283.829 177.942 281.408C175.026 278.381 171.817 279.22 169.921 283.253C169.887 283.35 169.86 283.45 169.841 283.552C169.8 283.548 169.758 283.548 169.717 283.552C169.431 283.596 169.174 283.753 169.003 283.987C168.833 284.22 168.761 284.512 168.805 284.798C168.856 285.156 170.264 292.82 183.674 297.968C184.675 298.436 185.72 298.8 186.795 299.055L186.97 299.113C184.972 307.929 172.036 367.316 183.28 381.82C183.385 381.959 183.523 382.07 183.68 382.143C183.838 382.217 184.011 382.251 184.184 382.243C184.228 382.243 184.257 382.243 184.301 382.199C185.453 383.957 186.671 385.32 187.546 385.678C189.212 385.064 190.61 383.886 191.495 382.347C192.38 380.809 192.698 379.008 192.391 377.26C192.085 375.511 191.174 373.926 189.818 372.78C188.462 371.635 186.747 371.002 184.972 370.991C186.272 370.217 187.309 369.069 187.948 367.698C188.588 366.326 188.8 364.794 188.558 363.3C188.316 361.807 187.63 360.42 186.59 359.321C185.55 358.222 184.204 357.461 182.726 357.136C184.43 356.914 186.008 356.118 187.201 354.881C188.393 353.643 189.13 352.037 189.289 350.325C189.683 346.147 186.212 342.136 181.997 342.18L181.931 342.297C181.931 342.202 181.931 342.107 181.931 342.012C181.931 342.063 181.931 342.122 181.931 342.18C183.888 342.439 185.868 341.925 187.451 340.746C189.034 339.567 190.094 337.818 190.407 335.869C190.719 333.921 190.259 331.927 189.124 330.312C187.99 328.698 186.27 327.59 184.33 327.224C186.131 327.423 187.943 326.969 189.437 325.944C190.931 324.919 192.006 323.391 192.467 321.639C192.929 319.888 192.745 318.028 191.95 316.4C191.155 314.772 189.802 313.484 188.137 312.771C189.759 312.692 191.313 312.095 192.57 311.067C193.827 310.039 194.722 308.635 195.121 307.061C195.52 305.486 195.403 303.826 194.788 302.323C194.173 300.82 193.091 299.554 191.703 298.712H191.732ZM180.961 356.918V356.881V356.918ZM183.878 327.268C183.882 327.234 183.882 327.2 183.878 327.166H183.922L183.878 327.268Z" fill="#677F49"/>
<mask id="mask2_52_202" style="mask-type:alpha" maskUnits="userSpaceOnUse" x="30" y="57" width="216" height="229">
<path d="M243.288 156.842C255.896 226.533 203.437 274.857 134.84 285.38C100.64 284.541 85.3263 275.171 69.5899 263.773C50.3023 249.816 38.3213 206.931 32.8012 176.538C20.215 106.84 52.0013 72.1438 118.71 59.7764C185.418 47.409 230.673 87.1437 243.288 156.842Z" fill="#F8DEDB"/>
</mask>
<g mask="url(#mask2_52_202)">
<path d="M243.288 156.842C255.896 226.533 203.437 274.857 134.84 285.38C100.64 284.541 85.3263 275.171 69.5899 263.773C50.3023 249.816 38.3213 206.931 32.8012 176.538C20.215 106.84 52.0013 72.1438 118.71 59.7764C185.418 47.409 230.673 87.1437 243.288 156.842Z" fill="#F8DEDB"/>
<path opacity="0.5" d="M66.3374 266.55C79.7062 264.795 89.0578 252.055 87.225 238.095C85.3921 224.136 73.0687 214.242 59.7 215.997C46.3312 217.753 36.9796 230.492 38.8124 244.452C40.6453 258.412 52.9687 268.305 66.3374 266.55Z" fill="url(#paint0_radial_52_202)"/>
<path opacity="0.5" d="M189.13 257.547C202.499 255.792 211.85 243.052 210.018 229.092C208.185 215.133 195.861 205.239 182.493 206.994C169.124 208.75 159.772 221.489 161.605 235.449C163.438 249.409 175.761 259.302 189.13 257.547Z" fill="url(#paint1_radial_52_202)"/>
<path d="M119.3 261.593L143.233 255.759C143.399 255.724 143.571 255.727 143.737 255.768C143.902 255.808 144.055 255.886 144.186 255.995C144.316 256.104 144.421 256.241 144.49 256.396C144.56 256.551 144.594 256.72 144.589 256.89C144.589 259.347 143.503 264.298 134.621 266.143C126.498 267.82 121.393 265.378 118.936 263.613C118.767 263.484 118.637 263.312 118.56 263.114C118.483 262.916 118.462 262.7 118.499 262.491C118.537 262.282 118.632 262.088 118.773 261.929C118.915 261.771 119.097 261.654 119.3 261.593Z" fill="#C29D80"/>
<g style="mix-blend-mode:multiply" opacity="0.2">
<path d="M111.652 250.467C115.338 244.333 114.109 236.826 108.906 233.7C103.704 230.574 96.4987 233.013 92.8128 239.148C89.1269 245.282 90.3561 252.789 95.5584 255.915C100.761 259.041 107.966 256.602 111.652 250.467Z" fill="#906B5F"/>
</g>
<g style="mix-blend-mode:multiply" opacity="0.2">
<path d="M114.231 251.555C117.571 245.998 116.458 239.197 111.746 236.366C107.034 233.534 100.507 235.745 97.1674 241.302C93.8279 246.86 94.9406 253.661 99.6527 256.492C104.365 259.324 110.892 257.113 114.231 251.555Z" fill="#906B5F"/>
</g>
<path d="M105.434 240.71C107.17 237.821 106.593 234.286 104.146 232.816C101.698 231.345 98.3065 232.495 96.5703 235.385C94.8342 238.274 95.4109 241.808 97.8584 243.279C100.306 244.75 103.698 243.6 105.434 240.71Z" fill="#F8DEDB"/>
</g>
<mask id="mask3_52_202" style="mask-type:alpha" maskUnits="userSpaceOnUse" x="42" y="201" width="55" height="49">
<path d="M82.8686 205.035C74.8473 202.352 62.808 199.712 50.7249 202.119C44.8912 203.271 41.3254 209.681 43.0901 216.025C45.3652 224.192 49.9593 234.984 58.9796 240.73C58.0025 243.647 58.5275 246.608 60.212 247.388C61.8965 248.168 64.0768 246.477 65.1925 243.611C66.4036 243.971 67.6392 244.244 68.8896 244.427C68.824 247.198 69.9834 249.532 71.6606 249.794C73.4836 250.072 75.2046 247.804 75.5108 244.69C75.5108 244.69 79.4996 244.201 79.7476 244.15C80.3309 246.637 81.8842 248.394 83.4666 248.197C85.2312 247.986 86.6532 245.879 85.9094 242.145C94.2151 237.937 97.8612 229.202 96.3955 221.96C94.9298 214.719 89.8034 207.311 82.8686 205.035Z" fill="white"/>
</mask>
<g mask="url(#mask3_52_202)">
<path d="M82.8686 205.035C74.8473 202.352 62.808 199.712 50.7249 202.119C44.8912 203.271 41.3254 209.681 43.0901 216.025C45.3652 224.192 49.9593 234.984 58.9796 240.73C58.0025 243.647 58.5275 246.608 60.212 247.388C61.8965 248.168 64.0768 246.477 65.1925 243.611C66.4036 243.971 67.6392 244.244 68.8896 244.427C68.824 247.198 69.9834 249.532 71.6606 249.794C73.4836 250.072 75.2046 247.804 75.5108 244.69C75.5108 244.69 79.4996 244.201 79.7476 244.15C80.3309 246.637 81.8842 248.394 83.4666 248.197C85.2312 247.986 86.6532 245.879 85.9094 242.145C94.2151 237.937 97.8612 229.202 96.3955 221.96C94.9298 214.719 89.8034 207.311 82.8686 205.035Z" fill="white"/>
<mask id="mask4_52_202" style="mask-type:alpha" maskUnits="userSpaceOnUse" x="53" y="195" width="47" height="47">
<path d="M53.0002 195.023C53.0002 195.023 62.0424 219.226 65.776 228.567C72.2587 244.799 87.3461 242.283 91.4807 237.792C100.669 227.823 99.7645 205.582 99.7645 205.582L53.0002 195.023Z" fill="#677F49"/>
</mask>
<g mask="url(#mask4_52_202)">
<path d="M53.0002 195.023C53.0002 195.023 62.0424 219.226 65.776 228.567C72.2587 244.799 87.3461 242.283 91.4807 237.792C100.669 227.823 99.7645 205.582 99.7645 205.582L53.0002 195.023Z" fill="#677F49"/>
<path d="M46.8968 191.837L65.5427 231.943C65.7156 230.15 66.2873 228.417 67.2159 226.873C68.1444 225.329 69.4065 224.012 70.9097 223.018C72.1056 222.216 73.6151 223.215 73.7463 224.775C73.8729 226.304 74.3494 227.784 75.1391 229.1C75.9467 230.548 77.1494 231.738 78.607 232.529C80.0646 233.32 81.7171 233.681 83.3719 233.57C87.9951 233.096 91.2182 229.027 90.664 223.186C90.6238 222.891 90.658 222.591 90.7635 222.313C90.869 222.035 91.0424 221.788 91.2679 221.595C91.4935 221.401 91.7639 221.267 92.0546 221.205C92.3452 221.143 92.6469 221.154 92.9319 221.239C96.2779 222.322 99.3125 224.199 101.777 226.708L96.5269 179.156L46.8968 191.837Z" fill="#072E29"/>
<path fill-rule="evenodd" clip-rule="evenodd" d="M80.856 229.61C80.4914 229.355 80.5789 228.407 81.0383 227.357L80.681 227.459C78.7996 227.94 77.137 227.765 76.9766 227.072C76.8162 226.38 77.9975 225.563 79.6601 225.06C78.0923 224.25 77.0568 223.135 77.2902 222.449C77.5235 221.764 78.909 221.72 80.5279 222.332C80.156 220.247 80.3456 218.548 81.031 218.373C81.7165 218.198 82.6572 219.627 83.2624 221.669C84.4437 220.327 85.7198 219.656 86.2376 220.152C86.7553 220.648 86.3324 222.143 85.3042 223.616C86.9668 223.288 88.3523 223.492 88.5054 224.119C88.6586 224.746 87.2731 225.767 85.3917 226.248C85.3036 226.277 85.2134 226.299 85.1219 226.314C85.9897 227.043 86.5001 227.823 86.2886 228.225C86.0772 228.626 84.9323 228.436 83.8093 227.67L83.6051 227.532L83.977 229.1C83.9927 229.15 83.9982 229.204 83.9931 229.257C83.988 229.309 83.9724 229.361 83.9473 229.408C83.9222 229.454 83.8881 229.496 83.8468 229.529C83.8056 229.563 83.7582 229.588 83.7072 229.603C83.6564 229.613 83.604 229.613 83.5531 229.603C83.5021 229.593 83.4538 229.573 83.4109 229.543C83.3681 229.514 83.3315 229.477 83.3035 229.433C83.2755 229.389 83.2565 229.34 83.2478 229.289L82.8832 227.772C82.8594 227.825 82.8326 227.876 82.803 227.926C82.154 229.143 81.2862 229.894 80.856 229.61Z" fill="#677F49"/>
</g>
</g>
<g style="mix-blend-mode:multiply" opacity="0.2">
<path d="M97.5549 215.835C97.5549 215.835 75.9264 195.315 48.5154 201.389C48.5154 201.389 65.207 190.91 84.8739 196.708C97.0663 200.288 97.5549 215.835 97.5549 215.835Z" fill="#906B5F"/>
</g>
<path d="M97.2339 217.724C94.1608 215.655 90.8447 213.972 87.3603 212.714C84.0504 211.494 80.6056 210.676 77.1003 210.278C73.7093 209.889 70.2856 209.874 66.8914 210.235C63.5077 210.631 60.1665 211.332 56.9085 212.328C56.522 212.444 56.048 212.568 55.7271 212.692C55.4063 212.816 55.1292 212.911 54.8448 213.028C54.2906 213.254 53.802 213.502 53.3864 213.757C52.6535 214.158 51.9727 214.648 51.3592 215.215C51.0462 215.525 50.7675 215.867 50.5279 216.236C50.2475 216.707 50.0224 217.209 49.857 217.731C49.4781 219.067 49.3715 220.466 49.5434 221.844C50.009 225.125 51.1459 228.275 52.8832 231.097C53.7601 232.629 54.7729 234.079 55.9094 235.429C57.0557 236.825 58.3141 238.125 59.6722 239.316L60.1389 239.731C60.3647 239.931 60.5158 240.201 60.5675 240.498C60.6192 240.795 60.5683 241.101 60.4233 241.365C60.0556 242.26 59.8673 243.219 59.8691 244.187C59.8394 244.543 59.8816 244.901 59.9931 245.241C60.1046 245.58 60.2831 245.894 60.5181 246.163C60.6082 246.234 60.714 246.284 60.8268 246.306C60.9396 246.329 61.0562 246.325 61.1671 246.294C61.5575 246.201 61.92 246.016 62.2244 245.755C62.996 245.088 63.6068 244.255 64.011 243.319V243.319L64.1058 243.137C64.2083 242.929 64.3864 242.769 64.6034 242.689C64.8205 242.609 65.0599 242.615 65.2725 242.706C66.4066 243.186 67.574 243.584 68.7654 243.895V243.895C68.8907 243.921 69.005 243.985 69.0935 244.077C69.182 244.17 69.2405 244.287 69.2613 244.413V244.413C69.1991 245.476 69.3761 246.54 69.779 247.527C69.9116 247.935 70.1715 248.289 70.5207 248.539C70.8698 248.788 71.2897 248.919 71.7187 248.912C72.1533 248.867 72.5703 248.716 72.9337 248.474C73.2971 248.231 73.5959 247.903 73.8043 247.519C74.2444 246.688 74.3859 245.73 74.2054 244.807C74.1875 244.636 74.21 244.464 74.271 244.303C74.3696 244.065 74.5438 243.865 74.7669 243.735C74.873 243.701 74.9836 243.684 75.095 243.684H75.2044H75.3065H75.445L75.7075 243.647L76.2326 243.574L77.2899 243.436L79.339 243.144H79.8495C80.0584 243.155 80.2551 243.246 80.3989 243.398C80.5427 243.55 80.6227 243.752 80.6224 243.961C80.6221 244.945 80.9307 245.904 81.5048 246.703C81.7613 247.06 82.1088 247.342 82.5111 247.519C82.6935 247.592 82.8892 247.625 83.0854 247.616C83.2815 247.607 83.4735 247.557 83.6487 247.468C84.0147 247.237 84.3128 246.912 84.5127 246.528C84.7125 246.144 84.8069 245.713 84.7862 245.281C84.8093 244.322 84.7261 243.363 84.5383 242.422V242.349C84.5016 242.105 84.5442 241.856 84.6597 241.638C84.7752 241.42 84.9576 241.245 85.18 241.139C86.0769 240.708 86.9447 240.22 87.8052 239.68C88.6656 239.141 89.4969 238.572 90.372 237.967C90.4274 237.925 90.4906 237.895 90.5579 237.879C90.6251 237.863 90.695 237.861 90.7632 237.872C90.8314 237.884 90.8965 237.909 90.9546 237.947C91.0127 237.984 91.0626 238.033 91.1012 238.091C91.1494 238.171 91.1748 238.263 91.1748 238.357C91.1748 238.451 91.1494 238.542 91.1012 238.623C90.5641 239.623 89.8557 240.522 89.0084 241.277C88.1696 242.046 87.233 242.701 86.2228 243.224L86.8499 241.941C87.1335 243.175 87.0907 244.462 86.7259 245.674C86.5462 246.333 86.2228 246.943 85.7789 247.461C85.3351 247.979 84.7819 248.393 84.1591 248.671C83.488 248.939 82.7439 248.959 82.059 248.73C81.4318 248.492 80.8697 248.11 80.4182 247.614C79.5795 246.679 78.9129 245.602 78.4494 244.435L79.7401 245.281L79.1494 245.354L78.6171 245.419L77.5597 245.536L76.4951 245.66L75.9628 245.718H75.7002H75.569H75.4961H75.5982C75.6904 245.698 75.7789 245.663 75.8607 245.616C76.0744 245.488 76.2369 245.289 76.3201 245.055C76.3641 244.892 76.3641 244.721 76.3201 244.559C76.3854 245.242 76.3559 245.932 76.2326 246.608C76.0897 247.305 75.815 247.968 75.4231 248.562C75.0285 249.176 74.4901 249.683 73.8548 250.042C73.2194 250.4 72.5062 250.598 71.7771 250.618C71.0013 250.623 70.2491 250.352 69.6551 249.853C69.1137 249.387 68.7018 248.789 68.4592 248.117C68.04 246.913 67.8979 245.629 68.0435 244.362L68.5686 245.018C67.2564 244.963 65.95 244.812 64.66 244.566L65.9215 243.961C65.5085 245.261 64.8025 246.448 63.8578 247.432C63.3121 248.002 62.6403 248.437 61.8963 248.701C61.4414 248.855 60.9599 248.916 60.4809 248.878C60.002 248.84 59.5358 248.706 59.1107 248.482C58.3273 248.03 57.7052 247.344 57.3314 246.52C57.0129 245.828 56.8062 245.09 56.7189 244.333C56.5682 242.926 56.6971 241.504 57.098 240.147L57.8273 242.196C55.9152 241.398 54.09 240.406 52.38 239.235C50.6497 238.035 49.0271 236.685 47.5308 235.203C44.3881 232.076 41.9362 228.325 40.3335 224.192C39.4219 221.86 38.8853 219.399 38.7438 216.9C38.5849 213.995 39.1962 211.099 40.5158 208.506C41.9439 205.837 44.0944 203.623 46.7214 202.119C47.909 201.431 49.1683 200.876 50.4768 200.463C51.1039 200.274 51.7311 200.099 52.3436 199.96C52.9561 199.822 53.4155 199.756 53.9624 199.661C58.1763 198.866 62.4714 198.587 66.7528 198.83C71.0438 199.082 75.2758 199.954 79.3171 201.419C83.2847 202.868 86.9985 204.935 90.3209 207.544C91.9407 208.82 93.4439 210.238 94.8129 211.781C96.1957 213.294 97.3951 214.966 98.386 216.761C98.4374 216.848 98.47 216.945 98.482 217.045C98.4939 217.146 98.4848 217.248 98.4553 217.344C98.4259 217.441 98.3766 217.53 98.3107 217.607C98.2448 217.684 98.1636 217.746 98.0725 217.789C97.9517 217.857 97.8141 217.889 97.676 217.881C97.5378 217.873 97.4047 217.826 97.2922 217.746L97.2339 217.724Z" fill="#062D28"/>
<path d="M86.9887 216.95C89.1876 216.95 90.9702 215.168 90.9702 212.969C90.9702 210.77 89.1876 208.987 86.9887 208.987C84.7898 208.987 83.0072 210.77 83.0072 212.969C83.0072 215.168 84.7898 216.95 86.9887 216.95Z" fill="white"/>
<path d="M42.1638 183.516L42.3607 182.926C42.4191 182.765 42.4847 182.597 42.543 182.452C42.6743 182.138 42.8055 181.839 42.9441 181.547C43.2261 180.972 43.5477 180.416 43.9066 179.885C44.6073 178.825 45.4242 177.846 46.3422 176.968C48.1767 175.218 50.3043 173.804 52.628 172.79C57.1199 170.935 61.9757 170.13 66.8258 170.434C67.9998 170.478 69.1447 170.602 70.2968 170.719C71.449 170.835 72.5793 171.047 73.6877 171.273C74.8509 171.488 76.0022 171.763 77.1368 172.097L78.8505 172.687C79.4193 172.899 79.9662 173.161 80.5204 173.417C82.7238 174.43 84.7676 175.759 86.5874 177.362C87.494 178.17 88.3284 179.056 89.0813 180.009C89.4532 180.49 89.8105 180.986 90.1387 181.511C90.3064 181.766 90.4595 182.051 90.6127 182.328C90.7658 182.605 90.8898 182.867 91.0793 183.254C91.2108 183.517 91.289 183.804 91.3095 184.097C91.3301 184.391 91.2926 184.686 91.1991 184.965C91.1056 185.244 90.9581 185.502 90.7648 185.723C90.5716 185.945 90.3365 186.127 90.073 186.258C89.7443 186.427 89.3775 186.507 89.0084 186.491L87.3531 186.44C87.142 186.392 86.9367 186.321 86.7405 186.229L86.0697 185.959L84.7352 185.427C83.8602 185.062 82.9705 184.749 82.11 184.421C80.3745 183.793 78.6609 183.232 76.9399 182.743L75.6565 182.393L74.3658 182.029C73.4908 181.825 72.6595 181.628 71.6896 181.438C69.8442 181.049 67.9798 180.757 66.1038 180.563C62.562 180.106 58.9698 180.222 55.4647 180.906C53.8065 181.261 52.2029 181.835 50.6956 182.612C49.9321 183.001 49.2006 183.449 48.508 183.954C48.158 184.202 47.8371 184.479 47.5162 184.749C47.3558 184.887 47.2027 185.033 47.0568 185.172L46.8454 185.376C46.787 185.42 46.6995 185.536 46.6922 185.485C46.4311 186.088 45.9414 186.562 45.3308 186.803C44.7202 187.044 44.0387 187.033 43.4363 186.772C42.8339 186.511 42.3598 186.021 42.1184 185.411C41.8771 184.8 41.8882 184.119 42.1492 183.516H42.1638Z" fill="#062D28"/>
<path d="M168.609 186.696C149.074 191.326 140.965 199.143 136.655 204.481C134.519 207.128 134.548 211.678 135.598 214.982C138.661 224.651 153.223 233.555 159.626 233.022C160.194 236.792 162.338 238.258 164.169 237.835C165.809 237.449 166.743 235.247 166.451 232.731C166.713 232.68 170.826 231.724 170.826 231.724C172.204 234.503 174.713 236.019 176.427 235.108C178.002 234.269 178.337 231.666 177.309 229.092C178.488 228.479 179.621 227.782 180.7 227.006C182.807 229.296 185.571 230.098 186.971 228.771C188.371 227.444 187.868 224.542 185.906 222.15C187.342 220.675 188.656 219.088 189.837 217.403C199.725 203.278 198.033 179.724 168.609 186.696Z" fill="white"/>
<mask id="mask5_52_202" style="mask-type:alpha" maskUnits="userSpaceOnUse" x="142" y="185" width="45" height="44">
<path d="M142.183 198.108C142.183 198.108 145.894 206.603 149.592 215.995C156.001 232.308 172.401 228.91 177.688 225.533C189.56 217.957 186.03 193.273 186.03 193.273L162.236 185.347L142.183 198.108Z" fill="#677F49"/>
</mask>
<g mask="url(#mask5_52_202)">
<path d="M136.991 182.291C136.991 182.291 145.894 206.603 149.591 215.995C156.001 232.308 172.401 228.91 177.688 225.533C189.56 217.957 186.03 193.273 186.03 193.273L136.991 182.291Z" fill="#677F49"/>
<path d="M129.706 179.265L149.905 220.101C149.905 220.101 149.489 214.996 155.207 211.547C156.534 210.745 158.568 210.563 158.656 212.123C158.739 213.371 159.068 214.589 159.624 215.709C160.18 216.828 160.952 217.827 161.895 218.647C162.839 219.467 163.935 220.092 165.121 220.487C166.307 220.882 167.56 221.038 168.806 220.947C173.838 220.48 177.141 215.572 176.74 209.717C176.653 208.375 177.331 208.003 178.592 208.412C184.878 210.446 187.015 214.406 187.015 214.406L184.885 166.387L129.706 179.265Z" fill="#072E29"/>
<path fill-rule="evenodd" clip-rule="evenodd" d="M165.561 216.841C165.204 216.549 165.43 215.616 166.05 214.654L165.671 214.705C163.629 214.931 161.915 214.53 161.835 213.822C161.755 213.115 163.111 212.473 164.92 212.189C163.388 211.182 162.462 209.936 162.798 209.272C163.133 208.608 164.592 208.783 166.203 209.593C166.101 207.485 166.531 205.823 167.275 205.743C168.019 205.662 168.806 207.201 169.164 209.308C170.578 208.134 172.015 207.646 172.482 208.207C172.948 208.769 172.314 210.191 171.023 211.511C172.81 211.409 174.232 211.795 174.305 212.444C174.378 213.093 172.795 213.902 170.753 214.136H170.462C171.278 214.953 171.701 215.813 171.424 216.185C171.147 216.557 169.966 216.185 168.901 215.303L168.704 215.135L168.887 216.739C168.897 216.793 168.896 216.849 168.884 216.903C168.871 216.957 168.848 217.008 168.815 217.053C168.782 217.097 168.741 217.134 168.693 217.162C168.645 217.189 168.592 217.207 168.537 217.213C168.482 217.219 168.426 217.214 168.373 217.197C168.32 217.181 168.271 217.153 168.23 217.117C168.188 217.081 168.154 217.036 168.13 216.986C168.107 216.936 168.093 216.882 168.092 216.827L167.917 215.281L167.815 215.419C166.976 216.557 165.962 217.191 165.561 216.841Z" fill="#677F49"/>
</g>
<g style="mix-blend-mode:multiply" opacity="0.2">
<path d="M132.703 211.27C132.703 211.27 151.159 182.94 185.563 181.7C185.563 181.7 155.534 175.05 136.881 189.386C127.788 196.365 132.703 211.27 132.703 211.27Z" fill="#906B5F"/>
</g>
<path d="M131.974 211.044C132.384 208.793 133.121 206.614 134.161 204.576C135.18 202.504 136.419 200.548 137.859 198.742C139.307 196.907 140.923 195.21 142.686 193.674C144.47 192.139 146.374 190.749 148.381 189.518C152.413 187.082 156.761 185.213 161.303 183.961C162.433 183.67 163.563 183.341 164.701 183.123C165.838 182.904 166.983 182.612 168.128 182.452C169.273 182.291 170.425 182.08 171.57 181.978C172.715 181.876 173.874 181.693 175.019 181.642C176.164 181.591 177.323 181.482 178.468 181.482H180.182H181.042C181.327 181.482 181.611 181.482 181.961 181.482C184.845 181.485 187.697 182.08 190.34 183.232C193.391 184.564 195.961 186.798 197.705 189.634C199.3 192.308 200.149 195.36 200.162 198.473C200.166 201.119 199.772 203.752 198.996 206.282C198.296 208.6 197.342 210.833 196.152 212.94C193.895 216.953 190.97 220.551 187.503 223.579V221.333C188.401 222.479 189.04 223.804 189.377 225.22C189.565 225.99 189.61 226.789 189.509 227.575C189.407 228.504 188.993 229.37 188.335 230.033C187.646 230.689 186.733 231.056 185.782 231.061C184.996 231.068 184.217 230.904 183.5 230.58C182.235 230.002 181.12 229.141 180.24 228.064L181.604 228.202C180.413 228.888 179.176 229.488 177.9 229.996V229.996L178.177 229.194C178.77 230.359 179.075 231.65 179.066 232.957C179.042 233.689 178.823 234.401 178.432 235.021C177.999 235.667 177.366 236.154 176.631 236.406C175.932 236.638 175.189 236.705 174.46 236.601C173.732 236.497 173.037 236.226 172.43 235.808C171.825 235.4 171.311 234.871 170.921 234.255C170.545 233.654 170.262 233 170.082 232.315C170.115 232.487 170.19 232.647 170.301 232.782C170.46 232.973 170.683 233.1 170.928 233.139C171.017 233.157 171.109 233.157 171.198 233.139H171.307H171.242H171.103L170.833 233.205L170.279 233.343L169.185 233.606L168.084 233.868L166.925 234.138L167.844 232.913C167.804 234.2 167.519 235.467 167.005 236.647C166.722 237.264 166.3 237.808 165.773 238.236C165.199 238.672 164.495 238.904 163.775 238.893C163.081 238.876 162.403 238.675 161.813 238.309C161.25 237.948 160.756 237.489 160.355 236.953C159.622 235.911 159.072 234.752 158.729 233.526L159.786 234.532C158.699 234.306 157.598 234.065 156.512 233.73C155.404 233.406 154.346 232.93 153.369 232.315C153.309 232.279 153.257 232.231 153.217 232.174C153.177 232.116 153.149 232.051 153.135 231.983C153.121 231.914 153.122 231.843 153.137 231.775C153.152 231.707 153.182 231.642 153.223 231.586C153.286 231.49 153.379 231.419 153.488 231.385C153.597 231.35 153.715 231.354 153.821 231.396C155.761 232.126 157.861 232.126 160.012 232.126L160.413 232.235C160.607 232.289 160.778 232.407 160.897 232.57C161.016 232.732 161.077 232.93 161.069 233.132C161.01 234.141 161.221 235.149 161.682 236.049C161.872 236.46 162.165 236.816 162.533 237.08C162.901 237.345 163.331 237.509 163.782 237.558C164.197 237.582 164.605 237.45 164.927 237.186C165.269 236.886 165.521 236.498 165.656 236.063C165.96 235.112 165.945 234.088 165.612 233.147C165.537 232.931 165.55 232.694 165.649 232.488C165.747 232.282 165.923 232.123 166.137 232.045V232.045L166.502 231.929L168.646 231.469L169.747 231.229L170.294 231.105L170.571 231.046H170.71H170.782H170.892C170.991 231.032 171.092 231.032 171.191 231.046C171.444 231.083 171.676 231.207 171.847 231.396C171.963 231.529 172.047 231.686 172.095 231.856C172.245 232.798 172.732 233.653 173.466 234.262C173.824 234.546 174.242 234.743 174.689 234.837C175.135 234.932 175.598 234.923 176.04 234.809C176.464 234.683 176.836 234.426 177.105 234.075C177.374 233.724 177.524 233.297 177.535 232.855C177.603 231.777 177.408 230.698 176.966 229.712V229.712C176.909 229.569 176.906 229.411 176.957 229.266C177.008 229.121 177.11 229 177.243 228.924V228.924C178.327 228.209 179.358 227.417 180.328 226.554C180.495 226.401 180.713 226.315 180.94 226.315C181.167 226.315 181.386 226.401 181.553 226.554L181.691 226.686C182.424 227.426 183.317 227.987 184.302 228.326C184.706 228.47 185.137 228.519 185.564 228.472C185.704 228.469 185.843 228.435 185.969 228.372C186.095 228.309 186.206 228.219 186.293 228.108C186.445 227.786 186.524 227.435 186.524 227.08C186.524 226.724 186.445 226.373 186.293 226.051C185.961 225.131 185.439 224.292 184.761 223.587V223.587C184.517 223.379 184.354 223.092 184.299 222.777C184.245 222.461 184.302 222.136 184.462 221.858L184.769 221.341C186.864 217.865 188.478 214.122 189.567 210.213C190.065 208.388 190.387 206.52 190.529 204.634C190.68 202.965 190.514 201.283 190.041 199.676C189.697 198.49 188.994 197.44 188.028 196.671C187.192 196.113 186.271 195.692 185.301 195.424C183.95 195.019 182.567 194.728 181.166 194.557C180.984 194.557 180.736 194.506 180.481 194.491L179.752 194.433L178.293 194.316C177.294 194.221 176.31 194.229 175.318 194.185C167.413 193.93 159.545 194.659 152.217 197.284C150.384 197.954 148.594 198.736 146.857 199.625C145.106 200.546 143.424 201.594 141.825 202.76C140.198 203.959 138.664 205.28 137.239 206.713C135.796 208.181 134.501 209.788 133.374 211.511L133.33 211.576C133.26 211.758 133.122 211.905 132.944 211.984C132.766 212.064 132.564 212.069 132.382 211.999C132.2 211.93 132.054 211.791 131.974 211.613C131.895 211.435 131.89 211.233 131.959 211.051L131.974 211.044Z" fill="#062D28"/>
<path d="M178.629 197.59C180.828 197.59 182.61 195.808 182.61 193.609C182.61 191.41 180.828 189.627 178.629 189.627C176.43 189.627 174.647 191.41 174.647 193.609C174.647 195.808 176.43 197.59 178.629 197.59Z" fill="white"/>
<path d="M174.224 164.71L171.162 164.747L168.07 164.82C166.028 164.878 164.001 164.973 162.01 165.133C158.193 165.374 154.413 166.015 150.729 167.044C149.074 167.518 147.475 168.171 145.96 168.991L145.421 169.29L144.83 169.647C144.436 169.888 144.028 170.114 143.649 170.376C142.868 170.85 142.11 171.361 141.337 171.835C139.82 172.87 138.318 173.957 136.83 175.123C136.101 175.714 135.372 176.312 134.643 176.932L133.527 177.88C133.338 178.04 133.163 178.193 132.966 178.346C132.806 178.496 132.633 178.63 132.448 178.747L130.938 179.316C130.569 179.458 130.169 179.5 129.779 179.438C129.389 179.375 129.022 179.21 128.716 178.96C128.41 178.709 128.176 178.382 128.037 178.012C127.898 177.642 127.86 177.241 127.927 176.852C127.992 176.414 128.036 176.122 128.102 175.809C128.167 175.495 128.233 175.174 128.313 174.883C128.473 174.282 128.666 173.691 128.889 173.111C129.326 171.962 129.863 170.855 130.494 169.8C131.749 167.703 133.293 165.793 135.08 164.127L136.451 162.924C136.933 162.544 137.421 162.194 137.91 161.815C138.398 161.436 138.916 161.137 139.426 160.802L140.192 160.313C140.462 160.153 140.761 159.999 141.053 159.846C142.193 159.236 143.372 158.7 144.582 158.242C145.761 157.826 146.961 157.471 148.177 157.177C152.793 156.138 157.552 155.892 162.251 156.448C164.506 156.709 166.742 157.116 168.945 157.666C170.039 157.936 171.133 158.257 172.19 158.614C173.282 158.969 174.356 159.38 175.406 159.846C175.928 160.079 176.356 160.484 176.617 160.992C176.879 161.501 176.96 162.084 176.846 162.644C176.732 163.205 176.431 163.71 175.991 164.076C175.552 164.443 175.001 164.648 174.429 164.659L174.224 164.71Z" fill="#062D28"/>
<path d="M38.9338 96.0548C38.9338 96.0548 66.5053 26.6046 127.424 30.4257C127.424 30.4257 136.969 19.3125 160.07 19.4073C174.655 19.4729 285.757 23.9722 286.837 157.491C292.831 244.624 221.791 262.074 221.791 262.074C221.791 262.074 231.205 126.594 137.808 108.852C44.4102 91.1107 38.9338 96.0548 38.9338 96.0548Z" fill="#072E29"/>
<path d="M257.872 98.979C258.426 99.8978 258.857 100.649 259.331 101.48L260.665 103.923C261.545 105.542 262.391 107.175 263.203 108.823C264.831 112.119 266.377 115.442 267.841 118.792C269.304 122.141 270.697 125.52 272.019 128.928C273.302 132.348 274.557 135.782 275.701 139.253C280.366 153.128 283.745 167.403 285.794 181.898C286.834 189.15 287.489 196.452 287.755 203.774C287.821 205.604 287.843 207.42 287.887 209.272C287.93 211.124 287.887 212.918 287.887 214.771C287.887 216.623 287.814 218.548 287.668 220.458C287.507 222.398 287.249 224.328 286.895 226.241C286.211 230.163 285.007 233.977 283.314 237.58C281.588 241.277 279.234 244.647 276.358 247.541C273.502 250.418 270.144 252.746 266.448 254.411C264.635 255.226 262.754 255.88 260.826 256.365C259.863 256.605 258.893 256.81 257.909 256.955C257.42 257.028 256.924 257.087 256.45 257.138L255.685 257.196L254.824 257.24C254.132 257.276 253.451 257.062 252.904 256.635C252.358 256.209 251.985 255.599 251.852 254.919C251.72 254.239 251.838 253.534 252.185 252.934C252.531 252.334 253.083 251.88 253.738 251.654L254.401 251.428L254.868 251.319L255.429 251.173C255.809 251.071 256.159 250.954 256.567 250.83C257.296 250.589 258.091 250.32 258.828 250.013C260.306 249.415 261.735 248.7 263.101 247.877C264.446 247.061 265.723 246.139 266.922 245.12C268.096 244.11 269.187 243.005 270.181 241.817C272.159 239.425 273.751 236.738 274.899 233.854C275.488 232.392 275.975 230.891 276.358 229.362C276.763 227.811 277.08 226.238 277.306 224.651C277.539 223.047 277.678 221.421 277.751 219.78C277.823 218.14 277.867 216.535 277.816 214.749C277.765 212.962 277.78 211.263 277.692 209.52C277.605 207.777 277.539 206.035 277.43 204.299C276.999 197.335 276.183 190.4 275.104 183.502C272.877 169.695 269.499 156.099 265.004 142.856C262.773 136.227 260.271 129.686 257.559 123.254C256.178 120.041 254.734 116.864 253.227 113.724C252.498 112.163 251.703 110.603 250.916 109.064L249.727 106.774C249.333 106.045 248.896 105.228 248.538 104.587L248.502 104.514C247.824 103.269 247.656 101.809 248.033 100.442C248.41 99.0753 249.304 97.9086 250.525 97.1879C251.746 96.4672 253.199 96.2489 254.578 96.5789C255.957 96.909 257.154 97.7617 257.916 98.9571L257.872 98.979Z" fill="#072E29"/>
<path d="M262.503 95.5881L264.136 96.7184C264.756 97.1413 265.412 97.5934 266.047 98.0601C267.337 98.9862 268.621 99.9779 269.831 101.028C272.279 103.113 274.565 105.38 276.671 107.81C280.807 112.608 284.327 117.904 287.15 123.575C289.93 129.127 292.216 134.913 293.983 140.865C295.73 146.713 297.091 152.668 298.059 158.694C299.051 164.674 299.707 170.682 300.13 176.677C300.276 179.681 300.487 182.678 300.538 185.675L300.655 190.109L300.713 192.194L300.816 194.265C301.166 199.756 302.004 205.203 303.864 209.878C304.333 211.018 304.881 212.124 305.504 213.188C306.111 214.194 306.819 215.135 307.619 215.996C308.383 216.824 309.259 217.541 310.222 218.125C310.686 218.411 311.174 218.655 311.681 218.854C311.929 218.956 312.177 219.044 312.41 219.124L312.76 219.226L312.913 219.263H312.972C312.972 219.263 313.015 219.263 312.972 219.263C313.355 219.246 313.737 219.305 314.097 219.436C314.458 219.567 314.789 219.768 315.071 220.027C315.354 220.286 315.583 220.598 315.745 220.945C315.907 221.293 315.999 221.669 316.016 222.052C316.033 222.435 315.974 222.817 315.843 223.178C315.712 223.538 315.511 223.869 315.252 224.152C314.993 224.434 314.681 224.663 314.333 224.825C313.986 224.987 313.61 225.079 313.227 225.096H312.709H312.315C312.053 225.096 311.819 225.096 311.586 225.096C311.112 225.069 310.64 225.016 310.171 224.936C309.255 224.78 308.357 224.536 307.488 224.207C305.777 223.575 304.175 222.679 302.741 221.552C300.015 219.368 297.779 216.635 296.178 213.531C294.651 210.63 293.473 207.558 292.67 204.379C291.891 201.32 291.335 198.208 291.008 195.067L290.774 192.748L290.636 190.437L290.381 186.061C290.249 183.181 289.95 180.33 289.724 177.471C289.126 171.769 288.375 166.11 287.34 160.517C285.261 149.368 282.038 138.48 277.051 128.68C275.825 126.243 274.459 123.878 272.96 121.599C271.496 119.339 269.893 117.171 268.161 115.109C266.441 113.081 264.571 111.185 262.568 109.436C261.569 108.561 260.541 107.729 259.469 106.905C258.937 106.497 258.39 106.096 257.814 105.673C257.238 105.25 256.625 104.827 255.867 104.215C254.756 103.341 254.027 102.072 253.832 100.673C253.636 99.2735 253.99 97.8529 254.818 96.7086C255.647 95.5642 256.886 94.7849 258.276 94.5339C259.667 94.2829 261.1 94.5797 262.277 95.362L262.503 95.5881Z" fill="#072E29"/>
<path d="M252.031 178.58C241.458 177.967 234.428 184.858 235.828 190.728C235.828 190.728 232.999 244.464 232.999 244.493C232.882 246.601 241.356 243.822 241.902 243.589C257.435 236.858 267.892 225.03 272.828 209.053C275.439 200.609 272.865 179.797 252.031 178.58Z" fill="#CDACA3"/>
<path d="M120.503 38.2063C120.503 38.2063 101.712 30.3746 108.552 20.7636C115.392 11.1526 136.947 -1.57948 169.397 0.345636C201.847 2.27076 269.795 22.1418 283.351 60.965C296.907 99.7883 236.798 104.193 214.841 89.8856C192.885 75.5784 168.843 40.9627 120.503 38.2063Z" fill="#1B1E17"/>
<path fill-rule="evenodd" clip-rule="evenodd" d="M231.985 89.5429C231.715 88.8647 232.714 87.7417 234.311 86.8521L233.75 86.6333C230.753 85.4228 228.645 83.5925 229.083 82.5425C229.52 81.4924 231.861 81.6237 234.581 82.5862C233.218 80.0413 232.853 77.6203 233.801 76.9713C234.749 76.3223 236.659 77.6349 238.3 79.9611C239.722 76.9494 241.567 74.9732 242.675 75.4108C243.784 75.8483 243.718 78.5901 242.675 81.7695C245.512 81.208 247.867 81.5872 248.101 82.7248C248.334 83.8623 246.387 85.3499 243.623 86.2323C246.183 87.4282 247.867 89.0179 247.488 89.9731C247.109 90.9284 244.294 90.8773 241.297 89.6669L240.867 89.4846C241.392 91.2274 241.341 92.7441 240.677 93.0431C240.014 93.3421 238.643 92.0003 237.834 89.9367C237.782 89.8127 237.739 89.6814 237.695 89.5575L236.74 91.9201C236.71 92 236.666 92.0732 236.608 92.1356C236.55 92.198 236.481 92.2483 236.403 92.2835C236.326 92.3188 236.242 92.3384 236.157 92.3411C236.072 92.3438 235.988 92.3296 235.908 92.2993C235.751 92.2305 235.627 92.102 235.564 91.9421C235.501 91.7821 235.505 91.6038 235.573 91.4461L236.484 89.171L236.244 89.2877C234.173 90.2065 232.291 90.3231 231.985 89.5429Z" fill="#677F49"/>
<path d="M140.338 30.1412C125.753 29.9954 122.377 39.3074 118.571 46.5631C117.207 46.4026 118.221 41.2544 110.491 38.0604C62.8662 18.3936 -4.31607 101.487 29.3516 217.993C36.3156 247.031 23.7877 258.027 16.5321 259.238C16.0753 259.338 15.6575 259.569 15.3292 259.902C15.0008 260.235 14.776 260.657 14.6819 261.115C14.5878 261.573 14.6285 262.049 14.7989 262.484C14.9694 262.92 15.2624 263.297 15.6424 263.569C18.9968 266.092 25.2972 268.353 36.7094 265.917C37.1359 265.835 37.5769 265.87 37.985 266.019C38.3932 266.168 38.753 266.425 39.0259 266.763C39.2987 267.101 39.4744 267.507 39.5339 267.938C39.5934 268.368 39.5346 268.807 39.3637 269.206C37.5698 273.647 32.8008 280.312 20.3459 282.602C19.8418 282.706 19.3841 282.968 19.0393 283.351C18.6945 283.733 18.4805 284.215 18.4285 284.728C18.3765 285.24 18.4891 285.755 18.7499 286.199C19.0108 286.643 19.4064 286.992 19.8792 287.196C32.6768 292.541 59.0524 298.965 78.1286 272.641C79.587 270.584 79.1641 270.453 76.94 269.031C45.4307 249.116 45.9266 214.77 37.3219 196.759C9.46603 138.517 90.8752 4.18126 110.622 69.0811C111.461 65.1288 114.079 52.4551 131.966 46.9422C147.892 42.0346 206.944 90.1699 209 187.68C210.335 224.206 196.261 232.745 184.047 233.373C183.543 233.413 183.065 233.61 182.68 233.937C182.294 234.264 182.022 234.704 181.901 235.195C181.78 235.685 181.816 236.202 182.005 236.67C182.194 237.139 182.526 237.536 182.953 237.806C189.403 242.034 197.116 243.901 204.785 243.093C205.212 243.062 205.639 243.146 206.022 243.336C206.405 243.525 206.731 243.814 206.965 244.171C207.199 244.529 207.334 244.943 207.354 245.37C207.375 245.797 207.281 246.222 207.082 246.6C204.895 250.976 199.061 257.969 183.791 262.227C183.31 262.385 182.89 262.69 182.591 263.098C182.292 263.507 182.129 263.999 182.124 264.505C182.119 265.011 182.273 265.507 182.564 265.921C182.856 266.335 183.269 266.647 183.748 266.814C197.683 271.328 227.099 276.33 253.22 236.705C287.821 184.246 218.137 31.0527 140.338 30.1412Z" fill="#0C3831"/>
<path d="M56.0119 112.666V129.139C56.0119 129.139 54.5535 158.716 67.5626 185.784C69.0732 188.994 71.5409 191.657 74.6266 193.406C77.7122 195.156 81.2641 195.907 84.7939 195.556L129.735 190.772C137.261 189.977 141.454 181.409 137.705 174.503C130.027 160.349 119.563 138.488 117.455 121.074C114.05 92.89 56.0119 112.666 56.0119 112.666Z" fill="#104239"/>
<path d="M116.726 110.566L118.571 125.289C118.571 125.289 129.509 158.833 153.405 182.248C155.19 184.018 157.353 185.36 159.731 186.172C162.11 186.984 164.642 187.246 167.136 186.936C171.023 186.426 172.875 181.708 170.44 178.47C161.099 166.023 143.328 140.07 140.907 119.885C137.611 92.3212 116.726 110.566 116.726 110.566Z" fill="#104239"/>
<path d="M135.146 123.582C150.131 149.309 180.831 186.805 231.066 182.736C239.452 182.058 244.776 176.691 242.005 172.826C239.234 168.961 232.569 166.919 227.902 164.477C227.902 164.477 244.725 161.166 240.575 153.356C237.396 147.369 211.473 145.51 211.473 145.51C211.473 145.51 191.332 59.9805 124.798 58.646C44.68 57.0417 5.45573 118.04 14.5709 179.921C14.5709 179.921 1.51069 188.92 3.04204 197.422C3.04204 197.422 5.84221 201.287 17.2544 194.783C17.2544 194.783 2.93265 208.404 6.11202 214.391C9.29138 220.378 21.4765 218.117 33.3845 202.724C46.7145 185.536 45.3217 162.617 57.3172 133.259C60.132 126.353 133.629 120.972 135.146 123.582Z" fill="#104239"/>
<path d="M62.3779 102.392C63.603 110.53 58.4693 116.932 50.7105 118.113C42.9517 119.295 32.0937 121.161 30.876 113.009C29.6582 104.856 41.8141 90.695 49.624 89.5063C57.4339 88.3177 61.1601 94.2462 62.3779 102.392Z" fill="#255C51"/>
<path d="M96.2038 109.909C96.4809 116.975 91.2889 121.525 84.5364 121.744C77.7839 121.962 68.8146 121.678 68.5375 114.619C68.2604 107.56 79.1694 97.3442 85.9365 97.1182C92.7036 96.8921 95.9194 102.85 96.2038 109.909Z" fill="#255C51"/>
<path d="M113.64 112.593C114.427 118.427 110.183 122.269 104.576 123.021C98.9682 123.772 91.975 123.356 91.1948 117.5C90.4145 111.645 97.8014 103.04 103.409 102.289C109.017 101.538 112.86 106.723 113.64 112.593Z" fill="#255C51"/>
<path d="M176.675 111.193C177.404 115.882 173.685 118.522 169.193 119.214C164.701 119.907 159.604 118.522 158.904 113.833C158.204 109.144 162.98 103.128 167.472 102.45C171.964 101.772 175.967 106.497 176.675 111.193Z" fill="#255C51"/>
<path d="M193.344 109.253C193.876 112.797 190.661 114.183 187.27 114.693C185.602 114.879 183.927 114.411 182.596 113.388C181.266 112.365 180.383 110.866 180.134 109.206C179.885 107.547 180.289 105.855 181.26 104.486C182.232 103.118 183.696 102.179 185.345 101.866C188.736 101.356 192.812 105.717 193.344 109.253Z" fill="#255C51"/>
<path d="M150.731 388.951C143.716 387.58 133.719 382.337 129.329 380.93C128.608 380.356 127.78 379.932 126.894 379.681C126.008 379.431 125.08 379.36 124.166 379.471L113.512 380.798L111.872 381.002C110.553 381.167 109.341 381.809 108.464 382.808C107.588 383.806 107.109 385.092 107.117 386.421L102.815 387.675L101.276 388.134C100.571 388.346 99.916 388.696 99.349 389.165C98.782 389.634 98.3147 390.212 97.9748 390.864C97.6349 391.517 97.4292 392.231 97.37 392.965C97.3108 393.698 97.3992 394.436 97.63 395.135L94.0642 396.476L92.6058 397.031C91.6282 397.395 90.7729 398.027 90.1378 398.855C89.5027 399.682 89.1135 400.672 89.0145 401.711C88.9156 402.749 89.1111 403.794 89.5785 404.727C90.046 405.66 90.7666 406.442 91.6578 406.984L88.8795 409.566L87.7784 410.579C87.0201 411.288 86.4796 412.198 86.2203 413.202C85.9609 414.207 85.9936 415.265 86.3143 416.252C86.6351 417.238 87.2307 418.113 88.0312 418.773C88.8317 419.434 89.804 419.852 90.8338 419.979L102.231 421.364C102.84 421.445 103.458 421.39 104.043 421.204C104.627 421.017 105.163 420.703 105.612 420.285C106.061 419.867 106.412 419.354 106.639 418.785C106.867 418.215 106.965 417.602 106.928 416.989C124.509 421.474 141.441 419.177 141.441 419.177C132.712 396.002 150.731 388.951 150.731 388.951Z" fill="#F8DEDB"/>
<path d="M134.528 420.905C128.629 405.132 128.512 395.703 147.654 387.412C148.981 386.853 150.394 386.525 151.832 386.442C163.069 386.267 165.738 386.639 178.084 387.237C179.907 387.325 181.001 389.046 179.542 390.555C168.254 402.164 172.848 412.767 180.199 422.553C181.154 423.822 179.761 425.535 177.668 425.47C163.478 425.178 152.576 423.428 137.496 422.888C136.863 422.878 136.247 422.685 135.72 422.333C135.194 421.981 134.78 421.486 134.528 420.905Z" fill="white"/>
<path d="M156.448 386.42H154.261C152.902 386.499 151.571 386.844 150.345 387.434C132.114 396.126 131.713 405.285 137.839 420.978C138.104 421.596 138.543 422.125 139.102 422.5C139.661 422.875 140.316 423.081 140.989 423.092L142.652 423.187L144.263 423.289C146.392 423.428 147.472 423.508 149.652 423.676C148.594 422.447 147.729 421.065 147.085 419.578C141.018 406.554 141.725 398.299 155.726 388.819C157.049 387.961 158.417 387.175 159.824 386.464C158.505 386.428 157.841 386.42 156.448 386.42Z" fill="#6B8A84"/>
<path d="M152.707 386.428H151.854C150.416 386.511 149.003 386.839 147.676 387.398C128.512 395.689 128.629 405.118 134.55 420.89C134.803 421.484 135.224 421.991 135.762 422.347C136.3 422.704 136.931 422.894 137.576 422.896L139.202 422.961H139.88C142.367 423.1 143.643 423.195 146.217 423.392C145.226 422.743 144.256 420.73 143.76 419.578C137.817 405.934 138.473 397.949 153.305 388.659C154.753 387.824 156.25 387.078 157.79 386.428C155.865 386.406 154.873 386.406 152.707 386.428Z" fill="#255C51"/>
<mask id="mask6_52_202" style="mask-type:alpha" maskUnits="userSpaceOnUse" x="155" y="274" width="136" height="170">
<path d="M241.797 284.222C226.281 296.804 221.877 317.721 221.39 337.691C220.99 354.103 220.823 369.875 220.823 369.875C220.823 369.875 210.731 370.604 213.21 378.523C213.21 378.523 198.4 379.916 183.612 380.827C168.823 381.739 138.86 432.405 166.621 440.929C194.382 449.454 225.257 438.143 249.656 432.259C275.587 426.009 285.067 427.606 289.377 414.984C293.686 402.361 284.316 314.775 279.78 292.906C274.784 268.797 257.118 271.797 241.797 284.222Z" fill="#32342C"/>
</mask>
<g mask="url(#mask6_52_202)">
<path d="M241.797 284.222C226.281 296.804 221.877 317.721 221.39 337.691C220.99 354.103 220.823 369.875 220.823 369.875C220.823 369.875 210.731 370.604 213.21 378.523C213.21 378.523 198.4 379.916 183.612 380.827C168.823 381.739 138.86 432.405 166.621 440.929C194.382 449.454 225.257 438.143 249.656 432.259C275.587 426.009 285.067 427.606 289.377 414.984C293.686 402.361 284.316 314.775 279.78 292.906C274.784 268.797 257.118 271.797 241.797 284.222Z" fill="#32342C"/>
<g style="mix-blend-mode:multiply" opacity="0.3">
<path d="M265.772 403.798C270.876 416.377 279.43 409.632 274.923 399.481C266.946 381.564 213.21 378.524 213.21 378.524C213.21 378.524 258.866 386.888 265.772 403.798Z" fill="#32342C"/>
</g>
<g style="mix-blend-mode:multiply" opacity="0.3">
<path d="M216.827 369.131L220.823 369.86C220.823 369.86 265.232 362.802 263.541 344.112C262.811 335.843 253.704 345.862 252.551 348.852C248.986 358.113 228.196 368.001 220.991 368.271C213.787 368.541 216.827 369.131 216.827 369.131Z" fill="#32342C"/>
</g>
</g>
<path d="M298.244 283.609C295.517 281.684 283.463 273.4 274.085 269.601C273.874 269.601 273.64 269.521 273.458 269.506C273.314 269.39 273.163 269.282 273.006 269.185C270.089 268.091 267.435 267.581 265.531 267.836C256.876 268.996 249.387 274.669 242.627 281.254C242.584 281.291 242.545 281.333 242.51 281.378L242.415 281.458C238.482 285.314 234.808 289.426 231.419 293.767H231.477C230.93 294.496 230.405 295.225 229.902 295.889C225.172 302.466 222.447 310.272 222.056 318.363L221.771 324.102C225.665 323.329 229.29 320.07 229.399 316.161C229.422 314.638 229.025 313.139 228.254 311.826C227.482 310.513 226.365 309.437 225.024 308.716C226.563 308.944 228.136 308.739 229.565 308.122C230.994 307.504 232.222 306.5 233.111 305.223C234.156 303.523 234.634 301.534 234.475 299.544C234.317 297.555 233.53 295.667 232.228 294.154C233.883 295.047 235.791 295.356 237.643 295.032C239.495 294.708 241.184 293.769 242.437 292.367C243.786 290.763 244.491 288.715 244.413 286.621C244.404 284.958 243.954 283.327 243.108 281.895C246.331 284.214 250.75 284.207 253.594 281.968C255.171 280.692 256.211 278.87 256.511 276.864C256.803 275.319 256.708 273.725 256.234 272.226C257.168 273.435 258.365 274.415 259.734 275.092C262.6 276.178 267.026 276.434 268.485 276.113C270.034 275.609 271.401 274.66 272.415 273.386C272.695 274.301 273.151 275.153 273.757 275.894C275.147 277.518 276.894 278.798 278.861 279.635C281.844 280.882 284.804 280.758 286.452 279.38C287.594 282.548 289.838 285.199 292.775 286.847C297.974 289.304 299.593 287.168 299.71 285.184C299.271 284.615 298.78 284.088 298.244 283.609V283.609Z" fill="#677F49"/>
<path d="M96.154 290.107L49.0979 377.612C47.5226 380.536 45.3869 383.121 42.8128 385.219C40.2386 387.317 37.2763 388.888 34.0951 389.841C30.914 390.795 27.5761 391.112 24.2722 390.776C20.9684 390.439 17.7631 389.455 14.8395 387.88C11.9159 386.304 9.33122 384.169 7.233 381.595C5.13478 379.02 3.56412 376.058 2.61072 372.877C1.65731 369.696 1.33982 366.358 1.67637 363.054C2.01292 359.75 2.99693 356.545 4.57221 353.621C5.36784 352.162 6.29798 350.78 7.35051 349.494L70.6243 272.927C73.0716 269.979 76.5262 268.046 80.3183 267.5C84.1104 266.955 87.9698 267.837 91.1483 269.976C94.3269 272.115 96.5981 275.358 97.5216 279.076C98.4451 282.794 97.9551 286.722 96.1467 290.1L96.154 290.107Z" fill="#F8DEDB"/>
<path d="M70.5877 294.256C70.5877 294.256 92.2672 301.249 106.428 287.416C106.428 287.416 113.91 285.768 117.79 282.91C117.79 282.91 90.0139 279.935 76.4287 267.254L70.5877 294.256Z" fill="#DDBCB6"/>
<path d="M47.0198 260.61L32.3991 226.542C31.7744 225.229 31.6966 223.723 32.1828 222.353C32.6689 220.984 33.6792 219.863 34.9914 219.239C36.3037 218.614 37.8103 218.536 39.1799 219.022C40.5494 219.508 41.6698 220.519 42.2945 221.831L59.5039 254.645C59.9271 255.45 60.1878 256.33 60.271 257.235C60.3543 258.14 60.2584 259.053 59.9889 259.921C59.7194 260.789 59.2815 261.595 58.7003 262.294C58.1192 262.993 57.406 263.571 56.6016 263.994C55.7972 264.417 54.9173 264.678 54.0122 264.761C53.1071 264.844 52.1944 264.748 51.3263 264.479C50.4582 264.209 49.6517 263.772 48.9528 263.19C48.254 262.609 47.6764 261.896 47.2531 261.092C47.1729 260.939 47.0927 260.764 47.0198 260.61Z" fill="#DDBCB6"/>
<path d="M64.2654 292.12L40.5514 255.659L52.1167 249.096C52.1167 249.096 60.1381 255.127 77.3256 261.165C93.3391 266.765 91.0639 283.902 85.3177 288.977C81.8444 291.894 77.8337 294.104 73.5118 295.481C71.8144 295.998 69.9951 295.95 68.3275 295.344C66.6599 294.738 65.2344 293.606 64.2654 292.12V292.12Z" fill="#F8DEDB"/>
<path d="M38.787 254.485L39.3776 231.435C39.3772 230.017 39.9268 228.654 40.9108 227.633C41.8947 226.612 43.2363 226.012 44.6534 225.96C46.0704 225.908 47.4523 226.408 48.5084 227.354C49.5645 228.301 50.2124 229.619 50.3158 231.034L52.6056 253.975C52.6975 254.88 52.6103 255.794 52.3489 256.665C52.0875 257.536 51.6571 258.348 51.0822 259.052C50.5073 259.757 49.7992 260.342 48.9983 260.773C48.1975 261.205 47.3195 261.474 46.4145 261.566C44.5869 261.751 42.7604 261.203 41.3368 260.042C39.9132 258.881 39.0091 257.202 38.8234 255.375C38.7959 255.079 38.7837 254.782 38.787 254.485V254.485Z" fill="#F8DEDB"/>
<mask id="mask7_52_202" style="mask-type:alpha" maskUnits="userSpaceOnUse" x="0" y="286" width="103" height="108">
<path d="M55.1285 308.243C55.1285 308.243 47.552 301.585 52.2846 294.752L56.1859 290.034C56.1859 290.034 49.1781 284.675 43.6726 287.679C29.1686 295.598 -0.072785 345.141 0.000136132 366.346C0.0730573 387.552 16.6262 394.282 29.3509 393.925C50.9501 393.393 74.3797 367.673 74.3797 367.673C74.3797 367.673 87.7461 365.34 96.7956 358.558C114.931 344.973 86.7471 308.133 86.7471 308.133L80.7895 318.991C80.7895 318.991 66.4459 316.796 55.1285 308.243Z" fill="#32342C"/>
</mask>
<g mask="url(#mask7_52_202)">
<path d="M55.1285 308.243C55.1285 308.243 47.552 301.585 52.2846 294.752L56.1859 290.034C56.1859 290.034 49.1781 284.675 43.6726 287.679C29.1686 295.598 -0.072785 345.141 0.000136132 366.346C0.0730573 387.552 16.6262 394.282 29.3509 393.925C50.9501 393.393 74.3797 367.673 74.3797 367.673C74.3797 367.673 87.7461 365.34 96.7956 358.558C114.931 344.973 86.7471 308.133 86.7471 308.133L80.7895 318.991C80.7895 318.991 66.4459 316.796 55.1285 308.243Z" fill="#32342C"/>
<g style="mix-blend-mode:multiply" opacity="0.3">
<path d="M79.8417 368.891L74.3799 367.673C74.3799 367.673 43.1331 366.813 30.6271 373.77C18.1212 380.726 28.7895 386.823 44.0228 378.604C59.256 370.386 79.8417 368.891 79.8417 368.891Z" fill="#32342C"/>
</g>
<g style="mix-blend-mode:multiply" opacity="0.3">
<path d="M47.3987 297.392C47.3987 297.392 39.9389 295.015 36.8033 304.866C33.6677 314.718 43.6068 324.183 43.6068 324.183C43.6068 324.183 58.4827 339.234 82.5103 342.639C106.538 346.045 94.0683 329.893 93.1713 326.108C91.0931 317.161 97.9258 311.159 97.9258 311.159L61.3923 282.983L47.3987 297.392Z" fill="#32342C"/>
</g>
</g>
<mask id="mask8_52_202" style="mask-type:alpha" maskUnits="userSpaceOnUse" x="39" y="285" width="55" height="51">
<path d="M71.2661 335.588C55.5443 336.171 35.4253 323.272 39.7131 310.685C40.3699 308.917 41.1346 307.19 42.0028 305.515C48.223 295.263 46.5968 297.45 53.1889 286.738C54.1588 285.156 56.4047 284.937 56.412 286.585C56.5141 299.339 80.177 311.947 91.8007 308.294C93.3028 307.827 94.0904 309.971 93.1205 311.568C86.5576 322.375 87.017 323.374 79.9947 333.276C78.529 335.391 72.8193 335.544 71.2661 335.588Z" fill="white"/>
</mask>
<g mask="url(#mask8_52_202)">
<path d="M71.2661 335.588C55.5443 336.171 35.4253 323.272 39.7131 310.685C40.3699 308.917 41.1346 307.19 42.0028 305.515C48.223 295.263 46.5968 297.45 53.1889 286.738C54.1588 285.156 56.4047 284.937 56.412 286.585C56.5141 299.339 80.177 311.947 91.8007 308.294C93.3028 307.827 94.0904 309.971 93.1205 311.568C86.5576 322.375 87.017 323.374 79.9947 333.276C78.529 335.391 72.8193 335.544 71.2661 335.588Z" fill="white"/>
<path d="M49.7398 295.116C52.4305 308.293 73.41 319.713 87.2285 318.393C87.7659 318.372 88.2917 318.23 88.7666 317.978C89.2414 317.725 89.6529 317.369 89.9704 316.935C90.1745 316.57 90.3787 316.205 90.5902 315.863C90.8017 315.52 90.9913 315.133 91.2027 314.798C92.0705 313.339 91.2027 311.392 89.7006 311.823C78.3103 315.17 54.4286 302.401 54.1807 290.019C54.1807 288.422 52.1316 288.466 51.2638 289.917L50.6367 290.953L50.0023 291.995C49.5549 292.974 49.4621 294.077 49.7398 295.116V295.116Z" fill="#6B8A84"/>
<path d="M93.3755 309.147C92.1504 306.091 89.0002 303.204 89.0002 303.204L86.0469 308.899C74.9045 308.315 59.6713 299.419 56.8784 289.611L59.715 286.162C56.5065 284.937 54.7783 285.535 54.7783 285.535C54.1164 285.718 53.5485 286.146 53.1886 286.731C52.9552 287.103 52.7219 287.46 52.4594 287.861L51.7739 289.013C51.2946 290.025 51.2113 291.18 51.5406 292.251C54.7199 305.617 74.9847 316.672 88.8908 315.396C89.4466 315.371 89.9895 315.221 90.4794 314.957C90.9692 314.693 91.3933 314.322 91.7201 313.872L92.4056 312.72L93.0911 311.582C93.3217 311.225 93.4672 310.82 93.5165 310.398C93.5658 309.975 93.5176 309.547 93.3755 309.147V309.147Z" fill="#255C51"/>
<g style="mix-blend-mode:multiply">
<path d="M35.5491 326.735C35.5491 326.735 71.7617 325.466 80.031 305.056C88.3002 284.645 99.7197 309.154 99.7197 309.154L82.5249 342.639C82.5249 342.639 49.2145 346.57 35.5491 326.735Z" fill="#DCDDDD"/>
</g>
</g>
<defs>
<radialGradient id="paint0_radial_52_202" cx="0" cy="0" r="1" gradientUnits="userSpaceOnUse" gradientTransform="translate(63.5114 240.523) rotate(-10.5248) scale(24.3545 25.3879)">
<stop stop-color="#906B5F"/>
<stop offset="0.21" stop-color="#906B5F" stop-opacity="0.98"/>
<stop offset="0.38" stop-color="#906B5F" stop-opacity="0.91"/>
<stop offset="0.53" stop-color="#906B5F" stop-opacity="0.8"/>
<stop offset="0.67" stop-color="#906B5F" stop-opacity="0.63"/>
<stop offset="0.8" stop-color="#906B5F" stop-opacity="0.43"/>
<stop offset="0.93" stop-color="#906B5F" stop-opacity="0.17"/>
<stop offset="1" stop-color="#906B5F" stop-opacity="0"/>
</radialGradient>
<radialGradient id="paint1_radial_52_202" cx="0" cy="0" r="1" gradientUnits="userSpaceOnUse" gradientTransform="translate(186.013 231.491) rotate(-10.5248) scale(24.3545 25.3879)">
<stop stop-color="#906B5F"/>
<stop offset="0.21" stop-color="#906B5F" stop-opacity="0.98"/>
<stop offset="0.38" stop-color="#906B5F" stop-opacity="0.91"/>
<stop offset="0.53" stop-color="#906B5F" stop-opacity="0.8"/>
<stop offset="0.67" stop-color="#906B5F" stop-opacity="0.63"/>
<stop offset="0.8" stop-color="#906B5F" stop-opacity="0.43"/>
<stop offset="0.93" stop-color="#906B5F" stop-opacity="0.17"/>
<stop offset="1" stop-color="#906B5F" stop-opacity="0"/>
</radialGradient>
</defs>
</svg>
