<svg xmlns="http://www.w3.org/2000/svg" xmlns:xlink="http://www.w3.org/1999/xlink" viewBox="0 0 866.99 804.72"><defs><style>.a1efc333-4f00-4bf6-b90b-02f899dd2de0,.bcf4e090-e19a-4460-9723-d1e1498c4e3f,.bf6aecd1-ca02-46c3-ae5d-47efa4bf2db5,.f2042bf2-2690-4d68-aa58-4a41a305d020{fill:none;}.e3c8a035-984e-4221-ace6-5a55a1e8312a{isolation:isolate;}.f483d34f-af98-4e37-b38d-6d08fa05626a{fill:#cdaca3;}.a6d931aa-de4b-4c67-85e2-a5ff84c6b2b1{fill:#1b1e17;}.a751d376-b30c-4d8c-9530-888f302b1130,.fb53b50f-e1ee-46fc-8d3c-be32d76cbc59{fill:#677f49;}.e6adfe2a-fbed-4d53-b5b3-f8ac624856d9{clip-path:url(#e300740f-2788-44c5-abaa-a0008b5bd791);}.f6574663-e300-48d4-b5f6-ed59b1050b8e{fill:#cfd1d1;}.b49482ed-9073-48e4-9296-cf35b662844b{fill:#dcdddd;}.b208b111-cf1a-415b-b2eb-a356c46fbd60,.b49482ed-9073-48e4-9296-cf35b662844b,.f7de66aa-dfd5-411c-8e28-c25fbe5ac4ce{mix-blend-mode:multiply;}.f2042bf2-2690-4d68-aa58-4a41a305d020{stroke:#677f49;stroke-miterlimit:10;stroke-width:3px;}.a341a221-af83-437a-b60d-c34dfbd4700d,.b208b111-cf1a-415b-b2eb-a356c46fbd60{fill:#32342c;}.bcd1bd9e-7d61-4273-81dc-1cb4a48bc791{fill:#f8dedb;}.a654a74e-7894-4e2b-a06d-ba48838a3355,.b9785378-34e8-4414-8204-15c462cf0219{opacity:0.5;}.a654a74e-7894-4e2b-a06d-ba48838a3355{fill:url(#a94f4255-41c5-47c1-be10-84995c23f2f4);}.b9785378-34e8-4414-8204-15c462cf0219{fill:url(#b98a6cf9-ac4a-4793-bf85-686a07fe79b3);}.b036cd26-d9c1-48ce-a6e5-1bf7952a0497{fill:#072e29;}.a751d376-b30c-4d8c-9530-888f302b1130{fill-rule:evenodd;}.b3b13d43-b45f-4438-85e9-44fa42c6c01f{fill:#0c3831;}.a66f5eaf-1206-416d-bae9-e4053d66f823{fill:#c29d80;}.a54768d9-d2d6-4995-ad71-d22f73e5dc7e{clip-path:url(#a991449b-1fa0-4ed1-bc0a-3ed9a20d3582);}.a349edec-13b5-439c-95fa-8404a41d9a11,.a85f3139-fe00-4411-a874-184bf13ede30{fill:#fff;}.aed863b2-f60a-41f9-b88f-2f128bacb685{clip-path:url(#b546e1b8-0ce9-46dc-9193-26c52c01f4e1);}.f7de66aa-dfd5-411c-8e28-c25fbe5ac4ce{fill:#906b5f;opacity:0.2;}.eb2d922a-b472-4be6-a2f9-a085336d3660{fill:#062d28;}.b24de758-62a8-4b50-a467-2a8acd41bc42{clip-path:url(#a4b64b56-f165-4252-a567-2b08f327e97c);}.b83bbe5d-fb25-4788-b1f7-7db2d9318bf1{clip-path:url(#a2697371-6a74-4a03-8cae-c7af25c52f2a);}.bcf4e090-e19a-4460-9723-d1e1498c4e3f{stroke:#936b39;stroke-width:4px;}.bcf4e090-e19a-4460-9723-d1e1498c4e3f,.bf6aecd1-ca02-46c3-ae5d-47efa4bf2db5{stroke-linecap:round;stroke-linejoin:round;}.a85f3139-fe00-4411-a874-184bf13ede30{opacity:0.15;}.f13ffbff-23fa-4772-8d66-53eaca068371{fill:#dfbfba;}.e8205d37-cb97-4b7d-aec6-6c7fe7e28bc3{fill:#cba79f;}.b08835d1-e868-4996-bda9-aef1c1805c52{fill:#104239;}.b1f942ad-c34b-430e-8fc1-0e0b8774c91a{fill:#255c51;}.a921db7e-0c41-4034-8a60-1d01637bf28f{fill:#80313e;}.bf6aecd1-ca02-46c3-ae5d-47efa4bf2db5{stroke:#a45362;stroke-width:17px;}.eb9a6146-59fe-4ff8-a9af-b20eeccd7ec5{clip-path:url(#f08fba02-6497-4ce9-94c0-4ae8db8b3e0b);}.b208b111-cf1a-415b-b2eb-a356c46fbd60{opacity:0.3;}.aa305afb-8f5a-41e9-ab72-95be3aa49209{clip-path:url(#fe6ef9ed-2f5c-467b-8560-47dbf6e84d5e);}.fc6e73b2-af78-4259-88b9-d1fc0e788b5b{fill:#6b8a84;}.a7fb9ef8-7b58-4e4d-9910-6266757d0f88{fill:#ddbcb6;}.b4cb8d21-80ac-4a41-89bc-99252901098c{fill:url(#e7551233-9141-453f-87b2-21a02018719b);}.b19939bb-b3e7-4895-a530-061f0985d913{fill:url(#bff78e8f-2b26-462b-8817-d79dcf0982c1);}.e4f01c75-9fbc-46e4-a761-8cfc42ccb8bb{fill:url(#f2e20eed-05d4-4ce0-94d3-4ba4282b4c6e);}.ae14f544-68f2-47b8-80cf-21d8858c18b1{fill:url(#f70c240a-082f-4ca4-b4f8-13080467632f);}</style><clipPath id="e300740f-2788-44c5-abaa-a0008b5bd791"><path class="a1efc333-4f00-4bf6-b90b-02f899dd2de0" d="M560,456.83l-4.94-12a1.61,1.61,0,0,1,2.21-2.18c9.32,5.52,26.24,12.3,67.29,2.55,27.48-6.53,47.23-21,55.89-32.92a3.36,3.36,0,0,1,6,2.5l-5.39,31.78a10.88,10.88,0,0,0,4.47,10.74l37,25.86a1.2,1.2,0,0,1,0,2c-6.48,4.4-31.89,27.45-49.12,126a47.37,47.37,0,0,1-10.38,22.42c-13.86,16.48-44.52,44.05-92.33,40.22-46-3.68-57.44-47-58.77-59.31-7.2-66.93,17.51-136.82,17.51-136.82l27.9-14.13C559.76,462.06,561.37,459.16,560,456.83Z"/></clipPath><radialGradient id="a94f4255-41c5-47c1-be10-84995c23f2f4" cx="245.94" cy="285.43" r="41.85" gradientTransform="matrix(0.05, 0.94, -0.98, 0.05, 726.7, 112.93)" gradientUnits="userSpaceOnUse"><stop offset="0" stop-color="#906b5f"/><stop offset="0.21" stop-color="#906b5f" stop-opacity="0.98"/><stop offset="0.38" stop-color="#906b5f" stop-opacity="0.91"/><stop offset="0.53" stop-color="#906b5f" stop-opacity="0.8"/><stop offset="0.67" stop-color="#906b5f" stop-opacity="0.63"/><stop offset="0.8" stop-color="#906b5f" stop-opacity="0.43"/><stop offset="0.93" stop-color="#906b5f" stop-opacity="0.17"/><stop offset="1" stop-color="#906b5f" stop-opacity="0"/></radialGradient><radialGradient id="b98a6cf9-ac4a-4793-bf85-686a07fe79b3" cx="455.79" cy="307.67" r="41.85" gradientTransform="matrix(0.05, 0.94, -0.98, 0.05, 936.86, -72.63)" xlink:href="#a94f4255-41c5-47c1-be10-84995c23f2f4"/><clipPath id="a991449b-1fa0-4ed1-bc0a-3ed9a20d3582"><path class="a1efc333-4f00-4bf6-b90b-02f899dd2de0" d="M498.07,307.51c-12.3-5.88-30.93-12.54-50.82-11.5-9.66.5-16.77,9.61-15.37,19.75,1.8,13.07,6.72,30.65,19.88,41.48-2.23,4.3-2.06,9,.46,10.52s6.41-.57,8.83-4.73a45.77,45.77,0,0,0,5.75,2.06c-.73,4.25.59,8.1,3.22,8.85,2.86.83,6.13-2.29,7.32-7,0,0,6.5.11,6.91.09.36,3.95,2.46,7,5,7,2.87,0,5.62-2.88,5.27-8.8,14.26-4.67,20.4-17.36,21.36-28.79C516.94,324.27,508.65,312.58,498.07,307.51Z"/></clipPath><clipPath id="b546e1b8-0ce9-46dc-9193-26c52c01f4e1"><path class="a1efc333-4f00-4bf6-b90b-02f899dd2de0" d="M452.47,285.68s9,39.22,12.9,54.43c6.72,26.39,31.45,25.78,39.09,19.77,17-13.36,20.54-47.79,20.54-47.79Z"/></clipPath><clipPath id="a4b64b56-f165-4252-a567-2b08f327e97c"><path class="a1efc333-4f00-4bf6-b90b-02f899dd2de0" d="M595.64,309.78s3,13.87,6.82,29.14c6.59,26.49,33.63,24.82,42.86,20.77C666.05,350.6,666,311.83,666,311.83l-34.62-11.65Z"/></clipPath><clipPath id="a2697371-6a74-4a03-8cae-c7af25c52f2a"><path class="a1efc333-4f00-4bf6-b90b-02f899dd2de0" d="M582.62,319.08s2,9.57,5.84,24.84c6.59,26.49,33.53,24.58,42.86,20.77,22.62-9.24,20.51-57.37,20.51-57.37l-34.48-2.14Z"/></clipPath><clipPath id="f08fba02-6497-4ce9-94c0-4ae8db8b3e0b"><path class="a1efc333-4f00-4bf6-b90b-02f899dd2de0" d="M570.94,671.73s-3.37-18.89,11-29c13.72-9.63,86.16-3.29,134.36-14.06s57.46,14.86,68,44.82c10.69,30.4-42.85,35.41-76.73,52.35-33.24,16.62-95-8.74-115.84-15C567.5,703.51,586.74,676.72,570.94,671.73Z"/></clipPath><clipPath id="fe6ef9ed-2f5c-467b-8560-47dbf6e84d5e"><path class="a1efc333-4f00-4bf6-b90b-02f899dd2de0" d="M550.49,665.86s32.33-6.53,47.74-5.06c21,2,40,11.65,41.11,31.94,1.26,24-5.69,21.19-40.48,28.7-12.43,2.68-8.25-7.37-10.84-21S550.49,665.86,550.49,665.86Z"/></clipPath><linearGradient id="e7551233-9141-453f-87b2-21a02018719b" x1="466.33" y1="682.96" x2="513.9" y2="685.86" gradientUnits="userSpaceOnUse"><stop offset="0" stop-color="#f8dedb"/><stop offset="0.12" stop-color="#edd0cc"/><stop offset="0.28" stop-color="#e4c4bf"/><stop offset="0.49" stop-color="#debeb8"/><stop offset="1" stop-color="#ddbcb6"/></linearGradient><linearGradient id="bff78e8f-2b26-462b-8817-d79dcf0982c1" x1="465.81" y1="691.4" x2="533.75" y2="695.54" gradientUnits="userSpaceOnUse"><stop offset="0" stop-color="#f8dedb"/><stop offset="1" stop-color="#ddbcb6"/></linearGradient><linearGradient id="f2e20eed-05d4-4ce0-94d3-4ba4282b4c6e" x1="494.3" y1="698.09" x2="554.37" y2="701.75" xlink:href="#bff78e8f-2b26-462b-8817-d79dcf0982c1"/><linearGradient id="f70c240a-082f-4ca4-b4f8-13080467632f" x1="530.91" y1="702.75" x2="577.23" y2="705.57" xlink:href="#bff78e8f-2b26-462b-8817-d79dcf0982c1"/></defs><title>MyG_Talk_ANI</title><g class="e3c8a035-984e-4221-ace6-5a55a1e8312a"><g id="ba408ef4-6996-4284-aae6-ccf4f7e7c18c" data-name="圖層 1"><path class="f483d34f-af98-4e37-b38d-6d08fa05626a" d="M585.24,436.15l8.49,46s22.85,22.42,64.26-23l-7.78-52.05Z"/><path class="a6d931aa-de4b-4c67-85e2-a5ff84c6b2b1" d="M536,481.18l179.62,3.25,7.57,1.81s9.53-4.51,15.25-3.06c16,4.07,41.78,98,56.17,195,1.6,10.79-40.48,32.16-61.42,32.16L439.09,668.2S481,522.08,516,481.18C527,467.16,530,481.07,536,481.18Z"/><path class="fb53b50f-e1ee-46fc-8d3c-be32d76cbc59" d="M724.21,482.81c-15.12,7.35-44.38,61.23-52.7,136.1-3,7.69-26.77,44.65-76.14,53.45-.7,0-1.41,0-2.13,0a23.81,23.81,0,0,0-3.72.35,21.89,21.89,0,0,0-3.31.75c-.19.06-.36.13-.54.2-2,.19-4,.34-6,.43l3.3,6a10.16,10.16,0,0,0,2.52,4.61,10.62,10.62,0,0,0,3.67,2.51,12.64,12.64,0,0,0,4.69.8c.41,0,.82,0,1.22-.08a11.43,11.43,0,0,0,1.19-.27,12.32,12.32,0,0,0,2.2-.83,9.82,9.82,0,0,0,3.49-2.74,10.25,10.25,0,0,0,2.25-6.38l.75-.16a9.78,9.78,0,0,0,4.14,5.15,11.17,11.17,0,0,0,4.21,1.52,12.35,12.35,0,0,0,4.75-.43,8.74,8.74,0,0,0,2.26-1,12.25,12.25,0,0,0,1.92-1.36,10.48,10.48,0,0,0,1.56-1.64,11,11,0,0,0,1.11-1.93,10.07,10.07,0,0,0,.42-7.11,1,1,0,0,1,.17-.1,10,10,0,0,0,5.63,4.39,9.73,9.73,0,0,0,4.43.36,11.06,11.06,0,0,0,4.49-1.58,11.68,11.68,0,0,0,3.44-3.26,11.23,11.23,0,0,0,1.69-4.1,10.31,10.31,0,0,0-2-8.1h0a10.66,10.66,0,0,0,3.25,2.72,9.73,9.73,0,0,0,4.12,1.18,10.72,10.72,0,0,0,4.38-.63,11.79,11.79,0,0,0,4-2.51,11.58,11.58,0,0,0,2.62-3.88,11.17,11.17,0,0,0,.77-4.33,10.35,10.35,0,0,0-2.66-6.54,10.44,10.44,0,0,0,12.17,1A11.27,11.27,0,0,0,677,633.6a10.27,10.27,0,0,0-3-5.29,10.34,10.34,0,0,0,11.23-1.7,10.13,10.13,0,0,0,1.58-1.74c.12-.16.24-.34.35-.51s.1-.15.18-.29l.25-.48c.17-.34.33-.67.49-1l.24-.52a3.69,3.69,0,0,0,.11-.56c.06-.4.12-.79.17-1.18l.07-.64,0-.29a11.16,11.16,0,0,0-.37-3.21,11.16,11.16,0,0,0-8.93-8.06h0a11.15,11.15,0,0,0,8-2.08,10.77,10.77,0,0,0,3.78-5,10.49,10.49,0,0,0,.62-2.13A11.16,11.16,0,0,0,683,586.07a11.11,11.11,0,0,0,8.18-1.69,12.57,12.57,0,0,0,3-2.92,10.76,10.76,0,0,0,1.79-4,11.34,11.34,0,0,0-7-12.87,11.23,11.23,0,0,0,12.24-8A11.32,11.32,0,0,0,694,542.91h0a11.22,11.22,0,0,0,8.3-.59,13.08,13.08,0,0,0,3.41-2.44,10.43,10.43,0,0,0,2.3-3.59,10.31,10.31,0,0,0,.68-4.22,11.77,11.77,0,0,0-.83-4.07,11.48,11.48,0,0,0-5.76-6.08,11.26,11.26,0,0,0,8.33.3,10.86,10.86,0,0,0,6.31-5.25c.64-1.31,1.64-2.67,1.79-4s.48-4.72.12-6.08c-.75-2.71-1.94-6.81-4.79-7.89,8.51,3.22,17-7.05,17.5-7.53C741,474.93,727.55,481.18,724.21,482.81ZM658.8,643.67l.07-.08a2.79,2.79,0,0,0,.19.33ZM682.63,586v0l.16,0Z"/><path class="fb53b50f-e1ee-46fc-8d3c-be32d76cbc59" d="M568.88,667.57,519,620.14l15.31-141.4-4.31-1c.41-.95.3-1.62-1.09-2.3-3-2.39-13.24-3.66-14.73,1.85-1.4,5.11,1.23,12,5.77,14.09l0,.17a9.69,9.69,0,0,0-10.69,7.7,10.09,10.09,0,0,0,6.67,12l0,.06a9.72,9.72,0,0,0-10.77,8.11,10,10,0,0,0,7.51,11.75v0a9.74,9.74,0,0,0-10.81,8.54A10,10,0,0,0,509.56,551v.05a9.48,9.48,0,0,0-6.61,2.17,10.26,10.26,0,0,0-3.52,6.94,9.87,9.87,0,0,0,8.3,10.92v0a9.33,9.33,0,0,0-6.43,2.54,10.36,10.36,0,0,0-2.28,3.15,9.52,9.52,0,0,0-.93,4c-.12,5.73,4.11,10.37,9.45,10.41a9.28,9.28,0,0,0-6.79,3,10.5,10.5,0,0,0-2.67,7.39,10.82,10.82,0,0,0,.86,4,9.89,9.89,0,0,0,2.31,3.17,9.35,9.35,0,0,0,7,2.48,9.39,9.39,0,0,0-6.56,3.54,10.66,10.66,0,0,0-1.84,3.5,9.67,9.67,0,0,0-.23,4.5,9.92,9.92,0,0,0,4.51,6.93,8.55,8.55,0,0,0,6.22,1.05,9,9,0,0,0-4.37,4.71,10.28,10.28,0,0,0,.25,8.21,9.73,9.73,0,0,0,6,5.39,8.55,8.55,0,0,0,5.45-.2,8.89,8.89,0,0,0-2.22,4.57,9.64,9.64,0,0,0,2.2,7.62,11.54,11.54,0,0,0,1.54,1.51,11.15,11.15,0,0,0,1.76,1.09,9.07,9.07,0,0,0,3.81.94,8.9,8.9,0,0,0,6.78-2.93,8.91,8.91,0,0,0-2.35,7,9.54,9.54,0,0,0,4.13,6.8,11.29,11.29,0,0,0,1.88,1.06,10.26,10.26,0,0,0,2,.58,8.77,8.77,0,0,0,3.92-.1,8.91,8.91,0,0,0,5.77-4.59,9,9,0,0,0-.45,7.37,10,10,0,0,0,11.77,5.77,8.85,8.85,0,0,0,1.8-.74c2.26-1.21,4.61-6.68,4.51-7.06ZM508.7,611.3a1.41,1.41,0,0,0-.29,0c.1,0,.19,0,.29-.06Zm22.95,50.32h0v0Zm-23.16-70.17a2.05,2.05,0,0,0-.8-.2,2.1,2.1,0,0,0,.78-.17Z"/><g class="e6adfe2a-fbed-4d53-b5b3-f8ac624856d9"><path class="f6574663-e300-48d4-b5f6-ed59b1050b8e" d="M560,456.83l-4.94-12a1.61,1.61,0,0,1,2.21-2.18c9.32,5.52,26.24,12.3,67.29,2.55,27.48-6.53,47.23-21,55.89-32.92a3.36,3.36,0,0,1,6,2.5l-5.39,31.78a10.88,10.88,0,0,0,4.47,10.74l38.59,26.93s-32.68,14-52.44,137.54c0,0-33.33,57.38-100.93,52-46-3.68-57.44-47-58.77-59.31-7.2-66.93,17.51-136.82,17.51-136.82l27.9-14.13C559.76,462.06,561.37,459.16,560,456.83Z"/><path class="b49482ed-9073-48e4-9296-cf35b662844b" d="M571.38,438.07s-.28,26,8.43,46c.56,1.28-.67,2.59-1.53,1.63a151,151,0,0,1-17.51-25.54C537.29,416.73,571.38,438.07,571.38,438.07Z"/><path class="b49482ed-9073-48e4-9296-cf35b662844b" d="M651.48,430.18a1.1,1.1,0,0,0-.49.86c-.24,4.67-2,32.67-5.56,38.21-3.88,6.13-16,17.64-27.08,22.59a1.11,1.11,0,0,0,.75,2.09c17.68-5.16,47.36-25.32,71.89-46.57,36.61-31.69,8-42.28,3.49-45.29a1.1,1.1,0,0,0-1.23,0Z"/><path class="f2042bf2-2690-4d68-aa58-4a41a305d020" d="M537.2,469.15s-26.37,76.33-19.06,145.6c4.56,43.24,53.67,52.88,53.67,52.88s46.56,1.51,80-30.18a58.44,58.44,0,0,0,17.32-33.05c5.17-31.72,20-102.07,52.72-125.28"/><path class="f2042bf2-2690-4d68-aa58-4a41a305d020" d="M548,462.09S518.39,543.35,525,612.69c3.76,39.58,48.46,46.81,48.46,46.81s45.54,1.25,70.33-25.13c9.29-9.89,15.23-21,17.63-34.32,5.83-32.5,21.73-102,54-124.94"/></g><path class="fb53b50f-e1ee-46fc-8d3c-be32d76cbc59" d="M642.6,481.08a9.34,9.34,0,0,0-3.78.61,7.05,7.05,0,0,0,3.37-2.17,15.34,15.34,0,0,0,2-3.5,10.38,10.38,0,0,0,.09-7.56,9.8,9.8,0,0,0-2.1-3.36,10.69,10.69,0,0,0-3.17-2.35,10.91,10.91,0,0,0-7.54-.84v0a10.93,10.93,0,0,0,5.81-4.89,10.53,10.53,0,0,0,1.09-7.82c-1.38-5.46-9.39-8.87-13.92-5.47a6.63,6.63,0,0,0-.73.57l-2.07,1.64s1,3,2.39,7.35c.19.69.4,1.37.64,2,3.48,11.14,8.62,28.75,7.73,33,0,0-38.13,80.85-27.71,183.69h0a27.35,27.35,0,0,0,0,4.43c.6,5.36,2.65,10.52,5.53,10.14a10.62,10.62,0,0,0-.34-21.12,2.89,2.89,0,0,1,0-.29A10.61,10.61,0,0,0,608,644.23v-.07a10.65,10.65,0,0,0,9.81-10.41,10.33,10.33,0,0,0-2.9-7.41,10.74,10.74,0,0,0-7.21-3.36h0a10.69,10.69,0,0,0,11-9.87,10.71,10.71,0,0,0-9-11.23v0a10.6,10.6,0,0,0,3.95-20.61l0-.18a10.67,10.67,0,0,0,11.65-8.7,10.38,10.38,0,0,0-1.7-7.78,10.62,10.62,0,0,0-5.39-4.11l.1-.44a10.59,10.59,0,0,0,4.82-20.27,10.66,10.66,0,0,0,10.72-7.67,10.47,10.47,0,0,0-.88-7.92,10.65,10.65,0,0,0-4.89-4.62l0-.18a10.77,10.77,0,0,0,5.76-1.12,10.53,10.53,0,0,0,5.26-6A10.71,10.71,0,0,0,633.33,499v0c5.32,1.72,13.84-3.1,14-9.79C647.52,482.12,644,481.17,642.6,481.08Z"/><path class="a341a221-af83-437a-b60d-c34dfbd4700d" d="M612.2,475.75c-1,3.5-4.57,5.43-8.26,5.43a15.82,15.82,0,0,1-11.33-5.43c-5.06-5.92-4.53-14.89,5.59-14.89S613.91,469.83,612.2,475.75Z"/><path class="a341a221-af83-437a-b60d-c34dfbd4700d" d="M604.85,519.1c-1.54,6.21-8.31,10-14.17,9a8.43,8.43,0,0,1-7.27-9.59c.7-4.78,5.28-9.3,11-10C601.26,507.66,606.5,512.51,604.85,519.1Z"/><path class="a341a221-af83-437a-b60d-c34dfbd4700d" d="M593.37,571.15c.69,6.36-4.64,12.33-10.78,13.47-5.2,1-9.62-1.87-10.58-6.39-1-4.73,1.89-10.59,7.28-13.28C585.76,561.72,592.65,564.39,593.37,571.15Z"/><path class="a341a221-af83-437a-b60d-c34dfbd4700d" d="M575,620.76c6.47,2.19,10,9.13,8.56,14.65-1.24,4.67-5.86,7.06-10.66,5.9a13.43,13.43,0,0,1-9.85-11.7C562.61,622.92,568.11,618.43,575,620.76Z"/><path class="bcd1bd9e-7d61-4273-81dc-1cb4a48bc791" d="M765.9,263.77c4.47,114.49-90.5,180.05-202.72,181.44-54.59-9.06-77-27.57-99.64-49.33-27.79-26.71-37.26-98.11-39.21-148C419.85,133.36,478.59,85,588.24,80.19S761.42,149.29,765.9,263.77Z"/><ellipse class="a654a74e-7894-4e2b-a06d-ba48838a3355" cx="458.07" cy="358.36" rx="41.24" ry="39.5" transform="translate(95.43 813.04) rotate(-89.46)"/><ellipse class="b9785378-34e8-4414-8204-15c462cf0219" cx="656.8" cy="371.65" rx="41.24" ry="39.5" transform="translate(279 1024.93) rotate(-89.46)"/><path class="b036cd26-d9c1-48ce-a6e5-1bf7952a0497" d="M452.27,120.3S535.9,19.7,594,53.33a298.4,298.4,0,0,1,69.63,1.5C687,58.23,863.91,60.5,835.51,274.62c-10,140.93-127.78,152.85-127.78,152.85s45.64-214.87-100-264.37S452.27,120.3,452.27,120.3Z"/><path class="b036cd26-d9c1-48ce-a6e5-1bf7952a0497" d="M801.08,174.91c.66,1.55,1.17,2.86,1.74,4.29s1.06,2.79,1.58,4.18q1.54,4.19,2.92,8.4,2.79,8.43,5.16,16.95c1.57,5.68,3,11.39,4.37,17.13s2.5,11.52,3.54,17.32A388.31,388.31,0,0,1,827,313.51a336.94,336.94,0,0,1-1.73,35.37c-.3,2.94-.68,5.87-1,8.8s-.83,5.85-1.24,8.77-.95,6-1.61,9-1.49,6-2.48,9a71.88,71.88,0,0,1-8.11,17.12,56.52,56.52,0,0,1-13,14.18,53.4,53.4,0,0,1-26.35,10.63c-1.57.18-3.14.3-4.73.33-.79,0-1.59,0-2.39,0l-1.21-.06-1.35-.11a4,4,0,0,1,.13-7.95l.41,0,.83-.06,1-.09c.64-.07,1.29-.15,1.94-.26,1.3-.2,2.6-.45,3.88-.76a48.84,48.84,0,0,0,14.41-6,48,48,0,0,0,6.14-4.61,48.63,48.63,0,0,0,9.62-11.9,58.15,58.15,0,0,0,3.45-7,70.17,70.17,0,0,0,2.65-7.46c.75-2.55,1.36-5.16,1.87-7.8s.94-5.26,1.26-8.13.75-5.61,1-8.43.55-5.63.78-8.46c.9-11.29,1.19-22.63,1-34A404.69,404.69,0,0,0,805.18,246c-2.11-11.15-4.66-22.22-7.58-33.18q-2.22-8.22-4.81-16.3c-.87-2.69-1.76-5.37-2.67-8q-.69-2-1.41-4c-.48-1.28-1-2.67-1.45-3.79l0-.09a7.5,7.5,0,0,1,13.85-5.75Z"/><path class="b036cd26-d9c1-48ce-a6e5-1bf7952a0497" d="M809.54,170.94c.63.61,1.49,1.4,2.4,2.22s1.82,1.68,2.73,2.56c1.83,1.76,3.62,3.61,5.31,5.55a102.84,102.84,0,0,1,9.3,12.25,123,123,0,0,1,13.06,27.32,170.76,170.76,0,0,1,7,28.95,222.84,222.84,0,0,1,2.53,29.31c.25,9.76,0,19.48-.69,29.16-.42,4.82-.74,9.66-1.33,14.45l-.79,7.13-.37,3.38-.29,3.38c-.65,9-.5,17.94,1.57,26.07a41.39,41.39,0,0,0,2,5.81,27.38,27.38,0,0,0,2.94,5.12,19.88,19.88,0,0,0,3.94,4.09,15.93,15.93,0,0,0,2.34,1.53c.4.22.81.42,1.22.6.19.07.4.17.58.23l.27.1.11,0s.09,0,0,0a4,4,0,0,1-.77,8l-.77-.08-.6-.08c-.4-.06-.76-.13-1.14-.21a21.94,21.94,0,0,1-2.15-.58,22.42,22.42,0,0,1-4-1.74,27.7,27.7,0,0,1-6.76-5.22,39.64,39.64,0,0,1-8.4-14,67.11,67.11,0,0,1-3.4-15.23,105.12,105.12,0,0,1-.5-15.12l.16-3.74.3-3.71.6-7.05c.45-4.65.63-9.3.93-13.95.35-9.3.44-18.58.06-27.81a228.66,228.66,0,0,0-2.77-27.4,166,166,0,0,0-6.55-26.34,118.59,118.59,0,0,0-5-12.4,104.21,104.21,0,0,0-6.32-11.63,87.8,87.8,0,0,0-7.81-10.51c-1.42-1.65-2.91-3.24-4.46-4.81-.78-.79-1.58-1.56-2.42-2.37s-1.71-1.63-2.76-2.69a7.5,7.5,0,0,1,10.52-10.68Z"/><path class="f483d34f-af98-4e37-b38d-6d08fa05626a" d="M775,300.58c-16.8-3.38-29.61,6.07-28.69,15.79l-16.67,85.49c-.65,3.35,13.54.82,14.46.56,26.41-7.28,45.82-23.86,57.34-48.34C807.53,341.14,808.09,307.23,775,300.58Z"/><path class="a6d931aa-de4b-4c67-85e2-a5ff84c6b2b1" d="M586,53S557.64,36.25,570.77,22.4,621.29-7,672.84,3.38,828.71,31,841.71,96.24,757.39,155,725.43,127.11,662.79,68.38,586,53Z"/><path class="a751d376-b30c-4d8c-9530-888f302b1130" d="M753,132.42c-.28-1.14,1.59-2.72,4.33-3.78-.28-.15-.57-.31-.85-.48-4.53-2.62-7.46-6-6.55-7.6s4.66-.85,8.8,1.31c-1.62-4.39-1.66-8.34,0-9.17s4.43,1.71,6.53,5.8c3-4.5,6.36-7.25,8-6.3s1,5.32-1.49,10.17c4.67-.26,8.36.88,8.48,2.76s-3.34,3.81-8,4.6c3.82,2.49,6.17,5.43,5.34,6.86s-5.32.74-9.85-1.88l-.65-.39c.46,2.91,0,5.32-1.1,5.66-1.29.38-3-2.13-3.86-5.62,0-.21-.1-.42-.14-.63l-2,3.57a1,1,0,1,1-1.77-1l2-3.44-.42.13C756.33,134,753.29,133.74,753,132.42Z"/><path class="b3b13d43-b45f-4438-85e9-44fa42c6c01f" d="M633.51,37.93c-36.61-6.83-55.17,24.4-56.21,26.76-34.7-74.92-205.42,57.68-167.89,248.78,4.6,48.08-18,62.87-29.84,63.18-3.34.09-4.82,4.32-2.41,6.73,4.81,4.79,14.39,9.84,33.22,8.51a3.87,3.87,0,0,1,3.5,5.84c-3.87,6.7-13,16.31-33.48,17.17a3.92,3.92,0,0,0-1.78,7.25c19.3,11.48,60.08,27.72,96.6-10.14,2.85-3,2.15-3.3-1.1-6.05-46-39-37.41-93.91-47.15-124.7C395.48,181.68,551.59-.48,576.44,93.24c2.24-6.13,6-25.83,35.94-30.62C639,58.36,722.72,148.78,704,305.48c-6.12,58.82-30.59,69.32-50.29,67.57-3.68-.32-5.57,4.37-2.75,6.86a54.06,54.06,0,0,0,33.78,13.39,3.88,3.88,0,0,1,2.94,6.06c-4.53,6.52-15.45,16.4-40.83,19.78-3.65.48-4.44,5.71-1.1,7.34,21.3,10.37,67.29,25,118.07-32.56C831.06,317.72,757.24,61,633.51,37.93Z"/><g id="b7ad560c-860e-4893-a6ba-ae21ff0eca69" data-name="表情1"><path class="a66f5eaf-1206-416d-bae9-e4053d66f823" d="M539.14,405.86l39.94-3.1c1.16-.09,3.47,2.15,3.64,4.61.74,10.4-4.13,19.76-17.31,19.76-13.43,0-24.61-8.36-27.7-15.8C536.72,409,537.6,406,539.14,405.86Z"/><g class="a54768d9-d2d6-4995-ad71-d22f73e5dc7e"><path class="a349edec-13b5-439c-95fa-8404a41d9a11" d="M498.07,307.51c-12.3-5.88-30.93-12.54-50.82-11.5-9.66.5-16.77,9.61-15.37,19.75,1.8,13.07,6.72,30.65,19.88,41.48-2.23,4.3-2.06,9,.46,10.52s6.41-.57,8.83-4.73a45.77,45.77,0,0,0,5.75,2.06c-.73,4.25.59,8.1,3.22,8.85,2.86.83,6.13-2.29,7.32-7,0,0,6.5.11,6.91.09.36,3.95,2.46,7,5,7,2.87,0,5.62-2.88,5.27-8.8,14.26-4.67,22.08-17.33,21.36-28.79S508.65,312.58,498.07,307.51Z"/><g class="aed863b2-f60a-41f9-b88f-2f128bacb685"><path class="fb53b50f-e1ee-46fc-8d3c-be32d76cbc59" d="M452.47,285.68s9,39.22,12.9,54.43c6.72,26.39,31.45,25.78,39.09,19.77,17-13.36,20.54-47.79,20.54-47.79Z"/><path class="b036cd26-d9c1-48ce-a6e5-1bf7952a0497" d="M443.42,279.45l20.82,65.78a18.88,18.88,0,0,1,10.6-12.58c2.11-1,4.3.89,4.16,3.32a14.89,14.89,0,0,0,1.25,6.93,14.14,14.14,0,0,0,12.19,8.67c7.51.28,13.58-5.29,14-14.4a2.87,2.87,0,0,1,4.07-2.5c8.93,4.38,12.93,10.33,12.93,10.33l2.32-74.34Z"/><path class="a751d376-b30c-4d8c-9530-888f302b1130" d="M489.29,345c-.53-.46-.17-1.91.8-3.42l-.59.07c-3.12.34-5.75-.29-5.85-1.39s2-2.1,4.75-2.52c-2.33-1.58-3.73-3.52-3.21-4.53s2.76-.75,5.22.52c-.13-3.29.56-5.86,1.69-6s2.33,2.28,2.84,5.55c2.19-1.81,4.39-2.57,5.1-1.68s-.29,3.08-2.27,5.13c2.74-.15,4.91.46,5,1.46s-2.34,2.28-5.46,2.61l-.46,0c1.24,1.28,1.88,2.62,1.44,3.19s-2.22,0-3.85-1.39l-.29-.26.25,2.5a.63.63,0,0,1-.55.71.62.62,0,0,1-.67-.58l-.24-2.41-.15.21C491.48,344.53,489.91,345.5,489.29,345Z"/></g></g><path class="f7de66aa-dfd5-411c-8e28-c25fbe5ac4ce" d="M519.14,327.38s-30-36.28-75.28-32.89c0,0,29.1-12.5,59.29.68C521.87,303.34,519.14,327.38,519.14,327.38Z"/><path class="eb2d922a-b472-4be6-a2f9-a085336d3660" d="M518.37,330.16A68.85,68.85,0,0,0,504,319.92a71.93,71.93,0,0,0-15.8-6.29,83.31,83.31,0,0,0-33-1.78l-2.06.29c-.38,0-.59.11-.88.15a6.83,6.83,0,0,0-.81.17,26.9,26.9,0,0,0-2.91.81,15.62,15.62,0,0,0-4.31,2.16,9.82,9.82,0,0,0-3.14,3.86,16.15,16.15,0,0,0-1.41,6.52,37.07,37.07,0,0,0,3.65,15.4,46.75,46.75,0,0,0,4.11,7.4,54.15,54.15,0,0,0,5.4,6.79l.5.53a1.94,1.94,0,0,1,.14,2.46h0a11.34,11.34,0,0,0-1.51,4.37c-.19,1.47.16,2.88.79,3.36a1.63,1.63,0,0,0,1.3.36,4.54,4.54,0,0,0,1.93-.68,10.83,10.83,0,0,0,3.43-3.44h0l.12-.19a1.27,1.27,0,0,1,1.67-.39,41.83,41.83,0,0,0,5.41,2.53h0a.87.87,0,0,1,.6,1v0a10.81,10.81,0,0,0,.12,5,3.35,3.35,0,0,0,3,2.62,4.7,4.7,0,0,0,3.82-1.72,6.3,6.3,0,0,0,1.34-4.22,1.62,1.62,0,0,1,.21-.68,1.52,1.52,0,0,1,.78-.66,1.34,1.34,0,0,1,.39-.09h6.93l.52.06a1.21,1.21,0,0,1,1.06,1.33,7.47,7.47,0,0,0,.93,4.49,4,4,0,0,0,1.5,1.5,2.54,2.54,0,0,0,1.92.18,4,4,0,0,0,2.52-3.13,17.11,17.11,0,0,0,.31-4.56v-.09a1.59,1.59,0,0,1,1.12-1.55,46,46,0,0,0,4.55-1.69c1.5-.64,2.95-1.38,4.46-2.17h0a.69.69,0,0,1,.94.29.72.72,0,0,1-.07.76,16.67,16.67,0,0,1-4,3.56,22.44,22.44,0,0,1-4.86,2.34l1.12-1.64a11.17,11.17,0,0,1-1,5.72,7,7,0,0,1-4.62,3.94,4.81,4.81,0,0,1-3.16-.35,6.59,6.59,0,0,1-2.31-2,15.17,15.17,0,0,1-2.35-5.33l1.59,1.39H483l-.87,0-1.73,0-1.72-.05-.87,0h-.62a1.18,1.18,0,0,0,.36-.09,1.42,1.42,0,0,0,.73-.66,1.33,1.33,0,0,0,.15-.68,10.65,10.65,0,0,1-.6,3.14,8.34,8.34,0,0,1-1.72,2.79,7.11,7.11,0,0,1-6,2.27,5.2,5.2,0,0,1-3.08-1.5,6.32,6.32,0,0,1-1.57-2.87,12.78,12.78,0,0,1,.14-5.91l.6,1h0a44.63,44.63,0,0,1-6.08-1.59l1.8-.58h0a14.09,14.09,0,0,1-4,4.8,8.18,8.18,0,0,1-3.22,1.44,5.45,5.45,0,0,1-4.05-.76,6.29,6.29,0,0,1-2.4-3.24,10.33,10.33,0,0,1-.5-3.5,15.84,15.84,0,0,1,1.56-6.34h0l.65,3a48.29,48.29,0,0,1-7.85-5.79,56.26,56.26,0,0,1-6.69-7.33,47.48,47.48,0,0,1-8.66-18.76,33.8,33.8,0,0,1-.49-11.66,24.46,24.46,0,0,1,5.32-12.13,24.89,24.89,0,0,1,11-7.5,29.77,29.77,0,0,1,5.94-1.42c.49-.07,1-.13,1.46-.17s1-.1,1.39-.11l2.49-.1a87.68,87.68,0,0,1,10,.15c1.67.09,3.34.32,5,.49s3.31.49,5,.82a73.41,73.41,0,0,1,19,6.39,65.44,65.44,0,0,1,16.11,11.38,57.39,57.39,0,0,1,6.39,7.31,42,42,0,0,1,4.87,8.33,1,1,0,0,1-1.66,1.16Z"/><ellipse class="a349edec-13b5-439c-95fa-8404a41d9a11" cx="502.87" cy="320.68" rx="6.45" ry="6.2"/><path class="a349edec-13b5-439c-95fa-8404a41d9a11" d="M639.54,297.93c-32.34,2.89-47.09,13.16-55.2,20.45-4,3.61-5,10.62-4.06,15.94,2.72,15.54,24,32.41,34.42,33,.06,5.93,3.16,8.65,6.19,8.39,2.72-.23,4.71-3.42,4.81-7.39.43,0,7.27-.59,7.27-.59,1.59,4.58,5.26,7.46,8.21,6.43,2.72-.95,3.84-4.88,2.77-9.07a48.58,48.58,0,0,0,5.9-2.48c2.86,4,7.11,5.81,9.64,4.08s2.39-6.32-.2-10.42a61.43,61.43,0,0,0,7.37-6.46C685.64,330.2,688.24,293.57,639.54,297.93Z"/><g class="b24de758-62a8-4b50-a467-2a8acd41bc42"><path class="fb53b50f-e1ee-46fc-8d3c-be32d76cbc59" d="M589.88,284.29s8.79,39.36,12.58,54.63c6.59,26.49,33.63,24.82,42.86,20.77C666.05,350.6,666,311.83,666,311.83Z"/><path class="b036cd26-d9c1-48ce-a6e5-1bf7952a0497" d="M578.89,278.06,602,345.29s.49-7.94,10.43-12c2.31-.95,5.61-.79,5.4,1.64a13.9,13.9,0,0,0,1.2,6.95,15.21,15.21,0,0,0,13.06,8.83c8.16.37,14.56-6.46,15.25-15.57.15-2.08,1.32-2.51,3.25-1.61,9.61,4.5,12.15,11.05,12.15,11.05l7.42-74.37Z"/><path class="a751d376-b30c-4d8c-9530-888f302b1130" d="M627.85,343.68c-.49-.53.08-1.92,1.29-3.28h-.62c-3.32-.1-6-1.08-5.95-2.19s2.35-1.81,5.31-1.84c-2.22-1.89-3.43-4-2.75-4.93s3-.36,5.4,1.23c.3-3.28,1.37-5.73,2.57-5.7s2.13,2.59,2.23,5.9c2.53-1.5,4.93-1.94,5.56-1s-.72,3-3.06,4.77c2.89.23,5.08,1.13,5,2.14s-2.75,1.93-6.07,1.84l-.48,0c1.13,1.44,1.61,2.86,1.08,3.36s-2.33-.27-3.84-1.9l-.27-.3-.08,2.51a.65.65,0,1,1-1.29,0l.07-2.42-.19.19C630.2,343.55,628.43,344.3,627.85,343.68Z"/></g><path class="f7de66aa-dfd5-411c-8e28-c25fbe5ac4ce" d="M576.44,328s36-39.6,91.39-34.08c0,0-46.61-16.75-79.72,1.28C572,304,576.44,328,576.44,328Z"/><path class="eb2d922a-b472-4be6-a2f9-a085336d3660" d="M575.53,327.51a38.1,38.1,0,0,1,5.29-9.4,52.6,52.6,0,0,1,7.38-8,63.07,63.07,0,0,1,8.85-6.52,71.89,71.89,0,0,1,9.89-5,85.68,85.68,0,0,1,21.36-5.46c3.64-.44,7.3-.72,10.94-.8s7.29,0,10.91.25c1.8.16,3.61.27,5.41.47l5.37.66a35.3,35.3,0,0,1,12.29,3.87,27,27,0,0,1,5.84,4.29,24.71,24.71,0,0,1,4.57,6.11,24.1,24.1,0,0,1,2.37,7.14,27,27,0,0,1,.23,7,38,38,0,0,1-3.3,12,53.08,53.08,0,0,1-5.88,9.78,63.58,63.58,0,0,1-15.89,14.7l.46-3.12h0a15.1,15.1,0,0,1,2.13,6.36,9.6,9.6,0,0,1-.34,3.65,6.13,6.13,0,0,1-2.44,3.35,5.91,5.91,0,0,1-4,.86,8.81,8.81,0,0,1-3.33-1.19,14.19,14.19,0,0,1-4.58-4.47h0l1.79.44a50.62,50.62,0,0,1-6.26,2h0l.53-1a11.84,11.84,0,0,1,.54,6,6.29,6.29,0,0,1-1.54,3,5.58,5.58,0,0,1-3.06,1.59,7.64,7.64,0,0,1-6.27-1.77,8,8,0,0,1-2-2.65,10.52,10.52,0,0,1-.89-3.16,1.39,1.39,0,0,0,1.35,1.33h0l-.22,0-.46,0-.91.08-1.81.17-1.82.17-1.9.16h0l1.48-1.49a14.15,14.15,0,0,1-2.11,5.57,6.79,6.79,0,0,1-2.28,2.1,5.18,5.18,0,0,1-3.15.54,6.09,6.09,0,0,1-2.87-1.25,8.38,8.38,0,0,1-2-2.34,15.88,15.88,0,0,1-1.75-5.65l1.26,1.57h0c-1.67-.56-3.38-1.14-5.05-1.87a20.2,20.2,0,0,1-4.73-2.8.69.69,0,0,1,.77-1.13h0c2.95,1.63,6.32,2.13,9.75,2.63h0l.45.18a1.31,1.31,0,0,1,.81,1.39,8.89,8.89,0,0,0,.46,4.68,4.32,4.32,0,0,0,3.16,2.79,3,3,0,0,0,2-.32,4.28,4.28,0,0,0,1.49-1.58,7.32,7.32,0,0,0,.72-4.59,1.23,1.23,0,0,1,1-1.43h.06l.4-.05h0l3.56-.25,1.82-.13.91-.07.45,0,.23,0h.31a1.52,1.52,0,0,1,1.23.66,1.51,1.51,0,0,1,.26.67,6.1,6.1,0,0,0,1.76,4.12,5.16,5.16,0,0,0,4.15,1.43,3.38,3.38,0,0,0,1.91-.84,4.21,4.21,0,0,0,1.1-1.91,10.15,10.15,0,0,0-.22-5.08h0a.87.87,0,0,1,.54-1h0a45,45,0,0,0,5.55-2.92,1.26,1.26,0,0,1,1.65.27l.14.17h0a11.22,11.22,0,0,0,3.85,3.19,5.59,5.59,0,0,0,2.09.56,2.11,2.11,0,0,0,1.48-.44c.68-.52,1-1.87.69-3.36a10.91,10.91,0,0,0-1.9-4.28h0a2,2,0,0,1,0-2.59L658,355a70.36,70.36,0,0,0,10.73-16.17,42.23,42.23,0,0,0,3-8.59,20.85,20.85,0,0,0,.44-8,9.76,9.76,0,0,0-2.64-5.38,11.18,11.18,0,0,0-2.08-1.61,19.58,19.58,0,0,0-2.64-1.4,40.43,40.43,0,0,0-7.12-2.34l-4.72-1c-1.58-.31-3.16-.53-4.74-.8-12.63-2-25.45-2.4-37.8.24a76.71,76.71,0,0,0-9.11,2.59,64.7,64.7,0,0,0-8.74,3.89,62.28,62.28,0,0,0-8.16,5.27,46.78,46.78,0,0,0-7.14,6.78l-.06.08a1,1,0,0,1-1.45.14A1,1,0,0,1,575.53,327.51Z"/><ellipse class="a349edec-13b5-439c-95fa-8404a41d9a11" cx="654.03" cy="310.74" rx="6.45" ry="6.2"/><path class="eb2d922a-b472-4be6-a2f9-a085336d3660" d="M437.66,263.22c.51-.32.85-.54,1.28-.78l1.21-.68c.81-.44,1.64-.83,2.47-1.21a49,49,0,0,1,5.07-2,60,60,0,0,1,10.64-2.48,64.74,64.74,0,0,1,22,.72,68.82,68.82,0,0,1,10.63,3.1c1.73.62,3.43,1.43,5.12,2.22l2.47,1.33c.81.47,1.59,1,2.39,1.49a44.19,44.19,0,0,1,8.52,7.28,36.52,36.52,0,0,1,3.43,4.47,26,26,0,0,1,1.44,2.46,14.18,14.18,0,0,1,.63,1.3c.21.47.38.87.61,1.46a3.29,3.29,0,0,1-4.17,4.32l-1.35-.48a9.84,9.84,0,0,1-.93-.54l-1-.62-2-1.23c-1.32-.82-2.68-1.58-4-2.35-2.67-1.51-5.34-2.92-8-4.22s-5.42-2.48-8.23-3.6a78.69,78.69,0,0,0-26.76-5.33,85.88,85.88,0,0,0-9.33.27c-1.56.13-3.13.3-4.7.51l-2.33.36-2.2.38-.48.09a3.4,3.4,0,0,1-2.38-6.24Z"/><path class="eb2d922a-b472-4be6-a2f9-a085336d3660" d="M656.53,261.18l-10.27,1.13q-5.13.57-10.19,1.24a181.38,181.38,0,0,0-19.66,3.55c-1.59.37-3.13.8-4.65,1.26l-2.26.72c-.73.26-1.47.5-2.19.79-2.84,1.13-5.71,2.38-8.46,3.78s-5.47,2.92-8.16,4.59c-1.31.86-2.68,1.7-4,2.63l-2,1.39-1,.7a8.24,8.24,0,0,1-.91.62l-1.39.6a3.26,3.26,0,0,1-4.38-4.05c.21-.64.36-1.06.56-1.56s.38-.95.59-1.4c.43-.91.9-1.79,1.4-2.64a37.47,37.47,0,0,1,3.44-4.81,44,44,0,0,1,8.79-7.83c6.48-4.46,14.25-7,21.59-8.42a103.15,103.15,0,0,1,22.05-1.71,105.47,105.47,0,0,1,21.61,2.66,3.43,3.43,0,0,1-.41,6.75Z"/></g><g id="adbf9501-7dae-4df5-8773-acd029069003" data-name="表情2"><path class="a66f5eaf-1206-416d-bae9-e4053d66f823" d="M545,414.36a20.61,20.61,0,0,1,4.38-1.25,34.7,34.7,0,0,1,4.42-.47c1.47-.06,2.94,0,4.4.05s2.93.13,4.39.28c2.92.26,5.81.67,8.68,1.17a80.44,80.44,0,0,1,8.52,2,1,1,0,0,1-.3,2h0c-1.45,0-2.89-.05-4.33-.14s-2.87-.13-4.3-.2-2.85-.17-4.28-.21-2.85-.16-4.27-.21c-2.84-.16-5.68-.2-8.5-.32a76.25,76.25,0,0,1-8.49-.84h-.07a1,1,0,0,1-.23-1.89Z"/><g class="a54768d9-d2d6-4995-ad71-d22f73e5dc7e"><path class="a349edec-13b5-439c-95fa-8404a41d9a11" d="M498.07,307.51c-12.3-5.88-30.93-12.54-50.82-11.5-9.66.5-16.77,9.61-15.37,19.75,1.8,13.07,6.72,30.65,19.88,41.48-2.23,4.3-2.06,9,.46,10.52s6.41-.57,8.83-4.73a45.77,45.77,0,0,0,5.75,2.06c-.73,4.25.59,8.1,3.22,8.85,2.86.83,6.13-2.29,7.32-7,0,0,6.5.11,6.91.09.36,3.95,2.46,7,5,7,2.87,0,5.62-2.88,5.27-8.8,14.26-4.67,22.08-17.33,21.36-28.79S508.65,312.58,498.07,307.51Z"/><g class="aed863b2-f60a-41f9-b88f-2f128bacb685"><path class="fb53b50f-e1ee-46fc-8d3c-be32d76cbc59" d="M452.47,285.68s9,39.22,12.9,54.43c6.72,26.39,31.45,25.78,39.09,19.77,17-13.36,20.54-47.79,20.54-47.79Z"/><path class="b036cd26-d9c1-48ce-a6e5-1bf7952a0497" d="M443.42,279.45l20.82,65.78a18.88,18.88,0,0,1,10.6-12.58c2.11-1,4.3.89,4.16,3.32a14.89,14.89,0,0,0,1.25,6.93,14.14,14.14,0,0,0,12.19,8.67c7.51.28,13.58-5.29,14-14.4a2.87,2.87,0,0,1,4.07-2.5c8.93,4.38,12.93,10.33,12.93,10.33l2.32-74.34Z"/><path class="a751d376-b30c-4d8c-9530-888f302b1130" d="M489.29,345c-.53-.46-.17-1.91.8-3.42l-.59.07c-3.12.34-5.75-.29-5.85-1.39s2-2.1,4.75-2.52c-2.33-1.58-3.73-3.52-3.21-4.53s2.76-.75,5.22.52c-.13-3.29.56-5.86,1.69-6s2.33,2.28,2.84,5.55c2.19-1.81,4.39-2.57,5.1-1.68s-.29,3.08-2.27,5.13c2.74-.15,4.91.46,5,1.46s-2.34,2.28-5.46,2.61l-.46,0c1.24,1.28,1.88,2.62,1.44,3.19s-2.22,0-3.85-1.39l-.29-.26.25,2.5a.63.63,0,0,1-.55.71.62.62,0,0,1-.67-.58l-.24-2.41-.15.21C491.48,344.53,489.91,345.5,489.29,345Z"/></g></g><path class="f7de66aa-dfd5-411c-8e28-c25fbe5ac4ce" d="M519.14,327.38s-30-36.28-75.28-32.89c0,0,29.1-12.5,59.29.68C521.87,303.34,519.14,327.38,519.14,327.38Z"/><path class="eb2d922a-b472-4be6-a2f9-a085336d3660" d="M518.37,330.16A68.85,68.85,0,0,0,504,319.92a71.93,71.93,0,0,0-15.8-6.29,83.31,83.31,0,0,0-33-1.78l-2.06.29c-.38,0-.59.11-.88.15a6.83,6.83,0,0,0-.81.17,26.9,26.9,0,0,0-2.91.81,15.62,15.62,0,0,0-4.31,2.16,9.82,9.82,0,0,0-3.14,3.86,16.15,16.15,0,0,0-1.41,6.52,37.07,37.07,0,0,0,3.65,15.4,46.75,46.75,0,0,0,4.11,7.4,54.15,54.15,0,0,0,5.4,6.79l.5.53a1.94,1.94,0,0,1,.14,2.46h0a11.34,11.34,0,0,0-1.51,4.37c-.19,1.47.16,2.88.79,3.36a1.63,1.63,0,0,0,1.3.36,4.54,4.54,0,0,0,1.93-.68,10.83,10.83,0,0,0,3.43-3.44h0l.12-.19a1.27,1.27,0,0,1,1.67-.39,41.83,41.83,0,0,0,5.41,2.53h0a.87.87,0,0,1,.6,1v0a10.81,10.81,0,0,0,.12,5,3.35,3.35,0,0,0,3,2.62,4.7,4.7,0,0,0,3.82-1.72,6.3,6.3,0,0,0,1.34-4.22,1.62,1.62,0,0,1,.21-.68,1.52,1.52,0,0,1,.78-.66,1.34,1.34,0,0,1,.39-.09h6.93l.52.06a1.21,1.21,0,0,1,1.06,1.33,7.47,7.47,0,0,0,.93,4.49,4,4,0,0,0,1.5,1.5,2.54,2.54,0,0,0,1.92.18,4,4,0,0,0,2.52-3.13,17.11,17.11,0,0,0,.31-4.56v-.09a1.59,1.59,0,0,1,1.12-1.55,46,46,0,0,0,4.55-1.69c1.5-.64,2.95-1.38,4.46-2.17h0a.69.69,0,0,1,.94.29.72.72,0,0,1-.07.76,16.67,16.67,0,0,1-4,3.56,22.44,22.44,0,0,1-4.86,2.34l1.12-1.64a11.17,11.17,0,0,1-1,5.72,7,7,0,0,1-4.62,3.94,4.81,4.81,0,0,1-3.16-.35,6.59,6.59,0,0,1-2.31-2,15.17,15.17,0,0,1-2.35-5.33l1.59,1.39H483l-.87,0-1.73,0-1.72-.05-.87,0h-.62a1.18,1.18,0,0,0,.36-.09,1.42,1.42,0,0,0,.73-.66,1.33,1.33,0,0,0,.15-.68,10.65,10.65,0,0,1-.6,3.14,8.34,8.34,0,0,1-1.72,2.79,7.11,7.11,0,0,1-6,2.27,5.2,5.2,0,0,1-3.08-1.5,6.32,6.32,0,0,1-1.57-2.87,12.78,12.78,0,0,1,.14-5.91l.6,1h0a44.63,44.63,0,0,1-6.08-1.59l1.8-.58h0a14.09,14.09,0,0,1-4,4.8,8.18,8.18,0,0,1-3.22,1.44,5.45,5.45,0,0,1-4.05-.76,6.29,6.29,0,0,1-2.4-3.24,10.33,10.33,0,0,1-.5-3.5,15.84,15.84,0,0,1,1.56-6.34h0l.65,3a48.29,48.29,0,0,1-7.85-5.79,56.26,56.26,0,0,1-6.69-7.33,47.48,47.48,0,0,1-8.66-18.76,33.8,33.8,0,0,1-.49-11.66,24.46,24.46,0,0,1,5.32-12.13,24.89,24.89,0,0,1,11-7.5,29.77,29.77,0,0,1,5.94-1.42c.49-.07,1-.13,1.46-.17s1-.1,1.39-.11l2.49-.1a87.68,87.68,0,0,1,10,.15c1.67.09,3.34.32,5,.49s3.31.49,5,.82a73.41,73.41,0,0,1,19,6.39,65.44,65.44,0,0,1,16.11,11.38,57.39,57.39,0,0,1,6.39,7.31,42,42,0,0,1,4.87,8.33,1,1,0,0,1-1.66,1.16Z"/><ellipse class="a349edec-13b5-439c-95fa-8404a41d9a11" cx="502.87" cy="320.68" rx="6.45" ry="6.2"/><path class="a349edec-13b5-439c-95fa-8404a41d9a11" d="M639.54,297.93c-32.34,2.89-47.09,13.16-55.2,20.45-4,3.61-5,10.62-4.06,15.94,2.72,15.54,24,32.41,34.42,33,.06,5.93,3.16,8.65,6.19,8.39,2.72-.23,4.71-3.42,4.81-7.39.43,0,7.27-.59,7.27-.59,1.59,4.58,5.26,7.46,8.21,6.43,2.72-.95,3.84-4.88,2.77-9.07a48.58,48.58,0,0,0,5.9-2.48c2.86,4,7.11,5.81,9.64,4.08s2.39-6.32-.2-10.42a61.43,61.43,0,0,0,7.37-6.46C685.64,330.2,688.24,293.57,639.54,297.93Z"/><g class="b83bbe5d-fb25-4788-b1f7-7db2d9318bf1"><path class="fb53b50f-e1ee-46fc-8d3c-be32d76cbc59" d="M575.88,289.29s8.79,39.36,12.58,54.63c6.59,26.49,33.63,24.82,42.86,20.77C652.05,355.6,652,316.83,652,316.83Z"/><path class="b036cd26-d9c1-48ce-a6e5-1bf7952a0497" d="M564.89,283.06,588,350.29s.49-7.94,10.43-12c2.31-.95,5.61-.79,5.4,1.64a13.9,13.9,0,0,0,1.2,6.95,15.21,15.21,0,0,0,13.06,8.83c8.16.37,14.56-6.46,15.25-15.57.15-2.08,1.32-2.51,3.25-1.61,9.61,4.5,12.15,11.05,12.15,11.05l7.42-74.37Z"/><path class="a751d376-b30c-4d8c-9530-888f302b1130" d="M613.85,348.68c-.49-.53.08-1.92,1.29-3.28h-.62c-3.32-.1-6-1.08-5.95-2.19s2.35-1.81,5.31-1.84c-2.22-1.89-3.43-4-2.75-4.93s3-.36,5.4,1.23c.3-3.28,1.37-5.73,2.57-5.7s2.13,2.59,2.23,5.9c2.53-1.5,4.93-1.94,5.56-1s-.72,3-3.06,4.77c2.89.23,5.08,1.13,5,2.14s-2.75,1.93-6.07,1.84l-.48,0c1.13,1.44,1.61,2.86,1.08,3.36s-2.33-.27-3.84-1.9l-.27-.3-.08,2.51a.65.65,0,1,1-1.29,0l.07-2.42-.19.19C616.2,348.55,614.43,349.3,613.85,348.68Z"/></g><path class="f7de66aa-dfd5-411c-8e28-c25fbe5ac4ce" d="M576.44,328s36-39.6,91.39-34.08c0,0-46.61-16.75-79.72,1.28C572,304,576.44,328,576.44,328Z"/><path class="eb2d922a-b472-4be6-a2f9-a085336d3660" d="M575.53,327.51a38.1,38.1,0,0,1,5.29-9.4,52.6,52.6,0,0,1,7.38-8,63.07,63.07,0,0,1,8.85-6.52,71.89,71.89,0,0,1,9.89-5,85.68,85.68,0,0,1,21.36-5.46c3.64-.44,7.3-.72,10.94-.8s7.29,0,10.91.25c1.8.16,3.61.27,5.41.47l5.37.66a35.3,35.3,0,0,1,12.29,3.87,27,27,0,0,1,5.84,4.29,24.71,24.71,0,0,1,4.57,6.11,24.1,24.1,0,0,1,2.37,7.14,27,27,0,0,1,.23,7,38,38,0,0,1-3.3,12,53.08,53.08,0,0,1-5.88,9.78,63.58,63.58,0,0,1-15.89,14.7l.46-3.12h0a15.1,15.1,0,0,1,2.13,6.36,9.6,9.6,0,0,1-.34,3.65,6.13,6.13,0,0,1-2.44,3.35,5.91,5.91,0,0,1-4,.86,8.81,8.81,0,0,1-3.33-1.19,14.19,14.19,0,0,1-4.58-4.47h0l1.79.44a50.62,50.62,0,0,1-6.26,2h0l.53-1a11.84,11.84,0,0,1,.54,6,6.29,6.29,0,0,1-1.54,3,5.58,5.58,0,0,1-3.06,1.59,7.64,7.64,0,0,1-6.27-1.77,8,8,0,0,1-2-2.65,10.52,10.52,0,0,1-.89-3.16,1.39,1.39,0,0,0,1.35,1.33h0l-.22,0-.46,0-.91.08-1.81.17-1.82.17-1.9.16h0l1.48-1.49a14.15,14.15,0,0,1-2.11,5.57,6.79,6.79,0,0,1-2.28,2.1,5.18,5.18,0,0,1-3.15.54,6.09,6.09,0,0,1-2.87-1.25,8.38,8.38,0,0,1-2-2.34,15.88,15.88,0,0,1-1.75-5.65l1.26,1.57h0c-1.67-.56-3.38-1.14-5.05-1.87a20.2,20.2,0,0,1-4.73-2.8.69.69,0,0,1,.77-1.13h0c2.95,1.63,6.32,2.13,9.75,2.63h0l.45.18a1.31,1.31,0,0,1,.81,1.39,8.89,8.89,0,0,0,.46,4.68,4.32,4.32,0,0,0,3.16,2.79,3,3,0,0,0,2-.32,4.28,4.28,0,0,0,1.49-1.58,7.32,7.32,0,0,0,.72-4.59,1.23,1.23,0,0,1,1-1.43h.06l.4-.05h0l3.56-.25,1.82-.13.91-.07.45,0,.23,0h.31a1.52,1.52,0,0,1,1.23.66,1.51,1.51,0,0,1,.26.67,6.1,6.1,0,0,0,1.76,4.12,5.16,5.16,0,0,0,4.15,1.43,3.38,3.38,0,0,0,1.91-.84,4.21,4.21,0,0,0,1.1-1.91,10.15,10.15,0,0,0-.22-5.08h0a.87.87,0,0,1,.54-1h0a45,45,0,0,0,5.55-2.92,1.26,1.26,0,0,1,1.65.27l.14.17h0a11.22,11.22,0,0,0,3.85,3.19,5.59,5.59,0,0,0,2.09.56,2.11,2.11,0,0,0,1.48-.44c.68-.52,1-1.87.69-3.36a10.91,10.91,0,0,0-1.9-4.28h0a2,2,0,0,1,0-2.59L658,355a70.36,70.36,0,0,0,10.73-16.17,42.23,42.23,0,0,0,3-8.59,20.85,20.85,0,0,0,.44-8,9.76,9.76,0,0,0-2.64-5.38,11.18,11.18,0,0,0-2.08-1.61,19.58,19.58,0,0,0-2.64-1.4,40.43,40.43,0,0,0-7.12-2.34l-4.72-1c-1.58-.31-3.16-.53-4.74-.8-12.63-2-25.45-2.4-37.8.24a76.71,76.71,0,0,0-9.11,2.59,64.7,64.7,0,0,0-8.74,3.89,62.28,62.28,0,0,0-8.16,5.27,46.78,46.78,0,0,0-7.14,6.78l-.06.08a1,1,0,0,1-1.45.14A1,1,0,0,1,575.53,327.51Z"/><ellipse class="a349edec-13b5-439c-95fa-8404a41d9a11" cx="640.03" cy="315.74" rx="6.45" ry="6.2"/><path class="eb2d922a-b472-4be6-a2f9-a085336d3660" d="M433.86,262.69c.48-.36.8-.61,1.2-.89l1.15-.78c.76-.52,1.55-1,2.34-1.43a49.42,49.42,0,0,1,4.88-2.45,60.88,60.88,0,0,1,10.37-3.43,64.94,64.94,0,0,1,21.95-1.26,70.12,70.12,0,0,1,10.87,2.14c1.78.46,3.55,1.12,5.3,1.75l2.58,1.1c.85.39,1.67.85,2.51,1.27a44,44,0,0,1,9.14,6.48,38.4,38.4,0,0,1,3.82,4.14c.59.75,1.14,1.51,1.66,2.32.26.4.51.83.75,1.25s.45.83.73,1.4a3.28,3.28,0,0,1-1.44,4.42,3.31,3.31,0,0,1-2.32.26l-1.39-.37a7.35,7.35,0,0,1-1-.45l-1.05-.52-2.1-1.05c-1.39-.7-2.82-1.33-4.19-2q-4.18-1.89-8.38-3.48c-2.81-1.06-5.62-2-8.53-2.84a77.14,77.14,0,0,0-8.86-2,78.85,78.85,0,0,0-18.26-.9,84,84,0,0,0-9.27,1.11c-1.55.27-3.1.58-4.63.93l-2.3.56-2.15.59-.47.12a3.4,3.4,0,0,1-2.93-6Z"/><path class="eb2d922a-b472-4be6-a2f9-a085336d3660" d="M658.46,264.23l-10.31-.75q-5.14-.37-10.24-.63a187.81,187.81,0,0,0-20-.07c-1.62.08-3.22.23-4.8.41l-2.35.29c-.76.13-1.54.23-2.29.39-3,.59-6,1.3-9,2.18s-5.91,1.89-8.86,3c-1.44.61-2.94,1.19-4.4,1.86l-2.2,1-1.1.52a7.9,7.9,0,0,1-1,.44l-1.48.34a3.27,3.27,0,0,1-3.91-2.46,3.21,3.21,0,0,1,.33-2.31c.33-.6.55-1,.83-1.44s.55-.87.84-1.27q.88-1.23,1.86-2.34a36.64,36.64,0,0,1,4.25-4.11,43.63,43.63,0,0,1,10.06-6.11c7.18-3.21,15.28-4.3,22.75-4.37a103.17,103.17,0,0,1,22,2.3,104.58,104.58,0,0,1,20.78,6.53,3.43,3.43,0,0,1-1.63,6.56Z"/></g><line class="bcf4e090-e19a-4460-9723-d1e1498c4e3f" x1="404.15" y1="345.04" x2="430.8" y2="335.85"/><path class="a85f3139-fe00-4411-a874-184bf13ede30" d="M514.65,350.63c1.47,31-22.95,55.08-53.84,53.74-30.15-1.3-55.2-26.41-56.6-56.11s21.32-53.78,51.41-53.79C486.45,294.45,513.19,319.6,514.65,350.63Z"/><path class="a85f3139-fe00-4411-a874-184bf13ede30" d="M675.49,354.08c1.55,33-26.09,58.47-60.92,57-33.94-1.47-62-28.15-63.51-59.63s24.14-57,58-57C643.82,294.37,673.93,321.1,675.49,354.08Z"/><path class="bcf4e090-e19a-4460-9723-d1e1498c4e3f" d="M514.65,350.63c1.47,31-22.95,55.08-53.84,53.74-30.15-1.3-55.2-26.41-56.6-56.11s21.32-53.78,51.41-53.79C486.45,294.45,513.19,319.6,514.65,350.63Z"/><path class="bcf4e090-e19a-4460-9723-d1e1498c4e3f" d="M675.49,354.08c1.55,33-26.09,58.47-60.92,57-33.94-1.47-62-28.15-63.51-59.63s24.14-57,58-57C643.82,294.37,673.93,321.1,675.49,354.08Z"/><line class="bcf4e090-e19a-4460-9723-d1e1498c4e3f" x1="511.71" y1="341.16" x2="553.18" y2="341.75"/><line class="bcf4e090-e19a-4460-9723-d1e1498c4e3f" x1="673.89" y1="343.17" x2="708.1" y2="331.37"/><path class="f13ffbff-23fa-4772-8d66-53eaca068371" d="M508.11,377c1.13-9.88,9.75-18.22,19.23-18.63a14.47,14.47,0,0,1,9.95,3.19,15.58,15.58,0,0,0-14.93-8.43c-10.47.46-20,9.67-21.23,20.57-1.17,10.21,5.3,18.28,14.71,18.9C510.51,389.93,507.3,384,508.11,377Z"/><path class="f13ffbff-23fa-4772-8d66-53eaca068371" d="M537.29,361.57a18.22,18.22,0,0,1,1.78,10.5c-1.25,10.9-10.76,20.11-21.24,20.57a18.8,18.8,0,0,1-2,0,14.85,14.85,0,0,0,7.4,1.54c9.49-.41,18.1-8.76,19.23-18.63C543.14,369.69,541.05,364.66,537.29,361.57Z"/><path class="e8205d37-cb97-4b7d-aec6-6c7fe7e28bc3" d="M539.07,372.07a18.22,18.22,0,0,0-1.78-10.5,14.47,14.47,0,0,0-9.95-3.19c-9.48.41-18.1,8.75-19.23,18.63-.81,7,2.4,12.92,7.73,15.6a18.8,18.8,0,0,0,2,0C528.31,392.18,537.82,383,539.07,372.07Z"/><ellipse class="bcd1bd9e-7d61-4273-81dc-1cb4a48bc791" cx="519.64" cy="361.79" rx="9.87" ry="8.37" transform="translate(-88.6 537.73) rotate(-50.98)"/><path class="b08835d1-e868-4996-bda9-aef1c1805c52" d="M600.18,186.1c18.19,44.59,58.9,111.53,140.3,116.4,13.59.81,23.33-6.59,19.72-13.42s-13.78-11.58-20.7-16.55c0,0,27.69-1.51,22.81-14.95-3.74-10.3-44.85-19.14-44.85-19.14S704.53,96.9,598.25,79.75c-128-20.65-204.57,68.22-204,169.4,0,0-23,11.47-22.4,25.4,0,0,3.61,6.83,23.36-1,0,0-26,18.58-22.27,28.88s23.77,9.44,46.31-12.48c25.23-24.53,28.17-61.58,54-105.87C479.39,173.61,598.33,181.58,600.18,186.1Z"/><path class="b08835d1-e868-4996-bda9-aef1c1805c52" d="M475.88,150.76l-3.71,26.39s-9.05,47,5.73,93.35A27.77,27.77,0,0,0,503.29,290l73.06,2.48c12.24.41,20.89-12.36,16.44-24.27-9.11-24.4-20.94-61.78-20.38-90.15C573.3,132.17,475.88,150.76,475.88,150.76Z"/><path class="b08835d1-e868-4996-bda9-aef1c1805c52" d="M573.6,161.1l-.36,24s10,56.25,43,99.1a26.81,26.81,0,0,0,20.93,10.61h0c6.35.07,10.38-7.07,7.21-12.82-12.16-22-34.77-67.62-34.09-100.49C611.17,136.58,573.6,161.1,573.6,161.1Z"/><path class="b1f942ad-c34b-430e-8fc1-0e0b8774c91a" d="M488.4,135.74c.12,13.31-9.55,22.41-22.3,22.55s-30.51.68-30.63-12.64,22.59-33.27,35.34-33.4S488.27,122.42,488.4,135.74Z"/><path class="b1f942ad-c34b-430e-8fc1-0e0b8774c91a" d="M540.21,155.93c-1.14,11.38-10.49,17.5-21.38,16.32s-25.16-3.65-24-15,20.93-25.27,31.82-24.09S541.35,144.56,540.21,155.93Z"/><path class="b1f942ad-c34b-430e-8fc1-0e0b8774c91a" d="M569.17,163.58c-.06,9.55-7.71,14.71-16.87,14.65s-20.26-2.31-20.19-11.86,13.84-21.67,23-21.61S569.24,154,569.17,163.58Z"/><path class="b1f942ad-c34b-430e-8fc1-0e0b8774c91a" d="M669.49,175.62c.07,7.68-6.44,11.07-13.79,11.15s-15.2-3.27-15.27-11,9-16.22,16.3-16.3S669.42,168,669.49,175.62Z"/><path class="b1f942ad-c34b-430e-8fc1-0e0b8774c91a" d="M696.64,176.29c.05,5.79-5.41,7.28-11,7.34a10.5,10.5,0,0,1-.2-21C691,162.59,696.58,170.49,696.64,176.29Z"/><path class="a341a221-af83-437a-b60d-c34dfbd4700d" d="M296.37,659.13s-2.14-31,12.12-41.19c13.65-9.74,88,4.4,132.88-2.91,35.6-5.8,46.85,13.13,57.61,43,10.92,30.31-41.53,23.16-75.28,40.35-33.12,16.86-85.43,5.84-106.29-.31C293.16,690.93,312.2,664,296.37,659.13Z"/><path class="a921db7e-0c41-4034-8a60-1d01637bf28f" d="M435.52,804.67,59.07,764.55c-10.77-1.15-12.26-16.21-1.94-19.46l180-56.6a10.1,10.1,0,0,1,4.09-.4L602.3,727.88c10.59,1.17,12.24,15.89,2.17,19.37L439.85,804.17A10.11,10.11,0,0,1,435.52,804.67Z"/><line class="bf6aecd1-ca02-46c3-ae5d-47efa4bf2db5" x1="438.07" y1="796" x2="603.94" y2="738.26"/><path class="a6d931aa-de4b-4c67-85e2-a5ff84c6b2b1" d="M433.11,494.28l-64.66-6.73v-2.26a8.41,8.41,0,0,0-7.26-8.3L87.9,448.56a6.55,6.55,0,0,0-7.26,6.79v2.26L16,450.89C7.16,450,0,456.67,0,465.84V742.75c0,9.18,7.16,17.36,16,18.28l417.12,43.39c8.83.92,16-5.78,16-14.95V512.56C449.1,503.38,441.94,495.2,433.11,494.28Z"/><path class="a921db7e-0c41-4034-8a60-1d01637bf28f" d="M355.64,496.75s-.52-8.39,12.82-9.18v-2.3c0-4.12-3.38-8.3-7.42-8.3-5.72,0-10.62,3.48-10.62,13V734.31Z"/><g class="eb9a6146-59fe-4ff8-a9af-b20eeccd7ec5"><path class="a341a221-af83-437a-b60d-c34dfbd4700d" d="M570.94,671.73s-3.37-18.89,11-29c13.72-9.63,86.16-3.29,134.36-14.06s57.46,14.86,68,44.82c10.69,30.4-42.85,35.41-76.73,52.35-33.24,16.62-95-8.74-115.84-15C567.5,703.51,586.74,676.72,570.94,671.73Z"/><path class="b208b111-cf1a-415b-b2eb-a356c46fbd60" d="M586.1,666.13s-.68-5.94,6-15,40.08,15.38,56,35.75c17,21.88,15.16,35.3,4.2,36.2s-48.42-3.32-48.42-3.32Z"/></g><g class="aa305afb-8f5a-41e9-ab72-95be3aa49209"><path class="a349edec-13b5-439c-95fa-8404a41d9a11" d="M550.49,665.86s32.33-6.53,47.74-5.06c21,2,40,11.65,41.11,31.94,1.26,24-5.69,21.19-40.48,28.7-12.43,2.68-8.25-7.37-10.84-21S550.49,665.86,550.49,665.86Z"/><path class="fc6e73b2-af78-4259-88b9-d1fc0e788b5b" d="M591.16,729c-9.38-.24-47.75-34.47-53.88-53.1-2.28-6.93.1-10.61,2.49-12.47l.46-.37.57-.15c.28-.08,4.69-.25,14.52-.18,11.55.09,30.84,1.22,46.24,14.09,9.46,7.91,12.05,20.14,7.12,33.57-3.33,9.06-10.55,18.67-17.39,18.62Z"/><path class="b1f942ad-c34b-430e-8fc1-0e0b8774c91a" d="M541.61,665.79s31.5-8.84,58,13.34c19.34,16.16.67,47.11-8.4,46.88S527.74,676.6,541.61,665.79Z"/><path class="b49482ed-9073-48e4-9296-cf35b662844b" d="M591.9,691.21s45.56-5.22,37.54-18.82,13.46-5.84,13.46-5.84L648.67,714,614.49,731l-34.43-.25Z"/></g><path class="a7fb9ef8-7b58-4e4d-9910-6266757d0f88" d="M516.46,657.84s1.89,25.2-26.1,25.49-29.33,9.88-24.91,18.38,19.28,3.33,40.94,6.54,37.06,8.29,50.76,2S551.8,661.09,516.46,657.84Z"/><path class="a7fb9ef8-7b58-4e4d-9910-6266757d0f88" d="M599,699.93c-1.4,23-31.07,39.65-48.77.14-15-33.38-58-5.55-57.08-28.54,1.17-28.59,24.93-23.31,54.39-11.79C585.13,674.42,600.42,676.94,599,699.93Z"/><path class="b4cb8d21-80ac-4a41-89bc-99252901098c" d="M511.3,675.09,495.21,689.4l2.83-5-8.52,26.24a11.1,11.1,0,0,1-21.34-6.08l6.59-26.79a9.57,9.57,0,0,1,1.75-3.61l1.08-1.37,13.32-16.92A14.06,14.06,0,0,1,513,673.28,15.48,15.48,0,0,1,511.3,675.09Z"/><path class="b19939bb-b3e7-4895-a530-061f0985d913" d="M527.3,684.17,497.83,697l6.1-6.43-15.56,32.78a11.1,11.1,0,0,1-20.43-8.66l12.73-34a11.17,11.17,0,0,1,5.15-5.91l1-.52L515.06,659a14,14,0,1,1,13.31,24.66C528,683.83,527.66,684,527.3,684.17Z"/><path class="e4f01c75-9fbc-46e4-a761-8cfc42ccb8bb" d="M550.89,693.46l-22.8,18.37,1.73-2L516,727.21a11.11,11.11,0,0,1-18-12.92l11.93-18.7a6,6,0,0,1,.72-.92l1-1,20.49-20.92a14,14,0,0,1,20,19.63A15.87,15.87,0,0,1,550.89,693.46Z"/><path class="ae14f544-68f2-47b8-80cf-21d8858c18b1" d="M574,702,560.11,713.4l2.34-3.32-8.61,15.5a11.12,11.12,0,0,1-20-9.57l6.67-16.43a6.17,6.17,0,0,1,.9-1.54l1.44-1.78,11.26-13.94A14.07,14.07,0,0,1,576,700,15.06,15.06,0,0,1,574,702Z"/></g></g></svg>