<svg id="e7jYXnvDLdF1" xmlns="http://www.w3.org/2000/svg" xmlns:xlink="http://www.w3.org/1999/xlink" viewBox="0 0 866.99 804.72" shape-rendering="geometricPrecision" text-rendering="geometricPrecision" width="866.99" height="804.72">
<style><![CDATA[
#e7jYXnvDLdF4_to {animation: e7jYXnvDLdF4_to__to 3000ms linear infinite normal forwards}@keyframes e7jYXnvDLdF4_to__to { 0% {transform: translate(574.5923px,682.34047px);animation-timing-function: cubic-bezier(0.42,0,0.58,1)} 50% {transform: translate(577.714889px,679.217893px);animation-timing-function: cubic-bezier(0.42,0,0.58,1)} 100% {transform: translate(574.5923px,682.34047px)}} #e7jYXnvDLdF4_tr {animation: e7jYXnvDLdF4_tr__tr 3000ms linear infinite normal forwards}@keyframes e7jYXnvDLdF4_tr__tr { 0% {transform: rotate(-2.461221deg);animation-timing-function: cubic-bezier(0.42,0,0.58,1)} 50% {transform: rotate(0.693589deg);animation-timing-function: cubic-bezier(0.42,0,0.58,1)} 100% {transform: rotate(-2.461221deg)}} #e7jYXnvDLdF26_tr {animation: e7jYXnvDLdF26_tr__tr 3000ms linear infinite normal forwards}@keyframes e7jYXnvDLdF26_tr__tr { 0% {transform: translate(450.89243px,266.527063px) rotate(-6.793425deg);animation-timing-function: cubic-bezier(0.42,0,1,1)} 23.333333% {transform: translate(450.89243px,266.527063px) rotate(-2.291642deg);animation-timing-function: cubic-bezier(0.42,0,1,1)} 50% {transform: translate(450.89243px,266.527063px) rotate(-16.723389deg);animation-timing-function: cubic-bezier(0.42,0,1,1)} 76.666667% {transform: translate(450.89243px,266.527063px) rotate(-12.720068deg);animation-timing-function: cubic-bezier(0.42,0,1,1)} 100% {transform: translate(450.89243px,266.527063px) rotate(-6.793425deg)}} #e7jYXnvDLdF32_tr {animation: e7jYXnvDLdF32_tr__tr 3000ms linear infinite normal forwards}@keyframes e7jYXnvDLdF32_tr__tr { 0% {transform: translate(586.339101px,66.326937px) rotate(0deg);animation-timing-function: cubic-bezier(0.42,0,1,1)} 23.333333% {transform: translate(586.339101px,66.326937px) rotate(0.856106deg);animation-timing-function: cubic-bezier(0.42,0,1,1)} 50% {transform: translate(586.339101px,66.326937px) rotate(-2.155057deg);animation-timing-function: cubic-bezier(0.42,0,1,1)} 76.666667% {transform: translate(586.339101px,66.326937px) rotate(-0.623248deg);animation-timing-function: cubic-bezier(0.42,0,1,1)} 100% {transform: translate(586.339101px,66.326937px) rotate(0deg)}} #e7jYXnvDLdF33_tr {animation: e7jYXnvDLdF33_tr__tr 3000ms linear infinite normal forwards}@keyframes e7jYXnvDLdF33_tr__tr { 0% {transform: translate(811.263877px,205.995213px) rotate(0deg);animation-timing-function: cubic-bezier(0.42,0,1,1)} 23.333333% {transform: translate(811.263877px,205.995213px) rotate(4.817656deg);animation-timing-function: cubic-bezier(0.42,0,1,1)} 50% {transform: translate(811.263877px,205.995213px) rotate(-4.018702deg);animation-timing-function: cubic-bezier(0.42,0,1,1)} 76.666667% {transform: translate(811.263877px,205.995213px) rotate(0.890497deg);animation-timing-function: cubic-bezier(0.42,0,1,1)} 100% {transform: translate(811.263877px,205.995213px) rotate(0deg)}} #e7jYXnvDLdF34_tr {animation: e7jYXnvDLdF34_tr__tr 3000ms linear infinite normal forwards}@keyframes e7jYXnvDLdF34_tr__tr { 0% {transform: translate(826.395234px,218.843007px) rotate(0deg);animation-timing-function: cubic-bezier(0.42,0,1,1)} 23.333333% {transform: translate(826.395234px,218.843007px) rotate(15.530149deg);animation-timing-function: cubic-bezier(0.42,0,1,1)} 50% {transform: translate(826.395234px,218.843007px) rotate(-2.190374deg);animation-timing-function: cubic-bezier(0.42,0,1,1)} 76.666667% {transform: translate(826.395234px,218.843007px) rotate(3.614172deg);animation-timing-function: cubic-bezier(0.42,0,1,1)} 100% {transform: translate(826.395234px,218.843007px) rotate(0deg)}} #e7jYXnvDLdF39_tr {animation: e7jYXnvDLdF39_tr__tr 3000ms linear infinite normal forwards}@keyframes e7jYXnvDLdF39_tr__tr { 0% {transform: translate(574.562857px,80.530268px) rotate(0deg);animation-timing-function: cubic-bezier(0.42,0,1,1)} 23.333333% {transform: translate(574.562857px,80.530268px) rotate(5.171798deg);animation-timing-function: cubic-bezier(0.42,0,1,1)} 50% {transform: translate(574.562857px,80.530268px) rotate(0.707261deg);animation-timing-function: cubic-bezier(0.42,0,1,1)} 76.666667% {transform: translate(574.562857px,80.530268px) rotate(-0.243467deg);animation-timing-function: cubic-bezier(0.42,0,1,1)} 100% {transform: translate(574.562857px,80.530268px) rotate(0deg)}} #e7jYXnvDLdF62_to {animation: e7jYXnvDLdF62_to__to 3000ms linear infinite normal forwards}@keyframes e7jYXnvDLdF62_to__to { 0% {transform: translate(444.912317px,263.528209px)} 40% {transform: translate(444.912317px,263.528209px);animation-timing-function: cubic-bezier(0,0,0.58,1)} 50% {transform: translate(445.598254px,257.519622px);animation-timing-function: cubic-bezier(0,0,0.58,1)} 86.666667% {transform: translate(437.302853px,258.787349px);animation-timing-function: cubic-bezier(0,0,0.58,1)} 100% {transform: translate(444.912317px,263.528209px)}} #e7jYXnvDLdF62_tr {animation: e7jYXnvDLdF62_tr__tr 3000ms linear infinite normal forwards}@keyframes e7jYXnvDLdF62_tr__tr { 0% {transform: rotate(0deg)} 40% {transform: rotate(0deg);animation-timing-function: cubic-bezier(0,0,0.58,1)} 50% {transform: rotate(-6.646665deg);animation-timing-function: cubic-bezier(0,0,0.58,1)} 86.666667% {transform: rotate(-6.646665deg);animation-timing-function: cubic-bezier(0,0,0.58,1)} 100% {transform: rotate(0deg)}} #e7jYXnvDLdF75_to {animation: e7jYXnvDLdF75_to__to 3000ms linear infinite normal forwards}@keyframes e7jYXnvDLdF75_to__to { 0% {transform: translate(645.591167px,261.94392px)} 40% {transform: translate(645.591167px,261.94392px);animation-timing-function: cubic-bezier(0,0,0.58,1)} 50% {transform: translate(645.229265px,255.70926px);animation-timing-function: cubic-bezier(0,0,0.58,1)} 86.666667% {transform: translate(645.229265px,255.70926px);animation-timing-function: cubic-bezier(0,0,0.58,1)} 100% {transform: translate(645.591167px,261.94392px)}} #e7jYXnvDLdF75_tr {animation: e7jYXnvDLdF75_tr__tr 3000ms linear infinite normal forwards}@keyframes e7jYXnvDLdF75_tr__tr { 0% {transform: rotate(10.9957deg)} 16.666667% {transform: rotate(10.9957deg)} 40% {transform: rotate(10.9957deg)} 50% {transform: rotate(11.83028deg);animation-timing-function: cubic-bezier(0,0,0.58,1)} 86.666667% {transform: rotate(8.98897deg);animation-timing-function: cubic-bezier(0,0,0.58,1)} 100% {transform: rotate(10.9957deg)}} #e7jYXnvDLdF113_to {animation: e7jYXnvDLdF113_to__to 3000ms linear infinite normal forwards}@keyframes e7jYXnvDLdF113_to__to { 0% {transform: translate(531.207831px,345.287223px);animation-timing-function: cubic-bezier(0.675,0,1,1)} 50% {transform: translate(527.728587px,339.233514px);animation-timing-function: cubic-bezier(0.675,0,1,1)} 100% {transform: translate(531.207831px,345.287223px)}} #e7jYXnvDLdF113_tr {animation: e7jYXnvDLdF113_tr__tr 3000ms linear infinite normal forwards}@keyframes e7jYXnvDLdF113_tr__tr { 0% {transform: rotate(0deg);animation-timing-function: cubic-bezier(0.715,-0.02,1,1)} 50% {transform: rotate(1.531053deg);animation-timing-function: cubic-bezier(0.715,-0.02,1,1)} 100% {transform: rotate(0deg)}} #e7jYXnvDLdF127_tr {animation: e7jYXnvDLdF127_tr__tr 3000ms linear infinite normal forwards}@keyframes e7jYXnvDLdF127_tr__tr { 0% {transform: translate(560.021239px,90.383375px) rotate(0deg);animation-timing-function: cubic-bezier(0.42,0,1,1)} 23.333333% {transform: translate(560.021239px,90.383375px) rotate(1.569566deg);animation-timing-function: cubic-bezier(0.42,0,1,1)} 50% {transform: translate(560.021239px,90.383375px) rotate(-2.639734deg);animation-timing-function: cubic-bezier(0.42,0,1,1)} 76.666667% {transform: translate(560.021239px,90.383375px) rotate(1.569566deg);animation-timing-function: cubic-bezier(0.42,0,1,1)} 100% {transform: translate(560.021239px,90.383375px) rotate(0deg)}} #e7jYXnvDLdF128_tr {animation: e7jYXnvDLdF128_tr__tr 3000ms linear infinite normal forwards}@keyframes e7jYXnvDLdF128_tr__tr { 0% {transform: translate(528.417576px,158.216235px) rotate(0deg);animation-timing-function: cubic-bezier(0.645,0.045,0.355,1)} 23.333333% {transform: translate(528.417576px,158.216235px) rotate(6.450849deg);animation-timing-function: cubic-bezier(0.645,0.045,0.355,1)} 50% {transform: translate(528.417576px,158.216235px) rotate(-5.09651deg);animation-timing-function: cubic-bezier(0.645,0.045,0.355,1)} 76.666667% {transform: translate(528.417576px,158.216235px) rotate(-2.291642deg);animation-timing-function: cubic-bezier(0.645,0.045,0.355,1)} 100% {transform: translate(528.417576px,158.216235px) rotate(0deg)}} #e7jYXnvDLdF129_tr {animation: e7jYXnvDLdF129_tr__tr 3000ms linear infinite normal forwards}@keyframes e7jYXnvDLdF129_tr__tr { 0% {transform: translate(588.297857px,173.446451px) rotate(0deg);animation-timing-function: cubic-bezier(0.42,0,1,1)} 23.333333% {transform: translate(588.297857px,173.446451px) rotate(7.248077deg);animation-timing-function: cubic-bezier(0.42,0,1,1)} 50% {transform: translate(588.297857px,173.446451px) rotate(-8.656643deg);animation-timing-function: cubic-bezier(0.42,0,1,1)} 76.666667% {transform: translate(588.297857px,173.446451px) rotate(-1.683771deg);animation-timing-function: cubic-bezier(0.42,0,1,1)} 100% {transform: translate(588.297857px,173.446451px) rotate(0deg)}} #e7jYXnvDLdF142_to {animation: e7jYXnvDLdF142_to__to 3000ms linear infinite normal forwards}@keyframes e7jYXnvDLdF142_to__to { 0% {transform: translate(764.118059px,676.703309px);animation-timing-function: cubic-bezier(0.42,0,1,1)} 50% {transform: translate(773.485826px,676.703309px);animation-timing-function: cubic-bezier(0.42,0,1,1)} 100% {transform: translate(764.118059px,676.703309px)}} #e7jYXnvDLdF143_to {animation: e7jYXnvDLdF143_to__to 3000ms linear infinite normal forwards}@keyframes e7jYXnvDLdF143_to__to { 0% {transform: translate(785.067312px,626.512282px);animation-timing-function: cubic-bezier(0.42,0,1,1)} 50% {transform: translate(778.822134px,626.512282px);animation-timing-function: cubic-bezier(0.42,0,1,1)} 100% {transform: translate(785.067312px,626.512282px)}} #e7jYXnvDLdF143_ts {animation: e7jYXnvDLdF143_ts__ts 3000ms linear infinite normal forwards}@keyframes e7jYXnvDLdF143_ts__ts { 0% {transform: skewX(1.256088deg) skewY(0deg) scale(1,1);animation-timing-function: cubic-bezier(0.42,0,1,1)} 50% {transform: skewX(1.256088deg) skewY(0deg) scale(0.882056,1);animation-timing-function: cubic-bezier(0.42,0,1,1)} 100% {transform: skewX(1.256088deg) skewY(0deg) scale(1,1)}} #e7jYXnvDLdF158_to {animation: e7jYXnvDLdF158_to__to 3000ms linear infinite normal forwards}@keyframes e7jYXnvDLdF158_to__to { 0% {transform: translate(531.313889px,689.549744px);animation-timing-function: cubic-bezier(0.42,0,1,1)} 50% {transform: translate(550.049423px,691.631462px);animation-timing-function: cubic-bezier(0.42,0,1,1)} 100% {transform: translate(531.313889px,689.549744px)}}
]]></style>
<defs><radialGradient id="e7jYXnvDLdF29-fill" cx="0" cy="0" r="41.85" spreadMethod="pad" gradientUnits="userSpaceOnUse" gradientTransform="matrix(0.05 0.94 -0.98 0.05 1.2056 0.0251)"><stop id="e7jYXnvDLdF29-fill-0" offset="0%" stop-color="#906b5f"/><stop id="e7jYXnvDLdF29-fill-1" offset="21%" stop-color="rgba(144,107,95,0.98)"/><stop id="e7jYXnvDLdF29-fill-2" offset="38%" stop-color="rgba(144,107,95,0.91)"/><stop id="e7jYXnvDLdF29-fill-3" offset="53%" stop-color="rgba(144,107,95,0.8)"/><stop id="e7jYXnvDLdF29-fill-4" offset="67%" stop-color="rgba(144,107,95,0.63)"/><stop id="e7jYXnvDLdF29-fill-5" offset="80%" stop-color="rgba(144,107,95,0.43)"/><stop id="e7jYXnvDLdF29-fill-6" offset="93%" stop-color="rgba(144,107,95,0.17)"/><stop id="e7jYXnvDLdF29-fill-7" offset="100%" stop-color="rgba(144,107,95,0)"/></radialGradient><radialGradient id="e7jYXnvDLdF30-fill" cx="0" cy="0" r="41.85" spreadMethod="pad" gradientUnits="userSpaceOnUse" gradientTransform="matrix(0.05 0.94 -0.98 0.05 1.3329 -0.4539)"><stop id="e7jYXnvDLdF30-fill-0" offset="0%" stop-color="#906b5f"/><stop id="e7jYXnvDLdF30-fill-1" offset="21%" stop-color="rgba(144,107,95,0.98)"/><stop id="e7jYXnvDLdF30-fill-2" offset="38%" stop-color="rgba(144,107,95,0.91)"/><stop id="e7jYXnvDLdF30-fill-3" offset="53%" stop-color="rgba(144,107,95,0.8)"/><stop id="e7jYXnvDLdF30-fill-4" offset="67%" stop-color="rgba(144,107,95,0.63)"/><stop id="e7jYXnvDLdF30-fill-5" offset="80%" stop-color="rgba(144,107,95,0.43)"/><stop id="e7jYXnvDLdF30-fill-6" offset="93%" stop-color="rgba(144,107,95,0.17)"/><stop id="e7jYXnvDLdF30-fill-7" offset="100%" stop-color="rgba(144,107,95,0)"/></radialGradient><linearGradient id="e7jYXnvDLdF161-fill" x1="466.33" y1="682.96" x2="513.9" y2="685.86" spreadMethod="pad" gradientUnits="userSpaceOnUse" gradientTransform="translate(0 0)"><stop id="e7jYXnvDLdF161-fill-0" offset="0%" stop-color="#f8dedb"/><stop id="e7jYXnvDLdF161-fill-1" offset="12%" stop-color="#edd0cc"/><stop id="e7jYXnvDLdF161-fill-2" offset="28%" stop-color="#e4c4bf"/><stop id="e7jYXnvDLdF161-fill-3" offset="49%" stop-color="#debeb8"/><stop id="e7jYXnvDLdF161-fill-4" offset="100%" stop-color="#ddbcb6"/></linearGradient><linearGradient id="e7jYXnvDLdF162-fill" x1="465.81" y1="691.4" x2="533.75" y2="695.54" spreadMethod="pad" gradientUnits="userSpaceOnUse" gradientTransform="translate(0 0)"><stop id="e7jYXnvDLdF162-fill-0" offset="0%" stop-color="#f8dedb"/><stop id="e7jYXnvDLdF162-fill-1" offset="100%" stop-color="#ddbcb6"/></linearGradient><linearGradient id="e7jYXnvDLdF163-fill" x1="494.3" y1="698.09" x2="554.37" y2="701.75" spreadMethod="pad" gradientUnits="userSpaceOnUse" gradientTransform="translate(0 0)"><stop id="e7jYXnvDLdF163-fill-0" offset="0%" stop-color="#f8dedb"/><stop id="e7jYXnvDLdF163-fill-1" offset="100%" stop-color="#ddbcb6"/></linearGradient><linearGradient id="e7jYXnvDLdF164-fill" x1="530.91" y1="702.75" x2="577.23" y2="705.57" spreadMethod="pad" gradientUnits="userSpaceOnUse" gradientTransform="translate(0 0)"><stop id="e7jYXnvDLdF164-fill-0" offset="0%" stop-color="#f8dedb"/><stop id="e7jYXnvDLdF164-fill-1" offset="100%" stop-color="#ddbcb6"/></linearGradient></defs><g style="isolation:isolate" transform="translate(0-.000097)"><g transform="matrix(.960741 0 0 0.960745-.000001 31.5866)"><g id="e7jYXnvDLdF4_to" transform="translate(574.5923,682.34047)"><g id="e7jYXnvDLdF4_tr" transform="rotate(-2.461221)"><g transform="translate(-581.303997,-684.1963)"><g><path d="M585.24,436.15l8.49,46c0,0,22.85,22.42,64.26-23l-7.78-52.05Z" fill="#cdaca3"/><path d="M536,481.18l179.62,3.25l7.57,1.81c0,0,9.53-4.51,15.25-3.06c16,4.07,51.631327,97.043518,56.17,195c2.31585,49.982119-76.145291,17.149162-65.94829,38.437206L439.09,668.2c0,0,41.91-146.12,76.91-187.02c11-14.02,14-.11,20,0Z" transform="translate(.053024-.488839)" fill="#1b1e17"/><path d="M724.21,482.81c-15.12,7.35-44.38,61.23-52.7,136.1-3,7.69-26.77,44.65-76.14,53.45-.7,0-1.41,0-2.13,0-1.247254.019042-2.491083.136069-3.72.35-1.12108.163962-2.227739.414715-3.31.75-.19.06-.36.13-.54.2-2,.19-4,.34-6,.43l3.3,6c.421289,1.73103,1.290346,3.320852,2.52,4.61c1.032526,1.086247,2.283266,1.941658,3.67,2.51c1.4986.561137,3.090121.832612,4.69.8.41,0,.82,0,1.22-.08.401191-.068747.798424-.158875,1.19-.27.758118-.205893,1.494806-.483825,2.2-.83c1.357141-.635109,2.550945-1.572365,3.49-2.74c1.450424-1.810744,2.243651-4.059982,2.25-6.38l.75-.16c.740723,2.144986,2.204308,3.96563,4.14,5.15c1.286405.785526,2.718486,1.302571,4.21,1.52c1.596233.166665,3.209647.020608,4.75-.43.796896-.224605,1.557835-.561304,2.26-1c.682154-.390678,1.325119-.846112,1.92-1.36.577682-.488745,1.100732-1.038618,1.56-1.64.434322-.604137.806226-1.250781,1.11-1.93c1.001447-2.239705,1.150796-4.767968.42-7.11.053233-.038854.110177-.07235.17-.1c1.272594,2.106207,3.277109,3.669231,5.63,4.39c1.429115.460176,2.945336.58339,4.43.36c1.593602-.194548,3.125746-.733699,4.49-1.58c1.3574-.840166,2.528164-1.949669,3.44-3.26.830259-1.240747,1.404793-2.634585,1.69-4.1.504383-2.861194-.22184-5.802397-2-8.1v0c.890369,1.115046,1.99554,2.039989,3.25,2.72c1.268565.694651,2.676035,1.097762,4.12,1.18c1.487926.096899,2.979703-.117672,4.38-.63c1.488961-.55835,2.849582-1.41214,4-2.51c1.128396-1.10146,2.019948-2.421772,2.62-3.88.541078-1.378044.802817-2.849901.77-4.33-.092735-2.424386-1.034213-4.739148-2.66-6.54c3.418445,2.918347,8.321026,3.321189,12.17,1c4.0152-2.456601,6.080726-7.14989,5.18-11.77-.44301-2.025764-1.488874-3.869972-3-5.29c3.747327,1.724028,8.160846,1.055908,11.23-1.7.592395-.516731,1.12263-1.10066,1.58-1.74.12-.16.24-.34.35-.51s.1-.15.18-.29l.25-.48c.17-.34.33-.67.49-1l.24-.52c.051068-.183547.087845-.370774.11-.56.06-.4.12-.79.17-1.18l.07-.64v-.29c.033043-1.082284-.091596-2.163615-.37-3.21-1.150014-4.198328-4.636163-7.344841-8.93-8.06v0c2.834668.357239,5.698314-.387309,8-2.08c1.727852-1.255043,3.043586-2.99543,3.78-5c.281371-.68609.4892-1.400082.62-2.13c1.035948-5.95089-2.850842-11.645902-8.77-12.85c2.842692.522117,5.776958-.084107,8.18-1.69c1.156194-.798794,2.170255-1.785813,3-2.92.864739-1.196427,1.47404-2.557994,1.79-4c1.122854-5.423824-1.836718-10.865208-7-12.87c5.495048.718766,10.692847-2.678488,12.24-8c1.570995-5.746825-1.581247-11.727779-7.21-13.68v0c2.740024.874427,5.711219.663221,8.3-.59c1.260484-.624665,2.411943-1.448583,3.41-2.44c1.005684-1.02553,1.788708-2.247728,2.3-3.59.518975-1.343718.75062-2.781276.68-4.22-.033194-1.395144-.314236-2.773267-.83-4.07-1.08584-2.679708-3.142855-4.851002-5.76-6.08c2.636059,1.161894,5.617189,1.269258,8.33.3c2.709166-.857104,4.974494-2.741886,6.31-5.25.64-1.31,1.64-2.67,1.79-4s.48-4.72.12-6.08c-.75-2.71-1.94-6.81-4.79-7.89c8.51,3.22,17-7.05,17.5-7.53c9.64-16.54-3.81-10.29-7.15-8.66ZM658.8,643.67l.07-.08c.055744.114199.119225.224455.19.33ZM682.63,586v0h.16Z" fill="#677f49"/><path d="M568.88,667.57L519,620.14l15.31-141.4-4.31-1c.41-.95.3-1.62-1.09-2.3-3-2.39-13.24-3.66-14.73,1.85-1.4,5.11,1.23,12,5.77,14.09v.17c-5.028453-.622988-9.687875,2.733191-10.69,7.7-1.260135,5.129219,1.648575,10.362281,6.67,12v.06c-5.186106-.63025-9.94282,2.951639-10.77,8.11-1.090885,5.303996,2.23824,10.512681,7.51,11.75v0c-2.566037-.301389-5.146684.429109-7.174038,2.030738s-3.335284,3.943142-3.635962,6.509262c-.806179,5.203678,2.561139,10.140954,7.7,11.29v.05c-2.398719-.140501-4.761296.63511-6.61,2.17-2.039115,1.761368-3.30349,4.254198-3.52,6.94-.62772,5.281824,3.042875,10.111089,8.3,10.92v0c-2.389515-.007973-4.691011.901171-6.43,2.54-.952009.896679-1.725634,1.965503-2.28,3.15-.597316,1.249795-.9147,2.614886-.93,4-.12,5.73,4.11,10.37,9.45,10.41-2.58214.011788-5.042612,1.09889-6.79,3-1.812897,2.024933-2.769983,4.673945-2.67,7.39.029675,1.375892.321559,2.733492.86,4c.550639,1.200292,1.336084,2.278153,2.31,3.17c1.890903,1.75759,4.424353,2.655155,7,2.48-2.581435.224343-4.955426,1.505429-6.56,3.54-.82624,1.041708-1.450307,2.228793-1.84,3.5-.429946,1.460962-.508752,3.002816-.23,4.5.423118,2.856283,2.06974,5.38646,4.51,6.93c1.863718,1.129993,4.088621,1.50558,6.22,1.05-1.986546.978866-3.542439,2.655813-4.37,4.71-1.061093,2.652516-.970519,5.626961.25,8.21c1.126114,2.580031,3.314452,4.545889,6,5.39c1.789793.53004,3.703871.459799,5.45-.2-1.168808,1.274939-1.940321,2.863143-2.22,4.57-.393909,2.738001.407355,5.513287,2.2,7.62.465069.550305.980654,1.055845,1.54,1.51.551595.417127,1.1408.782033,1.76,1.09c1.186187.587611,2.486621.908453,3.81.94c2.577711.051479,5.051076-1.017394,6.78-2.93-1.758814,1.883671-2.615874,4.436613-2.35,7c.320733,2.759943,1.828774,5.242916,4.13,6.8.591379.412558,1.220921.767513,1.88,1.06.645271.260662,1.315388.454996,2,.58c1.297466.262959,2.637629.228771,3.92-.1c2.495845-.625132,4.59961-2.298664,5.77-4.59-1.197223,2.279225-1.361032,4.962049-.45,7.37c1.939993,4.585088,6.957346,7.044742,11.77,5.77.62538-.179744,1.229029-.427911,1.8-.74c2.26-1.21,4.61-6.68,4.51-7.06ZM508.7,611.3c-.09641-.009967-.19359-.009967-.29,0c.1,0,.19,0,.29-.06Zm22.95,50.32v0v0Zm-23.16-70.17c-.250367-.120166-.522539-.188209-.8-.2.268478-.006272.533262-.063981.78-.17Z" fill="#677f49"/><g clip-path="url(#e7jYXnvDLdF17)"><g><path d="M560,456.83l-4.94-12c-.353432-.632374-.240984-1.422923.274759-1.931666s1.307757-.610375,1.935241-.248334c9.32,5.52,26.24,12.3,67.29,2.55c27.48-6.53,47.23-21,55.89-32.92.925957-1.21456,2.554559-1.651841,3.964346-1.064429s2.246058,2.051722,2.035654,3.564429l-5.39,31.78c-.709662,4.142891,1.030515,8.323989,4.47,10.74l38.59,26.93c0,0-32.68,14-52.44,137.54c0,0-33.33,57.38-100.93,52-46-3.68-57.44-47-58.77-59.31-7.2-66.93,17.51-136.82,17.51-136.82l27.9-14.13c2.37-1.45,3.98-4.35,2.61-6.68Z" fill="#cfd1d1"/><path style="mix-blend-mode:multiply" d="M571.38,438.07c0,0-.28,26,8.43,46c.56,1.28-.67,2.59-1.53,1.63-6.696477-7.890786-12.563988-16.44911-17.51-25.54-23.48-43.43,10.61-22.09,10.61-22.09Z" fill="#dcdddd"/><path style="mix-blend-mode:multiply" d="M651.48,430.18c-.290366.192839-.472151.511889-.49.86-.24,4.67-2,32.67-5.56,38.21-3.88,6.13-16,17.64-27.08,22.59-.577138.207107-.877107.842862-.67,1.42s.842862.877107,1.42.67c17.68-5.16,47.36-25.32,71.89-46.57c36.61-31.69,8-42.28,3.49-45.29-.371694-.250644-.858306-.250644-1.23,0Z" fill="#dcdddd"/><path d="M537.2,469.15c0,0-26.37,76.33-19.06,145.6c4.56,43.24,53.67,52.88,53.67,52.88s46.56,1.51,80-30.18c9.229727-8.828059,15.313282-20.436691,17.32-33.05c5.17-31.72,20-102.07,52.72-125.28" fill="none" stroke="#677f49" stroke-width="3" stroke-miterlimit="10"/><path d="M548,462.09c0,0-29.61,81.26-23,150.6c3.76,39.58,48.46,46.81,48.46,46.81s45.54,1.25,70.33-25.13c9.29-9.89,15.23-21,17.63-34.32c5.83-32.5,21.73-102,54-124.94" fill="none" stroke="#677f49" stroke-width="3" stroke-miterlimit="10"/></g><clipPath id="e7jYXnvDLdF17"><path d="M560,456.83l-4.94-12c-.353432-.632374-.240984-1.422923.274759-1.931666s1.307757-.610375,1.935241-.248334c9.32,5.52,26.24,12.3,67.29,2.55c27.48-6.53,47.23-21,55.89-32.92.925957-1.21456,2.554559-1.651841,3.964346-1.064429s2.246058,2.051722,2.035654,3.564429l-5.39,31.78c-.709662,4.142891,1.030515,8.323989,4.47,10.74l37,25.86c.335174.222329.536675.597791.536675,1s-.201501.777671-.536675,1c-6.48,4.4-31.89,27.45-49.12,126-1.415879,8.259946-4.997708,15.996422-10.38,22.42-13.86,16.48-44.52,44.05-92.33,40.22-46-3.68-57.44-47-58.77-59.31-7.2-66.93,17.51-136.82,17.51-136.82l27.9-14.13c2.42-1.48,4.03-4.38,2.66-6.71Z" fill="none"/></clipPath></g><path d="M642.6,481.08c-1.288605-.059886-2.575645.147811-3.78.61c1.309627-.382042,2.48028-1.135845,3.37-2.17.817723-1.073611,1.490195-2.250436,2-3.5.97932-2.419079,1.011453-5.118292.09-7.56-.463921-1.251303-1.178524-2.394669-2.1-3.36-.90168-.973263-1.976658-1.77017-3.17-2.35-2.331915-1.172989-5.007108-1.471021-7.54-.84v0c2.458867-.883208,4.520025-2.617986,5.81-4.89c1.363835-2.366632,1.754673-5.170622,1.09-7.82-1.38-5.46-9.39-8.87-13.92-5.47-.256323.172751-.500251.363215-.73.57l-2.07,1.64c0,0,1,3,2.39,7.35.19.69.4,1.37.64,2c3.48,11.14,8.62,28.75,7.73,33c0,0-38.13,80.85-27.71,183.69v0c-.119788,1.474237-.119788,2.955763,0,4.43.6,5.36,2.65,10.52,5.53,10.14c5.393978-.657108,9.421828-5.279854,9.334363-10.713006s-4.262029-9.923851-9.674363-10.406994c-.004853-.096606-.004853-.193394,0-.29c5.119144-1.230067,8.561974-6.027992,8.08803-11.271472s-4.721291-9.34631-9.97803-9.638528v-.07c5.460452-.430988,9.703547-4.9336,9.81-10.41.061614-2.758153-.98262-5.426352-2.9-7.41-1.884705-2.001525-4.465203-3.204088-7.21-3.36v0c5.71666.182491,10.56418-4.167056,11-9.87.336669-5.501537-3.557226-10.360252-9-11.23v0c5.266862.246954,9.914532-3.414741,10.906997-8.593142s-1.972039-10.299004-6.956997-12.016858v-.18c5.564054.604216,10.649381-3.19341,11.65-8.7.490243-2.716211-.121499-5.515828-1.7-7.78-1.299496-1.921975-3.192628-3.365532-5.39-4.11l.1-.44c5.107547.269753,9.678032-3.149457,10.861255-8.125377s-1.358975-10.086455-6.041255-12.144623c4.915226.223723,9.345001-2.945714,10.72-7.67.762061-2.652793.445794-5.499191-.88-7.92-1.088026-2.027885-2.803651-3.648782-4.89-4.62v-.18c1.986655.166986,3.980671-.220739,5.76-1.12c2.472543-1.232536,4.361656-3.387417,5.26-6c1.813493-5.253244-.692454-11.02083-5.77-13.28v0c5.32,1.72,13.84-3.1,14-9.79.19-7.09-3.33-8.04-4.73-8.13Z" fill="#677f49"/><g transform="translate(.000001 0.000001)"><path d="M612.2,475.75c-1,3.5-4.57,5.43-8.26,5.43-4.3643-.16842-8.464802-2.13362-11.33-5.43-5.06-5.92-4.53-14.89,5.59-14.89s15.71,8.97,14,14.89Z" fill="#32342c"/><path d="M604.85,519.1c-1.54,6.21-8.31,10-14.17,9-2.245137-.287308-4.280422-1.465398-5.647801-3.269133s-1.951966-4.081572-1.622199-6.320867c.7-4.78,5.28-9.3,11-10c6.85-.85,12.09,4,10.44,10.59Z" fill="#32342c"/><path d="M593.37,571.15c.69,6.36-4.64,12.33-10.78,13.47-5.2,1-9.62-1.87-10.58-6.39-1-4.73,1.89-10.59,7.28-13.28c6.47-3.23,13.36-.56,14.08,6.2Z" fill="#32342c"/><path d="M575,620.76c6.47,2.19,10,9.13,8.56,14.65-1.24,4.67-5.86,7.06-10.66,5.9-5.400231-1.467002-9.324865-6.128751-9.85-11.7-.44-6.69,5.06-11.18,11.95-8.85Z" fill="#32342c"/></g></g><g transform="matrix(.998948 0.04586-.04586 0.998948 21.383629-28.373852)"><g id="e7jYXnvDLdF26_tr" transform="translate(450.89243,266.527063) rotate(-6.793425)"><path d="M426.662354,289.630271l-75.904262-11.274912-4.199129,174.456811q120.168912,11.021247,80.103391-163.181899Z" transform="translate(-392.282397,-294.281881)" fill="#072e29" stroke-width="1.73398"/></g><path d="M765.9,263.77c4.47,114.49-90.5,180.05-202.72,181.44-54.59-9.06-77-27.57-99.64-49.33-27.79-26.71-37.26-98.11-39.21-148C419.85,133.36,478.59,85,588.24,80.19s173.18,69.1,177.66,183.58Z" fill="#f8dedb"/><g><ellipse rx="41.24" ry="39.5" transform="matrix(.009425-.999956 0.999956 0.009425 458.091 358.368)" opacity="0.5" fill="url(#e7jYXnvDLdF29-fill)"/><ellipse rx="41.24" ry="39.5" transform="matrix(.009425-.999956 0.999956 0.009425 656.824 371.662)" opacity="0.5" fill="url(#e7jYXnvDLdF30-fill)"/></g><g transform="translate(.000001 0)"><g id="e7jYXnvDLdF32_tr" transform="translate(586.339101,66.326937) rotate(0)"><path d="M452.27,120.3c0,0,83.63-100.6,141.73-66.97c23.188984-2.219591,46.558115-1.716162,69.63,1.5C687,58.23,863.91,60.5,835.51,274.62c-10,140.93-127.78,152.85-127.78,152.85s45.64-214.87-100-264.37-155.46-42.8-155.46-42.8Z" transform="translate(-586.339101,-66.326937)" fill="#072e29"/></g><g id="e7jYXnvDLdF33_tr" transform="translate(811.263877,205.995213) rotate(0)"><path d="M801.08,174.91c.66,1.55,1.17,2.86,1.74,4.29s1.06,2.79,1.58,4.18q1.54,4.19,2.92,8.4q2.79,8.43,5.16,16.95c1.57,5.68,3,11.39,4.37,17.13s2.5,11.52,3.54,17.32c4.335549,23.193815,6.548035,46.73453,6.61,70.33.043723,11.812174-.533741,23.618475-1.73,35.37-.3,2.94-.68,5.87-1,8.8s-.83,5.85-1.24,8.77-.95,6-1.61,9-1.49,6-2.48,9c-1.936214,6.039464-4.663224,11.796112-8.11,17.12-3.491196,5.434808-7.888205,10.23093-13,14.18-7.662182,5.857935-16.767865,9.531309-26.35,10.63-1.57.18-3.14.3-4.73.33-.79,0-1.59,0-2.39,0l-1.21-.06-1.35-.11c-2.021766-.258186-3.526091-1.995265-3.492767-4.033177s1.593641-3.724878,3.622767-3.916823h.41l.83-.06l1-.09c.64-.07,1.29-.15,1.94-.26c1.3-.2,2.6-.45,3.88-.76c5.093937-1.214532,9.959395-3.240399,14.41-6c2.166482-1.370248,4.219715-2.911845,6.14-4.61c3.814567-3.434139,7.061421-7.450517,9.62-11.9c1.305451-2.253446,2.458046-4.592044,3.45-7c1.023016-2.434816,1.907757-4.925445,2.65-7.46.75-2.55,1.36-5.16,1.87-7.8s.94-5.26,1.26-8.13.75-5.61,1-8.43.55-5.63.78-8.46c.9-11.29,1.19-22.63,1-34-.428817-22.699496-2.767067-45.32265-6.99-67.63-2.11-11.15-4.66-22.22-7.58-33.18q-2.22-8.22-4.81-16.3c-.87-2.69-1.76-5.37-2.67-8q-.69-2-1.41-4c-.48-1.28-1-2.67-1.45-3.79v-.09c-1.477385-3.798902.349748-8.08228,4.114279-9.645172s8.088121.166937,9.735721,3.895172Z" transform="translate(-811.263877,-205.995213)" fill="#072e29"/></g><g id="e7jYXnvDLdF34_tr" transform="translate(826.395234,218.843007) rotate(0)"><path d="M809.54,170.94c.63.61,1.49,1.4,2.4,2.22s1.82,1.68,2.73,2.56c1.83,1.76,3.62,3.61,5.31,5.55c3.401424,3.845474,6.510116,7.940255,9.3,12.25c5.461971,8.533992,9.848538,17.710179,13.06,27.32c3.172071,9.427701,5.514312,19.114538,7,28.95c1.488027,9.703606,2.333201,19.494937,2.53,29.31.25,9.76,0,19.48-.69,29.16-.42,4.82-.74,9.66-1.33,14.45l-.79,7.13-.37,3.38-.29,3.38c-.65,9-.5,17.94,1.57,26.07.521792,1.983545,1.190301,3.925562,2,5.81.79259,1.807647,1.778319,3.524292,2.94,5.12c1.110833,1.544863,2.437701,2.922247,3.94,4.09.733652.577594,1.516667,1.089565,2.34,1.53.4.22.81.42,1.22.6.19.07.4.17.58.23l.27.1h.11c0,0,.09,0,0,0c2.209139.21263,3.82763,2.175861,3.615,4.385s-2.175861,3.82763-4.385,3.615l-.77-.08-.6-.08c-.4-.06-.76-.13-1.14-.21-.726022-.156815-1.443613-.350398-2.15-.58-1.386721-.448605-2.726393-1.031363-4-1.74-2.509646-1.380058-4.790081-3.140985-6.76-5.22-3.741116-4.033241-6.601783-8.80102-8.4-14-1.721717-4.92718-2.862762-10.038392-3.4-15.23-.529585-5.021451-.696684-10.074533-.5-15.12l.16-3.74.3-3.71.6-7.05c.45-4.65.63-9.3.93-13.95.35-9.3.44-18.58.06-27.81-.371989-9.180691-1.296999-18.330615-2.77-27.4-1.460673-8.944075-3.651327-17.753514-6.55-26.34-1.432154-4.224071-3.101473-8.363982-5-12.4-1.858091-4.006675-3.969015-7.891175-6.32-11.63-2.338104-3.692846-4.948695-7.205946-7.81-10.51-1.42-1.65-2.91-3.24-4.46-4.81-.78-.79-1.58-1.56-2.42-2.37s-1.71-1.63-2.76-2.69c-2.779839-2.933689-2.735193-7.542468.100957-10.421754s7.443731-2.993489,10.419043-.258246Z" transform="translate(-826.395234,-218.843007)" fill="#072e29"/></g></g><path d="M775,300.58c-16.8-3.38-29.61,6.07-28.69,15.79l-16.67,85.49c-.65,3.35,13.54.82,14.46.56c26.41-7.28,45.82-23.86,57.34-48.34c6.09-12.94,6.65-46.85-26.44-53.5Z" fill="#cdaca3"/><g><path d="M586,53c0,0-28.36-16.75-15.23-30.6s50.52-29.4,102.07-19.02s155.87,27.62,168.87,92.86-84.32,58.76-116.28,30.87-62.64-58.73-139.43-74.11Z" fill="#1b1e17"/><path d="M753,132.42c-.28-1.14,1.59-2.72,4.33-3.78-.28-.15-.57-.31-.85-.48-4.53-2.62-7.46-6-6.55-7.6s4.66-.85,8.8,1.31c-1.62-4.39-1.66-8.34,0-9.17s4.43,1.71,6.53,5.8c3-4.5,6.36-7.25,8-6.3s1,5.32-1.49,10.17c4.67-.26,8.36.88,8.48,2.76s-3.34,3.81-8,4.6c3.82,2.49,6.17,5.43,5.34,6.86s-5.32.74-9.85-1.88l-.65-.39c.46,2.91,0,5.32-1.1,5.66-1.29.38-3-2.13-3.86-5.62c0-.21-.1-.42-.14-.63l-2,3.57c-.276142.488772-.896228.661142-1.385.385s-.661142-.896228-.385-1.385l2-3.44-.42.13c-3.47,1.01-6.51.75-6.8-.57Z" fill="#677f49" fill-rule="evenodd"/></g><g id="e7jYXnvDLdF39_tr" transform="translate(574.562857,80.530268) rotate(0)"><path d="M633.51,37.93c-36.61-6.83-55.17,24.4-56.21,26.76-34.7-74.92-205.42,57.68-167.89,248.78c4.6,48.08-18,62.87-29.84,63.18-3.34.09-4.82,4.32-2.41,6.73c4.81,4.79,14.39,9.84,33.22,8.51c1.419915-.062867,2.760035.657658,3.490677,1.876786s.734221,2.740662.009323,3.963214c-3.87,6.7-13,16.31-33.48,17.17-1.699533.118573-3.127897,1.321297-3.534113,2.975825s.302736,3.381999,1.754113,4.274175c19.3,11.48,60.08,27.72,96.6-10.14c2.85-3,2.15-3.3-1.1-6.05-46-39-37.41-93.91-47.15-124.7C395.48,181.68,551.59,-0.48,576.44,93.24c2.24-6.13,6-25.83,35.94-30.62C639,58.36,722.72,148.78,704,305.48c-6.12,58.82-30.59,69.32-50.29,67.57-3.68-.32-5.57,4.37-2.75,6.86c9.377738,8.22726,21.312315,12.957988,33.78,13.39c1.388412.094533,2.619866.925391,3.2273,2.177448s.497808,2.733539-.2873,3.882552c-4.53,6.52-15.45,16.4-40.83,19.78-3.65.48-4.44,5.71-1.1,7.34c21.3,10.37,67.29,25,118.07-32.56C831.06,317.72,757.24,61,633.51,37.93Z" transform="translate(-574.562857,-80.530268)" fill="#0c3831"/></g><g><path d="M539.14,405.86l39.94-3.1c1.16-.09,3.47,2.15,3.64,4.61.74,10.4-4.13,19.76-17.31,19.76-13.43,0-24.61-8.36-27.7-15.8-.99-2.33-.11-5.33,1.43-5.47Z" fill="#c29d80"/><g transform="translate(.000001 0.000001)"><g clip-path="url(#e7jYXnvDLdF57)"><g><path d="M498.07,307.51c-12.3-5.88-30.93-12.54-50.82-11.5-9.66.5-16.77,9.61-15.37,19.75c1.8,13.07,6.72,30.65,19.88,41.48-2.23,4.3-2.06,9,.46,10.52s6.41-.57,8.83-4.73c1.868661.81393,3.789603,1.502129,5.75,2.06-.73,4.25.59,8.1,3.22,8.85c2.86.83,6.13-2.29,7.32-7c0,0,6.5.11,6.91.09.36,3.95,2.46,7,5,7c2.87,0,5.62-2.88,5.27-8.8c14.26-4.67,22.08-17.33,21.36-28.79s-7.23-23.86-17.81-28.93Z" fill="#fff"/><g clip-path="url(#e7jYXnvDLdF55)"><g><path d="M452.47,285.68c0,0,9,39.22,12.9,54.43c6.72,26.39,31.45,25.78,39.09,19.77c17-13.36,20.54-47.79,20.54-47.79Z" fill="#677f49"/><path d="M443.42,279.45l20.82,65.78c1.424696-5.593137,5.329518-10.227351,10.6-12.58c2.11-1,4.3.89,4.16,3.32-.14341,2.376717.285243,4.753169,1.25,6.93c2.076845,4.97867,6.805506,8.341877,12.19,8.67c7.51.28,13.58-5.29,14-14.4.035508-.959105.548085-1.836979,1.365887-2.339315s1.832575-.562636,2.704113-.160685c8.93,4.38,12.93,10.33,12.93,10.33l2.32-74.34Z" fill="#072e29"/><path d="M489.29,345c-.53-.46-.17-1.91.8-3.42l-.59.07c-3.12.34-5.75-.29-5.85-1.39s2-2.1,4.75-2.52c-2.33-1.58-3.73-3.52-3.21-4.53s2.76-.75,5.22.52c-.13-3.29.56-5.86,1.69-6s2.33,2.28,2.84,5.55c2.19-1.81,4.39-2.57,5.1-1.68s-.29,3.08-2.27,5.13c2.74-.15,4.91.46,5,1.46s-2.34,2.28-5.46,2.61h-.46c1.24,1.28,1.88,2.62,1.44,3.19s-2.22,0-3.85-1.39l-.29-.26.25,2.5c.02262.167325-.022873.336728-.126275.47021s-.256057.219871-.423725.23979c-.166173.013758-.330883-.039996-.456949-.149128s-.202862-.264442-.213051-.430872l-.24-2.41-.15.21c-1.31,1.76-2.88,2.73-3.5,2.23Z" fill="#677f49" fill-rule="evenodd"/></g><g><path d="M452.47,285.68c0,0,9,39.22,12.9,54.43c6.72,26.39,31.45,25.78,39.09,19.77c17-13.36,20.54-47.79,20.54-47.79Z" fill="#677f49"/><path d="M443.42,279.45l20.82,65.78c1.424696-5.593137,5.329518-10.227351,10.6-12.58c2.11-1,4.3.89,4.16,3.32-.14341,2.376717.285243,4.753169,1.25,6.93c2.076845,4.97867,6.805506,8.341877,12.19,8.67c7.51.28,13.58-5.29,14-14.4.035508-.959105.548085-1.836979,1.365887-2.339315s1.832575-.562636,2.704113-.160685c8.93,4.38,12.93,10.33,12.93,10.33l2.32-74.34Z" fill="#072e29"/><path d="M489.29,345c-.53-.46-.17-1.91.8-3.42l-.59.07c-3.12.34-5.75-.29-5.85-1.39s2-2.1,4.75-2.52c-2.33-1.58-3.73-3.52-3.21-4.53s2.76-.75,5.22.52c-.13-3.29.56-5.86,1.69-6s2.33,2.28,2.84,5.55c2.19-1.81,4.39-2.57,5.1-1.68s-.29,3.08-2.27,5.13c2.74-.15,4.91.46,5,1.46s-2.34,2.28-5.46,2.61h-.46c1.24,1.28,1.88,2.62,1.44,3.19s-2.22,0-3.85-1.39l-.29-.26.25,2.5c.02262.167325-.022873.336728-.126275.47021s-.256057.219871-.423725.23979c-.166173.013758-.330883-.039996-.456949-.149128s-.202862-.264442-.213051-.430872l-.24-2.41-.15.21c-1.31,1.76-2.88,2.73-3.5,2.23Z" fill="#677f49" fill-rule="evenodd"/></g><clipPath id="e7jYXnvDLdF55"><path d="M452.47,285.68c0,0,9,39.22,12.9,54.43c6.72,26.39,31.45,25.78,39.09,19.77c17-13.36,20.54-47.79,20.54-47.79Z" fill="none"/></clipPath></g></g><clipPath id="e7jYXnvDLdF57"><path d="M498.07,307.51c-12.3-5.88-30.93-12.54-50.82-11.5-9.66.5-16.77,9.61-15.37,19.75c1.8,13.07,6.72,30.65,19.88,41.48-2.23,4.3-2.06,9,.46,10.52s6.41-.57,8.83-4.73c1.868661.81393,3.789603,1.502129,5.75,2.06-.73,4.25.59,8.1,3.22,8.85c2.86.83,6.13-2.29,7.32-7c0,0,6.5.11,6.91.09.36,3.95,2.46,7,5,7c2.87,0,5.62-2.88,5.27-8.8c14.26-4.67,20.4-17.36,21.36-28.79c1.06-12.17-7.23-23.86-17.81-28.93Z" fill="none"/></clipPath></g><path style="mix-blend-mode:multiply" d="M519.14,327.38c0,0-30-36.28-75.28-32.89c0,0,29.1-12.5,59.29.68c18.72,8.17,15.99,32.21,15.99,32.21Z" opacity="0.2" fill="#906b5f"/><path d="M518.37,330.16c-4.330969-4.015549-9.160623-7.457139-14.37-10.24-4.999414-2.714065-10.303139-4.825484-15.8-6.29-10.770768-2.791048-21.991503-3.396287-33-1.78l-2.06.29c-.38,0-.59.11-.88.15-.273188.04024-.543685.097011-.81.17-.984406.215283-1.955937.485709-2.91.81-1.53979.492619-2.99377,1.221296-4.31,2.16-1.360697.995755-2.442078,2.325097-3.14,3.86-.918615,2.051527-1.398857,4.272225-1.41,6.52.093893,5.336231,1.338932,10.589269,3.65,15.4c1.143409,2.585876,2.519047,5.062693,4.11,7.4c1.615504,2.404114,3.421298,4.674732,5.4,6.79l.5.53c.62826.6813.686907,1.711821.14,2.46v0c-.798098,1.337512-1.312114,2.825093-1.51,4.37-.19,1.47.16,2.88.79,3.36.361021.302087.835013.433347,1.3.36.686698-.076841,1.346797-.309415,1.93-.68c1.389071-.872142,2.561906-2.048396,3.43-3.44v0l.12-.19c.371602-.542961,1.096351-.712214,1.67-.39c1.740749.971158,3.548689,1.816645,5.41,2.53v0c.426873.130116.686073.562117.6,1v0c-.351408,1.653132-.310308,3.365629.12,5c.315869,1.437535,1.533028,2.500521,3,2.62c1.472569.057252,2.886736-.579494,3.82-1.72.942538-1.198206,1.418629-2.697537,1.34-4.22.01873-.239431.090461-.471702.21-.68.176052-.303415.451631-.536597.78-.66.124761-.049355.256227-.079694.39-.09h6.93l.52.06c.657857.078383,1.130357.671236,1.06,1.33-.168373,1.557153.156958,3.127839.93,4.49.355889.625886.874114,1.144111,1.5,1.5.591453.310064,1.281222.37473,1.92.18c1.341138-.515083,2.30304-1.709828,2.52-3.13.306798-1.499296.411061-3.032976.31-4.56v-.09c-.013799-.708526.442966-1.340656,1.12-1.55c1.545351-.482869,3.064131-1.046987,4.55-1.69c1.5-.64,2.95-1.38,4.46-2.17v0c.162809-.08774.354026-.106447.530753-.051925s.324169.177709.409247.341925c.1239.245879.096728.540889-.07.76-1.132785,1.394461-2.483541,2.596634-4,3.56-1.52002.972574-3.151806,1.758249-4.86,2.34l1.12-1.64c.176754,1.961483-.168236,3.934831-1,5.72-.860597,1.94765-2.560905,3.397696-4.62,3.94-1.062556.244886-2.176788.121475-3.16-.35-.916053-.476487-1.70732-1.161567-2.31-2-1.120289-1.608179-1.918332-3.418208-2.35-5.33l1.59,1.39h-.98-.87-1.73l-1.72-.05h-.87-.62c.123996-.010826.245498-.041201.36-.09.314226-.125951.573118-.360017.73-.66.109504-.209323.161278-.444034.15-.68-.040877,1.070893-.243155,2.129483-.6,3.14-.383148,1.034613-.967769,1.982922-1.72,2.79-1.525596,1.667198-3.7529,2.509861-6,2.27-1.166626-.137746-2.252238-.666453-3.08-1.5-.76615-.802295-1.307623-1.792122-1.57-2.87-.415869-1.953867-.36792-3.978016.14-5.91l.6,1v0c-2.061511-.386474-4.093213-.917791-6.08-1.59l1.8-.58v0c-.9573,1.879195-2.324239,3.519522-4,4.8-.955838.70846-2.054716,1.199883-3.22,1.44-1.397438.286458-2.851486.013599-4.05-.76-1.13386-.787381-1.977208-1.925902-2.4-3.24-.366563-1.129264-.535706-2.313269-.5-3.5.074083-2.198735.605368-4.35793,1.56-6.34v0l.65,3c-2.805384-1.6601-5.435465-3.599994-7.85-5.79-2.441563-2.241499-4.68027-4.694373-6.69-7.33-4.228827-5.541785-7.185497-11.946763-8.66-18.76-.838157-3.828857-1.003962-7.774322-.49-11.66.623996-4.45566,2.464827-8.652894,5.32-12.13c2.917622-3.452453,6.720334-6.045212,11-7.5c1.926083-.675719,3.916555-1.151556,5.94-1.42.49-.07,1-.13,1.46-.17s1-.1,1.39-.11l2.49-.1c3.333472-.140302,6.672236-.090221,10,.15c1.67.09,3.34.32,5,.49s3.31.49,5,.82c6.595723,1.251204,12.988643,3.401244,19,6.39c5.914109,2.957624,11.345791,6.79453,16.11,11.38c2.332662,2.251793,4.47031,4.697209,6.39,7.31c1.937959,2.580353,3.572074,5.375461,4.87,8.33.320325.458396.208396,1.089675-.25,1.41s-1.089675.208396-1.41-.25Z" fill="#062d28"/><ellipse rx="6.45" ry="6.2" transform="translate(490.230568 318.229615)" fill="#fff"/></g><g id="e7jYXnvDLdF62_to" transform="translate(444.912317,263.528209)"><g id="e7jYXnvDLdF62_tr" transform="rotate(0)"><path d="M437.66,263.22c.51-.32.85-.54,1.28-.78l1.21-.68c.81-.44,1.64-.83,2.47-1.21c1.651586-.760212,3.344204-1.427911,5.07-2c3.463867-1.148519,7.025294-1.978626,10.64-2.48c7.320669-1.017576,14.76153-.774057,22,.72c3.620846.746141,7.175682,1.782829,10.63,3.1c1.73.62,3.43,1.43,5.12,2.22l2.47,1.33c.81.47,1.59,1,2.39,1.49c3.137441,2.05526,6.000458,4.501594,8.52,7.28c1.256738,1.399448,2.403483,2.893894,3.43,4.47.524622.793051,1.005345,1.614285,1.44,2.46.231951.422348.442224.856244.63,1.3.21.47.38.87.61,1.46.482803,1.203083.214119,2.577529-.686198,3.510232s-2.264415,1.249771-3.483802.809768l-1.35-.48c-.319612-.162913-.630075-.343182-.93-.54l-1-.62-2-1.23c-1.32-.82-2.68-1.58-4-2.35-2.67-1.51-5.34-2.92-8-4.22s-5.42-2.48-8.23-3.6c-8.541564-3.321409-17.597679-5.125187-26.76-5.33-3.112595-.079197-6.227194.010936-9.33.27-1.56.13-3.13.3-4.7.51l-2.33.36-2.2.38-.48.09c-1.606096.284033-3.187622-.612461-3.768866-2.136394s.001565-3.245927,1.388866-4.103606Z" transform="translate(-450.116612,-263.513014)" fill="#062d28"/></g></g><g><path d="M639.54,297.93c-32.34,2.89-47.09,13.16-55.2,20.45-4,3.61-5,10.62-4.06,15.94c2.72,15.54,24,32.41,34.42,33c.06,5.93,3.16,8.65,6.19,8.39c2.72-.23,4.71-3.42,4.81-7.39.43,0,7.27-.59,7.27-.59c1.59,4.58,5.26,7.46,8.21,6.43c2.72-.95,3.84-4.88,2.77-9.07c2.019041-.696081,3.989984-1.524545,5.9-2.48c2.86,4,7.11,5.81,9.64,4.08s2.39-6.32-.2-10.42c2.62479-1.953618,5.089297-4.113824,7.37-6.46c18.98-19.61,21.58-56.24-27.12-51.88Z" fill="#fff"/><g clip-path="url(#e7jYXnvDLdF70)"><g><path d="M589.88,284.29c0,0,8.79,39.36,12.58,54.63c6.59,26.49,33.63,24.82,42.86,20.77C666.05,350.6,666,311.83,666,311.83Z" fill="#677f49"/><path d="M578.89,278.06L602,345.29c0,0,.49-7.94,10.43-12c2.31-.95,5.61-.79,5.4,1.64-.204163,2.381307.209141,4.775028,1.2,6.95c2.369255,5.145785,7.401978,8.548461,13.06,8.83c8.16.37,14.56-6.46,15.25-15.57.15-2.08,1.32-2.51,3.25-1.61c9.61,4.5,12.15,11.05,12.15,11.05l7.42-74.37Z" fill="#072e29"/><path d="M627.85,343.68c-.49-.53.08-1.92,1.29-3.28h-.62c-3.32-.1-6-1.08-5.95-2.19s2.35-1.81,5.31-1.84c-2.22-1.89-3.43-4-2.75-4.93s3-.36,5.4,1.23c.3-3.28,1.37-5.73,2.57-5.7s2.13,2.59,2.23,5.9c2.53-1.5,4.93-1.94,5.56-1s-.72,3-3.06,4.77c2.89.23,5.08,1.13,5,2.14s-2.75,1.93-6.07,1.84h-.48c1.13,1.44,1.61,2.86,1.08,3.36s-2.33-.27-3.84-1.9l-.27-.3-.08,2.51c.031141.249612-.084538.494784-.296996.62946s-.48355.134676-.696008,0-.328137-.379848-.296996-.62946l.07-2.42-.19.19c-1.56,1.49-3.33,2.24-3.91,1.62Z" fill="#677f49" fill-rule="evenodd"/></g><clipPath id="e7jYXnvDLdF70"><path d="M595.64,309.78c0,0,3,13.87,6.82,29.14c6.59,26.49,33.63,24.82,42.86,20.77C666.05,350.6,666,311.83,666,311.83l-34.62-11.65Z" fill="none"/></clipPath></g><path style="mix-blend-mode:multiply" d="M576.44,328c0,0,36-39.6,91.39-34.08c0,0-46.61-16.75-79.72,1.28C572,304,576.44,328,576.44,328Z" opacity="0.2" fill="#906b5f"/><path d="M575.53,327.51c1.308636-3.368345,3.089814-6.533389,5.29-9.4c2.176742-2.914692,4.649979-5.595708,7.38-8c2.754623-2.426758,5.715867-4.608375,8.85-6.52c3.163104-1.918658,6.469592-3.59029,9.89-5c6.855155-2.732271,14.034576-4.56746,21.36-5.46c3.64-.44,7.3-.72,10.94-.8s7.29,0,10.91.25c1.8.16,3.61.27,5.41.47l5.37.66c4.299399.525078,8.465453,1.836927,12.29,3.87c2.130589,1.16109,4.094943,2.604083,5.84,4.29c1.830485,1.787775,3.372194,3.849009,4.57,6.11c1.15889,2.241262,1.958632,4.650611,2.37,7.14.380257,2.313451.457574,4.666577.23,7-.433048,4.154174-1.547998,8.208538-3.3,12-1.602858,3.461828-3.574248,6.740772-5.88,9.78-4.417456,5.77227-9.792001,10.744317-15.89,14.7l.46-3.12v0c1.177812,1.933513,1.905768,4.107128,2.13,6.36.12217,1.227211.006732,2.466467-.34,3.65-.399738,1.366081-1.262404,2.550479-2.44,3.35-1.188414.753767-2.606801,1.05872-4,.86-1.179019-.167529-2.311835-.572349-3.33-1.19-1.847132-1.1218-3.413635-2.65068-4.58-4.47v0l1.79.44c-2.041143.801556-4.132215,1.469631-6.26,2v0l.53-1c.694305,1.91999.880326,3.986894.54,6-.230709,1.121529-.76318,2.158808-1.54,3-.826538.839791-1.897707,1.396379-3.06,1.59-2.249421.375362-4.54892-.273779-6.27-1.77-.844641-.733759-1.525977-1.636529-2-2.65-.460206-1.000268-.760529-2.066582-.89-3.16.03121.728929.620687,1.309672,1.35,1.33v0h-.22-.46l-.91.08-1.81.17-1.82.17-1.9.16v0l1.48-1.49c-.300171,1.985343-1.019437,3.884069-2.11,5.57-.587916.866433-1.368248,1.58516-2.28,2.1-.966838.507511-2.069329.69651-3.15.54-1.049242-.159474-2.038593-.590377-2.87-1.25-.805436-.649814-1.483541-1.443197-2-2.34-.932023-1.757118-1.525651-3.673691-1.75-5.65l1.26,1.57v0c-1.67-.56-3.38-1.14-5.05-1.87-1.69688-.713458-3.288276-1.655511-4.73-2.8-.256414-.231019-.302694-.615961-.108346-.901174s.56954-.382957.878346-.228826v0c2.95,1.63,6.32,2.13,9.75,2.63v0l.45.18c.556214.223449.889811.795918.81,1.39-.269523,1.57301-.110631,3.189569.46,4.68.497319,1.41568,1.693613,2.471902,3.16,2.79.683605.128412,1.390588.015295,2-.32.624249-.389803,1.137436-.933988,1.49-1.58.732074-1.411218.98481-3.022409.72-4.59-.058095-.322369.014796-.654595.202514-.923032s.474757-.450909.797486-.506968h.06l.4-.05v0l3.56-.25l1.82-.13.91-.07h.45.23.31c.492749.007599.951233.253616,1.23.66.139326.199154.228518.428996.26.67.042848,1.546859.671988,3.019619,1.76,4.12c1.101525,1.070617,2.622775,1.594806,4.15,1.43.709322-.071561,1.377854-.365575,1.91-.84.529778-.527684.909458-1.186945,1.1-1.91.358872-1.684572.283163-3.43276-.22-5.08v0c-.092665-.421091.137071-.846529.54-1v0c1.915654-.843083,3.770156-1.818785,5.55-2.92.539095-.34043,1.24753-.224504,1.65.27l.14.17v0c1.02706,1.339378,2.343065,2.429781,3.85,3.19.653547.321001,1.363511.511231,2.09.56.531205.045585,1.059974-.111617,1.48-.44.68-.52,1-1.87.69-3.36-.316083-1.547371-.964347-3.007671-1.9-4.28v0c-.634492-.746756-.634492-1.843244,0-2.59L658,355c4.306383-4.868512,7.917388-10.31026,10.73-16.17c1.306446-2.746934,2.312283-5.626979,3-8.59.662469-2.613146.811894-5.329964.44-8-.294031-2.025812-1.217581-3.907895-2.64-5.38-.627568-.616641-1.325732-1.157047-2.08-1.61-.843053-.533235-1.725622-1.001264-2.64-1.4-2.295762-.998769-4.679334-1.782134-7.12-2.34l-4.72-1c-1.58-.31-3.16-.53-4.74-.8-12.63-2-25.45-2.4-37.8.24-3.087115.674869-6.129579,1.53985-9.11,2.59-3.005336,1.079211-5.926653,2.379431-8.74,3.89-2.853055,1.541545-5.581351,3.303569-8.16,5.27-2.611877,2.00254-5.00513,4.275125-7.14,6.78l-.06.08c-.168803.21813-.420204.356853-.694745.38336s-.547838-.061555-.755255-.24336c-.339158-.297183-.437459-.784592-.24-1.19Z" fill="#062d28"/><ellipse rx="6.45" ry="6.2" transform="translate(632.203125 311.908524)" fill="#fff"/></g><g id="e7jYXnvDLdF75_to" transform="translate(645.591167,261.94392)"><g id="e7jYXnvDLdF75_tr" transform="rotate(10.9957)"><path d="M656.53,261.18l-10.27,1.13q-5.13.57-10.19,1.24c-6.613575.821255-13.176861,2.006386-19.66,3.55-1.59.37-3.13.8-4.65,1.26l-2.26.72c-.73.26-1.47.5-2.19.79-2.84,1.13-5.71,2.38-8.46,3.78s-5.47,2.92-8.16,4.59c-1.31.86-2.68,1.7-4,2.63l-2,1.39-1,.7c-.28917.226726-.593182.433855-.91.62l-1.39.6c-1.185047.513808-2.561693.27951-3.510047-.597393s-1.289552-2.231021-.869953-3.452607c.21-.64.36-1.06.56-1.56s.38-.95.59-1.4c.43-.91.9-1.79,1.4-2.64c1.018159-1.691454,2.168407-3.299795,3.44-4.81c2.56606-2.991932,5.522512-5.625495,8.79-7.83c6.48-4.46,14.25-7,21.59-8.42c7.267477-1.35858,14.659957-1.931874,22.05-1.71c7.27581.138778,14.517722,1.030193,21.61,2.66c1.628074.380374,2.744706,1.879168,2.643339,3.54801s-1.391196,3.021466-3.053339,3.20199Z" transform="translate(-645.591167,-261.94392)" fill="#062d28"/></g></g></g><g display="none"><path d="M545,414.36c1.409332-.577215,2.878301-.996441,4.38-1.25c1.461775-.250966,2.938136-.407955,4.42-.47c1.47-.06,2.94,0,4.4.05s2.93.13,4.39.28c2.92.26,5.81.67,8.68,1.17c2.874188.511567,5.718397,1.179222,8.52,2c.552285.082843.932843.597715.85,1.15s-.597715.932843-1.15.85v0c-1.45,0-2.89-.05-4.33-.14s-2.87-.13-4.3-.2-2.85-.17-4.28-.21-2.85-.16-4.27-.21c-2.84-.16-5.68-.2-8.5-.32-2.843459-.121335-5.677894-.401774-8.49-.84h-.07c-.4265-.082063-.751266-.430044-.803733-.861186s.179363-.846857.573733-1.028814Z" fill="#c29d80"/><g transform="translate(.000001 0.000001)"><path style="mix-blend-mode:multiply" d="M519.14,327.38c0,0-30-36.28-75.28-32.89c0,0,29.1-12.5,59.29.68c18.72,8.17,15.99,32.21,15.99,32.21Z" opacity="0.2" fill="#906b5f"/><g clip-path="url(#e7jYXnvDLdF94)"><g><path d="M498.07,307.51c-12.3-5.88-30.93-12.54-50.82-11.5-9.66.5-16.77,9.61-15.37,19.75c1.8,13.07,6.72,30.65,19.88,41.48-2.23,4.3-2.06,9,.46,10.52s6.41-.57,8.83-4.73c1.868661.81393,3.789603,1.502129,5.75,2.06-.73,4.25.59,8.1,3.22,8.85c2.86.83,6.13-2.29,7.32-7c0,0,6.5.11,6.91.09.36,3.95,2.46,7,5,7c2.87,0,5.62-2.88,5.27-8.8c14.26-4.67,22.08-17.33,21.36-28.79s-7.23-23.86-17.81-28.93Z" fill="#fff"/><g clip-path="url(#e7jYXnvDLdF92)"><g><path d="M452.47,285.68c0,0,9,39.22,12.9,54.43c6.72,26.39,31.45,25.78,39.09,19.77c17-13.36,20.54-47.79,20.54-47.79Z" fill="#677f49"/><path d="M443.42,279.45l20.82,65.78c1.424696-5.593137,5.329518-10.227351,10.6-12.58c2.11-1,4.3.89,4.16,3.32-.14341,2.376717.285243,4.753169,1.25,6.93c2.076845,4.97867,6.805506,8.341877,12.19,8.67c7.51.28,13.58-5.29,14-14.4.035508-.959105.548085-1.836979,1.365887-2.339315s1.832575-.562636,2.704113-.160685c8.93,4.38,12.93,10.33,12.93,10.33l2.32-74.34Z" fill="#072e29"/><path d="M489.29,345c-.53-.46-.17-1.91.8-3.42l-.59.07c-3.12.34-5.75-.29-5.85-1.39s2-2.1,4.75-2.52c-2.33-1.58-3.73-3.52-3.21-4.53s2.76-.75,5.22.52c-.13-3.29.56-5.86,1.69-6s2.33,2.28,2.84,5.55c2.19-1.81,4.39-2.57,5.1-1.68s-.29,3.08-2.27,5.13c2.74-.15,4.91.46,5,1.46s-2.34,2.28-5.46,2.61h-.46c1.24,1.28,1.88,2.62,1.44,3.19s-2.22,0-3.85-1.39l-.29-.26.25,2.5c.02262.167325-.022873.336728-.126275.47021s-.256057.219871-.423725.23979c-.166173.013758-.330883-.039996-.456949-.149128s-.202862-.264442-.213051-.430872l-.24-2.41-.15.21c-1.31,1.76-2.88,2.73-3.5,2.23Z" fill="#677f49" fill-rule="evenodd"/></g><g><path d="M452.47,285.68c0,0,9,39.22,12.9,54.43c6.72,26.39,31.45,25.78,39.09,19.77c17-13.36,20.54-47.79,20.54-47.79Z" fill="#677f49"/><path d="M443.42,279.45l20.82,65.78c1.424696-5.593137,5.329518-10.227351,10.6-12.58c2.11-1,4.3.89,4.16,3.32-.14341,2.376717.285243,4.753169,1.25,6.93c2.076845,4.97867,6.805506,8.341877,12.19,8.67c7.51.28,13.58-5.29,14-14.4.035508-.959105.548085-1.836979,1.365887-2.339315s1.832575-.562636,2.704113-.160685c8.93,4.38,12.93,10.33,12.93,10.33l2.32-74.34Z" fill="#072e29"/><path d="M489.29,345c-.53-.46-.17-1.91.8-3.42l-.59.07c-3.12.34-5.75-.29-5.85-1.39s2-2.1,4.75-2.52c-2.33-1.58-3.73-3.52-3.21-4.53s2.76-.75,5.22.52c-.13-3.29.56-5.86,1.69-6s2.33,2.28,2.84,5.55c2.19-1.81,4.39-2.57,5.1-1.68s-.29,3.08-2.27,5.13c2.74-.15,4.91.46,5,1.46s-2.34,2.28-5.46,2.61h-.46c1.24,1.28,1.88,2.62,1.44,3.19s-2.22,0-3.85-1.39l-.29-.26.25,2.5c.02262.167325-.022873.336728-.126275.47021s-.256057.219871-.423725.23979c-.166173.013758-.330883-.039996-.456949-.149128s-.202862-.264442-.213051-.430872l-.24-2.41-.15.21c-1.31,1.76-2.88,2.73-3.5,2.23Z" fill="#677f49" fill-rule="evenodd"/></g><clipPath id="e7jYXnvDLdF92"><path d="M452.47,285.68c0,0,9,39.22,12.9,54.43c6.72,26.39,31.45,25.78,39.09,19.77c17-13.36,20.54-47.79,20.54-47.79Z" fill="none"/></clipPath></g></g><clipPath id="e7jYXnvDLdF94"><path d="M498.07,307.51c-12.3-5.88-30.93-12.54-50.82-11.5-9.66.5-16.77,9.61-15.37,19.75c1.8,13.07,6.72,30.65,19.88,41.48-2.23,4.3-2.06,9,.46,10.52s6.41-.57,8.83-4.73c1.868661.81393,3.789603,1.502129,5.75,2.06-.73,4.25.59,8.1,3.22,8.85c2.86.83,6.13-2.29,7.32-7c0,0,6.5.11,6.91.09.36,3.95,2.46,7,5,7c2.87,0,5.62-2.88,5.27-8.8c14.26-4.67,20.4-17.36,21.36-28.79c1.06-12.17-7.23-23.86-17.81-28.93Z" fill="none"/></clipPath></g><path d="M518.37,330.16c-4.330969-4.015549-9.160623-7.457139-14.37-10.24-4.999414-2.714065-10.303139-4.825484-15.8-6.29-10.770768-2.791048-21.991503-3.396287-33-1.78l-2.06.29c-.38,0-.59.11-.88.15-.273188.04024-.543685.097011-.81.17-.984406.215283-1.955937.485709-2.91.81-1.53979.492619-2.99377,1.221296-4.31,2.16-1.360697.995755-2.442078,2.325097-3.14,3.86-.918615,2.051527-1.398857,4.272225-1.41,6.52.093893,5.336231,1.338932,10.589269,3.65,15.4c1.143409,2.585876,2.519047,5.062693,4.11,7.4c1.615504,2.404114,3.421298,4.674732,5.4,6.79l.5.53c.62826.6813.686907,1.711821.14,2.46v0c-.798098,1.337512-1.312114,2.825093-1.51,4.37-.19,1.47.16,2.88.79,3.36.361021.302087.835013.433347,1.3.36.686698-.076841,1.346797-.309415,1.93-.68c1.389071-.872142,2.561906-2.048396,3.43-3.44v0l.12-.19c.371602-.542961,1.096351-.712214,1.67-.39c1.740749.971158,3.548689,1.816645,5.41,2.53v0c.426873.130116.686073.562117.6,1v0c-.351408,1.653132-.310308,3.365629.12,5c.315869,1.437535,1.533028,2.500521,3,2.62c1.472569.057252,2.886736-.579494,3.82-1.72.942538-1.198206,1.418629-2.697537,1.34-4.22.01873-.239431.090461-.471702.21-.68.176052-.303415.451631-.536597.78-.66.124761-.049355.256227-.079694.39-.09h6.93l.52.06c.657857.078383,1.130357.671236,1.06,1.33-.168373,1.557153.156958,3.127839.93,4.49.355889.625886.874114,1.144111,1.5,1.5.591453.310064,1.281222.37473,1.92.18c1.341138-.515083,2.30304-1.709828,2.52-3.13.306798-1.499296.411061-3.032976.31-4.56v-.09c-.013799-.708526.442966-1.340656,1.12-1.55c1.545351-.482869,3.064131-1.046987,4.55-1.69c1.5-.64,2.95-1.38,4.46-2.17v0c.162809-.08774.354026-.106447.530753-.051925s.324169.177709.409247.341925c.1239.245879.096728.540889-.07.76-1.132785,1.394461-2.483541,2.596634-4,3.56-1.52002.972574-3.151806,1.758249-4.86,2.34l1.12-1.64c.176754,1.961483-.168236,3.934831-1,5.72-.860597,1.94765-2.560905,3.397696-4.62,3.94-1.062556.244886-2.176788.121475-3.16-.35-.916053-.476487-1.70732-1.161567-2.31-2-1.120289-1.608179-1.918332-3.418208-2.35-5.33l1.59,1.39h-.98-.87-1.73l-1.72-.05h-.87-.62c.123996-.010826.245498-.041201.36-.09.314226-.125951.573118-.360017.73-.66.109504-.209323.161278-.444034.15-.68-.040877,1.070893-.243155,2.129483-.6,3.14-.383148,1.034613-.967769,1.982922-1.72,2.79-1.525596,1.667198-3.7529,2.509861-6,2.27-1.166626-.137746-2.252238-.666453-3.08-1.5-.76615-.802295-1.307623-1.792122-1.57-2.87-.415869-1.953867-.36792-3.978016.14-5.91l.6,1v0c-2.061511-.386474-4.093213-.917791-6.08-1.59l1.8-.58v0c-.9573,1.879195-2.324239,3.519522-4,4.8-.955838.70846-2.054716,1.199883-3.22,1.44-1.397438.286458-2.851486.013599-4.05-.76-1.13386-.787381-1.977208-1.925902-2.4-3.24-.366563-1.129264-.535706-2.313269-.5-3.5.074083-2.198735.605368-4.35793,1.56-6.34v0l.65,3c-2.805384-1.6601-5.435465-3.599994-7.85-5.79-2.441563-2.241499-4.68027-4.694373-6.69-7.33-4.228827-5.541785-7.185497-11.946763-8.66-18.76-.838157-3.828857-1.003962-7.774322-.49-11.66.623996-4.45566,2.464827-8.652894,5.32-12.13c2.917622-3.452453,6.720334-6.045212,11-7.5c1.926083-.675719,3.916555-1.151556,5.94-1.42.49-.07,1-.13,1.46-.17s1-.1,1.39-.11l2.49-.1c3.333472-.140302,6.672236-.090221,10,.15c1.67.09,3.34.32,5,.49s3.31.49,5,.82c6.595723,1.251204,12.988643,3.401244,19,6.39c5.914109,2.957624,11.345791,6.79453,16.11,11.38c2.332662,2.251793,4.47031,4.697209,6.39,7.31c1.937959,2.580353,3.572074,5.375461,4.87,8.33.320325.458396.208396,1.089675-.25,1.41s-1.089675.208396-1.41-.25Z" fill="#062d28"/></g><path d="M433.86,262.69c.48-.36.8-.61,1.2-.89l1.15-.78c.76-.52,1.55-1,2.34-1.43c1.580272-.905978,3.209425-1.723892,4.88-2.45c3.346914-1.451732,6.817545-2.599684,10.37-3.43c0,0,14.6149-2.090623,21.95-1.26c3.674103.425534,7.308777,1.1411,10.87,2.14c1.78.46,3.55,1.12,5.3,1.75l2.58,1.1c.85.39,1.67.85,2.51,1.27c3.31035,1.761693,6.381912,3.939344,9.14,6.48c1.372973,1.284617,2.64974,2.668339,3.82,4.14.59.75,1.14,1.51,1.66,2.32.26.4.51.83.75,1.25s.45.83.73,1.4c.397119.776743.468449,1.679685.198217,2.509148s-.859761,1.517102-1.638217,1.910852c-.716091.365555-1.540755.457974-2.32.26l-1.39-.37c-.344074-.12489-.678337-.275309-1-.45l-1.05-.52-2.1-1.05c-1.39-.7-2.82-1.33-4.19-2q-4.18-1.89-8.38-3.48c-2.81-1.06-5.62-2-8.53-2.84-2.911487-.840111-5.869947-1.507935-8.86-2-6.031181-1.007-12.159026-1.309029-18.26-.9-3.108188.197861-6.202967.568434-9.27,1.11-1.55.27-3.1.58-4.63.93l-2.3.56-2.15.59-.47.12c-1.573305.425163-3.227019-.325866-3.942161-1.79032s-.290546-3.23039,1.012161-4.20968Z" fill="#062d28"/><g><path style="mix-blend-mode:multiply" d="M519.14,327.38c0,0-30-36.28-75.28-32.89c0,0,29.1-12.5,59.29.68c18.72,8.17,15.99,32.21,15.99,32.21Z" transform="matrix(-.99903 0.044038 0.044038 0.99903 1080.390769-22.670143)" opacity="0.2" fill="#906b5f"/><path d="M639.54,297.93c-32.34,2.89-47.09,13.16-55.2,20.45-4,3.61-5,10.62-4.06,15.94c2.72,15.54,24,32.41,34.42,33c.06,5.93,3.16,8.65,6.19,8.39c2.72-.23,4.71-3.42,4.81-7.39.43,0,7.27-.59,7.27-.59c1.59,4.58,5.26,7.46,8.21,6.43c2.72-.95,3.84-4.88,2.77-9.07c2.019041-.696081,3.989984-1.524545,5.9-2.48c2.86,4,7.11,5.81,9.64,4.08s2.39-6.32-.2-10.42c2.62479-1.953618,5.089297-4.113824,7.37-6.46c18.98-19.61,21.58-56.24-27.12-51.88Z" fill="#fff"/><g clip-path="url(#e7jYXnvDLdF106)"><g><path d="M575.88,289.29c0,0,8.79,39.36,12.58,54.63c6.59,26.49,33.63,24.82,42.86,20.77C652.05,355.6,652,316.83,652,316.83Z" fill="#677f49"/><path d="M564.89,283.06L588,350.29c0,0,.49-7.94,10.43-12c2.31-.95,5.61-.79,5.4,1.64-.204163,2.381307.209141,4.775028,1.2,6.95c2.369255,5.145785,7.401978,8.548461,13.06,8.83c8.16.37,14.56-6.46,15.25-15.57.15-2.08,1.32-2.51,3.25-1.61c9.61,4.5,12.15,11.05,12.15,11.05l7.42-74.37Z" fill="#072e29"/><path d="M613.85,348.68c-.49-.53.08-1.92,1.29-3.28h-.62c-3.32-.1-6-1.08-5.95-2.19s2.35-1.81,5.31-1.84c-2.22-1.89-3.43-4-2.75-4.93s3-.36,5.4,1.23c.3-3.28,1.37-5.73,2.57-5.7s2.13,2.59,2.23,5.9c2.53-1.5,4.93-1.94,5.56-1s-.72,3-3.06,4.77c2.89.23,5.08,1.13,5,2.14s-2.75,1.93-6.07,1.84h-.48c1.13,1.44,1.61,2.86,1.08,3.36s-2.33-.27-3.84-1.9l-.27-.3-.08,2.51c.031141.249612-.084538.494784-.296996.62946s-.48355.134676-.696008,0-.328137-.379848-.296996-.62946l.07-2.42-.19.19c-1.56,1.49-3.33,2.24-3.91,1.62Z" fill="#677f49" fill-rule="evenodd"/></g><clipPath id="e7jYXnvDLdF106"><path d="M582.62,319.08c0,0,2,9.57,5.84,24.84c6.59,26.49,33.53,24.58,42.86,20.77c22.62-9.24,20.51-57.37,20.51-57.37l-34.48-2.14Z" fill="none"/></clipPath></g><path d="M575.53,327.51c1.308636-3.368345,3.089814-6.533389,5.29-9.4c2.176742-2.914692,4.649979-5.595708,7.38-8c2.754623-2.426758,5.715867-4.608375,8.85-6.52c3.163104-1.918658,6.469592-3.59029,9.89-5c6.855155-2.732271,14.034576-4.56746,21.36-5.46c3.64-.44,7.3-.72,10.94-.8s7.29,0,10.91.25c1.8.16,3.61.27,5.41.47l5.37.66c4.299399.525078,8.465453,1.836927,12.29,3.87c2.130589,1.16109,4.094943,2.604083,5.84,4.29c1.830485,1.787775,3.372194,3.849009,4.57,6.11c1.15889,2.241262,1.958632,4.650611,2.37,7.14.380257,2.313451.457574,4.666577.23,7-.433048,4.154174-1.547998,8.208538-3.3,12-1.602858,3.461828-3.574248,6.740772-5.88,9.78-4.417456,5.77227-9.792001,10.744317-15.89,14.7l.46-3.12v0c1.177812,1.933513,1.905768,4.107128,2.13,6.36.12217,1.227211.006732,2.466467-.34,3.65-.399738,1.366081-1.262404,2.550479-2.44,3.35-1.188414.753767-2.606801,1.05872-4,.86-1.179019-.167529-2.311835-.572349-3.33-1.19-1.847132-1.1218-3.413635-2.65068-4.58-4.47v0l1.79.44c-2.041143.801556-4.132215,1.469631-6.26,2v0l.53-1c.694305,1.91999.880326,3.986894.54,6-.230709,1.121529-.76318,2.158808-1.54,3-.826538.839791-1.897707,1.396379-3.06,1.59-2.249421.375362-4.54892-.273779-6.27-1.77-.844641-.733759-1.525977-1.636529-2-2.65-.460206-1.000268-.760529-2.066582-.89-3.16.03121.728929.620687,1.309672,1.35,1.33v0h-.22-.46l-.91.08-1.81.17-1.82.17-1.9.16v0l1.48-1.49c-.300171,1.985343-1.019437,3.884069-2.11,5.57-.587916.866433-1.368248,1.58516-2.28,2.1-.966838.507511-2.069329.69651-3.15.54-1.049242-.159474-2.038593-.590377-2.87-1.25-.805436-.649814-1.483541-1.443197-2-2.34-.932023-1.757118-1.525651-3.673691-1.75-5.65l1.26,1.57v0c-1.67-.56-3.38-1.14-5.05-1.87-1.69688-.713458-3.288276-1.655511-4.73-2.8-.256414-.231019-.302694-.615961-.108346-.901174s.56954-.382957.878346-.228826v0c2.95,1.63,6.32,2.13,9.75,2.63v0l.45.18c.556214.223449.889811.795918.81,1.39-.269523,1.57301-.110631,3.189569.46,4.68.497319,1.41568,1.693613,2.471902,3.16,2.79.683605.128412,1.390588.015295,2-.32.624249-.389803,1.137436-.933988,1.49-1.58.732074-1.411218.98481-3.022409.72-4.59-.058095-.322369.014796-.654595.202514-.923032s.474757-.450909.797486-.506968h.06l.4-.05v0l3.56-.25l1.82-.13.91-.07h.45.23.31c.492749.007599.951233.253616,1.23.66.139326.199154.228518.428996.26.67.042848,1.546859.671988,3.019619,1.76,4.12c1.101525,1.070617,2.622775,1.594806,4.15,1.43.709322-.071561,1.377854-.365575,1.91-.84.529778-.527684.909458-1.186945,1.1-1.91.358872-1.684572.283163-3.43276-.22-5.08v0c-.092665-.421091.137071-.846529.54-1v0c1.915654-.843083,3.770156-1.818785,5.55-2.92.539095-.34043,1.24753-.224504,1.65.27l.14.17v0c1.02706,1.339378,2.343065,2.429781,3.85,3.19.653547.321001,1.363511.511231,2.09.56.531205.045585,1.059974-.111617,1.48-.44.68-.52,1-1.87.69-3.36-.316083-1.547371-.964347-3.007671-1.9-4.28v0c-.634492-.746756-.634492-1.843244,0-2.59L658,355c4.306383-4.868512,7.917388-10.31026,10.73-16.17c1.306446-2.746934,2.312283-5.626979,3-8.59.662469-2.613146.811894-5.329964.44-8-.294031-2.025812-1.217581-3.907895-2.64-5.38-.627568-.616641-1.325732-1.157047-2.08-1.61-.843053-.533235-1.725622-1.001264-2.64-1.4-2.295762-.998769-4.679334-1.782134-7.12-2.34l-4.72-1c-1.58-.31-3.16-.53-4.74-.8-12.63-2-25.45-2.4-37.8.24-3.087115.674869-6.129579,1.53985-9.11,2.59-3.005336,1.079211-5.926653,2.379431-8.74,3.89-2.853055,1.541545-5.581351,3.303569-8.16,5.27-2.611877,2.00254-5.00513,4.275125-7.14,6.78l-.06.08c-.168803.21813-.420204.356853-.694745.38336s-.547838-.061555-.755255-.24336c-.339158-.297183-.437459-.784592-.24-1.19Z" fill="#062d28"/></g><g><ellipse rx="6.45" ry="6.2" transform="translate(475.058 321.585)" fill="#fff"/><ellipse rx="6.45" ry="6.2" transform="translate(599.311 320.841)" fill="#fff"/></g><path d="M658.46,264.23l-10.31-.75q-5.14-.37-10.24-.63c-6.660692-.37854-13.336822-.401906-20-.07-1.62.08-3.22.23-4.8.41l-2.35.29c-.76.13-1.54.23-2.29.39-3,.59-6,1.3-9,2.18s-5.91,1.89-8.86,3c-1.44.61-2.94,1.19-4.4,1.86l-2.2,1-1.1.52c-.32278.169567-.656912.316586-1,.44l-1.48.34c-1.758673.398333-3.507877-.70219-3.91-2.46-.183673-.784133-.065883-1.60866.33-2.31.33-.6.55-1,.83-1.44s.55-.87.84-1.27q.88-1.23,1.86-2.34c1.303641-1.482247,2.724934-2.85672,4.25-4.11c3.061962-2.48171,6.446082-4.537075,10.06-6.11c7.18-3.21,15.28-4.3,22.75-4.37c7.394568-.023963,14.770283.747135,22,2.3c7.135079,1.447426,14.099511,3.63596,20.78,6.53c1.527006.672687,2.348375,2.346674,1.946001,3.966042s-1.911732,2.714225-3.576001,2.593958Z" fill="#062d28"/></g><g id="e7jYXnvDLdF113_to" transform="translate(531.207831,345.287223)"><g id="e7jYXnvDLdF113_tr" transform="rotate(0)"><g transform="translate(-531.20783,-345.287223)"><line x1="404.15" y1="345.04" x2="430.8" y2="335.85" fill="none" stroke="#936b39" stroke-width="4" stroke-linecap="round" stroke-linejoin="round"/><path d="M514.65,350.63c1.47,31-22.95,55.08-53.84,53.74-30.15-1.3-55.2-26.41-56.6-56.11s21.32-53.78,51.41-53.79c30.83-.02,57.57,25.13,59.03,56.16Z" opacity="0.15" fill="#fff"/><path d="M675.49,354.08c1.55,33-26.09,58.47-60.92,57-33.94-1.47-62-28.15-63.51-59.63s24.14-57,58-57c34.76-.08,64.87,26.65,66.43,59.63Z" opacity="0.15" fill="#fff"/><path d="M514.65,350.63c1.47,31-22.95,55.08-53.84,53.74-30.15-1.3-55.2-26.41-56.6-56.11s21.32-53.78,51.41-53.79c30.83-.02,57.57,25.13,59.03,56.16Z" fill="none" stroke="#936b39" stroke-width="4" stroke-linecap="round" stroke-linejoin="round"/><path d="M675.49,354.08c1.55,33-26.09,58.47-60.92,57-33.94-1.47-62-28.15-63.51-59.63s24.14-57,58-57c34.76-.08,64.87,26.65,66.43,59.63Z" fill="none" stroke="#936b39" stroke-width="4" stroke-linecap="round" stroke-linejoin="round"/><line x1="511.71" y1="341.16" x2="553.18" y2="341.75" fill="none" stroke="#936b39" stroke-width="4" stroke-linecap="round" stroke-linejoin="round"/><line x1="673.89" y1="343.17" x2="708.1" y2="331.37" fill="none" stroke="#936b39" stroke-width="4" stroke-linecap="round" stroke-linejoin="round"/></g></g></g><g><path d="M508.11,377c1.13-9.88,9.75-18.22,19.23-18.63c3.59822-.21307,7.146419.924494,9.95,3.19-2.843983-5.541932-8.715606-8.857255-14.93-8.43-10.47.46-20,9.67-21.23,20.57-1.17,10.21,5.3,18.28,14.71,18.9-5.33-2.67-8.54-8.6-7.73-15.6Z" fill="#dfbfba"/><path d="M537.29,361.57c1.625816,3.244615,2.245632,6.900835,1.78,10.5-1.25,10.9-10.76,20.11-21.24,20.57-.666194.035486-1.333806.035486-2,0c2.29255,1.143007,4.841794,1.673525,7.4,1.54c9.49-.41,18.1-8.76,19.23-18.63.68-5.86-1.41-10.89-5.17-13.98Z" fill="#dfbfba"/><path d="M539.07,372.07c.465632-3.599165-.154184-7.255385-1.78-10.5-2.803581-2.265506-6.35178-3.40307-9.95-3.19-9.48.41-18.1,8.75-19.23,18.63-.81,7,2.4,12.92,7.73,15.6.666194.035486,1.333806.035486,2,0c10.47-.43,19.98-9.61,21.23-20.54Z" fill="#cba79f"/><ellipse rx="9.87" ry="8.37" transform="matrix(.629592-.776926 0.776926 0.629592 519.645 361.788)" fill="#f8dedb"/></g><g><g id="e7jYXnvDLdF127_tr" transform="translate(560.021239,90.383375) rotate(0)"><path d="M600.18,186.1c18.19,44.59,58.9,111.53,140.3,116.4c13.59.81,23.33-6.59,19.72-13.42s-13.78-11.58-20.7-16.55c0,0,27.69-1.51,22.81-14.95-3.74-10.3-44.85-19.14-44.85-19.14s-12.93-141.54-119.21-158.69c-128-20.65-204.57,68.22-204,169.4c0,0-23,11.47-22.4,25.4c0,0,3.61,6.83,23.36-1c0,0-26,18.58-22.27,28.88s23.77,9.44,46.31-12.48c25.23-24.53,28.17-61.58,54-105.87c6.14-10.47,125.08-2.5,126.93,2.02Z" transform="translate(-560.021239,-90.383375)" fill="#104239"/></g><g id="e7jYXnvDLdF128_tr" transform="translate(528.417576,158.216235) rotate(0)"><path d="M475.88,150.76l-3.71,26.39c0,0-9.05,47,5.73,93.35c3.488058,11.215226,13.654558,19.02329,25.39,19.5l73.06,2.48c12.24.41,20.89-12.36,16.44-24.27-9.11-24.4-20.94-61.78-20.38-90.15.89-45.89-96.53-27.3-96.53-27.3Z" transform="translate(-528.417576,-158.216235)" fill="#104239"/></g><g id="e7jYXnvDLdF129_tr" transform="translate(588.297857,173.446451) rotate(0)"><path d="M573.6,161.1l-.36,24c0,0,10,56.25,43,99.1c4.976277,6.564184,12.693859,10.476442,20.93,10.61v0c6.35.07,10.38-7.07,7.21-12.82-12.16-22-34.77-67.62-34.09-100.49.88-44.92-36.69-20.4-36.69-20.4Z" transform="translate(-588.297857,-173.446451)" fill="#104239"/></g></g><g transform="translate(0 0.000001)"><path d="M488.4,135.74c.12,13.31-9.55,22.41-22.3,22.55s-30.51.68-30.63-12.64s22.59-33.27,35.34-33.4s17.46,10.17,17.59,23.49Z" fill="#255c51"/><path d="M540.21,155.93c-1.14,11.38-10.49,17.5-21.38,16.32s-25.16-3.65-24-15s20.93-25.27,31.82-24.09s14.7,11.4,13.56,22.77Z" fill="#255c51"/><path d="M569.17,163.58c-.06,9.55-7.71,14.71-16.87,14.65s-20.26-2.31-20.19-11.86s13.84-21.67,23-21.61s14.13,9.24,14.06,18.82Z" fill="#255c51"/><path d="M669.49,175.62c.07,7.68-6.44,11.07-13.79,11.15s-15.2-3.27-15.27-11s9-16.22,16.3-16.3s12.69,8.53,12.76,16.15Z" fill="#255c51"/><path d="M696.64,176.29c.05,5.79-5.41,7.28-11,7.34-5.79899.055228-10.544772-4.60101-10.6-10.4s4.60101-10.544772,10.4-10.6c5.56-.04,11.14,7.86,11.2,13.66Z" fill="#255c51"/></g></g></g></g></g><g transform="translate(.000001 0)"><path d="M296.37,659.13c0,0-2.14-31,12.12-41.19c13.65-9.74,88,4.4,132.88-2.91c35.6-5.8,46.85,13.13,57.61,43c10.92,30.31-41.53,23.16-75.28,40.35-33.12,16.86-85.43,5.84-106.29-.31-24.25-7.14-5.21-34.07-21.04-38.94Z" transform="matrix(.994529-.104465 0.104465 0.994529-65.486181 52.618857)" fill="#32342c"/><path d="M435.52,804.67L59.07,764.55c-10.77-1.15-12.26-16.21-1.94-19.46l180-56.6c1.321515-.412213,2.713661-.548365,4.09-.4L602.3,727.88c10.59,1.17,12.24,15.89,2.17,19.37L439.85,804.17c-1.389809.479521-2.86748.650153-4.33.5Z" fill="#80313e"/><line x1="438.07" y1="796" x2="603.94" y2="738.26" fill="none" stroke="#a45362" stroke-width="17" stroke-linecap="round" stroke-linejoin="round"/><path d="M433.11,494.28l-64.66-6.73v-2.26c-.015445-4.188549-3.110764-7.727274-7.26-8.3L87.9,448.56c-1.89909-.208834-3.794702.421913-5.190068,1.726945s-2.151384,3.154254-2.069932,5.063055v2.26L16,450.89C7.16,450,0,456.67,0,465.84v276.91c0,9.18,7.16,17.36,16,18.28l417.12,43.39c8.83.92,16-5.78,16-14.95v-276.91c-.02-9.18-7.18-17.36-16.01-18.28Z" fill="#1b1e17"/><path d="M355.64,496.75c0,0-.52-8.39,12.82-9.18v-2.3c0-4.12-3.38-8.3-7.42-8.3-5.72,0-10.62,3.48-10.62,13v244.34Z" fill="#80313e"/></g><g id="e7jYXnvDLdF142_to" transform="translate(764.118059,676.703309)"><g transform="rotate(-1.870488) translate(-765.158921,-676.703308)"><g id="e7jYXnvDLdF143_to" transform="translate(785.067312,626.512282)"><g id="e7jYXnvDLdF143_ts" transform="skewX(1.256088) skewY(0) scale(1,1)"><g transform="translate(-785.067312,-626.512282)"><g clip-path="url(#e7jYXnvDLdF148)"><g><path d="M570.94,671.73c0,0-3.37-18.89,11-29c13.72-9.63,86.16-3.29,134.36-14.06s57.46,14.86,68,44.82c10.69,30.4-42.85,35.41-76.73,52.35-33.24,16.62-95-8.74-115.84-15-24.23-7.33-4.99-34.12-20.79-39.11Z" fill="#32342c"/><path style="mix-blend-mode:multiply" d="M586.1,666.13c0,0-.68-5.94,6-15s40.08,15.38,56,35.75c17,21.88,15.16,35.3,4.2,36.2s-48.42-3.32-48.42-3.32Z" opacity="0.3" fill="#32342c"/></g><clipPath id="e7jYXnvDLdF148"><path d="M570.94,671.73c0,0-3.37-18.89,11-29c13.72-9.63,86.16-3.29,134.36-14.06s57.46,14.86,68,44.82c10.69,30.4-42.85,35.41-76.73,52.35-33.24,16.62-95-8.74-115.84-15-24.23-7.33-4.99-34.12-20.79-39.11Z" fill="none"/></clipPath></g><g clip-path="url(#e7jYXnvDLdF156)"><g><path d="M550.49,665.86c0,0,32.33-6.53,47.74-5.06c21,2,40,11.65,41.11,31.94c1.26,24-5.69,21.19-40.48,28.7-12.43,2.68-8.25-7.37-10.84-21s-37.53-34.58-37.53-34.58Z" fill="#fff"/><path d="M591.16,729c-9.38-.24-47.75-34.47-53.88-53.1-2.28-6.93.1-10.61,2.49-12.47l.46-.37.57-.15c.28-.08,4.69-.25,14.52-.18c11.55.09,30.84,1.22,46.24,14.09c9.46,7.91,12.05,20.14,7.12,33.57-3.33,9.06-10.55,18.67-17.39,18.62Z" fill="#6b8a84"/><path d="M541.61,665.79c0,0,31.5-8.84,58,13.34c19.34,16.16.67,47.11-8.4,46.88s-63.47-49.41-49.6-60.22Z" fill="#255c51"/><path style="mix-blend-mode:multiply" d="M591.9,691.21c0,0,45.56-5.22,37.54-18.82s13.46-5.84,13.46-5.84L648.67,714l-34.18,17-34.43-.25Z" fill="#dcdddd"/></g><clipPath id="e7jYXnvDLdF156"><path d="M550.49,665.86c0,0,32.33-6.53,47.74-5.06c21,2,40,11.65,41.11,31.94c1.26,24-5.69,21.19-40.48,28.7-12.43,2.68-8.25-7.37-10.84-21s-37.53-34.58-37.53-34.58Z" fill="none"/></clipPath></g></g></g></g><g id="e7jYXnvDLdF158_to" transform="translate(531.313889,689.549744)"><g transform="translate(-531.313889,-689.549744)"><path d="M516.46,657.84c0,0,1.89,25.2-26.1,25.49s-29.33,9.88-24.91,18.38s19.28,3.33,40.94,6.54s37.06,8.29,50.76,2-5.35-49.16-40.69-52.41Z" fill="#ddbcb6"/><path d="M599,699.93c-1.4,23-31.07,39.65-48.77.14-15-33.38-58-5.55-57.08-28.54c1.17-28.59,24.93-23.31,54.39-11.79c37.59,14.68,52.88,17.2,51.46,40.19Z" fill="#ddbcb6"/><path d="M511.3,675.09L495.21,689.4l2.83-5-8.52,26.24c-1.821665,5.712338-7.850455,8.945603-13.616755,7.302721s-9.18575-7.568054-7.723245-13.382721l6.59-26.79c.321726-1.31346.918163-2.543824,1.75-3.61l1.08-1.37l13.32-16.92c4.837465-5.995206,13.598498-6.981373,19.647699-2.2116s7.133779,13.519169,2.432301,19.6216c-.517284.647883-1.085779,1.253163-1.7,1.81Z" transform="matrix(.999422 0.033982-.033982 0.999422 23.2041-19.6844)" fill="url(#e7jYXnvDLdF161-fill)"/><path d="M527.3,684.17L497.83,697l6.1-6.43-15.56,32.78c-2.508547,5.448662-8.892026,7.918716-14.414744,5.577711s-8.186537-8.646086-6.015256-14.237711l12.73-34c.94633-2.527465,2.775737-4.626843,5.15-5.91l1-.52L515.06,659c6.809671-3.675455,15.309545-1.134671,18.985,5.675s1.134671,15.309545-5.675,18.985c-.37.17-.71.34-1.07.51Z" fill="url(#e7jYXnvDLdF162-fill)"/><path d="M550.89,693.46l-22.8,18.37l1.73-2L516,727.21c-3.734629,4.45228-10.269394,5.27432-14.990366,1.885711s-6.032965-9.842877-3.009634-14.805711l11.93-18.7c.209502-.329357.450645-.637484.72-.92l1-1l20.49-20.92c5.420675-5.522847,14.292152-5.605675,19.815-.185s5.605675,14.292152.185,19.815c-.397635.381456-.814867.741945-1.25,1.08Z" fill="url(#e7jYXnvDLdF163-fill)"/><path d="M574,702l-13.89,11.4l2.34-3.32-8.61,15.5c-2.907308,5.023012-9.188661,6.965417-14.423902,4.460354s-7.663533-8.615032-5.576098-14.030354l6.67-16.43c.223824-.554216.526991-1.072969.9-1.54l1.44-1.78l11.26-13.94c4.911549-5.939779,13.687768-6.822417,19.683737-1.979624s6.979657,13.60826,2.206263,19.659624c-.602448.727933-1.272067,1.397552-2,2Z" transform="matrix(.998995-.044822 0.044822 0.998995-30.2073 26.1209)" fill="url(#e7jYXnvDLdF164-fill)"/></g></g></g></g></g></g></svg>
