<svg id="eC6Sh1D75QY1" xmlns="http://www.w3.org/2000/svg" xmlns:xlink="http://www.w3.org/1999/xlink" viewBox="0 0 611 444" shape-rendering="geometricPrecision" text-rendering="geometricPrecision">
<style><![CDATA[
#eC6Sh1D75QY2_tr {animation: eC6Sh1D75QY2_tr__tr 3000ms linear infinite normal forwards}@keyframes eC6Sh1D75QY2_tr__tr { 0% {transform: translate(502.924032px,263.301px) rotate(6.232758deg);animation-timing-function: cubic-bezier(0.42,0,0.58,1)} 33.333333% {transform: translate(502.924032px,263.301px) rotate(11.965964deg);animation-timing-function: cubic-bezier(0.42,0,0.58,1)} 66.666667% {transform: translate(502.924032px,263.301px) rotate(-41.289487deg);animation-timing-function: cubic-bezier(0.42,0,0.58,1)} 100% {transform: translate(502.924032px,263.301px) rotate(6.232758deg)}} #eC6Sh1D75QY3_tr {animation: eC6Sh1D75QY3_tr__tr 3000ms linear infinite normal forwards}@keyframes eC6Sh1D75QY3_tr__tr { 0% {transform: translate(553.227613px,279.587952px) rotate(0deg);animation-timing-function: cubic-bezier(0.42,0,0.58,1)} 33.333333% {transform: translate(553.227613px,279.587952px) rotate(-11.50817deg);animation-timing-function: cubic-bezier(0.42,0,0.58,1)} 66.666667% {transform: translate(553.227613px,279.587952px) rotate(49.281644deg);animation-timing-function: cubic-bezier(0.42,0,0.58,1)} 100% {transform: translate(553.227613px,279.587952px) rotate(0deg)}} #eC6Sh1D75QY32_tr {animation: eC6Sh1D75QY32_tr__tr 3000ms linear infinite normal forwards}@keyframes eC6Sh1D75QY32_tr__tr { 0% {transform: translate(147.056928px,272.466202px) rotate(0deg);animation-timing-function: cubic-bezier(0.42,0,0.58,1)} 50% {transform: translate(147.056928px,272.466202px) rotate(-5.703446deg);animation-timing-function: cubic-bezier(0.42,0,0.58,1)} 100% {transform: translate(147.056928px,272.466202px) rotate(0deg)}} #eC6Sh1D75QY79_tr {animation: eC6Sh1D75QY79_tr__tr 3000ms linear infinite normal forwards}@keyframes eC6Sh1D75QY79_tr__tr { 0% {transform: translate(141.03px,48.771349px) rotate(0deg);animation-timing-function: cubic-bezier(0.38,-0.005,1,1)} 26.666667% {transform: translate(141.03px,48.771349px) rotate(-4.41754deg);animation-timing-function: cubic-bezier(0.38,-0.005,1,1)} 50% {transform: translate(141.03px,48.771349px) rotate(0deg);animation-timing-function: cubic-bezier(0.38,-0.005,1,1)} 76.666667% {transform: translate(141.03px,48.771349px) rotate(-6.093641deg);animation-timing-function: cubic-bezier(0.38,-0.005,1,1)} 100% {transform: translate(141.03px,48.771349px) rotate(0deg)}} #eC6Sh1D75QY80_tr {animation: eC6Sh1D75QY80_tr__tr 3000ms linear infinite normal forwards}@keyframes eC6Sh1D75QY80_tr__tr { 0% {transform: translate(267.871018px,146.276273px) rotate(0deg);animation-timing-function: cubic-bezier(0.38,-0.005,1,1)} 26.666667% {transform: translate(267.871018px,146.276273px) rotate(-9.506698deg);animation-timing-function: cubic-bezier(0.38,-0.005,1,1)} 50% {transform: translate(267.871018px,146.276273px) rotate(0deg);animation-timing-function: cubic-bezier(0.38,-0.005,1,1)} 76.666667% {transform: translate(267.871018px,146.276273px) rotate(-14.114099deg);animation-timing-function: cubic-bezier(0.38,-0.005,1,1)} 100% {transform: translate(267.871018px,146.276273px) rotate(0deg)}} #eC6Sh1D75QY81_tr {animation: eC6Sh1D75QY81_tr__tr 3000ms linear infinite normal forwards}@keyframes eC6Sh1D75QY81_tr__tr { 0% {transform: translate(273.587891px,115.366653px) rotate(0deg);animation-timing-function: cubic-bezier(0.38,-0.005,1,1)} 26.666667% {transform: translate(273.587891px,115.366653px) rotate(-10.426475deg);animation-timing-function: cubic-bezier(0.38,-0.005,1,1)} 50% {transform: translate(273.587891px,115.366653px) rotate(0deg);animation-timing-function: cubic-bezier(0.38,-0.005,1,1)} 76.666667% {transform: translate(273.587891px,115.366653px) rotate(-11.88032deg);animation-timing-function: cubic-bezier(0.38,-0.005,1,1)} 100% {transform: translate(273.587891px,115.366653px) rotate(0deg)}} #eC6Sh1D75QY87_tr {animation: eC6Sh1D75QY87_tr__tr 3000ms linear infinite normal forwards}@keyframes eC6Sh1D75QY87_tr__tr { 0% {transform: translate(107.113503px,58.616506px) rotate(0deg);animation-timing-function: cubic-bezier(0.805,0,1,1)} 50% {transform: translate(107.113503px,58.616506px) rotate(-3.177281deg);animation-timing-function: cubic-bezier(0.805,0,1,1)} 100% {transform: translate(107.113503px,58.616506px) rotate(0deg)}} #eC6Sh1D75QY89_tr {animation: eC6Sh1D75QY89_tr__tr 3000ms linear infinite normal forwards}@keyframes eC6Sh1D75QY89_tr__tr { 0% {transform: translate(86.988701px,115.366653px) rotate(0deg);animation-timing-function: cubic-bezier(0.805,0,1,1)} 23.333333% {transform: translate(86.988701px,115.366653px) rotate(11.36488deg);animation-timing-function: cubic-bezier(0.805,0,1,1)} 50% {transform: translate(86.988701px,115.366653px) rotate(0deg);animation-timing-function: cubic-bezier(0.805,0,1,1)} 76.666667% {transform: translate(86.988701px,115.366653px) rotate(11.36488deg);animation-timing-function: cubic-bezier(0.805,0,1,1)} 100% {transform: translate(86.988701px,115.366653px) rotate(0deg)}} #eC6Sh1D75QY90_tr {animation: eC6Sh1D75QY90_tr__tr 3000ms linear infinite normal forwards}@keyframes eC6Sh1D75QY90_tr__tr { 0% {transform: translate(122.790577px,115.366653px) rotate(0deg);animation-timing-function: cubic-bezier(0.805,0,1,1)} 23.333333% {transform: translate(122.790577px,115.366653px) rotate(10.084692deg);animation-timing-function: cubic-bezier(0.805,0,1,1)} 50% {transform: translate(122.790577px,115.366653px) rotate(0deg);animation-timing-function: cubic-bezier(0.805,0,1,1)} 76.666667% {transform: translate(122.790577px,115.366653px) rotate(10.084692deg);animation-timing-function: cubic-bezier(0.805,0,1,1)} 100% {transform: translate(122.790577px,115.366653px) rotate(0deg)}} #eC6Sh1D75QY113_tr {animation: eC6Sh1D75QY113_tr__tr 3000ms linear infinite normal forwards}@keyframes eC6Sh1D75QY113_tr__tr { 0% {transform: translate(25.244583px,370.401001px) rotate(0deg);animation-timing-function: cubic-bezier(0.42,0,0.58,1)} 50% {transform: translate(25.244583px,370.401001px) rotate(2.232632deg);animation-timing-function: cubic-bezier(0.42,0,0.58,1)} 100% {transform: translate(25.244583px,370.401001px) rotate(0deg)}}
]]></style>
<defs><radialGradient id="eC6Sh1D75QY36-fill" cx="0" cy="0" r="1" spreadMethod="pad" gradientUnits="userSpaceOnUse" gradientTransform="matrix(23.9448 -4.44862 4.63738 24.9608 63.5114 240.523)"><stop id="eC6Sh1D75QY36-fill-0" offset="0%" stop-color="#906b5f"/><stop id="eC6Sh1D75QY36-fill-1" offset="21%" stop-color="rgba(144,107,95,0.98)"/><stop id="eC6Sh1D75QY36-fill-2" offset="38%" stop-color="rgba(144,107,95,0.91)"/><stop id="eC6Sh1D75QY36-fill-3" offset="53%" stop-color="rgba(144,107,95,0.8)"/><stop id="eC6Sh1D75QY36-fill-4" offset="67%" stop-color="rgba(144,107,95,0.63)"/><stop id="eC6Sh1D75QY36-fill-5" offset="80%" stop-color="rgba(144,107,95,0.43)"/><stop id="eC6Sh1D75QY36-fill-6" offset="93%" stop-color="rgba(144,107,95,0.17)"/><stop id="eC6Sh1D75QY36-fill-7" offset="100%" stop-color="rgba(144,107,95,0)"/></radialGradient><radialGradient id="eC6Sh1D75QY37-fill" cx="0" cy="0" r="1" spreadMethod="pad" gradientUnits="userSpaceOnUse" gradientTransform="matrix(23.9448 -4.44862 4.63738 24.9608 186.013 231.491)"><stop id="eC6Sh1D75QY37-fill-0" offset="0%" stop-color="#906b5f"/><stop id="eC6Sh1D75QY37-fill-1" offset="21%" stop-color="rgba(144,107,95,0.98)"/><stop id="eC6Sh1D75QY37-fill-2" offset="38%" stop-color="rgba(144,107,95,0.91)"/><stop id="eC6Sh1D75QY37-fill-3" offset="53%" stop-color="rgba(144,107,95,0.8)"/><stop id="eC6Sh1D75QY37-fill-4" offset="67%" stop-color="rgba(144,107,95,0.63)"/><stop id="eC6Sh1D75QY37-fill-5" offset="80%" stop-color="rgba(144,107,95,0.43)"/><stop id="eC6Sh1D75QY37-fill-6" offset="93%" stop-color="rgba(144,107,95,0.17)"/><stop id="eC6Sh1D75QY37-fill-7" offset="100%" stop-color="rgba(144,107,95,0)"/></radialGradient></defs><g id="eC6Sh1D75QY2_tr" transform="translate(502.924032,263.301) rotate(6.232758)"><path d="M561.654,131.255l26.711-17.013c.575-.559.985-1.266,1.185-2.043.201-.776.184-1.593-.049-2.361-.232-.768-.672-1.457-1.269-1.992-.598-.535-1.332-.895-2.12-1.042L526.491,95.8953c-3.429-.6226-6.966.1009-9.876,2.0201-2.909,1.9191-4.966,4.8866-5.744,8.2836c0,0-33.514,146.849-33.631,147.709-.633,4.394-.368,8.87.779,13.158c1.147,4.289,3.152,8.3,5.894,11.791c2.741,3.491,6.163,6.389,10.057,8.519c3.895,2.131,8.181,3.449,12.599,3.875c17.654,1.736,33.318-11.492,35.834-29.052l19.251-130.944Z" transform="translate(-502.924022,-263.300998)" fill="#ddbcb6"/></g><g id="eC6Sh1D75QY3_tr" transform="translate(553.227613,279.587952) rotate(0)"><path d="M528.683,149.966l11.551-29.511c.13-.79.042-1.6-.256-2.343-.298-.742-.794-1.389-1.434-1.869-.64-.481-1.399-.777-2.195-.855-.796-.079-1.599.061-2.321.407l-54.567,26.339c-3.143,1.518-5.58,4.19-6.802,7.459-1.223,3.27-1.137,6.885.239,10.093c0,0,59.562,138.353,59.956,139.083c2.081,3.921,4.935,7.379,8.39,10.165s7.44,4.842,11.713,6.044c4.272,1.202,8.745,1.524,13.146.948c4.401-.577,8.639-2.04,12.458-4.301c15.277-9.006,20.126-28.928,11.799-44.592L528.683,149.966Z" transform="translate(-553.227601,-279.587945)" fill="#f8dedb"/></g><g><path d="M376.587,252.895l103.643-7.729c8.146-.616,16.231,1.813,22.688,6.816c6.458,5.003,10.829,12.225,12.267,20.267s-.16,16.331-4.484,23.262c-4.323,6.931-11.066,12.011-18.92,14.256l-99.902,28.65c-5.513,1.58-11.283,2.059-16.98,1.41-5.698-.65-11.211-2.416-16.227-5.196-10.128-5.616-17.611-15.026-20.802-26.159s-1.829-23.077,3.787-33.206c5.615-10.129,15.025-17.612,26.158-20.803c2.866-.806,5.804-1.332,8.772-1.568v0Z" fill="#ddbcb6"/><path d="M416.577,286.644l115.748-27.747c17.69-4.244,40.456,8.751,47.398,25.333c3.646,8.831,5.411,21.322-8.495,31.319l-126.883,53.43c-5.255,2.388-10.933,3.709-16.703,3.887-5.771.177-11.519-.793-16.911-2.854-5.393-2.061-10.322-5.172-14.503-9.153s-7.53-8.752-9.853-14.037-3.574-10.979-3.68-16.751.936-11.507,3.063-16.874c2.128-5.366,5.3-10.257,9.332-14.389c4.033-4.131,8.845-7.421,14.158-9.678c2.369-1.033,4.821-1.865,7.329-2.486v0Z" fill="#f8dedb"/><g mask="url(#eC6Sh1D75QY12)"><g><path d="M609.782,366.645c-12.907-13.257-81.162-31.94-81.162-31.94-14.635-50.672-36.606-54.537-55.361-66.62-15.78-10.151-50.914-25.771-103.548-18.544-26.609,3.646-56.04,16.932-68.131,36.161-25.07-14.584-58.038-45.211-96.256-38.99-21.818,13.278-46.939,8.509-46.939,8.509l-46.669-1.742c0,0-1.196,10.209,2.661,25.923L40.8362,336.251l2.0199,54.414l88.4019-42.352c2.356,5.673,6.228,15.67,11.259,19.768c14.672,11.93,84.151,20.63,97.941,20.542c10.902-.08,36.008.861,72.921-5.017c8.306,4.842,34.237,4.252,48.923,5.207c92.661,6.052,52.328,25.172,132.877,21.264c34.382-1.254,127.51-30.182,114.603-43.432Z" fill="#1b1e17"/><path d="M407.863,360.381c-33.34-60.174-45.838-67.182-64.484-74.562-18.646-7.379-31.626,5.783-33.479,8.022-1.852,2.238,19.609,12.214,32.99,40.799c10.822,23.109-29.526,48.959-29.526,48.959l-2.282,7.139l1.757.387l2.596-6.25c31.24-2.734,35.732-24.29,58.25-14.037c11.667,5.294,50.468,28.512,50.468,28.512l4.237,6.884l55.923,14.336l104.89-13.949l1.852-21.993c0,0-152.419,31.312-183.192-24.247Z" fill="#32342c"/><path d="M360.311,247.054c0,0,62.085-2.034,97.933,23.233c0,0,36.657,11.485,46.327,35.549c9.669,24.064,10.887,33.23,10.887,33.23s70.682,20.87,87.957,38.977" fill="none" stroke="#677f49" stroke-width="6" stroke-linecap="round" stroke-linejoin="round"/></g><mask id="eC6Sh1D75QY12" mask-type="alpha" x="-150%" y="-150%" height="400%" width="400%"><path d="M609.782,366.645c-12.907-13.257-81.162-31.94-81.162-31.94-14.635-50.672-36.606-54.537-55.361-66.62-15.78-10.151-50.914-25.771-103.548-18.544-26.609,3.646-56.04,16.932-68.131,36.161-25.07-14.584-58.038-45.211-96.256-38.99-21.818,13.278-46.939,8.509-46.939,8.509l-46.669-1.742c0,0-1.196,10.209,2.661,25.923L40.8362,336.251l2.0199,54.414l88.4019-42.352c2.356,5.673,6.228,15.67,11.259,19.768c14.672,11.93,84.151,20.63,97.941,20.542c10.902-.08,36.008.861,72.921-5.017c8.306,4.842,34.237,4.252,48.923,5.207c92.661,6.052,52.328,25.172,132.877,21.264c34.382-1.254,127.51-30.182,114.603-43.432Z" transform="translate(0 0.000001)" fill="#1b1e17"/></mask></g><path d="M143.254,363.984c-.704-1.368-1.553-2.656-2.53-3.843-2.028-2.436-4.281-5.105-6.374-4.325c1.014-.437,1.459-1.575,1.59-2.916.095-1.458.068-2.922-.08-4.376-.328-3.981-1.532-7.758-3.756-7.766c2.224-.102,3.238-4.032,3.289-8.021s-.948-8.021-3.187-8.102c2.232,0,3.464-3.959,3.552-8.021.071-1.957-.175-3.912-.729-5.79-.114-.617-.267-1.226-.46-1.823-.333-.414-.709-.79-1.123-1.123-.164-.177-.371-.308-.601-.381s-.475-.085-.711-.035c3.347-2.486-2.589-16.363-6.563-14.737c4.098-1.765-2.144-16.699-6.279-14.971-1.971.837-3.531,2.418-4.341,4.4s-.805,4.204.016,6.181c.82,1.978,2.389,3.551,4.364,4.378c1.975.826,4.197.838,6.181.034-1.827.865-3.265,2.382-4.03,4.254s-.802,3.962-.103,5.859c.698,1.898,2.082,3.465,3.878,4.393c1.796.929,3.874,1.152,5.826.625-.721.413-1.396.902-2.012,1.458-.394.329-.729.635-1.123.897-.375.254-.77.476-1.181.664-.365.044-.73.634-.999.999-.285.428-.53.882-.73,1.356-.538,1.212-.772,2.537-.679,3.859.092,1.323.507,2.603,1.209,3.727.702,1.125,1.668,2.061,2.815,2.725c1.148.665,2.44,1.038,3.765,1.087-1.071-.028-2.137.158-3.134.549-.998.39-1.908.977-2.675,1.724-.767.748-1.377,1.642-1.794,2.629-.416.987-.63,2.048-.63,3.119-.02,1.072.177,2.138.579,3.132s1.001,1.897,1.76,2.654s1.664,1.354,2.659,1.753s2.061.593,3.133.57c-1.069.032-2.121.281-3.091.732-.971.451-1.839,1.094-2.554,1.89s-1.26,1.73-1.603,2.743-.477,2.086-.394,3.152c.059,1.264.429,2.494,1.076,3.582.648,1.087,1.553,1.998,2.636,2.653.934.532,1.981.837,3.055.89s2.146-.147,3.128-.584c-1.004.383-1.905.996-2.629,1.79-.725.794-1.253,1.747-1.542,2.782-.289,1.189-.295,2.43-.017,3.621.277,1.192.83,2.302,1.614,3.241.798,1.011,1.812,1.831,2.968,2.399c1.053.489,2.201.738,3.362.73c1.079-.051,2.131-.354,3.071-.886s1.741-1.278,2.339-2.177c.635-.926.423-2.166-.211-3.354Z" fill="#677f49"/><g mask="url(#eC6Sh1D75QY22)"><g><path d="M228.907,246.172L118.198,277.98l13.06,31.203c-.073,13.564-1.05,26.15,0,39.13.454,4.034,1.753,7.928,3.814,11.426c2.061,3.499,4.836,6.523,8.145,8.875c12.244,8.648,55.493,17.683,79.215,17.581.044,0,.087-.017.118-.049.032-.031.049-.074.049-.118l.482-68.269c.034-6.989,2.232-13.796,6.293-19.485c7.795-10.901,21.927-27.63,36.701-30.124c8.75-1.458,33.281,16.182,33.281,16.182s-37.139-31.327-70.449-38.16Z" fill="#cfd1d1"/><path d="M122.179,278.454l11.413,30.437c0,0-2.188,33.544,1.072,43.979c2.479,8.022,7.729,14.811,13.454,20.126" fill="none" stroke="#677f49" stroke-width="3" stroke-linecap="round" stroke-linejoin="round"/><path d="M125.461,278.221l11.996,30.525c0,0-2.268,34.528,1.298,45.663c2.377,7.409,9.363,17.231,16.042,22.358" fill="none" stroke="#677f49" stroke-width="3" stroke-linecap="round" stroke-linejoin="round"/><path d="M281.913,269.281c0,0-10.982-5.681-17.45-5.98s-41.696,22.3-45.364,51.505c-1.531,10.398,4.696,49.659,4.696,49.659" fill="none" stroke="#677f49" stroke-width="3" stroke-linecap="round" stroke-linejoin="round"/><path d="M279.288,264.854c0,0-11.004-4.987-17.501-5.323-9.48-.488-46.378,27.914-47.953,55.501.233,12.046,7.54,59.408,7.54,59.408" fill="none" stroke="#677f49" stroke-width="3" stroke-linecap="round" stroke-linejoin="round"/></g><mask id="eC6Sh1D75QY22" mask-type="alpha" x="-150%" y="-150%" height="400%" width="400%"><path d="M228.907,246.172L118.198,277.98l13.06,31.203c-.073,13.564-1.05,26.15,0,39.13.454,4.034,1.753,7.928,3.814,11.426c2.061,3.499,4.836,6.523,8.145,8.875c12.244,8.648,55.493,17.683,79.215,17.581.044,0,.087-.017.118-.049.032-.031.049-.074.049-.118l.482-68.269c.034-6.989,2.232-13.796,6.293-19.485c7.795-10.901,21.927-27.63,36.701-30.124c8.75-1.458,33.281,16.182,33.281,16.182s-37.139-31.327-70.449-38.16Z" fill="#cfd1d1"/></mask></g><path d="M173.706,294.708c0,0-31.357,1.597-39.203-2.187-2.249-1.027-4.241-2.542-5.833-4.433-1.591-1.892-2.742-4.114-3.37-6.505l39.626-7.978l8.78,21.103Z" fill="#aebab8"/><path d="M141.03,272.635l25.522,16.232c0,0,13.031,4.084,22.65-6.934c9.618-11.019,4.557-25.523,4.557-25.523l-18.566-12.703-34.163,28.928Z" fill="#cdaca3"/><path d="M127.437,281.772c0,0-2.45,13.294,25.603,8.605c28.052-4.689,45.473-30.962,45.473-30.962l17.108-9.429c0,0,2.953,6.308-5.623,22.409-8.677,16.297-27.994,32.858-37.605,34.36-5.156.809-47.464-7.146-47.093-25.151l2.137.168Z" transform="translate(0 0.000001)" fill="#ddd"/><path d="M175.236,301.867c.982-2.366-1.229-5.531-4.938-7.07-3.709-1.538-7.511-.867-8.492,1.499-.982,2.365,1.229,5.531,4.938,7.069c3.709,1.539,7.511.868,8.492-1.498Z" fill="#32342c"/><path d="M176.665,325.744c2.247-2.956,1.924-6.983-.721-8.993-2.645-2.011-6.611-1.245-8.858,1.712-2.247,2.956-1.924,6.982.721,8.993c2.645,2.01,6.611,1.244,8.858-1.712Z" fill="#32342c"/><path d="M176.732,375.841c2.297,2.793,1.859,5.491-.635,5.607-2.408.034-4.802-.382-7.058-1.225-3.398-1.225-3.559-2.982-1.131-5.41c2.429-2.429,6.534-1.772,8.824,1.028Z" transform="translate(0 0.000001)" fill="#32342c"/><path d="M174.315,353.126c.321-3.7-2.102-6.931-5.412-7.219-3.31-.287-6.254,2.479-6.575,6.178-.321,3.7,2.102,6.931,5.412,7.219c3.31.287,6.254-2.479,6.575-6.178Z" fill="#32342c"/><path d="M191.732,298.712c.194-.139.364-.309.503-.503c1.962-2.881.955-6.024-3.267-8.226-2.917-1.538-6.468-1.356-8.546.729c1.203-3.471-.168-6.883-2.48-9.304-2.916-3.027-6.125-2.188-8.021,1.845-.034.097-.061.197-.08.299-.041-.004-.083-.004-.124,0-.286.044-.543.201-.714.435-.17.233-.242.525-.198.811.051.358,1.459,8.022,14.869,13.17c1.001.468,2.046.832,3.121,1.087l.175.058c-1.998,8.816-14.934,68.203-3.69,82.707.105.139.243.25.4.323.158.074.331.108.504.1.044,0,.073,0,.117-.044c1.152,1.758,2.37,3.121,3.245,3.479c1.666-.614,3.064-1.792,3.949-3.331.885-1.538,1.203-3.339.896-5.087-.306-1.749-1.217-3.334-2.573-4.48-1.356-1.145-3.071-1.778-4.846-1.789c1.3-.774,2.337-1.922,2.976-3.293.64-1.372.852-2.904.61-4.398-.242-1.493-.928-2.88-1.968-3.979s-2.386-1.86-3.864-2.185c1.704-.222,3.282-1.018,4.475-2.255c1.192-1.238,1.929-2.844,2.088-4.556.394-4.178-3.077-8.189-7.292-8.145l-.066.117c0-.095,0-.19,0-.285c0,.051,0,.11,0,.168c1.957.259,3.937-.255,5.52-1.434s2.643-2.928,2.956-4.877c.312-1.948-.148-3.942-1.283-5.557-1.134-1.614-2.854-2.722-4.794-3.088c1.801.199,3.613-.255,5.107-1.28s2.569-2.553,3.03-4.305c.462-1.751.278-3.611-.517-5.239s-2.148-2.916-3.813-3.629c1.622-.079,3.176-.676,4.433-1.704s2.152-2.432,2.551-4.006c.399-1.575.282-3.235-.333-4.738s-1.697-2.769-3.085-3.611h.029Zm-10.771,58.206v-.037.037Zm2.917-29.65c.004-.034.004-.068,0-.102h.044l-.044.102Z" fill="#677f49"/></g><g id="eC6Sh1D75QY32_tr" transform="translate(147.056928,272.466202) rotate(0)"><g transform="translate(-147.056928,-272.466196)"><g mask="url(#eC6Sh1D75QY44)"><g><path d="M243.288,156.842c12.608,69.691-39.851,118.015-108.448,128.538-34.2-.839-49.5137-10.209-65.2501-21.607-19.2876-13.957-31.2686-56.842-36.7887-87.235C20.215,106.84,52.0013,72.1438,118.71,59.7764C185.418,47.409,230.673,87.1437,243.288,156.842Z" fill="#f8dedb"/><path d="M66.3374,266.55c13.3688-1.755,22.7204-14.495,20.8876-28.455-1.8329-13.959-14.1563-23.853-27.525-22.098-13.3688,1.756-22.7204,14.495-20.8876,28.455c1.8329,13.96,14.1563,23.853,27.525,22.098Z" opacity="0.5" fill="url(#eC6Sh1D75QY36-fill)"/><path d="M189.13,257.547c13.369-1.755,22.72-14.495,20.888-28.455-1.833-13.959-14.157-23.853-27.525-22.098-13.369,1.756-22.721,14.495-20.888,28.455s14.156,23.853,27.525,22.098Z" opacity="0.5" fill="url(#eC6Sh1D75QY37-fill)"/><path d="M119.3,261.593l23.933-5.834c.166-.035.338-.032.504.009.165.04.318.118.449.227.13.109.235.246.304.401.07.155.104.324.099.494c0,2.457-1.086,7.408-9.968,9.253-8.123,1.677-13.228-.765-15.685-2.53-.169-.129-.299-.301-.376-.499s-.098-.414-.061-.623c.038-.209.133-.403.274-.562.142-.158.324-.275.527-.336Z" fill="#c29d80"/><g style="mix-blend-mode:multiply" opacity="0.2"><path d="M111.652,250.467c3.686-6.134,2.457-13.641-2.746-16.767-5.202-3.126-12.4073-.687-16.0932,5.448-3.6859,6.134-2.4567,13.641,2.7456,16.767c5.2026,3.126,12.4076.687,16.0936-5.448Z" fill="#906b5f"/></g><g style="mix-blend-mode:multiply" opacity="0.2"><path d="M114.231,251.555c3.34-5.557,2.227-12.358-2.485-15.189-4.712-2.832-11.239-.621-14.5786,4.936-3.3395,5.558-2.2268,12.359,2.4853,15.19c4.7123,2.832,11.2393.621,14.5783-4.937Z" fill="#906b5f"/></g><path d="M105.434,240.71c1.736-2.889,1.159-6.424-1.288-7.894-2.448-1.471-5.8395-.321-7.5757,2.569-1.7361,2.889-1.1594,6.423,1.2881,7.894s5.8396.321,7.5756-2.569Z" fill="#f8dedb"/></g><mask id="eC6Sh1D75QY44" mask-type="alpha" x="-150%" y="-150%" height="400%" width="400%"><path d="M243.288,156.842c12.608,69.691-39.851,118.015-108.448,128.538-34.2-.839-49.5137-10.209-65.2501-21.607-19.2876-13.957-31.2686-56.842-36.7887-87.235C20.215,106.84,52.0013,72.1438,118.71,59.7764C185.418,47.409,230.673,87.1437,243.288,156.842Z" transform="translate(.000001 0.000001)" fill="#f8dedb"/></mask></g><g transform="translate(.000001 0)"><g mask="url(#eC6Sh1D75QY57)"><g><path d="M82.8686,205.035c-8.0213-2.683-20.0606-5.323-32.1437-2.916-5.8337,1.152-9.3995,7.562-7.6348,13.906c2.2751,8.167,6.8692,18.959,15.8895,24.705-.9771,2.917-.4521,5.878,1.2324,6.658s3.8648-.911,4.9805-3.777c1.2111.36,2.4467.633,3.6971.816-.0656,2.771,1.0938,5.105,2.771,5.367c1.823.278,3.544-1.99,3.8502-5.104c0,0,3.9888-.489,4.2368-.54.5833,2.487,2.1366,4.244,3.719,4.047c1.7646-.211,3.1866-2.318,2.4428-6.052c8.3057-4.208,11.9518-12.943,10.4861-20.185-1.4657-7.241-6.5921-14.649-13.5269-16.925Z" fill="#fff"/><g mask="url(#eC6Sh1D75QY55)"><g><path d="M53.0002,195.023c0,0,9.0422,24.203,12.7758,33.544c6.4827,16.232,21.5701,13.716,25.7047,9.225c9.1883-9.969,8.2838-32.21,8.2838-32.21L53.0002,195.023Z" fill="#677f49"/><path d="M46.8968,191.837l18.6459,40.106c.1729-1.793.7446-3.526,1.6732-5.07.9285-1.544,2.1906-2.861,3.6938-3.855c1.1959-.802,2.7054.197,2.8366,1.757.1266,1.529.6031,3.009,1.3928,4.325.8076,1.448,2.0103,2.638,3.4679,3.429s3.1101,1.152,4.7649,1.041c4.6232-.474,7.8463-4.543,7.2921-10.384-.0402-.295-.006-.595.0995-.873s.2789-.525.5044-.718c.2256-.194.496-.328.7867-.39s.5923-.051.8773.034c3.346,1.083,6.3806,2.96,8.8451,5.469l-5.2501-47.552-49.6301,12.681Z" fill="#072e29"/><path d="M80.856,229.61c-.3646-.255-.2771-1.203.1823-2.253l-.3573.102c-1.8814.481-3.544.306-3.7044-.387-.1604-.692,1.0209-1.509,2.6835-2.012-1.5678-.81-2.6033-1.925-2.3699-2.611.2333-.685,1.6188-.729,3.2377-.117-.3719-2.085-.1823-3.784.5031-3.959s1.6262,1.254,2.2314,3.296c1.1813-1.342,2.4574-2.013,2.9752-1.517s.0948,1.991-.9334,3.464c1.6626-.328,3.0481-.124,3.2012.503.1532.627-1.2323,1.648-3.1137,2.129-.0881.029-.1783.051-.2698.066.8678.729,1.3782,1.509,1.1667,1.911-.2114.401-1.3563.211-2.4793-.555l-.2042-.138.3719,1.568c.0157.05.0212.104.0161.157-.0051.052-.0207.104-.0458.151-.0251.046-.0592.088-.1005.121-.0412.034-.0886.059-.1396.074-.0508.01-.1032.01-.1541,0-.051-.01-.0993-.03-.1422-.06-.0428-.029-.0794-.066-.1074-.11s-.047-.093-.0557-.144l-.3646-1.517c-.0238.053-.0506.104-.0802.154-.649,1.217-1.5168,1.968-1.947,1.684Z" clip-rule="evenodd" fill="#677f49" fill-rule="evenodd"/></g><mask id="eC6Sh1D75QY55" mask-type="alpha" x="-150%" y="-150%" height="400%" width="400%"><path d="M53.0002,195.023c0,0,9.0422,24.203,12.7758,33.544c6.4827,16.232,21.5701,13.716,25.7047,9.225c9.1883-9.969,8.2838-32.21,8.2838-32.21L53.0002,195.023Z" transform="translate(0 0.000001)" fill="#677f49"/></mask></g></g><mask id="eC6Sh1D75QY57" mask-type="alpha" x="-150%" y="-150%" height="400%" width="400%"><path d="M82.8686,205.035c-8.0213-2.683-20.0606-5.323-32.1437-2.916-5.8337,1.152-9.3995,7.562-7.6348,13.906c2.2751,8.167,6.8692,18.959,15.8895,24.705-.9771,2.917-.4521,5.878,1.2324,6.658s3.8648-.911,4.9805-3.777c1.2111.36,2.4467.633,3.6971.816-.0656,2.771,1.0938,5.105,2.771,5.367c1.823.278,3.544-1.99,3.8502-5.104c0,0,3.9888-.489,4.2368-.54.5833,2.487,2.1366,4.244,3.719,4.047c1.7646-.211,3.1866-2.318,2.4428-6.052c8.3057-4.208,11.9518-12.943,10.4861-20.185-1.4657-7.241-6.5921-14.649-13.5269-16.925Z" transform="translate(.000001 0)" fill="#fff"/></mask></g><g style="mix-blend-mode:multiply" opacity="0.2"><path d="M97.5549,215.835c0,0-21.6285-20.52-49.0395-14.446c0,0,16.6916-10.479,36.3585-4.681c12.1924,3.58,12.681,19.127,12.681,19.127Z" fill="#906b5f"/></g><path d="M97.2339,217.724c-3.0731-2.069-6.3892-3.752-9.8736-5.01-3.3099-1.22-6.7547-2.038-10.26-2.436-3.391-.389-6.8147-.404-10.2089-.043-3.3837.396-6.7249,1.097-9.9829,2.093-.3865.116-.8605.24-1.1814.364-.3208.124-.5979.219-.8823.336-.5542.226-1.0428.474-1.4584.729-.7329.401-1.4137.891-2.0272,1.458-.313.31-.5917.652-.8313,1.021-.2804.471-.5055.973-.6709,1.495-.3789,1.336-.4855,2.735-.3136,4.113.4656,3.281,1.6025,6.431,3.3398,9.253.8769,1.532,1.8897,2.982,3.0262,4.332c1.1463,1.396,2.4047,2.696,3.7628,3.887l.4667.415c.2258.2.3769.47.4286.767s.0008.603-.1442.867c-.3677.895-.556,1.854-.5542,2.822-.0297.356.0125.714.124,1.054.1115.339.29.653.525.922.0901.071.1959.121.3087.143.1128.023.2294.019.3403-.012.3904-.093.7529-.278,1.0573-.539.7716-.667,1.3824-1.5,1.7866-2.436v0l.0948-.182c.1025-.208.2806-.368.4976-.448.2171-.08.4565-.074.6691.017c1.1341.48,2.3015.878,3.4929,1.189v0c.1253.026.2396.09.3281.182.0885.093.147.21.1678.336v0c-.0622,1.063.1148,2.127.5177,3.114.1326.408.3925.762.7417,1.012.3491.249.769.38,1.198.373.4346-.045.8516-.196,1.215-.438.3634-.243.6622-.571.8706-.955.4401-.831.5816-1.789.4011-2.712-.0179-.171.0046-.343.0656-.504.0986-.238.2728-.438.4959-.568.1061-.034.2167-.051.3281-.051h.1094.1021.1385l.2625-.037.5251-.073l1.0573-.138l2.0491-.292h.5105c.2089.011.4056.102.5494.254s.2238.354.2235.563c-.0003.984.3083,1.943.8824,2.742.2565.357.604.639,1.0063.816.1824.073.3781.106.5743.097.1961-.009.3881-.059.5633-.148.366-.231.6641-.556.864-.94s.2942-.815.2735-1.247c.0231-.959-.0601-1.918-.2479-2.859v-.073c-.0367-.244.0059-.493.1214-.711s.2979-.393.5203-.499c.8969-.431,1.7647-.919,2.6252-1.459.8604-.539,1.6917-1.108,2.5668-1.713.0554-.042.1186-.072.1859-.088.0672-.016.1371-.018.2053-.007.0682.012.1333.037.1914.075.0581.037.108.086.1466.144.0482.08.0736.172.0736.266s-.0254.185-.0736.266c-.5371,1-1.2455,1.899-2.0928,2.654-.8388.769-1.7754,1.424-2.7856,1.947l.6271-1.283c.2836,1.234.2408,2.521-.124,3.733-.1797.659-.5031,1.269-.947,1.787-.4438.518-.997.932-1.6198,1.21-.6711.268-1.4152.288-2.1001.059-.6272-.238-1.1893-.62-1.6408-1.116-.8387-.935-1.5053-2.012-1.9688-3.179l1.2907.846-.5907.073-.5323.065-1.0574.117-1.0646.124-.5323.058h-.2626-.1312-.0729.1021c.0922-.02.1807-.055.2625-.102.2137-.128.3762-.327.4594-.561.044-.163.044-.334,0-.496.0653.683.0358,1.373-.0875,2.049-.1429.697-.4176,1.36-.8095,1.954-.3946.614-.933,1.121-1.5683,1.48-.6354.358-1.3486.556-2.0777.576-.7758.005-1.528-.266-2.122-.765-.5414-.466-.9533-1.064-1.1959-1.736-.4192-1.204-.5613-2.488-.4157-3.755l.5251.656c-1.3122-.055-2.6186-.206-3.9086-.452l1.2615-.605c-.413,1.3-1.119,2.487-2.0637,3.471-.5457.57-1.2175,1.005-1.9615,1.269-.4549.154-.9364.215-1.4154.177-.4789-.038-.9451-.172-1.3702-.396-.7834-.452-1.4055-1.138-1.7793-1.962-.3185-.692-.5252-1.43-.6125-2.187-.1507-1.407-.0218-2.829.3791-4.186l.7293,2.049c-1.9121-.798-3.7373-1.79-5.4473-2.961-1.7303-1.2-3.3529-2.55-4.8492-4.032-3.1427-3.127-5.5946-6.878-7.1973-11.011-.9116-2.332-1.4482-4.793-1.5897-7.292-.1589-2.905.4524-5.801,1.772-8.394c1.4281-2.669,3.5786-4.883,6.2056-6.387c1.1876-.688,2.4469-1.243,3.7554-1.656.6271-.189,1.2543-.364,1.8668-.503.6125-.138,1.0719-.204,1.6188-.299c4.2139-.795,8.509-1.074,12.7904-.831c4.291.252,8.523,1.124,12.5643,2.589c3.9676,1.449,7.6814,3.516,11.0038,6.125c1.6198,1.276,3.123,2.694,4.492,4.237c1.3828,1.513,2.5822,3.185,3.5731,4.98.0514.087.084.184.096.284.0119.101.0028.203-.0267.299-.0294.097-.0787.186-.1446.263s-.1471.139-.2382.182c-.1208.068-.2584.1-.3965.092-.1382-.008-.2713-.055-.3838-.135l-.0583-.022Z" fill="#062d28"/><path d="M86.9887,216.95c2.1989,0,3.9815-1.782,3.9815-3.981s-1.7826-3.982-3.9815-3.982-3.9815,1.783-3.9815,3.982s1.7826,3.981,3.9815,3.981Z" fill="#fff"/><path d="M42.1638,183.516l.1969-.59c.0584-.161.124-.329.1823-.474.1313-.314.2625-.613.4011-.905.282-.575.6036-1.131.9625-1.662.7007-1.06,1.5176-2.039,2.4356-2.917c1.8345-1.75,3.9621-3.164,6.2858-4.178c4.4919-1.855,9.3477-2.66,14.1978-2.356c1.174.044,2.3189.168,3.471.285c1.1522.116,2.2825.328,3.3909.554c1.1632.215,2.3145.49,3.4491.824l1.7137.59c.5688.212,1.1157.474,1.6699.73c2.2034,1.013,4.2472,2.342,6.067,3.945.9066.808,1.741,1.694,2.4939,2.647.3719.481.7292.977,1.0574,1.502.1677.255.3208.54.474.817.1531.277.2771.539.4666.926.1315.263.2097.55.2302.843.0206.294-.0169.589-.1104.868s-.241.537-.4343.758c-.1932.222-.4283.404-.6918.535-.3287.169-.6955.249-1.0646.233l-1.6553-.051c-.2111-.048-.4164-.119-.6126-.211l-.6708-.27-1.3345-.532c-.875-.365-1.7647-.678-2.6252-1.006-1.7355-.628-3.4491-1.189-5.1701-1.678l-1.2834-.35-1.2907-.364c-.875-.204-1.7063-.401-2.6762-.591-1.8454-.389-3.7098-.681-5.5858-.875-3.5418-.457-7.134-.341-10.6391.343-1.6582.355-3.2618.929-4.7691,1.706-.7635.389-1.495.837-2.1876,1.342-.35.248-.6709.525-.9918.795-.1604.138-.3135.284-.4594.423l-.2114.204c-.0584.044-.1459.16-.1532.109-.2611.603-.7508,1.077-1.3614,1.318s-1.2921.23-1.8945-.031-1.0765-.751-1.3179-1.361c-.2413-.611-.2302-1.292.0308-1.895h.0146Z" fill="#062d28"/></g><g transform="translate(.000001 0.000001)"><path d="M168.609,186.696c-19.535,4.63-27.644,12.447-31.954,17.785-2.136,2.647-2.107,7.197-1.057,10.501c3.063,9.669,17.625,18.573,24.028,18.04.568,3.77,2.712,5.236,4.543,4.813c1.64-.386,2.574-2.588,2.282-5.104.262-.051,4.375-1.007,4.375-1.007c1.378,2.779,3.887,4.295,5.601,3.384c1.575-.839,1.91-3.442.882-6.016c1.179-.613,2.312-1.31,3.391-2.086c2.107,2.29,4.871,3.092,6.271,1.765s.897-4.229-1.065-6.621c1.436-1.475,2.75-3.062,3.931-4.747c9.888-14.125,8.196-37.679-21.228-30.707Z" fill="#fff"/><g mask="url(#eC6Sh1D75QY71)"><g><path d="M136.991,182.291c0,0,8.903,24.312,12.6,33.704c6.41,16.313,22.81,12.915,28.097,9.538c11.872-7.576,8.342-32.26,8.342-32.26l-49.039-10.982Z" fill="#677f49"/><path d="M129.706,179.265l20.199,40.836c0,0-.416-5.105,5.302-8.554c1.327-.802,3.361-.984,3.449.576.083,1.248.412,2.466.968,3.586.556,1.119,1.328,2.118,2.271,2.938.944.82,2.04,1.445,3.226,1.84s2.439.551,3.685.46c5.032-.467,8.335-5.375,7.934-11.23-.087-1.342.591-1.714,1.852-1.305c6.286,2.034,8.423,5.994,8.423,5.994l-2.13-48.019-55.179,12.878Z" fill="#072e29"/><path d="M165.561,216.841c-.357-.292-.131-1.225.489-2.187l-.379.051c-2.042.226-3.756-.175-3.836-.883-.08-.707,1.276-1.349,3.085-1.633-1.532-1.007-2.458-2.253-2.122-2.917.335-.664,1.794-.489,3.405.321-.102-2.108.328-3.77,1.072-3.85.744-.081,1.531,1.458,1.889,3.565c1.414-1.174,2.851-1.662,3.318-1.101.466.562-.168,1.984-1.459,3.304c1.787-.102,3.209.284,3.282.933s-1.51,1.458-3.552,1.692h-.291c.816.817,1.239,1.677.962,2.049s-1.458,0-2.523-.882l-.197-.168.183,1.604c.01.054.009.11-.003.164-.013.054-.036.105-.069.15-.033.044-.074.081-.122.109-.048.027-.101.045-.156.051s-.111.001-.164-.016c-.053-.016-.102-.044-.143-.08-.042-.036-.076-.081-.1-.131-.023-.05-.037-.104-.038-.159l-.175-1.546-.102.138c-.839,1.138-1.853,1.772-2.254,1.422Z" clip-rule="evenodd" fill="#677f49" fill-rule="evenodd"/></g><mask id="eC6Sh1D75QY71" mask-type="alpha" x="-150%" y="-150%" height="400%" width="400%"><path d="M142.183,198.108c0,0,3.711,8.495,7.409,17.887c6.409,16.313,22.809,12.915,28.096,9.538c11.872-7.576,8.342-32.26,8.342-32.26l-23.794-7.926-20.053,12.761Z" transform="translate(.000001 0)" fill="#677f49"/></mask></g><g style="mix-blend-mode:multiply" opacity="0.2"><path d="M132.703,211.27c0,0,18.456-28.33,52.86-29.57c0,0-30.029-6.65-48.682,7.686-9.093,6.979-4.178,21.884-4.178,21.884Z" fill="#906b5f"/></g><path d="M131.974,211.044c.41-2.251,1.147-4.43,2.187-6.468c1.019-2.072,2.258-4.028,3.698-5.834c1.448-1.835,3.064-3.532,4.827-5.068c1.784-1.535,3.688-2.925,5.695-4.156c4.032-2.436,8.38-4.305,12.922-5.557c1.13-.291,2.26-.62,3.398-.838c1.137-.219,2.282-.511,3.427-.671c1.145-.161,2.297-.372,3.442-.474s2.304-.285,3.449-.336s2.304-.16,3.449-.16h1.714.86c.285,0,.569,0,.919,0c2.884.003,5.736.598,8.379,1.75c3.051,1.332,5.621,3.566,7.365,6.402c1.595,2.674,2.444,5.726,2.457,8.839.004,2.646-.39,5.279-1.166,7.809-.7,2.318-1.654,4.551-2.844,6.658-2.257,4.013-5.182,7.611-8.649,10.639v-2.246c.898,1.146,1.537,2.471,1.874,3.887.188.77.233,1.569.132,2.355-.102.929-.516,1.795-1.174,2.458-.689.656-1.602,1.023-2.553,1.028-.786.007-1.565-.157-2.282-.481-1.265-.578-2.38-1.439-3.26-2.516l1.364.138c-1.191.686-2.428,1.286-3.704,1.794v0l.277-.802c.593,1.165.898,2.456.889,3.763-.024.732-.243,1.444-.634,2.064-.433.646-1.066,1.133-1.801,1.385-.699.232-1.442.299-2.171.195-.728-.104-1.423-.375-2.03-.793-.605-.408-1.119-.937-1.509-1.553-.376-.601-.659-1.255-.839-1.94.033.172.108.332.219.467.159.191.382.318.627.357.089.018.181.018.27,0h.109-.065-.139l-.27.066-.554.138-1.094.263-1.101.262-1.159.27.919-1.225c-.04,1.287-.325,2.554-.839,3.734-.283.617-.705,1.161-1.232,1.589-.574.436-1.278.668-1.998.657-.694-.017-1.372-.218-1.962-.584-.563-.361-1.057-.82-1.458-1.356-.733-1.042-1.283-2.201-1.626-3.427l1.057,1.006c-1.087-.226-2.188-.467-3.274-.802-1.108-.324-2.166-.8-3.143-1.415-.06-.036-.112-.084-.152-.141-.04-.058-.068-.123-.082-.191-.014-.069-.013-.14.002-.208s.045-.133.086-.189c.063-.096.156-.167.265-.201.109-.035.227-.031.333.011c1.94.73,4.04.73,6.191.73l.401.109c.194.054.365.172.484.335.119.162.18.36.172.562-.059,1.009.152,2.017.613,2.917.19.411.483.767.851,1.031.368.265.798.429,1.249.478.415.024.823-.108,1.145-.372.342-.3.594-.688.729-1.123.304-.951.289-1.975-.044-2.916-.075-.216-.062-.453.037-.659.098-.206.274-.365.488-.443v0l.365-.116l2.144-.46l1.101-.24.547-.124.277-.059h.139.072.11c.099-.014.2-.014.299,0c.253.037.485.161.656.35.116.133.2.29.248.46.15.942.637,1.797,1.371,2.406.358.284.776.481,1.223.575.446.095.909.086,1.351-.028.424-.126.796-.383,1.065-.734s.419-.778.43-1.22c.068-1.078-.127-2.157-.569-3.143v0c-.057-.143-.06-.301-.009-.446s.153-.266.286-.342v0c1.084-.715,2.115-1.507,3.085-2.37.167-.153.385-.239.612-.239s.446.086.613.239l.138.132c.733.74,1.626,1.301,2.611,1.64.404.144.835.193,1.262.146.14-.003.279-.037.405-.1s.237-.153.324-.264c.152-.322.231-.673.231-1.028c0-.356-.079-.707-.231-1.029-.332-.92-.854-1.759-1.532-2.464v0c-.244-.208-.407-.495-.462-.81-.054-.316.003-.641.163-.919l.307-.517c2.095-3.476,3.709-7.219,4.798-11.128.498-1.825.82-3.693.962-5.579.151-1.669-.015-3.351-.488-4.958-.344-1.186-1.047-2.236-2.013-3.005-.836-.558-1.757-.979-2.727-1.247-1.351-.405-2.734-.696-4.135-.867-.182,0-.43-.051-.685-.066l-.729-.058-1.459-.117c-.999-.095-1.983-.087-2.975-.131-7.905-.255-15.773.474-23.101,3.099-1.833.67-3.623,1.452-5.36,2.341-1.751.921-3.433,1.969-5.032,3.135-1.627,1.199-3.161,2.52-4.586,3.953-1.443,1.468-2.738,3.075-3.865,4.798l-.044.065c-.07.182-.208.329-.386.408-.178.08-.38.085-.562.015-.182-.069-.328-.208-.408-.386-.079-.178-.084-.38-.015-.562l.015-.007Z" fill="#062d28"/><path d="M178.629,197.59c2.199,0,3.981-1.782,3.981-3.981s-1.782-3.982-3.981-3.982-3.982,1.783-3.982,3.982s1.783,3.981,3.982,3.981Z" fill="#fff"/><path d="M174.224,164.71l-3.062.037-3.092.073c-2.042.058-4.069.153-6.06.313-3.817.241-7.597.882-11.281,1.911-1.655.474-3.254,1.127-4.769,1.947l-.539.299-.591.357c-.394.241-.802.467-1.181.729-.781.474-1.539.985-2.312,1.459-1.517,1.035-3.019,2.122-4.507,3.288-.729.591-1.458,1.189-2.187,1.809l-1.116.948c-.189.16-.364.313-.561.466-.16.15-.333.284-.518.401l-1.51.569c-.369.142-.769.184-1.159.122-.39-.063-.757-.228-1.063-.478-.306-.251-.54-.578-.679-.948s-.177-.771-.11-1.16c.065-.438.109-.73.175-1.043.065-.314.131-.635.211-.926.16-.601.353-1.192.576-1.772.437-1.149.974-2.256,1.605-3.311c1.255-2.097,2.799-4.007,4.586-5.673l1.371-1.203c.482-.38.97-.73,1.459-1.109.488-.379,1.006-.678,1.516-1.013l.766-.489c.27-.16.569-.314.861-.467c1.14-.61,2.319-1.146,3.529-1.604c1.179-.416,2.379-.771,3.595-1.065c4.616-1.039,9.375-1.285,14.074-.729c2.255.261,4.491.668,6.694,1.218c1.094.27,2.188.591,3.245.948c1.092.355,2.166.766,3.216,1.232.522.233.95.638,1.211,1.146.262.509.343,1.092.229,1.652-.114.561-.415,1.066-.855,1.432-.439.367-.99.572-1.562.583l-.205.051Z" fill="#062d28"/></g><g transform="translate(0 0.000001)"><g id="eC6Sh1D75QY79_tr" transform="translate(141.03,48.771349) rotate(0)"><path d="M38.9338,96.0548c0,0,27.5715-69.4502,88.4902-65.6291c0,0,9.545-11.1132,32.646-11.0184c14.585.0656,125.687,4.5649,126.767,138.0837c5.994,87.133-65.046,104.583-65.046,104.583s9.414-135.48-83.983-153.222C44.4102,91.1107,38.9338,96.0548,38.9338,96.0548Z" transform="translate(-141.029996,-48.771349)" fill="#072e29"/></g><g id="eC6Sh1D75QY80_tr" transform="translate(267.871018,146.276273) rotate(0)"><path d="M257.872,98.979c.554.9188.985,1.67,1.459,2.501l1.334,2.443c.88,1.619,1.726,3.252,2.538,4.9c1.628,3.296,3.174,6.619,4.638,9.969c1.463,3.349,2.856,6.728,4.178,10.136c1.283,3.42,2.538,6.854,3.682,10.325c4.665,13.875,8.044,28.15,10.093,42.645c1.04,7.252,1.695,14.554,1.961,21.876.066,1.83.088,3.646.132,5.498.043,1.852,0,3.646,0,5.499c0,1.852-.073,3.777-.219,5.687-.161,1.94-.419,3.87-.773,5.783-.684,3.922-1.888,7.736-3.581,11.339-1.726,3.697-4.08,7.067-6.956,9.961-2.856,2.877-6.214,5.205-9.91,6.87-1.813.815-3.694,1.469-5.622,1.954-.963.24-1.933.445-2.917.59-.489.073-.985.132-1.459.183l-.765.058-.861.044c-.692.036-1.373-.178-1.92-.605-.546-.426-.919-1.036-1.052-1.716-.132-.68-.014-1.385.333-1.985.346-.6.898-1.054,1.553-1.28l.663-.226.467-.109.561-.146c.38-.102.73-.219,1.138-.343.729-.241,1.524-.51,2.261-.817c1.478-.598,2.907-1.313,4.273-2.136c1.345-.816,2.622-1.738,3.821-2.757c1.174-1.01,2.265-2.115,3.259-3.303c1.978-2.392,3.57-5.079,4.718-7.963.589-1.462,1.076-2.963,1.459-4.492.405-1.551.722-3.124.948-4.711.233-1.604.372-3.23.445-4.871.072-1.64.116-3.245.065-5.031-.051-1.787-.036-3.486-.124-5.229-.087-1.743-.153-3.485-.262-5.221-.431-6.964-1.247-13.899-2.326-20.797-2.227-13.807-5.605-27.403-10.1-40.646-2.231-6.629-4.733-13.17-7.445-19.602-1.381-3.213-2.825-6.39-4.332-9.53-.729-1.561-1.524-3.121-2.311-4.66l-1.189-2.29c-.394-.729-.831-1.546-1.189-2.187l-.036-.073c-.678-1.245-.846-2.705-.469-4.072.377-1.3667,1.271-2.5334,2.492-3.2541s2.674-.939,4.053-.609c1.379.3301,2.576,1.1828,3.338,2.3782l-.044.0219Z" transform="translate(-267.871009,-146.276267)" fill="#072e29"/></g><g id="eC6Sh1D75QY81_tr" transform="translate(273.587891,115.366653) rotate(0)"><path d="M262.503,95.5881l1.633,1.1303c.62.4229,1.276.875,1.911,1.3417c1.29.9261,2.574,1.9178,3.784,2.9679c2.448,2.085,4.734,4.352,6.84,6.782c4.136,4.798,7.656,10.094,10.479,15.765c2.78,5.552,5.066,11.338,6.833,17.29c1.747,5.848,3.108,11.803,4.076,17.829.992,5.98,1.648,11.988,2.071,17.983.146,3.004.357,6.001.408,8.998l.117,4.434.058,2.085.103,2.071c.35,5.491,1.188,10.938,3.048,15.613.469,1.14,1.017,2.246,1.64,3.31.607,1.006,1.315,1.947,2.115,2.808.764.828,1.64,1.545,2.603,2.129.464.286.952.53,1.459.729.248.102.496.19.729.27l.35.102.153.037h.059c0,0,.043,0,0,0c.383-.017.765.042,1.125.173.361.131.692.332.974.591.283.259.512.571.674.918.162.348.254.724.271,1.107s-.042.765-.173,1.126c-.131.36-.332.691-.591.974-.259.282-.571.511-.919.673-.347.162-.723.254-1.106.271h-.518-.394c-.262,0-.496,0-.729,0-.474-.027-.946-.08-1.415-.16-.916-.156-1.814-.4-2.683-.729-1.711-.632-3.313-1.528-4.747-2.655-2.726-2.184-4.962-4.917-6.563-8.021-1.527-2.901-2.705-5.973-3.508-9.152-.779-3.059-1.335-6.171-1.662-9.312l-.234-2.319-.138-2.311-.255-4.376c-.132-2.88-.431-5.731-.657-8.59-.598-5.702-1.349-11.361-2.384-16.954-2.079-11.149-5.302-22.037-10.289-31.837-1.226-2.437-2.592-4.802-4.091-7.081-1.464-2.26-3.067-4.428-4.799-6.49-1.72-2.028-3.59-3.924-5.593-5.673-.999-.875-2.027-1.707-3.099-2.531-.532-.408-1.079-.809-1.655-1.232s-1.189-.846-1.947-1.458c-1.111-.874-1.84-2.143-2.035-3.542-.196-1.3995.158-2.8201.986-3.9644.829-1.1444,2.068-1.9237,3.458-2.1747c1.391-.251,2.824.0458,4.001.8281l.226.2261Z" transform="translate(-273.587882,-115.366651)" fill="#072e29"/></g></g><path d="M252.031,178.58c-10.573-.613-17.603,6.278-16.203,12.148c0,0-2.829,53.736-2.829,53.765-.117,2.108,8.357-.671,8.903-.904c15.533-6.731,25.99-18.559,30.926-34.536c2.611-8.444.037-29.256-20.797-30.473Z" fill="#cdaca3"/><g><path d="M120.503,38.2063c0,0-18.791-7.8317-11.951-17.4427s28.395-22.34308,60.845-20.417964s100.398,21.796164,113.954,60.619364c13.556,38.8233-46.553,43.228-68.51,28.9206-21.956-14.3072-45.998-48.9229-94.338-51.6793Z" fill="#1b1e17"/><path d="M231.985,89.5429c-.27-.6782.729-1.8012,2.326-2.6908l-.561-.2188c-2.997-1.2105-5.105-3.0408-4.667-4.0908.437-1.0501,2.778-.9188,5.498.0437-1.363-2.5449-1.728-4.9659-.78-5.6149s2.858.6636,4.499,2.9898c1.422-3.0117,3.267-4.9879,4.375-4.5503c1.109.4375,1.043,3.1793,0,6.3587c2.837-.5615,5.192-.1823,5.426.9553.233,1.1375-1.714,2.6251-4.478,3.5075c2.56,1.1959,4.244,2.7856,3.865,3.7408s-3.194.9042-6.191-.3062l-.43-.1823c.525,1.7428.474,3.2595-.19,3.5585-.663.299-2.034-1.0428-2.843-3.1064-.052-.124-.095-.2553-.139-.3792l-.955,2.3626c-.03.0799-.074.1531-.132.2155s-.127.1127-.205.1479c-.077.0353-.161.0549-.246.0576s-.169-.0115-.249-.0418c-.157-.0688-.281-.1973-.344-.3572s-.059-.3383.009-.496l.911-2.2751-.24.1167c-2.071.9188-3.953,1.0354-4.259.2552Z" clip-rule="evenodd" fill="#677f49" fill-rule="evenodd"/></g><g><g id="eC6Sh1D75QY87_tr" transform="translate(107.113503,58.616506) rotate(0)"><path d="M140.338,30.1412c-14.585-.1458-17.961,9.1662-21.767,16.4219-1.364-.1605-.35-5.3087-8.08-8.5027C62.8662,18.3936,-4.31607,101.487,29.3516,217.993c6.964,29.038-5.5639,40.034-12.8195,41.245-.4568.1-.8746.331-1.2029.664s-.5532.755-.6473,1.213-.0534.934.117,1.369c.1705.436.4635.813.8435,1.085c3.3544,2.523,9.6548,4.784,21.067,2.348.4265-.082.8675-.047,1.2756.102.4082.149.768.406,1.0409.744.2728.338.4485.744.508,1.175.0595.43.0007.869-.1702,1.268-1.7939,4.441-6.5629,11.106-19.0178,13.396-.5041.104-.9618.366-1.3066.749-.3448.382-.5588.864-.6108,1.377-.052.512.0606,1.027.3214,1.471s.6565.793,1.1293.997c12.7976,5.345,39.1732,11.769,58.2494-14.555c1.4584-2.057,1.0355-2.188-1.1886-3.61-31.5093-19.915-31.0134-54.261-39.6181-72.272C9.46603,138.517,90.8752,4.18126,110.622,69.0811c.839-3.9523,3.457-16.626,21.344-22.1389C147.892,42.0346,206.944,90.1699,209,187.68c1.335,36.526-12.739,45.065-24.953,45.693-.504.04-.982.237-1.367.564-.386.327-.658.767-.779,1.258-.121.49-.085,1.007.104,1.475.189.469.521.866.948,1.136c6.45,4.228,14.163,6.095,21.832,5.287.427-.031.854.053,1.237.243.383.189.709.478.943.835.234.358.369.772.389,1.199.021.427-.073.852-.272,1.23-2.187,4.376-8.021,11.369-23.291,15.627-.481.158-.901.463-1.2.871-.299.409-.462.901-.467,1.407s.149,1.002.44,1.416c.292.414.705.726,1.184.893c13.935,4.514,43.351,9.516,69.472-30.109c34.601-52.459-35.083-205.6523-112.882-206.5638Z" transform="translate(-107.113503,-58.616504)" fill="#0c3831"/></g><g transform="translate(0 0.000001)"><g id="eC6Sh1D75QY89_tr" transform="translate(86.988701,115.366653) rotate(0)"><path d="M56.0119,112.666v16.473c0,0-1.4584,29.577,11.5507,56.645c1.5106,3.21,3.9783,5.873,7.064,7.622c3.0856,1.75,6.6375,2.501,10.1673,2.15l44.9411-4.784c7.526-.795,11.719-9.363,7.97-16.269-7.678-14.154-18.142-36.015-20.25-53.429-3.405-28.184-61.4431-8.408-61.4431-8.408Z" transform="translate(-86.988701,-115.366648)" fill="#104239"/></g><g id="eC6Sh1D75QY90_tr" transform="translate(122.790577,115.366653) rotate(0)"><path d="M116.726,110.566l1.845,14.723c0,0,10.938,33.544,34.834,56.959c1.785,1.77,3.948,3.112,6.326,3.924c2.379.812,4.911,1.074,7.405.764c3.887-.51,5.739-5.228,3.304-8.466-9.341-12.447-27.112-38.4-29.533-58.585-3.296-27.5638-24.181-9.319-24.181-9.319Z" transform="translate(-122.790576,-115.366648)" fill="#104239"/></g><path d="M135.146,123.582c14.985,25.727,45.685,63.223,95.92,59.154c8.386-.678,13.71-6.045,10.939-9.91s-9.436-5.907-14.103-8.349c0,0,16.823-3.311,12.673-11.121-3.179-5.987-29.102-7.846-29.102-7.846s-20.141-85.5295-86.675-86.864C44.68,57.0417,5.45573,118.04,14.5709,179.921c0,0-13.06021,8.999-11.52886,17.501c0,0,2.80017,3.865,14.21236-2.639c0,0-14.32175,13.621-11.14238,19.608s15.36448,3.726,27.27248-11.667c13.33-17.188,11.9372-40.107,23.9327-69.465c2.8148-6.906,76.3118-12.287,77.8288-9.677Z" fill="#104239"/></g><g transform="translate(0 0.000001)"><path d="M62.3779,102.392c1.2251,8.138-3.9086,14.54-11.6674,15.721-7.7588,1.182-18.6168,3.048-19.8345-5.104-1.2178-8.153,10.9381-22.314,18.748-23.5027c7.8099-1.1886,11.5361,4.7399,12.7539,12.8857Z" fill="#255c51"/><path d="M96.2038,109.909c.2771,7.066-4.9149,11.616-11.6674,11.835-6.7525.218-15.7218-.066-15.9989-7.125s10.6319-17.2748,17.399-17.5008c6.7671-.2261,9.9829,5.7318,10.2673,12.7908Z" fill="#255c51"/><path d="M113.64,112.593c.787,5.834-3.457,9.676-9.064,10.428-5.6078.751-12.601.335-13.3812-5.521-.7803-5.855,6.6066-14.46,12.2142-15.211c5.608-.751,9.451,4.434,10.231,10.304Z" fill="#255c51"/><path d="M176.675,111.193c.729,4.689-2.99,7.329-7.482,8.021-4.492.693-9.589-.692-10.289-5.381s4.076-10.705,8.568-11.383s8.495,4.047,9.203,8.743Z" fill="#255c51"/><path d="M193.344,109.253c.532,3.544-2.683,4.93-6.074,5.44-1.668.186-3.343-.282-4.674-1.305-1.33-1.023-2.213-2.522-2.462-4.182-.249-1.659.155-3.351,1.126-4.72.972-1.368,2.436-2.307,4.085-2.62c3.391-.51,7.467,3.851,7.999,7.387Z" fill="#255c51"/></g></g></g></g><g><path d="M150.731,388.951c-7.015-1.371-17.012-6.614-21.402-8.021-.721-.574-1.549-.998-2.435-1.249-.886-.25-1.814-.321-2.728-.21l-10.654,1.327-1.64.204c-1.319.165-2.531.807-3.408,1.806-.876.998-1.355,2.284-1.347,3.613l-4.302,1.254-1.539.459c-.705.212-1.36.562-1.927,1.031s-1.0343,1.047-1.3742,1.699c-.3399.653-.5456,1.367-.6048,2.101-.0592.733.0292,1.471.26,2.17l-3.5658,1.341-1.4584.555c-.9776.364-1.8329.996-2.468,1.824-.6351.827-1.0243,1.817-1.1233,2.856-.0989,1.038.0966,2.083.564,3.016s1.1881,1.715,2.0793,2.257l-2.7783,2.582-1.1011,1.013c-.7583.709-1.2988,1.619-1.5581,2.623-.2594,1.005-.2267,2.063.094,3.05.3208.986.9164,1.861,1.7169,2.521.8005.661,1.7728,1.079,2.8026,1.206l11.3972,1.385c.609.081,1.227.026,1.812-.16.584-.187,1.12-.501,1.569-.919s.8-.931,1.027-1.5c.228-.57.326-1.183.289-1.796c17.581,4.485,34.513,2.188,34.513,2.188-8.729-23.175,9.29-30.226,9.29-30.226Z" fill="#f8dedb"/><path d="M134.528,420.905c-5.899-15.773-6.016-25.202,13.126-33.493c1.327-.559,2.74-.887,4.178-.97c11.237-.175,13.906.197,26.252.795c1.823.088,2.917,1.809,1.458,3.318-11.288,11.609-6.694,22.212.657,31.998.955,1.269-.438,2.982-2.531,2.917-14.19-.292-25.092-2.042-40.172-2.582-.633-.01-1.249-.203-1.776-.555-.526-.352-.94-.847-1.192-1.428Z" fill="#fff"/><path d="M156.448,386.42h-2.187c-1.359.079-2.69.424-3.916,1.014-18.231,8.692-18.632,17.851-12.506,33.544.265.618.704,1.147,1.263,1.522s1.214.581,1.887.592l1.663.095l1.611.102c2.129.139,3.209.219,5.389.387-1.058-1.229-1.923-2.611-2.567-4.098-6.067-13.024-5.36-21.279,8.641-30.759c1.323-.858,2.691-1.644,4.098-2.355-1.319-.036-1.983-.044-3.376-.044Z" fill="#6b8a84"/><path d="M152.707,386.428h-.853c-1.438.083-2.851.411-4.178.97-19.164,8.291-19.047,17.72-13.126,33.492.253.594.674,1.101,1.212,1.457.538.357,1.169.547,1.814.549l1.626.065h.678c2.487.139,3.763.234,6.337.431-.991-.649-1.961-2.662-2.457-3.814-5.943-13.644-5.287-21.629,9.545-30.919c1.448-.835,2.945-1.581,4.485-2.231-1.925-.022-2.917-.022-5.083,0Z" fill="#255c51"/><g mask="url(#eC6Sh1D75QY110)"><g><path d="M241.797,284.222c-15.516,12.582-19.92,33.499-20.407,53.469-.4,16.412-.567,32.184-.567,32.184s-10.092.729-7.613,8.648c0,0-14.81,1.393-29.598,2.304-14.789.912-44.752,51.578-16.991,60.102c27.761,8.525,58.636-2.786,83.035-8.67c25.931-6.25,35.411-4.653,39.721-17.275c4.309-12.623-5.061-100.209-9.597-122.078-4.996-24.109-22.662-21.109-37.983-8.684Z" fill="#32342c"/><g style="mix-blend-mode:multiply" opacity="0.3"><path d="M265.772,403.798c5.104,12.579,13.658,5.834,9.151-4.317-7.977-17.917-61.713-20.957-61.713-20.957s45.656,8.364,52.562,25.274Z" fill="#32342c"/></g><g style="mix-blend-mode:multiply" opacity="0.3"><path d="M216.827,369.131l3.996.729c0,0,44.409-7.058,42.718-25.748-.73-8.269-9.837,1.75-10.99,4.74-3.565,9.261-24.355,19.149-31.56,19.419-7.204.27-4.164.86-4.164.86Z" fill="#32342c"/></g></g><mask id="eC6Sh1D75QY110" mask-type="alpha" x="-150%" y="-150%" height="400%" width="400%"><path d="M241.797,284.222c-15.516,12.582-19.92,33.499-20.407,53.469-.4,16.412-.567,32.184-.567,32.184s-10.092.729-7.613,8.648c0,0-14.81,1.393-29.598,2.304-14.789.912-44.752,51.578-16.991,60.102c27.761,8.525,58.636-2.786,83.035-8.67c25.931-6.25,35.411-4.653,39.721-17.275c4.309-12.623-5.061-100.209-9.597-122.078-4.996-24.109-22.662-21.109-37.983-8.684Z" transform="translate(.000001 0.000001)" fill="#32342c"/></mask></g><path d="M298.244,283.609c-2.727-1.925-14.781-10.209-24.159-14.008-.211,0-.445-.08-.627-.095-.144-.116-.295-.224-.452-.321-2.917-1.094-5.571-1.604-7.475-1.349-8.655,1.16-16.144,6.833-22.904,13.418-.043.037-.082.079-.117.124l-.095.08c-3.933,3.856-7.607,7.968-10.996,12.309h.058c-.547.729-1.072,1.458-1.575,2.122-4.73,6.577-7.455,14.383-7.846,22.474l-.285,5.739c3.894-.773,7.519-4.032,7.628-7.941.023-1.523-.374-3.022-1.145-4.335-.772-1.313-1.889-2.389-3.23-3.11c1.539.228,3.112.023,4.541-.594c1.429-.618,2.657-1.622,3.546-2.899c1.045-1.7,1.523-3.689,1.364-5.679-.158-1.989-.945-3.877-2.247-5.39c1.655.893,3.563,1.202,5.415.878s3.541-1.263,4.794-2.665c1.349-1.604,2.054-3.652,1.976-5.746-.009-1.663-.459-3.294-1.305-4.726c3.223,2.319,7.642,2.312,10.486.073c1.577-1.276,2.617-3.098,2.917-5.104.292-1.545.197-3.139-.277-4.638.934,1.209,2.131,2.189,3.5,2.866c2.866,1.086,7.292,1.342,8.751,1.021c1.549-.504,2.916-1.453,3.93-2.727.28.915.736,1.767,1.342,2.508c1.39,1.624,3.137,2.904,5.104,3.741c2.983,1.247,5.943,1.123,7.591-.255c1.142,3.168,3.386,5.819,6.323,7.467c5.199,2.457,6.818.321,6.935-1.663-.439-.569-.93-1.096-1.466-1.575v0Z" fill="#677f49"/></g><g id="eC6Sh1D75QY113_tr" transform="translate(25.244583,370.401001) rotate(0)"><g transform="translate(-25.244581,-370.400997)"><path d="M96.154,290.107L49.0979,377.612c-1.5753,2.924-3.711,5.509-6.2851,7.607-2.5742,2.098-5.5365,3.669-8.7177,4.622-3.1811.954-6.519,1.271-9.8229.935-3.3038-.337-6.5091-1.321-9.4327-2.896-2.9236-1.576-5.50828-3.711-7.6065-6.285-2.09822-2.575-3.66888-5.537-4.62228-8.718s-1.2709-6.519-.93435-9.823s1.32056-6.509,2.89584-9.433c.79563-1.459,1.72577-2.841,2.7783-4.127L70.6243,272.927c2.4473-2.948,5.9019-4.881,9.694-5.427c3.7921-.545,7.6515.337,10.83,2.476s5.4498,5.382,6.3733,9.1.4335,7.646-1.3749,11.024l.0073.007Z" fill="#f8dedb"/><path d="M70.5877,294.256c0,0,21.6795,6.993,35.8403-6.84c0,0,7.482-1.648,11.362-4.506c0,0-27.7761-2.975-41.3613-15.656l-5.841,27.002Z" fill="#ddbcb6"/><path d="M47.0198,260.61L32.3991,226.542c-.6247-1.313-.7025-2.819-.2163-4.189.4861-1.369,1.4964-2.49,2.8086-3.114c1.3123-.625,2.8189-.703,4.1885-.217c1.3695.486,2.4899,1.497,3.1146,2.809l17.2094,32.814c.4232.805.6839,1.685.7671,2.59.0833.905-.0126,1.818-.2821,2.686s-.7074,1.674-1.2886,2.373c-.5811.699-1.2943,1.277-2.0987,1.7s-1.6843.684-2.5894.767-1.8178-.013-2.6859-.282c-.8681-.27-1.6746-.707-2.3735-1.289-.6988-.581-1.2764-1.294-1.6997-2.098-.0802-.153-.1604-.328-.2333-.482Z" fill="#ddbcb6"/><path d="M64.2654,292.12l-23.714-36.461l11.5653-6.563c0,0,8.0214,6.031,25.2089,12.069c16.0135,5.6,13.7383,22.737,7.9921,27.812-3.4733,2.917-7.484,5.127-11.8059,6.504-1.6974.517-3.5167.469-5.1843-.137s-3.0931-1.738-4.0621-3.224v0Z" fill="#f8dedb"/><path d="M38.787,254.485l.5906-23.05c-.0004-1.418.5492-2.781,1.5332-3.802.9839-1.021,2.3255-1.621,3.7426-1.673s2.7989.448,3.855,1.394c1.0561.947,1.704,2.265,1.8074,3.68l2.2898,22.941c.0919.905.0047,1.819-.2567,2.69s-.6918,1.683-1.2667,2.387c-.5749.705-1.283,1.29-2.0839,1.721-.8008.432-1.6788.701-2.5838.793-1.8276.185-3.6541-.363-5.0777-1.524s-2.3277-2.84-2.5134-4.667c-.0275-.296-.0397-.593-.0364-.89v0Z" fill="#f8dedb"/><g mask="url(#eC6Sh1D75QY126)"><g><path d="M55.1285,308.243c0,0-7.5765-6.658-2.8439-13.491l3.9013-4.718c0,0-7.0078-5.359-12.5133-2.355-14.504,7.919-43.745385,57.462-43.672464,78.667.072921,21.206,16.626064,27.936,29.350764,27.579c21.5992-.532,45.0288-26.252,45.0288-26.252s13.3664-2.333,22.4159-9.115c18.1354-13.585-10.0485-50.425-10.0485-50.425l-5.9576,10.858c0,0-14.3436-2.195-25.661-10.748Z" fill="#32342c"/><g style="mix-blend-mode:multiply" opacity="0.3"><path d="M79.8417,368.891l-5.4618-1.218c0,0-31.2468-.86-43.7528,6.097-12.5059,6.956-1.8376,13.053,13.3957,4.834c15.2332-8.218,35.8189-9.713,35.8189-9.713Z" fill="#32342c"/></g><g style="mix-blend-mode:multiply" opacity="0.3"><path d="M47.3987,297.392c0,0-7.4598-2.377-10.5954,7.474-3.1356,9.852,6.8035,19.317,6.8035,19.317s14.8759,15.051,38.9035,18.456c24.0277,3.406,11.558-12.746,10.661-16.531-2.0782-8.947,4.7545-14.949,4.7545-14.949L61.3923,282.983L47.3987,297.392Z" fill="#32342c"/></g></g><mask id="eC6Sh1D75QY126" mask-type="alpha" x="-150%" y="-150%" height="400%" width="400%"><path d="M55.1285,308.243c0,0-7.5765-6.658-2.8439-13.491l3.9013-4.718c0,0-7.0078-5.359-12.5133-2.355-14.504,7.919-43.745385,57.462-43.672464,78.667.072921,21.206,16.626064,27.936,29.350764,27.579c21.5992-.532,45.0288-26.252,45.0288-26.252s13.3664-2.333,22.4159-9.115c18.1354-13.585-10.0485-50.425-10.0485-50.425l-5.9576,10.858c0,0-14.3436-2.195-25.661-10.748Z" transform="translate(.000001 0)" fill="#32342c"/></mask></g><g mask="url(#eC6Sh1D75QY135)"><g><path d="M71.2661,335.588c-15.7218.583-35.8408-12.316-31.553-24.903.6568-1.768,1.4215-3.495,2.2897-5.17c6.2202-10.252,4.594-8.065,11.1861-18.777.9699-1.582,3.2158-1.801,3.2231-.153.1021,12.754,23.765,25.362,35.3887,21.709c1.5021-.467,2.2897,1.677,1.3198,3.274-6.5629,10.807-6.1035,11.806-13.1258,21.708-1.4657,2.115-7.1754,2.268-8.7286,2.312Z" fill="#fff"/><path d="M49.7398,295.116c2.6907,13.177,23.6702,24.597,37.4887,23.277.5374-.021,1.0632-.163,1.5381-.415.4748-.253.8863-.609,1.2038-1.043.2041-.365.4083-.73.6198-1.072.2115-.343.4011-.73.6125-1.065.8678-1.459,0-3.406-1.5021-2.975-11.3903,3.347-35.272-9.422-35.5199-21.804c0-1.597-2.0491-1.553-2.9169-.102l-.6271,1.036-.6344,1.042c-.4474.979-.5402,2.082-.2625,3.121v0Z" fill="#6b8a84"/><path d="M93.3755,309.147c-1.2251-3.056-4.3753-5.943-4.3753-5.943l-2.9533,5.695c-11.1424-.584-26.3756-9.48-29.1685-19.288l2.8366-3.449c-3.2085-1.225-4.9367-.627-4.9367-.627-.6619.183-1.2298.611-1.5897,1.196-.2334.372-.4667.729-.7292,1.13l-.6855,1.152c-.4793,1.012-.5626,2.167-.2333,3.238c3.1793,13.366,23.4441,24.421,37.3502,23.145.5558-.025,1.0987-.175,1.5886-.439s.9139-.635,1.2407-1.085l.6855-1.152.6855-1.138c.2306-.357.3761-.762.4254-1.184.0493-.423.0011-.851-.141-1.251v0Z" fill="#255c51"/><g style="mix-blend-mode:multiply"><path d="M35.5491,326.735c0,0,36.2126-1.269,44.4819-21.679c8.2692-20.411,19.6887,4.098,19.6887,4.098L82.5249,342.639c0,0-33.3104,3.931-46.9758-15.904Z" fill="#dcdddd"/></g></g><mask id="eC6Sh1D75QY135" mask-type="alpha" x="-150%" y="-150%" height="400%" width="400%"><path d="M71.2661,335.588c-15.7218.583-35.8408-12.316-31.553-24.903.6568-1.768,1.4215-3.495,2.2897-5.17c6.2202-10.252,4.594-8.065,11.1861-18.777.9699-1.582,3.2158-1.801,3.2231-.153.1021,12.754,23.765,25.362,35.3887,21.709c1.5021-.467,2.2897,1.677,1.3198,3.274-6.5629,10.807-6.1035,11.806-13.1258,21.708-1.4657,2.115-7.1754,2.268-8.7286,2.312Z" fill="#fff"/></mask></g></g></g></svg>
