<svg width="571" height="168" viewBox="0 0 571 168" fill="none" xmlns="http://www.w3.org/2000/svg">
<path d="M336.587 9.89544L440.23 2.1658C448.376 1.54969 456.461 3.97856 462.918 8.98197C469.376 13.9854 473.747 21.2073 475.185 29.2489C476.623 37.2905 475.025 45.5797 470.701 52.5108C466.378 59.4419 459.635 64.5218 451.781 66.7667L351.879 95.4174C346.366 96.9975 340.596 97.4763 334.899 96.8265C329.201 96.1768 323.688 94.4112 318.672 91.6305C308.544 86.0147 301.061 76.6053 297.87 65.4723C294.679 54.3393 296.041 42.3946 301.657 32.266C307.272 22.1373 316.682 14.6543 327.815 11.4632C330.681 10.6566 333.619 10.1315 336.587 9.89544Z" fill="#DDBCB6"/>
<path d="M376.577 43.6435L492.325 15.897C510.015 11.653 532.781 24.6475 539.723 41.2298C543.369 50.0606 545.134 62.552 531.228 72.5495L404.345 125.979C399.09 128.367 393.412 129.688 387.642 129.866C381.871 130.043 376.123 129.073 370.731 127.012C365.338 124.951 360.409 121.84 356.228 117.859C352.047 113.878 348.698 109.107 346.375 103.822C344.052 98.5368 342.801 92.8432 342.695 87.0712C342.589 81.2992 343.631 75.5636 345.758 70.1971C347.886 64.8305 351.058 59.9398 355.09 55.8084C359.123 51.6771 363.935 48.3874 369.248 46.1301C371.617 45.0969 374.069 44.2651 376.577 43.6435Z" fill="#F8DEDB"/>
<mask id="mask0_52_44" style="mask-type:alpha" maskUnits="userSpaceOnUse" x="0" y="2" width="571" height="166">
<path d="M569.782 123.645C556.875 110.388 488.62 91.7055 488.62 91.7055C473.985 41.0326 452.014 37.1677 433.259 25.0847C417.479 14.9341 382.345 -0.685633 329.711 6.54085C303.102 10.1869 273.671 23.4731 261.58 42.7024C236.51 28.1182 203.542 -2.50866 165.324 3.71151C143.506 16.9905 118.385 12.2214 118.385 12.2214L71.7156 10.4786C71.7156 10.4786 70.5197 20.6876 74.3772 36.4021L0.836212 93.2514L2.85613 147.665L91.2584 105.313C93.6138 110.986 97.4859 120.983 102.517 125.081C117.189 137.011 186.668 145.711 200.458 145.623C211.36 145.543 236.466 146.484 273.379 140.606C281.685 145.448 307.616 144.858 322.302 145.813C414.963 151.865 374.63 170.985 455.179 167.077C489.561 165.823 582.689 136.895 569.782 123.645Z" fill="#1B1E17"/>
</mask>
<g mask="url(#mask0_52_44)">
<path d="M569.782 123.645C556.875 110.388 488.62 91.7055 488.62 91.7055C473.985 41.0326 452.014 37.1677 433.259 25.0847C417.479 14.9341 382.345 -0.685633 329.711 6.54085C303.102 10.1869 273.671 23.4731 261.58 42.7024C236.51 28.1182 203.542 -2.50866 165.324 3.71151C143.506 16.9905 118.385 12.2214 118.385 12.2214L71.7156 10.4786C71.7156 10.4786 70.5197 20.6876 74.3772 36.4021L0.836212 93.2514L2.85613 147.665L91.2584 105.313C93.6138 110.986 97.4859 120.983 102.517 125.081C117.189 137.011 186.668 145.711 200.458 145.623C211.36 145.543 236.466 146.484 273.379 140.606C281.685 145.448 307.616 144.858 322.302 145.813C414.963 151.865 374.63 170.985 455.179 167.077C489.561 165.823 582.689 136.895 569.782 123.645Z" fill="#1B1E17"/>
<path d="M367.863 117.381C334.523 57.2067 322.025 50.199 303.379 42.8194C284.733 35.4398 271.753 48.602 269.9 50.8407C268.048 53.0794 289.509 63.055 302.89 91.6401C313.712 114.749 273.364 140.599 273.364 140.599L271.082 147.738L272.839 148.125L275.435 141.875C306.675 139.141 311.167 117.585 333.685 127.838C345.352 133.132 384.153 156.35 384.153 156.35L388.39 163.234L444.313 177.57L549.203 163.621L551.055 141.628C551.055 141.628 398.636 172.94 367.863 117.381Z" fill="#32342C"/>
<path d="M320.311 4.05431C320.311 4.05431 382.396 2.01981 418.244 27.287C418.244 27.287 454.901 38.7721 464.571 62.8361C474.24 86.9001 475.458 96.0663 475.458 96.0663C475.458 96.0663 546.14 116.936 563.415 135.043" stroke="#677F49" stroke-width="6" stroke-linecap="round" stroke-linejoin="round"/>
</g>
<path d="M103.254 120.984C102.55 119.616 101.701 118.328 100.724 117.141C98.6964 114.705 96.4432 112.036 94.3504 112.816C95.364 112.379 95.8088 111.241 95.94 109.9C96.0351 108.441 96.0083 106.978 95.8598 105.524C95.5317 101.543 94.3285 97.7655 92.1044 97.7582C94.3285 97.6561 95.3421 93.7257 95.3931 89.7369C95.4442 85.7481 94.4451 81.7156 92.2065 81.6354C94.4379 81.6354 95.6702 77.6757 95.7577 73.614C95.8294 71.6573 95.5832 69.7019 95.0285 67.8241C94.9153 67.207 94.7619 66.5981 94.5691 66.0011C94.2364 65.5873 93.8599 65.2107 93.4461 64.8781C93.2821 64.701 93.0749 64.5696 92.8448 64.4967C92.6147 64.4239 92.3696 64.412 92.1335 64.4624C95.4806 61.9758 89.5448 48.0989 85.5706 49.7251C89.6688 47.9604 83.4268 33.0261 79.2921 34.7543C77.3213 35.5909 75.7609 37.1724 74.9508 39.1543C74.1407 41.1361 74.1465 43.3578 74.9669 45.3354C75.7874 47.313 77.3561 48.8863 79.3312 49.7126C81.3064 50.5389 83.5281 50.5512 85.5123 49.7469C83.6846 50.6117 82.2468 52.1293 81.4818 54.0009C80.7167 55.8725 80.6799 57.9627 81.3785 59.8602C82.0771 61.7576 83.4606 63.3248 85.2567 64.2535C87.0528 65.1821 89.1314 65.405 91.0835 64.8781C90.3622 65.2906 89.6875 65.7796 89.0709 66.3365C88.6771 66.6646 88.3416 66.9709 87.9479 67.2334C87.5733 67.4872 87.1781 67.7092 86.7665 67.897C86.4019 67.9408 86.0373 68.5314 85.7675 68.896C85.4826 69.3243 85.2384 69.7784 85.0383 70.2524C84.4997 71.4638 84.2664 72.7888 84.3587 74.1113C84.451 75.4338 84.8662 76.7136 85.5678 77.8384C86.2695 78.9632 87.2363 79.8989 88.3835 80.5634C89.5307 81.2279 90.8233 81.6009 92.1481 81.6499C91.0771 81.6217 90.0113 81.8083 89.0135 82.1988C88.0158 82.5892 87.1064 83.1756 86.339 83.9232C85.5716 84.6709 84.9618 85.5648 84.5455 86.552C84.1292 87.5392 83.915 88.5999 83.9153 89.6713C83.8954 90.7435 84.0923 91.8086 84.4942 92.8029C84.896 93.7971 85.4946 94.6999 86.2539 95.4572C87.0132 96.2144 87.9176 96.8105 88.9129 97.2097C89.9082 97.6089 90.9739 97.8029 92.046 97.7801C90.9766 97.8124 89.9249 98.0614 88.9546 98.5121C87.9843 98.9628 87.1155 99.6058 86.401 100.402C85.6865 101.198 85.1411 102.132 84.7978 103.145C84.4545 104.158 84.3205 105.231 84.4039 106.297C84.4632 107.561 84.8329 108.791 85.4802 109.879C86.1275 110.966 87.0326 111.877 88.1156 112.532C89.0502 113.064 90.0968 113.369 91.1709 113.422C92.2451 113.475 93.3167 113.275 94.2993 112.838C93.2948 113.221 92.3941 113.834 91.6697 114.628C90.9452 115.422 90.4172 116.375 90.1282 117.41C89.8393 118.599 89.8333 119.84 90.1107 121.031C90.388 122.223 90.941 123.333 91.7252 124.272C92.5231 125.283 93.5372 126.103 94.6931 126.671C95.7461 127.16 96.8941 127.409 98.0547 127.401C99.1337 127.35 100.186 127.047 101.126 126.515C102.066 125.983 102.867 125.237 103.465 124.338C104.1 123.412 103.888 122.172 103.254 120.984Z" fill="#677F49"/>
<mask id="mask1_52_44" style="mask-type:alpha" maskUnits="userSpaceOnUse" x="78" y="3" width="182" height="141">
<path d="M188.907 3.17203L78.198 34.9803L91.2582 66.1832C91.1853 79.7466 90.2081 92.3328 91.2582 105.313C91.7115 109.347 93.011 113.241 95.0718 116.739C97.1325 120.238 99.9081 123.262 103.217 125.614C115.461 134.262 158.71 143.297 182.432 143.195C182.476 143.195 182.519 143.178 182.55 143.146C182.582 143.115 182.599 143.072 182.599 143.028L183.081 74.7588C183.115 67.7697 185.313 60.9628 189.374 55.2742C197.169 44.3725 211.301 27.6444 226.075 25.1505C234.825 23.6921 259.356 41.3317 259.356 41.3317C259.356 41.3317 222.217 10.0047 188.907 3.17203Z" fill="#CFD1D1"/>
</mask>
<g mask="url(#mask1_52_44)">
<path d="M188.907 3.17203L78.198 34.9803L91.2582 66.1832C91.1853 79.7466 90.2081 92.3328 91.2582 105.313C91.7115 109.347 93.011 113.241 95.0718 116.739C97.1325 120.238 99.9081 123.262 103.217 125.614C115.461 134.262 158.71 143.297 182.432 143.195C182.476 143.195 182.519 143.178 182.55 143.146C182.582 143.115 182.599 143.072 182.599 143.028L183.081 74.7588C183.115 67.7697 185.313 60.9628 189.374 55.2742C197.169 44.3725 211.301 27.6444 226.075 25.1505C234.825 23.6921 259.356 41.3317 259.356 41.3317C259.356 41.3317 222.217 10.0047 188.907 3.17203Z" fill="#CFD1D1"/>
<path d="M82.1794 35.4542L93.5916 65.8915C93.5916 65.8915 91.404 99.4352 94.6636 109.87C97.1429 117.892 102.393 124.681 108.118 129.996" stroke="#677F49" stroke-width="3" stroke-linecap="round" stroke-linejoin="round"/>
<path d="M85.4612 35.2209L97.4567 65.7457C97.4567 65.7457 95.1889 100.274 98.7547 111.409C101.132 118.818 108.118 128.64 114.797 133.767" stroke="#677F49" stroke-width="3" stroke-linecap="round" stroke-linejoin="round"/>
<path d="M241.913 26.281C241.913 26.281 230.931 20.6004 224.463 20.3015C217.995 20.0025 182.767 42.6007 179.099 71.8057C177.568 82.2042 183.795 121.465 183.795 121.465" stroke="#677F49" stroke-width="3" stroke-linecap="round" stroke-linejoin="round"/>
<path d="M239.288 21.8545C239.288 21.8545 228.284 16.8666 221.787 16.5312C212.307 16.0426 175.409 44.4454 173.834 72.0315C174.067 84.0781 181.374 131.44 181.374 131.44" stroke="#677F49" stroke-width="3" stroke-linecap="round" stroke-linejoin="round"/>
</g>
<path d="M133.706 51.7084C133.706 51.7084 102.349 53.3054 94.5031 49.5208C92.2543 48.4936 90.2621 46.9794 88.6705 45.0876C87.0789 43.1959 85.9278 40.9739 85.3005 38.5826L124.926 30.605L133.706 51.7084Z" fill="#AEBAB8"/>
<path d="M101.03 29.6351L126.552 45.8674C126.552 45.8674 139.583 49.951 149.202 38.9326C158.82 27.9142 153.759 13.4101 153.759 13.4101L135.193 0.707275L101.03 29.6351Z" fill="#CDACA3"/>
<path d="M87.437 38.7722C87.437 38.7722 84.9869 52.0657 113.04 47.3769C141.092 42.688 158.513 16.4145 158.513 16.4145L175.621 6.98584C175.621 6.98584 178.574 13.2935 169.998 29.3945C161.321 45.6924 142.004 62.2528 132.393 63.755C127.237 64.5644 84.9285 56.6087 85.3004 38.6045L87.437 38.7722Z" fill="#DDDDDD"/>
<path d="M135.236 58.8669C136.218 56.5011 134.007 53.3359 130.298 51.7974C126.589 50.2589 122.787 50.9296 121.806 53.2955C120.824 55.6614 123.035 58.8266 126.744 60.3651C130.453 61.9036 134.255 61.2328 135.236 58.8669Z" fill="#32342C"/>
<path d="M136.665 82.7438C138.912 79.7877 138.589 75.7613 135.944 73.7507C133.299 71.74 129.333 72.5065 127.086 75.4626C124.839 78.4187 125.162 82.445 127.807 84.4557C130.452 86.4663 134.418 85.6999 136.665 82.7438Z" fill="#32342C"/>
<path d="M136.732 132.841C139.029 135.634 138.591 138.332 136.097 138.448C133.689 138.482 131.295 138.066 129.039 137.223C125.641 135.998 125.48 134.241 127.908 131.813C130.337 129.384 134.442 130.041 136.732 132.841Z" fill="#32342C"/>
<path d="M134.315 110.126C134.636 106.426 132.213 103.195 128.903 102.907C125.593 102.62 122.649 105.386 122.328 109.085C122.007 112.785 124.43 116.016 127.74 116.304C131.05 116.591 133.994 113.825 134.315 110.126Z" fill="#32342C"/>
<path d="M151.732 55.7118C151.926 55.5727 152.096 55.4027 152.235 55.2087C154.197 52.3283 153.19 49.1854 148.968 46.9832C146.051 45.4445 142.5 45.6268 140.422 47.7124C141.625 44.2413 140.254 40.8286 137.942 38.4076C135.026 35.3814 131.817 36.22 129.921 40.2525C129.887 40.35 129.86 40.4499 129.841 40.5515C129.8 40.548 129.758 40.548 129.717 40.5515C129.431 40.5964 129.174 40.7529 129.003 40.9866C128.833 41.2204 128.761 41.5123 128.805 41.7985C128.856 42.1558 130.264 49.8198 143.674 54.9681C144.675 55.4357 145.72 55.7998 146.795 56.0546L146.97 56.1129C144.972 64.9291 132.036 124.316 143.28 138.82C143.385 138.959 143.523 139.07 143.68 139.143C143.838 139.217 144.011 139.251 144.184 139.243C144.228 139.243 144.257 139.243 144.301 139.199C145.453 140.957 146.671 142.32 147.546 142.678C149.212 142.064 150.61 140.886 151.495 139.347C152.38 137.809 152.698 136.008 152.391 134.26C152.085 132.511 151.174 130.926 149.818 129.78C148.462 128.635 146.747 128.002 144.972 127.991C146.272 127.217 147.309 126.069 147.948 124.698C148.588 123.326 148.8 121.794 148.558 120.3C148.316 118.807 147.63 117.42 146.59 116.321C145.55 115.222 144.204 114.461 142.726 114.136C144.43 113.914 146.008 113.118 147.201 111.881C148.393 110.643 149.13 109.037 149.289 107.325C149.683 103.147 146.212 99.1364 141.997 99.1802L141.931 99.2968C141.931 99.202 141.931 99.1073 141.931 99.0125C141.931 99.0635 141.931 99.1218 141.931 99.1802C143.888 99.4392 145.868 98.9247 147.451 97.7461C149.034 96.5675 150.094 94.8178 150.407 92.8692C150.719 90.9207 150.259 88.9271 149.124 87.3125C147.99 85.6979 146.27 84.5899 144.33 84.224C146.131 84.4235 147.943 83.9692 149.437 82.9441C150.931 81.919 152.006 80.3912 152.467 78.6394C152.929 76.8875 152.745 75.0282 151.95 73.4003C151.155 71.7724 149.802 70.4844 148.137 69.771C149.759 69.6924 151.313 69.0952 152.57 68.0672C153.827 67.0392 154.722 65.6348 155.121 64.0606C155.52 62.4864 155.403 60.8256 154.788 59.3227C154.173 57.8198 153.091 56.5541 151.703 55.7118H151.732ZM140.961 113.918V113.881V113.918ZM143.878 84.2678C143.882 84.2338 143.882 84.1996 143.878 84.1657H143.922L143.878 84.2678Z" fill="#677F49"/>
</svg>
