<svg xmlns="http://www.w3.org/2000/svg" xmlns:xlink="http://www.w3.org/1999/xlink" viewBox="0 0 892.42 1275.71"><defs><style>.f62b7947-0475-4bf1-a0d2-5ad286b7159a{fill:none;}.bbce1395-df7d-443e-b07a-c7b89eb54d02{clip-path:url(#a87fb737-e4e1-40da-a61d-42c09efdde1a);}.ed3f517b-2d48-4362-99f8-8819b4c9df98{fill:#4b3631;}.b542edb4-2ca8-48e1-89c5-b8b2fd86c850{fill:#332f2e;}.b5262257-6768-436b-bee4-b4dca0b64422{fill:#5f4946;}.b03b1dd6-4090-48f2-8bf1-5e24e3dc6d93{fill:#4f2c29;}.adacd83d-64f4-4cb7-8bf6-b901431f27f6{fill:#5d3936;}.b1b4251b-f6ea-4f76-9681-f9a22d99233a{fill:#944723;}.ec7562c7-6a5e-4593-a9ee-aac5024518a5{clip-path:url(#e00f6506-cdfb-45be-98cf-5e20b82a0b86);}.a1403926-557a-4e00-bbd5-9f0a6ce0c309{fill:#76301d;}.fcab336c-12d6-45f1-a592-57f064411769{fill:#c79340;}.e9f45ac1-6601-4fbf-a90a-b34e58acb27e{fill:#254241;}.e13561c0-55e9-43e8-86d1-d2e827d1ef80{fill:#a8a7a6;}.f2e1528a-3f91-4d7b-aa6d-e4a2e81d0857{fill:#889571;}.fdfd13d1-9694-427c-a5da-8f633abcad0e{fill:#292b39;}.f817d2ad-48b6-49f5-8a2a-36abf62961d4{fill:#a5a68b;}.ab18f851-623e-4174-968a-6f8194c8c33b{fill:#2f4059;}.a0a05f56-f6e7-42e9-8c4c-50eb7e43c8f9{clip-path:url(#b5350ecc-e8fb-4173-bac6-7a4c0c623756);}.ea10d1dd-aa4e-4c33-9ac2-af016aca2f63{fill:#bda685;}.aa8045f3-b8b6-45c4-aaaa-c0e2f59a033e{fill:#8f4c34;}.bb754a2c-ff51-4678-9f6b-9b931eeb1ba0{fill:#381325;}.e073b757-1757-4602-8fe8-339d89d5d18e{fill:#063836;}.a8d31e29-0004-4871-82f5-cfab53aebd31{fill:#374c51;}.bf50dc2f-460b-4f8f-9de1-a8ab209270a8{fill:#497e61;}</style><clipPath id="a87fb737-e4e1-40da-a61d-42c09efdde1a"><rect class="f62b7947-0475-4bf1-a0d2-5ad286b7159a" width="892.42" height="1275.71"/></clipPath><clipPath id="e00f6506-cdfb-45be-98cf-5e20b82a0b86"><polygon class="f62b7947-0475-4bf1-a0d2-5ad286b7159a" points="230.35 1051.41 -84.8 1172.35 -84.8 855.03 230.35 734.08 230.35 1051.41"/></clipPath><clipPath id="b5350ecc-e8fb-4173-bac6-7a4c0c623756"><polygon class="f62b7947-0475-4bf1-a0d2-5ad286b7159a" points="230.35 665.29 -84.8 786.24 -84.8 468.91 230.35 347.97 230.35 665.29"/></clipPath></defs><title>myGbg</title><g id="a759d259-7983-4eb7-9785-1cedcf7c656b" data-name="圖層 1"><g class="bbce1395-df7d-443e-b07a-c7b89eb54d02"><path class="ed3f517b-2d48-4362-99f8-8819b4c9df98" d="M493.66,1013.46c2.35-19.81,20.85-35.58,41.72-35.59a138.44,138.44,0,0,0,14.77-.83c32.81-3.6,39.9-63.19,39.9-63.19s7.53-73.06,20.32-123.43c4.6-18.11,22.43-31.34,41.7-30.95L824.67,763c22.47.46,38.07,19.08,33.79,40.34-14.09,70-34,189.46,28.43,198.83q3.72.54,7.16.92c21.89,2.39,35.45,22.05,29.6,42.83L878,1208.17c-5.16,18.32-23.77,31.22-43.23,30l-328.3-21.41c-20.47-1.33-34.79-17.85-32.46-37.44Z"/><path class="b542edb4-2ca8-48e1-89c5-b8b2fd86c850" d="M797.19,948.39s-22.06,52.93,50.41,58.12c64.53,4.62-64,228.28-64,228.28l-237.2-31.16,2.2-193.58s75.64-20.35,70.67-63.82Z"/><path class="b5262257-6768-436b-bee4-b4dca0b64422" d="M844.88,1227.37a9.88,9.88,0,0,1-3.81-.76,10,10,0,0,1-5.44-13c26.79-65,27.45-67.13,44.46-121.09l3.36-10.67c10.56-33.46,11.69-57.26,11.7-57.5a10,10,0,0,1,20,.82c0,1.07-1.18,26.5-12.61,62.69l-3.36,10.67c-17.25,54.74-17.92,56.88-45,122.69A10,10,0,0,1,844.88,1227.37Z"/><path class="b03b1dd6-4090-48f2-8bf1-5e24e3dc6d93" d="M779.92,976l-220.56-3.66c-15.52-.26-25.76-11.59-24.35-27l9.43-103.57c1.82-20,22.19-38.21,42.39-37.88l220.57,3.67c15.52.26,25.75,11.58,24.35,27l-9.43,103.57C820.5,958.15,800.13,976.35,779.92,976Z"/><path class="adacd83d-64f4-4cb7-8bf6-b901431f27f6" d="M786.27,969s-17.39-1.07-15.12-21.11S780.13,846,782,831.26s15-22.51,26.72-19.32,17.79,10.12,17.85,20.76-9.89,109.19-9.89,109.19S808,966.75,786.27,969Z"/><polygon class="b1b4251b-f6ea-4f76-9681-f9a22d99233a" points="0 1142.89 187.45 1129.9 892.42 1224.81 892.42 1275.71 0 1275.71 0 1142.89"/><polygon class="b1b4251b-f6ea-4f76-9681-f9a22d99233a" points="284.38 1142.89 -40.26 1267.05 -40.26 -22.47 284.38 -146.63 284.38 1142.89"/><g class="ec7562c7-6a5e-4593-a9ee-aac5024518a5"><polygon class="a1403926-557a-4e00-bbd5-9f0a6ce0c309" points="230.35 1051.41 -84.8 1172.35 -84.8 855.03 230.35 734.08 230.35 1051.41"/><polygon class="fcab336c-12d6-45f1-a592-57f064411769" points="-84.39 1172.22 -400.42 1131.87 -84.8 1012.44 231.22 1052.79 -84.39 1172.22"/><polygon class="e9f45ac1-6601-4fbf-a90a-b34e58acb27e" points="159.04 816.6 -156.98 776.25 -121 762.59 195.03 802.94 159.04 816.6"/><polygon class="e13561c0-55e9-43e8-86d1-d2e827d1ef80" points="157.84 820.57 -158.19 780.22 -122.2 766.55 193.82 806.91 157.84 820.57"/><polygon class="e9f45ac1-6601-4fbf-a90a-b34e58acb27e" points="159.39 837.79 -150.31 793.14 -149.14 774.46 166.89 814.81 159.39 837.79"/><polygon class="f2e1528a-3f91-4d7b-aa6d-e4a2e81d0857" points="113.07 809.5 -202.96 769.15 -166.97 755.49 149.05 795.84 113.07 809.5"/><polygon class="e13561c0-55e9-43e8-86d1-d2e827d1ef80" points="97.75 815.31 -218.28 774.96 -173.18 759.46 142.85 799.81 97.75 815.31"/><polygon class="f2e1528a-3f91-4d7b-aa6d-e4a2e81d0857" points="106.48 933.04 -211.05 888.82 -210.06 775.9 105.97 816.25 106.48 933.04"/><polygon class="fdfd13d1-9694-427c-a5da-8f633abcad0e" points="48.81 834.45 -267.21 794.09 -231.22 780.43 84.8 820.78 48.81 834.45"/><polygon class="e13561c0-55e9-43e8-86d1-d2e827d1ef80" points="33.5 840.26 -282.53 799.91 -237.43 784.4 78.59 824.75 33.5 840.26"/><polygon class="fdfd13d1-9694-427c-a5da-8f633abcad0e" points="42.23 957.98 -275.3 913.76 -274.31 800.84 41.71 841.19 42.23 957.98"/><polygon class="e9f45ac1-6601-4fbf-a90a-b34e58acb27e" points="-10.96 883.6 -326.98 843.25 -291 829.59 19.22 869.2 -10.96 883.6"/><polygon class="e13561c0-55e9-43e8-86d1-d2e827d1ef80" points="-12.16 887.57 -328.19 847.22 -292.2 833.55 23.82 873.91 -12.16 887.57"/><path class="e9f45ac1-6601-4fbf-a90a-b34e58acb27e" d="M78.57,1108.14l-40.75,15.64c-6.37,2.45-11.53-3-11.53-11.86V857.17c0-8.87,5.16-18.27,11.53-20.71l40.75-15.64c6.37-2.45,11.53,3,11.53,11.86v254.76C90.1,1096.3,84.94,1105.7,78.57,1108.14Z"/><path class="f817d2ad-48b6-49f5-8a2a-36abf62961d4" d="M142.38,1083.66l-40.75,15.64c-6.37,2.44-11.53-3-11.53-11.86V832.68c0-8.87,5.16-18.27,11.53-20.71l40.75-15.64c6.37-2.44,11.53,3,11.53,11.86V1063C153.91,1071.82,148.75,1081.21,142.38,1083.66Z"/><path class="ab18f851-623e-4174-968a-6f8194c8c33b" d="M15.83,1132.22l-26.12,10c-5.77,2.22-10.45-2.71-10.45-10.77V897.86c0-7.75,4.68-16,10.45-18.21l26.12-10c5.78-2.22,10.46,2.43,10.46,10.18v233.61C26.29,1121.48,21.61,1130,15.83,1132.22Z"/><path class="ab18f851-623e-4174-968a-6f8194c8c33b" d="M189.9,1065.42l-26.12,10c-5.77,2.22-10.46-2.71-10.46-10.77V831.06c0-7.75,4.69-16,10.46-18.21l26.12-10c5.77-2.22,10.45,2.43,10.45,10.18v233.61C200.35,1054.68,195.67,1063.21,189.9,1065.42Z"/></g><g class="a0a05f56-f6e7-42e9-8c4c-50eb7e43c8f9"><polygon class="a1403926-557a-4e00-bbd5-9f0a6ce0c309" points="230.35 665.29 -84.8 786.24 -84.8 468.91 230.35 347.97 230.35 665.29"/><polygon class="fcab336c-12d6-45f1-a592-57f064411769" points="-84.39 786.17 -400.42 745.82 -84.8 626.39 231.22 666.74 -84.39 786.17"/><polygon class="fdfd13d1-9694-427c-a5da-8f633abcad0e" points="167.68 425.44 -148.34 385.09 -112.36 371.43 203.67 411.78 167.68 425.44"/><polygon class="e13561c0-55e9-43e8-86d1-d2e827d1ef80" points="152.36 431.26 -163.66 390.91 -118.56 375.4 197.46 415.75 152.36 431.26"/><polygon class="fdfd13d1-9694-427c-a5da-8f633abcad0e" points="161.09 548.98 -156.44 504.76 -155.44 391.84 160.58 432.19 161.09 548.98"/><polygon class="f2e1528a-3f91-4d7b-aa6d-e4a2e81d0857" points="109.52 473.11 -206.51 432.75 -170.52 419.09 139.69 458.7 109.52 473.11"/><polygon class="e13561c0-55e9-43e8-86d1-d2e827d1ef80" points="108.31 477.07 -207.71 436.72 -171.73 423.06 144.3 463.41 108.31 477.07"/><polygon class="f2e1528a-3f91-4d7b-aa6d-e4a2e81d0857" points="109.87 494.3 -199.83 449.65 -198.66 430.96 117.36 471.32 109.87 494.3"/><polygon class="e9f45ac1-6601-4fbf-a90a-b34e58acb27e" points="63.03 491.25 -253 450.89 -217.01 437.23 93.2 476.84 63.03 491.25"/><polygon class="e13561c0-55e9-43e8-86d1-d2e827d1ef80" points="61.82 495.21 -254.2 454.86 -218.22 441.2 97.81 481.55 61.82 495.21"/><polygon class="e9f45ac1-6601-4fbf-a90a-b34e58acb27e" points="63.38 512.44 -246.32 467.79 -245.15 449.11 70.87 489.46 63.38 512.44"/><polygon class="fdfd13d1-9694-427c-a5da-8f633abcad0e" points="15.97 510.39 -300.05 470.04 -264.07 456.37 46.15 495.98 15.97 510.39"/><polygon class="e13561c0-55e9-43e8-86d1-d2e827d1ef80" points="14.77 514.36 -301.26 474 -265.27 460.34 50.75 500.69 14.77 514.36"/><polygon class="fdfd13d1-9694-427c-a5da-8f633abcad0e" points="10.07 580.22 -298.37 525.78 -292.29 468.84 23.82 508.6 10.07 580.22"/><polygon class="e13561c0-55e9-43e8-86d1-d2e827d1ef80" points="-32.85 571.99 -348.88 531.64 -312.89 517.98 3.13 558.33 -32.85 571.99"/><path class="e9f45ac1-6601-4fbf-a90a-b34e58acb27e" d="M197.85,668.71l-40.68,15.61c-6.35,2.44-11.5-3-11.5-11.63V447.46c0-8.62,5.15-18,11.5-20.47l40.68-15.61c6.35-2.44,11.5,3,11.5,11.64V648.25C209.35,656.86,204.2,666.27,197.85,668.71Z"/><path class="ab18f851-623e-4174-968a-6f8194c8c33b" d="M-5.61,746.79l-26.07,10c-5.76,2.21-10.44-2.73-10.44-10.59V579.47c0-6.4,4.68-13.58,10.44-15.8l26.07-10c5.76-2.21,10.44,1.38,10.44,7.79V728.19C4.83,736,.15,744.58-5.61,746.79Z"/><path class="e9f45ac1-6601-4fbf-a90a-b34e58acb27e" d="M41.34,728.77l-26.07,10C9.5,741,4.83,736,4.83,728.19V523.06c0-7.24,4.67-15.21,10.44-17.42l26.07-10c5.76-2.22,10.43,2.17,10.43,9.4V710.17C51.77,718,47.1,726.56,41.34,728.77Z"/><path class="ab18f851-623e-4174-968a-6f8194c8c33b" d="M88.28,710.76l-26.07,10C56.45,723,51.77,718,51.77,710.17V505c0-7.23,4.68-15.2,10.44-17.42l26.07-10c5.77-2.21,10.44,2.17,10.44,9.41V692.15C98.72,700,94.05,708.54,88.28,710.76Z"/><path class="f817d2ad-48b6-49f5-8a2a-36abf62961d4" d="M135.23,692.74l-26.07,10C103.4,705,98.72,700,98.72,692.15V487c0-7.24,4.68-15.21,10.44-17.42l26.07-10c5.76-2.21,10.44,2.18,10.44,9.41V674.14C145.67,682,141,690.53,135.23,692.74Z"/></g><polygon class="a1403926-557a-4e00-bbd5-9f0a6ce0c309" points="230.35 279.18 -84.8 400.12 -84.8 82.8 230.35 -38.15 230.35 279.18"/><polygon class="fcab336c-12d6-45f1-a592-57f064411769" points="-84.6 400.12 -400.62 359.77 -85.01 240.34 231.01 280.69 -84.6 400.12"/><path class="ea10d1dd-aa4e-4c33-9ac2-af016aca2f63" d="M164.82,138.17V283.84c0,13.61-41.69,24.64-93.13,24.64s-93.12-11-93.12-24.64V138.17Z"/><path class="aa8045f3-b8b6-45c4-aaaa-c0e2f59a033e" d="M149.06,278.72C36.46,280.17,21.27,153.3,21.27,153.3l-11,2.51C40.16,295.71,149.06,278.72,149.06,278.72Z"/><path class="aa8045f3-b8b6-45c4-aaaa-c0e2f59a033e" d="M128,289.69C60.87,289.69,6.48,225.3,6.48,145.87a170.6,170.6,0,0,1,1.95-25.79C-9.93,124.59-21.43,131-21.43,138.17V283.84c0,13.61,41.69,24.64,93.12,24.64s93.13-11,93.13-24.64v-.91A104,104,0,0,1,128,289.69Z"/><ellipse class="bb754a2c-ff51-4678-9f6b-9b931eeb1ba0" cx="71.69" cy="138.17" rx="93.13" ry="24.64"/><path class="e073b757-1757-4602-8fe8-339d89d5d18e" d="M145.2,255.35c-6.2,22,3.59,44,21.88,49.2S205.23,296,211.43,274,191,222.46,191,222.46,151.4,233.34,145.2,255.35Z"/><path class="e073b757-1757-4602-8fe8-339d89d5d18e" d="M211.43,274c-6.2,22-26.06,35.69-44.35,30.54L191,222.46S217.64,252,211.43,274Z"/><path class="e073b757-1757-4602-8fe8-339d89d5d18e" d="M206.89,168.78c22.51-4,38-22.48,34.69-41.18S217.25,97,194.74,101.05,157.3,142,157.3,142,184.38,172.82,206.89,168.78Z"/><path class="e073b757-1757-4602-8fe8-339d89d5d18e" d="M194.74,101.05c22.51-4,43.48,7.85,46.84,26.55L157.3,142S172.22,105.09,194.74,101.05Z"/><path class="e073b757-1757-4602-8fe8-339d89d5d18e" d="M175.6,77.52c5.64-28.54-9.72-55.62-34.31-60.47S92.21,31.39,86.57,59.94s32.7,63.61,32.7,63.61S170,106.07,175.6,77.52Z"/><path class="e073b757-1757-4602-8fe8-339d89d5d18e" d="M86.57,59.94c5.64-28.55,30.14-47.75,54.72-42.89l-22,106.5S80.93,88.48,86.57,59.94Z"/><path class="e073b757-1757-4602-8fe8-339d89d5d18e" d="M186.62,217.64c2.8,16.54,16.21,28.07,29.95,25.74s22.62-17.62,19.82-34.17-29.75-27.76-29.75-27.76S183.82,201.09,186.62,217.64Z"/><path class="e073b757-1757-4602-8fe8-339d89d5d18e" d="M236.39,209.21c2.8,16.55-6.07,31.84-19.82,34.17l-9.93-61.93S233.59,192.67,236.39,209.21Z"/><path class="e073b757-1757-4602-8fe8-339d89d5d18e" d="M252.13,184.12c10.4,5.67,22.64,3.26,27.36-5.37s.1-20.24-10.3-25.91-28.38,4.37-28.38,4.37S241.73,178.44,252.13,184.12Z"/><path class="e073b757-1757-4602-8fe8-339d89d5d18e" d="M269.19,152.84c10.4,5.67,15,17.27,10.3,25.91l-38.68-21.54S258.8,147.17,269.19,152.84Z"/><path class="e073b757-1757-4602-8fe8-339d89d5d18e" d="M333.19,239.49c2.46-11.59-3.35-22.64-13-24.68s-19.41,5.7-21.87,17.28,12.32,26,12.32,26S330.73,251.07,333.19,239.49Z"/><path class="e073b757-1757-4602-8fe8-339d89d5d18e" d="M298.34,232.09c2.46-11.58,12.25-19.32,21.87-17.28L310.66,258S295.88,243.68,298.34,232.09Z"/><path class="e073b757-1757-4602-8fe8-339d89d5d18e" d="M277.7,372.08c11.76,1.35,22.21-5.48,23.33-15.25s-7.5-18.79-19.27-20.15S257.1,351.4,257.1,351.4,265.93,370.73,277.7,372.08Z"/><path class="e073b757-1757-4602-8fe8-339d89d5d18e" d="M281.76,336.68c11.77,1.36,20.4,10.37,19.27,20.15L257.1,351.4S270,335.33,281.76,336.68Z"/><path class="a8d31e29-0004-4871-82f5-cfab53aebd31" d="M277.05,356.73a23.63,23.63,0,0,1-4.71-.38c-.8-.11-1.57-.31-2.35-.49s-1.54-.42-2.31-.65c-.38-.12-.77-.22-1.14-.36l-1.12-.44a21.59,21.59,0,0,1-2.22-.92L261,352.44,259,351.23a50.89,50.89,0,0,1-14.1-13l-2.77-3.95c-.88-1.35-1.65-2.77-2.48-4.15a65.48,65.48,0,0,1-4.24-8.66c-1.23-3-2.24-6-3.19-9.15s-2-6.24-3-9.35q-6.24-18.63-13.78-36.81T198.88,230.5a334.46,334.46,0,0,0-20-34,201.12,201.12,0,0,0-25.09-30.7,129.89,129.89,0,0,0-15.29-12.94A92.6,92.6,0,0,0,120.86,143a72.28,72.28,0,0,0-19.79-5.16,69.58,69.58,0,0,0-20.52,1,3.43,3.43,0,1,0,1.33,6.74H82a63,63,0,0,1,18.47-1.22,66.34,66.34,0,0,1,18.1,4.39,87,87,0,0,1,16.62,9A123.69,123.69,0,0,1,150,169.75a196.51,196.51,0,0,1,24.95,29.48,327.1,327.1,0,0,1,20.32,33.18q9.24,17.19,17,35.14t14.34,36.36q1.64,4.6,3.17,9.24c1,3.11,2.11,6.26,3.42,9.3a67,67,0,0,0,4.53,8.84c.88,1.4,1.69,2.85,2.63,4.22l2.92,4a52.72,52.72,0,0,0,14.84,13.15l2.18,1.22,2.27,1.05a23.38,23.38,0,0,0,2.32.93l1.17.43c.39.13.8.24,1.2.36.8.22,1.59.48,2.41.63s1.63.36,2.46.46a24.11,24.11,0,0,0,5.05.32.68.68,0,0,0-.05-1.35Z"/><path class="a8d31e29-0004-4871-82f5-cfab53aebd31" d="M352.1,222.61,337.58,237l-7.26,7.21c-1.21,1.21-2.41,2.38-3.68,3.47a49,49,0,0,1-4,3.06,45.7,45.7,0,0,1-18.51,7.35,45.3,45.3,0,0,1-37.09-10.78,44.59,44.59,0,0,1-6.66-7.34l-5.95-8.31-23.81-33.3-23.81-33.3-11.9-16.65-3-4.16-1.49-2.08c-.52-.7-1.09-1.41-1.63-2.11s-1.07-1.42-1.66-2.09l-1.8-2a48,48,0,0,0-3.81-3.74c-.33-.3-.64-.62-1-.91l-1-.83-2.1-1.66c-.69-.56-1.46-1-2.19-1.53s-1.48-1-2.23-1.48l-2.33-1.32a24.31,24.31,0,0,0-2.36-1.26l-2.43-1.14c-.41-.18-.8-.39-1.22-.55l-1.26-.47a61,61,0,0,0-21-4.15c-.89,0-1.79,0-2.69.05s-1.79,0-2.68.11l-2.68.29a22,22,0,0,0-2.67.37,52.92,52.92,0,0,0-5.26,1.12l-2.6.71c-.88.23-1.65.51-2.48.76l-19.51,6.17a3.29,3.29,0,1,0,2,6.28l.06,0,19.4-6.51c.8-.26,1.64-.57,2.41-.78l2.32-.68a44.82,44.82,0,0,1,4.72-1.09,19.18,19.18,0,0,1,2.39-.38l2.41-.3c.8-.09,1.61-.09,2.42-.14s1.61-.09,2.42-.09a55.34,55.34,0,0,1,19,3.43l1.15.41c.38.13.74.32,1.11.48l2.23,1c.76.31,1.45.73,2.17,1.11l2.14,1.17c.7.42,1.37.88,2.05,1.31s1.39.86,2,1.36l1.94,1.49,1,.74c.32.25.61.54.91.81a45.05,45.05,0,0,1,3.55,3.36l1.68,1.77c.54.61,1,1.27,1.55,1.9s1,1.25,1.54,1.91l1.52,2.06,3,4.11,12.19,16.44,24.38,32.88L252,233.47l6.11,8.22a47.86,47.86,0,0,0,25.62,17.41,47.46,47.46,0,0,0,39.84-7,48.57,48.57,0,0,0,4.07-3.24c1.29-1.14,2.52-2.39,3.7-3.6l7.14-7.34,14.26-14.67a.44.44,0,1,0-.63-.62Z"/><path class="a8d31e29-0004-4871-82f5-cfab53aebd31" d="M258.5,181.55a94.63,94.63,0,0,0-4.94-8.67c-1.77-2.8-3.65-5.54-5.64-8.19a135.25,135.25,0,0,0-13-15.06,119.21,119.21,0,0,0-32.51-23.1,109.57,109.57,0,0,0-18.9-6.91l-4.9-1.21-5-.9c-.83-.14-1.66-.34-2.49-.42l-2.51-.3-2.51-.29c-.84-.09-1.67-.22-2.51-.24a137.12,137.12,0,0,0-40.09,3.28A3.29,3.29,0,1,0,125,126l.08,0h0a131.27,131.27,0,0,1,38.18-4.31c.81,0,1.61.1,2.41.16l2.4.2,2.4.21c.8.06,1.59.22,2.38.33l4.77.71,4.71,1a104.05,104.05,0,0,1,18.32,6.06,115.88,115.88,0,0,1,32.2,21.44,133.29,133.29,0,0,1,13.23,14.36c2,2.55,4,5.18,5.79,7.89a91.44,91.44,0,0,1,5.08,8.31l0,0a.87.87,0,0,0,1.54-.79Z"/><path class="a8d31e29-0004-4871-82f5-cfab53aebd31" d="M185.19,276.64a21.58,21.58,0,0,0,31.11,29.91c8.25-8.58.68-31.17.68-31.17S193.44,268.06,185.19,276.64Z"/><path class="bf50dc2f-460b-4f8f-9de1-a8ab209270a8" d="M216.3,306.55a21.56,21.56,0,0,1-30.49.58L217,275.38S224.55,298,216.3,306.55Z"/><path class="a8d31e29-0004-4871-82f5-cfab53aebd31" d="M221.75,355.09c2,12.34,12.12,21,22.6,19.26s17.34-13.09,15.33-25.43-22.43-20.76-22.43-20.76S219.74,342.75,221.75,355.09Z"/><path class="bf50dc2f-460b-4f8f-9de1-a8ab209270a8" d="M259.68,348.92c2,12.34-4.86,23.73-15.33,25.43l-7.1-46.19S257.67,336.59,259.68,348.92Z"/><path class="a8d31e29-0004-4871-82f5-cfab53aebd31" d="M237.59,320.27c7,2.28,14.22-.68,16.15-6.61s-2.15-12.58-9.14-14.86-16.89,6.1-16.89,6.1S230.61,318,237.59,320.27Z"/><path class="bf50dc2f-460b-4f8f-9de1-a8ab209270a8" d="M244.6,298.8c7,2.28,11.08,8.93,9.14,14.86l-26-8.76S237.62,296.51,244.6,298.8Z"/><path class="a8d31e29-0004-4871-82f5-cfab53aebd31" d="M369.2,233c8.88-7.8,10.81-20.11,4.33-27.48s-18.94-7-27.82.78-5.61,28.11-5.61,28.11S360.32,240.8,369.2,233Z"/><path class="bf50dc2f-460b-4f8f-9de1-a8ab209270a8" d="M345.71,206.29c8.88-7.81,21.33-8.16,27.82-.78L340.1,234.4S336.84,214.1,345.71,206.29Z"/><path class="a8d31e29-0004-4871-82f5-cfab53aebd31" d="M334.67,279.68c10.75,4.93,22.78,1.68,26.87-7.25s-1.31-20.16-12.05-25.08-28,6.33-28,6.33S323.93,274.76,334.67,279.68Z"/><path class="bf50dc2f-460b-4f8f-9de1-a8ab209270a8" d="M349.49,247.35c10.74,4.92,16.14,16.15,12.05,25.08l-40-18.75S338.74,242.43,349.49,247.35Z"/><path class="a8d31e29-0004-4871-82f5-cfab53aebd31" d="M235.34,267.64c5.19,16.82,20.72,26.95,34.69,22.64s21.09-21.43,15.9-38.25-34.75-24.77-34.75-24.77S230.15,250.82,235.34,267.64Z"/><path class="bf50dc2f-460b-4f8f-9de1-a8ab209270a8" d="M285.93,252C291.12,268.85,284,286,270,290.28l-18.85-63S280.74,235.22,285.93,252Z"/><path class="a8d31e29-0004-4871-82f5-cfab53aebd31" d="M259.12,230c17.49,1.91,33-8.32,34.55-22.85s-11.31-27.86-28.8-29.77-36.53,22.06-36.53,22.06S241.62,228.05,259.12,230Z"/><path class="bf50dc2f-460b-4f8f-9de1-a8ab209270a8" d="M264.87,177.34c17.49,1.91,30.39,15.24,28.8,29.77l-65.33-7.71S247.37,175.42,264.87,177.34Z"/><path class="a8d31e29-0004-4871-82f5-cfab53aebd31" d="M209.48,118.44c18.69-13.19,25-36.46,14-52s-35-17.42-53.67-4.24-16.61,52.93-16.61,52.93S190.79,131.62,209.48,118.44Z"/><path class="a8d31e29-0004-4871-82f5-cfab53aebd31" d="M169.81,62.21C188.5,49,212.53,50.93,223.48,66.45L153.2,115.14S151.12,75.4,169.81,62.21Z"/><path class="a8d31e29-0004-4871-82f5-cfab53aebd31" d="M242.9,160.14c13,1.41,24.42-6.17,25.6-16.94s-8.38-20.64-21.34-22.06-27.06,16.35-27.06,16.35S229.94,158.72,242.9,160.14Z"/><path class="bf50dc2f-460b-4f8f-9de1-a8ab209270a8" d="M247.16,121.14c13,1.42,22.52,11.3,21.34,22.06l-48.4-5.71S234.2,119.73,247.16,121.14Z"/><path class="a8d31e29-0004-4871-82f5-cfab53aebd31" d="M122.1,77.5c-7.47-23.18-27.63-37.43-45-31.83s-25.48,28.94-18,52.13,45.23,34.74,45.23,34.74S129.56,100.68,122.1,77.5Z"/><path class="bf50dc2f-460b-4f8f-9de1-a8ab209270a8" d="M59.05,97.8c-7.47-23.19.6-46.52,18-52.13l27.22,86.87S66.51,121,59.05,97.8Z"/><path class="e073b757-1757-4602-8fe8-339d89d5d18e" d="M53.54,79.78C28,74.42,3.77,87.24-.69,108.42s12.6,42.7,38.1,48.06,57-27.2,57-27.2S79,85.14,53.54,79.78Z"/><path class="e073b757-1757-4602-8fe8-339d89d5d18e" d="M37.41,156.48c-25.5-5.36-42.55-26.88-38.1-48.06l95.13,20.86S62.9,161.84,37.41,156.48Z"/><path class="e073b757-1757-4602-8fe8-339d89d5d18e" d="M15.26,140.72c-20.62,9.89-30.67,31.8-22.45,48.93s31.6,23,52.22,13.1,25.18-49.43,25.18-49.43S35.88,130.82,15.26,140.72Z"/><path class="e073b757-1757-4602-8fe8-339d89d5d18e" d="M45,202.75c-20.62,9.9-44,4-52.22-13.1l77.4-36.33S65.65,192.85,45,202.75Z"/><path class="e073b757-1757-4602-8fe8-339d89d5d18e" d="M7.35,307.57c-8.29,17.4-3.29,37.09,11.16,44s32.89-1.63,41.18-19-9.63-45.73-9.63-45.73S15.64,290.18,7.35,307.57Z"/><path class="e073b757-1757-4602-8fe8-339d89d5d18e" d="M59.69,332.51c-8.29,17.4-26.72,25.92-41.18,19l31.55-64.76S68,315.11,59.69,332.51Z"/><path class="e073b757-1757-4602-8fe8-339d89d5d18e" d="M87.5,344.39c18.78,4.36,36.93-4.76,40.55-20.35s-8.67-31.77-27.44-36.13S58,307.15,58,307.15,68.73,340,87.5,344.39Z"/><path class="e073b757-1757-4602-8fe8-339d89d5d18e" d="M100.61,287.91c18.77,4.36,31.06,20.53,27.44,36.13L58,307.15S81.84,283.55,100.61,287.91Z"/><path class="a8d31e29-0004-4871-82f5-cfab53aebd31" d="M139.36,406.53c-4.24-3.32-8.39-6.9-12.43-10.52s-8-7.38-11.88-11.22a315,315,0,0,1-22-24.11,245.43,245.43,0,0,1-19-26.43c-2.83-4.61-5.49-9.33-7.92-14.15a150.55,150.55,0,0,1-6.54-14.78,116.34,116.34,0,0,1-7.42-31.17A88.72,88.72,0,0,1,55,242.59,93.54,93.54,0,0,1,68.51,214a114.88,114.88,0,0,1,10-12.48,152,152,0,0,1,11.45-11.25l.07-.06a3.29,3.29,0,0,0-4.42-4.88l0,0a161.59,161.59,0,0,0-11.79,11.91,124.14,124.14,0,0,0-10.32,13.28,99.55,99.55,0,0,0-14,30.62A94,94,0,0,0,47,274.65,121.14,121.14,0,0,0,55.21,307a153.25,153.25,0,0,0,6.95,15.13c2.56,4.91,5.35,9.7,8.31,14.36a248.77,248.77,0,0,0,19.65,26.61,319,319,0,0,0,22.56,24.08q5.94,5.73,12.15,11.15c4.15,3.62,8.34,7.14,12.76,10.51a1.47,1.47,0,0,0,1.8-2.32Z"/><path class="a8d31e29-0004-4871-82f5-cfab53aebd31" d="M128.13,432c12.35,10.94,29.19,12.12,37.6,2.62s5.23-26.07-7.12-37-38.71-4.27-38.71-4.27S115.78,421,128.13,432Z"/><path class="bf50dc2f-460b-4f8f-9de1-a8ab209270a8" d="M158.61,397.58c12.35,10.94,15.54,27.51,7.12,37L119.9,393.31S146.26,386.63,158.61,397.58Z"/><path class="a8d31e29-0004-4871-82f5-cfab53aebd31" d="M36.3,208.65c-12.37,21-9.61,45.52,6.15,54.81s38.55-.2,50.91-21.19-4.1-56.89-4.1-56.89S48.66,187.67,36.3,208.65Z"/><path class="bf50dc2f-460b-4f8f-9de1-a8ab209270a8" d="M93.36,242.27c-12.36,21-35.16,30.47-50.91,21.19l46.81-78.08S105.73,221.29,93.36,242.27Z"/><path class="a8d31e29-0004-4871-82f5-cfab53aebd31" d="M38.56,361.46c-1.17,18.23,9,33.72,22.69,34.6S87,382.86,88.16,364.62s-22-36.69-22-36.69S39.72,343.22,38.56,361.46Z"/><path class="bf50dc2f-460b-4f8f-9de1-a8ab209270a8" d="M88.16,364.62C87,382.86,75,396.93,61.25,396.06l4.88-68.13S89.32,346.38,88.16,364.62Z"/><path class="a8d31e29-0004-4871-82f5-cfab53aebd31" d="M114.59,385.41c12.4,1,23.08-5.68,23.85-15s-8.65-17.7-21-18.73-25.27,14.52-25.27,14.52S102.19,384.38,114.59,385.41Z"/><path class="bf50dc2f-460b-4f8f-9de1-a8ab209270a8" d="M117.39,351.69c12.4,1,21.82,9.41,21,18.73l-46.32-4.21S105,350.66,117.39,351.69Z"/><path class="a8d31e29-0004-4871-82f5-cfab53aebd31" d="M169.38,659.88a30.06,30.06,0,0,0,34.79-49c-13.53-9.6-43.09,5.5-43.09,5.5S155.86,650.28,169.38,659.88Z"/><path class="a8d31e29-0004-4871-82f5-cfab53aebd31" d="M204.17,610.84a30,30,0,0,1,7.09,41.89l-50.18-36.39S190.64,601.24,204.17,610.84Z"/><path class="e073b757-1757-4602-8fe8-339d89d5d18e" d="M63.88,399.47c19.82,10.67,43.07,6,51.93-10.48s0-38.46-19.82-49.13-53.89,8.6-53.89,8.6S44.07,388.8,63.88,399.47Z"/><path class="e073b757-1757-4602-8fe8-339d89d5d18e" d="M96,339.86c19.81,10.67,28.68,32.67,19.82,49.13L42.1,348.46S76.17,329.19,96,339.86Z"/><path class="e073b757-1757-4602-8fe8-339d89d5d18e" d="M13,471.64c-12.57,25.16-5.81,54,15.1,64.47s48.05-1.49,60.62-26.66-12.83-67-12.83-67S25.57,446.47,13,471.64Z"/><path class="e073b757-1757-4602-8fe8-339d89d5d18e" d="M88.72,509.45C76.15,534.62,49,546.56,28.1,536.11l47.79-93.67S101.29,484.28,88.72,509.45Z"/><path class="e073b757-1757-4602-8fe8-339d89d5d18e" d="M-36.85,279.12c-25,12.95-36.51,40.26-25.75,61s39.72,27.08,64.69,14.13,29.08-61.71,29.08-61.71S-11.87,266.18-36.85,279.12Z"/><path class="e073b757-1757-4602-8fe8-339d89d5d18e" d="M2.09,354.26c-25,12.95-53.94,6.62-64.69-14.13l93.77-47.58S27.07,341.32,2.09,354.26Z"/><path class="e073b757-1757-4602-8fe8-339d89d5d18e" d="M165.92,771.06c2,11.67,11.49,19.79,21.19,18.12S203,776.71,201,765s-21-19.55-21-19.55S163.92,759.38,165.92,771.06Z"/><path class="e073b757-1757-4602-8fe8-339d89d5d18e" d="M201,765c2,11.67-4.24,22.48-13.93,24.14L180,745.49S199,753.37,201,765Z"/><path class="a8d31e29-0004-4871-82f5-cfab53aebd31" d="M83.09,135.54c-.57.38-.9.64-1.34,1s-.77.6-1.16.9c-.78.59-1.48,1.21-2.21,1.83s-1.4,1.25-2.1,1.88-1.37,1.27-2,1.94l-2,2c-.64.67-1.25,1.36-1.88,2s-1.26,1.35-1.84,2.06l-1.77,2.13a137.35,137.35,0,0,0-12.38,18.11,171,171,0,0,0-16,40.29,222.58,222.58,0,0,0-6.53,42.51l-.34,5.36c-.07.89-.07,1.78-.08,2.68l0,2.68-.07,5.35,0,2.68c0,.9,0,1.79,0,2.68l.38,10.69L31.8,287c0,.89.14,1.78.2,2.67l.44,5.32c1,14.21,3.29,28.26,5.77,42.23.68,3.48,1.47,6.94,2.21,10.41l1.11,5.2.56,2.6.28,1.3L42.7,358l2.64,10.29,1.32,5.15c.44,1.71.87,3.43,1.4,5.12l3,10.18,1.51,5.09c.51,1.69,1,3.4,1.57,5.07L60.91,419l7.42,19.86c1.19,3.33,2.6,6.57,3.93,9.84l4,9.8,2,4.9,1,2.44c.35.82.72,1.62,1.07,2.43l4.33,9.67c2.89,6.43,5.71,12.95,8.74,19.26q8.88,19.1,17.26,38.47,16.8,38.69,31.69,78.17,7.41,19.74,14.11,39.74c4.45,13.34,8.64,26.76,12.43,40.3s7.12,27.2,9.74,41,4.52,27.77,4.68,41.82h0a.37.37,0,0,0,.74,0c0-14.12-1.69-28.17-4.09-42.06s-5.59-27.64-9.19-41.27-7.61-27.15-11.88-40.58-8.81-26.78-13.57-40q-14.27-39.79-30.63-78.8Q106.59,514.42,98,495.11c-3-6.43-5.64-12.86-8.43-19.31l-4.16-9.67c-.34-.8-.7-1.6-1-2.42l-1-2.44-1.93-4.9-3.86-9.79c-1.27-3.26-2.62-6.5-3.76-9.82L66.77,417l-6.41-20c-.56-1.65-1-3.35-1.47-5l-1.42-5.06-2.85-10.1c-.5-1.68-.9-3.38-1.3-5.08l-1.23-5.1-2.46-10.19-.31-1.28-.26-1.28-.51-2.57-1-5.14c-.67-3.42-1.4-6.84-2-10.27-2.24-13.77-4.29-27.59-5.07-41.48l-.35-5.2c0-.87-.14-1.74-.15-2.61l-.06-2.6-.22-10.41c0-.87,0-1.74,0-2.6l.07-2.6.14-5.2.07-2.6c0-.86,0-1.73.12-2.59l.4-5.18a213.76,213.76,0,0,1,6.85-40.72A161.61,161.61,0,0,1,63,174.29a126.9,126.9,0,0,1,11.66-16.55l1.63-1.91c.54-.65,1.14-1.23,1.7-1.85s1.14-1.22,1.72-1.82l1.78-1.74c.58-.59,1.2-1.14,1.81-1.69s1.22-1.11,1.85-1.61,1.25-1.05,1.88-1.51c.31-.24.63-.5.93-.71s.66-.47.82-.57h0a5.22,5.22,0,0,0-5.53-8.86Z"/><path class="a8d31e29-0004-4871-82f5-cfab53aebd31" d="M-36.23,332.16A46.62,46.62,0,0,0,47.25,373.7C58.71,350.68,28.48,309,28.48,309S-24.77,309.14-36.23,332.16Z"/><path class="bf50dc2f-460b-4f8f-9de1-a8ab209270a8" d="M47.25,373.7a46.59,46.59,0,0,1-62.49,20.92L28.48,309S58.71,350.68,47.25,373.7Z"/><path class="a8d31e29-0004-4871-82f5-cfab53aebd31" d="M62,516.18a46.62,46.62,0,0,0,77.33-52.1c-14.37-21.33-65.53-15.61-65.53-15.61S47.61,494.85,62,516.18Z"/><path class="bf50dc2f-460b-4f8f-9de1-a8ab209270a8" d="M139.31,464.08a46.6,46.6,0,0,1-12.65,64.67L73.78,448.47S124.94,442.75,139.31,464.08Z"/><path class="a8d31e29-0004-4871-82f5-cfab53aebd31" d="M135.16,577.45c11.38,5.16,24.16,1.51,28.54-8.16s-1.29-21.68-12.68-26.84-29.7,7.18-29.7,7.18S123.77,572.29,135.16,577.45Z"/><path class="bf50dc2f-460b-4f8f-9de1-a8ab209270a8" d="M151,542.45c11.39,5.16,17.06,17.18,12.68,26.84l-42.38-19.66S139.64,537.29,151,542.45Z"/><path class="a8d31e29-0004-4871-82f5-cfab53aebd31" d="M142,708.12c-4.34,11.72.2,24.21,10.16,27.9s21.53-2.83,25.88-14.55-9.27-29.13-9.27-29.13S146.36,696.39,142,708.12Z"/><path class="bf50dc2f-460b-4f8f-9de1-a8ab209270a8" d="M178.06,721.47c-4.35,11.72-15.93,18.23-25.88,14.55l16.61-43.68S182.4,709.75,178.06,721.47Z"/><path class="a8d31e29-0004-4871-82f5-cfab53aebd31" d="M7.56,295.35a46.62,46.62,0,0,0,88.35-29.79c-8.21-24.37-59.06-32.39-59.06-32.39S-.65,271,7.56,295.35Z"/><path class="bf50dc2f-460b-4f8f-9de1-a8ab209270a8" d="M95.91,265.56a46.59,46.59,0,0,1-29.29,59L36.85,233.17S87.7,241.19,95.91,265.56Z"/><path class="e073b757-1757-4602-8fe8-339d89d5d18e" d="M48.37,211.68a46.62,46.62,0,0,0,88.35-29.79c-8.21-24.37-59.06-32.39-59.06-32.39S40.15,187.31,48.37,211.68Z"/><path class="e073b757-1757-4602-8fe8-339d89d5d18e" d="M136.72,181.89a46.59,46.59,0,0,1-29.29,59L77.66,149.5S128.51,157.52,136.72,181.89Z"/><path class="a8d31e29-0004-4871-82f5-cfab53aebd31" d="M119.28,636.49l21-36.3-2.76.57,30.82,22a.91.91,0,0,0,1.26-.21.92.92,0,0,0-.17-1.24L139.8,597.75l-1.69-1.34L137,598.32l-20.62,36.52a1.66,1.66,0,0,0,2.87,1.65Z"/><path class="a8d31e29-0004-4871-82f5-cfab53aebd31" d="M71.26,634.49a40.95,40.95,0,0,0,72.14,38.77c10.69-19.9-14.69-57.32-14.69-57.32S82,614.6,71.26,634.49Z"/><path class="bf50dc2f-460b-4f8f-9de1-a8ab209270a8" d="M143.4,673.26A40.92,40.92,0,0,1,88,689.9l40.74-74S154.09,653.36,143.4,673.26Z"/><path class="a8d31e29-0004-4871-82f5-cfab53aebd31" d="M58,134.39c-18.3,16.07-23.36,40.24-11.3,54s36.69,11.87,55-4.19,13.9-55.32,13.9-55.32S76.34,118.33,58,134.39Z"/><path class="bf50dc2f-460b-4f8f-9de1-a8ab209270a8" d="M101.72,184.18c-18.3,16.06-42.92,17.94-55,4.19l68.89-59.51S120,168.11,101.72,184.18Z"/><path class="a8d31e29-0004-4871-82f5-cfab53aebd31" d="M169.3,145.92c23.31-7,37.91-27,32.61-44.47s-28.49-26-51.8-18.92-35.54,44.61-35.54,44.61S146,153,169.3,145.92Z"/><path class="bf50dc2f-460b-4f8f-9de1-a8ab209270a8" d="M150.11,82.53c23.31-7.06,46.51,1.42,51.8,18.92l-87.34,25.69S126.8,89.58,150.11,82.53Z"/><path class="a8d31e29-0004-4871-82f5-cfab53aebd31" d="M175.56,175.39c1.77,12.92,11.91,22.2,22.64,20.73s18-13.14,16.23-26.05S192,147.78,192,147.78,173.79,162.48,175.56,175.39Z"/><path class="bf50dc2f-460b-4f8f-9de1-a8ab209270a8" d="M214.43,170.07c1.77,12.91-5.5,24.58-16.23,26.05L192,147.78S212.65,157.15,214.43,170.07Z"/><path class="a8d31e29-0004-4871-82f5-cfab53aebd31" d="M111.65,177.7c10.2,22.11,31.94,33.82,48.55,26.16s21.79-31.8,11.59-53.92-49.09-29-49.09-29S101.45,155.58,111.65,177.7Z"/><path class="bf50dc2f-460b-4f8f-9de1-a8ab209270a8" d="M171.79,149.94c10.2,22.12,5,46.26-11.59,53.92l-37.5-83S161.59,127.83,171.79,149.94Z"/></g></g></svg>