<svg width="114" height="197" viewBox="0 0 114 197" fill="none" xmlns="http://www.w3.org/2000/svg">
<path d="M85.6538 36.2548L112.365 19.2423C112.94 18.6829 113.35 17.9761 113.55 17.1993C113.751 16.4225 113.734 15.6056 113.501 14.8378C113.269 14.07 112.829 13.3809 112.232 12.8459C111.634 12.3109 110.9 11.9506 110.112 11.8043L50.4912 0.895338C47.0619 0.272665 43.5247 0.996187 40.6153 2.91536C37.706 4.83453 35.6487 7.80156 34.8715 11.1991C34.8715 11.1991 1.3569 158.048 1.24023 158.908C0.607148 163.302 0.872066 167.778 2.01895 172.066C3.16583 176.355 5.17084 180.366 7.91263 183.857C10.6544 187.348 14.076 190.246 17.9703 192.376C21.8646 194.507 26.1507 195.825 30.5691 196.251C48.2233 197.987 63.8868 184.759 66.4026 167.199L85.6538 36.2548Z" fill="#DDBCB6"/>
</svg>
