<svg width="124" height="202" viewBox="0 0 124 202" fill="none" xmlns="http://www.w3.org/2000/svg">
<path d="M57.6831 34.9657L69.2338 5.45452C69.3643 4.66509 69.2757 3.85502 68.9778 3.11242C68.6799 2.36982 68.184 1.72312 67.5442 1.24269C66.9044 0.762249 66.1451 0.466464 65.3488 0.387507C64.5526 0.30855 63.75 0.449444 63.0283 0.794863L8.46138 27.134C5.31804 28.6519 2.8814 31.3239 1.65887 34.5935C0.436345 37.8631 0.522172 41.4782 1.89848 44.6861C1.89848 44.6861 61.4604 183.039 61.8542 183.769C63.9345 187.69 66.7886 191.148 70.2439 193.934C73.6992 196.72 77.6837 198.776 81.9565 199.978C86.2293 201.18 90.7016 201.502 95.1026 200.926C99.5036 200.349 103.742 198.886 107.561 196.625C122.838 187.619 127.687 167.697 119.36 152.033L57.6831 34.9657Z" fill="#F8DEDB"/>
</svg>
