<svg width="315" height="292" viewBox="0 0 315 292" fill="none" xmlns="http://www.w3.org/2000/svg">
<mask id="mask0_52_68" style="mask-type:alpha" maskUnits="userSpaceOnUse" x="28" y="57" width="216" height="229">
<path d="M241.288 156.842C253.896 226.533 201.437 274.857 132.84 285.38C98.6397 284.541 83.3263 275.171 67.5899 263.773C48.3023 249.816 36.3213 206.931 30.8012 176.538C18.215 106.84 50.0013 72.1438 116.71 59.7764C183.418 47.409 228.673 87.1437 241.288 156.842Z" fill="#F8DEDB"/>
</mask>
<g mask="url(#mask0_52_68)">
<path d="M241.288 156.842C253.896 226.533 201.437 274.857 132.84 285.38C98.6397 284.541 83.3263 275.171 67.5899 263.773C48.3023 249.816 36.3213 206.931 30.8012 176.538C18.215 106.84 50.0013 72.1438 116.71 59.7764C183.418 47.409 228.673 87.1437 241.288 156.842Z" fill="#F8DEDB"/>
<path opacity="0.5" d="M64.3374 266.55C77.7062 264.795 87.0578 252.055 85.225 238.095C83.3921 224.136 71.0687 214.242 57.7 215.997C44.3312 217.753 34.9796 230.492 36.8124 244.452C38.6453 258.412 50.9687 268.305 64.3374 266.55Z" fill="url(#paint0_radial_52_68)"/>
<path opacity="0.5" d="M187.13 257.547C200.499 255.792 209.85 243.052 208.018 229.092C206.185 215.133 193.861 205.239 180.493 206.994C167.124 208.75 157.772 221.489 159.605 235.449C161.438 249.409 173.761 259.302 187.13 257.547Z" fill="url(#paint1_radial_52_68)"/>
<path d="M117.3 261.593L141.233 255.759C141.399 255.724 141.571 255.727 141.737 255.768C141.902 255.808 142.055 255.886 142.186 255.995C142.316 256.104 142.421 256.241 142.49 256.396C142.56 256.551 142.594 256.72 142.589 256.89C142.589 259.347 141.503 264.298 132.621 266.143C124.498 267.82 119.393 265.378 116.936 263.613C116.767 263.484 116.637 263.312 116.56 263.114C116.483 262.916 116.462 262.7 116.499 262.491C116.537 262.282 116.632 262.088 116.773 261.929C116.915 261.771 117.097 261.654 117.3 261.593Z" fill="#C29D80"/>
<g style="mix-blend-mode:multiply" opacity="0.2">
<path d="M109.652 250.467C113.338 244.333 112.109 236.826 106.906 233.7C101.704 230.574 94.4987 233.013 90.8128 239.148C87.1269 245.282 88.3562 252.789 93.5585 255.915C98.7608 259.041 105.966 256.602 109.652 250.467Z" fill="#906B5F"/>
</g>
<g style="mix-blend-mode:multiply" opacity="0.2">
<path d="M112.231 251.555C115.571 245.998 114.458 239.197 109.746 236.366C105.034 233.534 98.5069 235.745 95.1674 241.302C91.8279 246.86 92.9406 253.661 97.6528 256.492C102.365 259.324 108.892 257.113 112.231 251.555Z" fill="#906B5F"/>
</g>
<path d="M103.434 240.71C105.17 237.821 104.593 234.286 102.146 232.816C99.698 231.345 96.3065 232.495 94.5703 235.385C92.8342 238.274 93.4109 241.808 95.8584 243.279C98.306 244.75 101.698 243.6 103.434 240.71Z" fill="#F8DEDB"/>
</g>
<mask id="mask1_52_68" style="mask-type:alpha" maskUnits="userSpaceOnUse" x="40" y="201" width="55" height="49">
<path d="M80.8686 205.035C72.8473 202.352 60.808 199.712 48.7249 202.119C42.8912 203.271 39.3254 209.681 41.0901 216.025C43.3652 224.192 47.9593 234.984 56.9796 240.73C56.0025 243.647 56.5275 246.608 58.212 247.388C59.8965 248.168 62.0768 246.477 63.1925 243.611C64.4036 243.971 65.6392 244.244 66.8896 244.427C66.824 247.198 67.9834 249.532 69.6606 249.794C71.4836 250.072 73.2046 247.804 73.5108 244.69C73.5108 244.69 77.4996 244.201 77.7476 244.15C78.3309 246.637 79.8842 248.394 81.4666 248.197C83.2312 247.986 84.6532 245.879 83.9094 242.145C92.2151 237.937 95.8612 229.202 94.3955 221.96C92.9298 214.719 87.8034 207.311 80.8686 205.035Z" fill="white"/>
</mask>
<g mask="url(#mask1_52_68)">
<path d="M80.8686 205.035C72.8473 202.352 60.808 199.712 48.7249 202.119C42.8912 203.271 39.3254 209.681 41.0901 216.025C43.3652 224.192 47.9593 234.984 56.9796 240.73C56.0025 243.647 56.5275 246.608 58.212 247.388C59.8965 248.168 62.0768 246.477 63.1925 243.611C64.4036 243.971 65.6392 244.244 66.8896 244.427C66.824 247.198 67.9834 249.532 69.6606 249.794C71.4836 250.072 73.2046 247.804 73.5108 244.69C73.5108 244.69 77.4996 244.201 77.7476 244.15C78.3309 246.637 79.8842 248.394 81.4666 248.197C83.2312 247.986 84.6532 245.879 83.9094 242.145C92.2151 237.937 95.8612 229.202 94.3955 221.96C92.9298 214.719 87.8034 207.311 80.8686 205.035Z" fill="white"/>
<mask id="mask2_52_68" style="mask-type:alpha" maskUnits="userSpaceOnUse" x="51" y="195" width="47" height="47">
<path d="M51.0002 195.023C51.0002 195.023 60.0424 219.226 63.776 228.567C70.2587 244.799 85.3461 242.283 89.4807 237.792C98.6688 227.823 97.7645 205.582 97.7645 205.582L51.0002 195.023Z" fill="#677F49"/>
</mask>
<g mask="url(#mask2_52_68)">
<path d="M51.0002 195.023C51.0002 195.023 60.0424 219.226 63.776 228.567C70.2587 244.799 85.3461 242.283 89.4807 237.792C98.6688 227.823 97.7645 205.582 97.7645 205.582L51.0002 195.023Z" fill="#677F49"/>
<path d="M44.8968 191.837L63.5427 231.943C63.7156 230.15 64.2873 228.417 65.2159 226.873C66.1444 225.329 67.4065 224.012 68.9097 223.018C70.1056 222.216 71.6151 223.215 71.7463 224.775C71.8729 226.304 72.3494 227.784 73.1391 229.1C73.9467 230.548 75.1494 231.738 76.607 232.529C78.0646 233.32 79.7171 233.681 81.3719 233.57C85.9951 233.096 89.2182 229.027 88.664 223.186C88.6238 222.891 88.658 222.591 88.7635 222.313C88.869 222.035 89.0424 221.788 89.2679 221.595C89.4935 221.401 89.7639 221.267 90.0546 221.205C90.3452 221.143 90.6469 221.154 90.9319 221.239C94.2779 222.322 97.3125 224.199 99.7772 226.708L94.5269 179.156L44.8968 191.837Z" fill="#072E29"/>
<path fill-rule="evenodd" clip-rule="evenodd" d="M78.856 229.61C78.4914 229.355 78.5789 228.407 79.0383 227.357L78.681 227.459C76.7996 227.94 75.137 227.765 74.9766 227.072C74.8162 226.38 75.9975 225.563 77.6601 225.06C76.0923 224.25 75.0568 223.135 75.2902 222.449C75.5235 221.764 76.909 221.72 78.5279 222.332C78.156 220.247 78.3456 218.548 79.031 218.373C79.7165 218.198 80.6572 219.627 81.2624 221.669C82.4437 220.327 83.7199 219.656 84.2376 220.152C84.7553 220.648 84.3324 222.143 83.3042 223.616C84.9668 223.288 86.3523 223.492 86.5055 224.119C86.6586 224.746 85.2731 225.767 83.3917 226.248C83.3036 226.277 83.2134 226.299 83.1219 226.314C83.9897 227.043 84.5001 227.823 84.2886 228.225C84.0772 228.626 82.9323 228.436 81.8093 227.67L81.6051 227.532L81.977 229.1C81.9927 229.15 81.9982 229.204 81.9931 229.257C81.988 229.309 81.9724 229.361 81.9473 229.408C81.9222 229.454 81.8881 229.496 81.8469 229.529C81.8056 229.563 81.7582 229.588 81.7072 229.603C81.6564 229.613 81.604 229.613 81.5531 229.603C81.5022 229.593 81.4538 229.573 81.411 229.543C81.3681 229.514 81.3315 229.477 81.3035 229.433C81.2755 229.389 81.2565 229.34 81.2478 229.289L80.8832 227.772C80.8594 227.825 80.8326 227.876 80.803 227.926C80.154 229.143 79.2863 229.894 78.856 229.61Z" fill="#677F49"/>
</g>
</g>
<g style="mix-blend-mode:multiply" opacity="0.2">
<path d="M95.5549 215.835C95.5549 215.835 73.9264 195.315 46.5154 201.389C46.5154 201.389 63.207 190.91 82.8739 196.708C95.0663 200.288 95.5549 215.835 95.5549 215.835Z" fill="#906B5F"/>
</g>
<path d="M95.2339 217.724C92.1608 215.655 88.8447 213.972 85.3603 212.714C82.0504 211.494 78.6056 210.676 75.1003 210.278C71.7093 209.889 68.2856 209.874 64.8914 210.235C61.5077 210.631 58.1665 211.332 54.9085 212.328C54.522 212.444 54.048 212.568 53.7271 212.692C53.4063 212.816 53.1292 212.911 52.8448 213.028C52.2906 213.254 51.802 213.502 51.3864 213.757C50.6535 214.158 49.9727 214.648 49.3592 215.215C49.0462 215.525 48.7675 215.867 48.5279 216.236C48.2475 216.707 48.0224 217.209 47.857 217.731C47.4781 219.067 47.3715 220.466 47.5434 221.844C48.009 225.125 49.1459 228.275 50.8832 231.097C51.7601 232.629 52.7729 234.079 53.9094 235.429C55.0557 236.825 56.3141 238.125 57.6722 239.316L58.1389 239.731C58.3647 239.931 58.5158 240.201 58.5675 240.498C58.6192 240.795 58.5683 241.101 58.4233 241.365C58.0556 242.26 57.8673 243.219 57.8691 244.187C57.8394 244.543 57.8816 244.901 57.9931 245.241C58.1046 245.58 58.2831 245.894 58.5181 246.163C58.6082 246.234 58.714 246.284 58.8268 246.306C58.9396 246.329 59.0562 246.325 59.1671 246.294C59.5575 246.201 59.92 246.016 60.2244 245.755C60.996 245.088 61.6068 244.255 62.011 243.319L62.1058 243.137C62.2083 242.929 62.3864 242.769 62.6034 242.689C62.8205 242.609 63.0599 242.615 63.2725 242.706C64.4066 243.186 65.574 243.584 66.7654 243.895C66.8907 243.921 67.005 243.985 67.0935 244.077C67.182 244.17 67.2405 244.287 67.2613 244.413C67.1991 245.476 67.3761 246.54 67.779 247.527C67.9116 247.935 68.1715 248.289 68.5207 248.539C68.8698 248.788 69.2897 248.919 69.7187 248.912C70.1533 248.867 70.5703 248.716 70.9337 248.474C71.2971 248.231 71.5959 247.903 71.8043 247.519C72.2444 246.688 72.3859 245.73 72.2054 244.807C72.1875 244.636 72.21 244.464 72.271 244.303C72.3696 244.065 72.5438 243.865 72.7669 243.735C72.873 243.701 72.9836 243.684 73.095 243.684H73.2044H73.3065H73.445L73.7075 243.647L74.2326 243.574L75.2899 243.436L77.339 243.144H77.8495C78.0584 243.155 78.2551 243.246 78.3989 243.398C78.5427 243.55 78.6227 243.752 78.6224 243.961C78.6221 244.945 78.9307 245.904 79.5048 246.703C79.7613 247.06 80.1088 247.342 80.5111 247.519C80.6935 247.592 80.8892 247.625 81.0854 247.616C81.2815 247.607 81.4735 247.557 81.6487 247.468C82.0147 247.237 82.3128 246.912 82.5127 246.528C82.7125 246.144 82.8069 245.713 82.7862 245.281C82.8093 244.322 82.7261 243.363 82.5383 242.422V242.349C82.5016 242.105 82.5442 241.856 82.6597 241.638C82.7752 241.42 82.9576 241.245 83.18 241.139C84.0769 240.708 84.9447 240.22 85.8052 239.68C86.6656 239.141 87.4969 238.572 88.372 237.967C88.4274 237.925 88.4906 237.895 88.5579 237.879C88.6251 237.863 88.695 237.861 88.7632 237.872C88.8314 237.884 88.8965 237.909 88.9546 237.947C89.0127 237.984 89.0626 238.033 89.1012 238.091C89.1494 238.171 89.1748 238.263 89.1748 238.357C89.1748 238.451 89.1494 238.542 89.1012 238.623C88.5641 239.623 87.8557 240.522 87.0084 241.277C86.1696 242.046 85.233 242.701 84.2228 243.224L84.8499 241.941C85.1335 243.175 85.0907 244.462 84.7259 245.674C84.5462 246.333 84.2228 246.943 83.7789 247.461C83.3351 247.979 82.7819 248.393 82.1591 248.671C81.488 248.939 80.7439 248.959 80.059 248.73C79.4318 248.492 78.8697 248.11 78.4182 247.614C77.5795 246.679 76.9129 245.602 76.4494 244.435L77.7401 245.281L77.1494 245.354L76.6171 245.419L75.5597 245.536L74.4951 245.66L73.9628 245.718H73.7002H73.569H73.4961H73.5982C73.6904 245.698 73.7789 245.663 73.8607 245.616C74.0744 245.488 74.2369 245.289 74.3201 245.055C74.3641 244.892 74.3641 244.721 74.3201 244.559C74.3854 245.242 74.3559 245.932 74.2326 246.608C74.0897 247.305 73.815 247.968 73.4231 248.562C73.0285 249.176 72.4901 249.683 71.8548 250.042C71.2194 250.4 70.5062 250.598 69.7771 250.618C69.0013 250.623 68.2491 250.352 67.6551 249.853C67.1137 249.387 66.7018 248.789 66.4592 248.117C66.04 246.913 65.8979 245.629 66.0435 244.362L66.5686 245.018C65.2564 244.963 63.95 244.812 62.66 244.566L63.9215 243.961C63.5085 245.261 62.8025 246.448 61.8578 247.432C61.3121 248.002 60.6403 248.437 59.8963 248.701C59.4414 248.855 58.9599 248.916 58.4809 248.878C58.002 248.84 57.5358 248.706 57.1107 248.482C56.3273 248.03 55.7052 247.344 55.3314 246.52C55.0129 245.828 54.8062 245.09 54.7189 244.333C54.5682 242.926 54.6971 241.504 55.098 240.147L55.8273 242.196C53.9152 241.398 52.09 240.406 50.38 239.235C48.6497 238.035 47.0271 236.685 45.5308 235.203C42.3881 232.076 39.9362 228.325 38.3335 224.192C37.4219 221.86 36.8853 219.399 36.7438 216.9C36.5849 213.995 37.1962 211.099 38.5158 208.506C39.9439 205.837 42.0944 203.623 44.7214 202.119C45.909 201.431 47.1683 200.876 48.4768 200.463C49.1039 200.274 49.7311 200.099 50.3436 199.96C50.9561 199.822 51.4155 199.756 51.9624 199.661C56.1763 198.866 60.4714 198.587 64.7528 198.83C69.0438 199.082 73.2758 199.954 77.3171 201.419C81.2847 202.868 84.9985 204.935 88.3209 207.544C89.9407 208.82 91.4439 210.238 92.8129 211.781C94.1957 213.294 95.3951 214.966 96.386 216.761C96.4374 216.848 96.47 216.945 96.482 217.045C96.4939 217.146 96.4848 217.248 96.4553 217.344C96.4259 217.441 96.3766 217.53 96.3107 217.607C96.2448 217.684 96.1636 217.746 96.0725 217.789C95.9516 217.857 95.8141 217.889 95.676 217.881C95.5378 217.873 95.4047 217.826 95.2922 217.746L95.2339 217.724Z" fill="#062D28"/>
<path d="M84.9887 216.95C87.1876 216.95 88.9702 215.168 88.9702 212.969C88.9702 210.77 87.1876 208.987 84.9887 208.987C82.7898 208.987 81.0072 210.77 81.0072 212.969C81.0072 215.168 82.7898 216.95 84.9887 216.95Z" fill="white"/>
<path d="M40.1638 183.516L40.3607 182.926C40.4191 182.765 40.4847 182.597 40.543 182.452C40.6743 182.138 40.8055 181.839 40.9441 181.547C41.2261 180.972 41.5477 180.416 41.9066 179.885C42.6073 178.825 43.4242 177.846 44.3422 176.968C46.1767 175.218 48.3043 173.804 50.628 172.79C55.1199 170.935 59.9757 170.13 64.8258 170.434C65.9998 170.478 67.1447 170.602 68.2968 170.719C69.449 170.835 70.5793 171.047 71.6877 171.273C72.8509 171.488 74.0022 171.763 75.1368 172.097L76.8505 172.687C77.4193 172.899 77.9662 173.161 78.5204 173.417C80.7238 174.43 82.7676 175.759 84.5874 177.362C85.494 178.17 86.3284 179.056 87.0813 180.009C87.4532 180.49 87.8105 180.986 88.1387 181.511C88.3064 181.766 88.4595 182.051 88.6127 182.328C88.7658 182.605 88.8898 182.867 89.0793 183.254C89.2108 183.517 89.289 183.804 89.3095 184.097C89.3301 184.391 89.2926 184.686 89.1991 184.965C89.1056 185.244 88.9581 185.502 88.7648 185.723C88.5716 185.945 88.3365 186.127 88.073 186.258C87.7443 186.427 87.3775 186.507 87.0084 186.491L85.3531 186.44C85.142 186.392 84.9367 186.321 84.7405 186.229L84.0697 185.959L82.7352 185.427C81.8602 185.062 80.9705 184.749 80.1101 184.421C78.3745 183.793 76.6609 183.232 74.9399 182.743L73.6565 182.393L72.3658 182.029C71.4908 181.825 70.6595 181.628 69.6896 181.438C67.8442 181.049 65.9798 180.757 64.1038 180.563C60.562 180.106 56.9698 180.222 53.4647 180.906C51.8065 181.261 50.2029 181.835 48.6956 182.612C47.9321 183.001 47.2006 183.449 46.508 183.954C46.158 184.202 45.8371 184.479 45.5162 184.749C45.3558 184.887 45.2027 185.033 45.0568 185.172L44.8454 185.376C44.787 185.42 44.6995 185.536 44.6922 185.485C44.4311 186.088 43.9414 186.562 43.3308 186.803C42.7202 187.044 42.0387 187.033 41.4363 186.772C40.8339 186.511 40.3598 186.021 40.1184 185.411C39.8771 184.8 39.8882 184.119 40.1492 183.516H40.1638Z" fill="#062D28"/>
<path d="M166.609 186.696C147.074 191.326 138.965 199.143 134.655 204.481C132.519 207.128 132.548 211.678 133.598 214.982C136.661 224.651 151.223 233.555 157.626 233.022C158.194 236.792 160.338 238.258 162.169 237.835C163.809 237.449 164.743 235.247 164.451 232.731C164.713 232.68 168.826 231.724 168.826 231.724C170.204 234.503 172.713 236.019 174.427 235.108C176.002 234.269 176.337 231.666 175.309 229.092C176.488 228.479 177.621 227.782 178.7 227.006C180.807 229.296 183.571 230.098 184.971 228.771C186.371 227.444 185.868 224.542 183.906 222.15C185.342 220.675 186.656 219.088 187.837 217.403C197.725 203.278 196.033 179.724 166.609 186.696Z" fill="white"/>
<mask id="mask3_52_68" style="mask-type:alpha" maskUnits="userSpaceOnUse" x="140" y="185" width="45" height="44">
<path d="M140.183 198.108C140.183 198.108 143.894 206.603 147.592 215.995C154.001 232.308 170.401 228.91 175.688 225.533C187.56 217.957 184.03 193.273 184.03 193.273L160.236 185.347L140.183 198.108Z" fill="#677F49"/>
</mask>
<g mask="url(#mask3_52_68)">
<path d="M134.991 182.291C134.991 182.291 143.894 206.603 147.591 215.995C154.001 232.308 170.401 228.91 175.688 225.533C187.56 217.957 184.03 193.273 184.03 193.273L134.991 182.291Z" fill="#677F49"/>
<path d="M127.706 179.265L147.905 220.101C147.905 220.101 147.49 214.996 153.207 211.547C154.534 210.745 156.568 210.563 156.656 212.123C156.739 213.371 157.068 214.589 157.624 215.709C158.18 216.828 158.952 217.827 159.895 218.647C160.839 219.467 161.935 220.092 163.121 220.487C164.307 220.882 165.56 221.038 166.806 220.947C171.838 220.48 175.141 215.572 174.74 209.717C174.653 208.375 175.331 208.003 176.592 208.412C182.878 210.446 185.015 214.406 185.015 214.406L182.885 166.387L127.706 179.265Z" fill="#072E29"/>
<path fill-rule="evenodd" clip-rule="evenodd" d="M163.561 216.841C163.204 216.549 163.43 215.616 164.05 214.654L163.671 214.705C161.629 214.931 159.915 214.53 159.835 213.822C159.755 213.115 161.111 212.473 162.92 212.189C161.388 211.182 160.462 209.936 160.798 209.272C161.133 208.608 162.592 208.783 164.203 209.593C164.101 207.485 164.531 205.823 165.275 205.743C166.019 205.662 166.806 207.201 167.164 209.308C168.578 208.134 170.015 207.646 170.482 208.207C170.948 208.769 170.314 210.191 169.023 211.511C170.81 211.409 172.232 211.795 172.305 212.444C172.378 213.093 170.795 213.902 168.753 214.136H168.462C169.278 214.953 169.701 215.813 169.424 216.185C169.147 216.557 167.966 216.185 166.901 215.303L166.704 215.135L166.887 216.739C166.897 216.793 166.896 216.849 166.884 216.903C166.871 216.957 166.848 217.008 166.815 217.053C166.782 217.097 166.741 217.134 166.693 217.162C166.645 217.189 166.592 217.207 166.537 217.213C166.482 217.219 166.426 217.214 166.373 217.197C166.32 217.181 166.271 217.153 166.23 217.117C166.188 217.081 166.154 217.036 166.13 216.986C166.107 216.936 166.093 216.882 166.092 216.827L165.917 215.281L165.815 215.419C164.976 216.557 163.962 217.191 163.561 216.841Z" fill="#677F49"/>
</g>
<g style="mix-blend-mode:multiply" opacity="0.2">
<path d="M130.703 211.27C130.703 211.27 149.159 182.94 183.563 181.7C183.563 181.7 153.534 175.05 134.881 189.386C125.788 196.365 130.703 211.27 130.703 211.27Z" fill="#906B5F"/>
</g>
<path d="M129.974 211.044C130.384 208.793 131.121 206.614 132.161 204.576C133.18 202.504 134.419 200.548 135.859 198.742C137.307 196.907 138.923 195.21 140.686 193.674C142.47 192.139 144.374 190.749 146.381 189.518C150.413 187.082 154.761 185.213 159.303 183.961C160.433 183.67 161.563 183.341 162.701 183.123C163.838 182.904 164.983 182.612 166.128 182.452C167.273 182.291 168.425 182.08 169.57 181.978C170.715 181.876 171.874 181.693 173.019 181.642C174.164 181.591 175.323 181.482 176.468 181.482H178.182H179.042C179.327 181.482 179.611 181.482 179.961 181.482C182.845 181.485 185.697 182.08 188.34 183.232C191.391 184.564 193.961 186.798 195.705 189.634C197.3 192.308 198.149 195.36 198.162 198.473C198.166 201.119 197.772 203.752 196.996 206.282C196.296 208.6 195.342 210.833 194.152 212.94C191.895 216.953 188.97 220.551 185.503 223.579V221.333C186.401 222.479 187.04 223.804 187.377 225.22C187.565 225.99 187.61 226.789 187.509 227.575C187.407 228.504 186.993 229.37 186.335 230.033C185.646 230.689 184.733 231.056 183.782 231.061C182.996 231.068 182.217 230.904 181.5 230.58C180.235 230.002 179.12 229.141 178.24 228.064L179.604 228.202C178.413 228.888 177.176 229.488 175.9 229.996L176.177 229.194C176.77 230.359 177.075 231.65 177.066 232.957C177.042 233.689 176.823 234.401 176.432 235.021C175.999 235.667 175.366 236.154 174.631 236.406C173.932 236.638 173.189 236.705 172.46 236.601C171.732 236.497 171.037 236.226 170.43 235.808C169.825 235.4 169.311 234.871 168.921 234.255C168.545 233.654 168.262 233 168.082 232.315C168.115 232.487 168.19 232.647 168.301 232.782C168.46 232.973 168.683 233.1 168.928 233.139C169.017 233.157 169.109 233.157 169.198 233.139H169.307H169.242H169.103L168.833 233.205L168.279 233.343L167.185 233.606L166.084 233.868L164.925 234.138L165.844 232.913C165.804 234.2 165.519 235.467 165.005 236.647C164.722 237.264 164.3 237.808 163.773 238.236C163.199 238.672 162.495 238.904 161.775 238.893C161.081 238.876 160.403 238.675 159.813 238.309C159.25 237.948 158.756 237.489 158.355 236.953C157.622 235.911 157.072 234.752 156.729 233.526L157.786 234.532C156.699 234.306 155.598 234.065 154.512 233.73C153.404 233.406 152.346 232.93 151.369 232.315C151.309 232.279 151.257 232.231 151.217 232.174C151.177 232.116 151.149 232.051 151.135 231.983C151.121 231.914 151.122 231.843 151.137 231.775C151.152 231.707 151.182 231.642 151.223 231.586C151.286 231.49 151.379 231.419 151.488 231.385C151.597 231.35 151.715 231.354 151.821 231.396C153.761 232.126 155.861 232.126 158.012 232.126L158.413 232.235C158.607 232.289 158.778 232.407 158.897 232.57C159.016 232.732 159.077 232.93 159.069 233.132C159.01 234.141 159.221 235.149 159.682 236.049C159.872 236.46 160.165 236.816 160.533 237.08C160.901 237.345 161.331 237.509 161.782 237.558C162.197 237.582 162.605 237.45 162.927 237.186C163.269 236.886 163.521 236.498 163.656 236.063C163.96 235.112 163.945 234.088 163.612 233.147C163.537 232.931 163.55 232.694 163.649 232.488C163.747 232.282 163.923 232.123 164.137 232.045L164.502 231.929L166.646 231.469L167.747 231.229L168.294 231.105L168.571 231.046H168.71H168.782H168.892C168.991 231.032 169.092 231.032 169.191 231.046C169.444 231.083 169.676 231.207 169.847 231.396C169.963 231.529 170.047 231.686 170.095 231.856C170.245 232.798 170.732 233.653 171.466 234.262C171.824 234.546 172.242 234.743 172.689 234.837C173.135 234.932 173.598 234.923 174.04 234.809C174.464 234.683 174.836 234.426 175.105 234.075C175.374 233.724 175.524 233.297 175.535 232.855C175.603 231.777 175.408 230.698 174.966 229.712C174.909 229.569 174.906 229.411 174.957 229.266C175.008 229.121 175.11 229 175.243 228.924C176.327 228.209 177.358 227.417 178.328 226.554C178.495 226.401 178.713 226.315 178.94 226.315C179.167 226.315 179.386 226.401 179.553 226.554L179.691 226.686C180.424 227.426 181.317 227.987 182.302 228.326C182.706 228.47 183.137 228.519 183.564 228.472C183.704 228.469 183.843 228.435 183.969 228.372C184.095 228.309 184.206 228.219 184.293 228.108C184.445 227.786 184.524 227.435 184.524 227.08C184.524 226.724 184.445 226.373 184.293 226.051C183.961 225.131 183.439 224.292 182.761 223.587C182.517 223.379 182.354 223.092 182.299 222.777C182.245 222.461 182.302 222.136 182.462 221.858L182.769 221.341C184.864 217.865 186.478 214.122 187.567 210.213C188.065 208.388 188.387 206.52 188.529 204.634C188.68 202.965 188.514 201.283 188.041 199.676C187.697 198.49 186.994 197.44 186.028 196.671C185.192 196.113 184.271 195.692 183.301 195.424C181.95 195.019 180.567 194.728 179.166 194.557C178.984 194.557 178.736 194.506 178.481 194.491L177.752 194.433L176.293 194.316C175.294 194.221 174.31 194.229 173.318 194.185C165.413 193.93 157.545 194.659 150.217 197.284C148.384 197.954 146.594 198.736 144.857 199.625C143.106 200.546 141.424 201.594 139.825 202.76C138.198 203.959 136.664 205.28 135.239 206.713C133.796 208.181 132.501 209.788 131.374 211.511L131.33 211.576C131.26 211.758 131.122 211.905 130.944 211.984C130.766 212.064 130.564 212.069 130.382 211.999C130.2 211.93 130.054 211.791 129.974 211.613C129.895 211.435 129.89 211.233 129.959 211.051L129.974 211.044Z" fill="#062D28"/>
<path d="M176.629 197.59C178.828 197.59 180.61 195.808 180.61 193.609C180.61 191.41 178.828 189.627 176.629 189.627C174.43 189.627 172.647 191.41 172.647 193.609C172.647 195.808 174.43 197.59 176.629 197.59Z" fill="white"/>
<path d="M172.224 164.71L169.162 164.747L166.07 164.82C164.028 164.878 162.001 164.973 160.01 165.133C156.193 165.374 152.413 166.015 148.729 167.044C147.074 167.518 145.475 168.171 143.96 168.991L143.421 169.29L142.83 169.647C142.436 169.888 142.028 170.114 141.649 170.376C140.868 170.85 140.11 171.361 139.337 171.835C137.82 172.87 136.318 173.957 134.83 175.123C134.101 175.714 133.372 176.312 132.643 176.932L131.527 177.88C131.338 178.04 131.163 178.193 130.966 178.346C130.806 178.496 130.633 178.63 130.448 178.747L128.938 179.316C128.569 179.458 128.169 179.5 127.779 179.438C127.389 179.375 127.022 179.21 126.716 178.96C126.41 178.709 126.176 178.382 126.037 178.012C125.898 177.642 125.86 177.241 125.927 176.852C125.992 176.414 126.036 176.122 126.102 175.809C126.167 175.495 126.233 175.174 126.313 174.883C126.473 174.282 126.666 173.691 126.889 173.111C127.326 171.962 127.863 170.855 128.494 169.8C129.749 167.703 131.293 165.793 133.08 164.127L134.451 162.924C134.933 162.544 135.421 162.194 135.91 161.815C136.398 161.436 136.916 161.137 137.426 160.802L138.192 160.313C138.462 160.153 138.761 159.999 139.053 159.846C140.193 159.236 141.372 158.7 142.582 158.242C143.761 157.826 144.961 157.471 146.177 157.177C150.793 156.138 155.552 155.892 160.251 156.448C162.506 156.709 164.742 157.116 166.945 157.666C168.039 157.936 169.133 158.257 170.19 158.614C171.282 158.969 172.356 159.38 173.406 159.846C173.928 160.079 174.356 160.484 174.617 160.992C174.879 161.501 174.96 162.084 174.846 162.644C174.732 163.205 174.431 163.71 173.991 164.076C173.552 164.443 173.001 164.648 172.429 164.659L172.224 164.71Z" fill="#062D28"/>
<path d="M36.9338 96.0548C36.9338 96.0548 64.5053 26.6046 125.424 30.4257C125.424 30.4257 134.969 19.3125 158.07 19.4073C172.655 19.4729 283.757 23.9722 284.837 157.491C290.831 244.624 219.791 262.074 219.791 262.074C219.791 262.074 229.205 126.594 135.808 108.852C42.4102 91.1107 36.9338 96.0548 36.9338 96.0548Z" fill="#072E29"/>
<path d="M255.872 98.979C256.426 99.8978 256.857 100.649 257.331 101.48L258.665 103.923C259.545 105.542 260.391 107.175 261.203 108.823C262.831 112.119 264.377 115.442 265.841 118.792C267.304 122.141 268.697 125.52 270.019 128.928C271.302 132.348 272.557 135.782 273.701 139.253C278.366 153.128 281.745 167.403 283.794 181.898C284.834 189.15 285.489 196.452 285.755 203.774C285.821 205.604 285.843 207.42 285.887 209.272C285.93 211.124 285.887 212.918 285.887 214.771C285.887 216.623 285.814 218.548 285.668 220.458C285.507 222.398 285.249 224.328 284.895 226.241C284.211 230.163 283.007 233.977 281.314 237.58C279.588 241.277 277.234 244.647 274.358 247.541C271.502 250.418 268.144 252.746 264.448 254.411C262.635 255.226 260.754 255.88 258.826 256.365C257.863 256.605 256.893 256.81 255.909 256.955C255.42 257.028 254.924 257.087 254.45 257.138L253.685 257.196L252.824 257.24C252.132 257.276 251.451 257.062 250.904 256.635C250.358 256.209 249.985 255.599 249.852 254.919C249.72 254.239 249.838 253.534 250.185 252.934C250.531 252.334 251.083 251.88 251.738 251.654L252.401 251.428L252.868 251.319L253.429 251.173C253.809 251.071 254.159 250.954 254.567 250.83C255.296 250.589 256.091 250.32 256.828 250.013C258.306 249.415 259.735 248.7 261.101 247.877C262.446 247.061 263.723 246.139 264.922 245.12C266.096 244.11 267.187 243.005 268.181 241.817C270.159 239.425 271.751 236.738 272.899 233.854C273.488 232.392 273.975 230.891 274.358 229.362C274.763 227.811 275.08 226.238 275.306 224.651C275.539 223.047 275.678 221.421 275.751 219.78C275.823 218.14 275.867 216.535 275.816 214.749C275.765 212.962 275.78 211.263 275.692 209.52C275.605 207.777 275.539 206.035 275.43 204.299C274.999 197.335 274.183 190.4 273.104 183.502C270.877 169.695 267.499 156.099 263.004 142.856C260.773 136.227 258.271 129.686 255.559 123.254C254.178 120.041 252.734 116.864 251.227 113.724C250.498 112.163 249.703 110.603 248.916 109.064L247.727 106.774C247.333 106.045 246.896 105.228 246.538 104.587L246.502 104.514C245.824 103.269 245.656 101.809 246.033 100.442C246.41 99.0753 247.304 97.9086 248.525 97.1879C249.746 96.4672 251.199 96.2489 252.578 96.5789C253.957 96.909 255.154 97.7617 255.916 98.9571L255.872 98.979Z" fill="#072E29"/>
<path d="M260.503 95.5881L262.136 96.7184C262.756 97.1413 263.412 97.5934 264.047 98.0601C265.337 98.9862 266.621 99.9779 267.831 101.028C270.279 103.113 272.565 105.38 274.671 107.81C278.807 112.608 282.327 117.904 285.15 123.575C287.93 129.127 290.216 134.913 291.983 140.865C293.73 146.713 295.091 152.668 296.059 158.694C297.051 164.674 297.707 170.682 298.13 176.677C298.276 179.681 298.487 182.678 298.538 185.675L298.655 190.109L298.713 192.194L298.816 194.265C299.166 199.756 300.004 205.203 301.864 209.878C302.333 211.018 302.881 212.124 303.504 213.188C304.111 214.194 304.819 215.135 305.619 215.996C306.383 216.824 307.259 217.541 308.222 218.125C308.686 218.411 309.174 218.655 309.681 218.854C309.929 218.956 310.177 219.044 310.41 219.124L310.76 219.226L310.913 219.263H310.972C310.972 219.263 311.015 219.263 310.972 219.263C311.355 219.246 311.737 219.305 312.097 219.436C312.458 219.567 312.789 219.768 313.071 220.027C313.354 220.286 313.583 220.598 313.745 220.945C313.907 221.293 313.999 221.669 314.016 222.052C314.033 222.435 313.974 222.817 313.843 223.178C313.712 223.538 313.511 223.869 313.252 224.152C312.993 224.434 312.681 224.663 312.333 224.825C311.986 224.987 311.61 225.079 311.227 225.096H310.709H310.315C310.053 225.096 309.819 225.096 309.586 225.096C309.112 225.069 308.64 225.016 308.171 224.936C307.255 224.78 306.357 224.536 305.488 224.207C303.777 223.575 302.175 222.679 300.741 221.552C298.015 219.368 295.779 216.635 294.178 213.531C292.651 210.63 291.473 207.558 290.67 204.379C289.891 201.32 289.335 198.208 289.008 195.067L288.774 192.748L288.636 190.437L288.381 186.061C288.249 183.181 287.95 180.33 287.724 177.471C287.126 171.769 286.375 166.11 285.34 160.517C283.261 149.368 280.038 138.48 275.051 128.68C273.825 126.243 272.459 123.878 270.96 121.599C269.496 119.339 267.893 117.171 266.161 115.109C264.441 113.081 262.571 111.185 260.568 109.436C259.569 108.561 258.541 107.729 257.469 106.905C256.937 106.497 256.39 106.096 255.814 105.673C255.238 105.25 254.625 104.827 253.867 104.215C252.756 103.341 252.027 102.072 251.832 100.673C251.636 99.2735 251.99 97.8529 252.818 96.7086C253.647 95.5642 254.886 94.7849 256.276 94.5339C257.667 94.2829 259.1 94.5797 260.277 95.362L260.503 95.5881Z" fill="#072E29"/>
<path d="M250.031 178.58C239.458 177.967 232.428 184.858 233.828 190.728C233.828 190.728 230.999 244.464 230.999 244.493C230.882 246.601 239.356 243.822 239.902 243.589C255.435 236.858 265.892 225.03 270.828 209.053C273.439 200.609 270.865 179.797 250.031 178.58Z" fill="#CDACA3"/>
<path d="M118.503 38.2063C118.503 38.2063 99.7115 30.3746 106.552 20.7636C113.392 11.1526 134.947 -1.57948 167.397 0.345636C199.847 2.27076 267.795 22.1418 281.351 60.965C294.907 99.7883 234.798 104.193 212.841 89.8856C190.885 75.5784 166.843 40.9627 118.503 38.2063Z" fill="#1B1E17"/>
<path fill-rule="evenodd" clip-rule="evenodd" d="M229.985 89.5429C229.715 88.8647 230.714 87.7417 232.311 86.8521L231.75 86.6333C228.753 85.4228 226.645 83.5925 227.083 82.5425C227.52 81.4924 229.861 81.6237 232.581 82.5862C231.218 80.0413 230.853 77.6203 231.801 76.9713C232.749 76.3223 234.659 77.6349 236.3 79.9611C237.722 76.9494 239.567 74.9732 240.675 75.4108C241.784 75.8483 241.718 78.5901 240.675 81.7695C243.512 81.208 245.867 81.5872 246.101 82.7248C246.334 83.8623 244.387 85.3499 241.623 86.2323C244.183 87.4282 245.867 89.0179 245.488 89.9731C245.109 90.9284 242.294 90.8773 239.297 89.6669L238.867 89.4846C239.392 91.2274 239.341 92.7441 238.677 93.0431C238.014 93.3421 236.643 92.0003 235.833 89.9367C235.782 89.8127 235.739 89.6814 235.695 89.5575L234.74 91.9201C234.71 92 234.666 92.0732 234.608 92.1356C234.55 92.198 234.481 92.2483 234.403 92.2835C234.326 92.3188 234.242 92.3384 234.157 92.3411C234.072 92.3438 233.988 92.3296 233.908 92.2993C233.751 92.2305 233.627 92.102 233.564 91.9421C233.501 91.7821 233.504 91.6038 233.573 91.4461L234.484 89.171L234.244 89.2877C232.173 90.2065 230.291 90.3231 229.985 89.5429Z" fill="#677F49"/>
<path d="M138.338 30.1412C123.753 29.9954 120.377 39.3074 116.571 46.5631C115.207 46.4026 116.221 41.2544 108.491 38.0604C60.8662 18.3936 -6.31607 101.487 27.3516 217.993C34.3156 247.031 21.7877 258.027 14.5321 259.238C14.0753 259.338 13.6575 259.569 13.3292 259.902C13.0008 260.235 12.776 260.657 12.6819 261.115C12.5878 261.573 12.6285 262.049 12.7989 262.484C12.9694 262.92 13.2624 263.297 13.6424 263.569C16.9968 266.092 23.2972 268.353 34.7094 265.917C35.1359 265.835 35.5769 265.87 35.985 266.019C36.3932 266.168 36.753 266.425 37.0259 266.763C37.2987 267.101 37.4744 267.507 37.5339 267.938C37.5934 268.368 37.5346 268.807 37.3637 269.206C35.5698 273.647 30.8008 280.312 18.3459 282.602C17.8418 282.706 17.3841 282.968 17.0393 283.351C16.6945 283.733 16.4805 284.215 16.4285 284.728C16.3765 285.24 16.4891 285.755 16.7499 286.199C17.0108 286.643 17.4064 286.992 17.8792 287.196C30.6768 292.541 57.0524 298.965 76.1286 272.641C77.587 270.584 77.1641 270.453 74.94 269.031C43.4307 249.116 43.9266 214.77 35.3219 196.759C7.46603 138.517 88.8752 4.18126 108.622 69.0811C109.461 65.1288 112.079 52.4551 129.966 46.9422C145.892 42.0346 204.944 90.1699 207 187.68C208.335 224.206 194.261 232.745 182.047 233.372C181.543 233.413 181.065 233.61 180.68 233.937C180.294 234.264 180.022 234.704 179.901 235.195C179.78 235.685 179.816 236.202 180.005 236.67C180.194 237.139 180.526 237.536 180.953 237.806C187.403 242.034 195.116 243.901 202.785 243.093C203.212 243.062 203.639 243.146 204.022 243.336C204.405 243.525 204.731 243.814 204.965 244.171C205.199 244.529 205.334 244.943 205.354 245.37C205.375 245.797 205.281 246.222 205.082 246.6C202.895 250.976 197.061 257.969 181.791 262.227C181.31 262.385 180.89 262.69 180.591 263.098C180.292 263.507 180.129 263.999 180.124 264.505C180.119 265.011 180.273 265.507 180.564 265.921C180.856 266.335 181.269 266.647 181.748 266.814C195.683 271.328 225.099 276.33 251.22 236.705C285.821 184.246 216.137 31.0527 138.338 30.1412Z" fill="#0C3831"/>
<path d="M54.0119 112.666V129.139C54.0119 129.139 52.5535 158.716 65.5626 185.784C67.0732 188.994 69.5409 191.657 72.6266 193.406C75.7122 195.156 79.2641 195.907 82.7939 195.556L127.735 190.772C135.261 189.977 139.454 181.409 135.705 174.503C128.027 160.349 117.563 138.488 115.455 121.074C112.05 92.89 54.0119 112.666 54.0119 112.666Z" fill="#104239"/>
<path d="M114.726 110.566L116.571 125.289C116.571 125.289 127.509 158.833 151.405 182.248C153.19 184.018 155.353 185.36 157.731 186.172C160.11 186.984 162.642 187.246 165.136 186.936C169.023 186.426 170.875 181.708 168.44 178.47C159.099 166.023 141.328 140.07 138.907 119.885C135.611 92.3212 114.726 110.566 114.726 110.566Z" fill="#104239"/>
<path d="M133.146 123.582C148.131 149.309 178.831 186.805 229.066 182.736C237.452 182.058 242.776 176.691 240.005 172.826C237.234 168.961 230.569 166.919 225.902 164.477C225.902 164.477 242.725 161.166 238.575 153.356C235.396 147.369 209.473 145.51 209.473 145.51C209.473 145.51 189.332 59.9805 122.798 58.646C42.68 57.0417 3.45573 118.04 12.5709 179.921C12.5709 179.921 -0.489309 188.92 1.04204 197.422C1.04204 197.422 3.84221 201.287 15.2544 194.783C15.2544 194.783 0.932653 208.404 4.11202 214.391C7.29138 220.378 19.4765 218.117 31.3845 202.724C44.7145 185.536 43.3217 162.617 55.3172 133.259C58.132 126.353 131.629 120.972 133.146 123.582Z" fill="#104239"/>
<path d="M60.3779 102.392C61.603 110.53 56.4693 116.932 48.7105 118.113C40.9517 119.295 30.0937 121.161 28.876 113.009C27.6582 104.856 39.8141 90.695 47.624 89.5063C55.4339 88.3177 59.1601 94.2462 60.3779 102.392Z" fill="#255C51"/>
<path d="M94.2038 109.909C94.4809 116.975 89.2889 121.525 82.5364 121.744C75.7839 121.962 66.8146 121.678 66.5375 114.619C66.2604 107.56 77.1694 97.3442 83.9365 97.1182C90.7036 96.8921 93.9194 102.85 94.2038 109.909Z" fill="#255C51"/>
<path d="M111.64 112.593C112.427 118.427 108.183 122.269 102.576 123.021C96.9682 123.772 89.975 123.356 89.1948 117.5C88.4145 111.645 95.8014 103.04 101.409 102.289C107.017 101.538 110.86 106.723 111.64 112.593Z" fill="#255C51"/>
<path d="M174.675 111.193C175.404 115.882 171.685 118.522 167.193 119.214C162.701 119.907 157.604 118.522 156.904 113.833C156.204 109.144 160.98 103.128 165.472 102.45C169.964 101.772 173.967 106.497 174.675 111.193Z" fill="#255C51"/>
<path d="M191.344 109.253C191.876 112.797 188.661 114.183 185.27 114.693C183.602 114.879 181.927 114.411 180.596 113.388C179.266 112.365 178.383 110.866 178.134 109.206C177.885 107.547 178.289 105.855 179.26 104.486C180.232 103.118 181.696 102.179 183.345 101.866C186.736 101.356 190.812 105.717 191.344 109.253Z" fill="#255C51"/>
<defs>
<radialGradient id="paint0_radial_52_68" cx="0" cy="0" r="1" gradientUnits="userSpaceOnUse" gradientTransform="translate(61.5114 240.523) rotate(-10.5248) scale(24.3545 25.3879)">
<stop stop-color="#906B5F"/>
<stop offset="0.21" stop-color="#906B5F" stop-opacity="0.98"/>
<stop offset="0.38" stop-color="#906B5F" stop-opacity="0.91"/>
<stop offset="0.53" stop-color="#906B5F" stop-opacity="0.8"/>
<stop offset="0.67" stop-color="#906B5F" stop-opacity="0.63"/>
<stop offset="0.8" stop-color="#906B5F" stop-opacity="0.43"/>
<stop offset="0.93" stop-color="#906B5F" stop-opacity="0.17"/>
<stop offset="1" stop-color="#906B5F" stop-opacity="0"/>
</radialGradient>
<radialGradient id="paint1_radial_52_68" cx="0" cy="0" r="1" gradientUnits="userSpaceOnUse" gradientTransform="translate(184.013 231.491) rotate(-10.5248) scale(24.3545 25.3879)">
<stop stop-color="#906B5F"/>
<stop offset="0.21" stop-color="#906B5F" stop-opacity="0.98"/>
<stop offset="0.38" stop-color="#906B5F" stop-opacity="0.91"/>
<stop offset="0.53" stop-color="#906B5F" stop-opacity="0.8"/>
<stop offset="0.67" stop-color="#906B5F" stop-opacity="0.63"/>
<stop offset="0.8" stop-color="#906B5F" stop-opacity="0.43"/>
<stop offset="0.93" stop-color="#906B5F" stop-opacity="0.17"/>
<stop offset="1" stop-color="#906B5F" stop-opacity="0"/>
</radialGradient>
</defs>
</svg>
