<svg width="118" height="176" viewBox="0 0 118 176" fill="none" xmlns="http://www.w3.org/2000/svg">
<path d="M96.154 72.1071L49.0979 159.612C47.5226 162.536 45.3869 165.121 42.8128 167.219C40.2386 169.317 37.2763 170.888 34.0951 171.841C30.914 172.795 27.5761 173.112 24.2722 172.776C20.9684 172.439 17.7631 171.455 14.8395 169.88C11.9159 168.304 9.33122 166.169 7.233 163.595C5.13478 161.02 3.56412 158.058 2.61072 154.877C1.65731 151.696 1.33982 148.358 1.67637 145.054C2.01292 141.75 2.99693 138.545 4.57221 135.621C5.36784 134.162 6.29798 132.78 7.35051 131.494L70.6243 54.9268C73.0716 51.9793 76.5262 50.0455 80.3183 49.5004C84.1104 48.9552 87.9698 49.8375 91.1483 51.9762C94.3269 54.1149 96.5981 57.3576 97.5216 61.0757C98.4451 64.7938 97.9551 68.7224 96.1467 72.0998L96.154 72.1071Z" fill="#F8DEDB"/>
<path d="M70.5877 76.2563C70.5877 76.2563 92.2672 83.2494 106.428 69.4163C106.428 69.4163 113.91 67.7683 117.79 64.9097C117.79 64.9097 90.0139 61.9346 76.4287 49.2536L70.5877 76.2563Z" fill="#DDBCB6"/>
<path d="M47.0198 42.6104L32.3991 8.54169C31.7744 7.22948 31.6966 5.72286 32.1828 4.35327C32.6689 2.98368 33.6792 1.86331 34.9914 1.23863C36.3037 0.613957 37.8103 0.536137 39.1799 1.0223C40.5494 1.50846 41.6698 2.51877 42.2945 3.83098L59.5039 36.6455C59.9271 37.4499 60.1878 38.3298 60.271 39.2349C60.3543 40.1401 60.2584 41.0527 59.9889 41.9208C59.7194 42.7889 59.2815 43.5954 58.7003 44.2943C58.1192 44.9932 57.406 45.5707 56.6016 45.994C55.7972 46.4172 54.9173 46.6779 54.0122 46.7611C53.1071 46.8444 52.1944 46.7485 51.3263 46.479C50.4582 46.2095 49.6517 45.7716 48.9528 45.1905C48.254 44.6093 47.6764 43.8961 47.2531 43.0917C47.1729 42.9386 47.0927 42.7636 47.0198 42.6104Z" fill="#DDBCB6"/>
<path d="M64.2654 74.1198L40.5514 37.6592L52.1167 31.0963C52.1167 31.0963 60.1381 37.1268 77.3256 43.1647C93.3391 48.7651 91.0639 65.9015 85.3177 70.9769C81.8444 73.8944 77.8337 76.1041 73.5118 77.4814C71.8144 77.9985 69.9951 77.9502 68.3275 77.3439C66.6599 76.7377 65.2344 75.6062 64.2654 74.1198Z" fill="#F8DEDB"/>
<path d="M38.787 36.4851L39.3776 13.4347C39.3772 12.0168 39.9268 10.6539 40.9108 9.6329C41.8947 8.61189 43.2363 8.01233 44.6534 7.96038C46.0704 7.90842 47.4523 8.40811 48.5084 9.35432C49.5645 10.3005 50.2124 11.6195 50.3158 13.0337L52.6056 35.9747C52.6975 36.8796 52.6103 37.7938 52.3489 38.6651C52.0875 39.5363 51.6571 40.3475 51.0822 41.0524C50.5073 41.7573 49.7992 42.3421 48.9983 42.7733C48.1975 43.2046 47.3195 43.4738 46.4145 43.5658C44.5869 43.7514 42.7604 43.2035 41.3368 42.0424C39.9132 40.8814 39.0091 39.2024 38.8234 37.3748C38.7959 37.079 38.7837 36.7821 38.787 36.4851Z" fill="#F8DEDB"/>
<mask id="mask0_52_22" style="mask-type:alpha" maskUnits="userSpaceOnUse" x="0" y="68" width="103" height="108">
<path d="M55.1285 90.2427C55.1285 90.2427 47.552 83.585 52.2846 76.7523L56.1859 72.0343C56.1859 72.0343 49.1781 66.6746 43.6726 69.6789C29.1686 77.5982 -0.072785 127.141 0.000136132 148.346C0.0730573 169.552 16.6262 176.282 29.3509 175.925C50.9501 175.393 74.3797 149.673 74.3797 149.673C74.3797 149.673 87.7461 147.34 96.7956 140.558C114.931 126.973 86.7471 90.1333 86.7471 90.1333L80.7895 100.991C80.7895 100.991 66.4459 98.7963 55.1285 90.2427Z" fill="#32342C"/>
</mask>
<g mask="url(#mask0_52_22)">
<path d="M55.1285 90.2427C55.1285 90.2427 47.552 83.585 52.2846 76.7523L56.1859 72.0343C56.1859 72.0343 49.1781 66.6746 43.6726 69.6789C29.1686 77.5982 -0.072785 127.141 0.000136132 148.346C0.0730573 169.552 16.6262 176.282 29.3509 175.925C50.9501 175.393 74.3797 149.673 74.3797 149.673C74.3797 149.673 87.7461 147.34 96.7956 140.558C114.931 126.973 86.7471 90.1333 86.7471 90.1333L80.7895 100.991C80.7895 100.991 66.4459 98.7963 55.1285 90.2427Z" fill="#32342C"/>
<g style="mix-blend-mode:multiply" opacity="0.3">
<path d="M79.8417 150.891L74.3799 149.673C74.3799 149.673 43.1331 148.813 30.6271 155.77C18.1212 162.726 28.7895 168.823 44.0228 160.604C59.256 152.386 79.8417 150.891 79.8417 150.891Z" fill="#32342C"/>
</g>
<g style="mix-blend-mode:multiply" opacity="0.3">
<path d="M47.3987 79.3918C47.3987 79.3918 39.9389 77.0146 36.8033 86.8662C33.6677 96.7179 43.6068 106.183 43.6068 106.183C43.6068 106.183 58.4827 121.234 82.5103 124.639C106.538 128.045 94.0683 111.893 93.1713 108.108C91.0931 99.1608 97.9258 93.1593 97.9258 93.1593L61.3923 64.9826L47.3987 79.3918Z" fill="#32342C"/>
</g>
</g>
<mask id="mask1_52_22" style="mask-type:alpha" maskUnits="userSpaceOnUse" x="39" y="67" width="55" height="51">
<path d="M71.2661 117.588C55.5443 118.171 35.4253 105.272 39.7131 92.6855C40.3699 90.9169 41.1346 89.1903 42.0028 87.5153C48.223 77.2626 46.5968 79.4503 53.1889 68.7381C54.1588 67.1557 56.4047 66.937 56.412 68.585C56.5141 81.3389 80.177 93.947 91.8007 90.2936C93.3028 89.8269 94.0904 91.9708 93.1205 93.5678C86.5576 104.375 87.017 105.374 79.9947 115.276C78.529 117.391 72.8193 117.544 71.2661 117.588Z" fill="white"/>
</mask>
<g mask="url(#mask1_52_22)">
<path d="M71.2661 117.588C55.5443 118.171 35.4253 105.272 39.7131 92.6855C40.3699 90.9169 41.1346 89.1903 42.0028 87.5153C48.223 77.2626 46.5968 79.4503 53.1889 68.7381C54.1588 67.1557 56.4047 66.937 56.412 68.585C56.5141 81.3389 80.177 93.947 91.8007 90.2936C93.3028 89.8269 94.0904 91.9708 93.1205 93.5678C86.5576 104.375 87.017 105.374 79.9947 115.276C78.529 117.391 72.8193 117.544 71.2661 117.588Z" fill="white"/>
<path d="M49.7398 77.1165C52.4305 90.2933 73.41 101.713 87.2285 100.393C87.7659 100.372 88.2917 100.23 88.7666 99.9779C89.2414 99.7253 89.6529 99.3686 89.9704 98.9345C90.1745 98.5699 90.3787 98.2053 90.5902 97.8626C90.8017 97.5198 90.9913 97.1334 91.2027 96.7979C92.0705 95.3395 91.2027 93.3925 89.7006 93.8227C78.3103 97.1698 54.4286 84.4013 54.1807 72.0193C54.1807 70.4223 52.1316 70.4661 51.2638 71.9172L50.6367 72.9527L50.0023 73.9955C49.5549 74.9737 49.4621 76.0772 49.7398 77.1165Z" fill="#6B8A84"/>
<path d="M93.3755 91.1467C92.1504 88.0913 89.0002 85.2036 89.0002 85.2036L86.0469 90.8987C74.9045 90.3154 59.6713 81.419 56.8784 71.6111L59.715 68.1619C56.5065 66.9368 54.7783 67.5348 54.7783 67.5348C54.1164 67.7184 53.5485 68.1456 53.1886 68.7307C52.9552 69.1026 52.7219 69.4599 52.4594 69.861L51.7739 71.0131C51.2946 72.0254 51.2113 73.1803 51.5406 74.2508C54.7199 87.6173 74.9847 98.6721 88.8908 97.396C89.4466 97.3707 89.9895 97.2206 90.4794 96.9568C90.9692 96.6929 91.3933 96.3221 91.7201 95.8719L92.4056 94.7198L93.0911 93.5822C93.3217 93.2251 93.4672 92.8198 93.5165 92.3975C93.5658 91.9753 93.5176 91.5473 93.3755 91.1467Z" fill="#255C51"/>
<g style="mix-blend-mode:multiply">
<path d="M35.5491 108.735C35.5491 108.735 71.7617 107.466 80.031 87.0558C88.3002 66.6452 99.7197 91.154 99.7197 91.154L82.5249 124.639C82.5249 124.639 49.2145 128.57 35.5491 108.735Z" fill="#DCDDDD"/>
</g>
</g>
</svg>
