<svg width="214" height="177" viewBox="0 0 214 177" fill="none" xmlns="http://www.w3.org/2000/svg">
<path d="M64.7313 121.951C57.7163 120.58 47.7188 115.337 43.3289 113.93C42.6081 113.356 41.7805 112.932 40.8941 112.681C40.0077 112.431 39.0804 112.36 38.1661 112.471L27.5123 113.798L25.8716 114.002C24.5531 114.167 23.3408 114.809 22.4645 115.808C21.5881 116.806 21.1087 118.092 21.1171 119.421L16.8148 120.675L15.2761 121.134C14.5713 121.346 13.916 121.696 13.349 122.165C12.782 122.634 12.3147 123.212 11.9748 123.864C11.6349 124.517 11.4293 125.231 11.3701 125.965C11.3108 126.698 11.3993 127.436 11.6301 128.135L8.06422 129.476L6.60579 130.031C5.62822 130.395 4.77295 131.027 4.13785 131.855C3.50275 132.682 3.11347 133.672 3.01456 134.711C2.91566 135.749 3.11111 136.794 3.57856 137.727C4.04602 138.66 4.76659 139.442 5.65782 139.984L2.87952 142.566L1.77841 143.579C1.02012 144.288 0.479591 145.198 0.220267 146.202C-0.0390565 147.207 -0.00641729 148.265 0.314354 149.252C0.635126 150.238 1.23072 151.113 2.03124 151.773C2.83175 152.434 3.80398 152.852 4.83381 152.979L16.2314 154.364C16.8396 154.445 17.4582 154.39 18.0428 154.204C18.6273 154.017 19.1633 153.703 19.6122 153.285C20.0611 152.867 20.4119 152.354 20.6393 151.785C20.8667 151.215 20.9652 150.602 20.9275 149.989C38.5088 154.474 55.4411 152.177 55.4411 152.177C46.7125 129.002 64.7313 121.951 64.7313 121.951Z" fill="#F8DEDB"/>
<path d="M48.5281 153.905C42.6288 138.132 42.5121 128.703 61.6539 120.412C62.9813 119.853 64.3945 119.525 65.8323 119.442C77.0695 119.267 79.7384 119.639 92.084 120.237C93.907 120.325 95.0008 122.046 93.5424 123.555C82.2542 135.164 86.8482 145.767 94.1987 155.553C95.1539 156.822 93.7612 158.535 91.6683 158.47C77.4779 158.178 66.5761 156.428 51.496 155.888C50.8631 155.878 50.2466 155.685 49.7203 155.333C49.194 154.981 48.7801 154.486 48.5281 153.905Z" fill="white"/>
<path d="M70.4482 119.42H68.2606C66.9017 119.499 65.5713 119.844 64.3447 120.434C46.1144 129.126 45.7134 138.285 51.8387 153.978C52.1042 154.596 52.5428 155.125 53.1017 155.5C53.6606 155.875 54.3159 156.081 54.9889 156.092L56.6515 156.187L58.2631 156.289C60.3924 156.428 61.4716 156.508 63.652 156.676C62.5942 155.447 61.7288 154.065 61.0851 152.578C55.0181 139.554 55.7254 131.299 69.7263 121.819C71.0489 120.961 72.4169 120.175 73.8245 119.464C72.5046 119.428 71.841 119.42 70.4482 119.42Z" fill="#6B8A84"/>
<path d="M66.7073 119.428H65.8541C64.4162 119.511 63.0031 119.839 61.6757 120.398C42.512 128.689 42.6287 138.118 48.5499 153.89C48.8026 154.484 49.2241 154.991 49.762 155.347C50.3 155.704 50.9308 155.894 51.5761 155.896L53.2023 155.961H53.8804C56.3671 156.1 57.6432 156.195 60.2173 156.392C59.2256 155.743 58.2557 153.73 57.7598 152.578C51.8168 138.934 52.4731 130.949 67.3052 121.659C68.7526 120.824 70.2504 120.078 71.7899 119.428C69.8648 119.406 68.873 119.406 66.7073 119.428Z" fill="#255C51"/>
<mask id="mask0_52_3" style="mask-type:alpha" maskUnits="userSpaceOnUse" x="69" y="7" width="136" height="170">
<path d="M155.797 17.2218C140.281 29.8037 135.877 50.7211 135.39 70.6914C134.99 87.1027 134.823 102.875 134.823 102.875C134.823 102.875 124.731 103.604 127.21 111.523C127.21 111.523 112.4 112.916 97.6118 113.827C82.8233 114.739 52.86 165.405 80.6211 173.929C108.382 182.454 139.257 171.143 163.656 165.259C189.587 159.009 199.067 160.606 203.377 147.984C207.686 135.361 198.316 47.7754 193.78 25.9063C188.784 1.79672 171.118 4.79728 155.797 17.2218Z" fill="#32342C"/>
</mask>
<g mask="url(#mask0_52_3)">
<path d="M155.797 17.2218C140.281 29.8037 135.877 50.7211 135.39 70.6914C134.99 87.1027 134.823 102.875 134.823 102.875C134.823 102.875 124.731 103.604 127.21 111.523C127.21 111.523 112.4 112.916 97.6118 113.827C82.8233 114.739 52.86 165.405 80.6211 173.929C108.382 182.454 139.257 171.143 163.656 165.259C189.587 159.009 199.067 160.606 203.377 147.984C207.686 135.361 198.316 47.7754 193.78 25.9063C188.784 1.79672 171.118 4.79728 155.797 17.2218Z" fill="#32342C"/>
<g style="mix-blend-mode:multiply" opacity="0.3">
<path d="M179.772 136.798C184.876 149.377 193.43 142.632 188.923 132.481C180.946 114.564 127.21 111.524 127.21 111.524C127.21 111.524 172.866 119.888 179.772 136.798Z" fill="#32342C"/>
</g>
<g style="mix-blend-mode:multiply" opacity="0.3">
<path d="M130.827 102.131L134.823 102.86C134.823 102.86 179.232 95.8016 177.541 77.1119C176.811 68.8427 167.704 78.862 166.551 81.8518C162.986 91.1128 142.196 101.001 134.991 101.271C127.787 101.541 130.827 102.131 130.827 102.131Z" fill="#32342C"/>
</g>
</g>
<path d="M212.244 16.6091C209.517 14.684 197.463 6.40014 188.085 2.60095C187.874 2.60095 187.64 2.52073 187.458 2.50615C187.314 2.38965 187.163 2.28248 187.006 2.18529C184.089 1.09148 181.435 0.581028 179.531 0.836252C170.876 1.9957 163.387 7.66897 156.627 14.2538C156.584 14.2915 156.545 14.333 156.51 14.3777L156.415 14.4579C152.482 18.3136 148.808 22.4256 145.419 26.767H145.477C144.93 27.4962 144.405 28.2255 143.902 28.889C139.172 35.4659 136.447 43.2715 136.056 51.3634L135.771 57.1023C139.665 56.3293 143.29 53.0697 143.399 49.1611C143.422 47.6384 143.025 46.1388 142.254 44.8258C141.482 43.5129 140.365 42.4371 139.024 41.7159C140.563 41.9445 142.136 41.7386 143.565 41.1215C144.994 40.5044 146.222 39.5005 147.111 38.223C148.156 36.5226 148.634 34.534 148.475 32.5443C148.317 30.5546 147.53 28.6668 146.228 27.1535C147.883 28.0467 149.791 28.3562 151.643 28.032C153.495 27.7079 155.184 26.769 156.437 25.3669C157.786 23.7631 158.491 21.715 158.413 19.6208C158.404 17.9579 157.954 16.3272 157.108 14.8955C160.331 17.2144 164.75 17.2071 167.594 14.9684C169.171 13.6917 170.211 11.8704 170.511 9.8639C170.803 8.3188 170.708 6.72546 170.234 5.22611C171.168 6.43464 172.365 7.41467 173.734 8.09191C176.6 9.17844 181.026 9.43366 182.485 9.11281C184.034 8.60888 185.401 7.66044 186.415 6.38556C186.695 7.30111 187.151 8.15323 187.757 8.89405C189.147 10.5181 190.894 11.7984 192.861 12.6349C195.844 13.8819 198.804 13.7579 200.452 12.3797C201.594 15.5477 203.838 18.1986 206.775 19.8468C211.974 22.3043 213.593 20.1677 213.71 18.1842C213.271 17.6148 212.78 17.0875 212.244 16.6091Z" fill="#677F49"/>
</svg>
