<svg width="70" height="71" viewBox="0 0 70 71" fill="none" xmlns="http://www.w3.org/2000/svg">
<path d="M14.3938 0.500036C12.5024 0.495806 10.6288 0.865224 8.88053 1.58708C7.13229 2.30893 5.54386 3.36901 4.20643 4.70643C2.86901 6.04386 1.80893 7.63229 1.08708 9.38053C0.365224 11.1288 -0.00419412 13.0024 3.59199e-05 14.8938V56.1062C-0.00419412 57.9976 0.365224 59.8712 1.08708 61.6195C1.80893 63.3677 2.86901 64.9561 4.20643 66.2936C5.54386 67.631 7.13229 68.6911 8.88053 69.4129C10.6288 70.1348 12.5024 70.5042 14.3938 70.5H55.6062C57.4976 70.5042 59.3712 70.1348 61.1195 69.4129C62.8677 68.6911 64.4561 67.631 65.7936 66.2936C67.131 64.9561 68.1911 63.3677 68.9129 61.6195C69.6348 59.8712 70.0042 57.9976 70 56.1062V14.8938C70.0042 13.0024 69.6348 11.1288 68.9129 9.38053C68.1911 7.63229 67.131 6.04386 65.7936 4.70643C64.4561 3.36901 62.8677 2.30893 61.1195 1.58708C59.3712 0.865224 57.4976 0.495806 55.6062 0.500036H14.3938ZM37.1729 13.7621C43.5342 13.7621 49.0087 15.7338 52.92 19.1492C54.869 20.8347 56.4299 22.9224 57.4953 25.2687C58.5607 27.6149 59.1053 30.1641 59.0916 32.7408C59.1062 38.1483 56.525 42.8792 52.5087 46.0496C48.4983 49.2346 43.1025 50.9991 37.1729 50.9991C30.4238 50.9991 24.1646 48.5433 24.1646 48.5433V56.4708C25.3225 56.8091 27.2213 57.5354 26.0167 58.7429H16.8875C15.6917 57.5471 17.4417 56.8471 18.7659 56.4708V22.8592C15.6946 25.2217 14.1196 27.2633 13.3175 28.7829C14.2509 31.7579 12.4892 31.6092 12.4892 31.6092L9.31003 26.5633C9.31003 26.5633 20.5917 13.7592 37.1729 13.7592V13.7621ZM36.6187 16.5942C32.4683 16.5854 27.3321 17.9738 24.1646 20.2225V45.44C27.0463 46.8604 31.4096 47.8666 36.5896 47.8666H36.6187C41.2737 47.8666 45.3104 46.1371 48.0812 43.3954C50.8579 40.6304 52.4154 37.0283 52.4329 32.6533C52.4183 28.1617 50.9629 24.3 48.2912 21.395C45.6137 18.5017 41.6587 16.5971 36.6187 16.5942Z" fill="#E9E0D9"/>
</svg>
