<svg width="45" height="46" viewBox="0 0 45 46" fill="none" xmlns="http://www.w3.org/2000/svg">
<path 
fill-rule="evenodd" 
clip-rule="evenodd" 
d="M12.0607 37.483C10.9245 36.3354 12.092 33.2383 14.6868 30.1513C14.2344 30.1668 13.7753 30.1748 13.3106 30.1748C5.95937 30.1748 0 28.1852 0 25.731C0 23.4662 5.07499 21.5971 11.6355 21.3221C6.59104 17.2973 3.76514 12.717 5.21485 10.6259C6.65353 8.55075 11.8131 9.63356 17.2377 12.984C17.6886 5.74521 19.8981 0.25 22.5557 0.25C25.2294 0.25 27.4494 5.81167 27.8817 13.1151C33.3926 9.64873 38.6827 8.50331 40.1424 10.6088C41.5959 12.7054 38.7513 17.3042 33.6819 21.3367C40.0879 21.6578 44.9999 23.5029 44.9999 25.731C44.9999 28.1852 39.0405 30.1748 31.6893 30.1748C31.3302 30.1748 30.9744 30.17 30.6225 30.1607C33.2185 33.2484 34.3869 36.3466 33.2504 37.4944C31.9415 38.8165 28.0707 37.0504 24.6048 33.5498C24.3942 33.3371 24.1899 33.1229 23.9923 32.9078V43.8149C23.9923 44.6074 23.3498 45.2499 22.5573 45.2499C21.7648 45.2499 21.1224 44.6074 21.1224 43.8149V33.1074C20.9866 33.2516 20.8479 33.3953 20.7063 33.5383C17.2404 37.0389 13.3696 38.805 12.0607 37.483Z" 
fill="#6e954c"/>
</svg>
