<svg width="88" height="88" viewBox="0 0 88 88" fill="none" xmlns="http://www.w3.org/2000/svg">
<circle cx="44.4407" cy="43.5593" r="43.5593" fill="#E9E0D9"/>
<path fill-rule="evenodd" clip-rule="evenodd" d="M40.9655 70.4514C38.8876 69.7648 38.3919 65.3068 39.6257 59.983C39.0891 60.2801 38.5396 60.5721 37.9786 60.8579C29.1021 65.3808 20.6821 66.6449 19.1722 63.6815C17.7787 60.9467 22.7569 55.5674 30.5097 51.1989C21.942 49.4426 15.7116 45.6506 16.1756 42.2336C16.636 38.8427 23.5324 36.9757 32.1438 37.6839C28.2347 28.6657 27.5217 20.671 30.7308 19.0359C33.9592 17.3909 40.0616 22.7406 45.077 31.2933C49.5987 23.7173 55.2817 19.0795 58.3396 20.7238C61.3847 22.3612 60.7792 29.6646 57.1387 37.653C65.0717 34.0992 72.1383 33.3049 73.5092 35.9954C75.0191 38.9589 69.0473 45.0277 60.1707 49.5505C59.7372 49.7714 59.3048 49.9845 58.8742 50.1898C63.9083 52.3209 67.2251 55.3431 66.559 57.4282C65.7919 59.8298 60.0313 60.0788 53.6925 57.9843C53.3074 57.857 52.9289 57.724 52.558 57.5859L59.2686 70.7563C59.7562 71.7132 59.3757 72.8842 58.4188 73.3718C57.4619 73.8594 56.2908 73.4789 55.8033 72.522L49.2155 59.5927C49.1402 59.8504 49.0611 60.1092 48.9782 60.369C46.9468 66.7284 43.3594 71.2424 40.9655 70.4514Z" fill="#0F2D28"/>
</svg>
