<?xml version="1.0" encoding="UTF-8"?>
<svg id="_圖層_4" data-name="圖層 4" xmlns="http://www.w3.org/2000/svg" viewBox="0 0 376.16 376.16">
   <defs>
    <style>
      .cls-0 {
        fill: #fff1c5;
      }

      .cls-0:hover {
        fill: #BB8058;
      }

      .checked {
        fill: #fbaa31 !important;
      }
    </style>
    <filter id="inset-shadow">
      <feOffset dx="8" dy="8" /> <!-- Shadow Offset -->
      <feGaussianBlur stdDeviation="5" result="offset-blur" /> <!-- Shadow Blur -->
      <feComposite operator="out" in="SourceGraphic" in2="offset-blur" result="inverse" />
      <!-- Invert the drop shadow to create an inner shadow -->
      <feFlood flood-color="black" flood-opacity="1" result="color" /> <!-- Color & Opacity -->
      <feComposite operator="in" in="color" in2="inverse" result="shadow" /> <!-- Clip color inside shadow -->
      <feComponentTransfer in="shadow" result="shadow">
        <!-- Shadow Opacity -->
        <feFuncA type="linear" slope=".75" />
      </feComponentTransfer>
      <feComposite operator="over" in="shadow" in2="SourceGraphic" />
      <!-- Put shadow over original object -->
    </filter>
  </defs>
  <path class="cls-0" filter="url(#inset-shadow)" d="M313,236.46c0-26.68,0-53.36-.01-80.04,0-1.36-.08-2.73-.28-4.07-.63-4.03-2.7-7.21-6.54-8.63-2.39-.89-5.11-1.21-7.68-1.22-18.88-.1-37.76-.05-56.64-.05h-3.66c0-8.51-.11-66.44-.11-74.57H63.89c0,6.42-.05,102.54-.07,149.4h0v24.99h74.63v3.82c0,18.79-.02,37.57,.02,56.36,0,2.03,.07,4.13,.58,6.07,1.52,5.75,6.03,8.51,13.6,8.51,43.99,.01,87.98,0,131.96,0,.94,0,1.88,0,3.5,0-7.65-13.19-14.98-25.82-22.47-38.74-9.04,9.06-17.87,17.92-27.18,27.25v-100.48c24.48,14.27,48.66,28.37,73.3,42.74v10.97c-7.9,2.38-15.56,4.69-23.55,7.1,8.22,13.98,16.28,27.68,24.34,41.38,.15-.08,.3-.15,.45-.23v-70.57h0Zm-99.91-94h-3.87c-18.59,0-37.18,0-55.76,.01-1.65,0-3.32,.04-4.95,.28-4.52,.66-7.8,3.09-9.16,7.48-.68,2.18-.86,4.58-.86,6.89-.07,18.79-.04,37.57-.04,56.36v3.82h-51.54l.63-124.71h125.77c-.09,19.8-.22,44.66-.22,49.88Z"/>
</svg>