<?xml version="1.0" encoding="UTF-8"?>
<svg id="_圖層_1" data-name="圖層 1" xmlns="http://www.w3.org/2000/svg" viewBox="0 0 376.16 376.16">
  <defs>
    <style>
      .cls-0 {
        fill: #fff1c5;
      }

      .cls-0:hover {
        fill: #BB8058;
      }

      .checked {
        fill: #fbaa31 !important;
      }
    </style>
    <filter id="inset-shadow">
      <feOffset dx="5" dy="10" /> <!-- Shadow Offset -->
      <feGaussianBlur stdDeviation="4" result="offset-blur" /> <!-- Shadow Blur -->
      <feComposite operator="out" in="SourceGraphic" in2="offset-blur" result="inverse" />
      <!-- Invert the drop shadow to create an inner shadow -->
      <feFlood flood-color="black" flood-opacity="1" result="color" /> <!-- Color & Opacity -->
      <feComposite operator="in" in="color" in2="inverse" result="shadow" /> <!-- Clip color inside shadow -->
      <feComponentTransfer in="shadow" result="shadow">
        <!-- Shadow Opacity -->
        <feFuncA type="linear" slope=".75" />
      </feComponentTransfer>
      <feComposite operator="over" in="shadow" in2="SourceGraphic" />
      <!-- Put shadow over original object -->
    </filter>
  </defs>
  <path class="cls-0" filter="url(#inset-shadow)"
    d="M336.53,111.7c-7.07-5-11.51-11.41-13.05-19.94-.68-3.77-2.05-7.43-2.64-11.22-2.01-12.85-9.35-19.68-22.28-21.3-11.77-1.47-22.97-4.21-29.88-15.68-2.59-4.3-8.69-4.94-13.55-2.97-5.06,2.05-7.71,6.29-7.6,13.53,1.64,10.83,3.65,23.01,5.24,35.25,.1,.79,.27,1.52,.47,2.22-.02,0-.04-.02-.06-.03-16.14-7.38-33.01-9.45-50.33-5.91-26.71,5.46-46.31,20.58-58.66,44.91-16.58,32.66-46,90.91-59.97,118.6-3.82,7.56-3.28,16.43,1.08,23.4-.37-.37-10.92,17.73-15.58,26.96-2.89,5.72-2.45,10.16,1.28,13.96,3.62,3.68,8.48,4.24,13.97,1.49,8.72-4.37,27.54-14.12,28.14-14.5,5.73,3.53,12.92,4.14,19.29,1.39,11.28-4.87,27.03-11.79,35.66-16.17,30.48-15.46,61.27-30.36,91.34-46.57,36.82-19.85,52.19-65.67,35.9-104-.5-1.17-1.23-2.24-1.99-3.3,11.39,1.75,22.76,3.65,34.22,4.76,3.4,.33,7.78-1.2,10.46-3.39,7.06-5.78,6.24-16.02-1.47-21.47Zm-115.43,19.38c-2.27,2.28-4.82,3.64-7.56,1.08-3.16-2.96-1.6-5.92,1.43-8.59,4.6-4.06,9.01-8.35,13.04-12.98,7.29-8.37,15.57-14.54,26.79-15.41,.86,1.41,1.94,2.69,3.24,3.97,2.41,2.37-10.73,5.87-18.16,13.18-6.31,6.2-12.53,12.49-18.77,18.76Zm59.79,21.04c-6.33,6.41-12.73,12.75-19.09,19.13-2.34,2.35-4.91,4.13-7.9,1.29-3.21-3.05-1.4-5.72,1.11-8.22,6.28-6.23,12.5-12.52,18.77-18.77,6.66-6.64,11.78-18.78,14.84-15.72,.74,.74,1.75,1.52,2.72,1.67,.02,0,.03,0,.05,0-1.95,8.07-4.92,14.95-10.51,20.61Z" />
</svg>