<?xml version="1.0" encoding="UTF-8"?>
<svg id="_圖層_6" data-name="圖層 6" xmlns="http://www.w3.org/2000/svg" viewBox="0 0 376.16 376.16">
  <defs>
    <style>
      .cls-0 {
        fill: #fff1c5;
      }

      .cls-0:hover {
        fill: #BB8058;
      }

      .checked {
        fill: #fbaa31 !important;
      }
    </style>
    <filter id="inset-shadow">
      <feOffset dx="5" dy="10" /> <!-- Shadow Offset -->
      <feGaussianBlur stdDeviation="4" result="offset-blur" /> <!-- Shadow Blur -->
      <feComposite operator="out" in="SourceGraphic" in2="offset-blur" result="inverse" />
      <!-- Invert the drop shadow to create an inner shadow -->
      <feFlood flood-color="black" flood-opacity="1" result="color" /> <!-- Color & Opacity -->
      <feComposite operator="in" in="color" in2="inverse" result="shadow" /> <!-- Clip color inside shadow -->
      <feComponentTransfer in="shadow" result="shadow">
        <!-- Shadow Opacity -->
        <feFuncA type="linear" slope=".75" />
      </feComponentTransfer>
      <feComposite operator="over" in="shadow" in2="SourceGraphic" />
      <!-- Put shadow over original object -->
    </filter>
  </defs>
  <path class="cls-0" filter="url(#inset-shadow)"
    d="M311.22,118.39c-.04-13.82-10.28-24.02-24.15-24.03-16.08-.02-32.16,0-48.23,0h-3.39c0-3.47,.02-6.61,0-9.74-.07-11.93-7.49-22.42-18.74-26.47-1.63-.59-3.29-1.13-4.93-1.69h-47.36c-.23,.17-.43,.43-.69,.5-15.21,4.07-22.99,14.12-22.99,29.73,0,2.52,0,5.03,0,7.67h-3.69c-16.28,0-32.55-.04-48.83,.01-12.69,.04-23.17,10.5-23.26,23.14-.05,6.41-.03,12.82,0,19.23,.03,5.71,3.95,9.69,9.65,9.69,2,0,4,0,6,0-.64,.74-.8,1.96-.7,3.9,.21,4.14,.39,8.27,.6,12.41,1.32,26.69,2.68,53.38,3.95,80.08,1.09,22.75,2.12,45.51,3.1,68.27,.84,19.41,16.43,28.73,30.2,28.63,47.35-.36,94.71-.15,142.06-.13,8.47,0,15.54-3.13,21.27-9.29,5.38-5.79,7.29-12.87,7.6-20.6,.59-14.78,1.28-29.56,1.98-44.33,.89-18.81,1.84-37.63,2.76-56.44,.94-19.31,1.84-38.61,2.81-57.92,.12-2.38,.02-3.77-.68-4.58,2,0,4.01,0,6.01,0,5.7,0,9.61-3.96,9.65-9.69,.03-6.12,.02-12.23,0-18.35Zm-161.02,52.16c0,40.05,0,80.11,0,120.16,0,5.14-2.13,8.73-6,10.26-6.38,2.52-12.87-2.1-12.93-9.35-.09-9.86-.02-19.73-.02-29.6,0-10.46,0-20.92,0-31.37,0-20.13,0-40.25,0-60.38,0-4.91,2.17-8.46,5.99-9.96,5.92-2.32,12.21,1.65,12.91,8.16,.07,.68,.05,1.38,.05,2.07Zm47.37,42.19c0,6.02,0,12.04,0,18.05,0,20.03,0,40.05,0,60.08,0,5.19-2.33,8.83-6.44,10.23-5.91,2-11.91-2.06-12.48-8.47-.06-.69-.03-1.38-.03-2.07,0-39.96,0-79.91,0-119.87,0-5.49,2.22-9.09,6.44-10.52,6.41-2.16,12.47,2.43,12.5,9.64,.07,14.31,.02,28.61,.02,42.92Zm47.36,17.9c0,20.13,0,40.25,0,60.38,0,4.88-2.2,8.46-6.01,9.96-5.9,2.32-12.23-1.68-12.9-8.18-.07-.68-.04-1.38-.04-2.07,0-40.05,0-80.11,0-120.16,0-5.16,2.11-8.73,6-10.25,6.4-2.5,12.85,2.09,12.93,9.35,.09,8.68,.02,17.36,.02,26.05,0,11.64,0,23.28,0,34.92ZM159.72,84.51c.31-5.16,4.26-9.03,9.49-9.07,12.61-.11,25.22-.12,37.83,0,5.12,.05,9,3.78,9.39,8.84,.24,3.22,.05,6.46,.05,9.88h-56.79c0-3.37-.15-6.53,.03-9.66Z" />
</svg>