<?xml version="1.0" encoding="UTF-8"?>
<svg id="_圖層_6" data-name="圖層 6" xmlns="http://www.w3.org/2000/svg" viewBox="0 0 376.16 376.16">
  <defs>
    <style>
      .cls-0 {
        fill: #fceec3;
      }
    </style>
    <filter id="inset-shadow">
      <feOffset dx="10" dy="10" /> <!-- Shadow Offset -->
      <feGaussianBlur stdDeviation="6" result="offset-blur" /> <!-- Shadow Blur -->
      <feComposite operator="out" in="SourceGraphic" in2="offset-blur" result="inverse" />
      <!-- Invert the drop shadow to create an inner shadow -->
      <feFlood flood-color="black" flood-opacity="1" result="color" /> <!-- Color & Opacity -->
      <feComposite operator="in" in="color" in2="inverse" result="shadow" /> <!-- Clip color inside shadow -->
      <feComponentTransfer in="shadow" result="shadow">
        <!-- Shadow Opacity -->
        <feFuncA type="linear" slope=".75" />
      </feComponentTransfer>
      <feComposite operator="over" in="shadow" in2="SourceGraphic" />
      <!-- Put shadow over original object -->
    </filter>
  </defs>
  <path class="cls-0" filter="url(#inset-shadow)"
    d="M312.98,124.7c-22.04-35.38-62.54-56.26-104.18-54.06-53.97,2.7-97.59,40.82-112.64,90.37h-24.47c-9.95,0-18.93,5.52-23.42,14.4-4.49,8.88-3.61,19.38,2.29,27.4l67.94,92.2c5,6.78,12.7,10.67,21.12,10.67s16.12-3.89,21.12-10.67l67.94-92.2c8.64-11.72,6.52-28.76-7.42-38.29-3.42-2.34-7.5-3.51-11.64-3.51h-17.81c13.31-18.4,39.1-23.24,59.4-11.06,14.05,8.26,23.93,23.5,26.46,40.13,.78,5.12,.96,10.39,.5,15.55-1.54,16.17-9.2,31.26-21.86,42.19-9.79,8.48-22.49,13.96-36.11,15.11-19.5,2.38-19.12,30.22,.64,31.91,47.98,3.21,91.36-29.73,104.99-75.51,9.65-31.52,4.85-66.74-12.86-94.63Z" />
</svg>