<?xml version="1.0" encoding="UTF-8"?>
<svg id="_圖層_2" data-name="圖層 2" xmlns="http://www.w3.org/2000/svg" viewBox="0 0 468.58 463.32">
  <defs>
    <style>
      .cls-1 {
        fill: #fae173;
      }

      .cls-2 {
        fill: #d6b351;
        filter: drop-shadow(10px -30px 30px rgb(0 0 0 / 0.5));
      }
    </style>
  </defs>
  <path class="cls-2" d="M379.11,214.22c1.33-.19,2.75-.38,2.74-.56-.01-.32-3.25-.57-3.26-.89,0-.2-.65-.38-1.14-.57,.29-.83,.64-1.74,.55-1.91,.15-.13,.27-.25,.26-.37-.02-.32,.44-.65,.42-.98-.02-.32,.74-.68,.71-1-.03-.32,.21-.65,.18-.98s1.2-.77,1.17-1.05c-.03-.28-1.07-.53-1.11-.85-.04-.32,1.47-.81,1.43-1.09-.04-.29-1.07-.53-1.11-.85-.04-.32,.97-.76,.91-1.07-.06-.31-3-.35-3-.67s-.95-.53-1-.85,2.39-.96,2.33-1.24c-.06-.28-.67-.53-.72-.85s-1.27-.48-1.32-.8c-.05-.31-2.07-.35-2.13-.67s2.31-.98,2.25-1.29-.1-.63-.16-.94c-.06-.31-2.99-.18-3.06-.49s2.85-1.11,2.85-1.43-2.93-.14-3-.46c-.07-.31,4.77-1.5,4.69-1.81-.08-.31-1.45-.39-1.53-.7-.08-.31-1.52-.36-1.61-.68-.09-.31,.7-.79,.61-1.1-.09-.31,.2-.66,.14-1.02-.06-.36,1.11-.89,1-1.2-.11-.31-3.9,.2-4-.12-.1-.31,1.69-1.04,1.59-1.35s-2.26-.14-2.36-.44c-.1-.31,3.44-1.5,3.34-1.8-.1-.3-2.77,0-2.84-.3-.07-.31,.04-.67-.07-.98-.11-.31,1.81-1.17,1.7-1.45-.11-.28-3.53,.31-3.64,0-.11-.31-.22-.61-.34-.91-.12-.3,3.27-1.6,3.15-1.9s-1.07-.36-1.2-.67,.34-.8,.21-1.09c-.13-.3-1.48-.22-1.61-.53-.13-.31-1.5-.22-1.63-.52-.13-.3,.93-.98,.79-1.27-.14-.3-1.26-.27-1.4-.57-.14-.3-1.22-.26-1.36-.56-.14-.3-.92-.36-1.07-.65-.15-.29,1.55-1.23,1.39-1.52-.16-.29,1.15-1.12,1-1.41-.15-.29,.52-.92,.37-1.19-.15-.26-.35-.55-.5-.85-.15-.3-2.52,.25-2.66-.04-.14-.29,1.15-1.15,1-1.44-.15-.29,.15-.78,0-1.07s-.99-.31-1.15-.6c-.16-.29-2.12,.15-2.28-.12-.16-.27-.29-.56-.46-.85-.17-.29-.24-.61-.42-.89-.18-.28,.79-1.06,.62-1.35-.17-.29-1.07-.25-1.25-.53-.18-.28,.27-.85,.09-1.13-.18-.28-.49-.52-.67-.79s-.74-.4-.93-.65c-.19-.25,.19-.82,0-1.1-.19-.28-2.31,.4-2.5,.13-.19-.27,2.05-1.77,1.86-2.04-.19-.27,.52-1.03,.33-1.3-.19-.27-4.51,1.6-4.71,1.33s.51-1.01,.31-1.28c-.2-.27-.52-.48-.72-.74s1.53-1.6,1.34-1.86,1.17-1.43,1-1.7-4.79,1.96-5,1.7,.36-.97,.15-1.23c-.21-.26,2.79-2.41,2.58-2.67s-4.47,1.88-4.68,1.62c-.21-.26,.94-1.33,.72-1.6s-1.25,0-1.47-.26c-.22-.25-1.11-.04-1.33-.33-.22-.29,1.01-1.44,.78-1.7s-1.23,0-1.46-.25c-.23-.25,.8-1.32,.57-1.57-.23-.25-.83-.25-1.06-.5-.23-.25,.82-1.37,.58-1.62-.24-.25,.59-1.25,.36-1.49-.23-.25-.8-.25-1.07-.5-.27-.25-1.99,.6-2.27,.36-.28-.25-.76-.32-1-.56-.24-.24-.87-.24-1.12-.43-.25-.2,1.04-1.65,.84-1.89-.2-.24-2.95,1.37-3.2,1.14-.25-.23,2.32-2.63,2.07-2.87-.25-.24-3.53,1.88-3.78,1.65s.58-1.32,.32-1.54-.3-.62-.56-.85-.12-.78-.38-1.01c-.26-.23-1.44,.33-1.71,.1s1.36-2.08,1.1-2.28-3.05,1.72-3.32,1.49,.56-1.43,.33-1.65,.04-.91-.23-1.17-1.32,.17-1.59,0-1.19,.2-1.47,0-.09-.83-.37-1.05c-.28-.22,1.35-2.22,1.07-2.44-.28-.21-1.52,.49-1.8,.28-.28-.21,1.08-2.03,.8-2.24-.28-.21-1.11,.08-1.37-.14s-2.74,1.76-3,1.54,1.29-2.32,1-2.48-2.77,1.9-3.06,1.7-.88-.06-1.18-.25c-.3-.2,1.17-2.27,.88-2.46s-1.51,.61-1.81,.42c-.3-.2-.11-.9-.41-1.09s-.06-.99-.36-1.18c-.3-.19-1.76,.95-2.07,.76-.31-.19,1.42-2.72,1.12-2.91-.3-.19-2.66,2.04-2.94,1.82s1.02-2.37,.72-2.55c-.3-.18-1.34,.51-1.65,.33s-.83-.08-1.14-.26c-.31-.19-1.45,.68-1.76,.5-.31-.18,1.54-3.11,1.23-3.28-.31-.18-1.28,.48-1.6,.31-.32-.17-1.77,1.16-2.09,.99-.32-.17-1.16,.44-1.52,.27-.36-.17-.68-.29-1-.46-.32-.17,1.51-3.33,1.19-3.49-.32-.16-.62-.38-.94-.54-.32-.16-1.76,1.26-2.08,1.1-.32-.16-.43-.62-.76-.79-.33-.17-.28-.87-.61-1.02s-1.06,.34-1.39,.14c-.33-.2-1.61,1.65-1.94,1.5-.33-.15,.06-1.43-.27-1.57-.33-.14-.17-1.13-.5-1.23-.33-.1,.63-2.4,.3-2.55-.33-.14-3.1,3.73-3.44,3.63-.34-.09,1.62-4.2,1.29-4.34-.33-.14-1.09,.43-1.43,.29-.34-.14-.41-.78-.75-.92-.34-.14-1.44,1.12-1.8,.98-.36-.14-1.02,.36-1.36,.22-.34-.14,.22-1.97-.12-2.11-.34-.14-.9,.13-1.25,0-.35-.13-1.43,1.15-1.76,1.03-.33-.13-.98,.36-1.33,.23-.35-.13-.79,0-1.14-.13-.35-.13-.08-1.52-.43-1.64s-1.07,.6-1.42,.46c-.35-.14,.64-3.24,.32-3.39-.32-.15-2.65,4.17-3,4.09-.35-.08,.28-2.44-.07-2.55-.35-.11-.24-1.31-.59-1.46-.35-.15-1.22,.95-1.57,.85s-1.06,.66-1.41,.56c-.35-.1-.33-1.18-.68-1.28-.35-.1,.09-2.26-.29-2.35-.38-.09-1.02,.53-1.38,.48s-.51-.76-.87-.85c-.36-.09-1.91,3.11-2.25,3.02-.34-.08-.64-.33-1-.42-.36-.09,.13-2.69-.24-2.77-.37-.08-.57-.65-.95-.74-.38-.08-2.02,3.95-2.38,3.87-.36-.08-.17-1.96-.53-2.04-.36-.08-.1-2.35-.46-2.4-.36-.05-.55-.84-.92-.9-.37-.06-.82,.07-1.18,0-.36-.07-1.08,1.14-1.45,1.07-.37-.07-1.52,2.94-1.88,2.87-.36-.07-.37-1.53-.74-1.59-.37-.06-.09-2.89-.46-2.95-.37-.06-.76-.09-1.13-.14-.37-.05-1.31,2.26-1.63,2.2-.32-.06-.94,.95-1.32,.9-.38-.05-.03-3.82-.38-3.87-.35-.05-1,1.04-1.35,1-.35-.04-.94,1.25-1.35,1.2-.41-.05-1.04,1.69-1.41,1.65-.37-.04-.13-3.95-.5-4-.37-.04-.95,1.19-1.32,1.19s-1.06,2.58-1.48,2.55c-.42-.03-.62-1.17-1-1.2-.38-.03-.51-2.07-.88-2.1-.37-.03-.67-.76-1.05-.78-.38-.03-1.11,3.33-1.48,3.3-.37-.03-.44-3.29-.81-3.32-.37-.03-.92,1.44-1.26,1.43-.34-.02-.64-1.38-1-1.41-.36-.03-.99,3.46-1.36,3.46s-.53-4.24-.87-4.24-.92,4.24-1.34,4.24-.63-4.23-1-4.24c-.37,0-.87,3.61-1.24,3.56-.37-.05-.71-.85-1.09-.85s-.73-1.21-1.11-1.21-.75-.64-1.13-.64-.76-.09-1.14-.09-.71,2.59-1.09,2.59-.78-1.71-1.16-1.7c-.38,0-.69,1.51-1.07,1.52s-.76-.22-1.13-.2c-.37,.02-.88-3.16-1.29-3.14-.41,.02-.65,2.92-1,2.94-.35,.02-.63,1.37-1,1.38-.37,.02-1.05-4.02-1.43-4.01-.38,.02-.79-.31-1.17-.28s-.68,.48-1.1,.53c-.42,.05-.63,1.72-1,1.75-.37,.03-.58,1.74-.92,1.79-.34,.05-.97-1.74-1.34-1.7-.37,.04-.46,2.19-.83,2.22-.37,.03-.78-.29-1.15-.25-.37,.04-1.13-2.43-1.5-2.43s-.77-.04-1.14,0-.51,1.47-.88,1.52c-.37,.05-.54,1.23-.91,1.28-.37,.05-1.16-2.15-1.53-2.1-.37,.05-.53,1.18-.9,1.23s-1.17-1.94-1.54-1.88c-.37,.06-.54,1.08-.91,1.14-.37,.06-.32,1.95-.69,2.01-.37,.06-.5,.89-.91,.96-.41,.07-.64,.64-1,.71-.36,.07-1.25-1.97-1.62-1.9-.37,.07-1.42-2.41-1.78-2.31-.36,.1-.1,2.47-.47,2.55-.37,.08-1.35-1.97-1.71-1.89s-.51,.98-.87,1.05-.57,.67-.94,.75c-.37,.08,.13,2.89-.23,2.98-.36,.08-1.44-2.08-1.8-1.99-.36,.08-1.32-1.53-1.65-1.4-.33,.13,.36,3.31,0,3.39-.36,.08-.52,.59-.92,.68-.4,.09-2.04-3.45-2.4-3.35-.36,.1,.26,2.83-.1,2.9-.36,.07-1.46-1.72-1.82-1.63-.36,.09-.29,1.28-.65,1.38s.1,2.2-.25,2.31-2.27-3.55-2.62-3.44c-.35,.11,.86,3.92,.51,4.03-.35,.11-.56,.5-.91,.61s-2.05-2.81-2.4-2.69c-.35,.12-.53,.63-.88,.74-.35,.11-.92-.21-1.27-.09-.35,.12-1.18-.71-1.52-.59-.34,.12,1.45,4.62,1.1,4.74-.35,.12-2.01-2.39-2.35-2.27-.34,.12-.46,.65-.83,.78-.37,.13-.03,1.51-.37,1.64-.34,.13-1.55-1.37-1.89-1.24-.34,.14,.26,1.98-.08,2.11s-2.55-3.09-2.89-2.95c-.34,.14,1.43,3.99,1.09,4.13-.34,.14-2.34-2.64-2.68-2.48s1.18,3.41,.84,3.56c-.34,.14-1.08-.42-1.41-.26s-2.06-1.98-2.39-1.83c-.33,.14,.42,2.05,.09,2.2-.33,.14-2.35-2.35-2.68-2.2s.32,1.86,0,2.01c-.32,.15-1.62-1.14-1.95-.98-.33,.15-.1,1.19-.42,1.34-.32,.15-1.31-.64-1.64-.48-.33,.16,1.48,3.39,1.16,3.56-.32,.16-1.29-.54-1.58-.38s-1.97-1.5-2.29-1.33,.04,1.21-.32,1.38c-.36,.17,.96,2.47,.64,2.64-.32,.17-2.23-1.78-2.55-1.6s.63,1.99,.32,2.16c-.31,.18,.14,1.33-.17,1.48-.31,.15-2.37-1.88-2.68-1.7-.31,.18-1.44-.61-1.74-.43-.3,.18,.21,1.37-.09,1.56-.3,.19,1.22,2.55,.92,2.73-.3,.19-.8,.1-1.11,.29-.31,.19-3.09-2.49-3.39-2.29-.3,.2,.66,1.83,.36,2.02-.3,.19-1.22-.32-1.52-.13-.3,.2-.52,.48-.82,.67-.3,.2-1.28-.33-1.54-.11s-.97,.04-1.26,.22,1.45,2.52,1.15,2.72c-.3,.2-1.42-.46-1.71-.25s-.65,.32-.94,.53-.86,.12-1.15,.33c-.29,.21-.64,.36-.93,.56-.29,.2,.76,1.68,.46,1.9-.3,.22-3.02-1.87-3.3-1.7-.28,.17,2.55,3.35,2.27,3.56-.28,.21-3.44-2.25-3.72-2.03-.28,.22,1.6,2.39,1.33,2.62s.62,1.48,.35,1.7-2.1-.95-2.37-.73-.41,.56-.68,.78-2.47-1.21-2.74-.98c-.27,.23,.37,1.21,.09,1.44-.28,.23,.31,1.13,0,1.36-.31,.23,1.26,1.95,1,2.17-.26,.22-4.27-2.55-4.53-2.32-.26,.23,3.42,3.59,3.17,3.82-.25,.23-2.56-1.12-2.82-.92s-1.4-.24-1.65,0c-.25,.24,1.77,2.19,1.52,2.43-.25,.24-1.86-.57-2.11-.31s-1.12,.03-1.37,.26c-.25,.24-.55,.46-.79,.7-.24,.24-.15,.68-.39,.97-.24,.29,1.32,1.74,1.08,1.99s-2.26-.73-2.49-.48-1.65-.29-1.88-.04c-.23,.25,1.23,1.65,1,1.88-.23,.24-.3,.6-.53,.85-.23,.25,.23,.93,0,1.19-.23,.25-1.1,.14-1.32,.36s-1.33-.05-1.55,.21,.75,1.25,.53,1.51-2.56-.75-2.78-.5c-.22,.25,2.55,2.28,2.34,2.55s-1.06,.14-1.27,.41-2.61-.73-2.82-.47,2.6,2.24,2.39,2.5c-.21,.26-3.25-1.04-3.45-.78s-1.12,.15-1.32,.42c-.2,.27,3.82,2.85,3.62,3.08-.2,.23-5.06-1.97-5.26-1.7s2.83,2.23,2.63,2.49c-.2,.26-1.47-.06-1.66,.26s-.43,.58-.62,.85c-.19,.27,.11,.79-.07,1.07-.18,.28,1.27,1.34,1.09,1.62-.18,.28-.88,.3-1.08,.57s-2-.22-2.2,.06c-.2,.28-2-.2-2.2,.08-.2,.28-.02,.72-.2,1-.18,.28,2.53,1.87,2.41,2.15-.12,.28-1.96-.13-2.12,.15-.16,.28,.79,1.05,.63,1.33-.16,.28-.47,.52-.63,.8-.16,.28,.68,.94,.52,1.26s-.4,.56-.55,.85c-.15,.29,.63,.92,.43,1.2-.2,.29-3.84-.77-4-.48-.16,.3,2.69,1.7,2.53,1.99-.16,.3-.37,.56-.51,.85-.14,.29-2.71-.3-2.86,0-.15,.3,1.45,1.2,1.31,1.49-.14,.3-2.58-.2-2.72,.09-.14,.3,.86,.98,.72,1.27-.14,.3,1.39,1.14,1.26,1.43-.13,.3-1.36,.21-1.52,.52-.16,.31-2.03,.05-2.16,.35-.13,.3,1.37,1.13,1.25,1.4-.12,.27,.51,.81,.38,1.12-.13,.31-3.88-.44-4-.14-.12,.3,4.4,1.93,4.28,2.22-.12,.3-2.23,.05-2.34,.35s.92,.9,.8,1.2-1.68,.24-1.79,.53c-.11,.3-2.4,.06-2.51,.36s3.19,1.45,3.08,1.76c-.11,.31-2.31,.11-2.41,.42-.1,.31-1.1,.41-1.19,.72s4.2,1.6,4.06,1.91-1.9,.24-2,.54c-.1,.31,.65,.79,.56,1.09-.09,.31,.5,.75,.41,1.05-.09,.31-2.72,.1-2.8,.42-.08,.31,2.62,1.14,2.53,1.45-.09,.31-1.38,.4-1.46,.7s-.57,.53-.64,.85c-.07,.31-2.8,.18-2.86,.49-.06,.31,4.07,1.32,4,1.62s-.55,.53-.62,.85c-.07,.31-2.07,.33-2.17,.64s2.06,.93,2,1.25-2.3,.32-2.36,.64c-.06,.31-2.31,.37-2.31,.68s-.95,.53-1,.85c-.05,.31,3.61,1.06,3.56,1.37-.05,.31,1.53,.8,1.43,1.11-.1,.31-2.1,.47-2.1,.74s-2.77,.3-2.81,.61,2.25,.86,2.21,1.16c-.04,.31-1.27,.53-1.3,.85-.03,.32-.29,.64-.32,.95-.03,.31,2.26,.8,2.23,1.11s-3.26,.42-3.28,.76c-.02,.35,4.35,.88,4.33,1.2-.02,.31,.67,.66,.65,.98s-4.31,.46-4.32,.77c-.01,.31,2.73,.76,2.71,1.05,0,.11-.49,.22-1.07,.33-.05-.16-.11-.26-.18-.26-.31-.17-.58-.02-.72,.41-.65,.12-1.22,.23-1.23,.37,0,.14,.51,.29,1.1,.44,0,.04,0,.07,0,.1,0,.14,.72,.34,1.34,.54-.02-.09-.04-.19-.05-.29,.25,.08,.41,.16,.41,.24,0,.05-.03,.1-.08,.15-.09-.03-.18-.06-.28-.09,.02,.1,.04,.19,.06,.27-.31,.2-.76,.4-.77,.61-.01,.31,.18,.64,.18,.96s-.75,.64-.75,.96c0,.12,.52,.25,1.14,.37-.04,.03-.07,.06-.07,.09,0,.3-.27,.65-.27,.95s-2.63,.64-2.63,.95,2.57,.63,2.7,.93c-.5,.19-1.08,.39-1.08,.57,0,.11,.28,.21,.62,.31,0,.03-.03,.06-.03,.1,0,.2,.96,.41,1.64,.61,.11,.14,.36,.28,.58,.42-.57,.28-3.85,.59-3.85,.87,0,.31,2.58,.64,2.58,.95s-.57,.64-.57,.95,.4,.64,.4,.95-1.79,.65-1.79,.96c0,.2,1.24,.41,2.13,.61-.28,.3-1.39,.67-1.36,.94,.03,.26,1.26,.42,1.69,.65-.1,.22-.25,.43-.25,.65,0,.31-.61,.64-.61,.95s.38,.64,.38,.95,.78,.64,.78,.95-3.4,.64-3.4,.95,.77,.64,.77,.95-1.62,.64-1.62,.96,4.51,.64,4.51,.95-.72,.63-.72,.95-1.27,.64-1.27,.96,2.18,.64,2.18,.96-1.46,.64-1.46,.95c0,.14,.28,.29,.58,.43-.48,.17-.81,.31-.79,.4,.04,.19,.28,.35,.47,.53-.81,.19-1.78,.38-1.78,.56,0,.31-.16,.63-.16,.95s.81,.64,.81,.96,2.69,.64,2.69,.96-.7,.64-.7,.95,.8,.64,.8,.95-3.67,.64-3.67,.95,2.19,.64,2.19,.96,1,.64,1,.95-1,.64-1,.95-2.82,.64-2.82,.95,3.77,.64,3.77,.95-.5,.64-.5,.96,.19,.64,.19,.95-2.89,.64-2.89,.95,1.84,.64,1.84,.95-1.06,.64-1.06,.96-.83,.64-.83,.95-1.62,.64-1.62,.95,4.7,.64,4.7,.96-1.29,.64-1.29,.95-1.22,.64-1.22,.95-1.37,.64-1.37,.96,3.84,.64,3.84,.95-3,.64-3,.96,3.52,.64,3.52,.95-.89,.63-.89,.95,.19,.64,.19,.96-3.83,.63-3.83,.95,4.82,.64,4.82,.96-2.46,.63-2.46,.95,1,.64,1,.96,1.2,.64,1.2,.96-.36,.64-.36,.95-1.82,.64-1.82,.96-.66,.63-.66,.95-1.27,.64-1.26,.97,2.51,.62,2.51,.93,2.05,.59,2.06,.91-4.22,.72-4.21,1.04c.01,.32,.21,.64,.23,.96,.02,.31-.41,.61-.41,.98s4.13,.44,4.15,.76c.02,.32-1.94,.74-1.92,1.04s-3.19,.83-3.16,1.15c.03,.32,1.88,.54,1.91,.85s1.37,.53,1.41,.85,.4,.64,.47,.92c.07,.28-1.97,.78-1.93,1.13,.04,.35,1.47,.53,1.51,.85s-2.72,.95-2.66,1.24c.06,.29,.95,.57,1,.85,.05,.28,.71,.53,.77,.85s-.77,.75-.72,1.06c.05,.31,1.5,.46,1.56,.77s-.65,.74-.59,1.05c.06,.31,2.52,.29,2.58,.59,.06,.31,.6,.55,.67,.85,.07,.3-1.22,.83-1.15,1.15s-.25,.7-.18,1.01-.52,.78-.44,1.05,3.73-.03,3.81,.27c.08,.31,.44,.54,.53,.85,.09,.31-4.37,1.51-4.28,1.82,.09,.31,.2,.63,.29,.93,.09,.31,3.13,0,3.22,.31,.09,.31-1.78,1.04-1.69,1.35,.09,.31,.82,.48,.89,.79,.07,.31,2.9-.04,3,.26,.1,.31-1.52,1.03-1.46,1.33,.06,.31,.89,.42,1,.72,.11,.31-3.6,1.58-3.49,1.9,.11,.32,2.47,.05,2.58,.32,.11,.27,2.52,0,2.64,.27,.12,.26-.55,.81-.46,1.11,.09,.31-2.09,1.25-1.91,1.55s.88,.41,1,.74,.49,.55,.65,.85c.16,.3,2.91-.22,3,.08,.09,.3-4.05,1.97-3.91,2.27,.14,.3,3.26-.4,3.4-.1,.14,.3-.85,.97-.71,1.26,.14,.3,.22,.56,.36,.9,.14,.34-.59,.89-.44,1.19,.15,.3-1.35,1.2-1.21,1.49,.14,.29,.1,.66,.25,.96,.15,.3,4.55-1.02,4.7-.73,.15,.29,1.06,.28,1.21,.57,.15,.29-2.86,1.82-2.7,2.1,.16,.29-1.08,1.15-.91,1.43,.17,.29,3.22-.62,3.39-.33,.17,.29,1.17,.21,1.34,.49,.17,.28-.64,.98-.47,1.26,.17,.28-2.41,1.8-2.24,2.06s1.67-.02,1.85,.26c.18,.28,3.69-.98,3.87-.7,.18,.28-2.36,1.82-2.18,2.1,.18,.28-.73,1.08-.54,1.35s2.37-.41,2.56-.14-2.33,1.9-2.14,2.16c.19,.25,.33,.61,.52,.85,.19,.24,3.18-.88,3.38-.61,.2,.27-1.52,1.53-1.28,1.79s.8,.35,1,.62,.18,.66,.38,.93c.2,.27-.39,.99-.19,1.26,.2,.26,3.57-1.24,3.76-.97,.19,.27-2.04,1.89-1.81,2.17,.23,.28,2.82-.85,3-.57,.18,.28-.21,.87,0,1.13,.21,.26,.43,.52,.65,.77s-1.76,1.86-1.54,2.11c.22,.25,1.84-.36,2.08-.1,.24,.25,2.75-.96,3-.7s-3.23,2.88-3,3.13,3.46-1.48,3.69-1.2c.23,.28-.94,1.44-.71,1.7s-.7,1.28-.47,1.54c.23,.25,.69,.38,.92,.6s2.7-1.09,2.94-.85c.24,.25-2.77,2.77-2.52,3.02s.57,.43,.82,.68c.25,.25,3.25-1.54,3.5-1.29s1.43-.24,1.71,0c.28,.24,.03,.8,.28,1.04,.25,.24,.11,.78,.33,1.02,.22,.24-1.04,1.66-.78,1.89,.26,.23-.48,1.25-.22,1.48,.26,.24,2.74-1.32,3-1.09,.26,.23-.92,1.63-.66,1.86,.26,.23-.79,1.56-.53,1.79,.26,.23,1.16-.06,1.42,.17,.26,.23,3.18-1.78,3.41-1.56s-1.05,1.77-.77,2.02c.28,.25,1.01,.03,1.28,.25s.51,.47,.78,.69-.58,1.48-.31,1.7,2.8-1.61,3.07-1.43c.27,.18-2.57,3.36-2.29,3.57s1.69-.67,2-.46c.31,.21,2.72-1.65,3-1.43s-2.11,3.02-1.83,3.26c.28,.24,.38,.64,.67,.85,.29,.2,3.18-2.24,3.47-2.04,.29,.2,.62,.34,.91,.54,.29,.2-2.23,3.34-1.92,3.54,.31,.2,2.7-1.84,3-1.65s1.43-.53,1.72-.33-.56,1.62-.26,1.82-.58,1.71-.28,1.9c.3,.19,.51,.55,.77,.74,.26,.19-.04,1.15,.26,1.33,.3,.19,1.54-.7,1.84-.51,.3,.19,1.54-.75,1.85-.56,.31,.19-.16,1.32,.14,1.5,.3,.19,2.16-1.54,2.47-1.37,.31,.18-1.72,3.29-1.41,3.47,.31,.18,1.94-1.27,2.22-1.09s.69,.23,1,.41c.31,.18-.54,1.91-.23,2.08,.31,.17,2.25-1.81,2.56-1.64,.31,.17,.44,.59,.76,.76,.32,.17-.51,1.94-.19,2.1,.32,.16,1.4-.73,1.72-.57,.32,.16,1.2-.48,1.52-.31,.32,.16,1.34-.7,1.67-.57,.33,.13-1.4,3.37-1.07,3.52s1.73-1.33,2.06-1.17c.33,.16,.92-.08,1.25,.06,.33,.14,.39,.7,.72,.85,.33,.14,.54,.48,.87,.64s.14,1.13,.47,1.32c.33,.19,2.33-2.5,2.67-2.36,.34,.14-.15,1.64,.19,1.78,.34,.14,.22,1.06,.56,1.2,.34,.14,1.28-.8,1.62-.66,.34,.14,1.14-.62,1.5-.48,.36,.14,.02,1.46,.36,1.59,.34,.13,.56,.48,.9,.61,.34,.13,.95-.18,1.25-.05,.3,.13-.34,2.22,0,2.32,.34,.1,.88-.13,1.22,0,.34,.13,.46,.73,.81,.85,.35,.12,.35,1.05,.67,1.17s.65,.31,1,.43c.35,.12,2.22-3.06,2.57-2.95s.93-.27,1.26-.16c.33,.11,1-.45,1.33-.34,.33,.11-.35,2.62,0,2.72,.35,.1,1.22-1.01,1.56-.91,.34,.1-.01,1.99,.34,2.09,.35,.1,1.07-.72,1.43-.62,.36,.1,.92-.36,1.28-.26,.36,.09,1.27-1.29,1.62-1.19,.35,.1,.19,1.55,.55,1.65,.36,.09,.24,1.48,.6,1.58s.31,1.37,.67,1.48c.36,.11,1.92-3.37,2.28-3.28,.36,.08-.57,4.09-.21,4.17,.36,.08,1.39-1.87,1.75-1.78,.36,.08,.54,.7,.91,.79,.37,.08,.7,.23,1.07,.31s.41,1.26,.78,1.34c.37,.08,1.64-3.05,2-2.98,.36,.08,0,2.84,.36,2.91,.36,.07,1.15-1.47,1.51-1.37,.36,.1,.16,2.55,.52,2.55s1.39-2.6,1.76-2.55c.37,.06,.45,1.39,.81,1.45,.36,.06,.33,1.94,.7,2,.37,.06,1.25-2.22,1.62-2.16,.37,.06,.37,1.88,.74,1.93,.37,.06,1.36-3.11,1.75-3.06,.39,.05,.02,3.92,.39,3.96,.37,.04,1.27-2.77,1.64-2.72,.37,.05,.87-.72,1.24-.68,.37,.04,.26,3.05,.63,3.09,.37,.04,1.08-2.01,1.45-2.01s.87-.88,1.24-.85c.37,.03,.32,3.26,.69,3.29,.37,.03,.95-1.89,1.37-1.86,.42,.03,.63,1.51,1,1.54,.37,.03,.75,.13,1.12,.16,.37,.03,.9-1.59,1.28-1.56,.38,.03,.91-1.93,1.29-1.91,.38,.03,.48,3.28,.85,3.3,.37,.02,.7,.9,1.07,.92,.37,.02,.87-1.88,1.25-1.87,.38,.02,.7,1.02,1.07,1.03,.37,0,.81-1.42,1.19-1.41,.38,0,.78-.96,1.15-.94,.37,.02,.63,3.96,1,3.97,.37,0,.78-1.19,1.16-1.19s.76,.85,1.13,.85,.77-4.19,1.14-4.19,.75,2.67,1.13,2.67,.76-.21,1.13-.21,.72-1.7,1.09-1.7,.85,3.45,1.22,3.44c.37,0,.78,.25,1.15,.24,.37,0,.56-4.34,.94-4.35,.38-.02,.89,2.96,1.27,2.94,.38-.02,.84,1.22,1.21,1.2s.73-.58,1.1-.59c.37-.02,.56-3.21,.9-3.22,.34-.02,.62-.91,1-.92s1.09,4.16,1.49,4.13c.4-.03,.63-1.73,1-1.76,.37-.03,.82,.71,1.2,.69,.38-.03,.54-1.95,.91-1.99,.37-.03,.79,.31,1.16,.28,.37-.03,.7-.41,1.07-.45,.37-.04,1.19,3.33,1.57,3.28,.38-.04,.25-3.92,.58-3.95,.33-.03,.63-.47,1-.51,.37-.04,.93,1.15,1.3,1.08,.37-.08,.89,.82,1.26,.77s.35-2.26,.72-2.31c.37-.05,1.44,3.75,1.81,3.67,.37-.08,.8,.05,1.17,0,.37-.05,.54-1.16,.91-1.21,.37-.05,.83,.3,1.2,.24s.58-.85,.95-.91c.37-.06,.05-3.14,.42-3.2,.37-.06,1.06,1.26,1.42,1.2,.36-.07,1.49,3.04,1.86,2.97,.37-.07-.22-3.96,.15-4.03,.37-.07,1.24,1.88,1.61,1.81,.37-.07,.85,.31,1.22,.23,.37-.08,1.12,1.16,1.47,1.09,.35-.08-.37-3.95,0-4.02,.37-.08,1.35,2.01,1.72,1.93,.37-.08,.32-1.38,.72-1.48,.4-.09,1.64,2.61,2,2.55,.36-.07-.28-3.31,.08-3.39,.36-.08,1.23,1.41,1.59,1.32s-.18-2.78,.18-2.91c.36-.13,.8,.09,1.16,0,.36-.09,.65-.37,1-.47,.35-.09,1.12,1.08,1.52,.98,.4-.09,.64-.46,1-.54,.36-.08,1.8,2.56,2.14,2.46,.34-.1-.35-2.89,0-2.99s.36-1.01,.72-1.11,1.01,.53,1.36,.42c.35-.11,1.77,2.3,2.12,2.19,.35-.11,.2-1.28,.6-1.39,.4-.11,.65-.44,1-.55,.35-.11,.36-.98,.71-1.1,.35-.12,.82,.06,1.17-.06,.35-.12,1.82,2.07,2.14,1.94,.32-.13,.65-.3,1-.42,.35-.13,.17-1.32,.52-1.45,.35-.13-.53-2.65-.18-2.77,.35-.13,2.54,3.32,2.88,3.19,.34-.13-.56-2.63-.22-2.77,.34-.14,.19-1.16,.53-1.29,.34-.13,2.4,2.85,2.74,2.72,.34-.14-.74-2.8-.4-2.94,.34-.14-.18-1.78,.14-1.93,.32-.14,.98,.3,1.32,.15,.34-.14,2.28,2.43,2.61,2.28,.33-.14,.61-.39,.95-.53,.34-.14-.38-2.03-.07-2.18,.31-.15,.98,.22,1.31,.07,.33-.15,.88,.04,1.21-.11,.33-.15,1.9,1.6,2.23,1.43,.33-.17-.25-1.71,.07-1.87,.32-.16,1.13,.37,1.45,.21,.32-.16-.39-1.82-.06-1.99,.33-.16,.22-.91,.55-1.07,.33-.16,1.93,1.47,2.25,1.3,.32-.17,.27-.89,.56-1.06,.29-.17-.02-1.23,.29-1.4,.31-.17,1.25,.47,1.56,.3s-.62-1.95-.3-2.12,.52-.47,.83-.64c.31-.18,2.12,1.54,2.43,1.36,.31-.18,.15-.95,.49-1.09,.34-.14,1.69,.89,2,.71,.31-.18-1.57-2.97-1.27-3.16,.3-.19,.65-.35,.91-.53,.26-.19,1.7,.93,2,.75l.9-.56c.3-.2-1.06-2.22-.77-2.42,.29-.2,.82-.08,1.12-.3,.3-.22,.92-.03,1.21-.22,.29-.2,2.05,1.15,2.34,.95,.29-.2,.63-.33,.92-.56,.29-.23-.72-1.72-.43-1.93s2.42,1.43,2.7,1.22c.28-.2,.9-.1,1.18-.31s.06-.94,.34-1.14c.28-.2,.32-.64,.6-.85s-.89-1.76-.61-1.99c.28-.23,2.88,1.68,3.15,1.47s.07-.89,.34-1.1,.39-.6,.66-.8c.27-.2,.11-.81,.38-1.04,.27-.23,.65-.36,.92-.59,.27-.22-.61-1.42-.35-1.64,.26-.22-.1-.96,.16-1.19,.26-.23,1.9,.68,2.16,.45,.26-.23,.51-.48,.76-.71,.25-.23,2.45,1.04,2.7,.81,.25-.24-1.15-1.76-.9-2,.25-.24,2.09,.71,2.34,.48,.25-.24-.94-1.54-.69-1.79,.25-.25-.68-1.35-.44-1.59,.24-.24,1.71,.4,1.95,.15,.24-.25,1.08-.08,1.32-.32,.24-.25,.42-.53,.65-.8,.23-.26,1.21,0,1.44-.26s-2.55-2.59-2.37-2.8-.05-.83,.18-1.06c.23-.23,3.93,1.72,4.16,1.47,.23-.25,.9-.28,1.09-.53,.19-.25-3.22-2.74-3-3s-.35-.98-.14-1.24c.21-.26,3.32,1.2,3.54,.94,.22-.26,1.68,.2,1.89-.08,.21-.27,.38-.59,.57-.85s-1.2-1.45-1-1.7c.2-.25-1.29-1.43-1.08-1.7s3.9,1.34,4.1,1.07-1.56-1.58-1.36-1.85c.2-.27,2.37,.47,2.57,.2s-1.42-1.48-1.23-1.75,1.68,.08,1.87-.2c.19-.27-3.45-2.39-3.27-2.67,.18-.28,3.54,.93,3.73,.68s-1.58-1.42-1.36-1.7,.04-.68,.22-.97c.18-.29,.71-.39,.88-.68,.17-.29-.87-1.11-.7-1.37s.24-.56,.4-.85c.16-.29,4.77,1.26,4.93,.98,.16-.28-1.74-1.41-1.57-1.7,.17-.29-2.15-1.54-2-1.83,.15-.29,3.04,.48,3.2,.19,.16-.29-1.4-1.22-1.25-1.51,.15-.29,2.49,.23,2.64-.07,.15-.3,.94-.37,1.09-.66,.15-.29-1.08-1.07-.94-1.37,.14-.3,2.06,0,2.2-.3,.14-.3,.8-.44,.93-.74,.13-.3-2.73-1.55-2.6-1.87,.13-.31,.45-.55,.58-.85,.13-.3,.67-.49,.8-.77,.13-.28,2.4,.02,2.52-.28,.12-.3-1.32-1.07-1.2-1.37,.12-.3-1.67-1.12-1.54-1.43,.13-.31,3.02,.14,3.13-.16,.11-.31-3.66-1.61-3.51-1.92,.15-.31,5.05,.62,5.15,.3,.1-.32-2.9-1.39-2.79-1.7,.11-.31-1.37-.98-1.27-1.28,.1-.31,.72-.48,.84-.78,.12-.31,1.03-.4,1.12-.73,.09-.33,.69-.54,.75-.85,.06-.31,.91-.49,1-.77,.09-.28,.42-.53,.51-.85s1.42-.43,1.49-.71c.07-.28-.85-.81-.77-1.13s1.68-.37,1.75-.69c.07-.31-.83-.81-.76-1.12s1.16-.48,1.23-.79-2.68-1.07-2.62-1.37-.78-.75-.72-1.06c.06-.31,2.6-.31,2.65-.62,.05-.31-.44-.7-.39-1.02,.05-.31-1.05-.78-1-1.09,.05-.31-1.87-.84-1.82-1.15s2.55-.37,2.59-.69c.04-.31,.12-.6,.16-.95,.04-.35-2.82-.88-2.78-1.2s3.18-.37,3.21-.69-2.79-.85-2.76-1.16c.03-.31,5.06-.31,5.09-.62,.03-.31-1.26-.73-1.24-1.04s-1.36-.7-1.33-1.03c.03-.32,.93-.59,.95-.92s.45-.64,.47-.95c.02-.31,1.32-.6,1.33-.92s-3.79-.74-3.79-1.05,2-.59,2-.92-2.14-.65-2.13-.98c.01-.32,3.8-.63,3.8-.95s-.16-.7-.15-1.01-.25-.64-.25-.95-4.35-.64-4.35-.96,3.79-.62,3.79-.94-4-.66-4-.98,5-.62,5-.93-2.87-.65-2.86-.97c0-.31,2.4-.62,2.4-.94s-.06-.64,0-.96-.94-.64-.94-.96-1.73-.64-1.73-.97,3.21-.63,3.21-.94-3.01-.65-3-.98-1.72-.64-1.72-.97,4.83-.6,4.83-.92-2.05-.65-2.05-.98-3-.66-3-.98,.11-.64,.11-.96,1.23-.63,1.24-.95-.55-.65-.54-.97c.01-.31,.13-.64,.14-.96s.29-.63,.3-.95c0-.32,3.13-.6,3.14-.92s.46-.63,.47-.95-4.39-.68-4.39-1,2.28-.61,2.29-.93c.01-.32-1.7-.66-1.7-.98s-.72-.64-.71-.96,3.92-.59,3.93-.91c.01-.32-2.55-.66-2.54-.98,.01-.32,1.47-.61,1.47-.93s1.78-.62,1.78-.93-.72-.64-.72-.96-.53-.64-.52-.96c0-.32-3.83-.7-3.82-1.01s1.79-.6,1.8-.92c0-.32,.95-.62,.95-.94s1.91-.6,1.91-.92,.46-.62,.47-.94,.31-.64,.31-.95-2.74-.68-2.74-.99-.08-.64-.08-.95,.83-.61,.84-.93,1.53-.62,1.53-.93-3.4-.68-3.4-1,3.36-.58,3.36-.9c0-.23-1.46-.47-2.32-.71,.34-.05,.59-.1,.61-.2,.03-.14-.59-.37-1.3-.61-.03-.15-.06-.3-.06-.44,.01-.31,2.06-.59,2.07-.92,0-.13-.57-.28-1.24-.42,.88-.09,2.03-.14,2.07-.34,.05-.32,.07-.64,.12-.97,.03-.19-1.76-.6-3.19-.95,.03-.07,.06-.14,.06-.21,.01-.31,1.81-.59,1.81-.92s-1.01-.64-1-.97c0-.19-.63-.38-1.17-.57-.17-.22-.43-.45-.4-.66,.04-.31,3.53-.33,3.57-.64,.02-.16-.88-.41-1.75-.64,.41-.09,.71-.18,.71-.28,.01-.32-.58-.65-.58-.97,0-.15-.24-.31-.48-.46,.2-.21,.52-.41,.54-.63,.02-.31,2.64-.51,2.64-.8,0-.25-3.73-.8-4.61-1.14,.76-.22,3-.44,3-.71,0,0,.01-.01,.01-.02,.21-.05,.34-.11,.35-.17,0-.03,.03-.05,.05-.08,.58-.21,1.59-.41,1.59-.64,0-.06-.02-.12-.05-.18,0,0,0,0,0-.01,0-.01-.01-.02-.02-.03-.11-.25-.35-.49-.34-.74,0-.23-.87-.47-1.36-.71,.71-.14,1.42-.28,1.42-.44,0-.19-1.7-.44-3.05-.66-.07-.06-.13-.11-.13-.16,0-.29,3.17-.52,3.18-.85,.01-.33-1.89-.66-1.88-.99s1.43-.58,1.44-.92c0-.22-1.47-.45-2.5-.67,1.17-.25,2.74-.52,2.74-.71,0-.18-1.3-.35-2.41-.52,0-.02,.02-.03,.02-.05,0-.31,.53-.52,.65-.83Z"/>
  <path class="cls-1" d="M376.84,196.75c0,.31,.7,.63,.7,.94s2.75,.66,2.75,.98-3.88,.57-3.89,.85,4.66,.75,4.65,1.06-2.82,.56-2.84,.85,3.15,.76,3.14,1.07-1.58,.59-1.6,.91-3.53,.46-3.55,.77,4.8,.98,4.8,1.26-2.62,.48-2.64,.8-.67,.59-.7,.91-1.05,.55-1.08,.85,3.38,.92,3.34,1.23-3.53,.33-3.57,.64,.59,.69,.55,1,2,.85,2,1.16-3.51,.25-3.56,.57,4.95,1.21,4.9,1.54-.07,.64-.12,.97-3,.26-3.07,.58-1.64,.42-1.7,.73,3.3,1.11,3.23,1.43-2.72,.25-2.79,.56-.57,.54-.64,.85,1.17,.85,1.1,1.15-2,.3-2.1,.61,1.29,.85,1.21,1.18,2,1.03,1.94,1.34-4.37-.19-4.45,.13,3.53,1.35,3.44,1.65-3.63-.09-3.72,.22,2.89,1.26,2.8,1.57-2.19,.18-2.29,.48,.38,.74,.28,1.04-.51,.53-.62,.85,2.48,1.26,2.38,1.57-3.06-.09-3.17,.21-.22,.6-.32,.91,2.4,1.29,2.29,1.6-.19,.63-.31,.93-.84,.44-1,.75-2.35,0-2.47,.31,2.31,1.35,2.19,1.65-3.94-.5-4.07-.2,2.35,1.38,2.22,1.7-.15,.64-.28,.93,1,1,.84,1.3-4.14-.68-4.27-.38,3.08,1.7,2.94,2.01-1.9,0-2,.33,.58,.9,.44,1.19-1.94,0-2.08,.29,.88,1.01,.73,1.31-2.27-.17-2.43,.12,1,1.08,.87,1.37-.33,.57-.49,.85-.95,.31-1.11,.6,.66,.97,.5,1.26-2-.14-2.18,.14,3.66,2.27,3.49,2.55-3.34-.72-3.51-.44,1.12,1.2,.95,1.49,1.88,1.58,1.7,1.86-3.84-1.03-4-.75,2.51,1.9,2.33,2.17-.05,.73-.24,1-1.32,.11-1.51,.39-1.26,.12-1.45,.39-1.95-.24-2.14,0,2.43,1.99,2.24,2.26-2.41-.5-2.61-.23,1.55,1.58,1.35,1.84-3.12-.92-3.32-.64,3.27,2.55,3.06,2.82-.9,.28-1.11,.54-3.45-1.19-3.66-.92,1,1.35,.79,1.61,.55,1.09,.33,1.36-2.63-.78-2.85-.53,.89,1.32,.67,1.58-2.22-.59-2.44-.32-.78,.29-1,.54,2.58,2.43,2.35,2.68-1.17,.06-1.4,.31-3.07-1.22-3.3-.97,2.37,2.38,2.14,2.63-1.78-.39-2-.14,1.09,1.57,.86,1.82-2.65-1.03-2.89-.78-1.46-.22-1.7,0,1.82,2.14,1.58,2.38-1.41-.2-1.65,0-1,.08-1.27,.32-.52,.44-.77,.68,.77,1.45,.52,1.7,.39,1.18,.13,1.41-3.21-1.7-3.47-1.44,3.06,3.33,2.8,3.56-2.36-1.03-2.62-.8,1.55,2.19,1.29,2.42-3.36-1.93-3.63-1.7-1.37-.29-1.64-.06,2.75,3.29,2.48,3.51-4-2.55-4.22-2.34,.22,1.1-.05,1.32,.66,1.53,.38,1.75-1.39-.35-1.67-.14,.33,1.26,0,1.47-.62,.37-.9,.58-1.22-.21-1.51,0,.31,1.27,0,1.48-.43,.56-.71,.76,.53,1.55,.24,1.76-1.56-.59-1.85-.38-.48,.53-.77,.72-1.27-.32-1.57-.13-.61,.37-.91,.57-1.29-.39-1.59-.2,1.46,2.7,1.17,2.89-1.48-.59-1.78-.4,.27,1.4,0,1.59-2.43-1.76-2.73-1.57,.43,1.62,.12,1.8-1-.06-1.28,.12-.64,.34-.95,.52,.49,1.77,.18,1.95-3.53-3.35-3.85-3.17-.3,.74-.62,.91,.55,1.88,.23,2.05,.37,1.7,.05,1.86-1.63-1.01-2-.85-2-1.52-2.28-1.35,.69,2.19,.36,2.35-1.87-1.46-2.2-1.3,1.49,3.44,1.16,3.59-2.83-2.94-3.16-2.77,1.28,3.23,1,3.39-.75,.2-1.08,.35-1.81-1.52-2.14-1.37,.77,2.6,.44,2.75-2.44-2.61-2.77-2.46-.28,.92-.62,1.06,.33,1.97,0,2.11-1.65-1.42-2-1.28,.44,2.25,.1,2.38-1.47-1.14-1.81-1.01-1.33-.95-1.67-.85,1.26,3.92,.91,4.06-2-2.3-2.37-2.17-1.22-.81-1.56-.68,.27,2.16-.08,2.28,.09,1.88-.25,1.99-2.64-3.82-3-3.7,.66,3.14,.31,3.25-1.86-2.32-2.21-2.21-.89-.24-1.24-.12l-1,.31c-.35,.11-.14,1.52-.49,1.63s-1-.54-1.36-.44-.28,1.24-.64,1.34-1-.67-1.4-.57,.58,3.57,.22,3.67-1.54-2.02-1.9-1.92,0,2.13-.38,2.22-.67,.35-1,.44-2-3.54-2.36-3.45,.59,4.11,.23,4.2l-1.11,.25c-.36,.08-1.68-2.87-2-2.79s-1-.61-1.31-.53,.14,3.1-.22,3.17-1.69-3.23-2.05-3.16-.69,.23-1,.31,.26,3.89-.11,3.95-.82-.16-1.19-.09-1.39-2.55-1.76-2.49,.07,3.54-.3,3.6-1.09-1.39-1.46-1.33-.7,.32-1.07,.38-1.27-2.48-1.64-2.43-.6,.75-1,.8-.3,2.45-.67,2.5-1.07-1.7-1.44-1.7-1-1.38-1.35-1.34,0,4.68-.38,4.73-1.43-4.51-1.81-4.46-.6,.99-1,1.04-.72,.14-1.1,.17l-1.11,.08c-.37,0-.67,.65-1,.69s-.55,2.05-.92,2.09-.67,1.05-1.05,1.08-.85-1.03-1.23-1-.88-1.65-1.26-1.63-.63,1.78-1,1.8-.8-.69-1.17-.67-.78-.41-1.16-.4-.68,1.76-1.06,1.76-.84-2.63-1.22-2.62-.73,.7-1.1,.7-.78-2.26-1.15-2.26-.73,1.77-1.11,1.77-.75,.53-1.13,.53-.74-.5-1.12-.51-.82,2.85-1.2,2.84-.72-1.28-1.1-1.29-.7-1.43-1.07-1.43-.84,1.6-1.21,1.58-.65-1.89-1-1.91-.76,.2-1.14,.18-.81,.74-1.18,.72-.64-1.33-1-1.36-.91,1.7-1.29,1.7-.38-3.45-.76-3.49-1,2.32-1.38,2.28-.54-1.7-.91-1.7-1.07,2.41-1.44,2.38-.67-.64-1-.68-.52-1.55-.89-1.6-.57-1.04-.95-1.08-.7-.2-1.07-.25-1.21,2.55-1.58,2.55-.34-2.21-.71-2.27-.77,.1-1.14,.05-1,1.06-1.34,1-.86,.44-1.23,.38-1,1.2-1.41,1.13-.81,.11-1.17,.05-.48-1.21-.85-1.28-.79,0-1.15,0-.54-.9-.9-.98-.41-1.3-.78-1.37-1.27,1.76-1.63,1.7,.16-3.17-.2-3.25-.91,.52-1.28,.43-.88,.36-1.24,.28-1.4,1.93-1.77,1.85,.22-2.98-.14-3.06-1.38,1.7-1.74,1.65-1.49,1.97-1.85,1.88,0-2.12-.39-2.21,.27-2.8-.09-2.89-.93,.41-1.28,.31-.68-.25-1-.35-1.18,.98-1.53,.85-.61-.44-1-.54-1,.54-1.38,.43,.21-2.31-.14-2.43-1.57,1.76-1.92,1.65,.09-1.95-.26-2.07-.66-.26-1-.38-1.17,.76-1.51,.64-.23-1.16-.58-1.29-2.13,2.63-2.47,2.5-.55-.54-.9-.67-.93,.2-1.27,.07-.79-.1-1.13-.24,.63-2.68,.29-2.82-1.36,.95-1.7,.85,.49-2.32,.15-2.45-1.18,.63-1.52,.48-2.4,2.65-2.74,2.5,1.76-4.33,1.42-4.47-1.49,1.07-1.82,.92-.67-.28-1-.42-.83,0-1.16-.18,.27-1.7-.06-1.88-.82,0-1.14-.2-.36-.73-.69-.89-2.16,1.92-2.49,1.76,.58-2.08,.26-2.24-1.79,1.3-2.11,1.14-.32-.79-.64-.96-.39-.66-.71-.85-.25-.85-.57-1.01-.46-.54-.77-.72-.08-1.04-.4-1.2-2.27,1.76-2.58,1.58,.35-1.57,0-1.76-.55-.42-.86-.59-1.29,.46-1.6,.28-1.2,.33-1.5,.14-.5-.51-.81-.7,.83-2.02,.53-2.21-1.24,.36-1.54,.16,.05-1.09-.25-1.28-.69-.26-1-.46-1.05,.12-1.35-.08-.16-.85-.46-1.03-2.13,1.23-2.42,1.03-1.42,.45-1.71,.25,2.23-3.26,1.94-3.46-3,2.02-3.29,1.82-.7-.31-1-.51-1.12,.1-1.41-.11,.81-1.7,.53-1.95-1.7,.63-2,.42-.7-.31-1-.53,1.28-2.11,1-2.32-1.6,.5-1.87,.28-1.06,0-1.33-.22,2.6-3.17,2.33-3.39-3.35,1.97-3.62,1.75-.73-.3-1-.53,.78-1.54,.52-1.77-.13-.77-.39-1-1.43,.27-1.69,0,.67-1.4,.42-1.63-.41-.53-.67-.77-2.53,1.09-2.78,.85-.55-.46-.8-.7-.54-.45-.79-.7,3-3.02,2.74-3.26-4,2.07-4.27,1.83,2.19-2.39,2-2.64-3.14,1.37-3.38,1.13,.61-1.25,.38-1.5-.07-.76-.31-1.02-1.51,.2-1.74-.05-1.61,.23-1.84,0,2.4-2.36,2.17-2.61-1.05-.12-1.27-.37,.17-.9,0-1.15-2.57,.79-2.79,.53,2.2-2.11,2-2.38-1.81,.31-2,.04,.09-.85-.12-1.09-.24-.63-.45-.89-.77-.32-1-.59-1.55,.09-1.75-.17,2.31-2.02,2.1-2.28-3.35,1.05-3.55,.78-1.22-.12-1.41-.39-.45-.53-.65-.81-.64-.43-.83-.7,.88-1.2,.69-1.47-.38-.56-.56-.85-1.39-.08-1.57-.35,.54-1.01,.36-1.29,.73-1.07,.55-1.35-2.72,.52-2.9,.24,1.35-1.34,1.18-1.63,.28-.85,.11-1.12-.46-.52-.62-.81,1.27-1.25,1.11-1.54-1.14-.22-1.31-.51,.05-.72-.11-1.01-2,.12-2.2-.17-.28-.6-.43-.89-.89-.36-1-.65,.79-1,.64-1.3,0-.68-.18-.97-.24-.61-.38-.9-.6-.48-.74-.78,.7-.92,.56-1.21,.62-.85,.48-1.18-4.47,.78-4.6,.48-.16-.64-.29-.94-.52-.53-.65-.85,.5-.85,.37-1.15-.44-.55-.57-.85-.2-.63-.32-.92-.13-.64-.25-.95,3.4-1.61,3.28-1.91,.13-.69,0-.99-4.43,.49-4.54,.19,.63-.85,.52-1.15-1.15-.39-1.25-.7,1.25-.97,1.15-1.27-.07-.65-.16-.96-1.53-.32-1.62-.64-.16-.64-.26-.94,.26-.72,.17-1.03,3.64-1.4,3.55-1.7,0-.64-.06-.95-4.68,.24-4.76-.08,1.13-.85,1.06-1.18-1.57-.38-1.64-.7-.64-.55-.71-.85,4.23-1.34,4.17-1.65-1.56-.4-1.63-.71,0-.64,0-.96,.75-.75,.69-1.06-.72-.54-.78-.85-.43-.58-.48-.9-.51-.58-.56-.89,2.4-.91,2.35-1.22-2.57-.36-2.61-.67,1.42-.78,1.38-1.1-.1-.62-.14-.93-1.27-.52-1.3-.85-1.82-.49-1.86-.81,1.45-.76,1.42-1.07-.16-.63-.19-.95,2.23-.76,2.2-1.09-.69-.59-.71-.9-1.42-.56-1.44-.85,1.55-.7,1.54-1.01-1-.59-1-.92-2.17-.58-2.18-.89,1.81-.68,1.8-1,1.23-.64,1.23-.97,.55-.63,.55-.94-3.37-.63-3.37-.94,.75-.64,.75-.96-.19-.64-.18-.96,1.07-.62,1.07-.93-2.81-.71-2.8-1.03,3.18-.55,3.2-.85-2.72-.74-2.71-1.05,4.3-.46,4.32-.77-.67-.66-.65-.98-4.35-.85-4.33-1.2,3.25-.45,3.28-.76-2.26-.8-2.23-1.11,.29-.63,.32-.95,1.26-.54,1.3-.85-2.25-.85-2.21-1.16,2.81-.34,2.81-.61,2-.42,2.1-.74-1.48-.8-1.43-1.11-3.61-1.06-3.56-1.37,1-.54,1-.85,2.25-.36,2.31-.68,2.3-.32,2.36-.64-2.1-.93-2-1.25,2.1-.33,2.17-.64,.55-.54,.62-.85-4.06-1.31-4-1.62,2.79-.18,2.86-.49,.56-.54,.64-.85,1.37-.39,1.46-.7-2.61-1.14-2.53-1.45,2.71-.11,2.8-.42-.5-.75-.41-1.05-.66-.79-.56-1.09,1.86-.24,2-.54-4.15-1.6-4.06-1.91,1.09-.42,1.19-.72,2.3-.11,2.41-.42-3.19-1.45-3.08-1.76,2.4-.07,2.51-.36,1.67-.23,1.79-.53-.91-.91-.8-1.2,2.22-.05,2.34-.35-4.4-1.93-4.28-2.22,3.87,.45,4,.14-.5-.85-.38-1.12-1.38-1.1-1.25-1.4,2-.04,2.16-.35,1.39-.22,1.52-.52-1.4-1.14-1.26-1.43-.86-.98-.72-1.27,2.58,.2,2.72-.09-1.46-1.2-1.31-1.49,2.72,.29,2.86,0,.35-.55,.51-.85-2.69-1.7-2.53-1.99,3.8,.76,4,.48-.58-.92-.43-1.2,.39-.53,.55-.85-.68-.98-.52-1.26,.47-.52,.63-.8-.79-1.05-.63-1.33,2,.13,2.12-.15-2.59-1.87-2.41-2.15,0-.72,.2-1,2,.2,2.2-.08,2,.21,2.2-.06,.9-.29,1.08-.57-1.27-1.34-1.09-1.62-.12-.8,.07-1.07,.43-.53,.62-.85,1.46,0,1.66-.26-2.83-2.22-2.63-2.49,5.06,1.93,5.26,1.7-3.82-2.81-3.62-3.08,1.12-.16,1.32-.42,3.24,1.04,3.45,.78-2.6-2.24-2.39-2.5,2.61,.73,2.82,.47,1.06-.14,1.27-.41-2.56-2.3-2.34-2.55,2.56,.76,2.78,.5-.75-1.25-.53-1.51,1.33,0,1.55-.21,1.09-.1,1.32-.36-.23-.94,0-1.19,.3-.61,.53-.85-1.23-1.64-1-1.88,1.65,.29,1.88,.04,2.25,.73,2.49,.48-1.32-1.7-1.08-1.99,.15-.73,.39-.97,.54-.46,.79-.7,1.12,0,1.37-.26,1.86,.54,2.11,.31-1.77-2.19-1.52-2.43,1.39,.2,1.65,0,2.57,1.15,2.82,.92-3.43-3.59-3.17-3.82,4.27,2.55,4.53,2.33-1.31-1.94-1-2.17-.28-1.13,0-1.36-.36-1.21-.09-1.44,2.47,1.2,2.74,.98,.41-.56,.68-.78,2.1,.95,2.37,.73-.62-1.47-.35-1.7-1.61-2.4-1.33-2.62,3.44,2.24,3.72,2.03-2.55-3.39-2.27-3.56,3,1.92,3.3,1.7-.75-1.7-.46-1.9,.64-.35,.93-.56,.86-.12,1.15-.33,.65-.33,.94-.53,1.41,.46,1.71,.25-1.44-2.55-1.15-2.72,1,0,1.26-.22,1.24,.31,1.54,.11,.52-.48,.82-.67,1.22,.31,1.52,.13-.66-1.82-.36-2.02,3.08,2.48,3.39,2.29,.81-.1,1.11-.29-1.22-2.55-.92-2.73-.21-1.38,.09-1.56,1.43,.61,1.74,.43,2.37,1.85,2.68,1.7-.14-1.31,.17-1.48-.64-1.99-.32-2.16,2.23,1.77,2.55,1.6-1-2.47-.64-2.64,0-1.21,.32-1.38,2,1.49,2.29,1.33,1.26,.54,1.58,.38-1.49-3.39-1.16-3.56,1.32,.64,1.64,.48,.09-1.19,.42-1.34,1.63,1.14,1.95,.98-.33-1.86,0-2.01,2.35,2.34,2.68,2.2-.42-2.05-.09-2.2,2.06,1.99,2.39,1.83,1.07,.41,1.41,.26-1.18-3.39-.84-3.56,2.34,2.62,2.68,2.48-1.43-4-1.09-4.13,2.55,3.09,2.89,2.95-.26-1.98,.08-2.11,1.55,1.37,1.89,1.24,0-1.51,.37-1.64,.49-.66,.83-.78,2,2.39,2.35,2.27-1.44-4.62-1.1-4.74,1.17,.71,1.52,.59,.92,.2,1.27,.09,.53-.62,.88-.74,2.05,2.8,2.4,2.69,.56-.5,.91-.61-.86-3.92-.51-4.03,2.27,3.55,2.62,3.44-.11-2.21,.25-2.31,.29-1.29,.65-1.38,1.46,1.7,1.82,1.63-.26-2.8,.1-2.9,2,3.45,2.4,3.35,.56-.59,.92-.68-.33-3.27,0-3.39,1.29,1.48,1.65,1.4,1.44,2.08,1.8,1.99-.14-2.9,.23-2.98,.58-.67,.94-.75,.51-.98,.87-1.05,1.34,1.97,1.71,1.89,.11-2.44,.47-2.55,1.41,2.38,1.78,2.31,1.26,1.97,1.62,1.9,.59-.64,1-.71,.54-.9,.91-.96,.32-1.95,.69-2.01,.54-1.08,.91-1.14,1.17,1.93,1.54,1.88,.53-1.18,.9-1.23,1.16,2.15,1.53,2.1,.54-1.23,.91-1.28,.51-1.48,.88-1.52,.77,0,1.14,0,1.13,2.47,1.5,2.43,.78,.28,1.15,.25,.46-2.18,.83-2.22,1,1.75,1.34,1.7,.55-1.76,.92-1.79,.58-1.7,1-1.75,.72-.51,1.1-.53,.79,.3,1.17,.28,1.06,4.02,1.43,4.01,.65-1.37,1-1.38,.59-2.92,1-2.94,.92,3.16,1.29,3.14,.75,.21,1.13,.2,.69-1.51,1.07-1.52,.78,1.7,1.16,1.7,.71-2.59,1.09-2.59,.76,.09,1.14,.09,.75,.64,1.13,.64,.73,1.21,1.11,1.21,.72,.8,1.09,.85,.87-3.57,1.24-3.56,.58,4.24,1,4.24,1-4.24,1.34-4.24,.5,4.24,.87,4.24,1-3.49,1.36-3.46,.66,1.39,1,1.41,.89-1.45,1.26-1.43,.44,3.29,.81,3.32,1.1-3.33,1.48-3.3,.68,.75,1.05,.78,.5,2.07,.88,2.1,.58,1.17,1,1.2,1.11-2.55,1.48-2.55,.95-1.23,1.32-1.19,.13,3.95,.5,4,1-1.7,1.41-1.65,1-1.24,1.35-1.2,1-1.05,1.35-1,0,3.82,.38,3.87,1-.96,1.32-.9,1.26-2.25,1.63-2.2,.76,.08,1.13,.14,.09,2.89,.46,2.95,.38,1.52,.74,1.59,1.51-2.94,1.88-2.87,1.09-1.14,1.45-1.07,.81-.06,1.18,0,.56,.85,.92,.9,.1,2.33,.46,2.4,.17,1.96,.53,2.04,2-3.95,2.38-3.87,.58,.65,.95,.74-.12,2.68,.24,2.77,.66,.34,1,.42,1.89-3.11,2.25-3.02,.51,.8,.87,.85,1-.58,1.38-.48-.06,2.25,.29,2.35,.33,1.18,.68,1.28,1.06-.66,1.41-.56,1.22-1,1.57-.85,.24,1.35,.59,1.46-.28,2.46,.07,2.55,2.68-4.24,3-4.09-.67,3.25-.32,3.39,1.07-.58,1.42-.46,.08,1.51,.43,1.64,.79,0,1.14,.13,1-.36,1.33-.23,1.41-1.15,1.76-1.03,.91-.14,1.25,0-.22,1.98,.12,2.11,1-.36,1.36-.22,1.46-1.12,1.8-.98,.41,.77,.75,.92,1.1-.42,1.43-.29-1.63,4.24-1.29,4.34,3.11-3.78,3.44-3.63-.63,2.44-.3,2.55,.17,1.09,.5,1.23-.06,1.42,.27,1.57,1.61-1.7,1.94-1.5,1.06-.3,1.39-.14,.28,.85,.61,1.02,.44,.63,.76,.79,1.76-1.26,2.08-1.1,.62,.38,.94,.54-1.51,3.32-1.19,3.49,.64,.29,1,.46,1.2-.44,1.52-.27,1.77-1.16,2.09-.99,1.29-.49,1.6-.31-1.54,3.11-1.23,3.28,1.45-.69,1.76-.5,.83,.08,1.14,.26,1.35-.51,1.65-.33-1,2.33-.72,2.55,2.64-2,2.94-1.82-1.43,2.72-1.12,2.91,1.77-.95,2.07-.76,.06,.98,.36,1.18,.11,.9,.41,1.09,1.52-.61,1.81-.42-1.18,2.27-.88,2.46,.89,.05,1.18,.25,2.77-1.86,3.06-1.7-1.26,2.27-1,2.48,2.74-1.76,3-1.54,1.09-.08,1.37,.14-1.08,2.03-.8,2.24,1.52-.49,1.8-.28-1.35,2.21-1.07,2.44,.09,.85,.37,1.05,1.2-.17,1.47,0,1.32-.26,1.59,0,0,.95,.23,1.17-.6,1.42-.33,1.65,3.06-1.7,3.32-1.49-1.37,2.05-1.1,2.28,1.45-.33,1.71-.1,.12,.78,.38,1.01,.3,.64,.56,.85-.57,1.31-.32,1.54,3.53-1.88,3.78-1.65-2.32,2.64-2.07,2.87,3-1.37,3.2-1.14-1.09,1.7-.84,1.89,.88,.2,1.12,.43,.72,.31,1,.56,2-.6,2.27-.36,.84,.25,1.07,.5-.6,1.25-.36,1.49-.81,1.37-.58,1.62,.83,.25,1.06,.5-.8,1.32-.57,1.57,1.23,0,1.46,.25-1,1.41-.78,1.7,1.11,.08,1.33,.33,1.25,0,1.47,.26-.93,1.33-.72,1.6,4.47-1.88,4.68-1.62-2.79,2.41-2.58,2.67-.36,.97-.15,1.23,4.83-1.96,5-1.7-1.19,1.43-1,1.7-1.54,1.6-1.34,1.86,.52,.47,.72,.74-.51,1.01-.31,1.28,4.52-1.6,4.71-1.33-.52,1.03-.33,1.3-2.05,1.77-1.86,2.04,2.31-.41,2.5-.13-.19,.85,0,1.1,.75,.38,.93,.65,.49,.51,.67,.79-.27,.85-.09,1.13,1.08,.24,1.25,.53-.8,1.07-.62,1.35,.25,.6,.42,.89,.3,.58,.46,.85,2.12-.17,2.28,.12,1,.31,1.15,.6-.15,.78,0,1.07-1.14,1.15-1,1.44,2.51-.25,2.66,.04,.35,.59,.5,.85-.52,.9-.37,1.19-1.16,1.12-1,1.41-1.54,1.23-1.39,1.52,.93,.36,1.07,.65,1.22,.26,1.36,.56,1.26,.27,1.4,.57-.92,.98-.79,1.27,1.5,.21,1.63,.52,1.48,.23,1.61,.53-.34,.79-.21,1.09,1.08,.36,1.2,.67-3.27,1.6-3.15,1.9,.23,.6,.34,.91,3.53-.28,3.64,0-1.81,1.15-1.7,1.45,0,.67,.07,.98,2.74,0,2.84,.3-3.44,1.49-3.34,1.8,2.26,.14,2.36,.44-1.69,1.04-1.59,1.35,3.89-.2,4,.12-1.06,.85-1,1.2-.23,.7-.14,1.02-.7,.79-.61,1.1,1.53,.36,1.61,.68,1.45,.4,1.53,.7-4.76,1.49-4.69,1.81,3,.14,3,.46-2.92,1.11-2.85,1.43,3,.18,3.06,.49,.1,.63,.16,.94-2.31,.97-2.25,1.29,2.08,.36,2.13,.67,1.27,.48,1.32,.8,.66,.57,.72,.85-2.38,.92-2.33,1.24,1,.53,1,.85,2.94,.36,3,.67-.95,.75-.91,1.07,1.07,.56,1.11,.85-1.47,.77-1.43,1.09,1.08,.57,1.11,.85-1.2,.73-1.17,1.05-.21,.65-.18,.98-.73,.68-.71,1-.44,.65-.42,.98-.84,.66-.82,.98-.54,.64-.52,.96,1.65,.59,1.66,.91,3.25,.57,3.26,.89-5,.72-5,1.04,4,.6,4,.92-4.01,.81-4.01,1.13Z"/>
</svg>