<?xml version="1.0" encoding="UTF-8"?>
<svg class="cls-1" id="_圖層_1" data-name="圖層 1" xmlns="http://www.w3.org/2000/svg" viewBox="0 0 376.16 376.16">
  <defs>
    <style>
      .cls-1 {
        fill: #b79779;
      }
    </style>
    <filter id="inset-shadow">
      <feOffset dx="5" dy="5" /> <!-- Shadow Offset -->
      <feGaussianBlur stdDeviation="4" result="offset-blur" /> <!-- Shadow Blur -->
      <feComposite operator="out" in="SourceGraphic" in2="offset-blur" result="inverse" />
      <!-- Invert the drop shadow to create an inner shadow -->
      <feFlood flood-color="black" flood-opacity="1" result="color" /> <!-- Color & Opacity -->
      <feComposite operator="in" in="color" in2="inverse" result="shadow" /> <!-- Clip color inside shadow -->
      <feComponentTransfer in="shadow" result="shadow">
        <!-- Shadow Opacity -->
        <feFuncA type="linear" slope=".75" />
      </feComponentTransfer>
      <feComposite operator="over" in="shadow" in2="SourceGraphic" />
      <!-- Put shadow over original object -->
    </filter>
  </defs>
  <path class="cls-1" filter="url(#inset-shadow)"
    d="M69.83,346.48c-2.06-1.26-4.28-2.3-6.13-3.82-3.4-2.78-4.81-6.69-4.82-10.94-.07-21.51-.03-43.03-.01-64.54,0-.28,.14-.55,.29-1.06,3.37,1.65,6.53,3.55,9.93,4.79,18.8,6.82,36.07,4.1,51.11-9.28,5.98-5.32,11.2-11.49,17.69-18.24,1.36,1.89,2.13,3.38,3.27,4.49,5.58,5.47,10.8,11.45,16.99,16.14,19.98,15.11,47.86,12.98,65.73-4.55,4.99-4.9,9.79-9.99,14.91-15.25,5.08,5.11,9.88,9.89,14.64,14.72,6.1,6.19,13.13,10.96,21.5,13.37,13.78,3.97,27.03,2.59,39.53-4.67,.94-.54,1.9-1.04,3.4-1.85v4.2c0,19.45-.19,38.91,.09,58.36,.13,8.85-2.87,15.13-11.51,18.14H69.83Z" />
  <path class="cls-1" filter="url(#inset-shadow)"
    d="M238.64,214.03c-9.66,9.81-19.2,19.6-28.88,29.26-2.16,2.15-4.59,4.21-7.25,5.65-12.04,6.51-25.13,4.58-34.82-5.05-9.85-9.79-19.58-19.72-29.59-29.82-1.03,.97-1.84,1.69-2.61,2.46-9.19,9.15-18.33,18.36-27.57,27.45-11.73,11.54-27.67,12.23-39.66,1.68-6.3-5.54-9.24-12.82-9.34-21.06-.12-9.15-.22-18.34,.53-27.45,1.55-18.77,18.49-35.43,37.2-37.18,3.38-.32,6.78-.48,10.17-.49,21-.04,42-.02,63-.02h4.01v-28.39h28.91v28.39c1.54,0,2.74,0,3.94,0,22.13,0,44.26-.04,66.39,.01,15.43,.03,27.94,6.01,37.02,18.64,5.26,7.32,7.78,15.63,7.89,24.56,.1,8.63-.02,17.28-.49,25.9-.63,11.59-12.16,22.77-23.7,24.08-10.24,1.16-18.46-2.3-25.54-9.42-9.43-9.5-18.94-18.9-28.42-28.35-.14-.14-.33-.24-1.19-.87Z" />
  <path class="cls-1" filter="url(#inset-shadow)"
    d="M188.31,30.05c4.94,8.53,9.51,16.43,14.08,24.33,3.7,6.41,7.55,12.73,11.03,19.26,8.09,15.18,2.7,32.41-12.73,39.98-17.53,8.6-38.37-2.92-40.76-22.17-.7-5.62-.22-11.03,2.46-15.86,8.36-15.09,17.04-30,25.92-45.53Z" />
</svg>