<svg xmlns="http://www.w3.org/2000/svg" viewBox="0 0 134.52 77.42">
    <defs>
        <style>
            .b5a76a95-b68e-4974-a030-9fbe422fe9ad {
                fill: #f8f4e4;
            }

            .fed85bab-d52d-4a8e-b22b-1e5c554b340d {
                fill: #9acc76;
            }

            .e2500804-3235-462b-83c9-a0bc8017d373 {
                fill: #facca0;
            }

            .e5884c49-828a-4021-8ce4-ab414f73eb92 {
                fill: #f7bc88;
            }

            .b74d9a21-c30a-4534-aac7-9de0c698894d {
                fill: #f0da99;
            }
        </style>
    </defs>
    <title>資產 3</title>
    <g id="bb6116ae-3336-4e84-8979-7cb02be692f5" data-name="圖層 2">
        <g id="b7eb0e45-cc7b-4dfa-ba3a-7371208910b2" data-name="圖層 1">
            <path class="b5a76a95-b68e-4974-a030-9fbe422fe9ad"
                d="M116.3,22.46a3.47,3.47,0,0,1-4.43-3.06A3.63,3.63,0,0,1,115,14.92a3.71,3.71,0,0,1,4.49,3.34C119.82,20.5,118.67,22,116.3,22.46Z" />
            <path class="fed85bab-d52d-4a8e-b22b-1e5c554b340d"
                d="M120.93,4.81l10.44-1.43c.2,2.12.5,4.09.54,6.07.44,18.87-6.21,35-20.14,48a62.43,62.43,0,0,1-39.13,17c-19.22,1.41-35.93-4.59-50.08-17.42-1.3-1.18-2.5-2.45-3.75-3.68l-2.25-2.51Q13.83,46.93,11.08,43C9.61,39.89,8,36.82,6.7,33.64,5.61,31,4.85,28.23,4,25.51L3,19.82l10.4-1.3a4.09,4.09,0,0,1,.28.81A50.67,50.67,0,0,0,30.05,49.82C44.4,62.8,61.29,67,80.23,62.89a51,51,0,0,0,24.52-13.08A53,53,0,0,0,117.28,32,51.53,51.53,0,0,0,120.93,4.81Z" />
            <path class="e2500804-3235-462b-83c9-a0bc8017d373"
                d="M101,14.75c1-2.53,1.9-5.07,2.94-7.57a1.7,1.7,0,0,1,1.2-.77c4-.53,8-1,12-1.48A49.08,49.08,0,0,1,115.09,27c-5.66,16.38-16.66,27.55-33.15,33a48.86,48.86,0,0,1-36.32-2A50.22,50.22,0,0,1,20,32.5,40.44,40.44,0,0,1,15.9,17.32l6,0H20.14c1.35,1.4,2.43,2.51,3.49,3.62A82.21,82.21,0,0,0,41.17,35.21a42.08,42.08,0,0,0,24.42,6c9.68-.59,18.53-3.46,25.66-10.39A38.58,38.58,0,0,0,101,14.75Zm-19.58,37c1.23-.43,2.51-.76,3.69-1.31a56.7,56.7,0,0,0,17-12.19,49.5,49.5,0,0,0,11.3-17.77,3.86,3.86,0,0,0-2-5,4,4,0,0,0-5.14,2.09c-.44.93-.88,1.86-1.33,2.79a46.27,46.27,0,0,1-20,21.31c-1.86,1-3.79,1.89-5.6,3a3.19,3.19,0,0,0-1.54,3.91A4.39,4.39,0,0,0,81.42,51.75ZM69.86,55.22c2.4.21,3.91-1,4.13-3.23a3.7,3.7,0,0,0-3.46-4.39,3.62,3.62,0,0,0-4.14,3.51A3.46,3.46,0,0,0,69.86,55.22Z" />
            <path class="e5884c49-828a-4021-8ce4-ab414f73eb92"
                d="M15.9,17.32A40.44,40.44,0,0,0,20,32.5,50.22,50.22,0,0,0,45.62,57.94a48.86,48.86,0,0,0,36.32,2c16.49-5.4,27.49-16.57,33.15-32.95a49.08,49.08,0,0,0,2.08-22.06l4.46-.43a55.59,55.59,0,0,1-4,28.61,55.88,55.88,0,0,1-13.06,18.64A52.16,52.16,0,0,1,79.24,65.36C59.76,69.55,42.48,65,27.9,51.28A53.53,53.53,0,0,1,11.38,19.09a4.64,4.64,0,0,0-.28-.87Z" />
            <path class="b74d9a21-c30a-4534-aac7-9de0c698894d"
                d="M35.09,24.07l4.16,3.32A23,23,0,0,0,41,28.91c4.58,3.31,9.79,5.06,15.28,6.18,3.9.8,7.75,1.83,11.78,1.14,14.15-1.2,24.81-8,32.08-20.13.27-.46.57-.9.86-1.35a38.58,38.58,0,0,1-9.75,16.11c-7.13,6.93-16,9.8-25.66,10.39a42.08,42.08,0,0,1-24.42-6A82.21,82.21,0,0,1,23.63,21c-1.06-1.11-2.14-2.22-3.49-3.62h1.72c2.31.35,4.63.63,6.92,1.08a4,4,0,0,1,1.72,1.13C32.06,21,33.56,22.56,35.09,24.07Z" />
            <path class="b5a76a95-b68e-4974-a030-9fbe422fe9ad"
                d="M81.42,51.75a4.39,4.39,0,0,1-3.63-3.21,3.19,3.19,0,0,1,1.54-3.91c1.81-1.08,3.74-2,5.6-3a46.27,46.27,0,0,0,20-21.31c.45-.93.89-1.86,1.33-2.79a4,4,0,0,1,5.14-2.09,3.86,3.86,0,0,1,2,5,49.5,49.5,0,0,1-11.3,17.77,56.7,56.7,0,0,1-17,12.19C83.93,51,82.65,51.32,81.42,51.75Z" />
            <path class="b5a76a95-b68e-4974-a030-9fbe422fe9ad"
                d="M69.86,55.22a3.46,3.46,0,0,1-3.47-4.11,3.62,3.62,0,0,1,4.14-3.51A3.7,3.7,0,0,1,74,52C73.77,54.25,72.26,55.43,69.86,55.22Z" />
            <path class="fed85bab-d52d-4a8e-b22b-1e5c554b340d"
                d="M121.34,1.93c.32-.05,1.29.58,1.61.54s.7.24,1,.19.65-.08,1-.12.71.34,1,.29.58-.54.91-.59.52-1,.84-1,.49-1.19.81-1.24.71.29,1,.24,1,2.24,1.32,2.2.44-1.53.76-1.57.49.23.82.18c0,.31-.18.41-.15.71s.38.58.41.88,1.58.44,1.62.74-.19.65-.16,1-1.17.73-1.14,1,1.23.53,1.24.83-.37.66-.37,1-1.39.67-1.38,1,.93.63.93.94-.12.64-.12,1S132,10.66,132,11s2.56.71,2.55,1-1.23.6-1.24.92.73.68.71,1-1.58.53-1.6.85.34.66.31,1,1.46.78,1.43,1.1-1.07.54-1.11.85-.68.56-.72.88-.42.58-.46.89,1.47.86,1.42,1.18-.49.57-.54.89.2.69.15,1-1.76.31-1.83.63.06.65,0,1,.09.66,0,1,1.27,1,1.2,1.27-2,.14-2.11.45-.63.47-.72.78S132.06,29,132,29.33s-2.44-.07-2.53.24-.62.45-.72.76,1.7,1.23,1.6,1.53-2.1-.07-2.21.23,2.17,1.48,2.06,1.78-.14.64-.26.94-.49.51-.61.8-.07.68-.2,1-.42.53-.55.82-.77.36-.9.65-.22.61-.36.9-1.11.16-1.25.45-.87.25-1,.53.6,1,.45,1.32-1.42-.07-1.58.2-.26.56-.42.84,1,1.31.81,1.58-.62.37-.79.64-.1.69-.27,1-.55.4-.72.67-.3.56-.48.83-.2.63-.39.89,0,.78-.2,1,.06.85-.13,1.11-.18.68-.37.94-2.37-1-2.57-.79-.51.38-.71.63-.11.72-.31,1-.75.17-1,.42,1,1.67.75,1.91l-.64.72c-.21.23-.39.52-.61.75s-1.89-.92-2.11-.69.19,1,0,1.28-.41.49-.63.71-.19.72-.42.94,0,.88-.28,1.1-1-.15-1.25.07.72,1.75.49,2-2.11-1.41-2.35-1.2-.14.8-.39,1-.6.26-.85.46-.63.22-.88.42.08,1.12-.17,1.31.21,1.35,0,1.54-.94-.18-1.2,0-.48.44-.74.62-.31.69-.58.87-1.65-1.31-1.91-1.13.74,2.31.48,2.48-.94-.27-1.22-.1-.56.33-.83.49-.12,1.07-.4,1.23-1.51-1.35-1.79-1.2-.44.51-.72.67-.22,1-.5,1.09-.3.84-.59,1l-.87.44c-.28.14-.74-.05-1,.08s-1.46-1.68-1.75-1.55.51,2.76.22,2.89-.93-.55-1.23-.43-.85-.41-1.15-.3-.11,1.51-.41,1.62-1.33-1.79-1.63-1.69-.34,1-.64,1-.4.81-.7.91-1.1-1.38-1.4-1.29,0,2.2-.32,2.29-1.17-1.83-1.47-1.75S84.28,74,84,74.09s-.4,1.07-.71,1.15-.56.45-.87.52-1.15-2.29-1.46-2.22-.57.31-.88.38-.22,2.29-.53,2.34-.58.51-.89.56-1-2.4-1.35-2.35-.59.25-.91.29-.39,1.95-.7,2-.77-1-1.09-1-.54,1-.86,1S72.92,75,72.6,75s-.45,2.38-.77,2.41-.67-.26-1-.24-.71-1.44-1-1.43-.65-.68-1-.67-.59,1.7-.9,1.7-.64.58-1,.59-.64-1-1-1-.61-1.25-.93-1.25-.66,1.28-1,1.27-.58-1.24-.89-1.26-.64.3-1,.28-.6-.27-.92-.29-.69.69-1,.67-.61-.28-.92-.32-.52-1-.83-1-1,2.42-1.27,2.38-.26-2.64-.57-2.69-1,2.45-1.34,2.4-.61-.31-.92-.37-.3-1.83-.61-1.9-.55-.39-.86-.46S52,75.68,51.65,75.61s-.4-1.08-.71-1.16-.52-.53-.82-.6-.44-.79-.74-.88-.67.08-1,0-.95,1-1.25.87-.74.18-1,.08,0-1.82-.35-1.93-1,1-1.31.86-.44-.65-.73-.76-.87.47-1.16.35-.66-.09-1-.22-.09-1.43-.38-1.55-.71.07-1-.06-.6-.22-.89-.35-1.24,1.11-1.52,1,.52-2.5.24-2.64-1.63,1.78-1.91,1.64.58-2.45.3-2.6-1,.49-1.26.33-.82.18-1.1,0-.75,0-1-.14,0-1.27-.24-1.43-.95.32-1.21.15.34-1.69.08-1.87-1.19.66-1.45.48-.27-.72-.53-.9-.35-.59-.61-.78-1.49,1-1.75.8.11-1.22-.14-1.41-.85.07-1.1-.13-1,.27-1.28.07,1-2.28.78-2.48-1.42.73-1.67.53-.76-.09-1-.3-.73-.14-1-.35,0-1-.19-1.22-1,.13-1.23-.09-.68-.2-.89-.41,1-1.88.77-2.1-.63-.22-.84-.43-1.81.92-2,.7-.4-.45-.61-.67.73-1.57.52-1.78-1.21.29-1.4.07.35-1.08.16-1.3-.45-.38-.64-.6-1.24.22-1.43,0,.46-1.2.28-1.48.18-.93,0-1.21-.79-.26-1-.53-1.63.31-1.81,0,1.21-1.64,1-1.92-.35-.57-.54-.84-1.42.17-1.61-.1-.88-.2-1.07-.48.9-1.42.71-1.7-.54-.43-.73-.7.87-1.13.73-1.43S9,41.86,8.85,41.57s-.45-.51-.59-.81-1.32-.09-1.46-.39.84-1.13.7-1.43.73-1.06.59-1.36-1.2-.16-1.34-.45-1.66,0-1.79-.27-.41-.55-.54-.85S6,34.59,5.92,34.29s-.09-.66-.21-1-1.28-.2-1.4-.51-.77-.44-.88-.75-.14-.68-.25-1,1.37-1.15,1.27-1.47.29-.79.19-1.1-2-.07-2.09-.39S3.73,27,3.63,26.72s-2.31,0-2.41-.29,1.14-1,1-1.36S1.06,24.61,1,24.28s2.17-1.07,2.11-1.4-1.53-.42-1.59-.75-.13-.66-.19-1S.06,20.67,0,20.34s1.21-.73,1.15-1.06c.32,0,.42-.44.75-.48s.75.67,1.07.63.56-.71.89-.76.77.85,1.09.81.67.05,1,0,.54-.86.87-.9.75.72,1.08.68.69.27,1,.23l1-.15c.32,0,.27-2.84.59-2.88s1.29.47,1.62.43c.09.29.75,1.21.8,1.51s.61.53.66.85-1.33.89-1.27,1.21.55.55.61.86-.5.77-.42,1.09-.08.68,0,1,.9.44,1,.75.15.63.23.94-.09.7,0,1-.9,1-.8,1.27,1.3.27,1.41.57-1,1.06-.94,1.36,2,0,2.12.27-1.16,1.14-1,1.44,0,.7.17,1,.17.66.3.95.61.46.75.75,0,.71.19,1,2.16-.34,2.3,0,.53.43.68.71-.31.89-.15,1.17.26.58.42.86S17.76,39,17.93,39.23s1,.14,1.2.42.81.25,1,.52.88.18,1.07.45-1.09,1.55-.9,1.81,1.3-.13,1.5.13.09.74.29,1,1.33-.23,1.53,0,.28.59.49.84-.47,1.24-.26,1.48,1.33-.3,1.54-.06.69.23.91.46-1.4,2.21-1.18,2.44,1.22-.26,1.45,0,.12.81.35,1,1.09-.19,1.32,0,1.09-.24,1.33,0-.57,1.59-.33,1.81S30.79,50.76,31,51s-1.19,2.38-.94,2.58.89,0,1.14.15S32.77,52.83,33,53s.63.21.88.41.27.69.52.88.45.45.71.64.77,0,1,.18.42.5.69.68-.17,1.4.1,1.58.44.52.71.69.38.64.65.8,1.22-.79,1.5-.63,0,1.26.3,1.41,1.5-1.42,1.78-1.27-.45,2.24-.16,2.39.64.18.93.32.55.36.84.49.39.74.68.87S46,60,46.24,60.12s.06,1.51.36,1.63.19,1.27.49,1.38.62.23.92.33.51.55.81.65,1.17-1.47,1.47-1.38l.91.29c.3.09.58.24.89.32s.59.24.9.31.37,1.19.68,1.26.66,0,1,.11.5.79.82.85l1,.19c.32,0,.74-.44,1.06-.39s.61.36.92.4.66,0,1,.05S60.27,64,60.58,64s.61.11.93.13S62,66,62.33,66s.74-1.86,1.06-1.85.57,1.22.89,1.23.66-1.26,1-1.25.61,1.6.93,1.6.66.94,1,.93.58-2.28.89-2.29.68,1,1,1,.57-.92.89-.94.78,1.93,1.1,1.9.58-.77.9-.8.47-1.54.79-1.58.87,2,1.19,1.91.34-2.2.66-2.24.89,1.7,1.21,1.65.66,0,1,0,.39-1.45.7-1.51.91,1.34,1.23,1.28.61-.24.92-.31.45-1,.76-1,.64-.1,1-.17.33-1.25.64-1.34.86.74,1.17.65.38-1,.68-1.06,1.08,1.25,1.38,1.15.81.3,1.11.2.34-1,.65-1.1.63-.17.93-.29.36-.82.65-.94,1.23,1.18,1.52,1-.21-2,.08-2.18,1.37,1.36,1.66,1.22.51-.45.8-.6.88.25,1.17.09,0-1.34.3-1.5.24-.87.52-1,.64-.18.91-.35.87.17,1.15,0,.43-.53.7-.71-.17-1.39.09-1.58,1.41.89,1.67.7.55-.36.81-.55-.55-1.78-.3-2,1.18.47,1.43.26,1,.23,1.27,0,.29-.66.54-.87.91,0,1.15-.18.32-.63.56-.85.45-.48.68-.7,1,.08,1.24-.14-1.29-2.2-1.06-2.43.35-.52.57-.75,1.23.3,1.44.06,1.25.27,1.46,0-.77-1.55-.56-1.79,1.23.23,1.44,0-.53-1.26-.33-1.51,1.72.56,1.91.31-.53-1.22-.33-1.47.46-.44.65-.7,1.15,0,1.34-.22.23-.63.41-.89-.08-.83.09-1.1-.15-.85,0-1.12,0-.77.11-1-.12-.79,0-1.06.43-.46.58-.74.8-.27,1-.55,1-.21,1.09-.49.32-.55.46-.84,1.48,0,1.62-.29-1.35-1.33-1.22-1.62-.12-.74,0-1,.1-.64.22-.93,0-.7.09-1,1.79,0,1.9-.31.15-.64.26-.95.33-.58.43-.89.87-.42,1-.73-2-1.28-1.89-1.59.7-.46.79-.77.43-.55.51-.87-.93-.88-.85-1.19,2.14-.18,2.21-.49.47-.58.54-.9.41-.61.47-.92.27-.64.32-1-1.54-.9-1.5-1.22.48-.6.52-.92-1.49-.81-1.45-1.13.56-.58.58-.9-.11-.65-.09-1,2-.53,2-.85-.38-.68-.36-1-1.75-.69-1.75-1,2.52-.62,2.52-.94-1.16-.66-1.16-1-1.14-.61-1.15-.94-.36-.61-.37-.94,1.17-.7,1.15-1-.11-.64-.13-1,.4-.68.37-1-1.08-.53-1.12-.85S121.38,2.25,121.34,1.93Z" />
            <path class="e2500804-3235-462b-83c9-a0bc8017d373"
                d="M102.35,13.23c.12-.32-1.61-1.29-1.5-1.6s1.27-.26,1.39-.58.89-.4,1-.71-1.47-1.26-1.35-1.58.28-.62.4-.94,1.27-.25,1.39-.56-.09-.76,0-1.08-.35-.87-.22-1.19a3.41,3.41,0,0,1,.9-.87c.22-.14.81-.07,1-.1s.54-.62.85-.66,1,2.43,1.28,2.39.5-.9.81-.94l.92-.12c.31,0,.72.66,1,.61s.22-2.93.53-3,.77,1,1.07,1,.48-1.15.78-1.19.84,1.58,1.15,1.54.64.11,1,.07.65.17,1,.13.42-1.55.73-1.59,1.51-.34,1.81-.38c0,.33-.31,1.59-.27,1.91s.21.64.24,1,0,.66,0,1,.36.63.38,1-1.52.74-1.51,1.06.47.62.48,1,1,.63,1,.95.53.66.53,1-1,.65-1,1,1.25.71,1.24,1-1.62.58-1.64.9-.57.6-.6.92.15.65.12,1-.09.63-.13,1-.28.6-.32.92.23.68.18,1,.06.66,0,1,.37.74.3,1.05.58.81.5,1.13-1.08.41-1.16.72.15.72.06,1-1.73.16-1.82.47,2.12,1.35,2,1.66-.29.59-.4.89-2.54-.22-2.65.08,2,1.42,1.9,1.72-.54.48-.65.78-.37.55-.49.84-.31.57-.43.86.24.82.11,1.11-1.21.15-1.34.44-.54.44-.68.73-.13.64-.27.92.65,1.08.5,1.36.11.81,0,1.08-1.8-.28-2,0,.68,1.16.52,1.43-1.3,0-1.47.21,0,.77-.16,1,.34,1,.16,1.27-1.43-.22-1.62,0,.57,1.21.38,1.46-1.66-.46-1.85-.21.08.87-.12,1.12.18,1,0,1.23-1-.07-1.26.17-.06.8-.28,1,.09,1-.13,1.2-.46.46-.69.69-2-1.08-2.18-.86,1.3,2.3,1.07,2.52-.59.33-.83.55-.43.51-.67.72-2.27-1.72-2.52-1.52.53,1.65.28,1.85-1-.28-1.26-.09-.16.85-.41,1-.07,1-.33,1.19-1.39-.91-1.66-.73-.89-.26-1.16-.08.44,1.86.17,2S93.3,52.79,93,53s-.14,1-.41,1.16-.52.37-.8.52-.34.73-.63.87-.89-.36-1.18-.22-1-.71-1.32-.58,0,1.42-.32,1.55-1-.81-1.33-.68.31,2.37,0,2.49-1.42-1.81-1.71-1.69.32,2.6,0,2.72S83.89,56.93,83.59,57s-.24,1.22-.54,1.33-.46.64-.76.74-.45.74-.76.83-1.17-1.69-1.47-1.61-.49.58-.8.66-.19,1.85-.5,1.93-.73-.27-1-.2-1.06-1.86-1.37-1.79-.47.8-.78.86-.38,1.55-.69,1.6-.59.47-.91.51-.62.31-.94.35-.76-.86-1.08-.82-.6.53-.92.56-.72-.86-1-.84-.67-.63-1-.62-.63.12-.94.13-.63.35-.95.36-.62-.44-.94-.44-.62-.25-.94-.26-.67,1.07-1,1-.65.05-1,0S62.76,60,62.45,60s-.7.66-1,.63-.75.88-1.06.84-.46-1.34-.77-1.39-.57-.38-.89-.43-.73.55-1.05.49-.82.85-1.14.78-.7.15-1,.08-.08-2.34-.39-2.42-.7.23-1,.15-1,1.32-1.34,1.23-.57-.38-.87-.47-.11-1.7-.42-1.81-1,.91-1.27.8-.19-1.32-.49-1.43-.95.71-1.25.59-.21-1.13-.51-1.26-.79.28-1.09.15-.94.51-1.23.37-.29-.92-.58-1.06-.2-1-.49-1.18-.91.37-1.19.23-.92.33-1.2.18.12-1.55-.16-1.71-.48-.42-.76-.59-1.41,1.08-1.68.91.31-1.7,0-1.87-1.55,1.2-1.82,1,.16-1.39-.11-1.57-.39-.56-.65-.75-.47-.42-.73-.61-1.47.84-1.73.64-.4-.55-.65-.76.65-1.78.41-2-1.51.76-1.75.54-.6-.31-.84-.53-.66-.26-.9-.48-.87-.07-1.1-.29.7-1.61.47-1.84-.31-.59-.53-.82-1,0-1.17-.25-.61-.34-.82-.59.93-1.6.73-1.85-.6-.32-.8-.58-.61-.32-.81-.58-1.14,0-1.33-.21,0-.78-.21-1-1.44.19-1.62-.08.14-.88,0-1.15.58-1.12.41-1.4-.56-.41-.72-.69-.79-.29-.95-.58.65-1.09.5-1.37-1.51.07-1.66-.22-.48-.49-.62-.78,1.37-1.39,1.22-1.68-.14-.64-.27-.94-.33-.56-.46-.86-1.13-.22-1.25-.52.55-.92.43-1.23-2.21.15-2.32-.16,1.24-1.15,1.14-1.46-1.3-.26-1.4-.57-.77-.48-.86-.79,0-.72-.07-1,.92-.93.84-1.25-.7-.51-.77-.84-.15-.65-.2-1,1.2-.86,1.15-1.19-1.08-.49-1.12-.82.95-.75.92-1.08-.27.24-.28-.09c.33,0-.18.55.15.55s.64-1.28,1-1.29h1c.33,0,.67.68,1,.67S21,16,21.37,16s.65.2,1,.2c-.24,0-.48.88-.84.88s-.79-.53-1.14-.53c.25.25-.09,1.45.14,1.68s1.73-.76,2-.53-.21,1.18,0,1.41.71.24.94.48.76.19,1,.42-.69,1.58-.46,1.8,2.26-1.39,2.48-1.17-.93,1.86-.71,2.08,1.47-.62,1.7-.41-.41,1.36-.18,1.58-.14,1.09.09,1.3.46.46.7.67,1.1-.29,1.34-.08,1.1-.32,1.34-.11.2.73.45.93,1.2-.47,1.44-.27-.09,1.1.15,1.29,0,1,.28,1.17,1.49-.9,1.74-.71-.87,2.21-.62,2.39,1-.23,1.22,0,1.17-.56,1.42-.37.2.81.46,1,.87-.19,1.14,0,.28.7.55.87-.28,1.61,0,1.77,1.42-1.09,1.69-.93.55.28.83.44-.31,1.79,0,1.94.44.56.72.71,1.24-1,1.52-.81.68,0,1,.18.84-.32,1.13-.19.34.74.63.86-.09,1.8.2,1.92,1.51-2,1.8-1.9.42.59.72.7.51.38.81.49.3,1.07.6,1.17.49.57.79.66.43.86.74,1,1-1.2,1.28-1.12.68-.19,1-.12.56.36.87.42.57.4.88.45.65-.12,1-.07.65-.14,1-.1.7-.73,1-.7.54.74.86.76.53,1.51.84,1.53.67-.48,1-.47.65-1.3,1-1.29.62,1.43.94,1.43.65.29,1,.28.62-.59.94-.61.72,1.11,1,1.09.44-2.67.76-2.7.79,1.44,1.12,1.41.73.54,1,.5.35-2.24.67-2.28,1,2.49,1.37,2.43.22-2.5.54-2.56,1.12,2.27,1.44,2.21.62-.33.94-.41.23-1.85.54-1.93.61-.19.92-.27.47-.67.78-.76,1.15,1.51,1.46,1.41.79.21,1.09.1.23-1.3.53-1.42.59-.28.89-.4.18-1.17.48-1.31,1.43,1.54,1.72,1.39.84.16,1.13,0,0-1.45.27-1.6.8.06,1.08-.1,0-1.21.31-1.38.15-.91.42-1.1.37-.54.64-.73.58-.24.84-.43.36-.54.61-.75,1.43.75,1.68.54.42-.51.66-.73.13-.8.37-1,.32-.57.55-.81,1.81.88,2,.65S93,28,93.17,27.72s.51-.39.72-.63-.16-.94,0-1.19,1.63.47,1.82.22-1.43-1.84-1.24-2.1,1.15.06,1.32-.2.07-.7.25-1,.17-.62.34-.89,2,.47,2.19.2-.18-.85,0-1.13-.72-1.1-.58-1.38,1.14-.13,1.28-.42.25-.59.38-.88.58-.45.7-.74-1.06-1.12-1-1.42-.33-.78-.22-1.08,1.2-.21,1.31-.51.28-.57.38-.87S102.26,13.54,102.35,13.23ZM82.48,51.15c.31-.11.22-2.12.53-2.23s1,.84,1.29.74.87.43,1.17.31-.12-1.9.17-2,.58-.23.87-.37,1.07.7,1.35.55.39-.61.67-.76.24-.87.51-1,.58-.24.86-.41.68-.08.95-.25.25-.78.51-.95,1.94,1.78,2.2,1.6.09-1,.35-1.22.54-.36.8-.55,1,.21,1.22,0-1.23-2.67-1-2.87,1.18.5,1.43.3-.2-1.23,0-1.43,1.56.89,1.81.68.61-.27.85-.48.66-.24.89-.46-.53-1.51-.3-1.73.09-.81.32-1,1.06.18,1.28,0,.35-.54.58-.77.49-.4.71-.64.21-.67.42-.9,1.6.57,1.81.33.1-.78.31-1-.31-1.1-.11-1.35,0-.81.19-1.06,1.16.1,1.35-.16-.63-1.26-.44-1.52,1.66.42,1.84.16.81-.24,1-.51.19-.66.36-.93.37-.54.54-.81.51-.45.68-.73,0-.73.2-1,.16-.65.31-.94-.14-.79,0-1.08-.37-.89-.23-1.18,1.14-.16,1.27-.45,0-.72.09-1,1.75,0,1.88-.26-2-1.5-1.9-1.8.31-.55.42-.85,2.55.23,2.66-.08-2.11-1.21-2.08-1.53.37-.46.33-.78,0-.54-.08-.84A2.71,2.71,0,0,0,113,15c-.2-.26-.67,0-.94-.16s.09-1.19-.23-1.32-.61-.5-1-.54a4.38,4.38,0,0,0-1.06.19c-.34.06-.25,1.15-.57,1.29s-.1.57-.37.78-1.6-.86-1.81-.59.66,1.09.52,1.4-1.32.16-1.46.48.11.8,0,1.11.48,1,.34,1.29-1.46,0-1.6.31.76,1.11.62,1.39-1.71-.16-1.86.12.22.85.07,1.12.35.95.19,1.23-1,.13-1.21.4.08.8-.09,1.07.26.95.08,1.21l-.55.81c-.18.27-2.12-.7-2.31-.44s1.69,2,1.5,2.29-.52.44-.72.69-.33.59-.53.84-2.55-1.28-2.76-1,.81,1.52.6,1.76-1.05-.09-1.26.15,0,.86-.23,1.09.1,1-.12,1.24-1.53-.65-1.76-.43-.94-.1-1.17.12.74,1.77.5,2-1.24-.47-1.49-.27,0,1-.23,1.22-.46.45-.71.64-.23.77-.49,1-.94-.22-1.21,0-1.13-.55-1.4-.37.17,1.4-.1,1.58-1.14-.65-1.41-.49.63,2.31.35,2.47S85.52,39,85.24,39.1s.69,2.53.43,2.67-1.73-2-2-1.81,0,1.23-.3,1.37-.31.69-.58.84-.25.78-.51.92-1.49-1.41-1.76-1.26-.32.67-.58.83.62,1.67.41,1.88-.59,0-.74.24-2.17-.1-2.24.2.59.91.61,1.23,1.5.26,1.6.57.5.32.66.61.36.2.59.45-.32,1,0,1.22.63-.15,1,0S82.13,51.09,82.48,51.15ZM70.84,54.79c.35,0,.65-1.94,1-2s.8,1,1.1.88,1.06.27,1.32.07-.86-1.62-.68-1.9a1.7,1.7,0,0,0,.34-.62c.09-.3,1.21-.34,1.24-.69s-.33-.6-.35-.89-.7-.37-.78-.65a2.29,2.29,0,0,0-.21-.67c-.16-.26,0-.53-.23-.74s-.61.16-.88,0,.38-2.61.08-2.7-.93.64-1.24.62a5.67,5.67,0,0,0-1.17,0c-.35,0-1.16-.48-1.46-.35s.94,2.72.68,2.94-1.14-.43-1.32-.13.75.81.65,1.15-1.77.23-1.79.59a6.62,6.62,0,0,0-.18,1.1,6.68,6.68,0,0,0,0,1.2c.13.33,1.55-.15,1.77.1s.55-.15.86,0,.06,1,.41,1.09S70.48,54.76,70.84,54.79Z" />
            <path class="e5884c49-828a-4021-8ce4-ab414f73eb92"
                d="M16.26,16.91c0,.33.53.44.56.77s-.58.72-.54,1.05.66.58.7.9-1.58.95-1.52,1.28,2.46.19,2.53.51.38.56.45.88-1.06.94-1,1.26.34.59.44.9-.84,1-.74,1.27,0,.72.12,1,1,.35,1.13.66-.73,1-.6,1.31,1.76,0,1.88.32-.51.94-.38,1.24,1.79-.09,1.93.21-.41.91-.27,1.21,1,.22,1.14.51.52.44.67.73-.66,1.06-.5,1.35-.29.9-.13,1.18,1.54-.15,1.7.13.52.43.69.7-.6,1.13-.42,1.4-.09.84.09,1.11.9.17,1.08.44.79.23,1,.49.31.56.5.82-.92,1.53-.72,1.78,1.5-.36,1.71-.11.6.33.81.57,0,.9.16,1.14,1.27-.29,1.49-.05.19.68.42.91.77.11,1,.34-.52,1.44-.29,1.67.61.3.85.52,1.27-.47,1.52-.26-1,2.12-.75,2.33,1-.13,1.22.08.32.63.58.83.07,1,.33,1.18.52.42.79.61,2-1.64,2.22-1.45.48.4.75.58,0,1.24.22,1.41,1-.36,1.26-.19.24.83.52,1,1-.42,1.25-.26,0,1.33.28,1.49.42.57.71.72.24,1,.53,1.12.88-.3,1.18-.17.76-.1,1,0,.77-.14,1.07,0,.45.57.74.69.89-.53,1.18-.41,0,1.9.25,2,.9-.58,1.2-.47.87-.59,1.17-.49.36.9.67,1,.53.43.84.52.42.86.73.94.52.62.82.69,1-1.21,1.28-1.14.32,1.5.63,1.57.69-.08,1,0,1-1.84,1.3-1.79S59,62,59.31,62s.73-.45,1-.4.66,0,1,0,.63.2.95.23.61.57.93.59.76-1.87,1.08-1.85.58,1.34.9,1.35.65-.16,1-.16.65-.21,1-.21.66.51,1,.5.58-1.55.9-1.57.66.53,1,.51.74,1.12,1.05,1.09.69.28,1,.25.35-2.47.67-2.52.73.76,1,.71.87,1.34,1.18,1.29.38-1.58.69-1.64,1,1.5,1.27,1.43.49-.85.8-.92.71.17,1,.09,0-2.41.34-2.49,1,1.42,1.35,1.34.92.8,1.22.71.14-1.74.44-1.83.47-.58.78-.68S84,59.1,84.29,59s-.19-2.34.11-2.45,1.07,1,1.37.91.07-1.48.37-1.6,1.64,2.23,1.93,2.1-.44-2.56-.15-2.69.89.43,1.17.3.56-.31.84-.45,1.07.68,1.35.54,0-1.42.24-1.57,1,.4,1.23.25-.16-1.53.11-1.69,1.8,1.75,2.07,1.58-.8-2.47-.54-2.64,1.24.74,1.5.57,0-1.1.27-1.28.36-.57.61-.75,1.66,1.17,1.92,1,.82,0,1.07-.21.3-.67.55-.88-.14-1.16.1-1.37.47-.43.7-.64.45-.45.69-.66.23-.67.46-.89.21-.68.43-.9,1.35.42,1.57.19.39-.51.6-.75,0-.86.21-1.1.06-.77.26-1,.06-.75.26-1,.68-.25.87-.5.34-.52.53-.78.87-.14,1.05-.4-.8-1.32-.62-1.58,2.4.86,2.57.6-.5-1.1-.33-1.36,1.07-.09,1.23-.36-1.47-1.62-1.31-1.89,1.62.21,1.77-.07-.06-.76.09-1,0-.71.13-1,1.12-.14,1.26-.43-.79-1.08-.65-1.36.84-.3,1-.59-.6-.95-.48-1.24,1.92.13,2-.16.3-.58.41-.88-1.64-1.31-1.53-1.61,1.53-.1,1.64-.4,1.37-.2,1.48-.5.3-.6.4-.9-1.76-1.25-1.66-1.56.57-.5.66-.81-1.1-.95-1-1.26.32-.56.39-.87.39-.55.46-.87-.29-.69-.23-1,2.66-.18,2.71-.5.46-.61.5-.93-2.58-1-2.54-1.32.78-.55.82-.87-.44-.68-.42-1,.9-.57.92-.89.45-.63.47-.95-.65-.67-.64-1-1-.65-1-1,.65-.63.64-1,2.12-.7,2.11-1-.75-.63-.76-1-.79-.61-.81-.93-.44-.61-.47-.94-.66-.57-.69-.89,1.67-.83,1.63-1.15-.66-.6-.7-.92c.3,0,.46-1.49.76-1.53s.75,1.36,1,1.32.52-.73.82-.76.81,1.93,1.11,1.9,1-2,1.27-2c0,.32.07,1.2.11,1.52s.9.58.93.9.18.66.2,1-.3.7-.28,1-1.84.76-1.82,1.09,2.08.57,2.09.89-2.37.71-2.36,1,1.25.64,1.25,1,.69.67.69,1-1.76.6-1.77.93,1.59.72,1.58,1-1.34.57-1.37.89,1.44.77,1.41,1.1-1.49.51-1.52.83,1.45.82,1.41,1.15-.41.61-.46.93-2.11.33-2.16.65.2.67.15,1,.16.68.1,1,1.89,1.06,1.82,1.37-.87.49-1,.81-.45.56-.53.87-.51.54-.6.85.38.79.29,1.1.37.81.28,1.12-2,0-2.13.34,1.91,1.34,1.8,1.65-1.64.1-1.75.41-.28.58-.4.89.06.72-.06,1-1.3.14-1.42.43-.23.58-.36.87.68,1,.55,1.29-1.36,0-1.5.33,1.34,1.38,1.19,1.66-2.1-.39-2.25-.11.54,1,.38,1.28-.45.46-.61.74-.62.36-.78.63.73,1.19.56,1.46-1,.13-1.15.39-1.09,0-1.27.29,1.57,1.86,1.38,2.12-.29.59-.48.85-.44.48-.63.74-1.47-.33-1.67-.08.4,1.14.2,1.39-.18.69-.38.93-1.72-.62-1.93-.38,1.06,1.78.84,2-.88.07-1.1.31-.28.62-.5.85-1.4-.47-1.62-.25-1-.06-1.18.17.27,1.19,0,1.41-.27.66-.5.88-1.48-.68-1.72-.46.79,1.87.55,2.09-1.43-.69-1.67-.48-.73.11-1,.31,1,2.35.77,2.55-.5.45-.76.64-1.19-.52-1.46-.33-.49.43-.75.62-1-.33-1.27-.15.54,2,.26,2.19-1.25-.76-1.53-.59-.69.11-1,.27-.5.42-.79.58-1-.59-1.33-.44,0,1.43-.26,1.57-.84-.23-1.13-.09.1,1.72-.2,1.86-1.06-.75-1.35-.62-.33.89-.63,1-.45.64-.76.76S87.32,62,87,62.15s-.79-.28-1.09-.17-.42.78-.73.88-.68,0-1,.08-1-1-1.27-.88-.61.13-.92.22-.66-.06-1,0l-.92.2c-.31.08,0,2.83-.34,2.89S79,64.94,78.7,65s-.75-.49-1.07-.43-.55.55-.87.61-.7-.27-1-.22-.71-.4-1-.35-.6.32-.91.36-.68-.27-1-.23-.59.42-.91.45-.66-.3-1-.27-.62.26-.94.28-.67-.67-1-.65-.61.42-.93.43-.6,1.53-.92,1.54-.66-1.3-1-1.3-.64.46-1,.46-.68,1.27-1,1.26-.62-.85-.94-.86-.68.4-1,.38-.47-2.12-.79-2.15-.63,0-.94,0-.87,2-1.19,2-.5-1.18-.81-1.22-.44-1.3-.76-1.35-.83,1.13-1.14,1.07-.76.54-1.07.48l-1-.17c-.31-.07-.5-.71-.81-.78s-.33-1.28-.64-1.36-.66,0-1,0-.87.72-1.17.63-1,1-1.28.86-.06-1.89-.36-2-.44-.65-.74-.76S47.29,63.4,47,63.29s-.07-1.6-.37-1.72-1.09,1-1.39.83.16-2-.13-2.1-1,.7-1.3.57-.16-1.14-.45-1.28-.93.46-1.22.32.14-1.62-.14-1.77-.64-.12-.92-.28-.72,0-1-.14-.6-.22-.87-.38-.6-.23-.87-.4S36.78,58.21,36.51,58s.42-1.79.15-2-.1-1-.36-1.14-.37-.55-.63-.74-1.84,1.45-2.1,1.26.32-1.48.07-1.68-.55-.31-.8-.51-1,.27-1.29.07-.7-.17-.95-.37-.47-.45-.71-.66-.93.07-1.17-.14.56-1.59.32-1.8-.59-.32-.83-.54-.64-.27-.87-.49.34-1.25.11-1.48-2.08,1.11-2.31.87,1.38-2.17,1.16-2.41-.64-.27-.85-.52-.38-.5-.59-.75-1.8.66-2,.41-.46-.48-.67-.73,1.42-1.93,1.22-2.18-2,.73-2.23.47.62-1.25.43-1.52-2,.58-2.16.31,1.4-1.72,1.22-2-.6-.37-.77-.64-1.77.31-1.94,0,2-2,1.88-2.23-2.58.71-2.74.43,1.55-1.58,1.4-1.86-.44-.48-.58-.77-.77-.33-.91-.62-.19-.63-.32-.92.65-1,.52-1.28-2.71.45-2.83.15,1.67-1.38,1.56-1.68-.19-.61-.3-.91-2.35.16-2.45-.15.72-.95.62-1.25-.62-.49-.72-.8.39-.81.3-1.12.95-.93.86-1.25-.81-.44-.89-.75-.2-.61-.27-.93,0-.66-.08-1-.66-.52-.73-.84.56-.76.5-1.08-.39-.58-.45-.9.58-.75.53-1.07-.27.12-.37-.16c.32-.07-.42-1.61-.1-1.68s.67,0,1,0,1.09,2.12,1.41,2.05.33-1.65.65-1.72S15.94,17,16.26,16.91Z" />
            <path class="b74d9a21-c30a-4534-aac7-9de0c698894d"
                d="M36.18,22.64c.23.18-.2,1.15,0,1.33s1.47-.92,1.7-.74-.74,1.92-.51,2.11,1.15-.51,1.38-.33.88-.18,1.12,0,.54.31.77.49.4.79.69,1,.64.26,1,.48-.67,2.15-.4,2.33.69.19,1,.36.39.69.67.85S44.73,29.8,45,30s1-.49,1.26-.34-.35,2.28-.05,2.42,1.34-1.42,1.64-1.3.41.71.71.82,1-.78,1.28-.68.58.25.89.35.69-.13,1,0,.23,1.48.54,1.56,1-1.06,1.26-1,.54.43.86.51.1,2.46.42,2.53.85-.79,1.17-.73.47,1,.79,1.1,1.13-2.34,1.45-2.27.21,2.37.54,2.43.67.06,1,.12.77-.44,1.09-.38S61.72,34,62.05,34s.62.2.94.24.5,1.58.83,1.61.74-.9,1.07-.89.65.31,1,.31.71.86,1.05.84.75.2,1.08.16.57-.84.9-.9.44-1.6.76-1.64.82,1.33,1.13,1.29.58-.5.9-.55.57-.44.89-.5.83.93,1.15.86.45-1,.76-1,1,1.5,1.34,1.43.08-2.29.39-2.38,1.14,1.65,1.45,1.56.06-2,.36-2.11.74.22,1,.12.69,0,1-.09,1.05.88,1.35.76,0-1.68.29-1.81.93.49,1.22.36.49-.49.78-.63.22-1,.5-1.11,1.48,1.34,1.76,1.18-.38-2-.11-2.12.35-.62.62-.79.82.11,1.09-.07,1.06.41,1.32.23.26-.76.51-.95-.24-1.35,0-1.55,1,.27,1.27.06.72-.14,1-.35.67-.22.9-.44.93,0,1.16-.2-1.2-2.11-1-2.34,1.84.9,2.06.67.21-.69.43-.93S94.76,21,95,20.79s2.07.9,2.28.65-1-1.63-.79-1.88.14-.68.33-.93,2.17.78,2.35.52-1.65-1.95-1.47-2.22,2.17.69,2.35.42-.35-1-.18-1.27-1.13-1.44-1-1.72,1.42.11,1.58-.17.27-.47.41-.69-.28.1-.14-.13c-.09.3.58.17.48.48s0,.65-.15,1-.37.54-.48.84-1.63,0-1.75.32.57.9.44,1.19-.14.62-.27.91-.69.36-.83.64S99.4,20,99.25,20.3s-1.32,0-1.47.31-.87.22-1,.49,1.11,1.39.94,1.66-.38.53-.55.79-.45.48-.63.74-.18.66-.37.92-.7.28-.9.53-1.57-.45-1.77-.2-.23.59-.44.83.56,1.31.34,1.54-1.57-.61-1.79-.38,0,.82-.25,1l-.68.67c-.24.22,1,2.08.78,2.3s-2.35-1.71-2.6-1.5,0,1-.26,1.17-.11.9-.37,1.09-.61.27-.87.46-.13,1-.4,1.15-.51.45-.78.62-.33.75-.61.92-.76,0-1,.2-1.44-1.34-1.73-1.19.55,2.57.25,2.71-1.3-1.22-1.59-1.09-.84-.33-1.14-.2-.53.35-.84.47-.8-.38-1.11-.27-.24,1.23-.55,1.34-.72-.19-1-.09l-.92.27c-.32.08-.55.41-.87.49s-.21,1.9-.53,2S73.33,38,73,38.07s-.23,2.21-.55,2.26-1-2-1.34-2-.57.46-.89.51-.37,2.13-.7,2.17-.66.16-1,.19S67.75,40,67.43,40s-.64.17-1,.2-.73-1.61-1-1.6-.58.57-.9.58-.59,2.29-.91,2.29-.64-2-1-2-.69,2-1,2-.62-.83-.93-.85-.7.66-1,.63-.44-2.13-.75-2.17-.89,2.12-1.21,2.08-.44-1.54-.75-1.59-.7.36-1,.3-.45-1-.76-1.11-.4-1-.71-1.11-.81.8-1.12.72-1,1.17-1.26,1.09-.79.36-1.09.27-.27-1.34-.57-1.43-.94.77-1.24.67-.51-.52-.81-.63,0-1.68-.33-1.8-.24-1-.53-1.13-.7.09-1,0-1.26,1.23-1.54,1.1.28-2,0-2.16-.7.05-1-.1-.39-.56-.67-.71-.8.18-1.07,0-.59-.22-.86-.38-.73,0-1-.16-1.08.54-1.35.38-.23-.83-.49-1,.36-1.68.1-1.85-2,1.76-2.21,1.58.46-1.77.2-1.95-.19-.8-.44-1-1.39.84-1.64.65-1,.29-1.27.1.74-2,.49-2.18-.67-.16-.92-.35,0-.94-.28-1.14-1,.22-1.22,0-1,.21-1.25,0,.56-1.61.33-1.82-.94.13-1.18-.08.05-1-.18-1.2-.93.11-1.17-.11-.15-.74-.38-1-.88,0-1.11-.19.22-1.12,0-1.34-1,.11-1.21-.12-1.5.6-1.72.38.19-1.13-.05-1.37-.35-.58-.59-.82-1.17.23-1.41,0,.24-1.17,0-1.42-.57-.32-.81-.56c.35,0,.59,1,.82,1s.69-2.22.94-2.22.43,2.43.76,2.47.94-2.07,1.27-2,.41,2.07.74,2.11.93-1.94,1.26-1.89.36,2.17.69,2.22.64.17,1,.22l1,.19c.32,0,.3-.15.6.07s1.94-1.23,2.18-1-.59,1.55-.36,1.76.59.26.81.47,1.3-.47,1.52-.25-1.12,2.05-.9,2.26,1.91-1.09,2.13-.87.44.41.66.63S36,22.42,36.18,22.64Z" />
            <path class="b5a76a95-b68e-4974-a030-9fbe422fe9ad"
                d="M82.39,49.85c-.36-.06-1,1.08-1.28,1s.5-2.39.23-2.57-1.22.69-1.44.44a3.47,3.47,0,0,1-.46-.85c-.16-.29-.09-.61-.2-.94s-1.36-.38-1.39-.67a4.38,4.38,0,0,1,.21-1.09A4.24,4.24,0,0,1,78.22,44c.14-.26,2,.86,2.22.64s-.89-2-.62-2.17.21-.89.47-1,.78.11,1,0,.68,0,.94-.19,1.33,1.2,1.59,1.06,0-1.27.28-1.41,1.15.87,1.42.72-.52-2.2-.26-2.35.85.22,1.13.06.74,0,1-.16.1-1,.37-1.21,1.05.45,1.32.28.18-.86.45-1,.39-.53.65-.72.37-.54.62-.74,2,1.47,2.22,1.27-.78-2-.53-2.19.18-.74.42-.95.16-.74.4-1,2.45,1.7,2.69,1.48.46-.49.69-.71-1.28-2.16-1.06-2.39,1.92.93,2.13.69-.67-1.48-.46-1.72,1.38.35,1.59.1.48-.45.68-.7.62-.35.82-.6.22-.66.41-.91S99.4,26.23,99.58,26s.34-.51.52-.77.72-.26.9-.53,0-.7.22-1,1-.13,1.14-.4,1-.16,1.14-.44.47-.48.62-.76-.94-1.23-.79-1.51,1.17-.1,1.32-.39.94-.25,1.08-.54,0-.71.15-1-.42-.95-.27-1.26.51-.52.66-.83-.12-.81,0-1.12,1.76.36,2,.1.08-.52.34-.73-.23-1.61.08-1.75,1.06,1.54,1.4,1.49.34-.2.68-.16.65-.67,1-.54,1.08-.49,1.33-.29-.78,1.6-.59,1.86,2-.45,2.13-.14.74.75.79,1.08-2.1.7-2.14,1,1.37.94,1.25,1.26-2.12-.08-2.23.22,1,1,.87,1.34.07.73-.06,1,.2.79.07,1.09-.38.55-.52.84-.32.57-.46.86-1.35,0-1.49.32,1.13,1.33,1,1.62-.88.26-1,.54-1.43-.1-1.59.18.83,1.25.66,1.52-1.23,0-1.4.25-.24.6-.42.87-.22.61-.41.88.31,1,.12,1.27-.87.15-1.06.41-1.17-.11-1.37.14,1.53,2.06,1.32,2.31-.65.31-.86.56-1.31-.28-1.53,0-.82.12-1,.35-.91,0-1.13.24.88,1.73.66,2-.44.47-.67.69-.1.82-.33,1-.19.75-.42,1-1.63-.81-1.86-.59.56,1.6.32,1.81-.9-.05-1.14.16S97.23,41,97,41.23s-.24.71-.49.91.14,1.22-.11,1.41-1.31-.66-1.56-.47-.23.76-.49,1-.62.23-.88.42.18,1.41-.09,1.58-.7.12-1,.3-.92-.25-1.19-.08-.8-.1-1.07.06-.51.4-.78.56-.84-.21-1.12-.06.4,2.1.11,2.25-1.65-1.85-1.94-1.7-.3.8-.59.93-.65,0-1,.12-.24,1.19-.55,1.3-.73-.12-1,0S82.69,49.74,82.39,49.85Z" />
        </g>
    </g>
</svg>