<svg xmlns="http://www.w3.org/2000/svg" viewBox="0 0 106.93 125.34">
    <defs>
        <style>
            .bc1ecfa8-9580-4278-9e9a-514ba586fff8 {
                fill: #b5d699;
            }

            .ef86e52a-9de0-4154-96fa-4b5887e5962f {
                fill: #89ba90;
            }

            .f5181cd1-3a6e-422e-b032-ee0563701aba {
                fill: #fcecc2;
            }

            .fcba262f-86cd-47b1-a3d6-4351fcfc1bfb {
                fill: #8bbb91;
            }

            .fec4ae01-b115-4ce6-8111-a4242c3fd7a6 {
                fill: #e2c6aa;
            }

            .b80dda55-845d-40d2-8a90-a51cbcba2bb7 {
                fill: #775751;
            }

            .e929f6be-a512-4546-9357-1bbd01cc57c5 {
                fill: #8cbc92;
            }

            .b53ef5ca-eaa2-4476-a00f-c3bb969ace11 {
                fill: #b5d79a;
            }

            .ecf6b584-3f76-46de-b815-3527186b6623 {
                fill: #8ebd93;
            }
        </style>
    </defs>
    <title>資產 2</title>
    <g id="f343c922-2877-4647-becc-a01545e503ca" data-name="圖層 2">
        <g id="b8318a4c-90a4-4bc0-8d1b-08cac96eea4f" data-name="圖層 1">
            <path class="bc1ecfa8-9580-4278-9e9a-514ba586fff8"
                d="M104,72.7c0,.32-.17.65-.17,1s-.08.64-.09,1,1.12.7,1.1,1-.32.64-.35,1-2.3.44-2.33.76.11.63.08.95-.12.61-.16.93,1,.76.91,1.08.79.78.74,1.1.3.72.24,1-2.3.2-2.36.51.37.72.3,1,.7.83.63,1.14-.21.61-.29.92.59.84.5,1.15-.52.53-.61.83,0,.69-.09,1-.41.55-.52.85.23.78.11,1.08-1.78,0-1.9.31-.07.65-.2,1-.29.56-.42.85.69,1,.56,1.31-1.43,0-1.56.32,1,1.2.82,1.48-2.12-.38-2.27-.1.93,1.22.78,1.5.16.84,0,1.12-2-.44-2.15-.17-.1.67-.27.94,1,1.41.84,1.68-.86.2-1,.46-.83.2-1,.46.71,1.31.52,1.56-.93.12-1.12.37-.79.19-1,.44,1.09,1.73.88,2-1.41-.33-1.62-.09.24,1.08,0,1.32-1.23-.24-1.44,0-.47.44-.69.67-1.21-.3-1.43-.07,0,.84-.28,1.06-.11.81-.35,1-.1.85-.34,1.06-1.14-.33-1.39-.12.11,1.12-.14,1.32-.41.52-.66.72-1.76-1.22-2-1,1.07,2.49.82,2.68-.34.66-.61.85-2-1.71-2.23-1.53.7,2.2.43,2.38-.84-.09-1.11.08-.53.38-.81.55-1.53-1.35-1.81-1.19-.49.38-.77.53.52,2.31.24,2.46-1.21-.93-1.5-.79-.14,1.17-.43,1.31-.95-.5-1.24-.37-.06,1.46-.35,1.58-1-.63-1.28-.51-1.16-1.22-1.46-1.1-.43.61-.73.72-.57.24-.88.35-.71-.18-1-.08,0,2-.35,2.07-.74-.24-1-.15-.57.34-.88.42-.69-.12-1,0-.3,1.55-.62,1.62-.7-.14-1-.07-.94-1.45-1.26-1.39-.52.68-.84.73-.74-.65-1.06-.6-.47,1.28-.78,1.32-.59.58-.91.62-.73-.79-1.05-.76-.71-.89-1-.87-.51,2.22-.83,2.24-.71-1.33-1-1.31-.64.28-1,.28-.64.16-1,.16-.64-.69-1-.7-.68,1.14-1,1.13-.67.19-1,.17-.5-2.15-.82-2.17-.78,1.67-1.1,1.64-.73.69-1,.66-.63-.31-1-.36-.6-.48-.92-.53-.51-.91-.82-1-.75.49-1.06.43-.61-.29-.92-.35-.3-1.61-.62-1.68-.54-.37-.85-.44S39.26,123,39,122.92s-.34-1.2-.65-1.28-.94.92-1.25.82-.66-.06-1-.16.14-2.4-.16-2.5-1.45,2.16-1.75,2-.7,0-1-.15.36-2.61.07-2.73-1.52,1.93-1.81,1.8-.72,0-1-.15l-.89-.43c-.29-.13-.19-1.1-.47-1.24s-.47-.52-.75-.67-.37-.67-.65-.82-1.3,1-1.57.82.24-1.69,0-1.85-1.09.53-1.36.36-.15-1-.42-1.13-.84.09-1.1-.09.32-1.57.06-1.75-1.95,1.59-2.21,1.4.85-2.21.6-2.4-1.56.94-1.81.74.68-1.84.43-2-1.31.56-1.55.35-.76-.11-1-.33-.13-.83-.36-1-1.18.29-1.41.07,1.1-2,.88-2.27-1.32.41-1.55.18.67-1.49.45-1.73-1.6.6-1.81.37-.81-.16-1-.4.79-1.5.58-1.75-.66-.27-.86-.52.18-.94,0-1.19-2,.68-2.15.43.79-1.37.6-1.63-1.67.38-1.85.11,1.69-1.89,1.51-2.16-2.06.58-2.23.31-.59-.41-.75-.68,0-.74-.2-1-.87-.25-1-.53,1.77-1.69,1.62-2-1.62.14-1.77-.15-.43-.51-.57-.79-.62-.43-.76-.72S6,93.3,5.87,93s-.75-.37-.87-.67S3.43,92.27,3.31,92s.66-1,.55-1.25-.54-.5-.64-.8.86-1,.76-1.28-.77-.42-.87-.73-.47-.53-.56-.84S3,86.26,3,86s-.39-.55-.46-.87-.43-.56-.5-.87.21-.7.15-1-1.1-.44-1.16-.76,1.34-.89,1.29-1.2,0-.64-.07-1,.78-.73.74-1-1-.5-1.08-.82-.34-.6-.37-.92.92-.7.9-1,.21-.63.19-.95S.15,75,.13,74.66,1,74,1,73.67s.52-.64.52-1,.48-.62.48-.94-.21-.63-.19-1,.66-.6.68-.92-.67-.66-.64-1S.51,68.16.54,67.84,0,67.11,0,66.8s.78-.57.82-.89.7-.56.74-.87,1.25-.44,1.31-.76-.79-.78-.73-1.09.79-.49.86-.8S1,61.29,1,61s1.93-.21,2-.52-.38-.76-.29-1.07,1.09-.35,1.18-.66-.17-.7-.07-1,.88-.38,1-.68-1.68-1.24-1.58-1.54.19-.63.3-.93,1.76,0,1.88-.31.11-.63.23-.92.18-.61.3-.9.1-.65.23-.94-.58-1-.44-1.27,1.42,0,1.57-.29-1.56-1.53-1.41-1.82,1.34,0,1.49-.29.81-.28,1-.55.83-.24,1-.51.35-.51.52-.79-1.17-1.5-1-1.77.84-.22,1-.48-.47-1.13-.29-1.39.92-.14,1.11-.4.09-.74.29-1,1-.07,1.16-.32-.3-1.08-.1-1.33.48-.46.69-.7.1-.79.31-1,2.54,1.45,2.76,1.21-.09-.93.13-1.17-1-1.83-.72-2,1.85,1,2.08.74-.87-1.85-.63-2.07.25-.71.48-.93.93.06,1.18-.15,1.9,1.26,2.14,1.06.29-.63.54-.83-.89-2.17-.63-2.36,1.67,1.15,1.93,1-.5-1.79-.24-2,1.31.75,1.57.57.68-.12.95-.29.8.08,1.07-.09.13-1,.4-1.14.89.27,1.17.11-.38-2-.1-2.11.93.34,1.21.19,1.22,1,1.51.86.37-.63.66-.77.45-.5.75-.64.07-1.39.36-1.52.94.58,1.24.46.36-.81.66-.93.31-1,.61-1.12,1.13,1.22,1.43,1.11.19-1.43.5-1.53.57-.35.88-.44.6-.29.91-.38,1.09,1.52,1.4,1.44.21-1.74.52-1.81l1-.22c.31-.07.83.78,1.14.71s.35-1.6.67-1.65,1.13,2.7,1.44,2.64.27-2.35.59-2.39.76.73,1.08.69S46.48,23,46.8,23s.44-1.87.76-1.9.69.5,1,.48.66.37,1,.35.63.06,1,.05.64.56,1,.56.61.3.94.3.66-2.72,1-2.72.57,2.7.89,2.71.72-1.92,1-1.91.53,1.59.85,1.62.83-2.16,1.14-2.13.61.56.93.59.52,1.07.83,1.11.7-.33,1-.28.54.65.86.71.71-.36,1-.3.59.35.9.41.37,1.26.68,1.33,1-1.62,1.34-1.54.44.86.75.94,1-1,1.27-.95.25,1.44.55,1.53.86-.58,1.17-.48.94-.73,1.24-.63-.22,2.52.08,2.63,1.37-1.79,1.67-1.68.64.2.93.33.16,1.29.45,1.42,1.16-1,1.45-.84,0,1.63.24,1.77,1.15-.86,1.44-.71.6.28.88.43-.45,2.18-.17,2.34.24.84.51,1,.91-.31,1.18-.14,1.34-.95,1.61-.78.68.16.94.33.39.61.65.79.33.66.6.84.66.19.92.38.89-.09,1.14.11-.51,1.69-.26,1.89.78.05,1,.26.8,0,1,.25,1.1-.26,1.34-.05-1.16,2.23-.92,2.44,1.27-.43,1.51-.21.83.08,1.05.31-.5,1.38-.28,1.61,1.58-.6,1.8-.37-.31,1.16-.1,1.4.48.43.69.67.8.16,1,.41-.46,1.19-.26,1.44.46.44.66.69,1.33-.19,1.52.06-.32,1-.13,1.29.75.25.93.52-.49,1.09-.31,1.36,2.06-.56,2.23-.29-1,1.37-.82,1.64.77.28.93.56-.1.8,0,1.08,1.73-.2,1.88.08-1.59,1.55-1.45,1.84,1.52,0,1.65.25S97.86,51.5,98,51.79s2.54-.43,2.67-.14-2,1.57-1.92,1.86,2.56-.34,2.68,0,.3.59.41.89-.15.76,0,1.07-2,1.36-1.93,1.66,1.79.09,1.88.4-1.31,1-1.22,1.35,2.56,0,2.64.27.31.6.39.91-1.22,1-1.15,1.27-.94.85-.88,1.16,1,.45,1,.76.89.5.94.81.88.53.93.84-2.38,1-2.33,1.3,1.87.41,1.91.73.47.61.5.93-1.55.77-1.52,1.09,2.13.51,2.14.83-2.53.76-2.52,1.08.41.61.42.94S104,72.38,104,72.7Z" />
            <path class="ef86e52a-9de0-4154-96fa-4b5887e5962f"
                d="M24.53,85.58c.48,0,.13.33.6.41s.62-.7,1.09-.61.78-1.6,1.25-1.51,0,2.71.45,2.8.9-2.26,1.37-2.17.08,2.19.55,2.28.6-.65,1.07-.56.73-1.29,1.2-1.2.2,1.53.67,1.62.59-.58,1.06-.49.53-.24,1-.15.5,0,1,0,.12,2,.59,2.07.47.1.94.19.87-2.12,1.34-2,.46.14.93.22.4.46.87.55.31,1,.78,1.07.46.14.92.23.62-.74,1.09-.65.41.43.88.51.4.52.87.6.7-1.2,1.17-1.11.45.23.92.32.34.81.81.9.29,1.07.76,1.16.63-.79,1.1-.71.65-.88,1.13-.8.58-.52,1.05-.43,0,2.82.45,2.91,1-1.74,1.42-1.48-1,1.51-.76,1.9.61.16.88.55,1.85-.71,2.13-.32-1.5,1.63-1.22,2,.76.05,1,.45-.41.87-.13,1.26.26.41.53.8,2.31-1,2.59-.64-.43.89-.16,1.28,1-.09,1.25.3-.28.78,0,1.17.68.11,1,.5-.09.65.18,1,.76.05,1,.45.21.44.48.83,0,.62.24,1-.52,1-.24,1.34,1-.09,1.25.3-1,1.3-.74,1.7,1.86-.72,2.13-.33.77,0,1,.44-2,2-1.78,2.43,2.09-.88,2.36-.49-.65,1-.37,1.44,1.3-.33,1.58.06.52.23.8.62-1,1.28-.71,1.67-.27.78,0,1.18,1.74-.63,2-.24.7.11,1,.5-1.61,1.73-1.34,2.12,0,.58.29,1,1.57-.5,1.84-.11.55.21.82.61-.83,1.18-.55,1.57,1.48-.25,1.61.21-.76.07-1.31.34c-.23.12-.27.78-.6.94s-.57.22-.89.36-1.08-1-1.39-.89.31,2.47,0,2.59-1.46-2.16-1.77-2-.13,1.52-.44,1.62-.51.47-.82.57-1-1.33-1.36-1.24-.34,1-.65,1.14-.61.13-.93.21-.48.72-.79.79-.91-1.26-1.23-1.19-.54.42-.86.48-.25,2.24-.56,2.3-.85-1.27-1.17-1.22-.56.61-.87.65-.78-1.24-1.1-1.21-.61.14-.92.16-.55,1.09-.87,1.11-.62.48-.94.5-.66-.36-1-.35-.65-1.14-1-1.14-.64,1.45-1,1.45-.63-.52-.95-.53-.58-1.13-.9-1.15-.74,1.55-1.06,1.52-.67.25-1,.22-.5-1.4-.81-1.44-.62-.11-.94-.16-.54-.56-.86-.61-.69.38-1,.33-.45-1-.76-1-.7.33-1,.26-.59-.19-.9-.26-.83.7-1.14.62-.44-.78-.75-.86-1.15,1.62-1.45,1.53-.26-1.33-.57-1.43-.8.38-1.11.27-.55-.37-.85-.48-.06-1.64-.36-1.76-1.4,1.8-1.7,1.68.34-2.46,0-2.58-.91.53-1.2.4-.81.2-1.09.05-.91.32-1.18.17-.68-.19-1-.35.31-1.71.05-1.88-.61-.21-.86-.39-1.19.49-1.43.3.1-1.15-.14-1.35.33-1.25.11-1.47-1,.14-1.2-.09-1.12.15-1.33-.09-.22-.65-.41-.9.83-1.34.65-1.6-.52-.35-.68-.62-1.86.33-2,.06.05-.77-.08-1,.55-.93.44-1.22-1.1-.27-1.2-.57-.89-.42-1-.73-.6-.57-.67-.88.91-.87.85-1.19.07-.66,0-1,1.25-.76,1.22-1.07-1-.54-1.05-.86,1.23-.64,1.23-1-1.74-.63-1.73-.94,1.87-.54,1.89-.85-.5-.64-.47-1-.44-.67-.4-1,.31-.59.35-.9.88-.47.94-.77-2.07-1.07-2-1.37,1.32-.36,1.39-.67.94-.39,1-.69-1.78-1.16-1.69-1.46.24-.62.34-.91-.29-.8-.18-1.09,1.46-.18,1.56-.47-.57-.92-.46-1.2,0-.71.16-1,2.49.39,2.61.13-2-1.69-1.86-1.93C23.25,84.38,24.07,85.63,24.53,85.58Z" />
            <path class="f5181cd1-3a6e-422e-b032-ee0563701aba"
                d="M28.51,27.32c.3-.13,2.43,1.22,2.74,1.08s-.05-1.76.25-1.89,1.12.9,1.42.77.31-1.23.62-1.37c.2.25-.47,1.4-.26,1.64s.45.45.65.7,2.14-1,2.35-.75-.25,1.05,0,1.29-.82,1.53-.61,1.78.77.18,1,.42.21.65.42.89.52.39.73.64,0,.8.25,1,1.61-.54,1.82-.3-.24,1,0,1.28,2.05-.9,2.25-.66-.39,1.17-.19,1.42.7.24.91.48-.09.91.12,1.15.28.6.48.84,1.37-.32,1.58-.07.23.63.44.88-1.37,2-1.17,2.22,2.08-.91,2.29-.67-.72,1.43-.51,1.67.57.36.77.6,1,0,1.25.25.62.28.86.5-.44,1.82-.17,2,1.37-1.55,1.7-1.48.58,2.21.93,2.16.25-1.78.59-1.93,1.3,1,1.6.75c.11-.07,0,.06.13,0,.31-.09,0-2.43.32-2.52s.75.27,1.07.19,1.09,1.53,1.41,1.44.66,0,1-.12.28-1.48.59-1.57,1.14,1.7,1.46,1.61.09-2.14.4-2.23.79.44,1.11.35.69.07,1,0,.83.58,1.14.49.66-.06,1-.15-.94-1.72-.63-1.8c-.21-.24,1.2-.46,1-.7s-.67-.27-.89-.51-.42-.49-.64-.73-.81-.14-1-.38.25-1.1,0-1.34,0-.83-.25-1.07-.31-.6-.53-.84-.6-.33-.81-.57-.3-.61-.51-.85-2.37,1.26-2.59,1,1-1.78.79-2-.9-.06-1.12-.3-1.24.25-1.46,0,.64-1.45.42-1.69-.75-.19-1-.43-1.11.13-1.33-.11.46-1.29.25-1.53-1.09.11-1.31-.14-.38-.52-.6-.76,1.12-1.88.9-2.12-2.06,1-2.28.74l-.66-.72c-.21-.24.83-1.61.61-1.85s-2.22,1.12-2.43.88.27-1.58.06-1.82c.3,0,1,.38,1.27.39s.6-1,.9-1,.61,1,.91,1,.6.24.91.25.6-.15.9-.15,1-1.32,1.32-1.32c.21.23,0,1.33.26,1.56s-.35,1.17-.14,1.41.61.29.82.52,1.56-.56,1.77-.33-1.22,2-1,2.19,2-.92,2.16-.68-.94,1.7-.73,1.93,2.27-1.21,2.48-1-.24,1.06,0,1.3-.66,1.45-.45,1.68,1.26-.3,1.47-.06,1-.05,1.21.18-.93,1.69-.72,1.93.92,0,1.13.24,1.7-.68,1.91-.45-.22,1,0,1.28-.92,1.68-.71,1.91.47.43.68.66.25.62.46.85,1-.1,1.26.13,1.71-.68,1.92-.45-.82,1.58-.62,1.82,1.18-.21,1.39,0,.54.18.81.33.3.45.66.48.58.28,1,.22.55-.53.86-.58.51-.83.82-.88,1,2.59,1.32,2.55.29-2.4.6-2.44.85,1.53,1.16,1.49.45-1.29.76-1.34.56-.54.87-.59.86,1.73,1.17,1.69.52-.83.83-.87.56-.53.87-.58.61,0,.91,0,.8,1.49,1.1,1.45.56-.35.86-.39.31-2.2.61-2.23.75,1.11,1,1.07.52-.67.82-.71S86.73,39,87,39s.17-.94.46-1c.21.25,1.07-.46,1.28-.22s-1,1.68-.76,1.92,2-.84,2.17-.59-1,1.73-.81,2,1.56-.21,1.77,0c-.29.1-.76.89-1.06.92l-1,.08c-.32,0-.78-1.13-1.1-1.09s-.7-.49-1-.46-.54,1-.86,1.05-.57.82-.89.85-.58.67-.9.7-.8-1.38-1.12-1.34-.58.61-.9.64-.83-1.62-1.15-1.58-.41,2.19-.73,2.23-.87-1.93-1.19-1.9-.4,2.25-.72,2.29-.94-1.9-1.29-1.86-.63.64-1,.69-.61.66-1,.71-.73-.19-1.08-.14-.67.33-1,.38c0,.16.57,0,.51.17.25.21-.25.87,0,1.09s.74.15,1,.36,1-.19,1.29,0-.3,1.35,0,1.56,1.37-.57,1.61-.36-.23,1.28,0,1.49-.14,1.17.11,1.39.18.79.43,1,2.22-1.55,2.47-1.33.08.91.32,1.13.77.12,1,.34-.07,1.09.17,1.3.34.61.59.83.39.54.63.76.32.63.56.85,1.37-.5,1.61-.28.26.68.5.91.72.2,1,.43a6,6,0,0,0,.71.58c.28.22.39.45.67.62s.18,1,.49,1.15.53.88.85.94.77-1.51,1.11-1.52.89,1.94,1.23,1.88.36-1.45.69-1.56.13-1.3.45-1.44.76,0,1.05-.14,1,1,1.28.89.85,1,1.15.89,0-2.58.36-2.65.65.12,1,0,.68,1.14,1,1.07c.09.28-.51.56-.42.84s.48.47.57.75.62.42.72.7-.14.27,0,.55c-.31.11-.57-.66-.89-.56s.14,2.51-.18,2.61-1.38-2-1.69-1.89.09,2.38-.23,2.49-1.23-1.59-1.55-1.48,0,2.24-.28,2.35-2.24-1.41-2.56-1.3c.25.18,2.23-.17,2.47,0s.51.33.75.5.12.88.37,1.06.45.4.69.58,0,1.08.21,1.25,1.49-1,1.75-.85.5.4.76.58.13.93.4,1.11.42.51.68.69-.27,1.52,0,1.7,1.14-.6,1.4-.42c0,.32.63.56.65.88s.35.61.37.93-1.73.75-1.71,1.07,2.3.49,2.32.81S102,70.7,102,71c-.4-.21.11-.78-.26-1s-.76,0-1-.16-.92.24-1.18.07-.51-.37-.77-.54-.72-.07-1-.24.39-1.71.12-1.89-.92.25-1.18.08-.19-.85-.46-1-1,.39-1.28.22-.53-.32-.79-.49-.68-.12-.92-.31.12-1.17-.12-1.36-.9.15-1.15,0-1,.27-1.23.08-.22-.74-.47-.92,0-1.07-.26-1.25-1.22,1.89-1.5,1.85,0-.45-.28-.38-1.17-1.67-1.5-1.58-.36,1.18-.68,1.28-.94-.75-1.26-.65-.25,1.49-.57,1.59S83.09,62.94,82.77,63s-.14,1.77-.46,1.87-.55.49-.87.59-.8-.43-1.09-.33-.52.38-.82.48-.51.4-.8.5-1.2-1.51-1.49-1.41-.51.42-.81.53-.41.68-.7.79,0,1.8-.31,1.91-1.79-.93-2.09-.83c.25.19,1.46.36,1.71.54s-.36,1.56-.11,1.74,1.23-.63,1.48-.45,1.23-.62,1.48-.44,0,1.08.23,1.27,0,1,.3,1.17.82-.07,1.07.11.53.34.78.52,1.31-.74,1.56-.56-.77,2.11-.52,2.29,1.53-1,1.78-.87.11.9.36,1.08.27.68.52.86c0,.07.39.7.38.77-.3.17-1-.1-1.25.07s-1.24-.78-1.54-.61.2,1.7-.09,1.87-.82-.28-1.11-.11c-.21-.13-.35-.07-.55-.2s-.41-.25-.61-.4-.6-.27-.85-.46-1.2.53-1.46.34.87-2.21.62-2.41-1.87,1.41-2.12,1.22.92-2.27.66-2.47-1,.24-1.24,0,.14-1.23-.11-1.43-2.24,1.87-2.49,1.67,1.05-2.41.8-2.6-1.21.51-1.46.32-1.39.73-1.65.53.46-2.55.18-2.59-.4,1.94-.75,2.09-1.25-1.3-1.55-1.18-.44.64-.74.77-.28,1-.58,1.14-1.18-1.15-1.48-1-.39.76-.69.89-.46.6-.76.72-1.14-1.07-1.44-.94-.29,1-.59,1.14-.08,1.53-.38,1.65S59.85,71.85,59.55,72s-.19,1.26-.49,1.38-.24,1.14-.54,1.26-1.4-1.69-1.7-1.57-.35.88-.65,1-.34.87-.65,1-.76-.15-1.06,0,0,1.65-.33,1.77-.15.15-.37.29-.61-.92-.84-.78c.23.22-.31.56-.13.74s.55.24.74.43-.29,1.28-.05,1.5,1.7-.85,1.94-.62S54.74,80,55,80.25s2.12-1.3,2.36-1.08-.93,2-.69,2.19.25.69.49.92,1-.06,1.2.16,1.51-.65,1.75-.43.11.85.35,1.07-.69.72-.45.94c-.3.07.28.87,0,.93s-.5.68-.8.74-.59.25-.9.32-.66-.06-1,0-.84-.92-1.15-.85c-.14-.06.59-1.23.44-1.3s-1.05.46-1.28.24.14-1-.09-1.24-1.52.7-1.74.49-.76-.1-1-.32.64-1.55.41-1.76-1,.19-1.25,0,.28-1.19.06-1.4-.13-.76-.35-1-1.78,1-2,.75-.9,0-1.12-.17.35-1.2.12-1.42c-.29.15,0,1.35-.28,1.5s-.54.39-.83.54-1.67-1.81-2-1.66.47,2.32.18,2.47-1.74-1.94-2-1.79-.11,1.2-.4,1.35-1-.49-1.28-.34-.68.11-1,.26,1.25,1.72,1,1.87c.23.19-1.27.78-1,1s1.82-1.26,2-1.07,0,.88.28,1.07.49.34.72.53.84-.08,1.07.11-1.21,2.39-1,2.58,2.61-.24,2.83-.05c-.28,0-2-1.1-2.26-1.08s-.51-.47-.8-.47-.69-.1-1-.1-.71,2.48-1.06,2.48-.71.33-1.06.33-.65-1.66-1-1.66-.09-.52-.32-.65-.62-.19-.8-.38-.92.06-1.12-.08-.34-.32-.62-.25,0,.71-.3,1-.88-.21-1.15,0c-.18,0-.49.25-.68.29-.34-.07-.49-1.29-.83-1.37s-.94,1-1.28,1-.37-1.62-.71-1.69-1.11,1.81-1.45,1.74-.62-1-1-1.06c.27-.2.15-1.18.42-1.38s1.86,1.48,2.14,1.28-.57-2-.29-2.19.71-.18,1-.38,1.79,0,2.08-.16c-.24-.2-.94-1.19-1.17-1.38s-.49-.35-.72-.54-.06-.79-.29-1-1,.27-1.19,0-.77-.13-1-.35,0-.9-.22-1.12-.69-.22-.91-.44-.39-.51-.61-.74-.56-.34-.78-.56.35-1.23.13-1.46-.67-.24-.89-.46-1.16.24-1.38,0,.4-1.27.17-1.5-1.79.86-2,.63-.14-.75-.36-1,.46-1.33.23-1.56-2.22,1.28-2.44,1.06-.31-.59-.53-.82-.36-.53-.58-.76,1.18-2,1-2.27-1.4.48-1.62.25.73-1.61.51-1.83-1.54.89-1.77.75-.32-.25-.44-.17-.57.23-.83.4-.63.14-.89.32-1-.38-1.25-.21-.44.44-.69.61-.18.81-.42,1-.58.25-.83.42-.93-.25-1.18-.08-.67.11-.92.29-1,1.38-1.22,1.56c.2.26,1.13,1.12,1.33,1.37s-.1.92.1,1.17,2.41-1.08,2.61-.82S12.83,73.71,13,74s.54.41.74.66.24.64.44.89,1.57-.44,1.77-.19.19.66.4.91-.71,1.37-.52,1.6,1.19-.23,1.38,0-1,1.67-.8,1.89,1.37-.4,1.57-.18.75.13.95.35.24.59.44.81.16.75.35,1c-.3-.13-1.1.75-1.4.62s-.51-.49-.81-.62.13-1.94-.17-2.07-1.52,1.86-1.82,1.73.17-2.06-.13-2.19-.58-.31-.88-.44-.36-.82-.66-1-1.38,1.54-1.69,1.41.24-1.8-.06-1.93-.43.07-.6-.1-1.06.33-1.23.16-.49-.47-.67-.73.94-1.45.76-1.71-2.43.9-2.61.64,1.81-2.06,1.62-2.33-1.18-1-1.37-1.32c-.22.19-1.51.67-1.71.84s1,2,.8,2.16-.2.66-.4.84-.48.52-.74.73-2.21-1.76-2.47-1.56.26,1.43,0,1.64-.75.12-1,.33-.66,1.72-.92,1.93c0-.32,1.48-1.66,1.47-2s-1.89-.55-1.9-.87.23-.64.21-1,.5-.65.48-1,1.06-.12,1-.43c.26-.21-.16-.35.09-.55s.76-.1,1-.31.18-.84.42-1.05,0-1,.23-1.22.12-.49,0-.76S4.1,69.27,4,69s.7-1.1.54-1.35-.3-.52-.46-.77-.17-.59-.33-.84-1.58.29-1.74,0,1.6-1.23,1.45-1.48c.07-.32-.22-.36-.14-.68s-1.68-1.07-1.6-1.39.47-.58.55-.9-.41-.78-.34-1.1.66-.54.73-.86,1.26.3,1.33,0c.17.26-.12-.06.05.21s1.41-.09,1.55.18.14.68.3,1-1.57,1.62-1.41,1.91,1.87-.26,2,0-.1.82.06,1.11-.44,1-.28,1.3,0,.73.21,1,.55.46.71.75,1.08.74,1.24,1c.27-.19,1.33-.13,1.59-.31s.61-.27.87-.45.5-.43.76-.61-.77-2.21-.51-2.39,1.73,1.32,2,1.13-.3-1.56,0-1.75.93.21,1.19,0,.17-.88.43-1.06c.41-.28.59-.22.56-.49s-.36-.41-.56-.72.35-1,.18-1.24-.23-.59-.4-.85.16-.85,0-1.11-.36-.51-.53-.77-2.14.62-2.31.36S13,56.3,12.86,56s-.89-.17-1.06-.43-.7-.29-.87-.56.76-1.24.59-1.5-2.24.72-2.41.46-.06-.65-.23-.9-1,0-1.17-.24-.08-.67-.26-.91-.57-.31-.75-.55.39-1.25.21-1.5c.16-.26.5-.61.65-.88s.81-.24,1-.51S7.25,47,7.41,46.77s2.19.58,2.35.31-.4.37-.25.1c.18.28.71-.91.89-.63s.2.66.38,1,.94.19,1.12.47.18.67.36,1-.22.93,0,1.22-.61,1.18-.43,1.46,1.9-.43,2.08-.15-1.37,1.68-1.19,2,1.8-.37,2-.08.64.38.83.66-.5,1.12-.31,1.4,1.25,0,1.43.27.11.73.29,1,1.26,0,1.45.25-2,2.12-1.84,2.41.94.19,1.12.47,1.1-.2,1.28.09c.28-.17,1.21,1.24,1.48,1.07s-.58-2.19-.31-2.35.89.24,1.16.08,0-1.32.22-1.48,1.5,1.24,1.77,1.08.28-.76.55-.93.18-.92.45-1.08.2-.9.47-1.07,1.56,1.36,1.83,1.2.62-.2.89-.36.48-1,.76-1.12c-.15-.26-1-.27-1.09-.41s-.68-.31-.87-.57.85-1.43.66-1.69-.25-.63-.44-.89-.66-.33-.85-.59,0-.8-.21-1.06,0-.8-.2-1.07-1.21.08-1.4-.18-.72-.28-.91-.55-1,0-1.23-.31.95-1.5.76-1.76-.94-.12-1.13-.39-.69-.3-.88-.57-1.34.16-1.53-.1.52-1.13.34-1.38-.78-.2-1-.45-.43-.44-.61-.69.27-.94.1-1.19-.07-.7-.24-1-.41-.46-.58-.71-1.05,0-1.23-.27.44-.9.26-1.15c.24-.23-.67-1.51-.43-1.74l.74-.7c.24-.23,2,1.13,2.25.89s0-.58.22-.81c.15.19-.07.17.08.36s1.75-.64,1.89-.44.19.66.37.92.07.74.26,1-1.12,1.58-.93,1.85,2.13-.71,2.31-.45-1.06,1.54-.87,1.81,1.53-.29,1.72,0,.26.61.45.88-1.18,1.62-1,1.89,1.69-.4,1.88-.13.72.28.91.54.45.48.63.75-1.25,1.67-1.07,1.94.32.56.51.83.17.67.35.93,1.93-.55,2.11-.28.86.19,1.05.46.71.29.89.56.24.63.42.9.16.68.34.95.27.29.53.46.08,1.71.48,1.66.23-1.38.63-1.57,1.42,1.5,1.71,1.36.32-.8.61-.94.41-.61.7-.75,1,.66,1.3.53.08-1.35.37-1.48,1,.68,1.3.55l.88-.37c.29-.13.18-1.17.47-1.3s.94.55,1.23.42l.88-.39c.29-.13-.21-2,.08-2.16s.87.39,1.17.26,1.23,1.18,1.52,1-.61-2.45-.37-2.56,1.4.93,1.66.81c-.22-.23-.93-.52-1.14-.75s-.73-.21-.94-.44.49-1.32.27-1.55-1.38.4-1.6.17.7-1.5.48-1.73-.4-.49-.61-.73-1.44.44-1.65.21-.45-.46-.66-.7-.77-.19-1-.43,0-.78-.24-1,.64-1.35.44-1.59-.84-.11-1-.35-.46-.43-.66-.67-1.31.27-1.51,0,.09-.88-.11-1.12-1.25.21-1.45,0,1.69-2.19,1.49-2.43-1.16.14-1.35-.1-.22-.63-.42-.87-1.44.37-1.64.12-.76-.19-.95-.43-.32-.54-.52-.79-.31-.55-.51-.79,1.39-1.94,1.2-2.18-2.32,1.08-2.52.84S28.7,27.56,28.51,27.32ZM65,65.81c-.27-.23,1.63-1.3,1.37-1.52s-1.59.8-1.85.58.3-1.42,0-1.65-1.21.32-1.47.09.42-1.39.18-1.61-.51-.41-.74-.63-2,1.21-2.26,1,.12-1.08-.12-1.3.63-1.62.39-1.84-.79-.1-1-.33-.29-.63-.53-.85-.57-.34-.81-.56-.14-.8-.37-1-1.55.7-1.79.48.11-1.06-.13-1.28-1.94,1.12-2.18.89.26-1.21,0-1.43-.73-.17-1-.4,0-.92-.26-1.14-.35-.57-.59-.79-1.33.47-1.57.25-.31-.61-.55-.84,1.12-2.13.89-2.36-1.76,1.25-2.06,1.13-.52-1.47-1-1.28c-.28.13-.47.45-.75.57s-.26,1-.55,1.08-.46.49-.75.61-1.23-1.33-1.51-1.21.21,2.12-.07,2.24-1.4-1.75-1.68-1.63.08,1.81-.2,1.93S41,51.89,40.69,52l-.85.37c-.29.12.35,2.39.07,2.52s-.75-.18-1-.06-1.32-1.34-1.61-1.2-.66.18-.94.32.05,1.5-.24,1.65-1.47-1.41-1.76-1.26.62,1.88.33,2c.07.29-.49.2-.44.26.22.24.25.65.47.89s-.14,1,.07,1.24.35.56.57.81,2.3-1.19,2.52-1-.92,1.69-.71,1.93.68.27.89.52.43.49.64.73.82.15,1,.39-.25,1.1,0,1.34,0,.84.25,1.08.31.59.53.84.6.33.81.57.3.61.51.85,2.37-1.25,2.59-1-1,1.78-.79,2,.9.06,1.12.3,1.25-.25,1.47,0-.64,1.45-.42,1.69.75.19,1,.44,1.12-.14,1.34.1-.46,1.29-.25,1.54,1.1-.12,1.32.12,0,.11.29.15,1,2,1.21,1.93-.23-2.26.06-2.38l.86-.37c.29-.12,1.24,1.31,1.52,1.19S52.69,70.12,53,70s1,.72,1.28.59.83.34,1.11.21.2-1.13.48-1.25,1,.7,1.27.58.66,0,1-.14.51-.37.79-.49,0-1.54.3-1.66.93.62,1.21.5,1,.73,1.26.61.47-.47.75-.59,0-1.64.26-1.76,1.42,1.8,1.71,1.68-.23-2.14.05-2.26,1.28,1.46,1.57,1.34S64.67,65.93,65,65.81Zm-11-16.72c-.06.19-2.05-.25-2.11-.06.23.21,1.86-.38,2.1-.17s-.38,1.37-.14,1.59,1.17-.36,1.41-.14-.39,1.39-.15,1.6.51.39.75.61,2-1.27,2.22-1.05-.1,1.07.14,1.28-.6,1.63-.36,1.84.79.08,1,.29.3.62.54.83.57.32.81.53.15.79.39,1,1.53-.75,1.77-.53-.09,1.06.14,1.27,1.91-1.18,2.15-1-.23,1.22,0,1.43.73.14,1,.36,0,.91.28,1.12.36.55.6.76,1.31-.51,1.55-.3.33.59.57.81-1.06,2.16-.82,2.37,1.92-1.21,2.16-1-.49,1.52-.25,1.73a3,3,0,0,0,1.22.18c.3,0,.52-.79.77-.87s.52-.44.82-.54,1.13,1.42,1.43,1.32,0-2.13.26-2.23,1.28,1.84,1.58,1.74.06-1.81.36-1.91,1.06,1.16,1.36,1.06l.9-.31c.3-.1-.15-2.42.15-2.52s.75.23,1,.13,1.17,1.47,1.47,1.37.64-.08.94-.18.11-1.47.38-1.57,1.21,1.63,1.48,1.53-.16-2.12.11-2.22.82.29,1.1.19c-.36-.35-.44-.8-.67-1s0-1-.19-1.2-.4-.51-.63-.72S81.42,58,81.18,57.79s.73-1.78.5-2-.69-.17-.92-.38l-.7-.63c-.24-.21-.81,0-1-.24s.14-1.11-.09-1.32-.12-.81-.36-1-.36-.54-.59-.75-.62-.25-.85-.46-.34-.56-.57-.77-2.21,1.51-2.45,1.3.84-1.85.61-2.07-.89,0-1.12-.18-1.21.37-1.44.16.54-1.48.31-1.7-.75-.12-1-.34-1.09.21-1.31,0,.35-1.33.11-1.53-1,.31-1.29.14a4.51,4.51,0,0,0-.72-.48c-.31-.13-.07-2.24-.39-2.3s-.92,2.06-1.26,2.07a4.32,4.32,0,0,0-.85.09c-.3,0-1-1.5-1.36-1.4s.11,2.48-.19,2.57-.89-.84-1.19-.76-.77-.44-1.06-.36-.35,1.09-.64,1.17-.86-.83-1.16-.75-.66-.09-1,0-.56.29-.85.36-.26,1.52-.56,1.6S57,47,56.68,47.11s-.85-.87-1.15-.79-.54.4-.84.47-.22,1.63-.52,1.71S54.22,49,53.92,49.09ZM22.58,63.66c.23.27-1.87,1.11-1.65,1.38s1.71-.49,1.92-.22-.54,1.35-.32,1.61,1.25-.14,1.48.11-.44,1.43-.19,1.67.5.42.73.64,2-1.18,2.27-1-.14,1.07.09,1.29-.65,1.61-.41,1.84.79.1,1,.33.29.63.53.85.56.34.8.56.13.8.36,1,1.56-.71,1.79-.49-.11,1.07.12,1.29,1.94-1.13,2.17-.91-.25,1.21,0,1.43.73.17,1,.39,0,.92.26,1.14.35.56.59.78,1.32-.48,1.56-.26.31.61.55.83.87,2.4,1.16,2.25S38,78,38.24,77.85s1.23,1,1.52.86.47-.49.75-.64.2-1,.49-1.14.43-.53.72-.68,1.36,1.19,1.65,1-.4-2.1-.12-2.25,1.58,1.59,1.87,1.44-.52-1.43-.23-1.58c-.21-.23.76-1,.55-1.18l-.64-.65c-.22-.22-2.11,1.19-2.32,1s-.1-.77-.3-1,.89-1.63.69-1.86-.31-.56-.52-.79-1.43.42-1.64.18,1-1.75.83-2-1.95.88-2.15.64,0-.89-.16-1.12-.22-.64-.43-.88.16-1,0-1.21-.33-.55-.54-.79-2.31,1.18-2.51,1,.95-1.67.74-1.91-.66-.26-.86-.5L35,63.05c-.2-.24-.79-.14-1-.38s.28-1.08.07-1.31,0-.83-.22-1.06-.29-.59-.5-.82-.58-.33-.79-.57-.27-.6-.47-.83-2,1.52-2.2,1.39-.14-1.8-.5-1.58-.23.87-.52,1,0,1.28-.28,1.45-1.3-.9-1.59-.73-.34.71-.62.87-.1,1.13-.39,1.3-1.17-.71-1.46-.54-.11,1.1-.39,1.27-.6.27-.89.44-1.63-1.46-1.92-1.29S22.87,63.49,22.58,63.66Z" />
            <path class="fcba262f-86cd-47b1-a3d6-4351fcfc1bfb"
                d="M11.64,102.72c.25-.25,1.34.37,1.59.12s-.06-1.06.2-1.32.27.08.53-.18c.24.22,1.22-1.33,1.46-1.11s-1.33,2.36-1.1,2.58,1.72-.9,1.95-.69,1-.12,1.22.09-1.28,2.31-1,2.52.83,0,1.06.27.09.85.32,1.07.61.27.85.48,1.19-.34,1.44-.12,0,1,.25,1.2,2.07-1.31,2.32-1.09-.32,1.33-.07,1.55.46.47.7.7.27.68.51.9.7.22.94.44,1-.14,1.25.08-1.05,2.16-.8,2.38,1.41-.59,1.65-.37,1.08-.21,1.32,0,.34.61.59.83.94-.06,1.19.16-.09,1.07.16,1.29.69.22.94.44.19.77.43,1-.57,1.32-.32,1.54c.1.26,1.93-.43,2-.16s-1.31,1.15-1.2,1.42,1.23.79,1.34,1.06c-.3-.12-.78-1.26-1.07-1.38s-.36-.74-.65-.86-.59-.17-.88-.31-.95.56-1.23.42-.41-.57-.69-.71-.14-1.06-.42-1.21-1.06.65-1.33.5-.53-.33-.8-.49-.39-.56-.66-.73-1.12.6-1.39.44-.95.27-1.21.09-.07-1-.33-1.22.29-1.48,0-1.66-1.21.58-1.46.39.47-1.61.22-1.8-1.46.81-1.7.61-.56-.31-.8-.52-.07-.87-.31-1.08.34-1.28.11-1.49-.62-.22-.85-.44-.72-.15-.94-.37-.47-.4-.69-.63.09-.91-.12-1.15-2.5,1.4-2.71,1.16.84-1.57.64-1.81.45-1.17.25-1.41-1.13.12-1.33-.13-.07-.72-.26-1S11.83,103,11.64,102.72Z" />
            <path class="fec4ae01-b115-4ce6-8111-a4242c3fd7a6"
                d="M55.53,85c.31-.06,1-1.11,1.29-1.18S58,86.27,58.3,86.2s.55-.43.86-.5l.92-.2c.31-.06.37-.75.68-.82s-.4.74-.24.81.42.24.66.44.38.52.62.72,1.15-.4,1.39-.2.7.13.94.33-.41,1.45-.18,1.65.43.46.67.66.76,0,1,.25,1.45-.71,1.68-.51.65.22.88.42.07.6.28.68,0-.84.28-.92.44.5.71.33,1.62,1.38,1.9,1.21,0-1.29.24-1.46.7-.11,1-.28-.15-1.49.13-1.66,1.49,1.19,1.76,1,.44-.52.72-.69-.06-1.37.21-1.54,1.11.57,1.39.41,0-1.22.3-1.39.35-.69.63-.86,1.19.72,1.47.55-.24-1.65,0-1.82,1.61,1.41,1.88,1.24-.14-1.51.14-1.67.52-.39.8-.56,1.28.86,1.56.69.91.25,1.19.08-.33-1.57-.09-1.74.58-.28.83-.45c-.28-.2,0-1.34-.31-1.53s-.83,0-1.11-.23-1,.19-1.26,0,.07-1.3-.21-1.5-1.22.53-1.5.33-1.19.23-1.47,0c0-.07,1-.37,1-.44.29-.17.6-.19.9-.36s.16-1.07.46-1.24.36-.74.66-.91.9,1.63,1.2,1.46c.26.18-.12,0,.15.18s1-.44,1.29-.27.31.67.58.85.73,0,1,.2.46.39.71.6.85,0,1.12.12a2.09,2.09,0,0,0,.91.16,2.75,2.75,0,0,0,.87-.28c.29-.1.1-1.07.41-1.23s1.46,1.47,1.74,1.33.67,0,.94-.17-.36-2.07-.09-2.21,1.42,1.44,1.7,1.3.71.05,1-.09-.56-2.51-.29-2.65,1.2,1,1.48.89.45-.46.73-.6,1.12.89,1.4.75.45-.48.72-.62.61-.17.88-.31-.07-1.53.21-1.67.19.51.47.37c0,.31,1.53,0,1.52.31s-1.8.55-1.81.86,1.09.65,1.08,1-.54.59-.55.9,1.22,1.41,1.21,1.72c-.29.14-1.36.32-1.65.46s-1.36-1.32-1.65-1.18-.54.36-.83.5-.16,1.13-.45,1.28-.28.87-.57,1-.44.56-.73.71-.8-.17-1.08,0-1.3-1.18-1.59-1-.35.74-.64.88-.71.68-1,.82c.27.17,1.25-.24,1.51-.08s.76,0,1,.16.71,0,1,.21.23.84.49,1,.39.57.66.73,0,1.14.3,1.3,1.29-.86,1.55-.7,0,1.14.3,1.31-.53.79-.27.95c-.09.33,1.86.62,1.77.94s-2.56,0-2.65.29-.07.68-.17,1,.64.18.55.51c-.27-.17.17-.08-.1-.24s-.35-.63-.62-.8-.72,0-1-.19-.77,0-1-.12-1.36,1-1.62.84.63-2.23.36-2.39-.93.31-1.2.15-.44-.49-.7-.66-.39-.57-.66-.73-.14-1-.41-1.12-1,.39-1.26.22-.77,0-1-.07-.67-.63-1-.58-.37.79-.68,1-.32.67-.59.83-1.37-1.07-1.63-.91.36,1.84.09,2-1-.49-1.28-.33,0,1.19-.3,1.35-1.3-1-1.57-.85-.17,1-.44,1.12-.86-.25-1.13-.1.16,1.54-.11,1.7-.5.38-.77.54-.7,0-1,.18-.42.51-.69.67-1.63-1.52-1.89-1.36-.12,1.08-.4,1.25.5,2,.23,2.18-.9-.22-1.18,0-1.33-.87-1.61-.69.17,1.44-.1,1.62-1.06-.44-1.34-.26-.25.62-.53.8c.26.18.63,0,.89.2s0,1.12.28,1.29,0,1.09.3,1.27,2.15-2,2.42-1.87.24.79.5,1-.19,1.42.08,1.59.81-.06,1.08.11-.29,1.56,0,1.74,1-.3,1.23-.12,1.18-.61,1.44-.43.25.78.51,1,1.1-.5,1.37-.32,0,1.19.23,1.37-.1,1.28.16,1.45,1.57-1.18,1.83-1-.73,2.21-.47,2.39l.8.53c.26.17,1.3-.8,1.57-.63s0,1.11.28,1.28.38.57.64.75,1.89-1.67,2.15-1.49.08,1,.34,1.18-.42.9-.16,1.08c-.25.26.52.88.28,1.14s-1,0-1.22.31-.72.29-1,.55-.16,1-.4,1.26c-.28-.19-.72-.38-1-.57s-.47-.5-.75-.69-.83,0-1.11-.17,0-1.13-.31-1.32l-.81-.59c-.26-.18-1.29.73-1.55.55s.54-1.82.29-2-.46-.43-.71-.61-.65-.16-.91-.34-1.42.92-1.67.74-.44-.47-.69-.65-.16-.85-.41-1,0-1.07-.26-1.25-.29-.66-.55-.84-.37-.55-.62-.73-1,.38-1.29.2-.46-.44-.71-.62-.67-.13-.93-.31-.79,0-1-.14-.13-.9-.38-1.08-.16-.85-.41-1-.59-.26-.84-.44-1.39.89-1.65.71-.53-1.11-.74-1-1-.27-1.24-.09-.2.84-.47,1,.28,1.47,0,1.66-1-.25-1.23-.06-1-.35-1.31-.16,1.06.91.79,1.1c.28.19-.39,0-.12.22s.25.83.53,1,.51.43.78.61,0,1.15.31,1.33,1-.41,1.33-.23.19.91.46,1.09.66.2.93.38.78,0,1,.19.05,1.13.32,1.31.5.43.78.61,1.41-1,1.69-.79,0,1.25.24,1.42,1.69-1.4,2-1.22-.8,2.41-.53,2.59,1.05-.41,1.32-.23,1.43-1,1.71-.84-.63,2.17-.35,2.35.75,0,1,.22.35.66.63.84,1.66-1.4,1.94-1.23-.63,2.21-.36,2.39.84-.1,1.11.07,0,1.25.26,1.42.91-.84,1.19-.66c-.29.21,0,.73-.27.94s0,1.23-.28,1.44-.78.15-1.07.36-1.15.16-1.43.37l-1.1-.69c-.27-.17-.82.1-1.09-.07s0-1.18-.28-1.35-.82.1-1.09-.07.14-1.41-.13-1.58-.19-.89-.46-1.06-.72-.06-1-.23-.42-.51-.69-.69-1,.3-1.22.13-1.33.88-1.6.71.5-2,.23-2.15-.52-.42-.79-.6-1.18.59-1.46.41-.94.24-1.22.06.1-1.35-.18-1.53-1.16.57-1.44.39-.18-.93-.45-1.11.14-1.41-.14-1.59-1.63,1.26-1.9,1.08.21-1.5-.07-1.69-1.13.52-1.41.33-.61-.26-.89-.44-.89.14-1.17,0,.14-1.34-.14-1.53c-.23.2-1.36-.78-1.62-.58s1,2.27.73,2.47-1.44-.86-1.7-.67.64,1.94.38,2.13-1.08-.41-1.34-.22-1.23-.66-1.5-.47.05,1.15-.22,1.33-.68.13-.94.31.22,1.45,0,1.63-1.22-.69-1.49-.51,0,1.16-.25,1.34-1.08-.5-1.35-.33.23,1.51,0,1.69-1.66-1.4-1.93-1.23-.11,1-.38,1.17-.9-.24-1.17-.07-.9-.24-1.17-.07-.15.94-.42,1.11-.14,1-.41,1.14-1.07-.51-1.34-.34.48,2,.21,2.14-1.83-1.76-2.1-1.6-.55.32-.81.48.63,2.27.36,2.44-1.25-.85-1.52-.69-.32.7-.59.86.17,1.54-.1,1.7-.49.44-.76.6-1.43-1.18-1.7-1-1-.51-1.3-.36.15,1.56-.11,1.71-.78,0-1,.1-.82-.12-1.06,0c-.39.21-.3,1.76-.46,1.83s-.13-2-.4-2.09-1.22,1.46-1.48,1.35-.79.18-1.05,0,.46-2.18.21-2.31-1.18.78-1.44.66c.1-.08-.15-1.45.27-1.72.23-.15,1.42,1.14,1.72.94s-.36-1.72-.07-1.9.39-.52.67-.69,1.82,1.75,2.1,1.58.72,0,1-.18-.17-1.45.1-1.62,1.13.63,1.4.46.28-.75.55-.91.55-.31.82-.48,0-1.16.29-1.33,1.32,1,1.59.79-.68-2.29-.41-2.46.46-.44.73-.61.41-.52.68-.68.95.33,1.22.16,1,.36,1.24.19,1,.36,1.24.19.73,0,1-.2-.84-2.51-.57-2.69.4-.54.67-.71,1.93,1.85,2.2,1.68-.35-1.71-.09-1.88,1.23.72,1.49.55,0-1.22.23-1.39,1.24.74,1.5.57.51-.4.77-.57-.72-2.24-.46-2.41,1,.36,1.26.19,1.45,1,1.7.79.27-.75.52-.93.69-.17.93-.35.46-.51.69-.69.87,0,1.08-.23-.53-1.48-.37-1.66c-.27-.2,0-1-.24-1.18s-1.8,1.35-2.07,1.15S54.22,98.14,54,98s-.76-.09-1-.29-.15-.92-.42-1.12-.42-.53-.68-.74-1.29.59-1.55.39-.38-.58-.64-.78.91-2.24.65-2.44-1.86,1.32-2.11,1.12.38-1.56.12-1.76-.65-.24-.91-.44-1,.22-1.26,0-.68-.19-.94-.39.53-1.75.27-2-1.77,1.2-2,1,.81-2.1.55-2.3-1.56.94-1.82.74.37-1.54.11-1.75l-.78-.6c-.25-.2-1.95,1.44-2.21,1.24s-.52-2-.78-2.16c.35,0,1.6,1.19,1.95,1.2s.71.13,1.06.13.71-1.35,1.06-1.35.73,1.94,1.08,1.93.5-2.07.79-2.09.61.56.9.54.19.33.36.4,0,1,.26,1.16.44.47.69.66,2-1.62,2.27-1.43-.59,1.83-.34,2,.7.12,1,.31.5.39.75.58.81,0,1.07.17-.05,1.11.2,1.3.18.81.44,1,.4.51.65.7.64.2.9.39.39.53.64.72,2.07-1.69,2.32-1.5-.66,1.92-.4,2.11.88-.12,1.13.07,1.16-.5,1.42-.31-.37,1.53-.11,1.72.76,0,1,.23,0-.49.09-.59,1.25.6,1.53.41,0-1.12.32-1.31.59-.34.86-.54,1.78,1.29,2.06,1.09-.74-2.17-.46-2.37.25.12.53-.08c-.25-.2.86-1.07.64-1.25s-2,1.48-2.2,1.3.2-1.2,0-1.39,0-.89-.28-1.1-1.1.31-1.33.11.21-1.19,0-1.39-.3-.6-.54-.8-.56-.31-.79-.51-1.4.65-1.63.44.15-1.11-.08-1.32.22-1.2,0-1.4-.63-.22-.87-.43S55.76,85.24,55.53,85Z" />
            <path class="b80dda55-845d-40d2-8a90-a51cbcba2bb7"
                d="M69.21,26.1c.16-.36.29-1.35.45-1.71s1-.43,1.12-.79-.43-1-.28-1.4,1-.44,1.12-.8,0-.84.19-1.2.5-.63.65-1,1.51-.2,1.67-.57-.59-1.09-.43-1.46c-.36-.18-.86-.05-1.22-.22s-1,.16-1.32,0-.49-.85-.85-1-.15-1.54-.51-1.71-.83-.11-1.19-.28-.94.11-1.3-.07-.44-.86-.79-1-.7-.34-1-.54-1.12.28-1.48.07-1,.13-1.39-.08-.38-1-.73-1.2-1.11.24-1.47,0,.09-1.72-.26-1.94l-1-.67c-.35-.22-.56-.66-.91-.88s-1.41.7-1.76.48,0-1.58-.34-1.79-1.27.47-1.62.26-.59-.63-.94-.85-1.12.25-1.47,0a7.35,7.35,0,0,1-1.3-1.42c-.27-.3-.19-.9-.32-1.2s-.82-.88-.77-1.22,1.22-.29,1.49-.57S51.3.13,51.61,0s.75.93,1.11,1,1.07-1,1.41-.78,0,1.59.37,1.79S56,1,56.39,1.23s.68.45,1,.65,0,1.6.39,1.8,1.13-.34,1.49-.14.52.75.87,1,.94,0,1.29.16.6.59,1,.77,1-.19,1.35,0,.33,1.15.69,1.33.82.15,1.18.33.52.78.89.95,1.14-.57,1.51-.41.27,1.37.64,1.53,1.12-.56,1.49-.4.73.34,1.1.49.91-.13,1.29,0,.35,1.29.73,1.43,1-.49,1.42-.35.38,1.3.76,1.44,1.06-.6,1.44-.47.69.47,1.07.6.79.16,1.18.28.59.8,1,.92,1.06-.73,1.45-.62.29,1.86.68,2,1.08-.87,1.47-.76.81.11,1.19.21.66.75,1.06.85,1.08-.94,1.48-.84.64.79,1,.89.76.33,1.16.43.61,1,1,1.1,1-.78,1.42-.69.78.31,1.18.39,1-.58,1.37-.49.58,1.18,1,1.27,1-.79,1.41-.7.43,1.91.83,2,1.07-1.07,1.47-1,.73.54,1.13.63.85,0,1.25.06.54,1.31.94,1.41,1-.38,1.41-.18,1.25-.23,1.62,0-.31,1.38-.09,1.7,1.23.25,1.33.64-.57.8-.61,1.21a3,3,0,0,1-.36,1c-.14.37.31,1,.08,1.28s-.82.16-1.15.36-.5.49-.89.56-.61-.47-1-.53-1,.92-1.41.86-.69-1.07-1.1-1.14-1.07,1.13-1.49,1-.83-.25-1.25-.34S97,25.13,96.58,25s-1,.25-1.37.13-.34-1.62-.72-1.73-.8-.08-1.18-.2-.77-.16-1.15-.28-.76-.2-1.14-.32-.65-.56-1-.68-1.1.84-1.47.72-.87.11-1.25,0-.85.05-1.22-.07-.73-.33-1.11-.45-.43-1.24-.8-1.36-1,.66-1.43.54-.66-.52-1-.64l-1.12-.38c-.38-.12-.8-.09-1.18-.21-.2-.07.34-.47.35-.47-.16.37-1.35.3-1.51.66s-.74.55-.9.92S77.2,22,77,22.38s0,.87-.17,1.24.83,1.23.67,1.6-1.88.05-2,.42,1.24,1.4,1.08,1.77-1.28-.08-1.44.28c-.35-.15-.36-.2-.72-.36s-.84,0-1.2-.18-1.11.59-1.47.43-.63-.51-1-.66S69.57,26.26,69.21,26.1Z" />
            <path class="ef86e52a-9de0-4154-96fa-4b5887e5962f"
                d="M90.05,106.09c-.26-.18-.48-.88-.74-1s-.58-.29-.84-.46-1.26.72-1.52.54.7-2.17.44-2.34-1.36.88-1.63.7-.72-.07-1-.24-.74,0-1-.22.54-1.93.28-2.11-.36-.61-.62-.79-1.32.82-1.58.64-.06-1.05-.32-1.23-.09-1-.36-1.17-1,.28-1.21.1-1.31.79-1.57.61-.1-1-.37-1.15-.12-1-.38-1.13-1.59,1.22-1.86,1,.37-1.68.11-1.86.19-1.41-.08-1.59-1.5,1.08-1.76.9-.58-.27-.85-.45-.3-.69-.57-.87.94-.31.67-.49c.28-.18-1.47-1.25-1.2-1.42s.52-.4.78-.58,1.39.91,1.66.73.22-.85.49-1,1.06.44,1.33.27.85.16,1.12,0-.88-2.71-.6-2.87,1.93,2,2.2,1.88-.56-2.19-.29-2.35,1.11.68,1.38.52.59-.23.86-.38.62-.17.89-.32.69-.06,1-.22.12-1,.39-1.2.91.32,1.18.17.26-.79.53-1,.43-.51.7-.67.84.2,1.11,0,.87.23,1.14.07.59-.24.86-.4-.11-1.37.15-1.41.48.22.77.32.94-.55,1.22-.37.39.57.66.74.74,0,1,.17-.32,1.71,0,1.87,1.13-.62,1.4-.46,1-.41,1.26-.24.09,1,.36,1.21S96.68,86,97,86.15s-.87,2.6-.6,2.77,1.52-1.26,1.79-1.1-.36,1.79-.1,2,.8-.54,1.06-.38c-.1.31.48.59.37.89s-1.74,0-1.86.32-.34.52-.46.82,1.12,1.14,1,1.43-1.22.15-1.36.44.59,1,.45,1.25-.29.56-.43.84.74,1.11.6,1.39-.3.59-.45.87-1.35,0-1.51.25-.54.42-.71.69-.76.26-.93.53-.12.66-.3.93.71,1.24.53,1.51-.43.49-.61.74-1,.06-1.2.31-.47.44-.67.69-.17.67-.37.92.56,1.3.35,1.54S90.26,105.84,90.05,106.09Z" />
            <path class="fec4ae01-b115-4ce6-8111-a4242c3fd7a6"
                d="M72.47,117.92c-.26.12-.19.34-.47.47s.09,1.68-.18,1.8-.72-.1-1,0-.45.53-.72.64-.77-.2-1-.1-.78-.26-1-.17a3.9,3.9,0,0,0-.72-.6c-.24-.13-1,.54-1.31.36s-.85.27-1.16.1-.51-.34-.81-.51l-.83-.47c-.27-.15.12-1.47-.17-1.64s-1.12.68-1.4.52.69-2.46.4-2.62-1.15.73-1.43.56-.8.12-1.09,0-.71,0-1-.21.3-1.74,0-1.91-1.29.93-1.57.77-.17-1-.45-1.13.13-1.43-.15-1.6-1.3.93-1.57.76-.12-1-.4-1.2-.43-.5-.7-.66-1.53,1.28-1.81,1.11.71-2.33.43-2.5-1.35,1-1.62.81-.9.24-1.18.07-.83.12-1.1-.05.87-2.54.6-2.72-1.87,1.74-2.14,1.57-.29-.74-.56-.91-.1-1-.37-1.18-1,.27-1.22.1-.79,0-1.06-.15.66-2.13.4-2.31-1.86,1.61-2.13,1.43.14-1.34-.12-1.52-.72-.09-1-.27.14-1.33-.12-1.51-.93.21-1.19,0-.55-.33-.81-.52-.57-.32-.83-.5-1,.27-1.25.08.78-2.15.53-2.34-.84.06-1.1-.13-.41-.51-.67-.7-1.18.49-1.44.3-.69-.17-.94-.36-.22-.77-.47-1,.51-1.68.26-1.88-1,.19-1.22,0-.26-.68-.51-.89-.44-.46-.68-.66-1.58.87-1.82.66-.9.06-1.15-.15,1-2.11.75-2.32-2.06,1.35-2.3,1.14,1.18-2.26.95-2.48-1.26.2-1.49,0c-.25.19-1,0-1.28.15s.52,1.75.26,1.94-1.46-.89-1.72-.7-.28.68-.54.87-.71.1-1,.29-.5.4-.76.59.34,1.54.08,1.74S18.59,94.76,18.33,95s-.21.8-.47,1-.26.72-.52.91.51.87.25,1.06c.22.2-.74.89-.5,1.12s.94-.09,1.18.14-.43,1.35-.19,1.58,2.31-1.5,2.55-1.27.05.84.29,1.07-.27,1.19,0,1.42.51.37.75.6-.07,1,.17,1.22.84,0,1.07.25.25.67.49.89.26.67.5.89,1.19-.38,1.43-.16,1.34-.57,1.58-.36-.59,1.64-.35,1.85.26.68.5.89,1.25-.5,1.5-.29,0,.94.28,1.15-.29,1.37,0,1.57,1.45-.78,1.7-.58.28.67.53.87,1.42-.8,1.68-.6.33.59.59.79-.82,2.14-.56,2.33,1-.26,1.25-.06.14.9.4,1.09,1.37-.82,1.64-.63-.33,1.58-.07,1.76,1.78-1.44,2-1.26.57.28.83.46-.32,1.62,0,1.8.11,1,.38,1.18.79,0,1.06.12.69.12,1,.29.58.28.85.45,1.09-.55,1.36-.39.7.07,1,.23.46.47.74.63-.39,1.94-.11,2.1,1.3-1,1.58-.84.83-.19,1.11,0,.35.68.64.83.74-.06,1,.09-.49,2.34-.21,2.48,1-.43,1.24-.28-.2-.24.1-.1c-.33,0,.27.75,0,.75s-.61-1.58-.92-1.59-.76,2.15-1.07,2.13-.69.16-1,.14-.37-2.71-.67-2.74-.59-.16-.9-.21-.76.79-1.06.73-.62-.13-.93-.2-.65,0-.95-.06-.52-.31-.82-.39-.24-.77-.53-.92-1.27,1-1.55.88-.38-.63-.67-.79-1.06.51-1.33.34.76-2.44.49-2.62-1.43,1.07-1.7.89.09-1.28-.18-1.46-1.55,1.15-1.82,1-.61-.27-.87-.45.83-2.3.57-2.48-1.86,1.49-2.12,1.3-.32-.68-.58-.87.4-1.61.14-1.8-1.08.36-1.34.17.11-1.2-.14-1.4-1,.24-1.26,0-.63-.24-.88-.44.4-1.55.15-1.75-2.1,1.57-2.35,1.37.64-1.81.39-2-1.73,1.07-2,.87.11-1.15-.14-1.35.4-1.48.16-1.68-.27-.68-.5-.89-1.34.56-1.58.36-1.4.61-1.63.41.08-1.09-.16-1.3.15-1.14-.08-1.35-1.43.61-1.65.41-.21-.72-.44-.94-.74-.14-1-.35-.85,0-1.08-.24-.58-.32-.81-.54-.15-.76-.38-1,0-1-.2-1.18-.33-.58-.56-.8-.29.88-.53.66c-.26.26-.46-.71-.71-.47s-.87.14-1.12.38-.24-.16-.49.09c-.19-.28,0,0-.21-.25s.42-1.1.23-1.38-.42-.52-.61-.8-1.95.24-2.14,0c.19-.19-.15-1.28,0-1.48s1.61.8,1.8.6.18-.69.38-.9c-.24-.22-.25-.8-.5-1s-1.53.7-1.77.48,1.22-2.32,1-2.55-1.34.49-1.58.27,0-.94-.28-1.16-1.08.22-1.32,0-1.32.11-1.56-.11c-.09-.3,1-1.25.88-1.54s-.51-.49-.61-.78.53-.83.43-1.12-.65-.44-.74-.74.93-1,.84-1.25l-.3-.89c-.09-.29-2.5.18-2.59-.12s-.41-.52-.51-.81S4,85.14,3.87,84.84s-.71-1.33-.81-1.63c.38.3,0,2.21.38,2.54s1-.08,1.19.14.9,0,1.12.22-.3,1.16-.08,1.39,1.56-.66,1.78-.44.19.7.4.92-.15,1,.07,1.25,1-.15,1.26.07.07.81.29,1,.72.16.94.39-.2,1.06,0,1.29.07.8.29,1,.69.19.91.42,1.91-1,2.13-.77-.26,1.13,0,1.35.06,1.17.28,1.39c.26-.2.62-.66.88-.86s1.16.42,1.42.22-.62-1.87-.36-2.08,1.17.43,1.42.23-.26-1.41,0-1.61.78-.06,1-.26.82,0,1.07-.21.44-.49.7-.69,0-1.1.24-1.3,2.34.56,2.6.36c-.2-.2-1.61-.56-1.79-.74s-.76,0-.94-.19-.65-.17-.83-.37.79-1.6.57-1.84-1.79.77-2,.54,1.35-2.12,1.13-2.35-1.32.33-1.53.1-.51-.42-.72-.65.23-1.09,0-1.33-2,1-2.22.73-.08-.8-.3-1-.22-.67-.44-.91-1.15.18-1.37-.05-.11-.78-.32-1-.37-.54-.59-.78-.75-1.69-1-1.92c.3.13,2.08-.43,2.38-.3s.28,1,.58,1.15.53.42.84.55-.19,2.08.12,2.21,1.46-1.75,1.76-1.62.71,0,1,.16.18,1.24.48,1.37.31.93.61,1.06,1.36-1.35,1.66-1.22c.13.08.76-.06.89,0s-.3,1.33-.08,1.55.93-.07,1.16.14.63.25.85.46-.74,1.67-.52,1.88.6.28.82.5-.1,1,.08,1.21.85.29,1.05.4.87-.61,1.17-.7,1.15,1,1.46.8-.62-2-.34-2.19,1,.35,1.3.16,1.12.91,1.39.72c.08,0-.41-.72-.32-.69s0-1.13.09-1.17l.34-.18c.34.08.8-.37,1.15-.29s.12,2.7.47,2.77.75-.15,1.09-.07l1,.23c.34.08.47-.79.82-.72-.26.17-.77-.94-1-.77s-.46.4-.72.57-.58.21-.83.37.06,1.21-.2,1.37-.31.63-.57.8-1.26-.83-1.51-.66-.55.27-.81.44-.69,1.5-.95,1.67c.25.2,1.78,0,2,.17s.66.18.92.37.26.72.51.91,1.1-.39,1.35-.2.14.88.39,1.07-.7,2-.45,2.2,1.19-.51,1.44-.32.35.6.6.79,1.32-.7,1.57-.51-.55,1.82-.29,2,.65.2.9.39,1.23-.59,1.49-.41-.11,1.24.14,1.42,1.13-.45,1.38-.27.76,0,1,.23-.21,1.37,0,1.56,1.42-.88,1.67-.7-.66,2-.4,2.21,1.31-.74,1.57-.56.55.32.81.5-.27,1.51,0,1.69.13.93.39,1.11,1.39-.87,1.64-.69.43.51.69.69-.06,1.21.2,1.39.79,0,1,.17.94-.23,1.2-.05-.08,1.28.18,1.46,1.16-.58,1.43-.41,1-.38,1.29-.21-.26,1.56,0,1.73.47.47.73.64,1-.36,1.26-.19.79,0,1.05.14-.57,2.08-.3,2.25.62.22.89.39,1-.43,1.29-.26.33.69.59.85.75,0,1,.17.52.37.79.53.8-.09,1.07.07.56.3.83.46.61.23.87.38,1-.5,1.31-.35-.44,2-.17,2.2.42.56.69.71,1.54-1.43,1.81-1.29-.36,2-.09,2.15.4.63.67.77,1.74-1.91,2-1.77-.1,1.6.17,1.73.68.11.94.24,0,1.46.29,1.58.71.08,1,.2.58.4.81.51C72.17,119.48,72.4,117.86,72.47,117.92Z" />
            <path class="ef86e52a-9de0-4154-96fa-4b5887e5962f"
                d="M11.44,78.24c.21.24.58.34.8.57s-.21,1.07,0,1.3,1.62-.61,1.84-.37.9,0,1.12.28-1,1.83-.82,2.06.41.5.63.74.89.06,1.1.29,1-.07,1.26.17-.29,1.13-.07,1.37.08.8.3,1,1.17-.2,1.39,0,.66.27.87.51.95,0,1.17.23-.61,1.29-.41,1.48,1.21-.51,1.41-.32-1,1.15-.82,1.35c-.26.2-.26.07-.52.27s-.42.54-.67.74-.32.67-.57.87-.59.31-.85.51.45,1.65.19,1.85-2-1.57-2.3-1.37.73,2,.47,2.22S15.29,93,15,93.15s.94,2.29.68,2.49-1.38-1.94-1.64-1.74c-.22-.22-.78,1-1,.78s-1,.06-1.18-.16,1-1.83.76-2.06-.71-.18-.92-.4.09-1-.13-1.19-2,1.12-2.26.9,1.16-2,.94-2.24-.58-.31-.8-.53-2.09,1.17-2.31,1,1.17-2,.95-2.23-.29-.6-.51-.82-.21-.67-.42-.89-1.35.44-1.56.22S5,86,4.8,85.73s.12-1-.1-1.22-.59-1-1-1.24L4,83.8c0-.11-.53,0-.57-.09,0-.34-.13-.65-.19-1s-1.44-.45-1.5-.79.69-.8.63-1.14,1.23-.89,1.18-1.23-2.38-.29-2.44-.63,1.29-.68,1.23-1c.27-.2-.33-1.17-.06-1.37s1.46.8,1.72.59-.42-1.64-.16-1.85.22-.81.48-1,1.31.36,1.58.15c.24.16,1-.18,1.26,0s-.24,1.48,0,1.61,1.29-1.36,1.55-1.24-.41,2.27-.14,2.39.6.09.86.21.35.3.61.42.56-.1.73.07S11.26,78.08,11.44,78.24Z" />
            <path class="ef86e52a-9de0-4154-96fa-4b5887e5962f"
                d="M73.74,119.54c-.33-.05-1-.92-1.32-1s-.06-2.06-.37-2.16-1.17,1.44-1.47,1.32-.18-1.18-.48-1.32-1.58,1.7-1.86,1.55-.31-.87-.6-1-.81.07-1.09-.09-.53-.39-.82-.55.75-2.57.46-2.74-1.7,1.65-2,1.49.23-1.58,0-1.75-.83.13-1.09,0-.78,0-1-.17-1,.25-1.24.06-.54-.39-.78-.59-.33-.65-.57-.85,1.15-2.22.92-2.44-1,.18-1.2,0-.1-.73-.32-1-1.06.15-1.26-.09.13-.89-.06-1.14-1.33.23-1.52,0,.36-.89.22-1.14-1.41-.42-1.55-.66c.26-.2,1.12-.31,1.38-.5s1.44.84,1.7.64-.45-1.69-.19-1.89,0-1,.32-1.2,1.86,1.41,2.12,1.21-.21-1,.05-1.21c.28.19.51,0,.79.22s.67.2.94.38.39.61.67.8.28.76.56.94.21.87.49,1,.63.25.91.43,1-.3,1.26-.12.13,1,.41,1.19.36.65.63.83.64.24.91.42,1.15-.54,1.42-.35.23.85.5,1,1.34-.84,1.61-.66-.24,1.58,0,1.76,1-.38,1.28-.2,1.11-.55,1.38-.38.51.37.78.54.62.21.89.38-.2,1.52.07,1.69.07,1.08.34,1.25.47.45.74.62.62.21.89.38,1.83-1.7,2.1-1.53-1.68,1.46-1.42,1.63c-.29.17.27-.55,0-.38s.47,2.18.17,2.35-1.73-1.62-2-1.45-.5.51-.8.69.12,1.56-.18,1.74-.92-.23-1.22-.06S74,119.37,73.74,119.54Z" />
            <path class="ef86e52a-9de0-4154-96fa-4b5887e5962f"
                d="M83.12,111.18c-.28-.18,0-.06-.31-.24s-1.13.56-1.41.38.32-1.71,0-1.88-1.15.6-1.43.42-.38-.6-.66-.78-1.24.73-1.51.55.22-1.56,0-1.74-.53-.37-.81-.55-1.63,1.32-1.9,1.14.5-2,.23-2.15-.52-.41-.79-.59-.52-.41-.79-.59-.84.09-1.11-.09,0-1.28-.22-1.46-1.1.48-1.37.3.06-1.29-.21-1.47-.59-.29-.86-.47-1,.3-1.25.12-1.58,1.21-1.86,1-.56-.33-.84-.51-.09-1.06-.37-1.24,0-1.21-.26-1.4-.8,0-1.07-.16.19-.33-.09-.51c.27-.19.1.13.35-.06s-.36-1.6-.1-1.79,1.68,1.24,1.94,1,.56-.32.82-.5.36-.59.62-.77-.27-1.53,0-1.71a3.55,3.55,0,0,1,1.89-.08c.25.18-.81,2.22-.56,2.4s.57.28.82.46,1.69-1.3,2-1.12-.77,2.15-.51,2.33,1.36-.85,1.62-.67-.32,1.51-.06,1.69,1.92-1.62,2.17-1.43.33.61.58.79.19.81.44,1-.16,1.31.09,1.49,1.64-1.22,1.89-1,0,1,.29,1.2.1.94.35,1.12.11.92.36,1.1.6.23.86.41,1-.37,1.28-.18,1.18-.59,1.43-.41-.48,1.76-.23,1.94.8,0,1.07.24-.12,1.37.16,1.56,1.51-1,1.79-.83,1.12-.46,1.4-.27-.18,1.4.1,1.59c-.26.22.46,1.52.2,1.75s-1-.17-1.3.06-.31.68-.57.9-.77.16-1,.38S83.37,111,83.12,111.18Z" />
            <path class="ef86e52a-9de0-4154-96fa-4b5887e5962f"
                d="M102.84,72.67c-.27.13-.92.11-1.2.24s-1.26-1.16-1.54-1-.08,1.23-.35,1.37,0,1.33-.31,1.46-.83-.29-1.1-.15-1.42-1.48-1.7-1.34S97.3,76,97,76.08s-1.17-1-1.45-.82-.94-.51-1.21-.37-.4.58-.68.72-.21.94-.49,1.08-.16,1-.43,1.17-1.27-1.11-1.54-1-.71-.28-1-.18-.28-.25-.59-.24-1,2.34-1.32,2.2a6.25,6.25,0,0,1-1-.75c-.25-.2.47-1.65.21-1.83S86,77.19,85.77,77s-.58-.23-.85-.39.61-2.21.34-2.38-1,.43-1.25.26c0-.07-.48-.51-.46-.59.28-.18.59-.49.88-.68s1.51,1,1.78.85-.27-1.53,0-1.74,1.6.89,1.85.68-1.06-2.27-.81-2.48,1.4.64,1.65.43.4-.54.65-.75-.2-1.23,0-1.44,1.54.79,1.78.57.62-.28.87-.49.07-.92.32-1.13-.53-1.62-.28-1.84,1.5,1.87,1.75,1.66c.26.18,1.06-1.8,1.32-1.62S94.71,68,95,68.22s1.32-.85,1.59-.68.69.09,1,.27-.52,1.92-.26,2.1.45.46.71.63,1.87-1.66,2.13-1.49.08,1,.35,1.19-.35,1.66-.09,1.84,2.36-1.77,2.75-1.57C103.12,70.63,102.83,72.55,102.84,72.67Z" />
            <path class="fcba262f-86cd-47b1-a3d6-4351fcfc1bfb"
                d="M100.85,85.88c-.26-.16-.16-1.84-.43-2s-.71,0-1-.21-.43-.49-.7-.66-.61-.2-.88-.37S96.31,83.94,96,83.77s.77-2.4.5-2.57-.86.19-1.13,0-.72,0-1-.21-1.06,0-1.33-.17c.29-.14.66-.74.94-.88s1.25,1.08,1.54.94-.32-2.14,0-2.28,1.72,2,2,1.88-.18-1.85.1-2,.82.2,1.11.06-.08-1.63.21-1.77,1.73,2.07,2,1.93-.51-2.51-.23-2.65,1.84-.33,2.13-.47c-.06.33-.52,1.72-.57,2s.1.68,0,1-1.92.35-2,.67,1.63.94,1.57,1.26-2,.34-2,.66,1.62.94,1.56,1.26-1.69.38-1.75.71.8.8.75,1.12S100.91,85.56,100.85,85.88Z" />
            <path class="e929f6be-a512-4546-9357-1bbd01cc57c5"
                d="M102,67.13c-.26-.18-.22-1.25-.48-1.43s-.85.11-1.11-.07,0-1.18-.23-1.36-.71-.08-1-.26-1.81,1.51-2.07,1.33,1.68-1.61,1.41-1.79c.24-.23-.6,0-.36-.23s-.18-1.1,0-1.33.9,0,1.14-.24.62-.29.85-.52.44-1.69.68-1.92c0,.32.7,1.4.76,1.71s.39.59.45.91-.26.7-.21,1-.82.81-.76,1.13-.33.72-.27,1,2,.29,2,.61S102,66.81,102,67.13Z" />
            <path class="b53ef5ca-eaa2-4476-a00f-c3bb969ace11"
                d="M100.65,60.23l-3.48,3.43L93.5,61l6.66-2.24C100.33,59.27,100.49,59.75,100.65,60.23Z" />
            <path class="ecf6b584-3f76-46de-b815-3527186b6623"
                d="M5.63,92.22c.24.22,1,1,1.21,1.25s.92,0,1.16.18-.82,1.87-.58,2.09,2.21-1.44,2.45-1.22-1,2.08-.76,2.3,0,1,.25,1.19,1-.57,1.26-.35c-.2.21-.92-.59-1.1-.4s0,.75-.21.94.46,0,.27.16c-.14-.27-.8.64-.94.38s-.31-.53-.45-.79,1.33-1.38,1.19-1.65-1-.16-1.14-.43-.48-.43-.62-.7-1.23,0-1.37-.3,1.25-1.34,1.11-1.61S5.77,92.48,5.63,92.22Z" />
            <path class="fec4ae01-b115-4ce6-8111-a4242c3fd7a6" d="M3,83.81a3,3,0,0,1,.11.32A3,3,0,0,0,3,83.81Z" />
            <path class="ef86e52a-9de0-4154-96fa-4b5887e5962f"
                d="M53.11,103.2c-.15-.29.59-2.06.45-2.34s-1-.19-1.17-.48-.23-.59-.38-.87-1-.2-1.12-.48.64-1.06.49-1.34.51-1,.36-1.24-1.22.06-1.43,0-.88.17-1.19,0-.83.13-1.14,0,.05-1.61-.26-1.77-1.22.9-1.53.75.14-2-.16-2.14-.94.67-1.22.57-.22-1.16-.5-1.26-1.06,1.3-1.33,1.21-.87.72-1.14.63,0-2.08-.27-2.17-.81,1-1.11,1-.55-.44-.84-.48-.51-.71-.81-.75-.91,1.9-1.21,1.86-.52-1-.84-1.08-.55-.59-.88-.65-.5-.84-.83-.9l-1-.21c-.32-.06-1,1.82-1.37,1.75s-.55-.63-.87-.69-.55-.61-.88-.68-.44-.76-.76-.83c-.28-.23-1.33.59-1.63.35s1.44-1.37,1.14-1.62c.26-.17-.42.45-.16.29s.05-1,.3-1.21.35-.59.6-.76.15-.88.41-1,.63-.14.89-.3,1,.34,1.2.18.53-.29.78-.46,0-1.31.29-1.47.83,1.13,1,1.09.5.7.8.73.76-1.11,1.06-1.07.48,1.18.78,1.22.29.62.6.66,1.51-2.06,1.74-1.93.09,1.09.35,1.29.37.59.63.79.78.07,1,.27-.44,1.62-.18,1.82,1.77-1.19,2-1,.69.18.94.39-.5,1.7-.24,1.9,1.18-.44,1.44-.23-.33,1.48-.07,1.68.37.59.63.8.89-.09,1.15.12.74.11,1,.31-.43,1.63-.17,1.83,1.28-.57,1.53-.37,1.32-.63,1.58-.43-.37,1.55-.11,1.75,1.47-.84,1.73-.64.28.73.55.93.67.19.94.38-.94,2.42-.66,2.62,1-.26,1.27-.06.05-.21.33,0c-.29.23,1.2,1.58.93,1.8s-1.79-1.08-2.07-.86-.19.92-.47,1.15S53.39,103,53.11,103.2Z" />
            <path class="ef86e52a-9de0-4154-96fa-4b5887e5962f"
                d="M55.74,85.77c.24.21,1.64-1,1.87-.81s.22.69.45.9,0,.94.23,1.14-.53,1.55-.3,1.75.93-.1,1.16.1.81,0,1,.23-.23,1.2,0,1.41,1.49-.76,1.73-.56-.19,1.16,0,1.36.27.65.5.85,1.73-1.14,2-1,.09.8.33,1-.63.6-.38.8c-.28.2,1,1.48.72,1.68s-1.55-1-1.83-.77-.67.24-.94.44-.46.53-.73.73.2,1.46-.08,1.66-1.19-.52-1.47-.33.16-.51,0-.65-.45-.45-.7-.64l-.74-.59c-.25-.19-1.25.6-1.5.41s.09-1.16-.17-1.35-.1-.92-.35-1.11-1.09.4-1.34.21-1.1.4-1.35.21-.6-.25-.85-.44-1,.22-1.21,0,.51-1.73.26-1.92-1.4.81-1.65.61.06-1.12-.2-1.31-1.07.37-1.32.18.6-1.85.35-2-.47-.42-.73-.61-1,.25-1.23.06.09-1.17-.16-1.36,0,.78-.26.59c.35,0-.29-.06.06-.07s.71.06,1.06,0,.67-.75,1-.78.73.33,1.08.29.47-1.18.79-1.23.87,1.41,1.18,1.36.55-.6.86-.66l.94-.18c.31-.06.38-1.49.69-1.55s.86,1,1.18,1C55.87,85,55.6,85.71,55.74,85.77Z" />
            <path class="b53ef5ca-eaa2-4476-a00f-c3bb969ace11"
                d="M38.69,85.77,35,85.32C36.78,83.86,36.88,83.88,38.69,85.77Z" />
            <path class="ef86e52a-9de0-4154-96fa-4b5887e5962f"
                d="M29.36,108.52c-.25-.22-.29,1.36-.53,1.14s-.14-.83-.38-1-.1-.87-.34-1.09-1.75.94-2,.72,0-1-.23-1.2.15-1.15-.09-1.37-1.31.47-1.56.25,0-1-.23-1.21.47-1.49.23-1.71-1.54.72-1.78.5,0-1-.21-1.23-.34-.61-.58-.83-1.28.43-1.52.21-.68-.24-.92-.46,0-1-.26-1.18-.21-.74-.46-1-1.16.29-1.4.07.46-1,.21-1.24c.27-.2-.43-1.13-.16-1.33s.74-.13,1-.34.12-.94.38-1.14,1.5.84,1.76.63.71-.18,1-.38-.22-1.38,0-1.58.39-.59.65-.79.63-.28.89-.48,1.22.51,1.48.3.2-1.75.47-2c.25.2.34,1.58.59,1.77s.77,0,1,.22,0,1.1.21,1.29.6.28.85.47,1.28-.64,1.53-.45.12.91.37,1.1c0,.32-.06.65-.07,1s-.38.62-.39.94,1.81.69,1.8,1-2.63.56-2.63.88.07.65.07,1,.44.65.45,1,1,.61,1,.92.85.6.88.93-1.13.75-1.1,1.08,1.07.56,1.11.89-1.31.8-1.28,1.13,1.55.5,1.59.83-.22.69-.19,1-1.36.82-1.32,1.15S29.32,108.19,29.36,108.52Z" />
            <path class="ef86e52a-9de0-4154-96fa-4b5887e5962f"
                d="M60,84.22c.28-.09,2.08.91,2.36.82s.7.27,1,.18.45-.58.73-.67.61-.08.89-.18-.15-2.23.13-2.33,1.13,1.32,1.4,1.21.17-1.3.47-1.42,1.13,1,1.43.92.69,0,1-.17.4-.73.69-.86.06-1.54.36-1.66,1.16,1.07,1.45,1,.55-.38.85-.5.18-1.25.48-1.38l.91-.34c.29-.13.46-.57.76-.7s1.16,1.08,1.45,1,.37-.8.67-.93.19-1.2.49-1.33.57-.33.87-.45,1.07,1.19,1.31,1.09.21.51.45.41c.28.2,1.36-1.45,1.64-1.25s.09,1.07.38,1.27.18.93.47,1.13,1.44-.87,1.73-.67.73.15,1,.35-1.58,1.69-1.29,1.9c-.25.17.44-.37.23-.22s.6,2,.37,2.11-.67.16-.94.33-.94-.29-1.22-.12,0,1.2-.31,1.36-1-.43-1.3-.26-.49.46-.77.63-.9-.24-1.18-.07,0,1.21-.3,1.38-1.16-.66-1.44-.49-.5.42-.78.59-1.17-.67-1.45-.5.87,2.68.59,2.85-.7.09-1,.26-.42.56-.7.72S72,87.23,71.7,87.4s-.35.67-.62.84-.42.58-.69.75.27,1.67,0,1.85-.87,0-1.1.09a3.49,3.49,0,0,1-1.29.23c-.22-.08-.4-.75-.64-1s-.12-.81-.35-1-.4-.5-.64-.7-1.09.32-1.33.12-.9.1-1.13-.1-.45-.43-.69-.63l-.72-.59c-.24-.2.38-1.43.15-1.63s-1.22.47-1.45.27S60.26,84.42,60,84.22Z" />
            <path class="fcba262f-86cd-47b1-a3d6-4351fcfc1bfb"
                d="M21.2,82.4c.3.08-.06-.64.24-.56s.54.43.85.51.21,1.74.51,1.82,1-1.45,1.33-1.37.67,0,1,.1.23,1.62.54,1.71.68,0,1,0,.93-.9,1.24-.81-.79.63-.47.72c-.28.19.51-.2.24,0s-.63.23-.9.41-.83-.18-1,0,.26,1.94,0,2-.75-.4-1-.57-.31-.43-.57-.68.34-1.12.1-1.36-.48-.53-.73-.77-2.08,1.12-2.34.87,1-2,.75-2.29S21.45,82.65,21.2,82.4Z" />
            <path class="f5181cd1-3a6e-422e-b032-ee0563701aba" d="M29,84.46l.36-.13Z" />
        </g>
    </g>
</svg>