<?xml version="1.0" encoding="UTF-8"?>
<svg id="_圖層_4" data-name="圖層 4" xmlns="http://www.w3.org/2000/svg" viewBox="0 0 376.16 376.16">
  <defs>
    <style>
      .big {
        fill: #b79779;
      }
    </style>
    <filter id="inset-shadow">
      <feOffset dx="10" dy="10" /> <!-- Shadow Offset -->
      <feGaussianBlur stdDeviation="4" result="offset-blur" /> <!-- Shadow Blur -->
      <feComposite operator="out" in="SourceGraphic" in2="offset-blur" result="inverse" />
      <!-- Invert the drop shadow to create an inner shadow -->
      <feFlood flood-color="black" flood-opacity="1" result="color" /> <!-- Color & Opacity -->
      <feComposite operator="in" in="color" in2="inverse" result="shadow" /> <!-- Clip color inside shadow -->
      <feComponentTransfer in="shadow" result="shadow">
        <!-- Shadow Opacity -->
        <feFuncA type="linear" slope=".75" />
      </feComponentTransfer>
      <feComposite operator="over" in="shadow" in2="SourceGraphic" />
      <!-- Put shadow over original object -->
    </filter>
  </defs>
  <path class="big " filter="url(#inset-shadow)"
    d="M138.44,242.26h-24.63v-24.99h24.63c0-1.55,0-2.68,0-3.82,0-18.79-.03-37.57,.04-56.36,0-2.3,.19-4.71,.86-6.89,1.37-4.39,4.64-6.82,9.16-7.48,1.63-.24,3.3-.27,4.95-.28,18.59-.02,37.18-.01,55.76-.01h3.87v-24.68h25.09v24.68c1.42,0,2.54,0,3.66,0,18.88,0,37.76-.04,56.64,.05,2.57,.01,5.29,.34,7.68,1.22,3.83,1.42,5.91,4.6,6.54,8.63,.21,1.34,.28,2.71,.28,4.07,.02,29.69,.01,59.38,.01,89.06,0,.77,0,1.53,0,3.02-25.07-14.61-49.64-28.94-74.54-43.46v100.48c9.31-9.33,18.14-18.19,27.18-27.25,7.49,12.92,14.82,25.55,22.47,38.74-1.62,0-2.56,0-3.5,0-43.99,0-87.98,0-131.96,0-7.57,0-12.08-2.76-13.6-8.51-.51-1.94-.58-4.04-.58-6.07-.04-18.79-.02-37.57-.02-56.36v-3.82Z" />
  <path class="big " filter="url(#inset-shadow)"
    d="M287.94,265.86c8.41-2.53,16.44-4.95,24.79-7.47v48.62c-.15,.08-.3,.15-.45,.23-8.06-13.7-16.12-27.4-24.34-41.38Z" />
  <path class="big " filter="url(#inset-shadow)" d="M113.71,92.55v-24.62h24.75v24.62h-24.75Z" />
  <path class="big " filter="url(#inset-shadow)" d="M188.1,92.62h-24.57v-24.68h24.57v24.68Z" />
  <path class="big " filter="url(#inset-shadow)" d="M63.89,117.7h24.63v24.77h-24.63v-24.77Z" />
  <path class="big " filter="url(#inset-shadow)" d="M63.94,167.48h24.62v24.68h-24.62v-24.68Z" />
  <path class="big " filter="url(#inset-shadow)" d="M88.57,67.87v24.69h-24.69v-24.69h24.69Z" />
  <path class="big " filter="url(#inset-shadow)" d="M213.37,67.87h24.69v24.69h-24.69v-24.69Z" />
  <path class="big " filter="url(#inset-shadow)" d="M88.57,242.08h-24.69v-24.69h24.69v24.69Z" />
</svg>