<?xml version="1.0" encoding="UTF-8"?>
<svg xmlns="http://www.w3.org/2000/svg" viewBox="0 0 60 60">
  <defs>
    <style>
      .cls-1 {
        fill: #56220B;
      }
    </style>
  </defs>
  <polygon class="cls-1"
    points="55.28 30.27 56.97 32.65 59.7 35.53 59.04 38.09 53.85 38.98 55.07 42.01 52.95 43.57 54.63 47.58 49.44 46.63 48.81 49.15 46.51 50.01 44.97 51.72 43.89 54.39 40.68 53.22 40.32 58.66 37.7 59.01 35.26 60 32.44 57.79 30.04 56.22 27.67 57.57 25.6 55.63 22.27 59.43 20.46 56.73 18.83 54.45 16.79 53.35 13.9 53.46 10.59 53.58 8.67 51.77 7.31 49.46 6.98 46.51 7.27 43.49 7.1 41.03 3.54 39.97 1.05 38.08 2.61 35.14 0 32.92 2.79 30.27 3.94 27.98 .85 25.1 1.18 22.5 4.23 20.83 6.5 19.24 4.35 15.36 7.47 14.38 6.96 10.8 10.58 10.7 12.47 9.21 12.94 5.71 16.6 6.85 19.13 6.73 19.71 1.74 22.95 3.65 25.13 2.27 27.54 1.52 30.04 0 32.57 1.22 34.72 3.64 37.64 1.77 40.48 1.44 42.92 2.52 43.95 6.07 44.44 9.6 48.96 7.6 49.61 10.61 53.42 10.56 50.65 15.77 54.92 15.84 55.59 18.3 56.68 20.53 54.53 23.67 59.83 24.99 60 27.64 55.28 30.27" />
</svg>