<?xml version="1.0" encoding="UTF-8"?>
<svg id="_圖層_1" data-name="圖層 1" xmlns="http://www.w3.org/2000/svg" viewBox="0 0 376.16 376.16">
  <defs>
    <style>
      .cls-0 {
        fill: #fff1c5;
      }

      .cls-0:hover {
        fill: #BB8058;
      }

      .checked {
        fill: #fbaa31 !important;
      }
    </style>
    <filter id="inset-shadow">
      <feOffset dx="5" dy="10" /> <!-- Shadow Offset -->
      <feGaussianBlur stdDeviation="4" result="offset-blur" /> <!-- Shadow Blur -->
      <feComposite operator="out" in="SourceGraphic" in2="offset-blur" result="inverse" />
      <!-- Invert the drop shadow to create an inner shadow -->
      <feFlood flood-color="black" flood-opacity="1" result="color" /> <!-- Color & Opacity -->
      <feComposite operator="in" in="color" in2="inverse" result="shadow" /> <!-- Clip color inside shadow -->
      <feComponentTransfer in="shadow" result="shadow">
        <!-- Shadow Opacity -->
        <feFuncA type="linear" slope=".75" />
      </feComponentTransfer>
      <feComposite operator="over" in="shadow" in2="SourceGraphic" />
      <!-- Put shadow over original object -->
    </filter>
  </defs>
  <path class="cls-0" filter="url(#inset-shadow)"
    d="M41.46,231.48c1.48-8.42,6.75-14.38,12.57-20.18,48.94-48.85,97.8-97.79,146.67-146.72,8.38-8.39,18.25-11.19,29.45-7.26,3.8,1.34,7.54,3.82,10.42,6.67,28.48,28.23,56.8,56.62,85.09,85.05,11.33,11.39,11.4,27.67,0,38.99-41.65,41.33-83.41,82.54-125.15,123.79-6.84,6.76-15.14,9.95-24.73,9.93-14.19-.03-28.39-.03-42.58,0-9.82,.02-18.16-3.4-25.17-10.28-17.95-17.61-35.88-35.24-53.97-52.7-5.86-5.65-11.01-11.56-12.6-19.84v-7.43Zm27.04,3.92c.12,.13,.35,.43,.62,.7,19.14,18.7,38.3,37.4,57.43,56.11,1.94,1.9,4.17,2.78,6.92,2.77,13.81-.06,27.62-.08,41.43,.01,3.17,.02,5.65-.97,7.89-3.21,12.62-12.56,25.32-25.06,37.99-37.58,.66-.65,1.27-1.35,1.72-1.83-28.64-28.64-57.16-57.15-85.5-85.49-22.7,22.7-45.59,45.59-68.51,68.51Z" />
</svg>