<svg xmlns="http://www.w3.org/2000/svg" viewBox="0 0 70.58 231.22">
    <defs>
        <style>
            .a390200a-47c9-4a1d-8307-463e5f25a26b {
                fill: #5c3a31;
            }

            .a31d3fc0-3b33-4ba8-8450-df448082d5bc {
                fill: #ca5163;
            }

            .e2520533-d9e3-4207-b189-a09ddff21e04 {
                fill: #d46579;
            }

            .bd25fe5b-504c-4a9b-b08e-3dd7a892ec1e {
                fill: #835b36;
            }
        </style>
    </defs>
    <title>資產 1</title>
    <g id="beafb947-4b9e-4029-aba2-d8135cb97fa3" data-name="圖層 2">
        <g id="ff90abc6-033b-414b-9dbf-01f7ebf34e13" data-name="圖層 1">
            <g id="f81b1647-48ad-480a-bc2c-bd67e08e943a" data-name="b6352314-f363-4a7c-b420-513bd81de8d6">
                <g id="a016fa0a-a4e8-4168-aa98-191dacca4f8b" data-name="abb4c074-46a4-492c-8d35-6a03affdae75">
                    <path class="a390200a-47c9-4a1d-8307-463e5f25a26b"
                        d="M47.55,55.4c0,.4-1,.35-1.07.75s2.32.53,2.3.94-.48.38-.5.78.88.46.86.86-.48.38-.51.79-2.39.28-2.42.68.8.45.78.86,1.37.48,1.34.88.35.43.33.83-1.53.33-1.55.73.88.46.86.86-1,.36-1,.76-.45.39-.48.79.51.44.49.84.92.46.9.86-1,.36-1.07.76-.8.37-.82.77,1.27.48,1.24.89-.47.38-.49.78.89.46.87.87-.24.39-.26.8-2.15.29-2.17.7,3.31.58,3.29,1-.79.37-.81.78.87.45.85.86-2.55.27-2.57.68,2.47.54,2.45,1-3.42.23-3.44.63,2.48.54,2.46,1-.62.38-.64.78-1.3.34-1.33.75,1,.46.94.86.24.43.22.83.44.43.42.84,1.11.47,1.09.87-2,.31-2,.71-1.06.36-1.08.76.76.45.74.86-1.29.34-1.31.74,3.5.59,3.48,1-3.14.24-3.16.65,2.06.52,2,.92.86.45.84.86-.31.39-.34.8-1.55.33-1.57.73,1.78.5,1.76.91-2.69.27-2.71.67,0,.41,0,.82.71.45.69.86,1.07.46,1.05.87.25.42.23.83.71.45.69.85-.44.39-.46.8.24.42.22.83-2.46.28-2.49.68-.93.36-.95.77,2.52.54,2.49.95-.25.39-.27.8-1.86.31-1.88.72-.49.38-.51.79.61.44.59.85,2.57.54,2.54,1-.85.36-.87.77-.88.36-.9.77,1.91.5,1.89.91-1.25.34-1.27.75-.94.36-1,.77,1,.46,1,.87.73.45.71.86-.94.36-1,.77-.81.36-.83.77-1,.36-1,.76.14.42.12.83,1.26.47,1.23.88-2.09.3-2.11.71,0,.41,0,.81,2.87.56,2.85,1,.73.45.71.86-1.71.31-1.73.72-1.41.34-1.44.74,2.15.53,2.13.93.26.43.24.84.25.42.23.83-.61.37-.63.78,0,.41-.06.82-.49.38-.51.79,1.29.47,1.26.88-2.08.3-2.11.7,1.77.5,1.75.91-2.3.29-2.32.69-.39.39-.42.79,1.15.47,1.13.88.33.42.31.83,1.36.48,1.34.88-2.68.27-2.71.68,1.76.5,1.74.9-1.3.34-1.32.75-.74.37-.76.78,1.44.48,1.42.89-1.38.34-1.4.75,2.61.54,2.58.95-2.25.29-2.27.7,1.55.49,1.53.9,0,.41-.06.81-1.27.35-1.29.75-.2.4-.22.81.44.43.42.84.79.45.77.86-1.26.34-1.28.75-1.28.34-1.3.75,1.69.5,1.67.91-1.82.31-1.84.72.82.46.79.86.62.45.59.85.81.46.79.86-1.44.34-1.46.75,1.24.47,1.22.88.66.45.63.86-.34.39-.36.8-1.73.32-1.75.73,1,.46.93.87-1.4.33-1.42.74,1,.47,1,.87.23.43.21.83,1.34.48,1.32.89.63.45.61.86-.79.36-.81.77-.91.36-.93.77-2,.31-2,.72,3.52.59,3.5,1-1,.36-1,.77-2.2.3-2.22.71,0,.41,0,.82,1.56.49,1.54.9-.91.36-.94.77-.71.38-.73.79,1.32.48,1.3.89,1,.47,1,.88-.45.39-.47.8-1.43.6-1.33,1c.26.05,1,1.12,1.31,1.18s.6-.28.86-.21.3.83.56.9,1.06-1.71,1.31-1.63.28.91.53,1,.41.43.66.53.81-.63,1.06-.53.28.75.52.85,1.06-1.07,1.31-1,.83-.44,1.07-.33-.44,2.18-.2,2.3,1.5-1.7,1.74-1.57-1.26,3.44-1,3.57,1.34-1.29,1.57-1.15,1.3-1.06,1.53-.92-.2,1.35,0,1.49,1-.57,1.27-.41-1.09,2.48-.88,2.64,1-.53,1.26-.36.18.62.39.79,1.12-.52,1.32-.35,1.35-.7,1.55-.52-.37,1.26-.17,1.45-1.22,2.05-1,2.24,1-.26,1.17-.07.25.47.44.67,1.41-.57,1.59-.37.9-.06,1.07.15-.19.89,0,1.1.54.27.7.48-.47,1.05-.31,1.27,1.13-.16,1.29.06-1.47,1.66-1.32,1.88,2.34-.91,2.49-.68-.46.94-.33,1.17,1.33-.14,1.46.09-2,1.72-1.87,2,2.13-.51,2.25-.27.9.19,1,.43-.81,1-.7,1.24,0,.59.09.84.26.48.36.73-1.09,1-1,1.21.18.48.26.73.75.31.83.56,2.38-.09,2.45.17-1.51,1-1.45,1.22-1.64.9-1.59,1.17,2,.12,2.08.38-.78.68-.73.94.41.47.45.73.13.52.16.79-.46.57-.43.84,1,.46,1,.72-1.78.6-1.77.87.51.49.52.76-.29.53-.3.79.16.41.16.82.85.4.85.81-.11.4-.11.81.26.4.26.81-.18.4-.18.8.07.41.07.81-.31.41-.31.81,2.38.4,2.38.81-2.66.4-2.66.81-.51.4-.51.81,1.92.4,1.92.81.73.4.73.81-3,.4-3,.81,2.12.4,2.12.81.86.4.86.81-2.89.4-2.89.8,2.2.41,2.2.81-1.14.41-1.14.81.32.41.32.81,1.58.4,1.58.81-1.4.4-1.4.81.73.4.73.81-.39.4-.39.81.51.4.51.81-1.76.41-1.76.81-.15.41-.15.81.53.41.53.82,1,.4,1,.81-1.39.4-1.39.81-.41.41-.41.81.71.41.71.82.42-.15.13.14.29,1.83-.12,1.83-.4-1.41-.81-1.41-.4-.4-.8-.4-.4,2.23-.81,2.23-.4-2.07-.81-2.07-.4,1.89-.81,1.89-.4-2.56-.8-2.56-.41,1-.81,1-.41-.43-.82-.43-.4.11-.81.11-.4,2-.81,2-.4-2.89-.8-2.89-.41,3-.82,3-.4-3-.81-3-.41,1.5-.82,1.5-.09-.18-.38-.47,1.1,0,1.1-.36-.39-.41-.39-.81,0-.4,0-.81.28-.4.28-.8.19-.41.19-.81-1.12-.4-1.12-.81.13-.4.13-.8-2-.4-2-.81,2.3-.4,2.3-.8,0-.41,0-.81-.59-.4-.59-.81.13-.4.13-.8-1.52-.41-1.52-.81.66-.4.66-.81.3-.4.3-.81,1.43-.4,1.43-.8-1.12-.4-1.12-.8-1-.41-1-.81,1.62-.41,1.62-.81-.75-.4-.75-.8.28-.41.28-.81-1.16-.4-1.16-.81-.21-.4-.21-.81,2.24-.4,2.24-.8-.66-.41-.66-.81-2.08-.41-2.08-.81,1-.41,1-.81,1.62-.41,1.62-.81-.73-.41-.73-.81-1.06-.41-1.06-.81,0-.41,0-.82,1.3-.79,1-1.07-.67.71-1.08.71-.41-.92-.82-.92-.42-.73-.83-.73-.41.66-.82.66-.41-.36-.82-.36-.42.65-.83.65-.41-1-.83-1-.41,2.07-.82,2.07-.41.06-.83.06-.41-1.21-.83-1.21-.41-.65-.82-.65-.42-.65-.83-.65-.41,1.39-.82,1.39-.42-1-.83-1-.42,2.15-.83,2.15-.42-1.74-.84-1.74-1.38-.34-1.68,0,.51,1.28.51,1.68,1.78.41,1.78.81.26.41.26.81-1.3.41-1.3.81-.29.41-.29.81-1.47.4-1.47.81,2.1.4,2.1.81-.82.4-.82.8.39.41.39.81,1.1.41,1.1.81-.94.41-.94.81.53.41.53.81-2.13.41-2.13.81,2.76.41,2.76.81-3.1.41-3.1.81,2.14.4,2.14.81-.37.4-.37.81,1.53.4,1.53.81-3.54.4-3.54.81,2.57.4,2.57.8-1.9.41-1.9.81.55.41.55.81,1.24.41,1.24.81-.11.41-.11.81-.54.41-.54.82-.78.4-.78.81.22.41.22.81.73.41.73.81,1.35.41,1.35.82-2.71.4-2.71.81,2.75.41,2.75.82a3.74,3.74,0,0,1-.82,1.64c-.29.29-1.24.24-1.65.24s-.4-.08-.81-.08-.4-.85-.8-.85-.41-.92-.81-.92-.4.81-.81.81-.4,1.15-.81,1.15-.4-1.52-.81-1.52-.4.73-.81.73-.4-1.06-.81-1.06-.4,1.11-.81,1.11-.4-1.19-.81-1.19-.4.85-.81.85-.4-1.5-.81-1.5-.41.58-.81.58-.41-.21-.82-.21-.52,1.31-.81,1-.68-.4-.68-.8,1.44-.41,1.44-.81.7-.41.7-.81-1.35-.41-1.35-.81-1.21-.4-1.21-.81.19-.4.19-.81,2.14-.4,2.14-.8-2.56-.41-2.56-.81.9-.41.9-.81,1.61-.41,1.61-.81-1-.41-1-.81-1.54-.41-1.54-.81.4-.4.4-.81-.08-.4-.08-.81,1.48-.4,1.48-.81,1.4-.4,1.4-.81-1.13-.4-1.13-.8-1.15-.41-1.15-.82-.91-.4-.91-.8,2.84-.41,2.84-.81-1.63-.41-1.63-.81-1.42-.41-1.42-.81,1-.41,1-.81.82-.41.82-.81.7-.41.7-.82-2.61-.4-2.61-.81,1.31-.4,1.31-.81.28-.4.28-.81-.47-.41-.47-.81,1.13-.41,1.13-.82-.39-.41-.39-.82,1.14-1.6.85-1.89-1.48,1.85-1.89,1.85-.41.34-.82.34-.42.31-.83.31-.41-.47-.82-.47-.42.34-.83.34S24.36,203,24,203s-.41-.85-.83-.85-.41,1.69-.82,1.69h-.83c-.41,0-.41-1.69-.83-1.69s-.41,1.53-.83,1.53-.41-2.12-.82-2.12-.41-.6-.83-.6-.41,2.57-.83,2.57-.41-.3-.83-.3-.41-2.11-.83-2.11-.34,1.21-.64,1.5-1.54.21-1.54.61,3,.41,3,.81,0,.41,0,.81-3,.41-3,.81-.33.41-.33.81,2.28.4,2.28.81-.83.4-.83.81.69.4.69.8,1.19.41,1.19.81-2.58.41-2.58.81,2.22.41,2.22.81-1,.41-1,.81-1.22.41-1.22.81.4.41.4.81-.28.41-.28.81,2.14.4,2.14.81-2.31.4-2.31.81-.52.4-.52.81.19.4.19.81,2.25.4,2.25.8S13,219,13,219.38s2.49.41,2.49.81-2,.41-2,.81,2,.41,2,.81,0,.41,0,.82-.58.4-.58.81-1.69.41-1.69.81.41.41.41.81.09.41.09.82-.69.4-.69.81,1.66.41,1.66.82.11.15-.18.45,0-1.11-.43-1.11-.41.55-.81.55-.4-.89-.81-.89-.4,1.91-.8,1.91-.41-.47-.81-.47-.41.71-.81.71-.41,1.14-.81,1.14H8.37c-.4,0-.4-.51-.81-.51s-.41-1.11-.81-1.11-.41,1.68-.81,1.68-.41-1.94-.81-1.94-.41,1-.81,1-.41-.81-.82-.81-.4.66-.81.66-.39-.32-.68-.61.39-.26.39-.66-2-.41-2-.81S2,226.3,2,225.9s-.17-.41-.17-.81,1.12-.4,1.12-.81-2.9-.4-2.9-.81.92-.4.92-.8.91-.41.91-.81-.15-.41-.15-.81-1.09-.41-1.09-.81.29-.41.29-.81S1,219,1,218.62s1.32-.4,1.32-.81.67-.4.67-.81-2.53-.4-2.53-.81,1.09-.4,1.09-.81,1.12-.4,1.12-.8-1.25-.41-1.25-.82-.7-.4-.7-.8,1-.41,1-.81-.42-.41-.42-.81.58-.41.58-.81S.6,210.12.6,209.72s.76-.41.76-.81.32-.41.32-.82-.86-.4-.86-.81,1.5-.4,1.5-.81.51-.4.51-.81-2.08-.41-2.08-.81,2.48-.41,2.48-.82-1.35-.41-1.35-.82S0,202.81,0,202.4s.08-.55.08-.82.61-.57.62-.83-.09-.58-.07-.85.13-.56.16-.83,2.23-.32,2.26-.59-.52-.58-.49-.85-.92-.68-.88-.95,2.42-.1,2.47-.37-2.48-1-2.42-1.3.68-.41.75-.67,1.59-.13,1.66-.39-.17-.58-.09-.84-.1-.57,0-.82.79-.28.88-.53.09-.51.19-.76-.33-.68-.23-.93-.36-.73-.25-1,.89-.17,1-.41,1-.09,1.09-.33-1.75-1.5-1.63-1.74-.83-1.11-.7-1.35,2.5.83,2.64.6.94,0,1.08-.24S6.86,184.18,7,184s.55-.28.71-.5,1.27.29,1.44.08.25-.44.42-.66S7.85,180.77,8,180.57s1.9.91,2.08.7-.63-1.28-.45-1.48,2.23,1.33,2.42,1.14,0-.68.21-.87-1.58-2.37-1.38-2.55.61-.18.81-.37.8.05,1-.13,2,1.58,2.26,1.4-.91-1.93-.7-2.1-.11-1,.1-1.19.87.23,1.09.07,1.56,1.3,1.78,1.14-1.39-3-1.16-3.17.52-.26.75-.4,1.5,1.4,1.73,1.26-.41-1.81-.17-1.94,1.11.87,1.35.74.33-.55.57-.67.06-1.14.31-1.26.64,0,.89-.07.88.65,1.13.54,0-1.49.25-1.59.66.14.92,0,1.42,2.46,1.68,2.37.31-.69.57-.77-.22-2.66,0-2.74,1.17,2.2,1.43,2.13.17-1.53.44-1.59l-.4.08c.09-.39,2.89-.17,2.86-.58s-2.09-.28-2.12-.68-.91-.35-.93-.76.77-.45.74-.86.79-.46.76-.86.88-.46.86-.87-2.13-.27-2.15-.68,2.73-.58,2.7-1-1.05-.35-1.07-.75-1.34-.33-1.36-.73,2.21-.55,2.19-1-.59-.38-.62-.78-3-.22-3.06-.62,3.52-.63,3.49-1-2.13-.27-2.16-.68-1.24-.33-1.27-.74,1.7-.51,1.67-.92-1.32-.32-1.35-.73,1.72-.52,1.7-.92,1.27-.49,1.24-.9-1-.34-1.05-.75-.2-.4-.23-.8-.39-.39-.41-.8.23-.42.2-.83-.87-.35-.9-.76.61-.45.58-.86-.68-.36-.7-.77-.07-.41-.09-.81,1.84-.53,1.82-.94-2.49-.25-2.52-.66-.53-.37-.55-.78.07-.41,0-.82,2.39-.56,2.36-1,.23-.42.2-.82-.13-.41-.16-.81-.9-.35-.93-.76.12-.42.09-.82-1-.35-1-.75-.36-.39-.38-.8,2-.53,2-.94-2.94-.22-3-.63,1-.47.94-.88.41-.43.38-.84-.45-.38-.47-.78-.21-.4-.24-.81,1.67-.51,1.64-.92-1.84-.29-1.87-.7,1.15-.48,1.12-.89.92-.46.89-.87.42-.44.39-.84-.19-.4-.22-.81-.74-.36-.77-.77-1.42-.32-1.44-.73.38-.44.35-.84-.52-.38-.54-.79-.31-.39-.33-.8.19-.42.17-.83,1.13-.48,1.1-.88-.91-.35-.94-.76-1-.35-1-.75,1.58-.51,1.55-.92-.78-.36-.81-.77.77-.45.75-.86-1.17-.34-1.19-.74-.12-.41-.15-.81.89-.47.86-.88-.21-.39-.24-.8,2.36-.56,2.33-1-2.24-.27-2.27-.67-1.12-.34-1.15-.75,2.45-.57,2.42-1-.42-.39-.45-.8,1.14-.48,1.12-.89-.29-.39-.31-.79-3.16-.22-3.19-.62,2.9-.59,2.87-1-1.93-.29-2-.7,1-.47,1-.88-1.79-.29-1.81-.7,1.93-.53,1.9-.94-.77-.36-.79-.77,1.41-.5,1.38-.91-.62-.37-.64-.78-1-.34-1.06-.75.72-.46.69-.87-.75-.36-.77-.76.54-.45.52-.85-1.56-.32-1.59-.72,2-.54,2-.94-1.85-.3-1.87-.7,1.14-.48,1.11-.89-.53-.37-.56-.78-.59-.37-.62-.78,2.41-.55,2.38-1-2.85-.23-2.88-.64,3.16-.6,3.13-1-1.9-.29-1.93-.7,1.84-.52,1.81-.93-2.41-.26-2.44-.67,1.44-.5,1.42-.91.87-.46.84-.87-.72-.37-.74-.77-1.22-.34-1.24-.75.34-.43.32-.84,1.36-.49,1.33-.9-1.14-.34-1.16-.74,1.12-.48,1.1-.89-.48-.38-.51-.79-.46-.38-.49-.79.35-.43.33-.84-.5-.38-.53-.79-.33-.39-.35-.8.46-.44.44-.85.13-.42.1-.83-1.53-.31-1.56-.72.88-.46.86-.87-1.22-.34-1.25-.75-.88-.35-.91-.76,2.08-.55,2.05-1-.2-.39-.23-.8-.3-.39-.33-.8-.41-.39-.43-.8-.58-.38-.6-.79,1.06-.47,1-.88.5-.44.48-.85S22,67.36,21.94,67s.57-.45.55-.86-1.27-.33-1.3-.74,2-.53,2-.94-1.95-.29-2-.7S23,63.18,23,62.77s-1.07-.34-1.09-.75.28-.43.26-.85-.59-.37-.61-.78,2.15-.55,2.13-1-1.44-.32-1.47-.73,1.46-.51,1.43-.92-.93-.35-.95-.77-1-.35-1-.76-1.34-.31-1.37-.72,3.07-.48,3.05-1c0-.23-.9-.43-.89-.74s-1.59-.57-1.57-.86.9-.48.93-.76-.31-.58-.26-.86-.64-.7-.58-1,1.29-.26,1.36-.53-1.29-1-1.2-1.26,0-.69.07-1,3.13.83,3.25.59-1.36-1.29-1.22-1.53.38-.41.54-.64,1.78.75,2,.53-.55-1.07-.36-1.27-1.17-2-1-2.22.61-.29.83-.46,1.19.65,1.42.5,0-1.22.2-1.36S28.7,44.18,29,44.07s-.37-2.13-.11-2.23.64.18.9.1.49-.26.76-.33.7.76,1,.7.16-2.17.44-2.21.63.31.9.28.76,2.66,1,2.64.42-1.49.7-1.5.53.14.81.14.53,0,.8.05.75-2.18,1-2.15.47,1.17.74,1.22.84-1.08,1.11-1,0,2.53.22,2.61.21.88.46,1,1.56-2.33,1.8-2.21,0,1.33.24,1.46-.32,1.48-.09,1.63,1.54-1.23,1.75-1.06,1.13-.33,1.32-.14,0,.87.22,1.07-.83,1.44-.67,1.66.18.48.33.71,0,.56.16.79.36.36.48.61-.52.75-.41,1,2.63-.46,2.72-.21-1.82,1.18-1.74,1.44,2.73-.18,2.79.08,0,.63.06.89-2.91,1.1-2.87,1.36,1.48.31,1.51.57,1.58.44,1.6.69-2.75.73-2.75,1C46.19,55.17,47.57,55,47.55,55.4Z" />
                </g>
            </g>
            <path class="a31d3fc0-3b33-4ba8-8450-df448082d5bc"
                d="M35.35,2.21c-.28,0-.53-.26-.8-.25s-.53.27-.8.28-.59-1-.86-1-.45,1.22-.72,1.24-.65-1.23-.92-1.2-.44.87-.71.9S30,2,29.7,2s-.89-2-1.16-2-.52.4-.79.45-.62-.11-.89,0,.06,2.51-.21,2.58-.59-.17-.84-.09-.31.74-.56.83-.53,0-.78.13-.9-.82-1.15-.72-.39.45-.63.57-1.33-1.38-1.57-1.26.52,2.12.29,2.26-1.56-1.45-1.79-1.31,1.16,2.68.94,2.84-1-.53-1.24-.37-.53.21-.73.39-.23.53-.43.72-1-.25-1.21-.06.68,1.32.51,1.53-1.79-.72-2-.5,1.43,1.67,1.28,1.9-1.71-.46-1.85-.23-.88.17-1,.41-.32.51-.44.76,1.65,1.33,1.54,1.58-.93.2-1,.46,1,.89,1,1.14-2.36-.11-2.43.15.81.78.75,1-1.07.37-1.11.63,1.59.81,1.55,1.08-.71.45-.73.72-1.58.46-1.59.72,0,.61-.05.87,2,.58,2.05.83.38.53.39.76c0,.52-2.29.59-2.25,1s-.1.4-.07.8,1.48.31,1.51.72,1.35.31,1.38.72S13,24.5,13,24.91s.74.36.77.77-.62.45-.59.86-1,.48-.94.89,0,.41,0,.82.89.34.92.75,1.12.33,1.15.74.46.38.48.78-2.48.59-2.45,1,1.34.31,1.37.72.51.37.54.78.31.39.34.79-.35.44-.32.85.9.34.93.75-1.19.49-1.16.9-.79.46-.76.87,1.57.3,1.6.7-1.51.52-1.48.93-.23.42-.2.83.14.4.17.81.43.37.46.78-.81.47-.78.88.14.39.16.8,1.41.31,1.44.72-.36.43-.33.84S13,45,13,45.38s1.87.28,1.89.69,1.16.32,1.19.73-2.63.6-2.6,1,1.52.31,1.54.71.45.38.48.79.8.35.83.76-2.4.58-2.37,1,1.87.28,1.9.68.35.39.38.8-2.53.59-2.5,1,1.49.3,1.52.71,0,.41,0,.82-.31.43-.28.84-.66.46-.63.87,1.9.27,1.92.68-.72.47-.69.88,1,.33,1.07.74S15,59.6,15.06,60s.82.35.84.76,1,.34,1,.75.25.39.28.8-1.05.49-1,.9-1.7.53-1.67.94.27.39.29.79.45.38.48.79.56.37.59.78.35.38.38.79-1.61.53-1.58.93.15.4.18.81,1.07.33,1.1.74.57.37.6.78-.93.48-.9.88-.17.43-.14.83-.33.44-.3.85,1.79.28,1.82.69-1.07.49-1,.89.11.41.14.82,1.61.29,1.64.7-1.76.54-1.73,1,1.86.28,1.89.68-.78.47-.75.88-.41.44-.38.85.08.41.11.82,1.51.3,1.53.71-.12.42-.09.83-.22.42-.19.83-1,.48-.95.89-.47.45-.44.86-.92.47-.89.88,2.08.26,2.11.67.31.39.34.8.43.38.46.79-.92.47-.89.88-.75.47-.72.87,1.4.32,1.43.72-2.07.56-2,1,.42.38.45.79.94.35,1,.76-1.19.49-1.16.9,2.39.25,2.42.65-.22.43-.19.84-1.64.53-1.61.94-.12.42-.1.83,0,.41,0,.82.33.39.36.8-.63.45-.6.86,0,.42,0,.83,1.64.29,1.66.7,1.13.33,1.16.74-2.55.59-2.52,1,1,.35,1,.76,1.64.29,1.67.7-1.69.53-1.66.94,1,.34,1,.75.54.38.57.78,0,.41.07.82-1.25.5-1.22.91,1.56.3,1.59.7-2.66.6-2.63,1,2.17.26,2.2.66-2,.56-2,1,2.36.24,2.38.65.17.4.2.81-2.22.56-2.19,1,1.18.33,1.21.74-.2.42-.17.83-.53.45-.5.86,0,.41,0,.82,1.05.34,1.08.75-.23.43-.2.84,1.22.32,1.25.73-2.1.56-2.07,1,1.33.32,1.36.73-1,.48-.93.89.4.38.43.79-.38.44-.35.85-.42.44-.39.85.16.4.19.81.74.36.77.77.13.4.16.81-.91.48-.88.89.21.4.24.81,1.13.33,1.16.74-1.36.51-1.33.92,1.13.33,1.16.74-.15.42-.12.83-.43.45-.41.86,2.31.25,2.33.66-2.37.58-2.34,1,1,.34,1,.75.29.4.32.81.65.37.68.78-.73.46-.7.87-1.1.49-1.07.9.46.38.48.79.37.39.4.8,1.17.33,1.2.74-.09.41-.06.82-2.22.58-2.19,1,2.05.27,2.07.68-1.32.51-1.29.92,1.32.32,1.35.73-1.36.51-1.33.92,2.28.25,2.31.67-1.07.49-1,.9-.76.47-.74.88-.05.42,0,.83,2.16.27,2.19.68-1.9.55-1.87,1c0,.26,1.58.24,1.64.49s-1.3.88-1.2,1.13a5.72,5.72,0,0,0,.36.75,7.5,7.5,0,0,0,.48.67c.16.21.12.67.31.86s1.35-.77,1.56-.61-.09,1,.14,1.1a7.42,7.42,0,0,0,.64.46c.24.11.6-.12.85,0s.72-1,1-1,.26,1,.53,1.05.47,1.09.73,1.09c.41,0,.41-.07.81-.07s.4,0,.8,0,.41-.4.81-.4.4.7.8.7.4-.31.8-.31.41.7.81.7.41.36.81.36.4-1,.8-1,.41-1.53.81-1.53.41.37.81.37.4.55.81.55.4,0,.8,0,.41-.16.81-.16.41,1.21.81,1.21.41-1.43.81-1.43.41-.27.82-.27.68,2.27.94,2.25.57-.64.83-.7,0-2,.24-2.11,1.43,2.13,1.67,2-.81-2.67-.59-2.81,1.38,1.16,1.59,1,.2-.61.38-.8,1.3.31,1.45.1-.29-1-.16-1.19.48-.44.58-.69a6.55,6.55,0,0,0,.29-.85c.06-.25-.37-.65-.35-.91,0-.41,0-.41.06-.82s-1.32-.49-1.3-.9.68-.37.7-.78-.19-.42-.17-.83-.62-.44-.6-.85.79-.37.81-.77-.35-.43-.32-.84,1.2-.34,1.23-.75.61-.37.63-.78-2.24-.54-2.22-.95.9-.35.92-.76-.82-.46-.8-.87,3-.23,3-.63-.24-.43-.21-.83-2.62-.57-2.6-1,2.33-.26,2.36-.67.17-.4.2-.81-1.31-.48-1.28-.89.44-.38.46-.79,1.26-.33,1.28-.74-2.22-.54-2.2-1,.71-.36.74-.77.65-.37.67-.77-.65-.45-.62-.86.62-.37.64-.78.12-.4.14-.8.27-.4.29-.8-.74-.46-.72-.86,1.26-.34,1.29-.74-1-.47-1-.88-.29-.43-.27-.83-.52-.44-.5-.85,1.06-.35,1.09-.75-.21-.43-.18-.83.63-.37.66-.78,0-.41,0-.82-.87-.46-.85-.87,1.39-.32,1.41-.73-2.11-.54-2.08-1,.37-.38.4-.79,2.17-.28,2.2-.69-.46-.44-.44-.85-1.89-.52-1.86-.93,1.28-.34,1.3-.74,0-.42,0-.83.93-.35,1-.76.1-.4.13-.81-.67-.45-.64-.86-.37-.43-.35-.84-.74-.45-.72-.86-.45-.44-.43-.85,1.77-.3,1.8-.71S50,108,50,107.54s-.56-.44-.54-.85,2.76-.24,2.78-.65-2.23-.54-2.2-1,.85-.36.87-.77-1.3-.48-1.28-.89.42-.39.44-.79.15-.4.18-.81,2.28-.27,2.3-.68-2.23-.55-2.2-1,.78-.37.81-.77,1.07-.35,1.09-.76-.18-.42-.15-.83.86-.35.88-.76-1.19-.48-1.16-.89-1.19-.49-1.17-.89S52,95,52,94.56s-.05-.42,0-.83-.66-.45-.63-.86,1.41-.32,1.44-.73,0-.41.05-.82-1.77-.52-1.74-.92,1.73-.31,1.75-.72-.17-.42-.14-.83-2.12-.53-2.09-.94.17-.4.19-.81,2.22-.28,2.24-.69-.68-.45-.66-.86S51,85.06,51,84.65s1-.35,1-.76,1.82-.3,1.85-.71-.59-.44-.57-.85.55-.38.57-.79-.6-.44-.58-.85S52,80.2,52,79.79s1.93-.3,2-.71,0-.41,0-.82-1.64-.51-1.62-.92-.83-.46-.81-.87S54,76.21,54,75.8s-1.44-.5-1.42-.91,1.66-.31,1.69-.71-1.5-.5-1.48-.91,1.23-.34,1.26-.75,0-.41,0-.82-.64-.45-.61-.86-.23-.42-.2-.83-1.61-.51-1.58-.92,2.41-.26,2.44-.67-.38-.44-.36-.85.08-.4.1-.81.15-.4.18-.81-.53-.44-.5-.85.34-.39.37-.8.12-.4.15-.81.59-.37.61-.78-.58-.44-.56-.85S52.93,61.38,53,61s.64-.36.67-.77.13-.4.15-.81,1-.35,1-.76-2.33-.55-2.3-1,1.16-.34,1.18-.75.42-.38.45-.79.54-.38.57-.79.06-.4.09-.81-1.31-.5-1.29-.91-.66-.45-.64-.86.4-.38.43-.79,1.93-.3,2-.71-1-.46-.93-.87.49-.38.52-.79-.89-.47-.87-.87-1-.48-1-.89.87-.35.89-.76,1.88-.3,1.9-.71-.63-.45-.6-.86,1-.36,1-.77-.83-.46-.81-.87-.23-.43-.2-.84-1-.46-.94-.87-.69-.46-.66-.87,2.76-.24,2.78-.65-2.55-.57-2.52-1,0-.41,0-.82,1.92-.3,1.94-.71.67-.37.69-.78-1.15-.48-1.13-.89,1.37-.33,1.39-.75-3-.58-3-1,2.06-.29,2.08-.7-1.53-.51-1.5-.92,1.61-.31,1.64-.72.61-.38.63-.79-1.94-.52-1.92-.93.57-.38.59-.8,1.6-.31,1.62-.72-.23-.43-.2-.84-2.15-.54-2.13-1,1.11-.34,1.14-.75-1.3-.49-1.27-.91,1.77-.3,1.79-.71-.13-.43-.11-.84-.18-.42-.15-.84,1-.35,1-.77-1.41-.5-1.39-.91.75-.27.74-.79c0-.22.63-.54.61-.85s-.71-.48-.73-.77.7-.61.66-.89-.87-.43-.91-.71-.44-.46-.49-.73.6-.67.54-.94-.27-.5-.34-.76.94-.85.87-1.11-.95-.31-1-.57-1.68,0-1.78-.22.66-.82.56-1.07-1.41.06-1.53-.19.78-.94.66-1.18.56-.93.43-1.16-.32-.47-.47-.7-2,.7-2.16.48,1.52-1.76,1.36-2-1.13.19-1.31,0,.57-1.24.38-1.44-.71-.11-.91-.3,0-.88-.18-1.06-1.78,1.26-2,1.09.69-1.8.47-2S47.32,5.25,47.1,5.1s.45-1.72.21-1.86-1.4,1.46-1.64,1.33.2-1.54,0-1.65-1,1-1.25.89.15-1.81-.11-1.9S43.27,3.2,43,3.12,43.09,1,42.82,1s-1.11,2.19-1.38,2.13-.41-.41-.68-.47S40.54.93,40.27.89s-.67.86-.94.82-.58.52-.85.49-.51.08-.79.06S37.29.31,37,.3s-.61,2.15-.89,2.14S35.63,2.21,35.35,2.21Zm-1,32.38c-.28,0-.64-.28-.91-.31s-.69.18-.95.13-.34-1.16-.6-1.23-1,.92-1.24.82,0-1.41-.25-1.53-.94.4-1.16.25-.34-.58-.55-.75,1.07-1.93.88-2.12-.5-.09-.67-.3-.07-.46-.22-.69-2.38.83-2.5.59,0-.69-.1-.94-.81-.39-.89-.65,0-.67-.09-.94,1-.75.95-1-.29-.55-.29-.82,1.83-.4,1.85-.66-2-.81-2-1.07,2.09,0,2.17-.26-2.53-1.48-2.43-1.73,1.2-.13,1.33-.37.43-.41.58-.63.14-.62.31-.83,1,.2,1.21,0-.52-1.43-.31-1.6,1.53,1.14,1.75,1-.63-2.13-.39-2.26,1.24,1.26,1.49,1.16.66.46.92.38.43-.06.69-.12.23-2.11.5-2.14.62.74.9.74.68-1.24.94-1.21.23,2.34.49,2.39.73-.84,1-.76.15,1.07.39,1.17,1.22-1.32,1.46-1.19.18.85.4,1-.52,1.5-.31,1.67a5.33,5.33,0,0,1,.49.46c.2.19,1.86-1,2-.79s.67.27.82.5-1.73,1.65-1.6,1.88.07.42.18.67,1.54-.06,1.62.2,1.44.27,1.49.53-1.29.8-1.26,1.07.75.53.75.8-.67.54-.7.81-1,.34-1.09.61-.17.41-.24.66.66.75.56,1,.75,1,.63,1.23,0,.78-.11,1-2.34-1.06-2.51-.85.66,1.26.47,1.45-.09.75-.3.92-.31.6-.54.75-.71,0-.94.13-.19,1.07-.44,1.17-1-.93-1.25-.85-.69-.65-1-.6-.32,1.62-.59,1.65S34.65,34.59,34.38,34.59Z" />
            <path class="e2520533-d9e3-4207-b189-a09ddff21e04"
                d="M42.13,33.23c-.06,0,.25.29.3.35C42.42,33.46,42.05,33.16,42.13,33.23Z" />
            <polygon class="e2520533-d9e3-4207-b189-a09ddff21e04"
                points="42.12 31.85 42.24 31.97 41.99 31.58 42.12 31.85" />
            <path class="e2520533-d9e3-4207-b189-a09ddff21e04"
                d="M42.67,31c-.28-.08-.33,0-.32.05s.12.34-.08.37l-.15-.06.43.39a3,3,0,0,0,0-.59C42.57,31,42.59,31,42.67,31Z" />
            <path class="e2520533-d9e3-4207-b189-a09ddff21e04"
                d="M44.29,31c-.27-.08-.19-.16-.11.06h.07S44.26,31.07,44.29,31Z" />
            <path class="e2520533-d9e3-4207-b189-a09ddff21e04" d="M44.25,31.11c0,.08.23,0,0,0Z" />
            <path class="e2520533-d9e3-4207-b189-a09ddff21e04"
                d="M44.27,30.61l.17.26c.16,0,.26-.13.35,0C44.73,30.61,44.56,30.6,44.27,30.61Z" />
            <path class="e2520533-d9e3-4207-b189-a09ddff21e04" d="M43.83,30.29l.07.12C44,30.42,44,30.4,43.83,30.29Z" />
            <path class="e2520533-d9e3-4207-b189-a09ddff21e04"
                d="M44,30.66l-.14-.25c-.12,0-.34-.09.05.1C43.75,30.43,43.93,30.53,44,30.66Z" />
            <path class="e2520533-d9e3-4207-b189-a09ddff21e04"
                d="M43.9,30.72a.49.49,0,0,1-.48-.15C43.44,30.79,43.92,31,43.9,30.72Z" />
            <path class="e2520533-d9e3-4207-b189-a09ddff21e04"
                d="M42,30.59h-.23l.19.18C41.89,30.68,42.22,30.68,42,30.59Z" />
            <path class="e2520533-d9e3-4207-b189-a09ddff21e04"
                d="M45,29.63c-.15,0-.4,0-.61,0l.13.16A.94.94,0,0,1,45,29.63Z" />
            <path class="e2520533-d9e3-4207-b189-a09ddff21e04"
                d="M44.41,29.59l-.25-.22C44.14,29.52,44.24,29.57,44.41,29.59Z" />
            <path class="e2520533-d9e3-4207-b189-a09ddff21e04"
                d="M43.08,30c.15.14.29.28.43.43-.14-.17-.27-.33-.41-.48Z" />
            <polygon class="e2520533-d9e3-4207-b189-a09ddff21e04"
                points="45.03 28.88 45.38 29.03 44.85 28.79 45.03 28.88" />
            <path class="e2520533-d9e3-4207-b189-a09ddff21e04"
                d="M45,28.39c.29.07.49-.1.67,0-.05-.08-.29-.14-.52-.2C45.24,28.24,45.2,28.28,45,28.39Z" />
            <path class="e2520533-d9e3-4207-b189-a09ddff21e04"
                d="M44.79,28.08a2.23,2.23,0,0,0,.32.09A1.3,1.3,0,0,0,44.79,28.08Z" />
            <path class="e2520533-d9e3-4207-b189-a09ddff21e04" d="M44.23,29.08a.76.76,0,0,0,.43-.09l-.43,0Z" />
            <path class="e2520533-d9e3-4207-b189-a09ddff21e04" d="M44.22,29h0l0-.15Z" />
            <path class="e2520533-d9e3-4207-b189-a09ddff21e04" d="M44.23,29.1v0S44.17,29.09,44.23,29.1Z" />
            <path class="e2520533-d9e3-4207-b189-a09ddff21e04"
                d="M43.61,29.73a.81.81,0,0,0-.81-.28C43.07,29.57,43.31,29.51,43.61,29.73Z" />
            <path class="e2520533-d9e3-4207-b189-a09ddff21e04" d="M43.69,29.12l-.09.16a.9.9,0,0,1,.39.07Z" />
            <polygon class="e2520533-d9e3-4207-b189-a09ddff21e04"
                points="43.56 29.02 43.69 29.12 43.73 29.06 43.56 29.02" />
            <path class="e2520533-d9e3-4207-b189-a09ddff21e04"
                d="M44.38,28.26c-.18-.05-.2-.1-.22-.16a.26.26,0,0,0-.14.19C44.15,28.3,44.39,28.33,44.38,28.26Z" />
            <path class="e2520533-d9e3-4207-b189-a09ddff21e04" d="M44.26,28.6l0,0S44.19,28.6,44.26,28.6Z" />
            <path class="e2520533-d9e3-4207-b189-a09ddff21e04" d="M43,29.65l0-.06,0,.06Z" />
            <path class="e2520533-d9e3-4207-b189-a09ddff21e04"
                d="M43.94,28.3c-.08,0,0,.1.15.14a.38.38,0,0,1-.07-.15C44,28.29,43.92,28.28,43.94,28.3Z" />
            <path class="e2520533-d9e3-4207-b189-a09ddff21e04"
                d="M44.59,27.91a1.23,1.23,0,0,0-.23.08C44.49,28,44.7,27.92,44.59,27.91Z" />
            <path class="e2520533-d9e3-4207-b189-a09ddff21e04"
                d="M44.36,28.56h0C44.47,28.55,44.42,28.55,44.36,28.56Z" />
            <path class="e2520533-d9e3-4207-b189-a09ddff21e04"
                d="M44.36,28.56a1.36,1.36,0,0,0-.27-.12.67.67,0,0,0,.15.14Z" />
            <path class="e2520533-d9e3-4207-b189-a09ddff21e04"
                d="M42,27.1c.17.36.2.75-.09.42A8.83,8.83,0,0,0,43,29.59a1.22,1.22,0,0,1-.14-.57c-.13-.17-.46-.33-.53-.7s.18.07.34.22c-.27-.41-.13-.73-.48-1.37v.29C42.07,27.36,42,27.18,42,27.1Z" />
            <path class="e2520533-d9e3-4207-b189-a09ddff21e04"
                d="M44.05,27.72l.05.05a.78.78,0,0,1,.32-.1L43,30l.14.16a1.51,1.51,0,0,0-.12-.47l-.15,0,1.3-2,0,.08Z" />
            <path class="e2520533-d9e3-4207-b189-a09ddff21e04"
                d="M44.09,28A3.78,3.78,0,0,0,43,27.87c0,.14.35.11.54.19-.1-.22.24.07.48-.08a.23.23,0,0,1,.12.12.62.62,0,0,1,.2-.11h0s-.08,0,0,0H44.1c.09-.06.11,0,.16,0h.07l-.23-.22C44,27.81,44.05,27.87,44.09,28Z" />
            <path class="e2520533-d9e3-4207-b189-a09ddff21e04" d="M41.93,29.13H42C42,29.12,42,29.1,41.93,29.13Z" />
            <path class="e2520533-d9e3-4207-b189-a09ddff21e04"
                d="M42.19,29.07c.06,0,.23.08.19.13s-.2,0-.35-.06a.65.65,0,0,0,.52.11l-.06,0a2.07,2.07,0,0,1,.75-.13C42.85,29.07,42.57,29.06,42.19,29.07Z" />
            <path class="e2520533-d9e3-4207-b189-a09ddff21e04"
                d="M43,28.51a1.6,1.6,0,0,0-.21-.23l-.37.1h.22C42.58,28.51,42.85,28.49,43,28.51Z" />
            <polygon class="e2520533-d9e3-4207-b189-a09ddff21e04"
                points="43.11 29.83 43.29 30.25 43.1 29.63 43.11 29.83" />
            <polygon class="e2520533-d9e3-4207-b189-a09ddff21e04"
                points="43.31 29.67 43.48 30.03 43.43 29.79 43.31 29.67" />
            <path class="e2520533-d9e3-4207-b189-a09ddff21e04" d="M37.09,17.72l-.12,0Z" />
            <path class="e2520533-d9e3-4207-b189-a09ddff21e04" d="M37.34,18.06l.15-.12C37.4,18,37.33,18,37.34,18.06Z" />
            <path class="e2520533-d9e3-4207-b189-a09ddff21e04"
                d="M45.71,21.31c.16-.12.35-.27.46-.37s.14-.11-.07,0l-.4.17C45.8,21.13,45.78,21.23,45.71,21.31Z" />
            <path class="e2520533-d9e3-4207-b189-a09ddff21e04" d="M41.75,18.29l-.11.09.4-.15Z" />
            <path class="e2520533-d9e3-4207-b189-a09ddff21e04"
                d="M40.16,19.14l.09-.08,1,.79v-.18a.67.67,0,0,0,0,.2l-1-.8Z" />
            <path class="e2520533-d9e3-4207-b189-a09ddff21e04"
                d="M36.21,18l-.24.38C36.15,18.45,36.13,18.21,36.21,18Z" />
            <path class="e2520533-d9e3-4207-b189-a09ddff21e04"
                d="M45,24.73c.15-.11.2-.18.21-.23C45,24.64,44.6,24.79,45,24.73Z" />
            <path class="e2520533-d9e3-4207-b189-a09ddff21e04"
                d="M40.74,14.9a.63.63,0,0,0-.24.13A.57.57,0,0,0,40.74,14.9Z" />
            <path class="e2520533-d9e3-4207-b189-a09ddff21e04"
                d="M44.18,27l0,0h0l.95-2.6h0c.09,0,.15.08.14.15.14-.09.23-.17.08-.2l-1,2.82S44.2,27.05,44.18,27Z" />
            <path class="e2520533-d9e3-4207-b189-a09ddff21e04" d="M31.42,18.29l0,0S31.42,18.29,31.42,18.29Z" />
            <path class="e2520533-d9e3-4207-b189-a09ddff21e04" d="M27,17a.33.33,0,0,1,0-.1S27,17,27,17Z" />
            <path class="e2520533-d9e3-4207-b189-a09ddff21e04" d="M45.37,27.9c0,.06,0,0,0,0Z" />
            <path class="e2520533-d9e3-4207-b189-a09ddff21e04"
                d="M43.7,27.41a.82.82,0,0,0-.18-.11A1,1,0,0,1,43.7,27.41Z" />
            <path class="e2520533-d9e3-4207-b189-a09ddff21e04" d="M43,24.53h0C42.92,24.47,42.93,24.48,43,24.53Z" />
            <path class="e2520533-d9e3-4207-b189-a09ddff21e04" d="M45.15,27.89a.35.35,0,0,0,.15,0Z" />
            <path class="e2520533-d9e3-4207-b189-a09ddff21e04" d="M45.34,28l-.05,0C45.35,28,45.39,28,45.34,28Z" />
            <path class="e2520533-d9e3-4207-b189-a09ddff21e04"
                d="M45.38,27.83s0,0-.08.05l.07,0A.23.23,0,0,1,45.38,27.83Z" />
            <path class="e2520533-d9e3-4207-b189-a09ddff21e04"
                d="M34.47,16.42l0,0C34.45,16.59,34.46,16.55,34.47,16.42Z" />
            <path class="e2520533-d9e3-4207-b189-a09ddff21e04" d="M41.19,22.38l0,0h0Z" />
            <path class="e2520533-d9e3-4207-b189-a09ddff21e04"
                d="M40.21,21.21a1.74,1.74,0,0,1,.36,0l.56,1c.12-.06.11,0,.08.09l.84-.93-.53.45-.4-.75Z" />
            <path class="e2520533-d9e3-4207-b189-a09ddff21e04"
                d="M38.27,18l0,.1-2-.94-.16.26a1.64,1.64,0,0,1-.32.13l2.49,1.17c-.17.25-.27.22-.09.64a1.19,1.19,0,0,1,.09-.51l-2.59-1.22c.46-.2.21.46,1.07-.24l-.16.25s-.07,0-.08,0c-.38.55.84-.52.84-.23a.55.55,0,0,1-.31.36l.37-.08c0,.05-.17.19-.19.14l.26.13,0,0c.19-.11.5-.25.63-.31-.1.17-.13.06-.25.19l.2-.06,1.14.59.08-.14a1,1,0,0,1-.11.57L37.73,18c-.06,0-.1,0-.11,0-.3.31-.38.41-.35.43l1.47,1,.39-.08c.06,0,.17-.62.33-.07l-.15.16c0,.78.15.51.27,1,0-.25-.22-1.23,0-1.56,0,.11.09.16.2-.1,0,.48,0,.36.16.35l-.06.63a.41.41,0,0,0,0-.09l-2-1c.19-.07.39-.25.61-.36,0,.13-.32.48-.62.78.06.21.51-.63.76-.53,0,.22,0,.17.21.09l.28-.12c-.15.18-.32.22-.46.34a5.12,5.12,0,0,1,.47-.22s-.13.11-.2.16c.22,0,.53-.36.75-.35.4-.25,0,.2-.15.43l.91.68c0,.13.09.16.22-.07a4.66,4.66,0,0,1-.2.6,4.36,4.36,0,0,0,.71-.91l0,.45a2.32,2.32,0,0,1,.41-1.06l-.26-.21.38-.11.24-.2.09-.09,0,0,0,0h0l-.24-.19h0l.24.19h.21l.22,0a2.13,2.13,0,0,1-.54.25l.15,0a2.55,2.55,0,0,1-.86.44l.31-.25a7.07,7.07,0,0,0-1.07.52.41.41,0,0,1,.17,0,1.33,1.33,0,0,0-.24.12s.08,0,.23-.08l-.61.36.25-.12c-.1.11-.21.22-.32.32a9.28,9.28,0,0,1,.91-.23,1.83,1.83,0,0,1,1.19,0,10.55,10.55,0,0,0-1.43.35c.62-.23-.3-.08-.19-.2a1.17,1.17,0,0,1-.44.18,4,4,0,0,1,.6,0,1.38,1.38,0,0,0-.55.22c1-.26.67-.06,1,0-.33.08-.67.07-.61,0-.72.25,1.19,0,.58.25,0,0,0-.06-.13-.05.3,0,.1.27-.19.28v0c-.09.25.12.73,1,.61L40.54,21,42,21l.16.3,1.19-.89a15.41,15.41,0,0,1-2.09,2c0,.12-.07.25.19.16a4.72,4.72,0,0,1,.76-.83,7,7,0,0,0-.59,1c.07-.16.92-.92,1-.83-.13.11-.79.8-.9.86l.65-.43L42,21.85l.36-.05a5.66,5.66,0,0,0-1.18.47c.2-.09,0,.19.18.21l.21-.18c-.07.29,1.38-.24,1.58-.08a0,0,0,0,1,0,0,7.55,7.55,0,0,0-1.5.48,14.18,14.18,0,0,1,3.23-.37l-.31.12.29.06,0,.53.1.07-.26-.09,0-.47c-.93.12-2.5.25-3.16.27-.23.16-.37.12-.3.25-.29.13-.48,0-.5,0l-.11.37a1.5,1.5,0,0,1,.71,0l0-.89a1.14,1.14,0,0,0,.5.18l-.18-.14,0,.77-.54-.13a4.94,4.94,0,0,1,1.63-.15l0-.32c.13.07.19.15.14.21a12,12,0,0,1-1.4-.25c.23.07.41.29.24.29l-.34-.15c-.27.1.85.34.19.41,0,.05-.88.05-.49.11a31.39,31.39,0,0,1,3.69.47,7.8,7.8,0,0,1-1.15.19c-.6,0-1.4-.33-1.92-.32a2.49,2.49,0,0,1,.47.14c-.16,0-.56-.1-.5,0,.68.11-.09.25.57.13.09.09,0,.11,0,.14l.45-.77c-.06,0-.13,0-.17,0a5,5,0,0,1,.82,1.51,2.8,2.8,0,0,0-.33-.38c-.22.09-.49,0-.68,0l-.14.07,0,.38v.05a1.61,1.61,0,0,1-.62.23c.13,0,.36,0,.39.05-.54.27-.12-.13-.79.13a1.8,1.8,0,0,1,.84.1c.59-.17.06-.26-.2-.3a5,5,0,0,1,2.15-.08c.23.08-.51.2-.39.19a0,0,0,0,0,0,.05c.12.21,1.44-.27,1,.19a8.22,8.22,0,0,1-1.36.52c-.24-.08.24-.35.19-.44l-.2.21c-.19,0-.35,0-.22-.15-.34.2-.06.47-.1.78v-.16a.47.47,0,0,1-.25.1,1.15,1.15,0,0,0,.49.33l0-.11c.42.11.47.41.7.39.22.24.6.56.31.61l-.57-.23c.16.07.38.06.23-.07.11.1-.14.06-.3.06l-.36.37c-.11-.08-.18-.09,0,.26l.29.33c0,.33.18,1,0,.87.33.51,0-.08.41.51-.47-.75.36-.13-.18-.9a2.57,2.57,0,0,0,.26.35l1.09-1.12c.24,0,.16-.08.67,0-.18-.08-.37-.11-.22-.19l-.15-.1h0s0,0,0,0a1.42,1.42,0,0,1-.31-.08c-.39-.25-.29-.42-.48-.59.12,0,.2.13.41.18l-.28-.24.1,0,.06-1.29c.36-.16.56-.38.84-.31l0-.16c.21-.17.26-.33,0-.34.07-.1-.53,0-.18-.06-.11-.05-.19,0-.3,0l.11,0h0s-.8-.21-.08-.63h0l-.94,2.59h0v-.08a.31.31,0,0,1,0-.1s.06-.09.16-.08l.25.3c0-.18.49.12.28-.23.34.35.48.35.56.25l1.36-1.73-.07-.49c0-.14-.18-.32-.07-.4l-.5-.08c0-.11-.08-.25-.26-.43l-.45-.06c-.34-.18.37-.29.35-.51.17,0,.12.09,0,.11.26,0,.35-.08.35-.15v-.89l0-.11c-.09-.19-1-.17-.46-.49-.18-.05-.15-.12-.05-.22l0,0s0,0,0,0l0-.05a1,1,0,0,0,.14-.15,1.59,1.59,0,0,0-.18.17h0a.58.58,0,0,0-.26-.2l.44-.2h0c.15-.12-.23,0-.56.19a1.1,1.1,0,0,0-.3,0c.71-.32-.31-.08.45-.43a.82.82,0,0,1-.42,0l-.43-.68a1.32,1.32,0,0,0-.69.4c.07-.08.1-.13.13-.11s0-.24-.19-.12l.41-.45-.7.47a2,2,0,0,1,.72-.79,2.21,2.21,0,0,1-.47.21l.44.83a1.25,1.25,0,0,0-.55-.1l.4-.07c0-.06-.57-.08-.26-.18a.45.45,0,0,0,.33-.57,1.22,1.22,0,0,1,.23-.9c-1.11.41.45-.42-.43-.2.26-.11.39-.25.64-.22-.16-.12-.08-.27,0-.4s-.08-.2-.49-.15c.24-.14.41-.1.55-.19-.07,0-.28,0-.15-.09s.24-.06.38-.06c-.23-.3-1,.06-1.73.41.27-.3.17-.35-.33-.17l.09-.08-.59-.47a.87.87,0,0,1,.14-.43l.84.67.09,0v-.08l-.89-.71c-.09-.12-.31-.37-.49.15,0-.16-.08-.08-.12,0a1.58,1.58,0,0,0-.23-.14l.7.52-.08-.06-.06.1c-.67.38-.22,0-.37-.08l.07,0c.26-.54-.24,0,0-.55a.46.46,0,0,0,0-.09l-.36.32c-.83.62.25-.64-.16-.51l-.16.22c-.3.15.65-.87.87-1.2l-1.58-.79a.2.2,0,0,0,0-.09.2.2,0,0,1,0-.15l1.74.88.06,0,0-.07-1.83-.92c-.17-.44-.06.71-.25.83,0-.34.11-.85,0-.92,0-.27-.42,1-.56.47l1.55.8,0-.06-.1.12-1.5-.77a1.26,1.26,0,0,1,0,.44l1.18.62-.11,0c-.15,0,.53-.9-.18-.47A.67.67,0,0,1,40.5,15a1.86,1.86,0,0,0-.86.21c1.21-1.13-1,0,.15-1l0,0-1.13-.83-.32.15-.16.07V13.5c-.1-.1-.17.27-.27.63a1.09,1.09,0,0,1,0-.32,1.13,1.13,0,0,0-.07-.15c-.07-.13-.11,0-.4.57l.12-.49c-.06.14-.07-.11-.09-.29l-1.71.22c-.18,0-.35,0-.31.27a.93.93,0,0,1-.1-.2c0,.4-.48.07-.7.08l3.29.57c0-.15-.16-.17-.78.22l-.48.09c0,.3-.66.42-.84.69-.15,0,.28-.55.43-.5l-.06.07c.79-.51.07-.47.59-.84a.86.86,0,0,1-.1-.16l-.23-.43-.89-.23a2.77,2.77,0,0,1-.72-.38l-1.17.23c-.11,0-.26,0-.32,0H33.2l.33.66h-.11c-.09-.14-.24-.52-.18-.52-.09-.17-.08-.1-.05,0l.16.47c-.14-.27-.26-.81-.29-.82l0,.05,0,.08c.08.29.19.59.09.57a2,2,0,0,1-.14-.46c0-.05,0-.07,0,0l-.08,0,0,0,.06.3.06.28s0,.07,0,.09-.11,0,0,.53c-.12-.5-.19-.59-.44-.59s-.41.1-.47-.05c-.13.43-.27.43-.45.39.05.12.13.76-.05.7-.05-1.35-.38-.49-.72-1.39.27.59-.57.31-.11,1.13-.09,0-.13-.15-.17-.3a1.12,1.12,0,0,0-.06-.23l0-.06,0,0h0l.07.24h0a.19.19,0,0,0-.05-.09.31.31,0,0,1-.43.26c-.2,0-.46-.16-.61,0h0a4.14,4.14,0,0,1,.37.76c-.23-.31-.46-.61-.7-.89,0,.11.51,1,0,.45.1.14.26.35.24.41a1,1,0,0,0-.83-.18h0a3.57,3.57,0,0,0-.34.43,1.21,1.21,0,0,1-.26.31l-.16.13-.23.52c-.11.23-.35.41-1,.48.36,0,.37.09.36.16a4,4,0,0,1,.65.19l-.27,0,.33-.58-.43-.14c.45.49-.19.26.25.72l0-.15a24.62,24.62,0,0,0,2,1.66c-.28-.36.07-.17.35-.07l.33-.56c.26,0,.44-.08-.07-.35.2,0,.28.14.5.18-.37-.18-.43-.28-.22-.35l.1,0a.35.35,0,0,1,.16-.31l-.42.69a1.89,1.89,0,0,1,.35,0,1.27,1.27,0,0,1,.31.08l-.32-.35c.08,0,.18.12.27.2-.41-.6-.12.06-.6-.58.21.2.32.26.38.27h0c.17.13.2,0,.6.59.06,0-.29-.42-.22-.39l.15.23-.15-.28a3.46,3.46,0,0,1,.36.52s0,0,0,.06c.16.23.08,0,.11,0h0l-.1-.13,0,0h0a2.2,2.2,0,0,0,.08-.82l-.07-.21c.07-.44.17.2.3,0v0c0-.23.05-.36.11-.34-.05.27.16.5.09.79.25-.46.11-.35.25-1.2l.07.37c0-.34,0-.51.18-.62-.1.33.12.56,0,1,.32.79.4-.83.68.35.12-1-.39-.56-.29-.78-.09-.34.11-.77.23-.67a5,5,0,0,1,.3.78c.11.26.26.47.43.42,0,0,0,.08-.07.09.22.22.17-.4.51,0,0-.62.3,0,.07-.79l-.33.27c.12-.17.12-.64.2-.82s.09-.15.23,0a1.62,1.62,0,0,1,0,.53c.17.17.08-.23.26-.05.21.48,0,.49-.13.62a.44.44,0,0,0-.23.36c.14.17.24-.08.31-.16s.08,0,.17.33c-.28-1.09.42-.08.28-1l.21.43c0-.09,0-.33,0-.35a6,6,0,0,1,.19.6c0-.47.3,0,.44,0l-1.71.34s0,0,.07,0a.08.08,0,0,1-.06,0L36,17.2c-.2,0-.3-.52-.55-.74a.3.3,0,0,1,0-.17l-1,.21c.21,0,0,1.35.34,1.19-.06.06-.17-.3-.06-.51a1.1,1.1,0,0,1,.15.55c.27-.07,0-.49.17-.77,0,.28,0,.25.09.12l-1.51-.89a3.12,3.12,0,0,1,.51-.2l-.39.29c-.08.42.86-.53.71-.09l-.6.3h.22l-.47.3c.42-.12.36,0,.33.19.25-.23.72-.5.81-.4-.17.22-.37.23-.27.32l1.83,1.58.82-1.13,0,0,.1.2L34.28,17c-.2.1-.33.14-.09-.1l-.4.23c-.12.15-.08.2,0,.23l3.38,1.54.42-.88c0-.05,0-.12.06-.14a.16.16,0,0,1-.13-.05l-.16-.7a.87.87,0,0,1,.25.4c0-.07-.08-.28,0-.36a2.7,2.7,0,0,1,.45.88l0-.5c.11.13.37.31.43.45s.06-.25,0-.48l-2.58.33c.16-.08.3-.11.38.05a.33.33,0,0,1,.17-.16c.2.15.34.57.63.46a.68.68,0,0,0,.19-.19c0,.24.06.47.1.71.29-.16-.14-.89.31-1.16s.06.6.16.8c.14-.27.33-.75.52-.72l-1.71-.8s0,.11-.09.23-.1,0-.13-.05l1.93.9Zm1.27.95c0,.1-.14.41-.15.12C39.48,18.48,39.49,18.75,39.54,18.91Zm1.51,0c-.16,0-.1,0,0-.13S41.14,18.86,41.05,18.94Zm4.07,6.48h0C45.25,25.28,45.19,25.33,45.12,25.42Zm-.13.24a.47.47,0,0,0,.19-.06c-.12,0-.14,0-.13-.06S44.87,25.65,45,25.66ZM33.08,13.43l0,.12C33.1,13.7,33.1,13.57,33.08,13.43Z" />
            <path class="e2520533-d9e3-4207-b189-a09ddff21e04" d="M40.34,19l.23-.14A.79.79,0,0,0,40.34,19Z" />
            <path class="e2520533-d9e3-4207-b189-a09ddff21e04" d="M36.25,17.93h0l0,.08Z" />
            <path class="e2520533-d9e3-4207-b189-a09ddff21e04"
                d="M41.44,23.76a.75.75,0,0,1,.26,0C41.58,23.7,41.48,23.71,41.44,23.76Z" />
            <path class="e2520533-d9e3-4207-b189-a09ddff21e04"
                d="M43.91,29.84l0-.09v-.06h0l1.31-1.34h0L44,29.68h0l0,0-.09-.08C43.84,29.68,43.94,29.81,43.91,29.84Z" />
            <path class="e2520533-d9e3-4207-b189-a09ddff21e04"
                d="M41.75,27.69c.06,0,0,0,.07.06H42C42,27.68,41.85,27.62,41.75,27.69Z" />
            <path class="e2520533-d9e3-4207-b189-a09ddff21e04"
                d="M43.1,28.44c-.18-.36-.19-.2-.23-.1s0,0,0,0C43.11,28.86,43.11,28.65,43.1,28.44Z" />
            <path class="e2520533-d9e3-4207-b189-a09ddff21e04"
                d="M42.86,28.36a.06.06,0,0,1-.06.05C42.89,28.61,42.85,28.44,42.86,28.36Z" />
            <path class="e2520533-d9e3-4207-b189-a09ddff21e04"
                d="M45.14,27.6c-.11,0,.46.24.3.19C45.89,28.05,45,27.3,45.14,27.6Z" />
            <polygon class="e2520533-d9e3-4207-b189-a09ddff21e04"
                points="42.45 27.27 42.7 27.71 42.56 27.33 42.45 27.27" />
            <path class="e2520533-d9e3-4207-b189-a09ddff21e04"
                d="M43.2,27,43,27a.42.42,0,0,1,.14.1C43.21,27.08,43.33,27,43.2,27Z" />
            <path class="e2520533-d9e3-4207-b189-a09ddff21e04" d="M43.16,27.14s0,.08,0,.13A.19.19,0,0,0,43.16,27.14Z" />
            <polygon class="e2520533-d9e3-4207-b189-a09ddff21e04"
                points="42.55 27.06 42.63 27.14 42.7 27.13 42.7 27.14 42.71 27.12 42.69 27.13 42.7 27.12 42.55 27.06" />
            <path class="e2520533-d9e3-4207-b189-a09ddff21e04"
                d="M43.15,25.4,43,25.3c-.17,0-.26.09-.18.13A.73.73,0,0,0,43.15,25.4Z" />
            <path class="e2520533-d9e3-4207-b189-a09ddff21e04" d="M42,26.23a2.44,2.44,0,0,1,.34-.19l-.59.2Z" />
            <path class="e2520533-d9e3-4207-b189-a09ddff21e04"
                d="M41.68,25.79c-.17,0-.54-.14-.45.07C41.41,25.85,41.58,26,41.68,25.79Z" />
            <polygon class="e2520533-d9e3-4207-b189-a09ddff21e04"
                points="43.16 23.77 43.16 23.81 44.17 23.94 43.16 23.77" />
            <path class="e2520533-d9e3-4207-b189-a09ddff21e04"
                d="M40.76,22.89c-.21.13.6-.19.33,0h0l.12,0c.11,0,.14-.1.3-.13A1.43,1.43,0,0,0,40.76,22.89Z" />
            <path class="e2520533-d9e3-4207-b189-a09ddff21e04" d="M41.52,22.68l.15,0Z" />
            <polygon class="e2520533-d9e3-4207-b189-a09ddff21e04"
                points="26.77 16.24 26.54 16.17 26.84 16.35 26.77 16.24" />
            <path class="e2520533-d9e3-4207-b189-a09ddff21e04" d="M27.18,16.9l-.49-.42.38.45S27.06,16.82,27.18,16.9Z" />
            <path class="e2520533-d9e3-4207-b189-a09ddff21e04" d="M39.74,20.24l0-.16c0-.16,0-.18-.07-.21Z" />
            <polygon class="e2520533-d9e3-4207-b189-a09ddff21e04"
                points="36.52 18.02 36.52 18.05 36.94 17.64 36.52 18.02" />
            <path class="e2520533-d9e3-4207-b189-a09ddff21e04"
                d="M37.56,19.23c.1,0,.21-.11.3-.09C37.65,19.25,37.6,18.49,37.56,19.23Z" />
            <path class="e2520533-d9e3-4207-b189-a09ddff21e04"
                d="M23.93,160.42c.11.23.4-.09.48-.1C24.09,160,23.84,160.49,23.93,160.42Z" />
            <path class="e2520533-d9e3-4207-b189-a09ddff21e04" d="M23.3,157.88l.2.07c-.22-.26-.43-.49-.63-.71Z" />
            <path class="e2520533-d9e3-4207-b189-a09ddff21e04"
                d="M22.66,154.84a.67.67,0,0,0-.32.16,1,1,0,0,0-.06.61,2.06,2.06,0,0,1,.09.66l-.25-.89a1.44,1.44,0,0,1,.17.33l-.05.22L23,156a8.82,8.82,0,0,0-.69-.74l.3,1a6.05,6.05,0,0,0-.11-.65,2.24,2.24,0,0,1,.05-.59A.86.86,0,0,1,22.66,154.84Z" />
            <path class="e2520533-d9e3-4207-b189-a09ddff21e04"
                d="M23.9,151.53a.39.39,0,0,1-.19.05s0,0,.16.09l.05,0A.08.08,0,0,1,23.9,151.53Z" />
            <path class="e2520533-d9e3-4207-b189-a09ddff21e04" d="M23.92,151.62c.07.08.19-.14,0,0Z" />
            <path class="e2520533-d9e3-4207-b189-a09ddff21e04"
                d="M23.8,151.21a1.57,1.57,0,0,0,.21.12c.15,0,.2-.1.3-.07A.78.78,0,0,0,23.8,151.21Z" />
            <path class="e2520533-d9e3-4207-b189-a09ddff21e04"
                d="M23.24,151l.15.11C23.44,151.1,23.46,151.09,23.24,151Z" />
            <path class="e2520533-d9e3-4207-b189-a09ddff21e04"
                d="M23.62,151.31l-.08-.1-.15-.1c-.1,0-.3,0,.12.09C23.32,151.17,23.51,151.23,23.62,151.31Z" />
            <path class="e2520533-d9e3-4207-b189-a09ddff21e04"
                d="M23.5,151.42c-.17.11-.3.32-.48.13C23,152,23.53,151.7,23.5,151.42Z" />
            <path class="e2520533-d9e3-4207-b189-a09ddff21e04"
                d="M22,154.42a4,4,0,0,1-.31.35l0,.1c0,.08.09.15.13.25a.29.29,0,0,1,0-.22C22,154.77,22.17,154.43,22,154.42Z" />
            <path class="e2520533-d9e3-4207-b189-a09ddff21e04"
                d="M24.49,148.08c-.15,0-.41.16-.61.19l0,.06-.19-1.13.27.26v-.38l.21,1.26C24.28,148.2,24.37,148.09,24.49,148.08Z" />
            <path class="e2520533-d9e3-4207-b189-a09ddff21e04"
                d="M23.88,148.27l-.23-.61C23.59,148.19,23.71,148.3,23.88,148.27Z" />
            <path class="e2520533-d9e3-4207-b189-a09ddff21e04"
                d="M22.45,150.8a4.5,4.5,0,0,1,.65.52c0-.18-.49-.36-.67-.62C22.4,150.73,22.43,150.77,22.45,150.8Z" />
            <polygon class="e2520533-d9e3-4207-b189-a09ddff21e04"
                points="23.42 148.51 23.42 149 23.45 148.59 23.46 148.39 23.47 148.29 23.48 148.24 23.48 148.22 23.48 148.21 23.48 148.2 23.48 148.2 24.38 146.19 24.38 146.19 24.38 146.19 24.38 146.19 24.38 146.19 24.38 146.19 24.38 146.19 24.38 146.19 23.48 148.2 23.48 148.2 23.47 148.21 23.47 148.23 23.46 148.27 23.45 148.35 23.42 148.51" />
            <path class="e2520533-d9e3-4207-b189-a09ddff21e04"
                d="M24.08,143.62c.29-.07.43-.24.62-.26h-.05a1,1,0,0,1-.31.54l-.1,0,0,0a.37.37,0,0,0-.12-.38Z" />
            <path class="e2520533-d9e3-4207-b189-a09ddff21e04"
                d="M23.94,143.65a1,1,0,0,0,.3.2A1.27,1.27,0,0,0,23.94,143.65Z" />
            <path class="e2520533-d9e3-4207-b189-a09ddff21e04"
                d="M22.27,145a1.06,1.06,0,0,0,0-.14l.05,3.7a.65.65,0,0,0,.51-.06l-.47-.14-.12.12L22.22,145Z" />
            <path class="e2520533-d9e3-4207-b189-a09ddff21e04" d="M22.37,148.4h0l.38-.34Z" />
            <path class="e2520533-d9e3-4207-b189-a09ddff21e04"
                d="M22.31,145.08l0,0C22.25,145.09,22.25,145.1,22.31,145.08Z" />
            <path class="e2520533-d9e3-4207-b189-a09ddff21e04"
                d="M23.21,149.88v-.18l0-1.49c-.34-.26-.73-.6-.79.09.31.1.38-.21.73-.06l0,1.43A.32.32,0,0,1,23.21,149.88Z" />
            <path class="e2520533-d9e3-4207-b189-a09ddff21e04"
                d="M22.16,145.67l.37.47.68.87-.11.55v0c.06,0,.12,0,.19,0L22.65,146l0,0v0h0l.66,1.61a.19.19,0,0,1,.12.1l0-.1-.63-1.67h-.05Z" />
            <polygon class="e2520533-d9e3-4207-b189-a09ddff21e04"
                points="21.84 145.56 22.16 145.67 22.01 145.48 21.84 145.56" />
            <path class="e2520533-d9e3-4207-b189-a09ddff21e04"
                d="M23.49,143.8l-.16.08a1,1,0,0,1,0-.25.85.85,0,0,0-.13.25l-.05,0C23.27,143.83,23.49,143.72,23.49,143.8Z" />
            <path class="e2520533-d9e3-4207-b189-a09ddff21e04" d="M23.83,145.66l0-.07S23.76,145.66,23.83,145.66Z" />
            <polygon class="e2520533-d9e3-4207-b189-a09ddff21e04"
                points="22.48 142.25 22.39 142.23 22.43 142.29 22.48 142.25" />
            <path class="e2520533-d9e3-4207-b189-a09ddff21e04"
                d="M23.06,143.88h0c0,.11.14.15.28.15a.66.66,0,0,1-.18-.19h0Z" />
            <path class="e2520533-d9e3-4207-b189-a09ddff21e04"
                d="M23.92,142.46c0,.07-.05.14-.08.22s-.18.4-.26.5a1.28,1.28,0,0,0,.34-.49C24,142.58,24,142.5,23.92,142.46Z" />
            <path class="e2520533-d9e3-4207-b189-a09ddff21e04"
                d="M23.93,145.51l0,0C24,145.47,24,145.47,23.93,145.51Z" />
            <path class="e2520533-d9e3-4207-b189-a09ddff21e04"
                d="M23.93,145.51a.2.2,0,0,0,0-.08l-.31-1.38h-.26a.34.34,0,0,0,.14.08h0l.29,1.31a.75.75,0,0,0,0,.16Z" />
            <path class="e2520533-d9e3-4207-b189-a09ddff21e04"
                d="M20.68,139.79a.68.68,0,0,1,.61.39l0,0,0,.09a1,1,0,0,1-.72.49.44.44,0,0,0,0,.37v-.37a1.35,1.35,0,0,0,.55-.6l0,1.55a3.55,3.55,0,0,0,1.26.49c-.1-.13-.2-.23,0-.74l.71-1.6-.24-.15a.31.31,0,0,1-.08-.1,1.09,1.09,0,0,0,0,.14l-.38,1.6-.06,0c-.4.1-1.2.51-1.08,0s.41-.48.58-.48l.24-.91a1.48,1.48,0,0,0,.2-.4c-.2.23-.46,0-.74-.22l-.11-.21c-.33-.09-.69-.16-.91.13l.43.26,0,0,.16.23C21,139.78,20.72,139.57,20.68,139.79Z" />
            <path class="e2520533-d9e3-4207-b189-a09ddff21e04"
                d="M22.38,139.74l.22.14a1.38,1.38,0,0,1-.18-.41l-.06-.26,0-.16v-.15h0l.06,4.13h0c.17-.43.13-.6.06-.72l-.41.37L22,139.25l.51.51Z" />
            <path class="e2520533-d9e3-4207-b189-a09ddff21e04"
                d="M23.33,143.1a1.68,1.68,0,0,1-.3-.51c-.2-.34-.37-.56-.68-.25v.18c0,.41,0,.51.12.61a1,1,0,0,1,.25.36c.09-1.11.18.39.56-.39,0,.24,0,.47,0,.53s.16-.28.27-.45l0,0h0c-.06,0-.1,0-.06,0v0a.53.53,0,0,1-.15-.08c.09-.24.12-.28.13-.2a1.91,1.91,0,0,0,0,.28l.06,0h0s0-.13,0-.24l0-.31c0-.18,0-.45,0-.54l-.06-.37-.24-1.47-.52-.32-.11-.07.08.1.87,1-.13.78a5.33,5.33,0,0,0,0,.89Z" />
            <path class="e2520533-d9e3-4207-b189-a09ddff21e04"
                d="M21.4,148.09a.14.14,0,0,1,.1,0C21.45,148,21.42,148,21.4,148.09Z" />
            <path class="e2520533-d9e3-4207-b189-a09ddff21e04"
                d="M21.69,147.6c0,.09.22.18.16.46s-.2,0-.35,0l.09.15,0-.14c.16.11.34.19.36-.15l0,.31s0,0,.05-.08l-.06-.09a2.28,2.28,0,0,1,.31-.54l-.31-.77c-.09-.35-.1-.68,0-.67a2.71,2.71,0,0,0-.24,1l.18.45A.38.38,0,0,0,21.69,147.6Z" />
            <path class="e2520533-d9e3-4207-b189-a09ddff21e04"
                d="M22.6,145.44v-.08l-.09-.61-.06-.06-.45-.46,0-.06-.09.1c0,.12-.07.25-.1.38l.19-.11c.07.22.16.28.24.28l.12.52C22.4,145.4,22.52,145.39,22.6,145.44Z" />
            <polygon class="e2520533-d9e3-4207-b189-a09ddff21e04"
                points="22.72 142.32 22.94 142.74 22.91 142.01 23.59 139.55 23.46 139.49 23.52 139.57 23.77 139.89 22.87 141.96 22.72 142.32" />
            <polygon class="e2520533-d9e3-4207-b189-a09ddff21e04"
                points="22.8 137.73 23.14 137.51 22.74 137.39 22.8 137.73" />
            <path class="e2520533-d9e3-4207-b189-a09ddff21e04"
                d="M15,72.73l0-.23.52-1,0-.09a.23.23,0,0,0,0,.09l-.52,1A1.21,1.21,0,0,0,15,72.73Z" />
            <path class="e2520533-d9e3-4207-b189-a09ddff21e04"
                d="M15.59,75.72h.2C15.67,75.65,15.58,75.63,15.59,75.72Z" />
            <path class="e2520533-d9e3-4207-b189-a09ddff21e04"
                d="M21.79,111.17a4.19,4.19,0,0,1,.29-.47c.28-.58.52-1.19.18-1.06l-.41.28a3.89,3.89,0,0,1,.08.78C21.89,110.86,21.85,111,21.79,111.17Z" />
            <path class="e2520533-d9e3-4207-b189-a09ddff21e04" d="M18.3,90.87v.18l.5-.11Z" />
            <path class="e2520533-d9e3-4207-b189-a09ddff21e04"
                d="M16.87,92l-.07-.18L16,89.73l.59-.31.39-.22a1.41,1.41,0,0,0-.4.21l-.51.33.77,2.09Z" />
            <path class="e2520533-d9e3-4207-b189-a09ddff21e04"
                d="M14.5,61.94l-.14-.54C14,61.83,14.35,61.78,14.5,61.94Z" />
            <path class="e2520533-d9e3-4207-b189-a09ddff21e04"
                d="M22.49,127.68a3.88,3.88,0,0,0,.17-.52l-.25-1a3.63,3.63,0,0,0-.11-.42c0,.18,0,.35-.06.5l.23,1C22.33,127.42,22.25,127.61,22.49,127.68Z" />
            <path class="e2520533-d9e3-4207-b189-a09ddff21e04"
                d="M18.91,72.54c-.18-.07-.3-.07-.36,0C18.73,72.63,18.87,72.64,18.91,72.54Z" />
            <path class="e2520533-d9e3-4207-b189-a09ddff21e04"
                d="M22.4,126.89s-.08,0-.12,0a1.41,1.41,0,0,1,0,.28l-.17-1.83a2.39,2.39,0,0,1,.16.32,2.36,2.36,0,0,0,0-.38l.17,1.93C22.54,127.18,22.55,127.08,22.4,126.89Z" />
            <path class="e2520533-d9e3-4207-b189-a09ddff21e04" d="M13.39,24.55l.1,0S13.42,24.5,13.39,24.55Z" />
            <path class="e2520533-d9e3-4207-b189-a09ddff21e04"
                d="M16.51,15a2.89,2.89,0,0,1,.29.43A1,1,0,0,0,16.51,15Z" />
            <path class="e2520533-d9e3-4207-b189-a09ddff21e04" d="M22.4,136.68c-.18.22,0,.07,0,0Z" />
            <path class="e2520533-d9e3-4207-b189-a09ddff21e04"
                d="M21.25,135A.26.26,0,0,0,21,135,.4.4,0,0,1,21.25,135Z" />
            <path class="e2520533-d9e3-4207-b189-a09ddff21e04"
                d="M19.7,123.35v0C19.67,123.44,19.67,123.42,19.7,123.35Z" />
            <path class="e2520533-d9e3-4207-b189-a09ddff21e04"
                d="M22,136.84a1.81,1.81,0,0,0,.35-.16A1.71,1.71,0,0,0,22,136.84Z" />
            <path class="e2520533-d9e3-4207-b189-a09ddff21e04" d="M22.15,137l-.21.14C22,137.17,22,137.18,22.15,137Z" />
            <path class="e2520533-d9e3-4207-b189-a09ddff21e04" d="M22.67,136.39a1.91,1.91,0,0,1-.36.29q.09,0,.09,0Z" />
            <path class="e2520533-d9e3-4207-b189-a09ddff21e04"
                d="M15.32,47.73a.14.14,0,0,1,0-.07C15,47.59,15.08,47.66,15.32,47.73Z" />
            <path class="e2520533-d9e3-4207-b189-a09ddff21e04" d="M17.24,103.44l0,0h0Z" />
            <path class="e2520533-d9e3-4207-b189-a09ddff21e04"
                d="M17.24,104.49l.24.05-.25-1.6c.25.23.21.37.1.48l0,0,.35.09a8.68,8.68,0,0,0,.89.14,7.1,7.1,0,0,0-1.09-.69l.23,1.44Z" />
            <path class="e2520533-d9e3-4207-b189-a09ddff21e04"
                d="M15.42,69.8v.29L15.11,69l-.22.48c-.13-.16-.23-.31-.32-.43L15,70.34c-.55-.37-.64-.67-.77,0a.64.64,0,0,1,.67,0l-.4-1.33c.12.16.19.54.21.5v.24l0,.7a3.13,3.13,0,0,0,.43,1.1l.1-1.62a.66.66,0,0,0,.41.5l-.41.33.1,2v0l-.45-1.14.35-.9c0-.11,0-.15,0-.27a1,1,0,0,0-.23.21l-.23.34.35,1.85c.07.38.53.29.93.41L16.35,71a.81.81,0,0,1-.33.78l-.18.1-.42.77c-.18.25-.37.35-.44.1l0,.58.15,1.94.4.19.36.16c.17.21,0,.33-.21.12l.51.44L15.63,75l.2.69h0a0,0,0,0,1,0,0l.59-2a6,6,0,0,1-.12,1.07c-.39.12,0-.23-.16-.28l-.12.31-.77,1.94.66.34.45.24c-.06.35-.45.28-.77,0l-1.11-.85,1.24-2a1.25,1.25,0,0,1,.26-.3,1.37,1.37,0,0,0-.65-.09l-.84.26.68,3.32c.06.28.45.19.79.51l-.48-1a1.44,1.44,0,0,1,0,.74l.59-2.27-.17.07L16,75.7l-.61,2.38-.26-.52a1.23,1.23,0,0,0-.37.67l.76-3c-.29.13-.53.36-.92.54l-.43.2L14,79.64a.86.86,0,0,1,0,.28c.05,0,.08-.18.14-.33l.62-3.7c.59-.07,1.56-.19,1.32.47a.83.83,0,0,0-.41.35l-1,1.55.57.85a.7.7,0,0,0,.14.17c.06.06.1,0,.17.08-.24.08-.3.16-.3.23a.15.15,0,0,0,0,.11l0,.06,0,.18-.64,0s0,.07,0,.08l.15-1.43c0,.52.27.62.42,1l0,1.49,0,0a.93.93,0,0,1,0,.47c0,.09-.13.13-.23.18a3,3,0,0,1-.53.18c.14,1.26.61-1,1,.42a3.19,3.19,0,0,0,0,.42c0,.21.08.4.13.57s.19.38.29.54l.25.32.27-2.39c-.11.27-.21.58-.33,1l-.65,1.94.58.4.11.08c.18.63-.38.13-.4.42l.73.15a.11.11,0,0,1,0,.07L16.2,85c0,.06-.15,0-.22,0,.26.42.62,0,.9.59l0-.6v0c.26.16.06.39-.23.68L17,87.07a3.18,3.18,0,0,0,.28.94l-.42-1.41a.85.85,0,0,0,.07.74l.28-.73v0c-.26.07-.27-.27-.47-.37l-.38,1h0c-.34.9.47-1.21.38-1h0v.07l0,.09,0,.17-.06.27a1.94,1.94,0,0,0,0,.35l-.16,1.85a2.26,2.26,0,0,0,.29.26l.32.14a1,1,0,0,1,.33.16c0,.1-.06.24-.09.36l.23-1.08-.51.27c.58-.18.71.37.72,1l0,.57h0l.58.08c0-.29,0-.54,0-.7l.06.53.07,0,0,.06-.07-.6,1,.46.32.15-.16.78v0c-.12.06-.23,0-.34-.23L19,90.88l-.21.06H19v.33a.43.43,0,0,0,0,.12.4.4,0,0,1-.49,0,.81.81,0,0,1-.17-.23L18.29,91l0-.08,0,0v0h0l.13.76h0l0-.57a1.83,1.83,0,0,0-1.16.57.7.7,0,0,1,.39.12c-.12,0-.22.06-.24.13s.17,0,.42.06l-.29.7.05,0-.41-2.37.18.16-.15.14-.19.23-.39.47-.41,1,0,.09c0,.09.07.2.11.28l.11.2c.07.19.15.36.23.54l.31.47.3.35.21.53a6.72,6.72,0,0,1,1,.38l-.05-.54a4.12,4.12,0,0,1-.12.89l0,.17.07,0,.37.26c-.67,0-.7.51-1.17.91a.53.53,0,0,0-.06-.4l-.61-1,.43-.52a1.73,1.73,0,0,0,.24-.83l.12,1.65a2.38,2.38,0,0,1-.68-.58l-.35-.5v-.52a.51.51,0,0,1,0,.13l.35.9c.1.3-.15.38-.28.35l.69.43-.15-2-.11.84a.47.47,0,0,0-.28-.09L17,96.76c-.06.2.15.38.23.71.2-.33.42-.37.66-.26l-.05-1.95a3.69,3.69,0,0,1-.47.86l-.55.89.42.58a1.11,1.11,0,0,0,.37.38.86.86,0,0,1-.39.13c-.11,0-.25-.07-.39-.29l-.57-.9L17,95.83a1.92,1.92,0,0,1,.2-.23.63.63,0,0,0-.32.13l-.67.56.48,1.6a.4.4,0,0,0,.32.28l.46,0c.25,0,.45.13.37.5l.13-.94-.09,0,0-.07-.14,1c0-.13,0-.21-.19-.23a.76.76,0,0,1,.18.24l.13-1a1.49,1.49,0,0,1-.52.7l-.2.77c-.06.14-.14.21-.24.13v-.11l0-.44.27-.48,0-.07-.05.06-.21.29,0,.64a5.91,5.91,0,0,0,0,.72v.37l.2.37c.08.15.18.29.28.44a1.12,1.12,0,0,0,.1.18,3.61,3.61,0,0,0,.1.68,1.94,1.94,0,0,0,.25.66l.15.64a.5.5,0,0,0,.36,0,5.54,5.54,0,0,1-1,.36l-.25-1.07a.84.84,0,0,1-.18-.07l.06.06.27,1.15,1.32.16-.1-.64a6.46,6.46,0,0,1,.77,1,5.42,5.42,0,0,1,.35.94,6.42,6.42,0,0,0-1.38-.73,2.13,2.13,0,0,1-.65-.47,1,1,0,0,1-.32-.47.56.56,0,0,0-.17.09.65.65,0,0,0-.18.26l-.4.81.12.54a2.1,2.1,0,0,0,.21.54c.08-.22,1-.64,1.09-.37a2.49,2.49,0,0,1-.41.45l0-.5a6.71,6.71,0,0,0-.57.63l.56,1.75a1.21,1.21,0,0,0,.08.41c-.14-.31.85-1,1.2-.65-.17.08-.69.9-.9.88l.52,0-.56-1.5a5.59,5.59,0,0,0,.58.74l0,.08a.24.24,0,0,0-.06-.09,1.1,1.1,0,0,0-.57-.16,5.45,5.45,0,0,0-.62,0c.11,0,.08.08-.09.41l-.19.39,0,.65,0,.39c0,.14,0,.36.06.49l.07.17,0-.19a3.46,3.46,0,0,1,.13-.55,2.4,2.4,0,0,0,.07.51c.08.2.21.43.3.46l.34.14a2.22,2.22,0,0,1,.83.49.92.92,0,0,1,.19.69l0,.08a1,1,0,0,0-.19-.13,2.18,2.18,0,0,0-1-.22.52.52,0,0,0-.39.11,4.88,4.88,0,0,1,.58.6l.08.87a10.12,10.12,0,0,1,1.52.07v.23a4.2,4.2,0,0,1,.33,1.22l0-1.23a1.86,1.86,0,0,1,.49.24,2.23,2.23,0,0,0-.13.39l.14.12a7.66,7.66,0,0,0,.67.59,7.54,7.54,0,0,1-1.27-.23c-.44-.07-.88-.09-1.33-.15v-.62L18.13,112l0,1.53c-.26-.11-.47-.18-.64-.24,0,.43-.15.38,0,.64l0-2.34a2.1,2.1,0,0,0-.2.31c-.28,0-.25-.28-.18-.54l0,2.79a1.36,1.36,0,0,1-.18-.21l.11.25,0-2.87-.54.69-.94,1.21,1,1.93.29.55a1.12,1.12,0,0,1,.41-.17h.13a.8.8,0,0,1,.18.12c.13.09.25.19.37.26l.08-2.12c0,.2,0,.35.19.42l0-.26-.07,1.83-.31-.29a1.83,1.83,0,0,0-.16-.13l-.1,0-.12,0-.18-.13-.36-.26-.52-.38.46-2.25v0a.31.31,0,0,1,.13.1l.06,2.46a1.32,1.32,0,0,1,.63-.11,5.94,5.94,0,0,1,.77.11,1.52,1.52,0,0,1,.69.47l0-.72a1.88,1.88,0,0,1-.32.63c-.39.13-.88-.84-1.09-.94a.85.85,0,0,1,0,.44l-.27.77a2.36,2.36,0,0,1,0,.74l-.05.31.13.46c0,.09,0,.16,0,.19l-.17-.13-.09-.86-.19-.37a.61.61,0,0,0-.07.34l.1,1v0a5.6,5.6,0,0,0,.6.59l0-1.22a.75.75,0,0,1-.31.72l.16,1.62V119c.11.26-.31,1.14.05,1a6.29,6.29,0,0,1,3.07-2.1,9.81,9.81,0,0,1,0,1l0,.9,0,0a4.81,4.81,0,0,1-1,.43l.05-.15-.07.07c-.28.2-.6.07-.9-.12l.11-.34c-.22-.37-.39-.79-.75-.76a.75.75,0,0,1,.18.39l-.23.69a.91.91,0,0,1,.12.17c-.17.31-.56-.16-.51.55.68.13,0,1.43.58.34a1.27,1.27,0,0,1,.07.47l0,.32.34.42a4.11,4.11,0,0,0,.56.81V121.3l0,0,.05,0h0V123h0v0h0a.24.24,0,0,1,.1-.1v-1.4a2.35,2.35,0,0,1,.2,1.67l0-.4a1.21,1.21,0,0,1,.28.16c-.16.07-.26.32-.3.44l.21.33c.09.26.15.5.21.72s0,.48,0,.72l.05-.24c-.19.21-.4.46-.61.74-.05.16-.1.32-.15.5a1.1,1.1,0,0,0-.29.24l0,.45c0,.21-.1.41-.32.35a1.44,1.44,0,0,1,.58.39l-.07-.29s0,.07,0,.11c-.3.4-.31.14-.36-.1l.1.43c-.13-.18-.28-.35-.47,0a.37.37,0,0,1,.3.05l-.12-.52a2.77,2.77,0,0,1,.33.71l.09-.43c0,.24,0,.47,0,.67.28.05.43-.16.52-.46l-.05.21a3,3,0,0,0-.24-.72l.07.27-.36-.31a1.42,1.42,0,0,1,1.08,0v0a2.81,2.81,0,0,1,.67.7l-.07.34a4.42,4.42,0,0,1,0,.9l-.08-1.11.21.18c.24.24.3.4.28.5l0,1.27c-.21.05-.37-.3-.36-.16a2.44,2.44,0,0,0-.36.73l-.21-1.14a2.71,2.71,0,0,0,1.28.14h.19l.16,2.08a1.1,1.1,0,0,1-.28.88l.28-1.16a3.38,3.38,0,0,1-.06.6c-.16.3-.34.37-.52.36a.21.21,0,0,1-.08,0c-.32,0-.62-.27-.85-.18a1.65,1.65,0,0,1-.09-.63l0,.13a6,6,0,0,1,.73-.58l.22-.19-.33-.48a1.48,1.48,0,0,0-.24-.26l.19.32.27.44-.18.13-.29.22a1.42,1.42,0,0,1,.06-.38l0-.16-.08,0a1.14,1.14,0,0,1-.62-.48,1.47,1.47,0,0,0,.47.66l0-.11c-.16.2-.33.45-.52.72l0,0v0c0,.23,0,.46.05.7l-.18.71,0,.08.06.07a9.06,9.06,0,0,1,.55.76l-.06-.14a4.88,4.88,0,0,1,0,.68l.05.06.1-.31c-.07.31-.21.69.07.69l.26-.35.05-.07v-.07c.12-.17.25-.12.36,0l-.13.41c0,.29-.25.67.12.49-.1.28-.18.58-.31.87l0-1.9a2.25,2.25,0,0,1,.87.55l.79.83-.42.86a1.6,1.6,0,0,1-.21.32l-.63-.08c.12,0,.35-.17.45-.4l.29-.7-.55-.52a.45.45,0,0,0-.26-.14.33.33,0,0,1,.22.17l.52.8-.27.37c-.14.19-.42.39-.6.61l.06-.31a.7.7,0,0,0,.3.81c.13-.23.26-.49.39-.77l.41.91a4.94,4.94,0,0,1,.06,1.1l.06-.89a1.45,1.45,0,0,1,.16.71l-.46-1,0,0,0-.09.48,1.08c.39-.36-.14-.14.44-.77-.17.13-.28.12-.36,0l-.06,1a4.27,4.27,0,0,1,.24-1.12c0-.68-.09-1.21-.5-.67a1.6,1.6,0,0,0,.3-.43l-.17,1c.31-.16.41-.38.61-.61l.58-.67L22.53,134a1.77,1.77,0,0,1-.21-.74c-.11.16-.07.45-.46,0l.05,3.88,0,0a.9.9,0,0,1,0-.23l0,0h0s0,0,0,0a.79.79,0,0,1-.2,0l-.05-3.43a.52.52,0,0,1,0,.25h-.23l0,2.93a3.65,3.65,0,0,1,.52-1l.65-1-.17-.42a1.44,1.44,0,0,0-.24-.45c0-.4.25.13.44-.12l-.16-.17-.43-.92-.39-.1c.31-.33-.12-1.27.68-.75l-.3-.36.58,2.26.13-.54a5.22,5.22,0,0,0,.29-.58,5.62,5.62,0,0,0,0-1.16l-.45,1.83a1.11,1.11,0,0,0,.17-.43.8.8,0,0,0,.17-.41l.45-3.33-1.05-.25c-.28-.07-.52,0-.21-.08l-.81-.4.59,3.15L22,131l.1.05a2.82,2.82,0,0,0,.21-.38l.74-1.53-.78-1c-.17-.22-.36-.43-.55-.64l.16,2.23c.06-.27.13-.53.21-.8l.23-.73,0-.24a4.37,4.37,0,0,1-.06-.72v-.37l-.21-.5a3.17,3.17,0,0,1-.22-.76l.15,1.59a.91.91,0,0,1,.29-.19l0-.12a.33.33,0,0,1,0-.17.26.26,0,0,1,0-.1l.13-.22.52-.76-.19-1c0-.16,0-.26-.06-.6l.32-.34,0-.15a8.06,8.06,0,0,1-.49-1.3l-.41-.69a1.11,1.11,0,0,0-.25-.3L21.56,125a.29.29,0,0,0,0-.22,1.13,1.13,0,0,0,1-.27l2.17-1.67-2.18-3a4.41,4.41,0,0,0-.68-.69l.94,2.25a6.35,6.35,0,0,1-.11-1.25l-.52,1.6a2.43,2.43,0,0,1,.22-.29l-.4-.31a3,3,0,0,0,.26-.42l.87-1.57L22.37,118a7.83,7.83,0,0,0-1.14-1.34l.2,2.09v0l-.19,0-.19-1.92-.19.16h0l.16,1.67a1.39,1.39,0,0,1,.21-.76l.19-.35-.17-.88c0-.23-.07-.49-.09-.76l.09.88c.08-.22.17-.46.24-.7l-.31.88a3.93,3.93,0,0,0,.41-.57c.1.16-.09.38-.28.5a1.62,1.62,0,0,0,.66-.47l.71-.85L22,113.8a2.31,2.31,0,0,0-.18-.35l-.31-.45-.23-.26-.17-.14-.35-.28.06,2.41a3.7,3.7,0,0,1,.29-.85l.62-1.19-.6-.89a1.36,1.36,0,0,1-.26-.79l.18,1.83h0a1.23,1.23,0,0,1,.33-.93.25.25,0,0,0,0,.12l0-.14v0l.15-.31c.06-.13.11-.27.16-.35a2,2,0,0,0-.3.55c0-.12,0-.29,0-.48v-.55l-.13-.49c.16-.08.31-.18.47-.28l0-.13a.66.66,0,0,0,0-.3c-.08-.16-.26-.08-.43.08a1.19,1.19,0,0,0-.18.15.54.54,0,0,0-.06-.11,2.32,2.32,0,0,0-.38-.49c.2-.18.26-.2.24-.28s-.06-.08-.1-.21a.55.55,0,0,1,0-.36l-.14,1a.66.66,0,0,1,.34-.09c-.11-.08,0-.48.06-.87a4.17,4.17,0,0,0-.06-1l-.54-1.58-.06,0a.9.9,0,0,0-.89.09c.06-.1,0-.2.16-.09a2.66,2.66,0,0,0-.34-.4l.45,1.38a.91.91,0,0,0,0-.63h.53l.05-.66.09,0-.75-.61-.15.73-.05-.22c.62-.31,1-.6,1.05.3.06-.3.1-.54.14-.74a9.09,9.09,0,0,1,0-1.06v-1l-.18-.14a3.22,3.22,0,0,0-.8-.48l.15.65s0,0,0,0l.13,0-.17-.72.24-.1,0,0,.21.87a3.22,3.22,0,0,0-.19-.64.53.53,0,0,1,.11-.61,1.54,1.54,0,0,0,.22-.34,7,7,0,0,0,0-1.25c-.13-.29-.3-.62-.49-1l.21.73,0-.73-.23.94.46-.73.36-.58-.18-.73c-.08-.3-.15-.61-.23-.91l-.25-.52-.17-.39-.17,1.94c.23-.23.48-.45.72-.65l.91-.72-1-1.76a4.11,4.11,0,0,1-.21-.42c-.33.62-.38.19-.49-.2l.25,2.07c.25-.18.48-.39.15-.61.21,0,.41-.07.52,0l-.17-2.29h0a0,0,0,0,1,0,0l.18,2.34a.34.34,0,0,1,.07.21l0-.15.55-1.8-.73-.68a2.87,2.87,0,0,1-.53-.7l.46,1.19,0-.36a.33.33,0,0,0,0-.14.25.25,0,0,0-.09-.14c0-.08-.11-.26-.23-.3.28,0,.39.17.56.12L20.68,93s-.06-.1,0-.1.21.09.31.16h0c0-.09-.08-.16-.2-.26a8.36,8.36,0,0,0-1.19-.84,1.2,1.2,0,0,0,.27-.16l.33-.23-.61-1.37c-.17-.4-.44-.49-1-.4v0l.15,1.32c.28,0,.59-.07.44.32L19,89.32l.18.11-.14-.16.23,2.13c.16-.16.39-.42.61-.69l.44-.53-.16-.82-.07-.4c0-.17-.08-.34-.13-.49a2,2,0,0,0-.36-.51.3.3,0,0,0-.31-.07.22.22,0,0,0,0-.18l-.12,1.39a.93.93,0,0,0,.19-.47l.25-.32.16-.2.07-.38c.05-.3.08-.49.13-.72l.09-.55-.4-.5c-.1-.12-.24-.28-.47-.52l.07.25c-.32.09-.48,0-.59-.09l.16.77c.05-.2.24-.4.35-.7l.05-.14,0-.27a.6.6,0,0,0,0-.22h.09c0-.23.06-.4.08-.53v0l-.21-.5c-.22-.53-.36-.45-.52-.67l0,1.38a2.52,2.52,0,0,1,.77-.57L19,83.91a.41.41,0,0,1-.15-.27l.07-.68c-.19-.07-.21-.42-.15-.7a2.09,2.09,0,0,1,.11-.3,2.2,2.2,0,0,0,.06-.37,1.07,1.07,0,0,0-.14-.73,2.2,2.2,0,0,1-.19.43c-.09-.07-.1-.23-.06-.41a2.56,2.56,0,0,1,.46-1l0,1.07a2.67,2.67,0,0,0,1-.48l.13-1.13v0s.06,0,.1,0L20,80.51c0,.08,0,.22,0,.32a2.1,2.1,0,0,0,.22-.24l.14-1.3a.54.54,0,0,0,0-.25.34.34,0,0,0-.07-.2c-.06-.08-.16-.06-.26,0a.49.49,0,0,1-.67-.36,1.45,1.45,0,0,1-.1-.18c.21-.36,1,.09.61-.92a.31.31,0,0,0-.06-.21l-.49,3a7.32,7.32,0,0,0,.38-1l.7-1.94-.15-.21a4.08,4.08,0,0,1-.39-.66l-.34-.8-.1-.08A1.16,1.16,0,0,1,19,74.6c-.07.3-.15.61-.55.43l-.09,2.17s0,0,0,0a2.39,2.39,0,0,1,.9-.55l.24-.11.25-1.56a3.38,3.38,0,0,0,.06-.76l0-.37-.53-.67a.82.82,0,0,0-.78-.35.26.26,0,0,1,.06-.23l-.06,0,.5,1.91c0-.21,0-.5,0-.79l-.37.67a3.84,3.84,0,0,0,.39-1l.28-1.46-.07-.05a.8.8,0,0,0-.31-.15A.74.74,0,0,0,19.2,71l.07,1.33a1.76,1.76,0,0,0,.26-.73l.12-.82-.06-.14-.08-.17-.07-.09-.15-.2a1.89,1.89,0,0,1-.09-.21.76.76,0,0,1,0-.18v-.22a.76.76,0,0,1,0-.53.51.51,0,0,1,.42-.19v-.13l-.07-.49-.16-.27L19,67.24l.21,1.15.07-.72.15.06v0l.2-.82L18.82,66a2.18,2.18,0,0,0-.79-.61l-.12,2.8a1.93,1.93,0,0,0,.26-.89c.26-.08.21.15.24.22l.37-.19,1.71-.91-1.78-1.85a3.44,3.44,0,0,0-.89-.73l.47,2.42a2.77,2.77,0,0,0,.18-.92l.12-1.67-.26-.08-.62-.21.28-.43a.34.34,0,0,1-.18-.13l.07,2a8.13,8.13,0,0,1,.72-.63l.59-.48-.5-1.52c-.08-.25-.17-.52-.28-.79l0,2.1a4.8,4.8,0,0,0,.55-.71l.81-1.33-.93-1a2.61,2.61,0,0,0-.7-.58.32.32,0,0,1,.28,0l-.15-.11-.07,2.63a2.89,2.89,0,0,1,.66-.78l1.39-1.2-1.6-1.66a9.44,9.44,0,0,1-.7-.84l.77,2.05c.1-.24.2-.48.28-.7l.09-.24-.24-1.06a3.47,3.47,0,0,0-.25-.73l-.3,2.4a1.05,1.05,0,0,0,0-1.21l.19-1.67h0l-.58-.57-.17,1.36.11-.38a2.63,2.63,0,0,1-.27.25l.14-1.15c.07.47-.27.32-.55.25L17,57c-.05-.18-.11-.33-.31-.24v-.1h0l0,.1a1.18,1.18,0,0,1,.86-.54l-.06-.61c0-.12,0-.2.15-.18l.19,0-.09.92a.6.6,0,0,1-.07.18l-.14,0a.38.38,0,0,0,.59.08l.59-.39L17.92,55a7.65,7.65,0,0,0-.72-.8l.46,1.18c.07-.24.18-.4.36-.36l0-.32-.3.75.57-.74.31-.41V52.63l-.23-.46-.18-.36-.09-.21,0-.2-.07-.34,0,1q.26-.74.48-1.47l.23-.75-.64-.9-.53-.75.28,2.17.21-.37.3-.55.3-1.06.13-.84.15-1-.81-.78-.07-.07-.09.24.58,1.6-.51.15,0-.2.11-.64-.54-.56-.51-.52c-.06-.3.15-.65.62-.17,0-.24-.19-.37-.44-.43L18,46.69a1.21,1.21,0,0,0-.49-.56l.07-.25c.08-.36.18-.34.27-.34s.19.13.28.35a1.75,1.75,0,0,0,.16.4c0,.07.07.09.08,0V45.9l0-.32a.74.74,0,0,0-.08.13c-.18-.28-.36-.38-.47-.61l-.12.63a2.37,2.37,0,0,1,.22-.89l.09-.12c.18-.53.42-.2.46-.5.05,0,.08-.12.05-.49v-.09a3.36,3.36,0,0,1,0-.58l.05-.17A3.79,3.79,0,0,0,18,43l-.08,0,0,0c-.18-.25.19-.86-.52-.41a1.11,1.11,0,0,0,.24-.2l-.31-1a2.48,2.48,0,0,0-.42-.9l.41,1.07.05-.36,0-.18v-.26l0-.8-.16.84c.12-.26.24-.51.36-.74l.4-.83-.5-.74-.46-.7-.13,1.89a1.76,1.76,0,0,1,.48-.41c0-.13.07-.27.11-.39L18,37.36l-.44-.29-.37-.31a1.58,1.58,0,0,1-.23-.22,2.83,2.83,0,0,1-.2-.28.44.44,0,0,1-.08-.15v-.19c-.12.17-.77.49-.69-.2.69,0,.84-.26,1-.56l-.48,1a2.39,2.39,0,0,1,1.06-.48L18.08,34a.91.91,0,0,1,.19-.29c-.17.24-.29.06-.41-.23a9.22,9.22,0,0,0-.44-1c-.23-.34-.41-.4-.55.06-.19-.73.43-.25.53-.84l-.09-.12.05,1.3a3.43,3.43,0,0,1,.12-.77l.18-.64-.18-.46a3.07,3.07,0,0,1-.13-.37L17.2,30l-.27-.53-.17-.39.26.84.06-.72-.16.91c.14-.23.28-.46.41-.7l.18-.32,0-.75c0-.24,0-.48-.05-.72L17.15,29a5.21,5.21,0,0,0,.28-.52c-.13-.12-.53,0-.54-.46l.19-.07L16.76,26l-.17-1.12a.31.31,0,0,0-.25,0l.23,3c-.08-.32-.36-.69.35-.79-.17,0-.44-.06-.31-.28l.12-.1.79-.58-.84-1.36a9.13,9.13,0,0,0-.54-.79l.22,1.91c.18-.23.34-.46.5-.7l.45-.7-.39-.88-.29-.64-.11-.27-.08-.2-.09-.39v-.57l-.5,1.14.75-.79,1.36-1.42-1.54-1c-.32-.21-.65-.43-1-.66l.63,1.56.16-.72-.4.78c.25-.24.5-.47.77-.69l.57-.46L17,18.09c0-.25-.07-.5-.1-.75v0l-.38-.65c-.16-.28-.31-.56-.44-.85l.06,2.65.71-.41c-.57.17-.4-.09-.17-.39l.86-1.13-.69-1.09,0,0s0,0,0,0l-.17,2.2c-.2.08-.31-.3-.51-.41h0l.29-.15-.18-1.3-.12-.87L16,16.7l.7-.42a.58.58,0,0,1-.06-.26l.12-2.18-.27-.05a2,2,0,0,1-.78-.58l.4,1.51c.08-.34.12-.65-.12-.79l0,.51c-.28-.43-.76-.29-1.28-.11l0-.09a2.25,2.25,0,0,1-.55,1.38.58.58,0,0,1,.4.11l-.1-1.36a1.79,1.79,0,0,1-.78.56l-.18.09.1,1.4a3.09,3.09,0,0,0,.14.86l.14-1.9a1.16,1.16,0,0,0-.42.9l0,1.84h.07l.17,0c0,.33-.38,0-.45.29a.94.94,0,0,1,.89.39l-.3-.54a3.26,3.26,0,0,1,.06.5l-.12,0,.1.3.36-1.57a8.56,8.56,0,0,1-.72.74l-.25.22-.16.58a7.36,7.36,0,0,1-.22.71l-.26.76,1,1,.84.83-.22-2.95-.92.62-.45.3-.2,1.17,0,.31-.05.49L13,22c0,.14,0,.26-.06.35a4.2,4.2,0,0,1-.15.86c.48.36.32-.33.27-.87s.11-.68.44-.4a1,1,0,0,0-.26.39,3.43,3.43,0,0,0,0,1l.16.51.15.44.2.44.15.35.07-1.65a2.35,2.35,0,0,1-.61.64l-.33.2.6,2.12a.72.72,0,0,1,0,.52c.5.53.25-.53.75,0l0,.14-.06-2.56-.2,0,.17.39a.85.85,0,0,1-.87.17l.25,3.18a.52.52,0,0,1-.06.13l0,0-1.86-1.71,1.6-1.66a2.75,2.75,0,0,0,.2-.38,1.33,1.33,0,0,0-.37.23l-1.7,1.59,2,2.1a3.76,3.76,0,0,0,.87.6l-.54-3.19a1,1,0,0,1-.22.43l.36-.35.5,3-.13-.18.18.12L13.85,26c-.12.26-.24.51-.38.77l-.4.74.1.66.11.71.16-1.13c-.1.24-.2.49-.31.73l-.21.5,0,.5,0,.72,0,.56.26.42.22.33.1.15.08.15.13.31V30.81c-.05.26-.1.51-.13.77l-.13,1.1.18.26.2.29.11.13.07.07.18-.16.12.11a1.2,1.2,0,0,1,.16.34.89.89,0,0,1,.06.31c0,.2,0,.37-.05.6l.48-1.48a3.39,3.39,0,0,0-.8.73V33.8l0,.09L13.77,35a3.76,3.76,0,0,1,.22,1.5c-.13-.25-.26,0-.39.32s-.16.29-.17.34-.19.06-.24-.13c0,.15.13.24.22.34l.24.25c.15.15.27.27.37.35a1.2,1.2,0,0,0,.42.29,3.46,3.46,0,0,0,.37.11,4.85,4.85,0,0,1,.64.14l.08-1.26v.07l-.44-.06a1.52,1.52,0,0,1-.07.87l-.35.78.28.23a2.44,2.44,0,0,1,.34.36c-.63-.38-.19.73-.95.35a2.42,2.42,0,0,0,.15.59l-.11-1.93a2.23,2.23,0,0,0-.37.74l-.24.86.05.15a2,2,0,0,0,.24.62.54.54,0,0,1,0,.11,1.1,1.1,0,0,1,0,.18.7.7,0,0,1-.06.35l.47,1.2a1,1,0,0,1,0,.58c.65-.07.48-.46.22-.79l-.43-.54.05-.45c0-.19,0-.4,0-.52s0-.12.07,0a.28.28,0,0,1,.36,0,1.27,1.27,0,0,1,.25.56l.11.43.08.05a1.29,1.29,0,0,1,.41.39.6.6,0,0,1,.11.42l-.22-.73c-.11.09-.24.15-.39.28a2.84,2.84,0,0,0-.46.5,2.75,2.75,0,0,0-.18.46,2.33,2.33,0,0,1-.06.25.54.54,0,0,0-.05.11.49.49,0,0,0,0,.19c0-.06-.07-.06-.06-.12s-.08.13,0,.22a.52.52,0,0,1-.09.46l-.13.71a.81.81,0,0,1-.12.25.54.54,0,0,1,.31.4.55.55,0,0,0,.05.21c0,.08.15.14.37.19,0-.14,0-.32,0-.39s-.08-.45-.12-.67l.1-.54v0l-.1.53a2.47,2.47,0,0,0,.41.68,1.92,1.92,0,0,1,.28.71l.1.52.13.08a1.53,1.53,0,0,1,.67.72,1.76,1.76,0,0,1-.82-.1c.06.28.31.33.49.48l-.4-1.12a.43.43,0,0,1-.12.3A.45.45,0,0,1,15,47l.55,1.51a4.71,4.71,0,0,1-.8-.62l-.57-.46v-1a2.34,2.34,0,0,0,0-.38c0-.13,0-.26-.1-.28a.72.72,0,0,1-.13-.15.8.8,0,0,0-.08.14,2.47,2.47,0,0,0,.05.3c0,.13.07.26.08.35l.14,1.32.51.34c.15.09.16.19-.18.34a.72.72,0,0,1,1,.28L14.73,47l-.1.35a.83.83,0,0,0,0,.26c0,.06,0,.06.05.2a.93.93,0,0,0,.16.22l-.44-.17.08.12c.05.11.12.17,0,.33-.11-.25-.3-.33-.46-.47.07.08.09.14.08.19a.91.91,0,0,1-.22.33l-.57.64.91,2a8,8,0,0,0,.35.9L14,49.55a.71.71,0,0,0-.05.41,3,3,0,0,1,.11-.4l.58,2.34c-.44-.68.47-.37.34-1a2.18,2.18,0,0,1,.44.33L15,49.78c-.1.81-.82.67-1.3,1.19l.06,1.45a1.27,1.27,0,0,0,0,.34,5.29,5.29,0,0,0,.19.73l.3.48a2,2,0,0,1-.25-.51c-.08-.53,0-1,.29-.62l.07.46c.07.23.16.5.21.71a1.48,1.48,0,0,1,0,.43l-.38-1.33,0,0c.14,1.35.48-.23.79.34a.49.49,0,0,0-.2.31l.46-1.44c-.18.21.07.68-.07,1.11l-.31.78v0l-.48-.06a1.18,1.18,0,0,0-.09.69l.57,1.88.19.05c.47.14.6-.66,1.23.19L16,55l0,0v-.06l.23,2.15-.82.13.51.26-.31-2.84-.07.16-.34-.46a2.07,2.07,0,0,1-.35.91L14,56.34l.56,1.22a4.16,4.16,0,0,1,.22.76L15,55.9l-.09.07c.38.07.63.61.23,1.17h-.05l-.19,1.55c-.1.44-.49-.08-.07.75-.3-.07-.65-.13-.63-.46l.1-2.2.19-.1a1.05,1.05,0,0,1,.26-.07c-.1-.13-.11-.35-.21-.48a1,1,0,0,0-.41.28l-.89.93.54,1.82a3.41,3.41,0,0,0,.34.69L14,58.36c0,.15,0,.28,0,.38a1.18,1.18,0,0,1,.07-.2.39.39,0,0,1,0-.09l0,0v0h0l.17,1.42h0l-.17-1.42h0v0l0,0,0,.1.05.19.11.4.59,2,.2.05.72.17c.06.28-.17.29-.39.29a2.56,2.56,0,0,0,.55.16l-.23-3.1a1.25,1.25,0,0,1-.18.34c-.17-.27-.4-.48-.36-.83l.31,4.16a.94.94,0,0,1-.34-.07l.3.11-.31-4.24-.44,1-1.21,2.67,1.12.72h0c-.07.18.08.83-.15.79a1.17,1.17,0,0,0,.21.3l-.19-3.84a3.46,3.46,0,0,0-.27.89l-.64,2.75.58.45a5.1,5.1,0,0,1,.65.57L15,61.45a1.59,1.59,0,0,1-.46.57.43.43,0,0,1,0,.25l-.84,3,1,.26.15.08a6.44,6.44,0,0,1,.4.66L15,63.1a7.49,7.49,0,0,0-.59.66l-1.43,2,2.16,1.77a2.34,2.34,0,0,0,1,.5l-.1-4.13L16,64l-.92-.15c-.57.65,1.15.17.3,1.21l-1.81,2.21,1.68,1,.05,0c.89.54-.14.7,0,1.09l.24,0L14.71,67a3.53,3.53,0,0,1,.32.79l.26,1.47a1.58,1.58,0,0,1,.51.63L15.53,69a1.45,1.45,0,0,1,0,.29c0,.11-.07.21-.12.23s-.08-.12-.09-.22,0-.18,0-.28l.3,1A1.28,1.28,0,0,0,15.42,69.8Zm.6,6.55a2.11,2.11,0,0,1,.14-.5L15.6,78c-.06-.12-.08-.23,0-.32s.37.12.39.22l.46-1.79C16.39,76.24,16.21,76.26,16,76.35Zm1.33,15.42a.43.43,0,0,1,0-.25,1.26,1.26,0,0,1,.46-.46,1.4,1.4,0,0,1-.31.51Zm5.22,40.28,0,0C22.66,131.33,22.61,131.57,22.57,132.05Zm-.4,1.36s0,.07,0,.07l-.49-1.9c.07,0,.1,0,.11-.09h0l.52,2h0v0a.14.14,0,0,1,0-.07.48.48,0,0,1,0-.17,2.5,2.5,0,0,1,.12-.47C22.28,132.83,22.15,133,22.17,133.41ZM18.26,44l-.14.28C18,43.66,18.13,43.86,18.26,44Z" />
            <path class="e2520533-d9e3-4207-b189-a09ddff21e04"
                d="M17,91.87a.52.52,0,0,1,.11-.25C17,91.62,17,91.69,17,91.87Z" />
            <path class="e2520533-d9e3-4207-b189-a09ddff21e04" d="M14.52,62l0,0a.56.56,0,0,0-.05-.08Z" />
            <path class="e2520533-d9e3-4207-b189-a09ddff21e04"
                d="M17.58,120.11a.48.48,0,0,1,.08-.16l.3-1a.75.75,0,0,1,.28-.09c-.07-.06-.17-.06-.31.07h0l-.31,1S17.59,120.05,17.58,120.11Z" />
            <path class="e2520533-d9e3-4207-b189-a09ddff21e04"
                d="M23.44,137.23l-.13-.75-.22,1.24,0-.15-.06.14.22-1.23a2.23,2.23,0,0,1-.13.64C23.26,137.1,23.42,136.91,23.44,137.23Z" />
            <path class="e2520533-d9e3-4207-b189-a09ddff21e04"
                d="M21,141.55c.08,0,.12.08.19.12h0a.14.14,0,0,0,0,.06l.22,0v-.16l-.08-.06C21,141.26,20.73,141.23,21,141.55Z" />
            <path class="e2520533-d9e3-4207-b189-a09ddff21e04"
                d="M21.75,137.86c-.28,0-.37.2-.42.5l0-.45.13.39s0-.05,0-.08c.37,0,.4-.14.31-.37l0,.63C21.76,138.3,21.76,138.08,21.75,137.86Z" />
            <path class="e2520533-d9e3-4207-b189-a09ddff21e04"
                d="M21.52,138.39l.06.23-.25-.57.09.14c.14-.07.07-.11,0-.18l.26.6A1.55,1.55,0,0,1,21.52,138.39Z" />
            <path class="e2520533-d9e3-4207-b189-a09ddff21e04"
                d="M23.09,133.59c-.07.22.54,0,.39.18.29.08.05-.26-.18-.46L22.68,132c-.22,0-.39,0-.21.18l.38.4.17.79A1.32,1.32,0,0,0,23.09,133.59Z" />
            <path class="e2520533-d9e3-4207-b189-a09ddff21e04" d="M20.33,138l.53,0c-.11-.12-.22-.22-.33-.32Z" />
            <path class="e2520533-d9e3-4207-b189-a09ddff21e04"
                d="M20.43,135.32l-.17.11V135l.29.41c0-.07.14-.05.25,0-.18-.18-.34-.38-.46-.49v.65C20.44,135.43,20.48,135.36,20.43,135.32Z" />
            <path class="e2520533-d9e3-4207-b189-a09ddff21e04"
                d="M20.8,135.36a2.46,2.46,0,0,0,.25.22l.19.13-.09.33a.56.56,0,0,0,0,.22l.07-.19.11-.36-.23-.17A1.41,1.41,0,0,0,20.8,135.36Z" />
            <polygon class="e2520533-d9e3-4207-b189-a09ddff21e04"
                points="20.34 137.05 20.43 136.85 20.44 136.62 20.44 136.62 20.44 136.61 20.55 136.39 20.41 136.6 20.41 136.6 20.41 136.63 20.34 137.05" />
            <path class="e2520533-d9e3-4207-b189-a09ddff21e04"
                d="M20.37,128.74l-.25-.26,0,.37.09-.39c-.12-.13-.29,0-.35.28v-.11h0C20.09,128.72,20.29,128.92,20.37,128.74Z" />
            <path class="e2520533-d9e3-4207-b189-a09ddff21e04" d="M20,131.41c-.09-.21,0-.3,0-.5l-.4.47Z" />
            <path class="e2520533-d9e3-4207-b189-a09ddff21e04"
                d="M19.13,129.62a2.18,2.18,0,0,1-.48-.21l-.09-1.28c0-.13,0-.2-.14-.06l-.32.51.42.92.16.25C18.86,129.72,19.38,130.27,19.13,129.62Z" />
            <polygon class="e2520533-d9e3-4207-b189-a09ddff21e04"
                points="19.75 119.32 19.81 119.41 19.82 119.14 19.78 119.21 20.65 119.75 20.42 119.53 20.43 119.07 19.75 119.32" />
            <path class="e2520533-d9e3-4207-b189-a09ddff21e04"
                d="M16.62,110.48c-.06.07-.05.1,0,.12a1.11,1.11,0,0,0,.3.07l.09,0c0,.1,0,0-.07.12.11.07.18,0,.24,0s.07-.08.1-.08a.12.12,0,0,1,.13,0l-.06-.08C17.16,110.41,17.21,110.35,16.62,110.48Z" />
            <path class="e2520533-d9e3-4207-b189-a09ddff21e04"
                d="M17.4,110.7s0,0,.06,0a.15.15,0,0,0,.08.09s-.05-.11-.07-.11Z" />
            <polygon class="e2520533-d9e3-4207-b189-a09ddff21e04"
                points="16.42 12.64 16.39 12.58 17.01 14.96 17.32 14.53 16.89 14.79 16.94 14.94 16.34 12.63 16.42 12.64" />
            <path class="e2520533-d9e3-4207-b189-a09ddff21e04"
                d="M16.35,12.82l.58-.33-.66-.15C16.33,12.46,16.46,12.68,16.35,12.82Z" />
            <path class="e2520533-d9e3-4207-b189-a09ddff21e04"
                d="M14.17,79.89l.16,0c.12,0,.15-.06.17-.09a.06.06,0,0,0,0,0l-.14.07Z" />
            <polygon class="e2520533-d9e3-4207-b189-a09ddff21e04"
                points="15.39 70.81 15.29 70.9 15.9 71.1 15.39 70.81" />
            <path class="e2520533-d9e3-4207-b189-a09ddff21e04"
                d="M14.37,69.64a5.11,5.11,0,0,0,.56.42l-1.1-3.2s0,.09,0,.13a.29.29,0,0,1,0-.13l1.1,3.21C14.58,69.72,14.78,69.11,14.37,69.64Z" />
            <path class="bd25fe5b-504c-4a9b-b08e-3dd7a892ec1e"
                d="M4.11,230.81c-.13.07.2.34.24.41C4.45,231,4,230.73,4.11,230.81Z" />
            <polygon class="bd25fe5b-504c-4a9b-b08e-3dd7a892ec1e"
                points="3.98 228.13 4.1 228.27 3.96 227.74 3.98 228.13" />
            <path class="bd25fe5b-504c-4a9b-b08e-3dd7a892ec1e"
                d="M4,225.09c-.19,0-.27.12-.28.19s.07.16.14.23a1.7,1.7,0,0,1,.2.29.17.17,0,0,1,0,.12l-.14.11.6,0a.85.85,0,0,0-.22-.28,1,1,0,0,1-.22-.28.71.71,0,0,1-.12-.2A.22.22,0,0,1,4,225.09Z" />
            <path class="bd25fe5b-504c-4a9b-b08e-3dd7a892ec1e"
                d="M5.61,224.44c-.28,0-.2-.28-.12.26l.08,0A.92.92,0,0,1,5.61,224.44Z" />
            <path class="bd25fe5b-504c-4a9b-b08e-3dd7a892ec1e" d="M5.57,224.66c0,.23.25-.12,0,0Z" />
            <path class="bd25fe5b-504c-4a9b-b08e-3dd7a892ec1e"
                d="M5,225.76l-.09.39c.15.09.39-.05.38.1C5.45,226,5.3,225.87,5,225.76Z" />
            <path class="bd25fe5b-504c-4a9b-b08e-3dd7a892ec1e"
                d="M4.9,225.18l-.06.18C4.91,225.39,5,225.39,4.9,225.18Z" />
            <path class="bd25fe5b-504c-4a9b-b08e-3dd7a892ec1e"
                d="M4.72,225.74l.12-.38c-.1-.07-.25-.25-.07.15C4.66,225.33,4.73,225.53,4.72,225.74Z" />
            <path class="bd25fe5b-504c-4a9b-b08e-3dd7a892ec1e"
                d="M4.5,225.77c-.23,0-.46,0-.38-.34a.78.78,0,0,0-.16.29l.82-1.44a.19.19,0,0,0,.31,0L4.15,226A.51.51,0,0,0,4.5,225.77Z" />
            <path class="bd25fe5b-504c-4a9b-b08e-3dd7a892ec1e"
                d="M3.29,225.06l-.2.21.16.09.1,0a.05.05,0,0,1,0-.05C3.3,225.24,3.47,225,3.29,225.06Z" />
            <path class="bd25fe5b-504c-4a9b-b08e-3dd7a892ec1e"
                d="M5.81,223.08A3.67,3.67,0,0,0,5.2,223l.1.26C5.44,223.21,5.59,223,5.81,223.08Z" />
            <path class="bd25fe5b-504c-4a9b-b08e-3dd7a892ec1e" d="M5.2,223l-.15-.4C4.93,222.91,5,223,5.2,223Z" />
            <polygon class="bd25fe5b-504c-4a9b-b08e-3dd7a892ec1e"
                points="4.49 222.15 4.53 222.15 4.75 222.14 4.45 224.56 4.36 225.29 4.5 224.62 5.02 222.1 4.58 222.09 4.4 222.09 4.49 222.15" />
            <polygon class="bd25fe5b-504c-4a9b-b08e-3dd7a892ec1e"
                points="5.67 223.63 5.76 224.02 5.67 223.49 6.68 220.55 6.59 220.51 6.66 220.55 5.66 223.48 5.67 223.63" />
            <path class="bd25fe5b-504c-4a9b-b08e-3dd7a892ec1e"
                d="M6.58,219.8a.36.36,0,0,0,.31-.06l-.59-1.38c.08-.12.12-.25.26-.24a1.28,1.28,0,0,0-.78-.19.4.4,0,0,1,.23.21.61.61,0,0,1,0,.17v.22H6l.54,1.26Z" />
            <path class="bd25fe5b-504c-4a9b-b08e-3dd7a892ec1e"
                d="M5,221.76H5l.32-3.89a2.42,2.42,0,0,0,.43.05,1,1,0,0,0-.42-.05L5,221.78Z" />
            <path class="bd25fe5b-504c-4a9b-b08e-3dd7a892ec1e" d="M4.76,223.36a.67.67,0,0,0,.49.15l-.38-.23Z" />
            <path class="bd25fe5b-504c-4a9b-b08e-3dd7a892ec1e" d="M4.85,223.27h0l.22-.17Z" />
            <path class="bd25fe5b-504c-4a9b-b08e-3dd7a892ec1e" d="M4.74,223.38l0,0S4.71,223.33,4.74,223.38Z" />
            <path class="bd25fe5b-504c-4a9b-b08e-3dd7a892ec1e"
                d="M4.09,221.28c-.12,0-.27,0-.4,0L4.17,223a.34.34,0,0,0-.48-.14l-.33-1.18v.09C3.66,221.65,3.63,221.35,4.09,221.28Z" />
            <path class="bd25fe5b-504c-4a9b-b08e-3dd7a892ec1e"
                d="M4.26,223.09,4,223.2l.54-.85-.06.1c.11,0,.28,0,.37.14l-.07-.17-.62,1Z" />
            <polygon class="bd25fe5b-504c-4a9b-b08e-3dd7a892ec1e"
                points="4.3 222.87 4.26 223.09 4.38 223.03 4.3 222.87" />
            <path class="bd25fe5b-504c-4a9b-b08e-3dd7a892ec1e"
                d="M5.37,218.61a.76.76,0,0,1-.49-.28,1.56,1.56,0,0,0,.26.57C5.26,218.85,5.51,218.78,5.37,218.61Z" />
            <path class="bd25fe5b-504c-4a9b-b08e-3dd7a892ec1e" d="M6,220.35l0,0S5.9,220.36,6,220.35Z" />
            <polygon class="bd25fe5b-504c-4a9b-b08e-3dd7a892ec1e"
                points="5.44 217.24 5.38 217.3 5.45 217.28 5.44 217.24" />
            <path class="bd25fe5b-504c-4a9b-b08e-3dd7a892ec1e"
                d="M5.09,219a.19.19,0,0,0,.12.17l.37.85a.55.55,0,0,0,.17.1.67.67,0,0,1-.06-.12l-.39-.9a.87.87,0,0,1-.16-.17C5.08,218.93,5.05,219,5.09,219Z" />
            <path class="bd25fe5b-504c-4a9b-b08e-3dd7a892ec1e"
                d="M5.26,221.25a1.37,1.37,0,0,0-.35,0C5.06,221.31,5.32,221.34,5.26,221.25Z" />
            <path class="bd25fe5b-504c-4a9b-b08e-3dd7a892ec1e"
                d="M6.05,220.24l0,0C6.15,220.2,6.11,220.21,6.05,220.24Z" />
            <path class="bd25fe5b-504c-4a9b-b08e-3dd7a892ec1e"
                d="M6.05,220.24a1.68,1.68,0,0,0-.3-.15.83.83,0,0,0,.19.23Z" />
            <path class="bd25fe5b-504c-4a9b-b08e-3dd7a892ec1e"
                d="M3.36,217.54c.22.22.27.61,0,.75l0-.15a.6.6,0,0,1-.07.27c.41.19,1.51-.54,2.06-1.11a.54.54,0,0,1-.22,0L4.8,219.6a.67.67,0,0,1,0-.48,2,2,0,0,0-.45,0l.25-1.54c-.07.23-.18.45-.44.37L4,217.87l-.14.87c.15-.25.34,0,.6-.05-.43-.17-.21-.74-.54-1.16v-.05a1,1,0,0,0-.21.16h0v-.28h0v0l0,.06,0,.12,0,.23C3.55,217.75,3.52,217.52,3.36,217.54Z" />
            <path class="bd25fe5b-504c-4a9b-b08e-3dd7a892ec1e"
                d="M5.61,217.93l.08.09.52.55-1,2v0l0,0,.35-.12L5.72,218a1.53,1.53,0,0,1,.28-.64.67.67,0,0,0-.55-.09l.24.67Z" />
            <path class="bd25fe5b-504c-4a9b-b08e-3dd7a892ec1e"
                d="M4.74,221.07c-.23-.39-.11-.76-.59-.94-.27.31,0,.46,0,.75l.19-2.27h0v0l-.19,2.29c.39-.53,0,.32.54.15a1,1,0,0,1-.13.27l.25-3.05.06.07v-.1l-.26,3.12a1.11,1.11,0,0,1,.3-.08h0c-.06,0-.09,0,0,0h0c0-.05-.06-.1-.09-.14.2-.08.1.06.09.14l0,0h0l.32-.65C5.05,220.67,4.93,220.8,4.74,221.07Z" />
            <path class="bd25fe5b-504c-4a9b-b08e-3dd7a892ec1e"
                d="M2.83,222.28a.16.16,0,0,1,.1,0C2.89,222.23,2.86,222.21,2.83,222.28Z" />
            <path class="bd25fe5b-504c-4a9b-b08e-3dd7a892ec1e"
                d="M3.16,222.09c0,.06.2.15.11.3s-.2-.06-.34-.1c.08.13.2.42.49.18l0-.06a1.28,1.28,0,0,1,.49-.27l-.32.5c.2.05.36.11.36.15a3.19,3.19,0,0,0-.56-.37l.24-.37A2.29,2.29,0,0,0,3.16,222.09Z" />
            <path class="bd25fe5b-504c-4a9b-b08e-3dd7a892ec1e"
                d="M4.74,220.5l-.19-.31-.19-.45-.2-.14-.11.37.12.29-.06.07.22-.06C4.3,220.61,4.56,220.49,4.74,220.5Z" />
            <polygon class="bd25fe5b-504c-4a9b-b08e-3dd7a892ec1e"
                points="5.21 219.9 5.42 220.17 5.93 217.01 6.05 216.98 6.01 216.98 5.48 220.22 5.25 219.59 5.21 219.9" />
            <polygon class="bd25fe5b-504c-4a9b-b08e-3dd7a892ec1e"
                points="5.67 219.31 5.95 219.6 5.91 219.35 6.05 215.83 5.99 215.82 5.99 215.87 5.86 219.3 5.67 219.31" />
            <path class="bd25fe5b-504c-4a9b-b08e-3dd7a892ec1e" d="M11.71,181.71l0-.05S11.7,181.69,11.71,181.71Z" />
            <path class="bd25fe5b-504c-4a9b-b08e-3dd7a892ec1e"
                d="M11.63,182l.14.13C11.69,182.07,11.63,182,11.63,182Z" />
            <path class="bd25fe5b-504c-4a9b-b08e-3dd7a892ec1e"
                d="M6.67,202.85l.53-.06.17-2.07c.16-.18.24-.3,0-.21L7,200.7a.75.75,0,0,1,.07.12l.27.68-.41,1.14A.38.38,0,0,1,6.67,202.85Z" />
            <path class="bd25fe5b-504c-4a9b-b08e-3dd7a892ec1e" d="M7.91,190.56l-.14.05.37.24Z" />
            <path class="bd25fe5b-504c-4a9b-b08e-3dd7a892ec1e" d="M7.05,188.92l.43.05A1.13,1.13,0,0,0,7.05,188.92Z" />
            <path class="bd25fe5b-504c-4a9b-b08e-3dd7a892ec1e"
                d="M16.39,175.77c0-.19.06-.39.1-.59C16,175.49,16.33,175.55,16.39,175.77Z" />
            <path class="bd25fe5b-504c-4a9b-b08e-3dd7a892ec1e"
                d="M5.7,209.79a2.17,2.17,0,0,0,0-.4l.46,2.05.07-.07-.22,0-.44-1.92C5.49,209.73,5.46,209.91,5.7,209.79Z" />
            <path class="bd25fe5b-504c-4a9b-b08e-3dd7a892ec1e"
                d="M15.48,184.17a.42.42,0,0,0-.22-.31A.41.41,0,0,0,15.48,184.17Z" />
            <path class="bd25fe5b-504c-4a9b-b08e-3dd7a892ec1e"
                d="M6.26,211.13H6.14c.05.09.1.17.06.23.17,0,.29-.05.12-.18Z" />
            <path class="bd25fe5b-504c-4a9b-b08e-3dd7a892ec1e"
                d="M30,167a.22.22,0,0,1,0-.08C29.91,167,29.92,167,30,167Z" />
            <path class="bd25fe5b-504c-4a9b-b08e-3dd7a892ec1e"
                d="M33.84,159.73a1.21,1.21,0,0,1,0,.26l-.34-1.4v0l.35,1.41A.46.46,0,0,0,33.84,159.73Z" />
            <path class="bd25fe5b-504c-4a9b-b08e-3dd7a892ec1e" d="M5.79,213.89c.13.24.06,0,0,0Z" />
            <path class="bd25fe5b-504c-4a9b-b08e-3dd7a892ec1e"
                d="M4.49,215.48a.31.31,0,0,0-.22,0A.36.36,0,0,1,4.49,215.48Z" />
            <path class="bd25fe5b-504c-4a9b-b08e-3dd7a892ec1e"
                d="M3.66,208.84v0C3.61,208.91,3.62,208.89,3.66,208.84Z" />
            <path class="bd25fe5b-504c-4a9b-b08e-3dd7a892ec1e"
                d="M5.76,214.33a1.47,1.47,0,0,0,0-.36A1.53,1.53,0,0,0,5.76,214.33Z" />
            <path class="bd25fe5b-504c-4a9b-b08e-3dd7a892ec1e"
                d="M5.93,214.21l.05.23C6.07,214.45,6.1,214.41,5.93,214.21Z" />
            <path class="bd25fe5b-504c-4a9b-b08e-3dd7a892ec1e"
                d="M5.68,213.69a1.42,1.42,0,0,1,.07.28c0-.05,0-.08,0-.08Z" />
            <path class="bd25fe5b-504c-4a9b-b08e-3dd7a892ec1e"
                d="M25,171.49l0,0h0l.65-.08c.15-.14.11-.14,0-.07l-.69.09Z" />
            <path class="bd25fe5b-504c-4a9b-b08e-3dd7a892ec1e" d="M3.32,196.91a0,0,0,0,1,0,0h0Z" />
            <path class="bd25fe5b-504c-4a9b-b08e-3dd7a892ec1e" d="M3.33,196.27c.34.48.21.56,0,.65l1.15.51Z" />
            <path class="bd25fe5b-504c-4a9b-b08e-3dd7a892ec1e"
                d="M14.3,178.13h0l-1.21.91H13l-.14,0a1.35,1.35,0,0,0-.33.12,1.93,1.93,0,0,1,0-.24l0-.15c0-.09,0-.17,0-.23l1.6-1.2c.16-.24.23-.28-.13-.55a1.56,1.56,0,0,1,.05.33l-1.71,1.28a.53.53,0,0,1,.09.45,5.34,5.34,0,0,1-.39.68,4.41,4.41,0,0,0-.24.8c0,.12,0,.41.19.55a.83.83,0,0,0,.25.16,1.63,1.63,0,0,1-.38.25c0-.08,0-.07,0-.2-.41.22-.19.33.09.45a2.11,2.11,0,0,1,.38.23c.06,0,.06.07-.06.07a1,1,0,0,1-.48-.17c0,.07,0,.06.11.22,0,0-.17-.08-.17-.12l.15.38,0,0c.17.18.46.54.45.67-.23-.08-.06-.14-.2-.25,0,.13,0,.26,0,.39-.29-.22-.36-.59-.23-.62-.56-.44-.49-.38-.44-.23s.07.17,0,.22-.22.13-.5.08l.24-.37a1.08,1.08,0,0,0-.49-.24h-.18l-.06-.05s0-.07-.1-.08a1.32,1.32,0,0,1-.31,0c.1.09.51.21.64.51s.41.47.42.67c-.07,0-.07-.06-.16,0a.53.53,0,0,0-.18.33c-.15-.26-.26-.28-.39-.21l-1,.54-.21,1.33a1,1,0,0,0,0,.15l-.63-.12a6.48,6.48,0,0,0,.76.4v0c-.13.06-.57-.12-.94-.3,0,0,.1.09.3.17s.45.15.47.29,0,0,0,0-.16.1-.22.18a.69.69,0,0,0-.12.29l1-.88a4,4,0,0,0-.51.75H9.11L8,187.66c-.13.19-.27.05-.4,0l1.31-2.27a.11.11,0,0,0,0-.09l-1.36,2.37,0,0L8,188c0,.07-.16.06-.24.05.21.25.64,0,.84.37.12,0,.17,0,.18.1l.95-1.3c-.2.07-.8-.57-1.14-.34l-1.34.92,0,.32a.41.41,0,0,0,.12.26c-.21.07-.36-.17-.6-.21l.14.42a2.28,2.28,0,0,0,.08.33,1.69,1.69,0,0,0,.5.82l-.16.12.54-.83-.43,0c.56.19.52.89.46,1.49l-.05.08,0,0H8l0,0,.51.24-.14.29.24-.37.12.38c-.12.05-.33-.05-.57-.21l.13.15c-.27.17-.61,0-.93-.24l.43-.15-.22-.14.19-.29a2.14,2.14,0,0,0-.4-.89.42.42,0,0,1,0,.24l-.52.79v0l-.09,0,.55-.84a.27.27,0,0,0-.08-.15h0l-.65.78,0,.18s.1.11.22.22H6l.27.09-.29.35.28-.68-.43.23c0,.15.11.31.17.47l-.27.73.45.43a5.34,5.34,0,0,1,.44.39,1.6,1.6,0,0,1,.33.8l.06-.08-.12.25c-.19-.54-.55-.66-1-1.12.14.06.23.07.3,0l-.36.56a.42.42,0,0,0,0-.35c0-.12-.12-.21-.15-.3a.15.15,0,0,1,0-.17c-.09.13-.37,0-.47,0l.1.09.18.24.12.41a.75.75,0,0,0-.24-.06L5.9,192c-.19-.13-.28,0-.52,0,.45.35.39.6.23.83l-.62,1,.21.39a1.77,1.77,0,0,0,.34.55c-.32.1-.67.1-.69-.34-.47.48.49.42.78.62l.2-1c0,.11,0,.19-.24.19,0-.09.13-.11,0-.24a.41.41,0,0,1-.09.34.24.24,0,0,1-.22.09.3.3,0,0,1-.21-.14l0,0,0,0,0,0a.92.92,0,0,0-.2.14,2.76,2.76,0,0,0-.29.3l-.37.41-.06.26a2.53,2.53,0,0,0-.07.38,4.66,4.66,0,0,0-.06.49c.06.56.26.81.6.9a9,9,0,0,1-1.17-.29l.44.27.21-.58c.5.7,1,1.42,1.48,2.15-.56-.49-2.25-1.09-2.29-1.78-.18.08-.35.13-.45.73v0h0c.23-.09,1.12.22,1.07.41a.89.89,0,0,1-.35,0c-.51.14-.37.26-1.07.41.13-.05.55.16.82.39l0,.68c.22,0,.4.06.41.16a10.22,10.22,0,0,1-1.23.24l1.24.36v-.46h0v.46a1.38,1.38,0,0,0-.82.21l0-.92a1.54,1.54,0,0,0-.43,0c.19,0,0,.36-.12.6l-.18.63.17.55a.27.27,0,0,0,.07.13l.08-.18,0-1.08.16-.09a.29.29,0,0,0-.05.13l-.14.68.13.33c.14.35.75.34,1.23.44l0-.48c.19.25.31.49.18.73-.18-.18-1.2-.81-1.49-.52l.07.07.12,1.66a13.74,13.74,0,0,1,2.57-.61l-.15,1a1.75,1.75,0,0,1,0,.81l-.31-.17-.12.52.46-1.4.08.07a.7.7,0,0,1-.18-.05l-.43,1.3a22.16,22.16,0,0,1-.69-2.46l-.19,1.35-1.07,0c-.06.38-.28.28,0,.62-.17.29-.52.07-.6,0l.16.39.54-3.78-.52.28c.29.3.17.61.13.89l-.74,2.22a.54.54,0,0,0,.52.12l-.21-.2.63-1.89.29-.95a2.24,2.24,0,0,1,.44,1.81l-.26.77a.7.7,0,0,1,.24.48c-.2.3-1.19.16-1.41.21a1.12,1.12,0,0,1,.41.48,1.7,1.7,0,0,1,.19.27l.06.13s0,0,0,0a.14.14,0,0,1,0,.06l-.12,0c-.06-.05-.13-.14-.17-.14l-.27-.14a.85.85,0,0,0,0,.17,1.87,1.87,0,0,0,.12.19c.09.11.15.1.24.14.08-.15.3-.06.34,0s0,.14-.15.25-.43.29-.51.36L2.3,205s0,.07.05.12a1.8,1.8,0,0,1,.37,0l-.12,1.11a12.62,12.62,0,0,1,3.29-.64.73.73,0,0,0,0,.08l-.07.72h0a8.52,8.52,0,0,1-1.35.49c-.66.05-1.22-.89-1.77-.85a1,1,0,0,1,.37.39c-.2.12-.51-.27-.56.14.21.09.25.21.23.3l-.1.52,0,.12c.05.17-.1.36.22,0l.06-.53,0,0v0l0,.51c.19.3-.09.38,0,.76l.18-.84,0,0a2.13,2.13,0,0,1,1,1.53,1,1,0,0,0-.34-.15v-.07l-.09.11a3.28,3.28,0,0,1,.27.8v-.24a4,4,0,0,0-.6.67l-.05.19c-.17,0-.44.35-.69.11a1.58,1.58,0,0,1,.26.42l.13.61H3a.17.17,0,0,1,.1.07c-.14.4-.24.22-.37.13l-.1,0-.1-.82c0-.14-.08-.26-.4-.15a.31.31,0,0,1,.15.1l.24,1.08c.31-.06.67.19,1,.27.35-.36-.09-.56-.46-.66l-.13-.57-.11-.26a2.41,2.41,0,0,1,.82.4h0a2.36,2.36,0,0,1,1.51.06l.21,1,0,.11c.08.6-.58.12-.49.24a.83.83,0,0,0-.06.29l-.13.29c-.18.42.12.83.2,1.17l0-1.82c.23,0,.39.16.37.55-.27.59-.9.58-1.19.85-.29-.21-.22-.51-.21-.77v.5a.41.41,0,0,0,.23-.17l-.3.13v-.27l-.15,0v.21c0-.2.07-.41.25-.45-.16,0-.32.11-.49.29l0,0,0,.08c.1.23.26.5.42.78l0-.2a3.49,3.49,0,0,1-1,.53l-.12,0v.52c.22.07.49.23.64,0l-.17-.22c.31-.39.75.23.8-.16a3.23,3.23,0,0,1,.64.41,1.54,1.54,0,0,1,.26.43.72.72,0,0,1,0,.41l-.07.81h0l-.61-.13a.29.29,0,0,0,.2,0l0-.56a.25.25,0,0,0-.06-.36c.12.07,0,.21,0,.38l0,.5c-.25.15-.55.31-.15.62l.53-.17c.06.18.18.4.27.62l-.27-1.85c.32,0,.62.15.69.42.35-.53-.12,0,.24-.72-.24.34-.39.18-.54,0l.34,2.33c.11-.26.26-.53-.3-.5a.89.89,0,0,0,.66-.18L6,215.55a3.16,3.16,0,0,1,.35-.82c-.18.08-.32.32-.35-.22l0-.07a.94.94,0,0,1-.22-.07v0s0,0,0,0a1,1,0,0,1-.07.23.39.39,0,0,1-.13.15.59.59,0,0,1-.14-.06,1.69,1.69,0,0,1-.51-.45,3.09,3.09,0,0,0-.34-.31l-.48,1.86a.5.5,0,0,0,0-.12c.23-.05.07.24.29.34l0-.46c.3.33.92.23.67.75l.38-.27a.67.67,0,0,0,.2,0l.58-.06.07-3.54a.61.61,0,0,0-.34-.63.2.2,0,0,0-.11-.13l-.08,3c0-.21-.13-.5,0-.23l.17-.68.36-.82v-.08l.11,0a1.67,1.67,0,0,0,0-.67l-.14-1.74-.27-.2a2.21,2.21,0,0,1-.71-.65l.39,1.72c0-.11.17-.2.41-.22l0,0a.3.3,0,0,1,.1-.4l.47-.3L6.2,208.3v-.05l.3-.26c-.17-.13-.19-.49-.27-.72l0,3.07a.24.24,0,0,0,0-.35.69.69,0,0,0,.72-.15l.33-.33.16-1.88a1.77,1.77,0,0,0-.15-.73l-.14,1.47a1.35,1.35,0,0,1,.16-.67l-.47-.2a1.35,1.35,0,0,0,.14-.62l.15-1.41c-.09-.22-.2-.45-.32-.69l-.43.16a.69.69,0,0,1-.17-.34,2,2,0,0,1-.1-.26l0-.15L6,204v-.11s0-.12,0,0a.65.65,0,0,0,0-.13.47.47,0,0,0,.06-.15s0-.07,0-.18a.12.12,0,0,1,.14.09s0,.06-.07.1.18-.09.21-.19a.64.64,0,0,0,0-.27l-.84,2.53c.28-.21.36-.67.53-1l1.15-2.3-.75-.48a.58.58,0,0,1-.31-.67.3.3,0,0,1-.19-.09l.15,2.07c0-.09.11-.13.2-.17a0,0,0,0,0,0,.05l0-.06c.1,0,.21-.07.31-.12a1,1,0,0,0-.3.08,1.15,1.15,0,0,0,.07-.5L6.56,201l0,0L7,200.7s0,0,0,0c.12-.23-.26-.08-.58.12a1,1,0,0,0-.35-.17c.29-.16.27-.25.2-.35v1.12c0-.16-.1-.37.39-.35a.53.53,0,0,1-.17-.36l0-1.07A1.14,1.14,0,0,0,5.38,199c.11,0,.15-.1.18,0V199l-.06.82c.15-.14.28-.32.12-.49l.58.22-.11-.11a2.64,2.64,0,0,1-.43-.59c.47,0,.73,0,1,.47-.19-.86,0-.72-.1-1.26l.18-.5a1.49,1.49,0,0,1-.22-.22l.39.08c0-.2-.31-.41-.25-.51s0,0,.12,0a.66.66,0,0,0,.27-.1,1.09,1.09,0,0,0,.23-.31l-.41.65a4.8,4.8,0,0,0,.72-.59l.31-.4.24-.29.44-.53-.15-.88a4.55,4.55,0,0,1-.07-.9l-.53,1.77a2.23,2.23,0,0,1,.51-.19c-.56-.4-.22-.34.06-.35l.49-.76c.18-.11.31-.23,0-.37.28,0,.53-.21.65.16a2.13,2.13,0,0,1,.12-.55,4.1,4.1,0,0,1,.17-.6.43.43,0,0,0,0-.35l-.36,1a.86.86,0,0,0-.11-.38c.27.1.26.34.44.37,0-.07-.1-.29.08-.26s.14.21.19.35a.59.59,0,0,0,0-.55l.37-.91a3.28,3.28,0,0,0-1.32-.54c.28-.15.37-.28.28-.44l-.55.84a1.25,1.25,0,0,0,0-.45c.24.15.55.27.28.57a5.85,5.85,0,0,0,.62-.28l.47-.27.22-.8a1,1,0,0,0,.05-.48c0-.14-.12-.17-.29-.23l.07,0c.08,0,0-.18,0-.26a3.53,3.53,0,0,1,.17-.39l-1,.91a2.4,2.4,0,0,0,.59-.16l-.16-.07c0-.6.21-.44.47-.41l.4.06.31-1a.39.39,0,0,0,0-.26h.08c.25-.47.17-.56.11-.65l-.66,1.15c.06-.09.12-.17.66-.09l-.25-.4c-.13-.32-.07-.41.08-.4l.25-.23c.19-.13.59-.11.88-.36a.54.54,0,0,0,.18-.42l-.36.1c-.08-.25.4-.3,1-.46.41-.13.85-.32.94-.51s.12.18.17.32c.65-.93-.33-.41-.6-.86l-1,1.47a.37.37,0,0,1,.08-.15c.26.25.31.82.66.7.12,0,.14-.09.39-.4s.22-.54.37-.74a1,1,0,0,1,.79-.45c-.32-.08-.6-.19-.44-.56.07-.1.31-.15.4-.23s.2-.15.31-.25.39-.43,0-.87a.35.35,0,0,1,.24.06,1.64,1.64,0,0,1,0-.58.78.78,0,0,0,0-.26h0l.2.08h0v0l0-.05,0-.1a.5.5,0,0,0-.11-.17,1,1,0,0,0,.57-.1.24.24,0,0,0,.12-.14.12.12,0,0,0,0-.1,7.17,7.17,0,0,0,0-.31c0-.09-.06-.2-.08-.29s.1-.34.58,0l.11-.18-.9.67.65-.29,0,.15.12,0L17,182l.51-.68a.79.79,0,0,0,.07-.84l-.91.67a2.45,2.45,0,0,0,.08-.29c.16.07.1.23.11.31a2.84,2.84,0,0,0,.66,0l.91-.19.38-1.12c.09-.29,0-.51-.26-.95l-.57.8,0-.28.3.4c0-.11.1-.11.25-.09l.25.09a.49.49,0,0,0,.14,0,1.61,1.61,0,0,0,.22,0l.57-.06.71-1.13a1.07,1.07,0,0,0,.18-.81L19.09,179l0,0a.3.3,0,0,1,0,.12l1.67-1.24a.22.22,0,0,1,.07.09v-.07l-1.72,1.29a1.11,1.11,0,0,1,.88,0l.86-.27c.26,0,.54-.06.77-.11l.33-.07.82-1.61c.21-.42.23-.79-.57-1.08v0l-1.51,1.37.58-.46c-.82-.1.09-.79-.26-1.07.15-.06.36.06.49.21l.21-.09c.18,0,.33.13.26.28l-.46.2h0l-.06-.08a.49.49,0,0,0,.12.46l.71-.3c.24,0,.46-.26.68-.33l-.78.35a.28.28,0,0,1,.19.27c.22,0,.44,0,.65,0l1.21-.05.26-1.36a9.6,9.6,0,0,1,.25-1.06l-2.05,1.48.95.35.89.32,1.05-1.14c.34-.37.69-.72,1-1.07l-.9.69.34-.12-.43-.61.5-.16h0l-.75.1c.08.14.09.39-.06.47l1-.13a.25.25,0,0,1-.17.12c.09.09.17.08.23,0l-1.07.14a1.08,1.08,0,0,0,.51-.56c.69.39-.39.81-.17.86l.31,0-.06-.09c.15-.14.23-.28.35-.38l1.94-1.25a.48.48,0,0,1,0-.46c.22-.23.47,0,.53-.11s.09,0,.07-.15l.06-.14-2.52,1.46.48.16-.13-.62c.35-.21.6.17.45-.54a.83.83,0,0,0,.29.48h.6a1.75,1.75,0,0,0,.76,0l.48-.07.47-.55c.17-.21.33-.45.47-.66l-.65.53.38-.18a2.21,2.21,0,0,1,.39-.13.42.42,0,0,1,.14,0,1.94,1.94,0,0,1,.41-.67l-.83.18a2.13,2.13,0,0,1,.69.08c-.11-.12-.11-.68.21-.68h.55l.09-.4a.36.36,0,0,1,0-.09c1,.5.9-.22,1.44-.47l-1.45,1.18a1,1,0,0,1,.26.32c-.24-.36.26-.4.55-.57l1.42-.83,0-.37c0-.21-.13-.36-.52-.28.2-.31.48.12.86-.06a1.77,1.77,0,0,1,0-.46,2.53,2.53,0,0,1,0-.49c0-.12.05-.24.08-.36l.12-.36-.44-.9c-.13-.26-.22-.55-.34-.84l.32,1.65.16-.33.1-.27,0-.08,0-.16c-.16-.08-.47,0-.65-.29l.62-.16-.25-1.7.16-.37c-.19-.12-.94.42-.67-.24-.09.13-.22.32-.35.24v-.06l.13,1.42a3.67,3.67,0,0,0,.5-.62l.27-.4-.25-.93a6.34,6.34,0,0,0-.26-.73l-.08,1.5q.2-.35.36-.72l.2-.43v-.91l0-.77-.34-.38c-.2-.22-.39-.44-.57-.68L33.3,162a6,6,0,0,1,.11-.7l-.39.94a3.58,3.58,0,0,1,.82-.52l.55-.24L34,159.31a3.62,3.62,0,0,1-.07-.83c-.11.43-.25.3-.39.13,0,.16-.35.25-.53.41V159l.24.94.62-.63-.34-1.35v-.15c-.41.17-.54-.2-.74-.39l.27,1.28a.32.32,0,0,0-.24-.35l0,.3a1.16,1.16,0,0,0-.92-.2l-.07-.35a4.92,4.92,0,0,1-1.08,1.37c.27-.05.35.06.37.24l-.21-.81c-.15.19-.49.39-.63.63l.29,1.19c.06.23.22.38.67.33-.07.24-.32.08-.46.27a.71.71,0,0,1,.44,0l.09-1.85c0,.16-.15.27-.37.37l-.05-.1a2.83,2.83,0,0,1-.3.35l-.32.32-.07.61a4.48,4.48,0,0,1-.17.7l-.07.19.42,1c.11.26.2.54.32.87l-.4-1.44c-.09.2-.18.42-.27.68l.27-.83h0l.1,0-.26.8.38,0,0,.06.22-.66a.87.87,0,0,1-.45.17c.3.4.38,0,.54-.12l-.2.63c.05-.12.15-.18.43-.05a.84.84,0,0,0-.19.07l.17-.53c-.31,0-.5.28-.67.55l-.41.63.32.89a2.45,2.45,0,0,1,.22.75l0-1.48a.62.62,0,0,1-.65.17c-.17.37.55.12.37.49l-.19,0,.18,2-.07.1.37-.14c.1.25-.12.58-.32.73,0-.07-.16-.11-.22-.15a.55.55,0,0,0,.24.51l-.34-2.3c0,.25,0,.5-.07.54l.3-.31c0,.1,0,.2,0,.3l0,.15-.06.23-.09.44-.08.36-.23,1,.58.78c.17.24.34.48.53.7l-.39-1.53c0,.12,0,.24,0,.37a.44.44,0,0,0,0,.2l.05.18a3.06,3.06,0,0,0,.05.32h.24a1,1,0,0,1,0,.22l1.23-1.07c-.4.21-.53,0-.85,0L30.5,168l-.76,1.12a1.07,1.07,0,0,0-.16.48l0,0a.78.78,0,0,1,.1.62l1.45-.89-.13,0c.26-.23-.36-.55,0-.81a1.63,1.63,0,0,0-.62.31l-1.15.26a7.57,7.57,0,0,1,.05.91,2.23,2.23,0,0,1-.27-.26l0,.26a.48.48,0,0,1-.27.51c.21-.44-.49-.4-.28-.95a.84.84,0,0,0-.37-.05l-.8.64a1,1,0,0,0-.33.76l1.05-.7c-.23.21-.42.34-.75-.18a.62.62,0,0,0,0,.13h.86c-.12.19-.14.32-.1.42h-.67c.23.23.79-.09.65.1.26.27-.15.78-.46.79h.28l0,0c-.24-.07-.23-1-.63-1.36l-.32-.32L25,171.31a.67.67,0,0,0-.2.31c0-.07,0-.09,0-.17-.3.18.09.56-.21.78l2.17-1.39a.39.39,0,0,1-.08-.1c-.28.59-.45-.1-.61.68l.62-.08-1.62,1v-.1a.36.36,0,0,0,0,.11l1.57-1c-.29.17-.62.61-1,.61h-.29l-.07,0a.6.6,0,0,1-.43.05,1.47,1.47,0,0,1,.17-.6c-.27-.14-.28.28-.55.14-.14-.43.1-.53.37-.66l.33-.16.62,0a.83.83,0,0,0,.71-.22c-.16-.36-.87.46-.55-.36a.68.68,0,0,1-.11.21l-1.13.15c0,.49-.36.32-.62.42l-.49.18-.39.5a.52.52,0,0,0,0,.56l-.36-.3c0,.11.08.39,0,.51l-.33-.59c.14.56-.6.49-.82.8l2.85-1.2a.26.26,0,0,0-.17,0l.16,0-2.79,1.17c.4-.47.53.28,1,.17a.78.78,0,0,1-.11.41l1.72-.73c-.46-.1-.23-1-.76-1.3l-1.84-.94-1.5,3.34a.82.82,0,0,0-.06.37c0-.1.11-.27.26-.34l3.1-2.24a.21.21,0,0,1-.05.26l-2.79,2,0,0a1.4,1.4,0,0,1-.61.57c0,.77.5,0,.75.31-.2.06-.25.12-.22.19l2-2c-.14.08-.22.51-.44.66l0-.48a.45.45,0,0,0-.33,0l-1.28.57c-.18.34.63.74-.05,1l-.21-.71-.17.37,1.28-.54h0l0-.21-1.41.59-.19-.28v.08l1.59-.67a.67.67,0,0,1-.86.17l-.9-.27-1.34,2.29-.05.09c.36-.05.86.18.82.56-.32.22-.43-.21-.44.34-.28-.17-.64-.36-.16-.53-.16,0-.29-.16-.44-.21a.63.63,0,0,0-.21.69l1.32-1.95a.44.44,0,0,1-.15.13.33.33,0,0,1,.22,0l-1.26,1.85s0,0,0,0v0l1.25-1.82-.32.89.81-.25,0,0a.33.33,0,0,1,0-.43l-1,.3v0l1-.31c-.14.08-.24.29-.46.34,0-.39,0-.8.31-1l-.72.5,0-.06-2.26,1.68c-.19,0-.53.18-.61.05-.15.12-.13.33-.08.57l2-1.83a2.19,2.19,0,0,1-1,.7,1.09,1.09,0,0,1-.35.15.72.72,0,0,1-.19.37,1.13,1.13,0,0,1-.36.13h0l-1.08,1.54a1.63,1.63,0,0,0-.38.78l2-2A1.09,1.09,0,0,0,16,177l-.52-.58h0l-1.87,1.38c0,.24.25.24.5.32L15.57,177a.41.41,0,0,1,.08.3l-1.35,1a.46.46,0,0,1,0,.38c-.12.6-.62-.14-.89-.08v0l1.49-1.17c-.1.3-.25.77-.54.92l-.89.45-.18.35c-.07.13-.19.2-.51.35a.68.68,0,0,1,.15-.33l.07-.09,0,0v0h0l1.22-.91Zm-3.22,4.68c-.05-.09,0-.49.2-.3C11.5,183,11.21,182.91,11.08,182.81Zm-4.15,8.05a.12.12,0,0,1,0-.16l-.16.39c0-.06.11-.12.22-.19a.33.33,0,0,1,0,.23l.14-.33ZM5.86,212.49h0C5.86,212.17,5.84,212.29,5.86,212.49ZM5,215.76a.2.2,0,0,0,.1.18c0-.12,0-.2.17-.26C5.19,215.61,5.08,215.58,5,215.76Zm23.47-43.09-.15.06C28.27,172.46,28.37,172.56,28.49,172.67Z" />
            <path class="bd25fe5b-504c-4a9b-b08e-3dd7a892ec1e"
                d="M7.15,189.11a.66.66,0,0,1,.19.18A.18.18,0,0,0,7.15,189.11Z" />
            <path class="bd25fe5b-504c-4a9b-b08e-3dd7a892ec1e" d="M16.38,175.88l0,0a.29.29,0,0,0,0-.09Z" />
            <path class="bd25fe5b-504c-4a9b-b08e-3dd7a892ec1e"
                d="M2.36,206.17a.52.52,0,0,1,.31-.13C2.56,206,2.45,206,2.36,206.17Z" />
            <path class="bd25fe5b-504c-4a9b-b08e-3dd7a892ec1e"
                d="M6.13,217.57v-.36c0,.16-.16.18-.26.23C6,217.47,6.16,217.47,6.13,217.57Z" />
            <path class="bd25fe5b-504c-4a9b-b08e-3dd7a892ec1e"
                d="M3.55,219h0v0c0,.06-.07.07-.06.14l.17.14a.41.41,0,0,0,.07-.11l.08-.21,0,0C3.68,218.76,3.55,218.77,3.55,219Z" />
            <path class="bd25fe5b-504c-4a9b-b08e-3dd7a892ec1e"
                d="M4.39,216c-.31.27-.06.35.14.49,0,0,0,0,0,0C5,216.14,4.69,216.05,4.39,216Z" />
            <path class="bd25fe5b-504c-4a9b-b08e-3dd7a892ec1e"
                d="M4.58,216.5a.46.46,0,0,1,.14.17C4.92,216.55,4.7,216.57,4.58,216.5Z" />
            <path class="bd25fe5b-504c-4a9b-b08e-3dd7a892ec1e"
                d="M4.65,216.39c-.09,0,0,.15.09.27l.82-3.14c.09,0,.15,0,.09,0,.12,0,.14-.06.11-.09l-.89,3.39C5,216.68,4.9,215.93,4.65,216.39Z" />
            <polygon class="bd25fe5b-504c-4a9b-b08e-3dd7a892ec1e"
                points="3.45 216.94 3.79 216.57 3.39 216.71 3.45 216.94" />
            <path class="bd25fe5b-504c-4a9b-b08e-3dd7a892ec1e"
                d="M3.72,215.06l0,.15,0,.29a.16.16,0,0,1,.19.07l0-.4C3.83,215.08,3.79,215,3.72,215.06Z" />
            <path class="bd25fe5b-504c-4a9b-b08e-3dd7a892ec1e"
                d="M3.89,215.57a.36.36,0,0,0,.14.29A.76.76,0,0,0,3.89,215.57Z" />
            <polygon class="bd25fe5b-504c-4a9b-b08e-3dd7a892ec1e"
                points="3.26 216.44 3.4 216.37 3.53 216.13 3.26 216.44" />
            <path class="bd25fe5b-504c-4a9b-b08e-3dd7a892ec1e"
                d="M4.59,212l0-.15,0-.32,0,0-.24-.16c-.16.07-.18.23,0,.31h.06l0,.13C4.39,211.85,4.43,212,4.59,212Z" />
            <path class="bd25fe5b-504c-4a9b-b08e-3dd7a892ec1e" d="M2.87,212.46a.81.81,0,0,1,.42.07l-.5-.37Z" />
            <path class="bd25fe5b-504c-4a9b-b08e-3dd7a892ec1e"
                d="M3.1,211.66a.9.9,0,0,1-.19-.25l.22,1.07c-.15,0-.27,0-.17.13l-.26-1.25a1,1,0,0,0,0,.12C2.83,211.56,2.87,212,3.1,211.66Z" />
            <polygon class="bd25fe5b-504c-4a9b-b08e-3dd7a892ec1e"
                points="4.19 206.14 4.16 206.25 5.11 206.6 4.19 206.14" />
            <path class="bd25fe5b-504c-4a9b-b08e-3dd7a892ec1e"
                d="M1.91,202.2a.33.33,0,0,0,0,.1l.15-1.92c-.22.28.56.32.13.58.17.2.38-.23.51,0a1.76,1.76,0,0,1,0-.27l-.11,1.46C2.42,202,2.34,202,1.91,202.2Z" />
            <path class="bd25fe5b-504c-4a9b-b08e-3dd7a892ec1e"
                d="M2.7,200.93a1.38,1.38,0,0,0,.08.2A.43.43,0,0,0,2.7,200.93Z" />
            <polygon class="bd25fe5b-504c-4a9b-b08e-3dd7a892ec1e"
                points="33.56 156.98 33.55 156.79 33.99 158.88 34.13 158.75 33.84 158.84 33.42 156.88 33.39 156.97 33.56 156.98" />
            <path class="bd25fe5b-504c-4a9b-b08e-3dd7a892ec1e"
                d="M33.25,158.25l.65.07-.53-.32C33.38,158.08,33.4,158.23,33.25,158.25Z" />
            <path class="bd25fe5b-504c-4a9b-b08e-3dd7a892ec1e"
                d="M8.05,184.69l.15,0a.36.36,0,0,0,.16,0L10,182.28a.74.74,0,0,0,.18,0l-.28-.14-1.72,2.58Z" />
            <polygon class="bd25fe5b-504c-4a9b-b08e-3dd7a892ec1e"
                points="11.31 181.45 11.28 181.45 11.84 181.67 11.31 181.45" />
            <path class="bd25fe5b-504c-4a9b-b08e-3dd7a892ec1e"
                d="M12.89,177.94a.63.63,0,0,0-.11.28l1.89-1.48a.46.46,0,0,1-.16.07.22.22,0,0,1,.17,0l-1.87,1.47C13,178.12,13.4,178.23,12.89,177.94Z" />
        </g>
    </g>
</svg>