<?xml version="1.0" encoding="UTF-8"?>
<svg id="_圖層_1" data-name="圖層 1" xmlns="http://www.w3.org/2000/svg" viewBox="0 0 377.86 376.7">
  <defs>
    <style>
      .cls-1 {
        fill: #d66d43;
      }
    </style>
    <filter id="inset-shadow">
      <feOffset dx="5" dy="5" /> <!-- Shadow Offset -->
      <feGaussianBlur stdDeviation="4" result="offset-blur" /> <!-- Shadow Blur -->
      <feComposite operator="out" in="SourceGraphic" in2="offset-blur" result="inverse" />
      <!-- Invert the drop shadow to create an inner shadow -->
      <feFlood flood-color="black" flood-opacity="1" result="color" /> <!-- Color & Opacity -->
      <feComposite operator="in" in="color" in2="inverse" result="shadow" /> <!-- Clip color inside shadow -->
      <feComponentTransfer in="shadow" result="shadow">
        <!-- Shadow Opacity -->
        <feFuncA type="linear" slope=".75" />
      </feComponentTransfer>
      <feComposite operator="over" in="shadow" in2="SourceGraphic" />
      <!-- Put shadow over original object -->
    </filter>
  </defs>
  <path class="cls-1" filter="url(#inset-shadow)"
    d="M280.32,132.52c1.18,1.8,2.66,3.47,3.49,5.42,16.28,38.33,.92,84.15-35.9,104-30.07,16.22-60.86,31.11-91.34,46.57-14.45,7.33-28.92,14.61-43.37,21.93-1.87,.95-3.37,1.98-5.46-.14-14.11-14.31-28.37-28.47-42.78-42.88,.51-1.08,.96-2.07,1.45-3.03,22.09-43.67,44.15-87.36,66.3-131,12.34-24.32,31.94-39.45,58.66-44.91,17.32-3.54,34.19-1.47,50.33,5.91,1.24,.57,2.37,1.39,4.11,2.43-1.13,.63-1.61,1.1-2.11,1.14-10.64,.7-18.64,6.15-25.64,13.74-4.91,5.31-10.17,10.3-15.32,15.39-2.52,2.49-3.57,5.18-.68,7.89,2.74,2.56,5.29,1.2,7.56-1.08,6.24-6.27,12.46-12.56,18.77-18.76,9.84-9.66,23.46-9.83,32.92-1.45,10.77,9.54,10.45,25.26,.99,34.68-6.27,6.24-12.49,12.53-18.77,18.77-2.51,2.5-4.32,5.16-1.11,8.22,2.99,2.84,5.56,1.06,7.9-1.29,6.36-6.38,12.76-12.72,19.09-19.13,6.01-6.08,8.98-13.58,10.93-22.43Z" />
  <path class="cls-1" filter="url(#inset-shadow)"
    d="M247.37,51.86c-.12-7.24,2.54-11.48,7.6-13.53,4.86-1.97,10.96-1.33,13.55,2.97,6.91,11.47,18.1,14.21,29.88,15.68,12.93,1.62,20.27,8.45,22.28,21.3,.59,3.78,1.96,7.44,2.64,11.22,1.55,8.53,5.98,14.94,13.05,19.94,7.71,5.45,8.53,15.68,1.47,21.47-2.68,2.2-7.06,3.72-10.46,3.39-12.11-1.17-24.14-3.23-36.18-5.06-.98-.15-1.98-.93-2.72-1.67-10.21-10.22-20.3-20.56-30.59-30.69-2.85-2.8-4.73-5.64-5.27-9.77-1.59-12.23-3.6-24.41-5.24-35.25Z" />
  <path class="cls-1" filter="url(#inset-shadow)"
    d="M60.19,277.41c13.26,13.23,26.3,26.24,39.55,39.46-.84,.53-1.82,1.28-2.9,1.83-11.85,6.03-23.7,12.07-35.59,18.03-7.49,3.75-14.12,2.99-19.05-2.03-5.09-5.18-5.68-11.23-1.75-19.03,6.35-12.58,12.74-25.14,19.13-37.71,.13-.26,.46-.43,.6-.55Z" />

</svg>