<svg id="b1573993-6b09-4ad0-9b97-27429baa9ca5" data-name="圖層 1" xmlns="http://www.w3.org/2000/svg"
    viewBox="0 0 468.58 463.32">
    <defs>
        <style>
            .a30c99a5-d6a1-4a7c-b92d-7c3c3fb9b5a9 {
                fill: #f8f4e4;
            }

            .f6619578-e547-4922-b22a-74804c80e12a {
                fill: none;
                stroke: #f8f4e4;
                stroke-miterlimit: 10;
            }
        </style>
    </defs>
    <title>未命名-1</title>
    <path class="a30c99a5-d6a1-4a7c-b92d-7c3c3fb9b5a9"
        d="M447.52,259.65c0-.26-3,0-3-.31s-2.45,0-2.51-.23,3.14-1.19,3.08-1.45.5-.67.43-.93.14-.6.07-.85-4.61,1-4.69.77.61-.67.52-.91,2.43-1.47,2.33-1.72-2.18.42-2.28.18.74-.86.63-1.09,2.9-2,2.78-2.28-2.66.82-2.79.58,3.56-2.66,3.42-2.89-3.71,1.59-3.85,1.36-3.06,1.41-3.21,1.19,5.7-4.49,5.55-4.7-.48-.41-.63-.62-1.93.72-2.09.51.12-.81,0-1-.74-.12-.91-.32-2.74,1.7-2.91,1.5,3.58-4,3.4-4.21-5,4.07-5.21,3.89,1.21-1.9,1-2.09-2.49,1.91-2.68,1.72,1.94-2.82,1.75-3-2.59,2.22-2.79,2,3.51-4.95,3.31-5.12-2.26,1.94-2.47,1.77-2.1,1.94-2.31,1.78-.43-.18-.65-.34.89-2.07.68-2.22,2.47-4.6,2.25-4.74-1.26.86-1.48.71-3.91,5.29-4.14,5.16,0-.87-.23-1,2.73-5.79,2.5-5.92-.94.51-1.17.38-3.1,4.82-3.34,4.7.2-1.44,0-1.55-.49-.09-.73-.2,0-1.24-.22-1.35.46-2.37.22-2.47-1.35,1.9-1.59,1.8-1.47,2.43-1.71,2.33.62-3.08.38-3.17-1.54,3-1.79,2.87.74-3.8.49-3.88-.5-.13-.76-.21.27-2.86,0-2.93-.86,1.07-1.12,1-1.08,2.15-1.34,2.09-.44-.34-.69-.4-.68.77-.94.72-.54.23-.8.18-.65.94-.91.89.27-5,0-5-.95,3-1.21,3-.55.46-.82.43-.59,1.09-.85,1.07-.42-.76-.68-.78-.25-4.19-.52-4.2-.67,2.92-.93,2.91-.5-.12-.77-.12-.51-3.44-.77-3.44-.62-.8-.89-.79-.64-.59-.92-.58-.38,4-.65,4-.61,0-.88,0c0-.09,1.51,1.75,1.48,1.65.25-.06-.32.32-.07.25s-1-5.44-.78-5.52,1.26,2.4,1.51,2.32.12-1.24.37-1.32,1.85,3.51,2.09,3.42.45-.45.69-.55-.76-3.25-.52-3.36,1.16,1.32,1.39,1.21-.3-1.86-.06-2-.07-1.21.16-1.33,2.16,2.93,2.39,2.81-.1-1.29.12-1.42-1.12-2.81-.9-2.95,1.14.91,1.36.77-1.18-2.53-1-2.68,2.57,2.76,2.78,2.61.83.22,1,.06,1.07.44,1.27.27-1.84-2.89-1.64-3.07.21-.44.4-.62,4,3.36,4.23,3.17,1.24.3,1.42.11-1.76-2.39-1.59-2.58-3.39-3.47-3.22-3.67,5,3.26,5.14,3-1-1.45-.88-1.66-3.45-2.9-3.31-3.12,6,3.14,6.1,2.92-3.61-2.71-3.49-2.94-1.57-1.32-1.45-1.55.07-.39.18-.63,4.11,1.3,4.21,1.06.7-.31.79-.56-1.14-1-1.06-1.21-.22-.6-.15-.85-1.76-.94-1.7-1.2,4.61.54,4.67.28,1.43-.36,1.47-.62-1.35-.82-1.32-1.08-4.79-1-4.76-1.28,5-.15,5-.41-.45-.6-.44-.86,2.28-.63,2.27-.89-.36-.64-.38-.9.49-.7.46-1-4.78,0-4.81-.27,2.69-1,2.65-1.23-5.64.59-5.69.33,4.77-1.58,4.71-1.83-2.26,0-2.33-.2,3.51-1.65,3.43-1.9-6.52,1.69-6.61,1.45,2-1.23,1.91-1.47.54-.75.43-1,3-2,2.9-2.21-6.28,2.52-6.4,2.29,4.69-3,4.57-3.27,1.81-1.72,1.67-1.95-4.82,2.27-5,2-1.34.31-1.49.09.33-.8.18-1-1.76.71-1.92.5,0-.54-.17-.75,4.84-4.62,4.67-4.82-3.23,2-3.41,1.82.81-1.45.63-1.64,1.12-1.87.94-2.06-.91.05-1.1-.13-5,4.47-5.16,4.29,3.59-4.7,3.4-4.88-.82.09-1-.08,0-.86-.22-1-2.46,2.26-2.67,2.09.41-1.38.19-1.54S411,190.1,410.76,190s3.67-6.3,3.45-6.45-1.32.91-1.55.77-3.34,4.35-3.57,4.21-.88.57-1.11.43.66-2.12.43-2.25,2-4.79,1.75-4.91-3.9,6.38-4.14,6.26-.2-.62-.44-.74,2.06-5.61,1.82-5.73-1.67,2.39-1.91,2.28-.62.12-.87,0,1.2-4.49,1-4.59-3.07,6.56-3.32,6.47,0-1.53-.21-1.62-1.12,1.83-1.38,1.75,1.57-6.65,1.31-6.73-1,1.44-1.27,1.37-1.18,2.26-1.43,2.19-.09-1.77-.34-1.84-1.27,3.11-1.52,3-.17-1.55-.43-1.6.56-5.6.3-5.65-1.18,3.28-1.44,3.23-1,2.72-1.23,2.68-.47-.2-.73-.24-.2-2.55-.47-2.58-.86,3.31-1.13,3.29,0-5.55-.3-5.57-.68,1.59-.94,1.58-.71,3.68-1,3.67-.36-5.17-.63-5.18-.58,1.42-.85,1.42-.47,5-.74,5-.68-6.64-.94-6.63-.28,5.65-.55,5.67-.7-3.07-1-3.05-.15,4.13-.42,4.15-.81-3.13-1.07-3.1-.81-2.15-1.07-2.12.17,4.8-.09,4.84-1.16-3.94-1.42-3.89,0,2.82-.26,2.87-1.5-4.56-1.76-4.51.75,5.65.5,5.71-1-1.78-1.22-1.72-.53,0-.78.08-.78-.79-1-.71.65,3.6.4,3.68-2.78-6.45-3-6.37-1.28,5.47-1.51,5.55c.18-.13,2-2.74,2.15-2.88s1.86,1.52,2,1.37,2.08,1.46,2.28,1.29-1.37-2.37-1.18-2.55-.32-1.12-.14-1.3-.86-1.53-.69-1.72,2.79,1.76,3,1.56-1.37-1.86-1.21-2.06,3.85,2.22,4,2-.61-1.24-.46-1.46-.41-1-.27-1.23-5-3.61-4.84-3.83.3-.26.42-.49,1.53.33,1.64.1,1,0,1.1-.27-.44-.67-.35-.91,3.61.78,3.69.54-.61-.79-.53-1,.56-.43.62-.68,2.35-.08,2.4-.34-1.55-.92-1.5-1.18-1.95-.84-1.92-1.1,1.54-.37,1.56-.63,2.66-.46,2.67-.72-5.37-.67-5.37-.93,1.68-.52,1.67-.78.36-.55.34-.81.74-.63.71-.89-.87-.44-.91-.69-3.25.11-3.3-.14,5.8-1.84,5.73-2.09-2.16-.05-2.23-.3-1.68,0-1.76-.3-2.17.26-2.25,0,2.85-1.61,2.75-1.86.27-.71.16-1-4.18,1.43-4.29,1.19,2.63-1.87,2.51-2.1-.45-.33-.59-.56-3.11,1.33-3.25,1.11,4.88-3.73,4.74-4-3.61,1.83-3.76,1.61,1.33-1.59,1.18-1.8-2.17,1.05-2.33.85-2,1.12-2.2.92.95-1.4.77-1.59-.05-.57-.23-.77,1.69-2.35,1.5-2.53,1.49-2.35,1.3-2.53-1.77,1.07-2,.89-3.63,3.39-3.83,3.22,3.78-5.33,3.58-5.5-.54-.27-.75-.43-4,4.43-4.21,4.28-.11-.63-.32-.78,2.95-5.25,2.73-5.4-3,3.65-3.26,3.51-1.73,1.91-2,1.77,3-6.13,2.81-6.26-2.85,4-3.08,3.84.71-2.39.47-2.51-.44-.31-.68-.43-.9.66-1.14.55.87-3.21.63-3.32-2.64,4.78-2.88,4.67-.91,1-1.15.9.53-2.7.29-2.8.5-2.92.25-3-1.94,4.08-2.19,4,.14-2-.11-2.12.35-3.07.1-3.14-.33-.95-.59-1-.35-1-.6-1.08-1,1.71-1.27,1.66-1.64,5.1-1.9,5-.48.06-.74,0,.58-6.16.32-6.2-1.2,4.08-1.46,4-.54.32-.8.28-.24-2.23-.5-2.26-.28-2.64-.55-2.66-1,5.47-1.26,5.45-.08-6.81-.34-6.83-.77,4.19-1,4.18-.59,2.54-.85,2.53-.46-4-.72-4l-.82,0c-.26,0-.58-1.06-.84-1s-.36,4.17-.62,4.19-.8-4.25-1.06-4.23-.07,5.53-.33,5.56-.62-1.35-.88-1.32-.55-.34-.81-.31-.4.68-.66.72-1-3.09-1.28-3,.35,4.79.09,4.84-.47,0-.72,0-1.49-4.35-1.75-4.29.3,3.39.05,3.45-1-1.62-1.21-1.55-1.81-4.2-2.07-4.13,1.14,5.46.89,5.55.26,2.22,0,2.31-2-4.11-2.28-4-1.11-1.27-1.35-1.17,0,1.49-.23,1.59,1.46,4.5,1.23,4.61-1.4-1.84-1.64-1.73-2.82-4.29-3.05-4.17,0,1.35-.19,1.47,2.95,6.14,2.72,6.28-.53-.07-.75.07-1.82-2-2-1.82-1.2-.84-1.42-.69-.49.23-.7.39-1.53-1.06-1.74-.9,2.55,4,2.33,4.18-4.93-4.62-5.15-4.42,2.32,3.35,2.11,3.56c-.1,0-.5-.08-.59-.13.14-.23-.44-1-.3-1.25s3.34,1.19,3.47.95,1.42,0,1.53-.28-3-2-2.87-2.24-3-1.7-2.91-2,5.68,1.47,5.76,1.22-.88-.91-.81-1.17,2.77.05,2.83-.2-3.92-1.47-3.87-1.73-.81-.65-.78-.91,3-.18,3.06-.44-4.38-.86-4.37-1.12,0-.42,0-.68,6.81-.66,6.8-.93-.49-.68-.51-.94-5.37,0-5.4-.3.92-.62.87-.88.5-.62.45-.88,1.83-1,1.77-1.28-.84-.39-.92-.65-3.53.61-3.61.36.92-.83.82-1.08-2.07.37-2.18.13,1-.95.91-1.19-1,0-1.14-.22-1.28.24-1.41,0,3.29-2.52,3.14-2.74-2,.69-2.12.47,2.17-2.15,2-2.37-.75-.13-.91-.34-1.83.81-2,.6-2.32,1.4-2.49,1.2,3.19-3.55,3-3.75,1.7-2.46,1.51-2.65-4.61,3.94-4.81,3.75.12-.82-.08-1-.54-.11-.74-.29,3.53-5.14,3.32-5.31-2.32,2-2.53,1.82-2.58,2.62-2.8,2.46.66-1.79.44-1.94.11-1.1-.12-1.25.94-2.55.72-2.69-.25-.77-.48-.9-1.38,1.23-1.62,1.1-1.17,1-1.4.88,1.11-3.48.87-3.59-3.54,6.13-3.78,6,1.84-5.33,1.6-5.44-.66.06-.9-.05-.06-1.43-.31-1.53-2.34,4.62-2.59,4.53.95-4.27.69-4.36-2.27,5.17-2.53,5.09.12-2.06-.14-2.14,0-1.87-.25-1.94-.05-2-.31-2-2.15,6.55-2.4,6.49.07-2.41-.19-2.47-.24-1.31-.5-1.36-.23-1.62-.49-1.66-1,2.57-1.22,2.53.1-4.27-.16-4.31-.6.2-.86.17-.49-.78-.75-.81-1,5.44-1.29,5.42-.21-4.16-.48-4.17-.48-1.56-.74-1.57-.62,1.46-.89,1.45-.57,3.19-.83,3.19-.56-5.37-.82-5.37-.56,1.19-.83,1.2-.62-1-.88-1-.33,4-.59,4-.41,1.21-.67,1.24-.52-.18-.78-.16-1-4.11-1.28-4.08-.3,2-.56,2.07-.88-2-1.14-2,0,3.24-.25,3.28-.89-1.72-1.15-1.66-.78-.91-1-.86,1,6.54.77,6.6-1-2.17-1.3-2.1-.17,1.2-.42,1.27-1.95-4.6-2.2-4.52-.19,1.25-.43,1.33-.34.71-.58.8-.83-.64-1.08-.55-.71-.24-.95-.14-.8-.39-1-.28,1.33,4.2,1.09,4.31-1.61-2.13-1.84-2-.22.77-.45.89-.88-.47-1.11-.34,1.46,3.51,1.23,3.65-3.48-4.63-3.7-4.49,1.38,3.14,1.16,3.29-.85-.3-1.06-.14,1.95,3.47,1.74,3.63-2.76-2.74-3-2.58-.67,0-.87.22-2.54-2-2.73-1.8-.35.58-.54.76.52,1.4.34,1.59,2,2.68,1.87,2.87-.27.42-.44.62-4-2.52-4.15-2.31,4.41,4.05,4.26,4.26-.87,0-1,.17-1.15-.17-1.29,0,2.94,2.28,2.81,2.51-6.24-2.88-6.37-2.64,1.65,5.2,1.49,5.55c0-.37-2-3.89-2-4.27s2.45-.59,2.44-.86-2.16-.29-2.19-.55,1.09-.62,1-.88,4.11-1.34,4.06-1.6-6.92,1-7,.78-.36-.28-.44-.53,3.73-1.67,3.64-1.92,1.35-1.11,1.26-1.36-.07-.62-.18-.87-2.26.43-2.38.19-2.32.67-2.45.44,4-2.87,3.88-3.1-5.08,2.54-5.22,2.32,1-1.19.84-1.41,2.41-2.39,2.25-2.6,0-.72-.19-.93-.93,0-1.1-.18-1.83.92-2,.72-1.46.73-1.64.54-.14-.52-.33-.7-1.26.7-1.46.52,3-4.21,2.82-4.38-.91.22-1.12,0,1.23-2.54,1-2.7-.79,0-1-.12-.45-.42-.67-.57-3.33,4.06-3.55,3.92,1.22-3,1-3.09-.78.23-1,.1-.16-.83-.4-1,.73-2.67.5-2.79-4.05,7-4.29,6.88.53-2.23.29-2.34-.85.77-1.1.66.71-3,.47-3.13-1.59,2.72-1.84,2.63-.68.53-.93.44,1.83-7.07,1.58-7.15-1.58,3.13-1.83,3-1.52,3.45-1.77,3.38-.18-1.12-.44-1.18-.27-.92-.53-1-.12-1.8-.38-1.86-1.2,3.4-1.46,3.35,0-2.65-.26-2.7-.47-.35-.73-.39-.33-1.38-.6-1.42-.56.19-.82.16-.36-1.91-.63-1.94-1,5.88-1.28,5.86,0-7.42-.3-7.43-.79,5-1.06,5-.43-4.09-.69-4.1-.58,6-.85,6-.49-1.28-.76-1.27-.53-.93-.79-.92-.81-5.29-1.08-5.27,0,7.8-.28,7.82-.77-3.13-1-3.1-.46.54-.73.57-.28,1.78-.54,1.81-.85-2.37-1.11-2.33-.81-1.57-1.07-1.52-.53.2-.79.25-.84-1.23-1.1-1.17.21,3.41,0,3.48,0,2-.26,2.11-1.28-2.79-1.54-2.72-1.13-1.89-1.38-1.81.86,4.54.61,4.62-2.32-5.16-2.57-5.07.22,2.32,0,2.41-1.4-2-1.65-1.92.61,3,.37,3.1.67,2.8.43,2.91-1.77-2.56-2-2.45,1,3.16.76,3.28-1.76-2.25-2-2.12-2.28-2.91-2.51-2.78,3.57,7.12,3.34,7.26-2.55-3.19-2.78-3-1.44-1.18-1.66-1,3.08,5.3,2.87,5.45-5-5.91-5.23-5.75-.87-.08-1.07.09,2.89,4.4,2.69,4.57-1.25-.65-1.45-.47-1.69-1-1.88-.8-1.42-.56-1.61-.37,2.2,2.89,2,3.08.24.9.06,1.1-3-1.8-3.19-1.59,4,3.75,3.81,4-2.69-1.36-2.84-1.14-.56.28-.71.5-3.52-1.45-3.65-1.22,6.61,4.35,6.48,4.58-7-3-7.11-2.76-.07.71-.18,1,4.4,2.45,4.3,2.7-3.49-.71-3.57-.46-.74.43-.81.68-.9.44-1,.7.65.82.6,1.08-1.1.48-1.14.74,6.12,1.39,6.09,1.65-4.38.11-4.39.37,1.52.64,1.52.91,4.13.43,4.14.68-6.6.76-6.58,1,1-.12,1,.14c-.11,0,3.61-1.52,3.5-1.5-.09-.25-1,.87-1.06.63s1.95-1.6,1.84-1.84-6.13,2.48-6.25,2.24,4.17-2.92,4-3.15-1.06-.06-1.2-.28-.38-.45-.53-.67-1.17.15-1.33-.06.67-1.23.51-1.43,1.14-1.75,1-2-5.5,4.16-5.68,4-.57,0-.75-.21-.43-.16-.62-.34-.65.12-.85-.06,4-5.27,3.75-5.44-.08-.85-.29-1-2.69,2.57-2.9,2.42.56-1.66.34-1.81,1.24-2.85,1-3-1.74,1.59-2,1.45.14-1.35-.08-1.49-1.52,1.49-1.75,1.37-2,2.65-2.25,2.53,1-3.09.78-3.21-.94.73-1.18.62.8-3.11.56-3.21-2.32,4.08-2.56,4,.4-2.37.15-2.47-2.07,4.18-2.32,4.09.63-3.22.38-3.31-1.2,2.15-1.45,2.08.36-2.9.11-3-1,1.89-1.29,1.83.7-4.81.44-4.87-.66.34-.92.29-.52-.27-.77-.32-.36-1.18-.62-1.23-1.42,5.13-1.68,5.09-.65,1.1-.91,1.07,0-3.4-.3-3.43-.5-.26-.76-.29-.78,3-1,3-.34-2-.6-2-.27-5.13-.53-5.15-.73,4.49-1,4.48-.52.17-.78.17-.49,2.47-.75,2.47-.63-5.59-.9-5.58-.62-1.11-.88-1.1-.53,1-.79,1,0,6.67-.28,6.69-1.25-7.72-1.52-7.69-.12,3.89-.38,3.93-.23,2.1-.49,2.13-1.35-5.31-1.61-5.27.66,7,.4,7-.59-.62-.85-.57-.31.79-.57.85-1.12-2.69-1.37-2.63.32,3.27.07,3.33-1.38-3.23-1.63-3.16.14,2.27-.11,2.35-.7-.59-1-.51-2.4-5.4-2.65-5.31-.3,1-.55,1.06-.8-.4-1.05-.3,2,6.4,1.77,6.5-.78-.6-1-.49.28,1.73,0,1.84-.59-.15-.82,0-1.8-2.41-2-2.29-.12.86-.36,1-3-4-3.19-3.9,2.51,5.22,2.28,5.36-3.47-4.4-3.69-4.25,3.93,6.78,3.71,6.93-2-2-2.23-1.88-.69-.07-.89.09,0,.83-.2,1-2-1.57-2.19-1.4,2.14,3.2,1.94,3.37-3.81-3.31-4-3.13,3.73,4.51,3.54,4.7-3.66-2.82-3.84-2.62-1.76-.8-1.94-.6-.51.38-.68.59,4.05,3.89,3.89,4.1-2-.89-2.17-.68,2.57,2.34,2.42,2.56-5.55-3-5.69-2.74,2,1.84,1.86,2.07-2.6-.77-2.72-.53,3.91,2.55,3.8,2.79-1.82-.3-1.93-.06-4.08-1-4.18-.78-.27.63-.35.88,5.13,2.22,5.05,2.48.84.67.77.93-6.35-.89-6.41-.63-.46.61-.5.88,3.84,1.15,3.81,1.42,3.54.78,3.52,1.05-3.86.25-3.87.52,1.94.5,1.94.77-1.77.55-1.76.82-2.66.81-2.63,1.08-.12.67-.08.94,2.42.19,2.47.45,3-.17,3.08.09,1.23.09,1.3.34-6.42,2.56-6.33,2.81,3.59-.66,3.68-.42,1.4,0,1.5.21.88.09,1,.33-.78.77-.69.95.57,4.38.67,4.55c-.16-.14-2.2-3.36-2.37-3.5s1.07-2,.9-2.15-3,3-3.2,2.85,2.07-3.7,1.85-3.85-.07-.93-.29-1.07-.66-.06-.89-.2-1.06.64-1.28.5.65-2.29.42-2.42-.68,0-.91-.15-2.2,3.09-2.44,3,0-1.19-.25-1.3,1-3.66.77-3.77-2.46,4.41-2.71,4.31-1.56,2.69-1.8,2.59,2-7,1.76-7.09S132,142,131.77,142s-.81.93-1.06.86-1,1.89-1.29,1.82,1.22-6.54,1-6.6-1.71,4.74-2,4.68-.65.76-.9.71.86-7,.6-7-1.26,3.85-1.52,3.8-.51-.13-.77-.17-.39-1-.65-1-.33-1.93-.6-2-1,5-1.29,5-.33-2.1-.59-2.12-.67,2.75-.93,2.74-.31-4.64-.57-4.65-.59,2.12-.85,2.12-.5,2.51-.76,2.51-.46.61-.72.62-.57-2.94-.84-2.93-.78-4.7-1-4.69-.54.69-.8.71-.48,1.17-.74,1.2-.39,1.5-.66,1.53-.41.94-.67,1-1.19-4.37-1.45-4.33-.54.43-.8.47-.06,2.9-.32,2.95-.23,1.55-.49,1.61-1.08-2.44-1.34-2.38-.69-.41-.94-.34-.81-.8-1.07-.73.76,4.77.51,4.84-1.37-2.72-1.62-2.64-.47.39-.72.47.91,4.25.66,4.34-2.16-4.42-2.4-4.32,1.31,4.85,1.07,4.95-1.29-1.86-1.53-1.76-1-.9-1.21-.79-.43.35-.67.46,1.31,3.85,1.08,4-.6-.17-.83,0-.73-.37-1-.24-1.8-2.17-2-2-1.16-.89-1.39-.76-1.87-1.9-2.09-1.76,2.6,5,2.38,5.15,0,.92-.18,1.07.25,1.14,0,1.3-1.94-1.78-2.14-1.62-1.74-1.33-1.94-1.17,2,3.2,1.8,3.37-4.18-4-4.38-3.78.27,1.18.08,1.36,1.35,2.18,1.17,2.37-2.78-1.93-3-1.74,4.37,4.76,4.2,5-.8-.11-1,.09-3.86-2.52-4-2.32-.7.21-.85.42-.51.37-.66.58.33,1,.18,1.16-1.85-.46-2-.24-.46.48-.59.7,3.56,2.63,3.44,2.86,2.47,1.76,2.36,2-6.62-2.52-6.72-2.29,2.09,1.55,2,1.79,4,2,3.86,2.27-4.6-1.07-4.68-.83,2.28,1.23,2.2,1.48,1.24.79,1.18,1-.06.41-.12.67-3.53-.16-3.57.1,4.08,1.05,4,1.31-7.37-.21-7.4.05,5.81.91,5.8,1.17-5.56.44-5.56.7,6.37.4,6.38.66.4.37.42.64-6.07,1.15-6,1.41,3.19.12,3.24.37-.51.64-.46.89-1.36.9-1.29,1.16,0,.63.06.88,2.82-.33,2.91-.08-.49.72-.4,1,3.17-.82,3.28-.58-5.07,2.9-5,3.14,3.41-1.13,3.53-.89-2.09,1.78-2,2,1.16,0,1.3.18-.63,1.1-.48,1.32-.63,1.2-.48,1.41.66.28.82.49,1.87-.8,2-.6.56.22.73.42-1.47,2.19-1.28,2.38.78.07,1,.25,2.45-1.82,2.64-1.64-2.06,3.22-1.86,3.39,2.3-2,2.48-1.84.08.67.27.81-.37,1.32-.18,1.46,5.16-3.51,5.35-3.38c-.07.07-3.51-.17-3.58-.1-.23-.1-.71,2.35-.94,2.25s-.71.48-.94.39-1,1.42-1.25,1.34.22-2.11,0-2.18.42-3.13.17-3.21-.89,1-1.14.9-.78.74-1,.68-1.25,2.9-1.51,2.84-.39-.45-.65-.5.69-6.13.43-6.19-1.53,5.33-1.79,5.29.06-3.74-.2-3.78-1,3.42-1.29,3.38-.08-3.83-.35-3.86-1.12,6.07-1.38,6.05-.25-3.05-.51-3.07-.41-2.19-.67-2.21-.55-.25-.82-.25-.63,5.79-.89,5.79-.49-5.26-.75-5.26-.44,4.24-.71,4.25-.65-4-.91-4l-.81.05c-.27,0-.54.12-.81.14s-.63-.86-.89-.83-.08,4.07-.35,4.1S74.23,181,74,181s-.57-.24-.83-.2-.37,1-.63,1.07.1,3.23-.16,3.29-1-2.46-1.25-2.41-1.14-2.69-1.4-2.64-.5.31-.76.38-.52.19-.77.26-.23,1.2-.49,1.27-1.08-1.68-1.33-1.6-.28,1-.53,1.06-1.16-1.61-1.41-1.53-.9-.73-1.14-.63.45,2.81.2,2.91,1.09,4.05.84,4.15-.85-.74-1.09-.64-1.08-1.16-1.32-1.05-.41.36-.65.48-.27.61-.51.73-2-2.67-2.25-2.55,1.41,3.69,1.18,3.82-.07.87-.3,1-3.7-5.09-3.92-5,.3,1.61.08,1.75,2.53,4.79,2.31,4.94-4.32-5.29-4.54-5.14,4,6.41,3.78,6.57-3.24-3.43-3.45-3.27.16,1.07-.05,1.24-2.48-2.08-2.68-1.91,1,2,.78,2.18-.84-.08-1,.1-.5.31-.69.5.53,1.31.34,1.5-.4.37-.58.56,2.4,2.83,2.22,3-1.66-.8-1.83-.59.16.75,0,1,1.12,1.44,1,1.65-1.94-.84-2.1-.62.58,1,.43,1.18-3-1.33-3.13-1.1-1.66-.34-1.79-.12,5.15,3.47,5,3.7-2.31-.71-2.43-.48,1.89,1.42,1.78,1.65-7.6-2.82-7.7-2.58.4.87.31,1.11,6.58,3,6.5,3.26-6.14-1.52-6.22-1.28-.57.48-.64.73,3.36,1.46,3.3,1.72-1.23.26-1.28.52-3.42,0-3.46.23,6,1.45,6,1.71-1.91.27-1.94.53-1.76.41-1.77.67,1.82.61,1.81.87-1.63.53-1.62.8-.24.58-.23.84-.6.63-.58.89,2.14.32,2.18.58-3.25,1.1-3.21,1.35,2.94,0,3,.29,1,.31,1,.56,1.57.07,1.64.32-2.55,1.34-2.46,1.58.76.3.86.55-1.34,1.14-1.23,1.39.28.52.4.75,2.44-.59,2.56-.36-3,2.27-2.88,2.5,5.29-2.5,5.43-2.27-.58.89-.43,1.11-4.53,3.78-4.38,4,1.44-.27,1.6-.06S49.8,221,50,221.22s-2.29,2.6-2.12,2.8.5.29.68.48-1.37,2.14-1.19,2.33.3.6.49.78,1.71-1,1.91-.81,1.11-.45,1.31-.28,1.72-1.32,1.93-1.16,1.15-.76,1.36-.6-2.37,4.17-2.15,4.32,2.8-3.22,3-3.08,1.23-1.12,1.45-1-3.39,6.67-3.16,6.81,3.49-5.11,3.72-5-.64,2.22-.4,2.34,2-3,2.27-2.92-.05,1.15.19,1.26.27.5.52.6-1.86,5.92-1.61,6,2.7-5.55,3-5.46-.24,2.12,0,2.21-.39,2.89-.15,3-.43-2.66-.19-2.58c-.27,0,1.17-3.42.9-3.43s-.63,3.31-.9,3.31-.48,3.31-.74,3.32-.62-3.63-.88-3.62-.53.25-.8.26S58,233,57.73,233s-.85-3.74-1.12-3.72l-.83.08c-.26,0,0,4.92-.21,5s-1.17-4.55-1.43-4.52-.48.61-.73.66.5,5.84.24,5.88-.53-.3-.78-.25-1.76-5.74-2-5.68-.11,2-.36,2.07.45,3.88.2,3.94-1.15-2.37-1.41-2.3-1.9-4.57-2.15-4.49-.07,1.77-.32,1.85-1-1.17-1.25-1.09,0,1.82-.23,1.91.76,3.6.51,3.69-2.41-4.67-2.65-4.57-.51.34-.75.44,1.31,4.41,1.07,4.51.52,2.33.28,2.45-3.34-5.77-3.58-5.66,1.31,3.85,1.08,4-2.58-3.71-2.81-3.58,1.51,3.91,1.28,4-2.12-2.58-2.34-2.45-.44.42-.66.55.48,1.83.26,2-.09.86-.31,1,2.1,4,1.88,4.1-4.2-5-4.41-4.87.2,1.22,0,1.38-.52.23-.73.4-.66.07-.86.24.54,1.5.34,1.67-1-.3-1.18-.12-.6.17-.8.35-1.48-.72-1.67-.54.77,1.59.59,1.78,2,2.66,1.86,2.85-1.6-.78-1.78-.58-.56.2-.73.4-2.32-1.19-2.48-1,4.72,4.39,4.56,4.6-2.77-1.5-2.92-1.29-1.18-.2-1.33,0-1.5-.35-1.65-.13-.4.42-.54.65,2.85,2.34,2.72,2.56,1.41,1.32,1.28,1.55-1.12-.09-1.24.14-4.89-1.85-5-1.61,2.19,1.63,2.08,1.87-1.39,0-1.49.23,2.12,1.41,2,1.65,2.55,1.4,2.46,1.65-2.32-.31-2.4-.06-5-.91-5.08-.66,1.57,1,1.51,1.29-2.6,0-2.66.28,2.18,1.05,2.13,1.31.59.67.55.93,2.61.87,2.58,1.13,1.88.63,1.86.89-7.49.05-7.51.31,7,.76,7,1,0,.42,0,.68-5.15.7-5.14,1-1.71.75-1.69,1,3.27.25,3.3.52-3.54,1.12-3.49,1.38,8.18-.93,8.23-.67-5.33,1.65-5.27,1.9,4.23-.55,4.3-.29-4,1.7-4,2-1.33,1.08-1.24,1.33,5.23-1.36,5.33-1.11-1.2,1-1.09,1.25-3.68,2.3-3.57,2.54.91.26,1,.5,5.47-2.36,5.6-2.13-2.32,1.91-2.18,2.13,3.29-1.52,3.43-1.3-3.68,3.08-3.53,3.3.69.19.85.4.76.09.92.3-1.65,2.11-1.48,2.31,3.29-2.17,3.47-2-1.09,1.74-.91,1.94-.84,1.65-.65,1.84,1.68-.94,1.87-.76-.94,1.93-.74,2.1,1.86-1.33,2.07-1.16,1-.42,1.22-.26-.74,1.9-.53,2.05.71,0,.92.13-1.2,2.9-1,3,1.69-1.55,1.92-1.42,2.67-3.48,2.9-3.35-.77,2.41-.54,2.54,2.1-3,2.34-2.85-.91,2.92-.67,3-.57,2.54-.33,2.65.57.13.82.23,2.59-5,2.84-4.94-1.71,5.95-1.46,6,1.44-2.42,1.69-2.33-.52,3.4-.27,3.48.91-1,1.16-.91.09,1.86.35,1.93,2-5.46,2.21-5.4-.61,5-.35,5.08,1.71-5.62,2-5.57-.35,4.65-.09,4.69,1.38-5.18,1.64-5.14-.09,4,.18,4,.94-3.5,1.2-3.47,0,4.74.28,4.77.88-4.18,1.14-4.16.16,5.53.43,5.54S52,285,52.26,285s.44.84.71.85.48,4.39.74,4.39.55-2.61.84-2.62S55,286,55.32,286s.5-.39.79-.4.31,5.12.6,5.1c0,.1,2.68,1.85,2.7,2-.29.07-3-4-3.24-4s-1.23-2.07-1.51-2,1,5.24.69,5.32-.84-.81-1.12-.71.2,2.08,0,2.17-.81-.82-1-.72-2.45-4.84-2.69-4.74.17,1.93-.07,2,.75,3.08.51,3.19-.11,1-.35,1.06-1.92-2.87-2.16-2.75.44,2.07.21,2.19-1.45-1.65-1.68-1.53-1-.6-1.19-.47.11,1.3-.12,1.43.64,2.11.41,2.24-1.66-1.69-1.88-1.55-1.43-1.18-1.65-1,1.17,2.72,1,2.87-1-.54-1.24-.38.79,2,.58,2.13-.7-.09-.91.07-3.43-3.44-3.64-3.27,4.4,6.17,4.2,6.34-1.49-1-1.69-.83,1,1.82.8,2-4.27-3.85-4.46-3.67,3.55,4.4,3.37,4.59-5.84-5-6-4.85,3.74,4.3,3.56,4.5-1.35-.55-1.52-.35-2.55-1.5-2.72-1.3,1.34,1.85,1.17,2.05.14.78,0,1,.52,1,.36,1.25,1.8,1.88,1.64,2.1-3.86-2.09-4-1.87-2.27-.83-2.41-.61,1.19,1.42,1.05,1.65-2.76-1-2.89-.74,6.69,4.37,6.56,4.6-6.48-2.87-6.6-2.63,4,2.6,3.87,2.84,1.6,1.26,1.49,1.5-.77.13-.88.38-3.4-.87-3.5-.62,3.66,1.9,3.57,2.15-5.89-1.52-6-1.27-.07.59-.14.85,1.44,1,1.37,1.26,2.27,1.11,2.21,1.36.48.59.42.85,1.54.75,1.49,1-1,.25-1,.51.52.5.49.76-5.56-.13-5.58.14-2.13.43-2.15.69,5.72.85,5.71,1.12-.54.46-.54.72-4.15.58-4.15.84-1,.67-1,.93,1.48.52,1.51.78,5.88-.08,5.91.18-1.82.69-1.78.95-1.83.81-1.78,1.07,4.37-.39,4.42-.13-2.61,1.05-2.55,1.31-1.88,1-1.81,1.27,2.46-.19,2.54.07,1.75-.11,1.84.14-1.8,1.14-1.71,1.38-1.48,1.14-1.38,1.38-1.82,1.41-1.71,1.65.58.39.69.63,2.83-.82,2.95-.59-3.84,2.76-3.71,3,.37.54.5.76,5.84-3,6-2.79,1.66-.6,1.81-.38-2.86,2.6-2.7,2.81-2.18,2.35-2,2.56,4.16-2.67,4.33-2.46.78-.07.95.12.75-.09.93.11-.66,1.24-.48,1.43.31.36.49.54-.37,1.11-.18,1.29,2.31-1.92,2.51-1.75-2.64,3.9-2.44,4.07,2.9-2.87,3.11-2.71-2.7,4.43-2.49,4.59,0,1,.2,1.17,1.95-1.88,2.17-1.74.86-.39,1.08-.25,2-2.44,2.24-2.3-2.56,5.49-2.33,5.62,2.38-3.3,2.61-3.18-.86,2.82-.62,2.94-.2,1.71,0,1.82,1.86-2.78,2.1-2.68-.7,3-.46,3.14,2.69-5.34,2.93-5.25-1.31,4.93-1.06,5,1.67-3.21,1.92-3.13.44.21.69.29-.33,2.84-.08,2.91.42.53.67.6.78-.88,1-.82.91-1.67,1.17-1.61-.08,2.86.17,2.91,0,2.91.29,3,1.21-3.74,1.47-3.7-.05,4.12.21,4.16.83-1.81,1.09-1.78.71-1.37,1-1.34.69-1.82,1-1.8.3,3.25.56,3.27.69-2.83.95-2.82.55-1.52.81-1.52.48.74.74.74.55,3.88.81,3.87.5-2.21.76-2.22.69,3.1.95,3.09.43-2.31.69-2.32.49-.62.75-.65.2-3.12.46-3.15.29-1.53.55-1.56.69,1.66,1,1.63.8,1.91,1.06,1.87,1.31,4.34,1.57,4.29-1-8-.73-8,.93,2.13,1.19,2.07,1.61,4.69,1.87,4.63l.82-.2c.25-.06-.38-3.59-.13-3.66s1.07,1.8,1.32,1.72,1,1.34,1.25,1.26-.4-3.07-.15-3.15-.27-2.37,0-2.45.86.72,1.14.62-.6,1.86-.32,1.75c-.24.17-.62-2.93-.86-2.75s.07,1.12-.16,1.31-1.49-.9-1.69-.74,2.41,3.7,2.22,3.87-1.58-1-1.77-.81-.84-.1-1,.08,1,1.79.77,2-1.32-.58-1.51-.4,1.92,2.57,1.74,2.76.93,1.5.76,1.69-4-2.88-4.16-2.68,3.47,3.61,3.3,3.81-6.7-4.79-6.86-4.59,2.81,2.93,2.65,3.14,2.57,2.54,2.42,2.75-2.57-1.24-2.73-1,1.71,1.76,1.57,2-5.35-2.84-5.49-2.62,1.7,1.72,1.56,1.95-1,0-1.17.25,1.94,1.7,1.82,1.93,2.59,1.9,2.47,2.13-2.62-.79-2.74-.56-5-1.75-5.13-1.51,1.56,1.34,1.46,1.58-.53.41-.62.65,2.81,1.67,2.72,1.91,1.33,1,1.25,1.24-1.73-.06-1.81.19.37.63.29.88-2.37-.12-2.44.13,2.08,1.05,2,1.31-4.9-.54-5-.28,5.33,1.61,5.29,1.87-2.08.15-2.12.41,2.63.87,2.59,1.13-5.87-.17-5.89.09,4.73,1,4.71,1.25,1.58.56,1.57.82-2.65.37-2.65.63-.57.5-.57.77.14.51.15.77-3,.69-3,.95.06.59.09.85,1.46.45,1.49.71,5.24-.16,5.28.1-3.75,1-3.71,1.3-3.92,1.3-3.87,1.55,4.46-.34,4.51-.09-1.82,1-1.76,1.25.88.34,1,.59.29.48.37.73-.93.9-.85,1.15,2.23-.23,2.32,0-3.6,2-3.5,2.27,1.27.12,1.38.36-.35.83-.24,1.07.6.38.72.62,2-.39,2.08-.15,0,.6.18.83.79.17.93.39-.06.69.09.91.44.36.59.58-.25.86-.09,1.07,4.57-2.84,4.73-2.63-4.39,4.14-4.22,4.35-.5,1.2-.33,1.4,3.62-2.47,3.8-2.27,1.54-.78,1.72-.59-4.49,5.16-4.3,5.35,3.74-3,3.93-2.85,1.69-1.11,1.89-.93-3.93,5.29-3.73,5.46,3.64-3.46,3.84-3.29-1.19,2.35-1,2.51.88-.23,1.09-.07,2.5-2.61,2.72-2.46-1.38,2.9-1.16,3,1.33-1.08,1.55-.94,0,1,.21,1.15,1-.74,1.25-.61-1.47,3.76-1.24,3.89.37.56.6.68,1-.81,1.29-.7,1.43-1.78,1.67-1.67-.77,3.11-.52,3.21.18,1.11.43,1.2,1.13-1.29,1.38-1.19.42.51.67.59,2-4.36,2.3-4.28-.49,3.21-.23,3.29.27,1,.52,1.09,1.82-4.75,2.08-4.68-.66,4.69-.4,4.75,1.45-4.07,1.71-4-.66,5.78-.4,5.83.94-2,1.21-2,.38,1.06.64,1.1.58-.18.85-.15,1.07-4.49,1.34-4.46-.17,6.57.09,6.6,1.1-6.62,1.37-6.6.06,6.88.33,6.9.72-3.35,1-3.34.5,1.47.77,1.47.55,2.1.81,2.1.58-.9.85-.9l.84-.05c.26,0,.61.62.87.6s.62.39.89.37.36-2.57.62-2.6.58.26.85.23,0-4.66.21-4.69,1.23,5.09,1.49,5.05.57-.06.83-.11.31-1.4.57-1.44.59.16.85.11-.22-3.46,0-3.52.83,1.35,1.09,1.29.66.52.92.45,1.38,3,1.64,2.92-.18-2.6.08-2.67-.19-2.32.07-2.4,1.65,3.3,1.9,3.22,0-1.78.2-1.87.73.4,1,.31-.48-2.63-.23-2.73.27-.63.51-.73,2.52,4.43,2.76,4.32-.11-1.59.13-1.7-1.59-4.46-1.35-4.58,1.45,1.8,1.69,1.68,2.19,3,2.42,2.86-.31-1.72-.08-1.85-.75-2.34-.52-2.47.4-.3.63-.44,1.79,1.88,2,1.74-.58-1.84-.36-2,1.61,1.43,1.83,1.28,1.42,1,1.64.87-.43-1.54-.22-1.7.94.31,1.15.15-.48-1.49-.27-1.66,1.82,1.31,2,1.14-2.69-3.87-2.5-4,.24-.39.42-.56,2.22,1.69,2.39,1.52,1.39.7,1.56.53.16,1.5.33,1.33c.11.06-1.53-3.31-1.42-3.24-.16.25-2.26-.91-2.42-.66s3.86,3,3.71,3.29-3.71-1.46-3.85-1.2-1.11.14-1.24.4,1.5,1.41,1.39,1.64,3.42,2.21,3.31,2.45.34.65.23.89-2.89-.73-3-.48-.81.23-.9.47-3.33-.65-3.42-.4,4.31,2.08,4.22,2.33-1.91-.08-2,.17.69.75.62,1,2.27,1.12,2.21,1.37-2.18,0-2.24.21,1.05.74,1,1-4.83-.4-4.88-.14,6.07,1.56,6,1.82-7-.5-7.08-.24,4.75,1.13,4.72,1.39-.88.42-.9.68,3.43.71,3.41,1-8,.17-8,.43,5.78.67,5.78.93-4.29.56-4.29.82,1.27.54,1.28.8,2.81.36,2.83.63-.2.5-.18.77-1.18.63-1.15.89-1.66.77-1.62,1,.57.48.62.74,1.72.22,1.77.48,3.08-.16,3.14.1-5.86,1.91-5.79,2.16,6.14-1.08,6.21-.83-.94.74-.86,1-.1.51,0,.76,0,.51.07.76-1.65,1.14-1.56,1.39-1.73,1.28-1.63,1.53,1.9-.23,2,0,2.57-.64,2.68-.4-2.86,2-2.74,2.21,1.71-.3,1.83-.07-1.83,1.63-1.7,1.86,2.43-.81,2.57-.59-2,1.88-1.87,2.1,1.89-.59,2-.37-2.47,2.4-2.32,2.61,1.41-.3,1.57-.09,0,.75.14,1,2.14-1,2.3-.81,1.52-.61,1.69-.41-2.09,2.56-1.91,2.76-.76,1.5-.58,1.69,2.58-1.72,2.77-1.53,2.26-1.6,2.46-1.41.06.62.25.8-2.82,4-2.63,4.15,4.15-4.06,4.36-3.9-.92,1.9-.72,2.06-1.8,3.21-1.59,3.37,1.78-1.45,2-1.3,2.42-2.55,2.64-2.4-.13,1,.09,1.17.5.11.73.25-1.32,3.12-1.09,3.26-1.09,3-.86,3.16,1.75-1.95,2-1.82,1.68-2,1.92-1.92,1.36-1.64,1.6-1.52-2.29,6-2.05,6.16,2-3.15,2.28-3,1.7-2.75,2-2.65-.38,2.23-.13,2.33-.17,1.93.07,2,0,1.67.25,1.76,2.36-5.43,2.61-5.34-.42,3-.17,3.05.33.75.58.83.78-.9,1-.83-.11,2.62.15,2.68.73-.74,1-.69,0,3,.22,3.05,1.49-5,1.75-4.95.61-.67.87-.63.57-.62.83-.59.35,1.11.61,1.14.56-.69.82-.66.35,1.63.61,1.65.4,1.95.66,2,.69-3.8,1-3.79.46.06.73.06.47,3.83.73,3.83.48-3.46.75-3.47.65,4.79.92,4.78.64,1.33.91,1.31.15-5.85.41-5.87.55.65.81.63,1,4.7,1.3,4.67.11-3.63.37-3.66,1.07,3.56,1.33,3.52-.57-6.84-.31-6.88.47,0,.73-.05,1.84,6.53,2.1,6.48.74.61,1,.55-.66-5.15-.41-5.21,1,1.69,1.24,1.62.08-1.65.34-1.73-.31-2.71-.05-2.79,2.26,5.4,2.51,5.32-1.11-4.92-.86-5,1.26,2,1.51,1.94,1.49,2.39,1.74,2.29.18-1.05.42-1.15.77.36,1,.26-1.5-4.63-1.26-4.74,2.7,4.5,2.94,4.39,1,.8,1.28.68.33-.65.57-.77-2-4.74-1.73-4.87,3.58,5.19,3.81,5.05-2.39-5.12-2.17-5.26,2.89,3.63,3.11,3.48-2-4.16-1.81-4.31.46-.21.68-.36,1.18.78,1.39.63,2.72,2.74,2.93,2.58-.09-1.09.12-1.26.34-.51.55-.67,1.45.81,1.65.63-2-3.22-1.82-3.39.92.2,1.11,0,1.9,1.18,2.09,1-.45-1.31-.27-1.5,1.86,1,2,.8-2.75-3.37-2.57-3.57,1.16.32,1.33.12-.87-1.45-.7-1.66-1.67-2-1.51-2.23.3-.35.46-.56,1.2.32,1.36.11,2.34,1.07,2.5.86-2.85-2.58-2.7-2.8,3.94,2,4.08,1.78-1.67-1.67-1.53-1.9,1.84.51,2,.28-1-1.19-.9-1.42,1.58.25,1.7,0,.91-.15,1-.39-3.81-2.42-3.69-2.66,3.48,1,3.6.73,0-.74.1-1c0,.28-2.5.54-2.52.82s6.55.8,6.54,1.08-2.09.43-2.09.69-2.06.53-2,.79.34.51.35.77,2.49.34,2.51.61-.61.51-.58.78-.17.49-.14.75-2.88.9-2.85,1.16-1.41.8-1.36,1.06,5.71-.51,5.76-.25-2.31,1-2.25,1.22-2.36,1.1-2.29,1.35,2.85-.18,2.92.07,1.66,0,1.74.29-2.07,1.15-2,1.4,1.05.18,1.14.43-1.07.93-1,1.18,3-.63,3.06-.38-1.41,1.1-1.31,1.35-.46.75-.35,1,2-.38,2.08-.15-2.81,2-2.69,2.21-.74,1-.62,1.26,4.35-1.83,4.48-1.6-4.57,3.31-4.43,3.53,2.89-1.13,3-.91,3.83-1.93,4-1.71.08.47.23.69-.84,1.15-.68,1.36.47.23.63.44.11.5.28.7-3.52,3.57-3.35,3.77,1.37-.44,1.55-.24,2-1.15,2.22-.95-3.54,4.08-3.35,4.27,4.64-3.79,4.82-3.6-.56,1.28-.37,1.46-1.95,2.89-1.76,3.07.91-.16,1.11,0,.8-.07,1,.09-.52,1.53-.32,1.69.58.21.79.37,1.21-.65,1.42-.49,1.26-.81,1.47-.66-.52,1.7-.3,1.85-.58,1.91-.36,2,3.2-4,3.43-3.86,1.89-2.2,2.11-2.07-2.51,5.31-2.28,5.44-.37,1.84-.14,2,2.45-3.44,2.68-3.32.15.85.38,1-.68,2.7-.44,2.81.58.11.82.21,2.87-5.34,3.11-5.24-1.28,4.47-1,4.57,1.56-2.6,1.8-2.51-1.46,5.62-1.21,5.71.88-.77,1.13-.69,2.42-5.84,2.67-5.77.25.78.51.85.11,1.39.36,1.46-.9,5.69-.64,5.76,1.63-4.43,1.88-4.37.91-1.84,1.17-1.78.17,1.68.43,1.73-.24,4.47,0,4.51,1.69-7.27,1.95-7.23.42.24.68.27,0,4.51.22,4.54.91-3.93,1.17-3.91.25,3,.51,3,.56-.73.82-.71.59-2.23.86-2.22.45.71.71.71.48,2.15.75,2.15.46-3.13.72-3.13.49.8.75.79.83,6.31,1.09,6.3.5-1.3.76-1.32,0-5.94.28-6,1.07,5.42,1.33,5.39.13-3.3.39-3.33.24-1.78.5-1.82,1.58,6.54,1.84,6.49-.28-4.71,0-4.75.09-2.07.35-2.13.86,1.68,1.11,1.62.93,1.66,1.18,1.6,1.06,1.86,1.31,1.79-.76-4.73-.51-4.8,2.31,5.83,2.56,5.76-.15-2.4.1-2.48-.46-3-.21-3.06,2.26,4.59,2.51,4.5.09-1.4.33-1.5-2.12-6.52-1.87-6.62,3.67,7.17,3.91,7.07-1.48-4.58-1.25-4.7-.76-2.69-.52-2.81,2.19,3.26,2.43,3.14-.94-2.83-.71-2.95,2.37,3.21,2.6,3.08,2,2.26,2.21,2.12-.68-2.24-.46-2.38.26-.63.48-.78,0-1,.21-1.13.78.17,1,0-.71-1.87-.5-2,1.29.82,1.49.66-.5-1.48-.3-1.65.33-.39.53-.56,3.2,2.86,3.4,2.69-3.34-4.52-3.15-4.7-.44-1.15-.25-1.33.48-.16.67-.34,4.27,3.45,4.45,3.26.81,0,1-.22.21-.6.39-.8-1.15-1.72-1-1.92.6-.21.76-.42-1.42-1.78-1.26-2-.31-.85-.16-1.06,4.1,2.28,4.25,2.07-5.16-4.15-5-4.37,2.14.84,2.28.62,1.09.09,1.23-.13-.57-.91-.44-1.14-.13-.62,0-.85,3.63,1.33,3.75,1.1-3.46-2.31-3.34-2.55,2.61.68,2.72.44,2.18.36,2.29.12,1.15-.16,1.25-.4-.14-.7,0-.95-1.34-1.09-1.25-1.34-2.83-1.49-2.75-1.74,1-.2,1.1-.45-.94-.78-.87-1-.49-.61-.43-.87.59-.34.64-.6,2.68,0,2.73-.22-1.89-.86-1.85-1.12-2.17-.81-2.13-1.07,3.67,0,3.71-.26-1.66-.68-1.63-.94,1.84-.35,1.86-.61-2.55-.64-2.54-.91-.19-.46-.18-.73,2.07-.45,2.07-.72-.43-.49-.44-.76,5.38-.82,5.36-1.11-5.06-.29-5.08-.58-2.52-.29-2.55-.58,5.43-.25,5.39-.54c.13,0-2.92.22-2.79.19.1.28-2.53,1.08-2.42,1.35s.79.41.91.68,6.75-2.28,6.87-2-5.78,3.31-5.65,3.57,4.12-1.42,4.24-1.18-1.79,1.53-1.67,1.76,3.76-1.49,3.89-1.26-3.6,2.67-3.46,2.9,1.73-.42,1.87-.19-2.46,2.23-2.31,2.45,1.45-.27,1.6-.05,2.17-.87,2.32-.65-1,1.43-.88,1.64,1.62-.58,1.79-.37-.69,1.23-.52,1.43,3-1.84,3.16-1.64-3.15,3.45-3,3.65,3.4-2.39,3.59-2.2-1.56,2.19-1.38,2.38,1.18-.44,1.37-.25,1.26-.58,1.45-.4-3.36,4.42-3.16,4.6,4.67-4.44,4.87-4.27-4.28,5.84-4.08,6,3.14-2.93,3.35-2.76-2.17,3.67-2,3.84,3.72-4,3.93-3.84-1.52,3-1.31,3.17-.68,2-.46,2.16,1.37-1,1.6-.84,1.91-2,2.14-1.83,0,1,.24,1.14-1.1,3-.87,3.14,1.74-1.93,2-1.8-.72,2.58-.49,2.7,1-.64,1.24-.53.95-.63,1.19-.52.15,1,.4,1.13.95-.75,1.2-.64.77-.42,1-.32.1,1.24.35,1.34.41.54.66.63,1.66-3.05,1.91-3-.15,2.12.1,2.2,1.31-2.42,1.56-2.34,1-1.73,1.27-1.66-.77,4.73-.51,4.79.63-.25.88-.19.67-.48.93-.42.69-.75.95-.7.74-1.11,1-1.07.08,2.53.34,2.57.35,1.28.62,1.32.92-2.75,1.18-2.72.35,1.42.62,1.45.78-2.76,1.05-2.73.14,4.7.41,4.72.79-4.33,1.06-4.32.35,4.15.61,4.16.6-2.34.86-2.34.53.72.79.72.5-1.28.77-1.29.72,4.93,1,4.92.41-3.22.67-3.24.82,3.31,1.08,3.29.4-2.09.66-2.12.31-2.18.58-2.21.1-3.05.36-3.09,1.58,6.9,1.84,6.86.25-2,.51-2.1-.16-3.66.1-3.71.91,1.81,1.17,1.75.32-.94.58-1,.06-1.77.32-1.84,1.21,2.49,1.47,2.42-.5-3.45-.24-3.52.25-.72.51-.81,2.83,6.71,3.08,6.62-.86-4-.61-4.12.58.05.82,0,2.14,3.74,2.38,3.64-.46-2.54-.22-2.65-1.66-4.88-1.43-5,.59.16.82,0,1.69,2.26,1.93,2.14-.7-2.36-.47-2.48,3.79,5.66,4,5.53-1.92-4.37-1.69-4.5.91.48,1.13.34.32-.48.54-.63,1.6,1.38,1.82,1.23-2.35-4.17-2.14-4.32.92.43,1.13.27,4.25,4.52,4.46,4.36-1.65-2.93-1.45-3.1.64-.1.83-.28.47-.31.66-.49-3.09-4-2.9-4.18,2.11,1.46,2.3,1.28-1.65-2.24-1.47-2.43,4.48,3.43,4.65,3.24,1.72.72,1.9.52-4.42-4.37-4.25-4.58,2.44,1.31,2.6,1.11,2.94,1.51,3.1,1.3-3.16-2.95-3-3.16-1.56-1.64-1.42-1.86,1.39.35,1.53.13,3.33,1.42,3.47,1.2.58-.33.71-.56.85-.19,1-.43,0-.66.11-.89,1.89.24,2,0-5.16-3-5.05-3.19,4.6,1.37,4.7,1.12-5.43-2.71-5.34-3,.48-.31.57-.56,6.75,1.71,6.83,1.46-2.88-1.52-2.81-1.77-3.16-1.42-3.09-1.68,6.26,1,6.32.79-1-.85-.92-1.11,1.46-.33,1.5-.59-4.24-1.33-4.2-1.59.92-.4,1-.66-4.21-1-4.18-1.27,5.28,0,5.31-.24.53-.53.54-.79-4.58-.75-4.57-1,.68-.45.68-.71,3.38-.53,3.38-.79-2.6-.46-2.61-.72,2.72-.67,2.7-.94-4.23-.19-4.25-.45,1.93-.68,1.9-.95,1.42-.71,1.38-1-4.37.17-4.41-.1.67-.57.62-.83,1.57-.8,1.51-1.06,3.53-1.36,3.47-1.61-6.11,1-6.18.75,3.34-1.43,3.27-1.68-.86-.28-.94-.54,0-.54-.07-.79-3.24.65-3.33.4,1.31-1,1.21-1.24,4.62-2.46,4.52-2.71-5.71,1.91-5.81,1.67,4-2.4,3.85-2.63.54-.91.42-1.15-2.46.66-2.58.42-2.66.85-2.8.6,3.74.82,3.59.57c.22.2,1.3-5.09,1.53-4.89s-1.84,3-1.61,3.15.89-.27,1.1-.1-2.15,3.56-1.94,3.72,4-4.34,4.22-4.18-.15,1,.07,1.16-2,3.79-1.82,3.94,2.32-2.44,2.54-2.29-1.08,2.63-.86,2.77-.06,1.16.17,1.3,2.47-3,2.69-2.9-1.19,3.14-1,3.27,1.12-.88,1.36-.75-.94,3-.71,3.12.9-.45,1.14-.33,1.48-1.76,1.72-1.65,1.63-2.31,1.87-2.2-1.79,5.46-1.55,5.56,3.53-7.12,3.78-7-.2,1.8.05,1.89-.23,2.06,0,2.15-.4,2.81-.15,2.9,1.6-3.1,1.85-3,.75-.71,1-.63.54-.09.8,0-.45,3.64-.2,3.71,1.6-4.2,1.85-4.14-.88,6.11-.62,6.17.86-1.27,1.12-1.22.92-1.87,1.18-1.82,0,3.1.27,3.15.84-1.72,1.1-1.68.46.76.72.8.78-1.95,1-1.92.59-.67.85-.65.32,2.64.58,2.66.81-4.57,1.08-4.55.41,1.56.67,1.57.45,2.83.72,2.83.55-.29.81-.29.52-1.38.79-1.39.57,1.29.83,1.28.64,1.58.9,1.56.62.52.89.5.22-3.81.48-3.83.69,1.46.95,1.43.25-2.24.51-2.27.87,2.34,1.13,2.3-.26-4.67,0-4.71,1.7,6.27,2,6.22.18-1.93.44-2-.29-3.57,0-3.63.1-1.51.36-1.57,1,1.91,1.26,1.84,1,1.47,1.22,1.39.12-1.29.37-1.38,1.62,3.07,1.87,3-.93-4.09-.69-4.18,1.6,2.67,1.84,2.57.84.56,1.08.45-1.64-5-1.4-5.08.86.75,1.1.63,2.13,3.13,2.37,3-1.57-4.07-1.33-4.2,3.88,5.89,4.11,5.76-1-2.94-.81-3.07-.39-1.65-.17-1.79,1.53,1.36,1.75,1.21-2.65-4.74-2.43-4.89,3.3,3.75,3.52,3.59-1.53-2.86-1.32-3,3.84,4,4,3.79S395,395.2,395.16,395s-.69-1.48-.49-1.66,4.59,4.2,4.78,4,1.46.61,1.65.43-5.2-5.84-5-6,5.47,4.37,5.65,4.18.73-.18.9-.38-.14-.92,0-1.13-1.17-1.68-1-1.88-1.77-2-1.62-2.21,3.54,1.86,3.69,1.65-4.07-3.37-3.92-3.59,5.16,2.65,5.3,2.43-5.34-3.8-5.21-4,3.76,1.56,3.88,1.32-.16-.69-.05-.92,2.93.8,3,.57.17-.6.28-.84-2.81-1.8-2.71-2-1.4-1.08-1.3-1.32,2.35.31,2.44.06-1.9-1.15-1.83-1.4-1.11-.8-1-1.06-.75-.64-.69-.89,7,1.13,7,.87.77-.47.82-.73.41-.56.45-.82-3.63-1.14-3.6-1.4S403,377.3,403,377s5.84,0,5.86-.21-3.53-.78-3.52-1,3.43-.4,3.44-.66-.17-.58-.17-.84.41-.59.41-.85-5.21-.31-5.22-.57,1.32-.55,1.29-.82-.12-.47-.15-.73.53-.56.49-.82,2.55-.91,2.51-1.17.14-.6.09-.86.57-.7.51-1-5.86.8-5.92.54.89-.69.83-.94,1.57-.95,1.49-1.2,3-1.5,3-1.75-4.65,1-4.74.73,1.37-1,1.28-1.27,1.48-1.14,1.38-1.39-1.73.14-1.83-.11-3.14.87-3.25.63-.12-.44-.23-.68,4.27-2.7,4.15-2.93.71-1,.59-1.26-6.09,2.81-6.22,2.58,4.29-3.09,4.15-3.32-2.31.81-2.45.58,4-3.25,3.84-3.47-2.19.78-2.34.57.72-1.23.56-1.44-5.76,3.66-5.92,3.45,4.48-4.15,4.32-4.36-3.84,2.46-4,2.25,3.07-3.3,2.9-3.5-2.88,1.84-3.06,1.64,3.35-3.85,3.17-4-3.91,3-4.09,2.8,2.61-3.41,2.43-3.59-5.63,5.13-5.82,5,5.26-6.49,5.06-6.67-4.28,4-4.48,3.84.39-1.23.19-1.4-2.26,2-2.46,1.82-.44-.12-.63-.27.07-.77-.13-.92-1,.62-1.16.48,1.1-2.31.91-2.44-3.05.59-3.24.46c.06-.09,3.63-.61,3.69-.71.22.1-1,1.94-.77,2s2.6-5,2.82-4.87.78-.74,1-.65-1.87,6.39-1.64,6.48,2-4.14,2.26-4.06.85-.93,1.1-.85-1.31,5.95-1,6,1.2-2,1.46-1.93.68-.36.94-.3-.08,2.62.17,2.69,1-1.5,1.23-1.44.73-.72,1-.67.79-1.12,1.05-1.07,1-2.42,1.23-2.37-.34,5.32-.08,5.36,1.11-3.75,1.37-3.72.58-.53.84-.5.3,2.11.56,2.13.92-4.6,1.18-4.58.39,1.12.65,1.13.27,4.66.54,4.67.62-2.47.89-2.46.52-1,.78-1,.56,4.83.82,4.82.39-6.19.65-6.2.66,3.67.93,3.66.64,1.43.9,1.41.65.88.92.85.55-.29.82-.32,0-4.24.29-4.27,1,3.6,1.31,3.56-.29-5,0-5.09,1.49,5.23,1.75,5.17-.06-3,.2-3.07.18-1.49.44-1.55,1.51,3.86,1.76,3.79.55-.18.81-.25-.37-3.18-.12-3.26.24-.87.5-1,.85,1,1.1.87.77.57,1,.48-.75-3.27-.5-3.37,1.09,1.39,1.34,1.28,2.15,3.48,2.39,3.37.32-.68.56-.8,1.42,1.48,1.66,1.36-2.73-6.26-2.5-6.39,1.07.92,1.3.79,2,2.32,2.24,2.18.24-.67.46-.81-.31-1.45-.09-1.6.34-.42.55-.58,1,.45,1.21.29,2,1.58,2.19,1.41-1.59-2.8-1.39-3,3.18,2.73,3.37,2.55-2.1-3.13-1.91-3.31-1.65-2.38-1.46-2.57,3.42,2.57,3.6,2.37,1.17.27,1.35.07-1-1.58-.79-1.79,2.42,1.19,2.59,1-2.37-2.52-2.21-2.74-2.23-2.18-2.08-2.4,4,2,4.12,1.82.78-.2.92-.43.44-.43.57-.66-4.58-3.07-4.46-3.3,6.1,2.47,6.22,2.23-3.45-2.22-3.34-2.46-1.95-1.35-1.85-1.59-.7-.73-.61-1,4.27,1,4.35.77,2.05.06,2.13-.19-2.31-1.24-2.24-1.5.23-.47.29-.73,3.17.12,3.23-.13-3.33-1.21-3.29-1.47,4,.06,4.08-.2-6.91-1.4-6.88-1.66,4.41-.07,4.43-.33-.26-.56-.25-.83,1.67-.51,1.67-.77-4.85-.53-4.86-.79-.66-.42-.67-.68,6.81-.93,6.79-1.19-6,0-6-.27,2.83-.83,2.8-1.1-.1-.52-.15-.78,1.88-.91,1.83-1.17-.76-.44-.82-.69-4.5.54-4.57.28-1.43-.06-1.5-.31,6.53-2.46,6.45-2.71-6,1.4-6.05,1.15.31-.58.22-.83,1.14-.94,1-1.19,1-1,.88-1.2-.71-.24-.82-.48-2.95.89-3.07.65.39-.69.27-.92,5.76-3.71,5.63-3.95-5.46,2.5-5.6,2.27.27-.72.13-.94-2.07.76-2.21.54,2.46-2.21,2.31-2.43,1.89-2,1.73-2.2-2.63,1.26-2.79,1.05,1-1.39.79-1.6.88-1.43.71-1.63-2.83,1.68-3,1.48.13-.8-.05-1,1.13-1.77.95-2,.6-1.37.42-1.56,0-.87-.17-1.05-3.16,2.48-3.35,2.3-1.4.77-1.6.59-1.29.75-1.49.57.07-.81-.13-1-.25-.46-.45-.62,3.19-5,3-5.11-2.07,1.8-2.28,1.65-2.76,3-3,2.8.18-1.08,0-1.23,3-5.47,2.76-5.62-1.54,1.34-1.77,1.2-1.74,1.82-2,1.68-.57,0-.8-.18-.63.08-.86-.05-.1-.9-.34-1,.29-1.74.06-1.86.35-2,.11-2.13-2.95,5.05-3.19,4.94.81-3.08.57-3.19-.9.76-1.15.66.71-3.22.46-3.32-2.13,4.08-2.38,4-.71.51-1,.43.1-1.84-.16-1.92,0-1.88-.28-2-3.16.7-3.43.62c.28,0,2.86-1.4,3.14-1.4s.54-.67.82-.67.49-.17.75-.18.64,4,.9,4,.58.34.85.32.67,1.3.93,1.28.58-.18.85-.2.37-1.94.63-2,.06-3.72.32-3.75.88,2.46,1.14,2.42.61.36.87.32.33-1.13.59-1.18.8,1.2,1.06,1.14-.41-4-.16-4.1,1.91,5.36,2.17,5.3-1.26-6.45-1-6.52,1.72,4,2,3.92,1.17,1.76,1.42,1.68-1.47-5.72-1.22-5.82,1.69,3.08,1.94,3-.53-2.63-.29-2.73,2.35,4.11,2.59,4-.82-3.07-.58-3.19.49-.13.73-.25-.65-2.26-.42-2.38,4,6.05,4.23,5.92-3.14-6.35-2.91-6.49,2.48,3,2.7,2.88,1.8,1.65,2,1.5-1.26-2.78-1-2.93.79.16,1,0-.11-1,.1-1.17-.08-.89.12-1.06-.78-1.6-.59-1.78,4.06,3.52,4.25,3.34-3.79-4.51-3.6-4.7,4.84,3.82,5,3.62-4.41-4.58-4.24-4.78,1,.25,1.15,0-.5-.94-.34-1.15,6,3.71,6.18,3.49-3.83-3.27-3.68-3.49,4.45,2.13,4.59,1.91-.29-.91-.16-1.14-3.95-2.74-3.83-3,2.15.51,2.26.27,2.93.68,3,.44-6.08-3.05-6-3.3.35-.3.44-.55,3,.5,3,.24-3-1.35-3-1.61,1.51,0,1.57-.31,3.32.2,3.37-.06-1-.72-.95-1-.23-.55-.19-.81-1.36-.64-1.33-.9.17-.45.18-.72-2.22-.51-2.21-.78,3.18-.43,3.18-.7-2.9-.36-2.91-.63,4.82-.8,4.8-1.06.21-.6.18-.86S447.56,259.91,447.52,259.65Z" />
    <path class="f6619578-e547-4922-b22a-74804c80e12a"
        d="M447.52,259.65c0-.26-3,0-3-.31s-2.45,0-2.51-.23,3.14-1.19,3.08-1.45.5-.67.43-.93.14-.6.07-.85-4.61,1-4.69.77.61-.67.52-.91,2.43-1.47,2.33-1.72-2.18.42-2.28.18.74-.86.63-1.09,2.9-2,2.78-2.28-2.66.82-2.79.58,3.56-2.66,3.42-2.89-3.71,1.59-3.85,1.36-3.06,1.41-3.21,1.19,5.7-4.49,5.55-4.7-.48-.41-.63-.62-1.93.72-2.09.51.12-.81,0-1-.74-.12-.91-.32-2.74,1.7-2.91,1.5,3.58-4,3.4-4.21-5,4.07-5.21,3.89,1.21-1.9,1-2.09-2.49,1.91-2.68,1.72,1.94-2.82,1.75-3-2.59,2.22-2.79,2,3.51-4.95,3.31-5.12-2.26,1.94-2.47,1.77-2.1,1.94-2.31,1.78-.43-.18-.65-.34.89-2.07.68-2.22,2.47-4.6,2.25-4.74-1.26.86-1.48.71-3.91,5.29-4.14,5.16,0-.87-.23-1,2.73-5.79,2.5-5.92-.94.51-1.17.38-3.1,4.82-3.34,4.7.2-1.44,0-1.55-.49-.09-.73-.2,0-1.24-.22-1.35.46-2.37.22-2.47-1.35,1.9-1.59,1.8-1.47,2.43-1.71,2.33.62-3.08.38-3.17-1.54,3-1.79,2.87.74-3.8.49-3.88-.5-.13-.76-.21.27-2.86,0-2.93-.86,1.07-1.12,1-1.08,2.15-1.34,2.09-.44-.34-.69-.4-.68.77-.94.72-.54.23-.8.18-.65.94-.91.89.27-5,0-5-.95,3-1.21,3-.55.46-.82.43-.59,1.09-.85,1.07-.42-.76-.68-.78-.25-4.19-.52-4.2-.67,2.92-.93,2.91-.5-.12-.77-.12-.51-3.44-.77-3.44-.62-.8-.89-.79-.64-.59-.92-.58-.38,4-.65,4-.61,0-.88,0c0-.09,1.51,1.75,1.48,1.65.25-.06-.32.32-.07.25s-1-5.44-.78-5.52,1.26,2.4,1.51,2.32.12-1.24.37-1.32,1.85,3.51,2.09,3.42.45-.45.69-.55-.76-3.25-.52-3.36,1.16,1.32,1.39,1.21-.3-1.86-.06-2-.07-1.21.16-1.33,2.16,2.93,2.39,2.81-.1-1.29.12-1.42-1.12-2.81-.9-2.95,1.14.91,1.36.77-1.18-2.53-1-2.68,2.57,2.76,2.78,2.61.83.22,1,.06,1.07.44,1.27.27-1.84-2.89-1.64-3.07.21-.44.4-.62,4,3.36,4.23,3.17,1.24.3,1.42.11-1.76-2.39-1.59-2.58-3.39-3.47-3.22-3.67,5,3.26,5.14,3-1-1.45-.88-1.66-3.45-2.9-3.31-3.12,6,3.14,6.1,2.92-3.61-2.71-3.49-2.94-1.57-1.32-1.45-1.55.07-.39.18-.63,4.11,1.3,4.21,1.06.7-.31.79-.56-1.14-1-1.06-1.21-.22-.6-.15-.85-1.76-.94-1.7-1.2,4.61.54,4.67.28,1.43-.36,1.47-.62-1.35-.82-1.32-1.08-4.79-1-4.76-1.28,5-.15,5-.41-.45-.6-.44-.86,2.28-.63,2.27-.89-.36-.64-.38-.9.49-.7.46-1-4.78,0-4.81-.27,2.69-1,2.65-1.23-5.64.59-5.69.33,4.77-1.58,4.71-1.83-2.26,0-2.33-.2,3.51-1.65,3.43-1.9-6.52,1.69-6.61,1.45,2-1.23,1.91-1.47.54-.75.43-1,3-2,2.9-2.21-6.28,2.52-6.4,2.29,4.69-3,4.57-3.27,1.81-1.72,1.67-1.95-4.82,2.27-5,2-1.34.31-1.49.09.33-.8.18-1-1.76.71-1.92.5,0-.54-.17-.75,4.84-4.62,4.67-4.82-3.23,2-3.41,1.82.81-1.45.63-1.64,1.12-1.87.94-2.06-.91.05-1.1-.13-5,4.47-5.16,4.29,3.59-4.7,3.4-4.88-.82.09-1-.08,0-.86-.22-1-2.46,2.26-2.67,2.09.41-1.38.19-1.54S411,190.1,410.76,190s3.67-6.3,3.45-6.45-1.32.91-1.55.77-3.34,4.35-3.57,4.21-.88.57-1.11.43.66-2.12.43-2.25,2-4.79,1.75-4.91-3.9,6.38-4.14,6.26-.2-.62-.44-.74,2.06-5.61,1.82-5.73-1.67,2.39-1.91,2.28-.62.12-.87,0,1.2-4.49,1-4.59-3.07,6.56-3.32,6.47,0-1.53-.21-1.62-1.12,1.83-1.38,1.75,1.57-6.65,1.31-6.73-1,1.44-1.27,1.37-1.18,2.26-1.43,2.19-.09-1.77-.34-1.84-1.27,3.11-1.52,3-.17-1.55-.43-1.6.56-5.6.3-5.65-1.18,3.28-1.44,3.23-1,2.72-1.23,2.68-.47-.2-.73-.24-.2-2.55-.47-2.58-.86,3.31-1.13,3.29,0-5.55-.3-5.57-.68,1.59-.94,1.58-.71,3.68-1,3.67-.36-5.17-.63-5.18-.58,1.42-.85,1.42-.47,5-.74,5-.68-6.64-.94-6.63-.28,5.65-.55,5.67-.7-3.07-1-3.05-.15,4.13-.42,4.15-.81-3.13-1.07-3.1-.81-2.15-1.07-2.12.17,4.8-.09,4.84-1.16-3.94-1.42-3.89,0,2.82-.26,2.87-1.5-4.56-1.76-4.51.75,5.65.5,5.71-1-1.78-1.22-1.72-.53,0-.78.08-.78-.79-1-.71.65,3.6.4,3.68-2.78-6.45-3-6.37-1.28,5.47-1.51,5.55c.18-.13,2-2.74,2.15-2.88s1.86,1.52,2,1.37,2.08,1.46,2.28,1.29-1.37-2.37-1.18-2.55-.32-1.12-.14-1.3-.86-1.53-.69-1.72,2.79,1.76,3,1.56-1.37-1.86-1.21-2.06,3.85,2.22,4,2-.61-1.24-.46-1.46-.41-1-.27-1.23-5-3.61-4.84-3.83.3-.26.42-.49,1.53.33,1.64.1,1,0,1.1-.27-.44-.67-.35-.91,3.61.78,3.69.54-.61-.79-.53-1,.56-.43.62-.68,2.35-.08,2.4-.34-1.55-.92-1.5-1.18-1.95-.84-1.92-1.1,1.54-.37,1.56-.63,2.66-.46,2.67-.72-5.37-.67-5.37-.93,1.68-.52,1.67-.78.36-.55.34-.81.74-.63.71-.89-.87-.44-.91-.69-3.25.11-3.3-.14,5.8-1.84,5.73-2.09-2.16-.05-2.23-.3-1.68,0-1.76-.3-2.17.26-2.25,0,2.85-1.61,2.75-1.86.27-.71.16-1-4.18,1.43-4.29,1.19,2.63-1.87,2.51-2.1-.45-.33-.59-.56-3.11,1.33-3.25,1.11,4.88-3.73,4.74-4-3.61,1.83-3.76,1.61,1.33-1.59,1.18-1.8-2.17,1.05-2.33.85-2,1.12-2.2.92.95-1.4.77-1.59-.05-.57-.23-.77,1.69-2.35,1.5-2.53,1.49-2.35,1.3-2.53-1.77,1.07-2,.89-3.63,3.39-3.83,3.22,3.78-5.33,3.58-5.5-.54-.27-.75-.43-4,4.43-4.21,4.28-.11-.63-.32-.78,2.95-5.25,2.73-5.4-3,3.65-3.26,3.51-1.73,1.91-2,1.77,3-6.13,2.81-6.26-2.85,4-3.08,3.84.71-2.39.47-2.51-.44-.31-.68-.43-.9.66-1.14.55.87-3.21.63-3.32-2.64,4.78-2.88,4.67-.91,1-1.15.9.53-2.7.29-2.8.5-2.92.25-3-1.94,4.08-2.19,4,.14-2-.11-2.12.35-3.07.1-3.14-.33-.95-.59-1-.35-1-.6-1.08-1,1.71-1.27,1.66-1.64,5.1-1.9,5-.48.06-.74,0,.58-6.16.32-6.2-1.2,4.08-1.46,4-.54.32-.8.28-.24-2.23-.5-2.26-.28-2.64-.55-2.66-1,5.47-1.26,5.45-.08-6.81-.34-6.83-.77,4.19-1,4.18-.59,2.54-.85,2.53-.46-4-.72-4l-.82,0c-.26,0-.58-1.06-.84-1s-.36,4.17-.62,4.19-.8-4.25-1.06-4.23-.07,5.53-.33,5.56-.62-1.35-.88-1.32-.55-.34-.81-.31-.4.68-.66.72-1-3.09-1.28-3,.35,4.79.09,4.84-.47,0-.72,0-1.49-4.35-1.75-4.29.3,3.39.05,3.45-1-1.62-1.21-1.55-1.81-4.2-2.07-4.13,1.14,5.46.89,5.55.26,2.22,0,2.31-2-4.11-2.28-4-1.11-1.27-1.35-1.17,0,1.49-.23,1.59,1.46,4.5,1.23,4.61-1.4-1.84-1.64-1.73-2.82-4.29-3.05-4.17,0,1.35-.19,1.47,2.95,6.14,2.72,6.28-.53-.07-.75.07-1.82-2-2-1.82-1.2-.84-1.42-.69-.49.23-.7.39-1.53-1.06-1.74-.9,2.55,4,2.33,4.18-4.93-4.62-5.15-4.42,2.32,3.35,2.11,3.56c-.1,0-.5-.08-.59-.13.14-.23-.44-1-.3-1.25s3.34,1.19,3.47.95,1.42,0,1.53-.28-3-2-2.87-2.24-3-1.7-2.91-2,5.68,1.47,5.76,1.22-.88-.91-.81-1.17,2.77.05,2.83-.2-3.92-1.47-3.87-1.73-.81-.65-.78-.91,3-.18,3.06-.44-4.38-.86-4.37-1.12,0-.42,0-.68,6.81-.66,6.8-.93-.49-.68-.51-.94-5.37,0-5.4-.3.92-.62.87-.88.5-.62.45-.88,1.83-1,1.77-1.28-.84-.39-.92-.65-3.53.61-3.61.36.92-.83.82-1.08-2.07.37-2.18.13,1-.95.91-1.19-1,0-1.14-.22-1.28.24-1.41,0,3.29-2.52,3.14-2.74-2,.69-2.12.47,2.17-2.15,2-2.37-.75-.13-.91-.34-1.83.81-2,.6-2.32,1.4-2.49,1.2,3.19-3.55,3-3.75,1.7-2.46,1.51-2.65-4.61,3.94-4.81,3.75.12-.82-.08-1-.54-.11-.74-.29,3.53-5.14,3.32-5.31-2.32,2-2.53,1.82-2.58,2.62-2.8,2.46.66-1.79.44-1.94.11-1.1-.12-1.25.94-2.55.72-2.69-.25-.77-.48-.9-1.38,1.23-1.62,1.1-1.17,1-1.4.88,1.11-3.48.87-3.59-3.54,6.13-3.78,6,1.84-5.33,1.6-5.44-.66.06-.9-.05-.06-1.43-.31-1.53-2.34,4.62-2.59,4.53.95-4.27.69-4.36-2.27,5.17-2.53,5.09.12-2.06-.14-2.14,0-1.87-.25-1.94-.05-2-.31-2-2.15,6.55-2.4,6.49.07-2.41-.19-2.47-.24-1.31-.5-1.36-.23-1.62-.49-1.66-1,2.57-1.22,2.53.1-4.27-.16-4.31-.6.2-.86.17-.49-.78-.75-.81-1,5.44-1.29,5.42-.21-4.16-.48-4.17-.48-1.56-.74-1.57-.62,1.46-.89,1.45-.57,3.19-.83,3.19-.56-5.37-.82-5.37-.56,1.19-.83,1.2-.62-1-.88-1-.33,4-.59,4-.41,1.21-.67,1.24-.52-.18-.78-.16-1-4.11-1.28-4.08-.3,2-.56,2.07-.88-2-1.14-2,0,3.24-.25,3.28-.89-1.72-1.15-1.66-.78-.91-1-.86,1,6.54.77,6.6-1-2.17-1.3-2.1-.17,1.2-.42,1.27-1.95-4.6-2.2-4.52-.19,1.25-.43,1.33-.34.71-.58.8-.83-.64-1.08-.55-.71-.24-.95-.14-.8-.39-1-.28,1.33,4.2,1.09,4.31-1.61-2.13-1.84-2-.22.77-.45.89-.88-.47-1.11-.34,1.46,3.51,1.23,3.65-3.48-4.63-3.7-4.49,1.38,3.14,1.16,3.29-.85-.3-1.06-.14,1.95,3.47,1.74,3.63-2.76-2.74-3-2.58-.67,0-.87.22-2.54-2-2.73-1.8-.35.58-.54.76.52,1.4.34,1.59,2,2.68,1.87,2.87-.27.42-.44.62-4-2.52-4.15-2.31,4.41,4.05,4.26,4.26-.87,0-1,.17-1.15-.17-1.29,0,2.94,2.28,2.81,2.51-6.24-2.88-6.37-2.64,1.65,5.2,1.49,5.55c0-.37-2-3.89-2-4.27s2.45-.59,2.44-.86-2.16-.29-2.19-.55,1.09-.62,1-.88,4.11-1.34,4.06-1.6-6.92,1-7,.78-.36-.28-.44-.53,3.73-1.67,3.64-1.92,1.35-1.11,1.26-1.36-.07-.62-.18-.87-2.26.43-2.38.19-2.32.67-2.45.44,4-2.87,3.88-3.1-5.08,2.54-5.22,2.32,1-1.19.84-1.41,2.41-2.39,2.25-2.6,0-.72-.19-.93-.93,0-1.1-.18-1.83.92-2,.72-1.46.73-1.64.54-.14-.52-.33-.7-1.26.7-1.46.52,3-4.21,2.82-4.38-.91.22-1.12,0,1.23-2.54,1-2.7-.79,0-1-.12-.45-.42-.67-.57-3.33,4.06-3.55,3.92,1.22-3,1-3.09-.78.23-1,.1-.16-.83-.4-1,.73-2.67.5-2.79-4.05,7-4.29,6.88.53-2.23.29-2.34-.85.77-1.1.66.71-3,.47-3.13-1.59,2.72-1.84,2.63-.68.53-.93.44,1.83-7.07,1.58-7.15-1.58,3.13-1.83,3-1.52,3.45-1.77,3.38-.18-1.12-.44-1.18-.27-.92-.53-1-.12-1.8-.38-1.86-1.2,3.4-1.46,3.35,0-2.65-.26-2.7-.47-.35-.73-.39-.33-1.38-.6-1.42-.56.19-.82.16-.36-1.91-.63-1.94-1,5.88-1.28,5.86,0-7.42-.3-7.43-.79,5-1.06,5-.43-4.09-.69-4.1-.58,6-.85,6-.49-1.28-.76-1.27-.53-.93-.79-.92-.81-5.29-1.08-5.27,0,7.8-.28,7.82-.77-3.13-1-3.1-.46.54-.73.57-.28,1.78-.54,1.81-.85-2.37-1.11-2.33-.81-1.57-1.07-1.52-.53.2-.79.25-.84-1.23-1.1-1.17.21,3.41,0,3.48,0,2-.26,2.11-1.28-2.79-1.54-2.72-1.13-1.89-1.38-1.81.86,4.54.61,4.62-2.32-5.16-2.57-5.07.22,2.32,0,2.41-1.4-2-1.65-1.92.61,3,.37,3.1.67,2.8.43,2.91-1.77-2.56-2-2.45,1,3.16.76,3.28-1.76-2.25-2-2.12-2.28-2.91-2.51-2.78,3.57,7.12,3.34,7.26-2.55-3.19-2.78-3-1.44-1.18-1.66-1,3.08,5.3,2.87,5.45-5-5.91-5.23-5.75-.87-.08-1.07.09,2.89,4.4,2.69,4.57-1.25-.65-1.45-.47-1.69-1-1.88-.8-1.42-.56-1.61-.37,2.2,2.89,2,3.08.24.9.06,1.1-3-1.8-3.19-1.59,4,3.75,3.81,4-2.69-1.36-2.84-1.14-.56.28-.71.5-3.52-1.45-3.65-1.22,6.61,4.35,6.48,4.58-7-3-7.11-2.76-.07.71-.18,1,4.4,2.45,4.3,2.7-3.49-.71-3.57-.46-.74.43-.81.68-.9.44-1,.7.65.82.6,1.08-1.1.48-1.14.74,6.12,1.39,6.09,1.65-4.38.11-4.39.37,1.52.64,1.52.91,4.13.43,4.14.68-6.6.76-6.58,1,1-.12,1,.14c-.11,0,3.61-1.52,3.5-1.5-.09-.25-1,.87-1.06.63s1.95-1.6,1.84-1.84-6.13,2.48-6.25,2.24,4.17-2.92,4-3.15-1.06-.06-1.2-.28-.38-.45-.53-.67-1.17.15-1.33-.06.67-1.23.51-1.43,1.14-1.75,1-2-5.5,4.16-5.68,4-.57,0-.75-.21-.43-.16-.62-.34-.65.12-.85-.06,4-5.27,3.75-5.44-.08-.85-.29-1-2.69,2.57-2.9,2.42.56-1.66.34-1.81,1.24-2.85,1-3-1.74,1.59-2,1.45.14-1.35-.08-1.49-1.52,1.49-1.75,1.37-2,2.65-2.25,2.53,1-3.09.78-3.21-.94.73-1.18.62.8-3.11.56-3.21-2.32,4.08-2.56,4,.4-2.37.15-2.47-2.07,4.18-2.32,4.09.63-3.22.38-3.31-1.2,2.15-1.45,2.08.36-2.9.11-3-1,1.89-1.29,1.83.7-4.81.44-4.87-.66.34-.92.29-.52-.27-.77-.32-.36-1.18-.62-1.23-1.42,5.13-1.68,5.09-.65,1.1-.91,1.07,0-3.4-.3-3.43-.5-.26-.76-.29-.78,3-1,3-.34-2-.6-2-.27-5.13-.53-5.15-.73,4.49-1,4.48-.52.17-.78.17-.49,2.47-.75,2.47-.63-5.59-.9-5.58-.62-1.11-.88-1.1-.53,1-.79,1,0,6.67-.28,6.69-1.25-7.72-1.52-7.69-.12,3.89-.38,3.93-.23,2.1-.49,2.13-1.35-5.31-1.61-5.27.66,7,.4,7-.59-.62-.85-.57-.31.79-.57.85-1.12-2.69-1.37-2.63.32,3.27.07,3.33-1.38-3.23-1.63-3.16.14,2.27-.11,2.35-.7-.59-1-.51-2.4-5.4-2.65-5.31-.3,1-.55,1.06-.8-.4-1.05-.3,2,6.4,1.77,6.5-.78-.6-1-.49.28,1.73,0,1.84-.59-.15-.82,0-1.8-2.41-2-2.29-.12.86-.36,1-3-4-3.19-3.9,2.51,5.22,2.28,5.36-3.47-4.4-3.69-4.25,3.93,6.78,3.71,6.93-2-2-2.23-1.88-.69-.07-.89.09,0,.83-.2,1-2-1.57-2.19-1.4,2.14,3.2,1.94,3.37-3.81-3.31-4-3.13,3.73,4.51,3.54,4.7-3.66-2.82-3.84-2.62-1.76-.8-1.94-.6-.51.38-.68.59,4.05,3.89,3.89,4.1-2-.89-2.17-.68,2.57,2.34,2.42,2.56-5.55-3-5.69-2.74,2,1.84,1.86,2.07-2.6-.77-2.72-.53,3.91,2.55,3.8,2.79-1.82-.3-1.93-.06-4.08-1-4.18-.78-.27.63-.35.88,5.13,2.22,5.05,2.48.84.67.77.93-6.35-.89-6.41-.63-.46.61-.5.88,3.84,1.15,3.81,1.42,3.54.78,3.52,1.05-3.86.25-3.87.52,1.94.5,1.94.77-1.77.55-1.76.82-2.66.81-2.63,1.08-.12.67-.08.94,2.42.19,2.47.45,3-.17,3.08.09,1.23.09,1.3.34-6.42,2.56-6.33,2.81,3.59-.66,3.68-.42,1.4,0,1.5.21.88.09,1,.33-.78.77-.69.95.57,4.38.67,4.55c-.16-.14-2.2-3.36-2.37-3.5s1.07-2,.9-2.15-3,3-3.2,2.85,2.07-3.7,1.85-3.85-.07-.93-.29-1.07-.66-.06-.89-.2-1.06.64-1.28.5.65-2.29.42-2.42-.68,0-.91-.15-2.2,3.09-2.44,3,0-1.19-.25-1.3,1-3.66.77-3.77-2.46,4.41-2.71,4.31-1.56,2.69-1.8,2.59,2-7,1.76-7.09S132,142,131.77,142s-.81.93-1.06.86-1,1.89-1.29,1.82,1.22-6.54,1-6.6-1.71,4.74-2,4.68-.65.76-.9.71.86-7,.6-7-1.26,3.85-1.52,3.8-.51-.13-.77-.17-.39-1-.65-1-.33-1.93-.6-2-1,5-1.29,5-.33-2.1-.59-2.12-.67,2.75-.93,2.74-.31-4.64-.57-4.65-.59,2.12-.85,2.12-.5,2.51-.76,2.51-.46.61-.72.62-.57-2.94-.84-2.93-.78-4.7-1-4.69-.54.69-.8.71-.48,1.17-.74,1.2-.39,1.5-.66,1.53-.41.94-.67,1-1.19-4.37-1.45-4.33-.54.43-.8.47-.06,2.9-.32,2.95-.23,1.55-.49,1.61-1.08-2.44-1.34-2.38-.69-.41-.94-.34-.81-.8-1.07-.73.76,4.77.51,4.84-1.37-2.72-1.62-2.64-.47.39-.72.47.91,4.25.66,4.34-2.16-4.42-2.4-4.32,1.31,4.85,1.07,4.95-1.29-1.86-1.53-1.76-1-.9-1.21-.79-.43.35-.67.46,1.31,3.85,1.08,4-.6-.17-.83,0-.73-.37-1-.24-1.8-2.17-2-2-1.16-.89-1.39-.76-1.87-1.9-2.09-1.76,2.6,5,2.38,5.15,0,.92-.18,1.07.25,1.14,0,1.3-1.94-1.78-2.14-1.62-1.74-1.33-1.94-1.17,2,3.2,1.8,3.37-4.18-4-4.38-3.78.27,1.18.08,1.36,1.35,2.18,1.17,2.37-2.78-1.93-3-1.74,4.37,4.76,4.2,5-.8-.11-1,.09-3.86-2.52-4-2.32-.7.21-.85.42-.51.37-.66.58.33,1,.18,1.16-1.85-.46-2-.24-.46.48-.59.7,3.56,2.63,3.44,2.86,2.47,1.76,2.36,2-6.62-2.52-6.72-2.29,2.09,1.55,2,1.79,4,2,3.86,2.27-4.6-1.07-4.68-.83,2.28,1.23,2.2,1.48,1.24.79,1.18,1-.06.41-.12.67-3.53-.16-3.57.1,4.08,1.05,4,1.31-7.37-.21-7.4.05,5.81.91,5.8,1.17-5.56.44-5.56.7,6.37.4,6.38.66.4.37.42.64-6.07,1.15-6,1.41,3.19.12,3.24.37-.51.64-.46.89-1.36.9-1.29,1.16,0,.63.06.88,2.82-.33,2.91-.08-.49.72-.4,1,3.17-.82,3.28-.58-5.07,2.9-5,3.14,3.41-1.13,3.53-.89-2.09,1.78-2,2,1.16,0,1.3.18-.63,1.1-.48,1.32-.63,1.2-.48,1.41.66.28.82.49,1.87-.8,2-.6.56.22.73.42-1.47,2.19-1.28,2.38.78.07,1,.25,2.45-1.82,2.64-1.64-2.06,3.22-1.86,3.39,2.3-2,2.48-1.84.08.67.27.81-.37,1.32-.18,1.46,5.16-3.51,5.35-3.38c-.07.07-3.51-.17-3.58-.1-.23-.1-.71,2.35-.94,2.25s-.71.48-.94.39-1,1.42-1.25,1.34.22-2.11,0-2.18.42-3.13.17-3.21-.89,1-1.14.9-.78.74-1,.68-1.25,2.9-1.51,2.84-.39-.45-.65-.5.69-6.13.43-6.19-1.53,5.33-1.79,5.29.06-3.74-.2-3.78-1,3.42-1.29,3.38-.08-3.83-.35-3.86-1.12,6.07-1.38,6.05-.25-3.05-.51-3.07-.41-2.19-.67-2.21-.55-.25-.82-.25-.63,5.79-.89,5.79-.49-5.26-.75-5.26-.44,4.24-.71,4.25-.65-4-.91-4l-.81.05c-.27,0-.54.12-.81.14s-.63-.86-.89-.83-.08,4.07-.35,4.1S74.23,181,74,181s-.57-.24-.83-.2-.37,1-.63,1.07.1,3.23-.16,3.29-1-2.46-1.25-2.41-1.14-2.69-1.4-2.64-.5.31-.76.38-.52.19-.77.26-.23,1.2-.49,1.27-1.08-1.68-1.33-1.6-.28,1-.53,1.06-1.16-1.61-1.41-1.53-.9-.73-1.14-.63.45,2.81.2,2.91,1.09,4.05.84,4.15-.85-.74-1.09-.64-1.08-1.16-1.32-1.05-.41.36-.65.48-.27.61-.51.73-2-2.67-2.25-2.55,1.41,3.69,1.18,3.82-.07.87-.3,1-3.7-5.09-3.92-5,.3,1.61.08,1.75,2.53,4.79,2.31,4.94-4.32-5.29-4.54-5.14,4,6.41,3.78,6.57-3.24-3.43-3.45-3.27.16,1.07-.05,1.24-2.48-2.08-2.68-1.91,1,2,.78,2.18-.84-.08-1,.1-.5.31-.69.5.53,1.31.34,1.5-.4.37-.58.56,2.4,2.83,2.22,3-1.66-.8-1.83-.59.16.75,0,1,1.12,1.44,1,1.65-1.94-.84-2.1-.62.58,1,.43,1.18-3-1.33-3.13-1.1-1.66-.34-1.79-.12,5.15,3.47,5,3.7-2.31-.71-2.43-.48,1.89,1.42,1.78,1.65-7.6-2.82-7.7-2.58.4.87.31,1.11,6.58,3,6.5,3.26-6.14-1.52-6.22-1.28-.57.48-.64.73,3.36,1.46,3.3,1.72-1.23.26-1.28.52-3.42,0-3.46.23,6,1.45,6,1.71-1.91.27-1.94.53-1.76.41-1.77.67,1.82.61,1.81.87-1.63.53-1.62.8-.24.58-.23.84-.6.63-.58.89,2.14.32,2.18.58-3.25,1.1-3.21,1.35,2.94,0,3,.29,1,.31,1,.56,1.57.07,1.64.32-2.55,1.34-2.46,1.58.76.3.86.55-1.34,1.14-1.23,1.39.28.52.4.75,2.44-.59,2.56-.36-3,2.27-2.88,2.5,5.29-2.5,5.43-2.27-.58.89-.43,1.11-4.53,3.78-4.38,4,1.44-.27,1.6-.06S49.8,221,50,221.22s-2.29,2.6-2.12,2.8.5.29.68.48-1.37,2.14-1.19,2.33.3.6.49.78,1.71-1,1.91-.81,1.11-.45,1.31-.28,1.72-1.32,1.93-1.16,1.15-.76,1.36-.6-2.37,4.17-2.15,4.32,2.8-3.22,3-3.08,1.23-1.12,1.45-1-3.39,6.67-3.16,6.81,3.49-5.11,3.72-5-.64,2.22-.4,2.34,2-3,2.27-2.92-.05,1.15.19,1.26.27.5.52.6-1.86,5.92-1.61,6,2.7-5.55,3-5.46-.24,2.12,0,2.21-.39,2.89-.15,3-.43-2.66-.19-2.58c-.27,0,1.17-3.42.9-3.43s-.63,3.31-.9,3.31-.48,3.31-.74,3.32-.62-3.63-.88-3.62-.53.25-.8.26S58,233,57.73,233s-.85-3.74-1.12-3.72l-.83.08c-.26,0,0,4.92-.21,5s-1.17-4.55-1.43-4.52-.48.61-.73.66.5,5.84.24,5.88-.53-.3-.78-.25-1.76-5.74-2-5.68-.11,2-.36,2.07.45,3.88.2,3.94-1.15-2.37-1.41-2.3-1.9-4.57-2.15-4.49-.07,1.77-.32,1.85-1-1.17-1.25-1.09,0,1.82-.23,1.91.76,3.6.51,3.69-2.41-4.67-2.65-4.57-.51.34-.75.44,1.31,4.41,1.07,4.51.52,2.33.28,2.45-3.34-5.77-3.58-5.66,1.31,3.85,1.08,4-2.58-3.71-2.81-3.58,1.51,3.91,1.28,4-2.12-2.58-2.34-2.45-.44.42-.66.55.48,1.83.26,2-.09.86-.31,1,2.1,4,1.88,4.1-4.2-5-4.41-4.87.2,1.22,0,1.38-.52.23-.73.4-.66.07-.86.24.54,1.5.34,1.67-1-.3-1.18-.12-.6.17-.8.35-1.48-.72-1.67-.54.77,1.59.59,1.78,2,2.66,1.86,2.85-1.6-.78-1.78-.58-.56.2-.73.4-2.32-1.19-2.48-1,4.72,4.39,4.56,4.6-2.77-1.5-2.92-1.29-1.18-.2-1.33,0-1.5-.35-1.65-.13-.4.42-.54.65,2.85,2.34,2.72,2.56,1.41,1.32,1.28,1.55-1.12-.09-1.24.14-4.89-1.85-5-1.61,2.19,1.63,2.08,1.87-1.39,0-1.49.23,2.12,1.41,2,1.65,2.55,1.4,2.46,1.65-2.32-.31-2.4-.06-5-.91-5.08-.66,1.57,1,1.51,1.29-2.6,0-2.66.28,2.18,1.05,2.13,1.31.59.67.55.93,2.61.87,2.58,1.13,1.88.63,1.86.89-7.49.05-7.51.31,7,.76,7,1,0,.42,0,.68-5.15.7-5.14,1-1.71.75-1.69,1,3.27.25,3.3.52-3.54,1.12-3.49,1.38,8.18-.93,8.23-.67-5.33,1.65-5.27,1.9,4.23-.55,4.3-.29-4,1.7-4,2-1.33,1.08-1.24,1.33,5.23-1.36,5.33-1.11-1.2,1-1.09,1.25-3.68,2.3-3.57,2.54.91.26,1,.5,5.47-2.36,5.6-2.13-2.32,1.91-2.18,2.13,3.29-1.52,3.43-1.3-3.68,3.08-3.53,3.3.69.19.85.4.76.09.92.3-1.65,2.11-1.48,2.31,3.29-2.17,3.47-2-1.09,1.74-.91,1.94-.84,1.65-.65,1.84,1.68-.94,1.87-.76-.94,1.93-.74,2.1,1.86-1.33,2.07-1.16,1-.42,1.22-.26-.74,1.9-.53,2.05.71,0,.92.13-1.2,2.9-1,3,1.69-1.55,1.92-1.42,2.67-3.48,2.9-3.35-.77,2.41-.54,2.54,2.1-3,2.34-2.85-.91,2.92-.67,3-.57,2.54-.33,2.65.57.13.82.23,2.59-5,2.84-4.94-1.71,5.95-1.46,6,1.44-2.42,1.69-2.33-.52,3.4-.27,3.48.91-1,1.16-.91.09,1.86.35,1.93,2-5.46,2.21-5.4-.61,5-.35,5.08,1.71-5.62,2-5.57-.35,4.65-.09,4.69,1.38-5.18,1.64-5.14-.09,4,.18,4,.94-3.5,1.2-3.47,0,4.74.28,4.77.88-4.18,1.14-4.16.16,5.53.43,5.54S52,285,52.26,285s.44.84.71.85.48,4.39.74,4.39.55-2.61.84-2.62S55,286,55.32,286s.5-.39.79-.4.31,5.12.6,5.1c0,.1,2.68,1.85,2.7,2-.29.07-3-4-3.24-4s-1.23-2.07-1.51-2,1,5.24.69,5.32-.84-.81-1.12-.71.2,2.08,0,2.17-.81-.82-1-.72-2.45-4.84-2.69-4.74.17,1.93-.07,2,.75,3.08.51,3.19-.11,1-.35,1.06-1.92-2.87-2.16-2.75.44,2.07.21,2.19-1.45-1.65-1.68-1.53-1-.6-1.19-.47.11,1.3-.12,1.43.64,2.11.41,2.24-1.66-1.69-1.88-1.55-1.43-1.18-1.65-1,1.17,2.72,1,2.87-1-.54-1.24-.38.79,2,.58,2.13-.7-.09-.91.07-3.43-3.44-3.64-3.27,4.4,6.17,4.2,6.34-1.49-1-1.69-.83,1,1.82.8,2-4.27-3.85-4.46-3.67,3.55,4.4,3.37,4.59-5.84-5-6-4.85,3.74,4.3,3.56,4.5-1.35-.55-1.52-.35-2.55-1.5-2.72-1.3,1.34,1.85,1.17,2.05.14.78,0,1,.52,1,.36,1.25,1.8,1.88,1.64,2.1-3.86-2.09-4-1.87-2.27-.83-2.41-.61,1.19,1.42,1.05,1.65-2.76-1-2.89-.74,6.69,4.37,6.56,4.6-6.48-2.87-6.6-2.63,4,2.6,3.87,2.84,1.6,1.26,1.49,1.5-.77.13-.88.38-3.4-.87-3.5-.62,3.66,1.9,3.57,2.15-5.89-1.52-6-1.27-.07.59-.14.85,1.44,1,1.37,1.26,2.27,1.11,2.21,1.36.48.59.42.85,1.54.75,1.49,1-1,.25-1,.51.52.5.49.76-5.56-.13-5.58.14-2.13.43-2.15.69,5.72.85,5.71,1.12-.54.46-.54.72-4.15.58-4.15.84-1,.67-1,.93,1.48.52,1.51.78,5.88-.08,5.91.18-1.82.69-1.78.95-1.83.81-1.78,1.07,4.37-.39,4.42-.13-2.61,1.05-2.55,1.31-1.88,1-1.81,1.27,2.46-.19,2.54.07,1.75-.11,1.84.14-1.8,1.14-1.71,1.38-1.48,1.14-1.38,1.38-1.82,1.41-1.71,1.65.58.39.69.63,2.83-.82,2.95-.59-3.84,2.76-3.71,3,.37.54.5.76,5.84-3,6-2.79,1.66-.6,1.81-.38-2.86,2.6-2.7,2.81-2.18,2.35-2,2.56,4.16-2.67,4.33-2.46.78-.07.95.12.75-.09.93.11-.66,1.24-.48,1.43.31.36.49.54-.37,1.11-.18,1.29,2.31-1.92,2.51-1.75-2.64,3.9-2.44,4.07,2.9-2.87,3.11-2.71-2.7,4.43-2.49,4.59,0,1,.2,1.17,1.95-1.88,2.17-1.74.86-.39,1.08-.25,2-2.44,2.24-2.3-2.56,5.49-2.33,5.62,2.38-3.3,2.61-3.18-.86,2.82-.62,2.94-.2,1.71,0,1.82,1.86-2.78,2.1-2.68-.7,3-.46,3.14,2.69-5.34,2.93-5.25-1.31,4.93-1.06,5,1.67-3.21,1.92-3.13.44.21.69.29-.33,2.84-.08,2.91.42.53.67.6.78-.88,1-.82.91-1.67,1.17-1.61-.08,2.86.17,2.91,0,2.91.29,3,1.21-3.74,1.47-3.7-.05,4.12.21,4.16.83-1.81,1.09-1.78.71-1.37,1-1.34.69-1.82,1-1.8.3,3.25.56,3.27.69-2.83.95-2.82.55-1.52.81-1.52.48.74.74.74.55,3.88.81,3.87.5-2.21.76-2.22.69,3.1.95,3.09.43-2.31.69-2.32.49-.62.75-.65.2-3.12.46-3.15.29-1.53.55-1.56.69,1.66,1,1.63.8,1.91,1.06,1.87,1.31,4.34,1.57,4.29-1-8-.73-8,.93,2.13,1.19,2.07,1.61,4.69,1.87,4.63l.82-.2c.25-.06-.38-3.59-.13-3.66s1.07,1.8,1.32,1.72,1,1.34,1.25,1.26-.4-3.07-.15-3.15-.27-2.37,0-2.45.86.72,1.14.62-.6,1.86-.32,1.75c-.24.17-.62-2.93-.86-2.75s.07,1.12-.16,1.31-1.49-.9-1.69-.74,2.41,3.7,2.22,3.87-1.58-1-1.77-.81-.84-.1-1,.08,1,1.79.77,2-1.32-.58-1.51-.4,1.92,2.57,1.74,2.76.93,1.5.76,1.69-4-2.88-4.16-2.68,3.47,3.61,3.3,3.81-6.7-4.79-6.86-4.59,2.81,2.93,2.65,3.14,2.57,2.54,2.42,2.75-2.57-1.24-2.73-1,1.71,1.76,1.57,2-5.35-2.84-5.49-2.62,1.7,1.72,1.56,1.95-1,0-1.17.25,1.94,1.7,1.82,1.93,2.59,1.9,2.47,2.13-2.62-.79-2.74-.56-5-1.75-5.13-1.51,1.56,1.34,1.46,1.58-.53.41-.62.65,2.81,1.67,2.72,1.91,1.33,1,1.25,1.24-1.73-.06-1.81.19.37.63.29.88-2.37-.12-2.44.13,2.08,1.05,2,1.31-4.9-.54-5-.28,5.33,1.61,5.29,1.87-2.08.15-2.12.41,2.63.87,2.59,1.13-5.87-.17-5.89.09,4.73,1,4.71,1.25,1.58.56,1.57.82-2.65.37-2.65.63-.57.5-.57.77.14.51.15.77-3,.69-3,.95.06.59.09.85,1.46.45,1.49.71,5.24-.16,5.28.1-3.75,1-3.71,1.3-3.92,1.3-3.87,1.55,4.46-.34,4.51-.09-1.82,1-1.76,1.25.88.34,1,.59.29.48.37.73-.93.9-.85,1.15,2.23-.23,2.32,0-3.6,2-3.5,2.27,1.27.12,1.38.36-.35.83-.24,1.07.6.38.72.62,2-.39,2.08-.15,0,.6.18.83.79.17.93.39-.06.69.09.91.44.36.59.58-.25.86-.09,1.07,4.57-2.84,4.73-2.63-4.39,4.14-4.22,4.35-.5,1.2-.33,1.4,3.62-2.47,3.8-2.27,1.54-.78,1.72-.59-4.49,5.16-4.3,5.35,3.74-3,3.93-2.85,1.69-1.11,1.89-.93-3.93,5.29-3.73,5.46,3.64-3.46,3.84-3.29-1.19,2.35-1,2.51.88-.23,1.09-.07,2.5-2.61,2.72-2.46-1.38,2.9-1.16,3,1.33-1.08,1.55-.94,0,1,.21,1.15,1-.74,1.25-.61-1.47,3.76-1.24,3.89.37.56.6.68,1-.81,1.29-.7,1.43-1.78,1.67-1.67-.77,3.11-.52,3.21.18,1.11.43,1.2,1.13-1.29,1.38-1.19.42.51.67.59,2-4.36,2.3-4.28-.49,3.21-.23,3.29.27,1,.52,1.09,1.82-4.75,2.08-4.68-.66,4.69-.4,4.75,1.45-4.07,1.71-4-.66,5.78-.4,5.83.94-2,1.21-2,.38,1.06.64,1.1.58-.18.85-.15,1.07-4.49,1.34-4.46-.17,6.57.09,6.6,1.1-6.62,1.37-6.6.06,6.88.33,6.9.72-3.35,1-3.34.5,1.47.77,1.47.55,2.1.81,2.1.58-.9.85-.9l.84-.05c.26,0,.61.62.87.6s.62.39.89.37.36-2.57.62-2.6.58.26.85.23,0-4.66.21-4.69,1.23,5.09,1.49,5.05.57-.06.83-.11.31-1.4.57-1.44.59.16.85.11-.22-3.46,0-3.52.83,1.35,1.09,1.29.66.52.92.45,1.38,3,1.64,2.92-.18-2.6.08-2.67-.19-2.32.07-2.4,1.65,3.3,1.9,3.22,0-1.78.2-1.87.73.4,1,.31-.48-2.63-.23-2.73.27-.63.51-.73,2.52,4.43,2.76,4.32-.11-1.59.13-1.7-1.59-4.46-1.35-4.58,1.45,1.8,1.69,1.68,2.19,3,2.42,2.86-.31-1.72-.08-1.85-.75-2.34-.52-2.47.4-.3.63-.44,1.79,1.88,2,1.74-.58-1.84-.36-2,1.61,1.43,1.83,1.28,1.42,1,1.64.87-.43-1.54-.22-1.7.94.31,1.15.15-.48-1.49-.27-1.66,1.82,1.31,2,1.14-2.69-3.87-2.5-4,.24-.39.42-.56,2.22,1.69,2.39,1.52,1.39.7,1.56.53.16,1.5.33,1.33c.11.06-1.53-3.31-1.42-3.24-.16.25-2.26-.91-2.42-.66s3.86,3,3.71,3.29-3.71-1.46-3.85-1.2-1.11.14-1.24.4,1.5,1.41,1.39,1.64,3.42,2.21,3.31,2.45.34.65.23.89-2.89-.73-3-.48-.81.23-.9.47-3.33-.65-3.42-.4,4.31,2.08,4.22,2.33-1.91-.08-2,.17.69.75.62,1,2.27,1.12,2.21,1.37-2.18,0-2.24.21,1.05.74,1,1-4.83-.4-4.88-.14,6.07,1.56,6,1.82-7-.5-7.08-.24,4.75,1.13,4.72,1.39-.88.42-.9.68,3.43.71,3.41,1-8,.17-8,.43,5.78.67,5.78.93-4.29.56-4.29.82,1.27.54,1.28.8,2.81.36,2.83.63-.2.5-.18.77-1.18.63-1.15.89-1.66.77-1.62,1,.57.48.62.74,1.72.22,1.77.48,3.08-.16,3.14.1-5.86,1.91-5.79,2.16,6.14-1.08,6.21-.83-.94.74-.86,1-.1.51,0,.76,0,.51.07.76-1.65,1.14-1.56,1.39-1.73,1.28-1.63,1.53,1.9-.23,2,0,2.57-.64,2.68-.4-2.86,2-2.74,2.21,1.71-.3,1.83-.07-1.83,1.63-1.7,1.86,2.43-.81,2.57-.59-2,1.88-1.87,2.1,1.89-.59,2-.37-2.47,2.4-2.32,2.61,1.41-.3,1.57-.09,0,.75.14,1,2.14-1,2.3-.81,1.52-.61,1.69-.41-2.09,2.56-1.91,2.76-.76,1.5-.58,1.69,2.58-1.72,2.77-1.53,2.26-1.6,2.46-1.41.06.62.25.8-2.82,4-2.63,4.15,4.15-4.06,4.36-3.9-.92,1.9-.72,2.06-1.8,3.21-1.59,3.37,1.78-1.45,2-1.3,2.42-2.55,2.64-2.4-.13,1,.09,1.17.5.11.73.25-1.32,3.12-1.09,3.26-1.09,3-.86,3.16,1.75-1.95,2-1.82,1.68-2,1.92-1.92,1.36-1.64,1.6-1.52-2.29,6-2.05,6.16,2-3.15,2.28-3,1.7-2.75,2-2.65-.38,2.23-.13,2.33-.17,1.93.07,2,0,1.67.25,1.76,2.36-5.43,2.61-5.34-.42,3-.17,3.05.33.75.58.83.78-.9,1-.83-.11,2.62.15,2.68.73-.74,1-.69,0,3,.22,3.05,1.49-5,1.75-4.95.61-.67.87-.63.57-.62.83-.59.35,1.11.61,1.14.56-.69.82-.66.35,1.63.61,1.65.4,1.95.66,2,.69-3.8,1-3.79.46.06.73.06.47,3.83.73,3.83.48-3.46.75-3.47.65,4.79.92,4.78.64,1.33.91,1.31.15-5.85.41-5.87.55.65.81.63,1,4.7,1.3,4.67.11-3.63.37-3.66,1.07,3.56,1.33,3.52-.57-6.84-.31-6.88.47,0,.73-.05,1.84,6.53,2.1,6.48.74.61,1,.55-.66-5.15-.41-5.21,1,1.69,1.24,1.62.08-1.65.34-1.73-.31-2.71-.05-2.79,2.26,5.4,2.51,5.32-1.11-4.92-.86-5,1.26,2,1.51,1.94,1.49,2.39,1.74,2.29.18-1.05.42-1.15.77.36,1,.26-1.5-4.63-1.26-4.74,2.7,4.5,2.94,4.39,1,.8,1.28.68.33-.65.57-.77-2-4.74-1.73-4.87,3.58,5.19,3.81,5.05-2.39-5.12-2.17-5.26,2.89,3.63,3.11,3.48-2-4.16-1.81-4.31.46-.21.68-.36,1.18.78,1.39.63,2.72,2.74,2.93,2.58-.09-1.09.12-1.26.34-.51.55-.67,1.45.81,1.65.63-2-3.22-1.82-3.39.92.2,1.11,0,1.9,1.18,2.09,1-.45-1.31-.27-1.5,1.86,1,2,.8-2.75-3.37-2.57-3.57,1.16.32,1.33.12-.87-1.45-.7-1.66-1.67-2-1.51-2.23.3-.35.46-.56,1.2.32,1.36.11,2.34,1.07,2.5.86-2.85-2.58-2.7-2.8,3.94,2,4.08,1.78-1.67-1.67-1.53-1.9,1.84.51,2,.28-1-1.19-.9-1.42,1.58.25,1.7,0,.91-.15,1-.39-3.81-2.42-3.69-2.66,3.48,1,3.6.73,0-.74.1-1c0,.28-2.5.54-2.52.82s6.55.8,6.54,1.08-2.09.43-2.09.69-2.06.53-2,.79.34.51.35.77,2.49.34,2.51.61-.61.51-.58.78-.17.49-.14.75-2.88.9-2.85,1.16-1.41.8-1.36,1.06,5.71-.51,5.76-.25-2.31,1-2.25,1.22-2.36,1.1-2.29,1.35,2.85-.18,2.92.07,1.66,0,1.74.29-2.07,1.15-2,1.4,1.05.18,1.14.43-1.07.93-1,1.18,3-.63,3.06-.38-1.41,1.1-1.31,1.35-.46.75-.35,1,2-.38,2.08-.15-2.81,2-2.69,2.21-.74,1-.62,1.26,4.35-1.83,4.48-1.6-4.57,3.31-4.43,3.53,2.89-1.13,3-.91,3.83-1.93,4-1.71.08.47.23.69-.84,1.15-.68,1.36.47.23.63.44.11.5.28.7-3.52,3.57-3.35,3.77,1.37-.44,1.55-.24,2-1.15,2.22-.95-3.54,4.08-3.35,4.27,4.64-3.79,4.82-3.6-.56,1.28-.37,1.46-1.95,2.89-1.76,3.07.91-.16,1.11,0,.8-.07,1,.09-.52,1.53-.32,1.69.58.21.79.37,1.21-.65,1.42-.49,1.26-.81,1.47-.66-.52,1.7-.3,1.85-.58,1.91-.36,2,3.2-4,3.43-3.86,1.89-2.2,2.11-2.07-2.51,5.31-2.28,5.44-.37,1.84-.14,2,2.45-3.44,2.68-3.32.15.85.38,1-.68,2.7-.44,2.81.58.11.82.21,2.87-5.34,3.11-5.24-1.28,4.47-1,4.57,1.56-2.6,1.8-2.51-1.46,5.62-1.21,5.71.88-.77,1.13-.69,2.42-5.84,2.67-5.77.25.78.51.85.11,1.39.36,1.46-.9,5.69-.64,5.76,1.63-4.43,1.88-4.37.91-1.84,1.17-1.78.17,1.68.43,1.73-.24,4.47,0,4.51,1.69-7.27,1.95-7.23.42.24.68.27,0,4.51.22,4.54.91-3.93,1.17-3.91.25,3,.51,3,.56-.73.82-.71.59-2.23.86-2.22.45.71.71.71.48,2.15.75,2.15.46-3.13.72-3.13.49.8.75.79.83,6.31,1.09,6.3.5-1.3.76-1.32,0-5.94.28-6,1.07,5.42,1.33,5.39.13-3.3.39-3.33.24-1.78.5-1.82,1.58,6.54,1.84,6.49-.28-4.71,0-4.75.09-2.07.35-2.13.86,1.68,1.11,1.62.93,1.66,1.18,1.6,1.06,1.86,1.31,1.79-.76-4.73-.51-4.8,2.31,5.83,2.56,5.76-.15-2.4.1-2.48-.46-3-.21-3.06,2.26,4.59,2.51,4.5.09-1.4.33-1.5-2.12-6.52-1.87-6.62,3.67,7.17,3.91,7.07-1.48-4.58-1.25-4.7-.76-2.69-.52-2.81,2.19,3.26,2.43,3.14-.94-2.83-.71-2.95,2.37,3.21,2.6,3.08,2,2.26,2.21,2.12-.68-2.24-.46-2.38.26-.63.48-.78,0-1,.21-1.13.78.17,1,0-.71-1.87-.5-2,1.29.82,1.49.66-.5-1.48-.3-1.65.33-.39.53-.56,3.2,2.86,3.4,2.69-3.34-4.52-3.15-4.7-.44-1.15-.25-1.33.48-.16.67-.34,4.27,3.45,4.45,3.26.81,0,1-.22.21-.6.39-.8-1.15-1.72-1-1.92.6-.21.76-.42-1.42-1.78-1.26-2-.31-.85-.16-1.06,4.1,2.28,4.25,2.07-5.16-4.15-5-4.37,2.14.84,2.28.62,1.09.09,1.23-.13-.57-.91-.44-1.14-.13-.62,0-.85,3.63,1.33,3.75,1.1-3.46-2.31-3.34-2.55,2.61.68,2.72.44,2.18.36,2.29.12,1.15-.16,1.25-.4-.14-.7,0-.95-1.34-1.09-1.25-1.34-2.83-1.49-2.75-1.74,1-.2,1.1-.45-.94-.78-.87-1-.49-.61-.43-.87.59-.34.64-.6,2.68,0,2.73-.22-1.89-.86-1.85-1.12-2.17-.81-2.13-1.07,3.67,0,3.71-.26-1.66-.68-1.63-.94,1.84-.35,1.86-.61-2.55-.64-2.54-.91-.19-.46-.18-.73,2.07-.45,2.07-.72-.43-.49-.44-.76,5.38-.82,5.36-1.11-5.06-.29-5.08-.58-2.52-.29-2.55-.58,5.43-.25,5.39-.54c.13,0-2.92.22-2.79.19.1.28-2.53,1.08-2.42,1.35s.79.41.91.68,6.75-2.28,6.87-2-5.78,3.31-5.65,3.57,4.12-1.42,4.24-1.18-1.79,1.53-1.67,1.76,3.76-1.49,3.89-1.26-3.6,2.67-3.46,2.9,1.73-.42,1.87-.19-2.46,2.23-2.31,2.45,1.45-.27,1.6-.05,2.17-.87,2.32-.65-1,1.43-.88,1.64,1.62-.58,1.79-.37-.69,1.23-.52,1.43,3-1.84,3.16-1.64-3.15,3.45-3,3.65,3.4-2.39,3.59-2.2-1.56,2.19-1.38,2.38,1.18-.44,1.37-.25,1.26-.58,1.45-.4-3.36,4.42-3.16,4.6,4.67-4.44,4.87-4.27-4.28,5.84-4.08,6,3.14-2.93,3.35-2.76-2.17,3.67-2,3.84,3.72-4,3.93-3.84-1.52,3-1.31,3.17-.68,2-.46,2.16,1.37-1,1.6-.84,1.91-2,2.14-1.83,0,1,.24,1.14-1.1,3-.87,3.14,1.74-1.93,2-1.8-.72,2.58-.49,2.7,1-.64,1.24-.53.95-.63,1.19-.52.15,1,.4,1.13.95-.75,1.2-.64.77-.42,1-.32.1,1.24.35,1.34.41.54.66.63,1.66-3.05,1.91-3-.15,2.12.1,2.2,1.31-2.42,1.56-2.34,1-1.73,1.27-1.66-.77,4.73-.51,4.79.63-.25.88-.19.67-.48.93-.42.69-.75.95-.7.74-1.11,1-1.07.08,2.53.34,2.57.35,1.28.62,1.32.92-2.75,1.18-2.72.35,1.42.62,1.45.78-2.76,1.05-2.73.14,4.7.41,4.72.79-4.33,1.06-4.32.35,4.15.61,4.16.6-2.34.86-2.34.53.72.79.72.5-1.28.77-1.29.72,4.93,1,4.92.41-3.22.67-3.24.82,3.31,1.08,3.29.4-2.09.66-2.12.31-2.18.58-2.21.1-3.05.36-3.09,1.58,6.9,1.84,6.86.25-2,.51-2.1-.16-3.66.1-3.71.91,1.81,1.17,1.75.32-.94.58-1,.06-1.77.32-1.84,1.21,2.49,1.47,2.42-.5-3.45-.24-3.52.25-.72.51-.81,2.83,6.71,3.08,6.62-.86-4-.61-4.12.58.05.82,0,2.14,3.74,2.38,3.64-.46-2.54-.22-2.65-1.66-4.88-1.43-5,.59.16.82,0,1.69,2.26,1.93,2.14-.7-2.36-.47-2.48,3.79,5.66,4,5.53-1.92-4.37-1.69-4.5.91.48,1.13.34.32-.48.54-.63,1.6,1.38,1.82,1.23-2.35-4.17-2.14-4.32.92.43,1.13.27,4.25,4.52,4.46,4.36-1.65-2.93-1.45-3.1.64-.1.83-.28.47-.31.66-.49-3.09-4-2.9-4.18,2.11,1.46,2.3,1.28-1.65-2.24-1.47-2.43,4.48,3.43,4.65,3.24,1.72.72,1.9.52-4.42-4.37-4.25-4.58,2.44,1.31,2.6,1.11,2.94,1.51,3.1,1.3-3.16-2.95-3-3.16-1.56-1.64-1.42-1.86,1.39.35,1.53.13,3.33,1.42,3.47,1.2.58-.33.71-.56.85-.19,1-.43,0-.66.11-.89,1.89.24,2,0-5.16-3-5.05-3.19,4.6,1.37,4.7,1.12-5.43-2.71-5.34-3,.48-.31.57-.56,6.75,1.71,6.83,1.46-2.88-1.52-2.81-1.77-3.16-1.42-3.09-1.68,6.26,1,6.32.79-1-.85-.92-1.11,1.46-.33,1.5-.59-4.24-1.33-4.2-1.59.92-.4,1-.66-4.21-1-4.18-1.27,5.28,0,5.31-.24.53-.53.54-.79-4.58-.75-4.57-1,.68-.45.68-.71,3.38-.53,3.38-.79-2.6-.46-2.61-.72,2.72-.67,2.7-.94-4.23-.19-4.25-.45,1.93-.68,1.9-.95,1.42-.71,1.38-1-4.37.17-4.41-.1.67-.57.62-.83,1.57-.8,1.51-1.06,3.53-1.36,3.47-1.61-6.11,1-6.18.75,3.34-1.43,3.27-1.68-.86-.28-.94-.54,0-.54-.07-.79-3.24.65-3.33.4,1.31-1,1.21-1.24,4.62-2.46,4.52-2.71-5.71,1.91-5.81,1.67,4-2.4,3.85-2.63.54-.91.42-1.15-2.46.66-2.58.42-2.66.85-2.8.6,3.74.82,3.59.57c.22.2,1.3-5.09,1.53-4.89s-1.84,3-1.61,3.15.89-.27,1.1-.1-2.15,3.56-1.94,3.72,4-4.34,4.22-4.18-.15,1,.07,1.16-2,3.79-1.82,3.94,2.32-2.44,2.54-2.29-1.08,2.63-.86,2.77-.06,1.16.17,1.3,2.47-3,2.69-2.9-1.19,3.14-1,3.27,1.12-.88,1.36-.75-.94,3-.71,3.12.9-.45,1.14-.33,1.48-1.76,1.72-1.65,1.63-2.31,1.87-2.2-1.79,5.46-1.55,5.56,3.53-7.12,3.78-7-.2,1.8.05,1.89-.23,2.06,0,2.15-.4,2.81-.15,2.9,1.6-3.1,1.85-3,.75-.71,1-.63.54-.09.8,0-.45,3.64-.2,3.71,1.6-4.2,1.85-4.14-.88,6.11-.62,6.17.86-1.27,1.12-1.22.92-1.87,1.18-1.82,0,3.1.27,3.15.84-1.72,1.1-1.68.46.76.72.8.78-1.95,1-1.92.59-.67.85-.65.32,2.64.58,2.66.81-4.57,1.08-4.55.41,1.56.67,1.57.45,2.83.72,2.83.55-.29.81-.29.52-1.38.79-1.39.57,1.29.83,1.28.64,1.58.9,1.56.62.52.89.5.22-3.81.48-3.83.69,1.46.95,1.43.25-2.24.51-2.27.87,2.34,1.13,2.3-.26-4.67,0-4.71,1.7,6.27,2,6.22.18-1.93.44-2-.29-3.57,0-3.63.1-1.51.36-1.57,1,1.91,1.26,1.84,1,1.47,1.22,1.39.12-1.29.37-1.38,1.62,3.07,1.87,3-.93-4.09-.69-4.18,1.6,2.67,1.84,2.57.84.56,1.08.45-1.64-5-1.4-5.08.86.75,1.1.63,2.13,3.13,2.37,3-1.57-4.07-1.33-4.2,3.88,5.89,4.11,5.76-1-2.94-.81-3.07-.39-1.65-.17-1.79,1.53,1.36,1.75,1.21-2.65-4.74-2.43-4.89,3.3,3.75,3.52,3.59-1.53-2.86-1.32-3,3.84,4,4,3.79S395,395.2,395.16,395s-.69-1.48-.49-1.66,4.59,4.2,4.78,4,1.46.61,1.65.43-5.2-5.84-5-6,5.47,4.37,5.65,4.18.73-.18.9-.38-.14-.92,0-1.13-1.17-1.68-1-1.88-1.77-2-1.62-2.21,3.54,1.86,3.69,1.65-4.07-3.37-3.92-3.59,5.16,2.65,5.3,2.43-5.34-3.8-5.21-4,3.76,1.56,3.88,1.32-.16-.69-.05-.92,2.93.8,3,.57.17-.6.28-.84-2.81-1.8-2.71-2-1.4-1.08-1.3-1.32,2.35.31,2.44.06-1.9-1.15-1.83-1.4-1.11-.8-1-1.06-.75-.64-.69-.89,7,1.13,7,.87.77-.47.82-.73.41-.56.45-.82-3.63-1.14-3.6-1.4S403,377.3,403,377s5.84,0,5.86-.21-3.53-.78-3.52-1,3.43-.4,3.44-.66-.17-.58-.17-.84.41-.59.41-.85-5.21-.31-5.22-.57,1.32-.55,1.29-.82-.12-.47-.15-.73.53-.56.49-.82,2.55-.91,2.51-1.17.14-.6.09-.86.57-.7.51-1-5.86.8-5.92.54.89-.69.83-.94,1.57-.95,1.49-1.2,3-1.5,3-1.75-4.65,1-4.74.73,1.37-1,1.28-1.27,1.48-1.14,1.38-1.39-1.73.14-1.83-.11-3.14.87-3.25.63-.12-.44-.23-.68,4.27-2.7,4.15-2.93.71-1,.59-1.26-6.09,2.81-6.22,2.58,4.29-3.09,4.15-3.32-2.31.81-2.45.58,4-3.25,3.84-3.47-2.19.78-2.34.57.72-1.23.56-1.44-5.76,3.66-5.92,3.45,4.48-4.15,4.32-4.36-3.84,2.46-4,2.25,3.07-3.3,2.9-3.5-2.88,1.84-3.06,1.64,3.35-3.85,3.17-4-3.91,3-4.09,2.8,2.61-3.41,2.43-3.59-5.63,5.13-5.82,5,5.26-6.49,5.06-6.67-4.28,4-4.48,3.84.39-1.23.19-1.4-2.26,2-2.46,1.82-.44-.12-.63-.27.07-.77-.13-.92-1,.62-1.16.48,1.1-2.31.91-2.44-3.05.59-3.24.46c.06-.09,3.63-.61,3.69-.71.22.1-1,1.94-.77,2s2.6-5,2.82-4.87.78-.74,1-.65-1.87,6.39-1.64,6.48,2-4.14,2.26-4.06.85-.93,1.1-.85-1.31,5.95-1,6,1.2-2,1.46-1.93.68-.36.94-.3-.08,2.62.17,2.69,1-1.5,1.23-1.44.73-.72,1-.67.79-1.12,1.05-1.07,1-2.42,1.23-2.37-.34,5.32-.08,5.36,1.11-3.75,1.37-3.72.58-.53.84-.5.3,2.11.56,2.13.92-4.6,1.18-4.58.39,1.12.65,1.13.27,4.66.54,4.67.62-2.47.89-2.46.52-1,.78-1,.56,4.83.82,4.82.39-6.19.65-6.2.66,3.67.93,3.66.64,1.43.9,1.41.65.88.92.85.55-.29.82-.32,0-4.24.29-4.27,1,3.6,1.31,3.56-.29-5,0-5.09,1.49,5.23,1.75,5.17-.06-3,.2-3.07.18-1.49.44-1.55,1.51,3.86,1.76,3.79.55-.18.81-.25-.37-3.18-.12-3.26.24-.87.5-1,.85,1,1.1.87.77.57,1,.48-.75-3.27-.5-3.37,1.09,1.39,1.34,1.28,2.15,3.48,2.39,3.37.32-.68.56-.8,1.42,1.48,1.66,1.36-2.73-6.26-2.5-6.39,1.07.92,1.3.79,2,2.32,2.24,2.18.24-.67.46-.81-.31-1.45-.09-1.6.34-.42.55-.58,1,.45,1.21.29,2,1.58,2.19,1.41-1.59-2.8-1.39-3,3.18,2.73,3.37,2.55-2.1-3.13-1.91-3.31-1.65-2.38-1.46-2.57,3.42,2.57,3.6,2.37,1.17.27,1.35.07-1-1.58-.79-1.79,2.42,1.19,2.59,1-2.37-2.52-2.21-2.74-2.23-2.18-2.08-2.4,4,2,4.12,1.82.78-.2.92-.43.44-.43.57-.66-4.58-3.07-4.46-3.3,6.1,2.47,6.22,2.23-3.45-2.22-3.34-2.46-1.95-1.35-1.85-1.59-.7-.73-.61-1,4.27,1,4.35.77,2.05.06,2.13-.19-2.31-1.24-2.24-1.5.23-.47.29-.73,3.17.12,3.23-.13-3.33-1.21-3.29-1.47,4,.06,4.08-.2-6.91-1.4-6.88-1.66,4.41-.07,4.43-.33-.26-.56-.25-.83,1.67-.51,1.67-.77-4.85-.53-4.86-.79-.66-.42-.67-.68,6.81-.93,6.79-1.19-6,0-6-.27,2.83-.83,2.8-1.1-.1-.52-.15-.78,1.88-.91,1.83-1.17-.76-.44-.82-.69-4.5.54-4.57.28-1.43-.06-1.5-.31,6.53-2.46,6.45-2.71-6,1.4-6.05,1.15.31-.58.22-.83,1.14-.94,1-1.19,1-1,.88-1.2-.71-.24-.82-.48-2.95.89-3.07.65.39-.69.27-.92,5.76-3.71,5.63-3.95-5.46,2.5-5.6,2.27.27-.72.13-.94-2.07.76-2.21.54,2.46-2.21,2.31-2.43,1.89-2,1.73-2.2-2.63,1.26-2.79,1.05,1-1.39.79-1.6.88-1.43.71-1.63-2.83,1.68-3,1.48.13-.8-.05-1,1.13-1.77.95-2,.6-1.37.42-1.56,0-.87-.17-1.05-3.16,2.48-3.35,2.3-1.4.77-1.6.59-1.29.75-1.49.57.07-.81-.13-1-.25-.46-.45-.62,3.19-5,3-5.11-2.07,1.8-2.28,1.65-2.76,3-3,2.8.18-1.08,0-1.23,3-5.47,2.76-5.62-1.54,1.34-1.77,1.2-1.74,1.82-2,1.68-.57,0-.8-.18-.63.08-.86-.05-.1-.9-.34-1,.29-1.74.06-1.86.35-2,.11-2.13-2.95,5.05-3.19,4.94.81-3.08.57-3.19-.9.76-1.15.66.71-3.22.46-3.32-2.13,4.08-2.38,4-.71.51-1,.43.1-1.84-.16-1.92,0-1.88-.28-2-3.16.7-3.43.62c.28,0,2.86-1.4,3.14-1.4s.54-.67.82-.67.49-.17.75-.18.64,4,.9,4,.58.34.85.32.67,1.3.93,1.28.58-.18.85-.2.37-1.94.63-2,.06-3.72.32-3.75.88,2.46,1.14,2.42.61.36.87.32.33-1.13.59-1.18.8,1.2,1.06,1.14-.41-4-.16-4.1,1.91,5.36,2.17,5.3-1.26-6.45-1-6.52,1.72,4,2,3.92,1.17,1.76,1.42,1.68-1.47-5.72-1.22-5.82,1.69,3.08,1.94,3-.53-2.63-.29-2.73,2.35,4.11,2.59,4-.82-3.07-.58-3.19.49-.13.73-.25-.65-2.26-.42-2.38,4,6.05,4.23,5.92-3.14-6.35-2.91-6.49,2.48,3,2.7,2.88,1.8,1.65,2,1.5-1.26-2.78-1-2.93.79.16,1,0-.11-1,.1-1.17-.08-.89.12-1.06-.78-1.6-.59-1.78,4.06,3.52,4.25,3.34-3.79-4.51-3.6-4.7,4.84,3.82,5,3.62-4.41-4.58-4.24-4.78,1,.25,1.15,0-.5-.94-.34-1.15,6,3.71,6.18,3.49-3.83-3.27-3.68-3.49,4.45,2.13,4.59,1.91-.29-.91-.16-1.14-3.95-2.74-3.83-3,2.15.51,2.26.27,2.93.68,3,.44-6.08-3.05-6-3.3.35-.3.44-.55,3,.5,3,.24-3-1.35-3-1.61,1.51,0,1.57-.31,3.32.2,3.37-.06-1-.72-.95-1-.23-.55-.19-.81-1.36-.64-1.33-.9.17-.45.18-.72-2.22-.51-2.21-.78,3.18-.43,3.18-.7-2.9-.36-2.91-.63,4.82-.8,4.8-1.06.21-.6.18-.86S447.56,259.91,447.52,259.65Z" />
</svg>