<?xml version="1.0" encoding="UTF-8"?>
<svg xmlns="http://www.w3.org/2000/svg" viewBox="0 0 40 40">
  <defs>
    <style>
      .cls-1 {
        fill: #616c91;
      }

      .cls-2 {
        fill: #dbaab8;
      }

      .cls-3 {
        isolation: isolate;
      }

      .cls-4 {
        mix-blend-mode: multiply;
        opacity: .8;
      }

      .cls-5 {
        fill: #919bc6;
      }

      .cls-6 {
        fill: #cfdaef;
      }
    </style>
  </defs>
  <g class="cls-3">
    <g id="_圖層_6" data-name="圖層 6">
      <g>
        <path class="cls-5" d="M35.7,22.93c-.01,.24-.56,.42-.58,.65s.19,.47,.16,.71,.66,.59,.62,.83-.51,.38-.57,.61-.61,.3-.68,.52,.36,.61,.28,.83,.39,.69,.29,.91-.9,.1-1.01,.31-.51,.22-.64,.43,.36,.79,.23,.98-.99-.17-1.14,.02,.78,1.27,.62,1.45-.51,.21-.68,.37-.05,.69-.23,.85-1.08-.53-1.27-.38,.34,1.28,.15,1.42-1.25-.99-1.45-.87-.24,.48-.45,.6-.17,.68-.38,.79-.35,.41-.57,.5-.88-.89-1.1-.8,.04,1.49-.18,1.56-.45,.25-.68,.32-.47,.18-.71,.24-.81-1.32-1.04-1.27-.2,1.43-.43,1.47-.47,.24-.7,.28-.51-.05-.75-.02-.52-.27-.76-.25-.48,.16-.72,.17-.49,.26-.73,.26-.49-.93-.73-.93-.44-.75-.68-.76-.56,1.58-.8,1.56-.49-.08-.73-.1-.38-.89-.62-.92-.53,.33-.77,.29-.59,.54-.82,.5-.15-1.65-.38-1.7-.81,1.21-1.04,1.14-.47-.19-.7-.27-.02-1.3-.24-1.39-.4-.19-.62-.29-.9,.73-1.11,.62-.68,.16-.88,.04-.27-.54-.47-.67,.23-1.14,.04-1.29-.19-.48-.37-.63-1.44,.89-1.61,.73,.68-1.37,.51-1.54-.43-.22-.58-.4-.72-.02-.87-.2-.59-.18-.72-.38-.14-.5-.26-.71,.25-.69,.13-.91-.07-.48-.17-.69-.66-.22-.75-.44-.6-.3-.68-.53,.6-.69,.53-.92,.22-.52,.17-.76-.28-.4-.32-.64-.61-.39-.64-.63-.66-.45-.67-.69,1.11-.51,1.12-.75,.43-.44,.45-.67-.05-.44-.03-.68-.11-.46-.07-.69-.73-.59-.69-.83,.74-.32,.79-.55,.18-.42,.24-.65,.16-.42,.24-.65-.94-.84-.85-1.07,.2-.46,.29-.68,.55-.29,.65-.5,.45-.31,.56-.51,.85-.03,.98-.23-.45-.84-.32-1.03,.98,.14,1.13-.05-.92-1.32-.77-1.5,1.23,.42,1.39,.25-.61-1.23-.45-1.4,1.3,.64,1.47,.48,.53-.07,.71-.23-.29-1.08-.1-1.22,.65,.1,.85-.04,.3-.39,.5-.51,.3-.41,.51-.52,.28-.49,.49-.6,.24-.64,.45-.74,.85,.75,1.07,.66,.45-.1,.68-.18,.42-.19,.65-.26,.49,.06,.72,0,.23-1.08,.47-1.13,.66,.96,.89,.92,.44-.1,.67-.13,.47,.26,.71,.24,.4-1.27,.64-1.27,.49-.27,.73-.27,.51-.12,.75-.1,.5,.07,.74,.1,.36,1.04,.59,1.07,.61-.67,.84-.63,.34,.72,.57,.78,.38,.4,.6,.47,.52-.09,.74,0,.21,.74,.43,.83,1.04-1.2,1.26-1.1-.23,1.55-.01,1.66,.96-.78,1.17-.66,.17,.65,.37,.78,.66-.11,.85,.03,.38,.32,.57,.47,.58,.08,.76,.23,.58,.12,.76,.28,.3,.43,.47,.6-.1,.78,.06,.96-.43,.98-.28,1.16,.33,.31,.47,.5,1.16-.25,1.29-.05-.03,.6,.09,.81-.23,.67-.11,.88,.09,.46,.2,.68,1.7-.26,1.79-.04-.36,.7-.28,.92,.13,.48,.21,.7-.14,.55-.08,.78-.04,.5,.01,.74-.26,.53-.22,.76,1.03,.31,1.06,.55,0,.5,.01,.74,.04,.49,.05,.73-.93,.49-.93,.74,.39,.47,.38,.71Z"/>
        <g class="cls-4">
          <path class="cls-2" d="M32.86,13.99c-.15-.23-.27,.02-.49,0-.25-.02-.39-.33-.56-.16-.16,.16-.54,.36-.49,.64,.04,.22,.7,.35,.73,.57s-.2,.48-.18,.7,.01,.45,.02,.67c.01,.24,.14,.49,.14,.73s-.13,.49-.14,.73-.53,.43-.56,.67,.29,.52,.25,.76,0,.5-.05,.73,.22,.57,.16,.8-.85,.25-.93,.48,.35,.64,.26,.86-.23,.44-.33,.66-.03,.54-.14,.75-.9,.07-1.02,.28,.12,.62-.01,.83-.48,.25-.62,.45,.26,.79,.11,.98-.75,.03-.9,.22-.7,0-.87,.18,.58,1.21,.41,1.38-.63,.07-.81,.23-.17,.55-.36,.71-.77-.17-.96-.02-.33,.36-.52,.5-.42,.24-.62,.37-.32,.39-.53,.51-.51,.08-.72,.2-.07,.93-.29,1.04-.46,.23-.68,.33-.74-.48-.96-.4-.58-.21-.81-.13-.13,1.18-.36,1.25-.58-.23-.82-.18-.45,.29-.68,.33-.64-.93-.88-.9-.42,.31-.66,.33-.45,.24-.69,.25-.47,.75-.71,.75c-.22,0-.46,.04-.68,.03s-.42-.54-.63-.55-.41-.26-.62-.28c-.31-.04-.08,.66-.24,.85-.17,.21-.23-.03-.18,.24,.05,.24-.06-.02,.23,.09,.23,.09,.23,.76,.46,.84s.48,.1,.71,.17,.56-.25,.8-.19,.5-.12,.74-.07,.42,.29,.66,.33,.38,.76,.62,.79,.47,.29,.72,.32,.49,.25,.74,.26,.51-.02,.76,0,.5-1.02,.74-1.02,.52,1.06,.76,1.05,.43-1.13,.68-1.15,.53,.57,.78,.54,.4-.75,.65-.78,.46-.12,.71-.16,.51,.27,.75,.22,.63,.57,.86,.51,.45-.22,.68-.29,.2-.88,.42-.96,.44-.14,.65-.23,.77,.52,.98,.42,.29-.49,.5-.61,.16-.65,.36-.78,.52-.06,.72-.19,.44-.2,.63-.35,.46-.19,.64-.35-.15-.84,.02-1.01,.32-.31,.48-.48,.93,.19,1.08,0,.6-.17,.74-.36-.39-.87-.26-1.06,.85-.04,.97-.24,.12-.5,.22-.71,.08-.5,.18-.72,.51-.33,.59-.55-.26-.61-.19-.83-.32-.57-.26-.8,.25-.41,.29-.65,.93-.34,.96-.58-.6-.55-.59-.79,.52-.46,.52-.7-.58-.47-.59-.71,.21-.51,.19-.76-.6-.42-.64-.67,.21-.52,.16-.77,.01-.51-.05-.75-.43-.39-.5-.62,.51-.69,.43-.92-.97-.16-1.06-.39,0-.51-.12-.74-.5-.28-.61-.5-.12-.46-.25-.68,.08-.61-.06-.82Z"/>
        </g>
        <path class="cls-1" d="M29.32,13.2c.18-.17,1.33,.3,1.31,.04-.02-.2,.18-.73,.05-.97-.09-.19-.44-.38-.59-.6-.13-.18-.46-.27-.63-.46-.15-.17-.95,.26-1.12,.08-.16-.16-.42-.19-.6-.36-.17-.16,.21-.93,.03-1.09-.18-.15,.15-.95-.04-1.1s-1.28,.88-1.48,.74,.66-.73,.46-.87c.18-.18-.84-.73-.68-.9,.17-.19,1.03,.22,1.17,.04,.16-.2,.32-.42,.45-.62,.14-.22,.33-.46,.41-.66,.11-.25,.77-.51,.79-.73,.04-.27-1.62-.27-1.72-.47s.11-.03-.14-.14c-.2-.09-.09-1.16-.36-1.18-.22-.02-.54-.38-.81-.36-.22,.02-.28,1.42-.54,1.47-.23,.04-.73-1.16-.98-1.1-.23,.06-.41,.38-.65,.46-.22,.07-.66-.35-.89-.26s.07,1.5-.16,1.59-1.02-1.1-1.25-1-.04,1.94-.26,2.06c-.22-.1-.21-1.76-.43-1.85-.22-.09-1.01,1.3-1.22,1.22-.22-.08,.15-1.88-.06-1.95-.23-.07-.93,1.46-1.14,1.4-.24-.06-.34-.47-.56-.52-.24-.05-.49,.47-.7,.45-.26-.02-.43-1.35-.64-1.34-.27,.02-.01,1.27-.18,1.36-.23,.13-1.1-.5-1.12-.26-.02,.2,.52,.38,.63,.64,.08,.19-.3,.68-.16,.9,.12,.18,.17,.49,.33,.69,.14,.17,.82-.1,1,.09,.16,.16,1,.51,1.18,.68-.2,.16-1.72-.34-1.91-.18s-.51,.24-.69,.4c-.19,.17,.12,.89-.05,1.07-.18,.18-.46,.29-.62,.47-.17,.2,.41,.98,.27,1.17-.16,.21-.68,.12-.8,.33-.14,.23-.2,.45-.27,.67-.09,.26,.19,.43,.2,.65,.02,.26-.31,.48-.13,.66,.15,.15,.39,.08,.64,.15,.2,.06,.39-.33,.65-.32,.22,0,.42,.53,.68,.5,.22-.03,.64,.86,.88,.81,.22-.05,.07-1.66,.31-1.72,.22-.06,.78,.98,1.01,.9,.22-.07,.37-.37,.6-.46s.48-.08,.7-.17,.43-.2,.65-.31-.04-1.12,.18-1.23,.56,.09,.77-.03,.62,.38,.83,.26c.21,.12,.04,.7,.25,.81s.56,.01,.77,.12,.78-.48,1-.38,.25,.6,.47,.7,.25,.69,.47,.78c.23,.09,.67-.34,.89-.26,.23,.09,.66-.45,.89-.38,.24,.08,.24,.92,.46,.97,.25,.06,.44,.47,.67,.51,.25,.05,.62-.68,.84-.66,.27,.02,.65,.94,.86,.9,.27-.05-.33-1.72-.18-1.87Z"/>
        <path class="cls-6" d="M15.19,19.96c.08-.25-.89-.45-1.09-.74-.14-.21-.27-.32-.54-.53-.21-.17,0-.79-.14-1.01s-.33-.4-.4-.65,.3-.46,.33-.73c.02-.22-.46-.48-.45-.68,0-.23,.31-.46,.29-.65-.02-.24-.48-.37-.54-.54-.09-.25-.11-.29-.28-.34s-.58-.55-.79-.4c-.14,.1-.12,.54-.27,.73s-.35,.29-.52,.46-.17,.48-.35,.64-.64-.09-.83,.05-.03,.77-.23,.88-.35,.39-.56,.49-.56-.12-.78-.05c-.41,.12-1.07,.22-1.16,.51-.08,.25,.03,.89,.23,1.19,.14,.21,.37,.6,.64,.81,.21,.17,.49,.1,.64,.32s.2,.39,.27,.64,.03,.41,0,.68c-.02,.22,.3,.47,.29,.67,0,.23,.33,.41,.35,.6,.02,.24-.33,.5-.27,.67,.09,.25,.25,.53,.42,.59s.31-.31,.52-.47c.14-.1,.03-.41,.18-.6,.12-.15,.94,.2,1.06,.01,.11-.17-.25-.63-.14-.83,.13-.24,.51-.29,.71-.46s.47-.11,.72-.21,.41-.26,.68-.28c.34-.02,.8,.23,1.04,.13,.33-.13,.9-.63,.98-.88Z"/>
      </g>
    </g>
  </g>
</svg>