<?xml version="1.0" encoding="UTF-8"?>
<svg xmlns="http://www.w3.org/2000/svg" viewBox="0 0 130 100">
  <defs>
    <style>
      .cls-1 {
        fill: #dbaab8;
      }

      .cls-2 {
        isolation: isolate;
      }

      .cls-3 {
        mix-blend-mode: multiply;
        opacity: .8;
      }

      .cls-4 {
        fill: #f4c89f;
      }

      .cls-5 {
        fill: #f1b886;
      }

      .cls-6 {
        fill: #f7f3e3;
      }

      .cls-7 {
        fill: #ead597;
      }

      .cls-8 {
        fill: #96c474;
      }
    </style>
  </defs>
  <g class="cls-2">
    <g id="_圖層_6" data-name="圖層 6">
      <g id="b7eb0e45-cc7b-4dfa-ba3a-7371208910b2">
        <path class="cls-6" d="M111.43,30.47c-1.58,.89-3.59,.32-4.47-1.26-.11-.2-.2-.4-.27-.62-.86-1.69-.18-3.76,1.51-4.62,.14-.07,.28-.13,.42-.18,1.76-.83,3.85-.08,4.68,1.68,.07,.15,.13,.3,.18,.45,.78,2,.04,3.63-2.05,4.56Z"/>
        <path class="cls-8" d="M111.94,13.19l9.33-3.54c.64,1.91,1.33,3.67,1.79,5.49,4.43,17.33,1.72,33.64-8.37,48.61-7.68,11.58-19.18,20.09-32.5,24.03-17.44,5.4-34.15,3.42-49.95-5.41-1.45-.81-2.83-1.73-4.25-2.6l-2.61-1.84c-2.24-2.02-4.48-4.04-6.73-6.07-2.02-2.56-4.16-5.05-6.04-7.71-1.57-2.21-2.86-4.6-4.23-6.93l-2.14-5.04,9.32-3.42c.17,.21,.31,.44,.43,.69,4.09,10.5,11.74,19.23,21.61,24.66,16.01,8.93,32.5,9.2,49.11,1.37,8.09-3.82,14.96-9.81,19.85-17.3,3.89-5.76,6.53-12.27,7.77-19.11,1.55-8.69,.71-17.63-2.42-25.88Z"/>
        <path class="cls-4" d="M95.66,26.61c.38-2.55,.67-5.09,1.1-7.62,.16-.44,.5-.8,.94-.97,3.58-1.34,7.17-2.63,10.76-3.92,2.51,6.63,3.47,13.75,2.81,20.81-1.74,16.33-9.51,28.99-23.57,37.53-10.14,6.26-22.3,8.37-33.96,5.89-11.6-2.21-21.97-8.65-29.09-18.08-3.18-3.88-5.56-8.34-7.02-13.14l5.54-1.28-1.62,.38c1.54,1,2.78,1.8,3.99,2.6,5.95,4.02,12.42,7.19,19.23,9.44,7.72,2.54,16.03,2.66,23.82,.34,8.81-2.61,16.37-7.14,21.48-15.06,3.23-5.09,5.14-10.9,5.58-16.91Zm-10.19,38.33c1.04-.66,2.16-1.24,3.13-2,5.25-4.1,9.69-9.15,13.1-14.88,3.54-5.72,5.81-12.14,6.65-18.81,.32-1.95-.97-3.81-2.91-4.19-2.01-.31-3.91,1.02-4.3,3.02-.21,.95-.42,1.9-.63,2.86-1.93,9.27-6.82,17.67-13.92,23.94-1.5,1.32-3.1,2.55-4.53,3.96-1.16,.98-1.41,2.66-.59,3.94,.79,1.45,2.37,2.3,4.02,2.16Zm-9.93,5.67c2.26-.32,3.4-1.76,3.12-3.86-.07-1.93-1.7-3.44-3.64-3.37-.17,0-.33,.02-.49,.05-1.89,.16-3.29,1.81-3.14,3.7,.01,.14,.03,.28,.06,.42,.07,1.81,1.59,3.22,3.4,3.15,.23,0,.46-.04,.68-.1Z"/>
        <path class="cls-5" d="M17.64,47.12c1.46,4.8,3.84,9.26,7.02,13.14,7.12,9.41,17.48,15.83,29.07,18.03,11.66,2.48,23.82,.37,33.96-5.89,14.07-8.5,21.85-21.16,23.58-37.48,.67-7.06-.28-14.18-2.78-20.81l4.03-1.35c3.19,8.72,4.02,18.12,2.4,27.27-1.3,7.15-4.05,13.95-8.09,19.99-5.01,7.79-12.11,14.01-20.49,17.96-17.09,8.02-34.02,7.5-50.4-2.06-10.19-5.9-18.01-15.16-22.11-26.2-.12-.26-.27-.51-.44-.74l4.24-1.85Z"/>
        <path class="cls-7" d="M36.79,49.26l4.55,2.18c.63,.38,1.28,.72,1.94,1.03,4.93,2.08,10.12,2.59,15.42,2.45,3.77-.09,7.55,.04,11.12-1.46,12.81-4.12,21.2-12.67,25.33-25.42,.15-.48,.33-.95,.51-1.43-.43,6.02-2.34,11.85-5.57,16.95-5.11,7.92-12.68,12.46-21.48,15.06-7.79,2.32-16.1,2.2-23.82-.34-6.81-2.24-13.28-5.41-19.23-9.42-1.22-.8-2.45-1.59-3.99-2.6l1.59-.37c2.21-.17,4.41-.4,6.62-.48,.66,.06,1.29,.3,1.83,.68,1.74,.97,3.46,2.09,5.19,3.16Z"/>
        <path class="cls-6" d="M85.47,64.94c-1.66,.15-3.25-.72-4.04-2.19-.82-1.27-.57-2.96,.59-3.94,1.44-1.38,3.03-2.64,4.53-3.96,7.11-6.26,11.99-14.66,13.92-23.94,.22-.95,.43-1.91,.63-2.86,.39-2,2.29-3.34,4.3-3.02,1.95,.38,3.24,2.24,2.91,4.19-.84,6.68-3.11,13.09-6.65,18.81-3.41,5.73-7.85,10.77-13.1,14.88-.95,.8-2.07,1.37-3.11,2.03Z"/>
        <path class="cls-6" d="M75.53,70.61c-1.76,.44-3.54-.62-3.98-2.38-.06-.22-.09-.45-.1-.68-.39-1.85,.8-3.67,2.65-4.06,.14-.03,.28-.05,.42-.06,1.9-.35,3.73,.91,4.08,2.81,.03,.17,.05,.34,.06,.51,.27,2.13-.88,3.54-3.14,3.86Z"/>
        <path class="cls-8" d="M111.71,10.44c.28-.11,1.31,.26,1.6,.16s.7,.07,.96-.04,.58-.21,.9-.32,.73,.16,.99,.05,.42-.62,.71-.74,.27-1.03,.56-1.1,.2-1.2,.48-1.32,.72,.12,.97,0,1.4,1.86,1.69,1.75,.08-1.51,.37-1.61,.5,.11,.8,0c.07,.29-.08,.42,.01,.69,.09,.27,.47,.45,.57,.73s1.55,.07,1.65,.34-.04,.64,.07,.96-.92,.92-.84,1.17,1.25,.23,1.32,.5-.2,.69-.13,1-1.14,.91-1.06,1.22,.99,.38,1.06,.67,.03,.62,.1,.95-1.08,.75-1.01,1.06,2.51,.11,2.57,.38-1.01,.82-.95,1.11,.82,.47,.87,.77-1.35,.83-1.3,1.13,.45,.54,.5,.86,1.51,.41,1.55,.71-.87,.73-.84,1.02-.51,.66-.48,.97-.26,.62-.24,.92,1.54,.48,1.56,.79-.33,.63-.31,.94,.33,.59,.35,.89-1.56,.66-1.56,.97,.19,.59,.21,.92,.22,.59,.21,.92,1.39,.65,1.38,.92-1.82,.56-1.85,.87-.48,.57-.5,.87,2.7,.65,2.71,.97-2.27,.46-2.28,.76-.48,.55-.5,.86,1.83,.77,1.8,1.07c-.03,.3-1.95,.38-1.99,.68s2.32,.9,2.28,1.2,0,.62-.04,.92-.34,.58-.39,.87,.08,.64,.03,.97-.27,.58-.33,.87-.63,.5-.69,.79-.07,.61-.14,.91-.99,.38-1.06,.68-.75,.42-.81,.7,.77,.8,.7,1.12-1.33,.24-1.42,.52-.12,.57-.21,.87,1.2,1,1.08,1.29-.49,.47-.59,.76,.05,.66-.04,.98-.42,.49-.52,.77-.16,.58-.27,.87-.05,.62-.17,.9,.17,.72,.03,.97,.24,.77,.12,1.05-.02,.67-.14,.95-2.4-.42-2.54-.18-.39,.46-.52,.73,.05,.69-.07,.99-.66,.32-.83,.6,1.28,1.33,1.1,1.6l-.44,.8c-.14,.26-.25,.56-.4,.82s-1.94-.45-2.1-.19,.39,.88,.27,1.18-.27,.54-.43,.79-.02,.71-.19,.96,.19,.81-.02,1.08-.96,.07-1.14,.33,1.04,1.46,.88,1.74-2.25-.85-2.43-.61,.04,.77-.15,1.01-.5,.37-.69,.61-.53,.34-.72,.58,.31,1.02,.12,1.25,.48,1.2,.33,1.42-.91,.03-1.11,.26-.35,.51-.55,.73-.14,.7-.35,.93-1.8-.86-2-.64,1.18,1.98,.97,2.19-.93-.05-1.15,.17-.45,.42-.66,.63,.12,1.01-.11,1.22-1.68-.92-1.91-.73-.3,.56-.52,.77,0,.97-.23,1.11-.1,.84-.33,1.05l-.71,.59c-.23,.19-.69,.11-.91,.29s-1.71-1.24-1.95-1.06,1.06,2.44,.82,2.62-.98-.31-1.23-.13-.87-.2-1.13-.03,.22,1.42-.03,1.58-1.61-1.37-1.86-1.21-.1,1-.38,1.06-.2,.83-.45,.99-1.31-1.04-1.57-.89,.47,2.03,.19,2.18-1.47-1.44-1.73-1.3-.13,1.2-.37,1.34-.14,1.07-.41,1.21-.42,.53-.69,.67-1.55-1.87-1.82-1.74-.46,.41-.73,.54,.28,2.16,0,2.27-.43,.59-.7,.71-1.43-2-1.75-1.88-.49,.36-.78,.46,.06,1.88-.22,2-.92-.76-1.22-.69-.29,1.04-.58,1.11-1.14-1.45-1.44-1.38,.09,2.29-.2,2.39-.67-.1-.97,0-.96-1.18-1.23-1.11-.75-.49-1.07-.41-.18,1.7-.47,1.76-.47,.67-.8,.76-.8-.79-1.14-.71-.83-1.02-1.12-.96-.34,1.32-.65,1.39-.8-1.02-1.09-.97-.53,.41-.86,.47-.61-.12-.91-.07-.49,.78-.78,.83-.62-.13-.92-.1-.69-.81-.98-.75-.41,2.45-.67,2.47-.8-2.38-1.1-2.36-.4,2.48-.73,2.5-.63-.16-.93-.15-.67-1.63-.97-1.62-.59-.24-.89-.24-.41,1.9-.74,1.91-.6-.91-.9-.92-.59-.38-.88-.38-.57-.64-.87-.65-.6,.22-.92,.21-.66,1.13-.97,1.07-.64,.32-.91,.29-.39-1.68-.73-1.71-.71,1.14-1.03,1.07-.54-.51-.84-.55-.7,.62-1,.57-.63,.06-.97,0-.39-1.3-.68-1.35-.64,.22-.94,.16-.6-.08-.9-.13-.91,1.29-1.19,1.25-.05-2.42-.34-2.49-1.13,1.99-1.41,1.92,.01-2.39-.28-2.46-.82,.67-1.09,.57-.72,.34-1.02,.23-.69,.16-.95,.08-.27-1.17-.53-1.27-.81,.5-1.09,.4-.05-1.63-.32-1.74-.96,.86-1.24,.75-.4-.61-.68-.72-.45-.47-.73-.59-1.16,1.24-1.45,1.11-.16-1.15-.43-1.27-.77,.25-1.04,.11-.87,.46-1.17,.34,.44-2.32,.19-2.46-1.16,.98-1.43,.85-.72,.08-.99-.06-.7,.03-1-.11-.21-.92-.44-1.09-.9,.33-1.15,.18-.67-.04-.91-.19,.52-1.95,.26-2.1-.63-.07-.87-.22-1.48,1.24-1.7,1.07-.47-.33-.71-.49,.34-1.61,.1-1.75-1.06,.53-1.28,.36,.09-1.07-.13-1.23-.5-.25-.72-.42-1.1,.47-1.32,.3,.17-1.21-.06-1.43-.03-.9-.26-1.12-.78-.07-1.04-.28-1.44,.63-1.67,.39,.77-1.77,.51-1.99-.44-.45-.68-.66-1.27,.46-1.51,.25-.86,0-1.09-.22,.53-1.5,.29-1.72-.59-.28-.82-.49,.56-1.23,.37-1.48-1.07,.1-1.27-.14-.52-.37-.72-.62-1.24,.2-1.43-.05,.53-1.22,.34-1.47,.45-1.13,.25-1.38-1.14,.11-1.33-.13-1.53,.35-1.71,.13-.5-.42-.68-.67,1.16-1.65,1.02-1.91-.22-.59-.41-.88-1.22,.09-1.4-.17-.8-.24-.97-.5-.27-.6-.44-.87,1.02-1.35,.86-1.63,.1-.79-.06-1.06-1.86,.36-2.01,.09,.86-1.24,.71-1.48-2.13,.49-2.29,.25,.84-1.17,.63-1.47-1.17-.18-1.29-.47,1.78-1.45,1.65-1.74-1.5-.06-1.63-.35-.26-.58-.39-.88-1.27-.15-1.4-.45,.96-.93,.84-1.22c.3-.07,.29-.5,.59-.6s.84,.46,1.12,.35,.37-.77,.66-.89c.29-.12,.89,.62,1.18,.52s.63-.1,.92-.21,.32-.91,.61-1.02,.85,.5,1.14,.4c.3-.11,.69,.1,.97,0l.89-.35c.3-.07-.36-2.68-.07-2.78s1.29,.16,1.59,.05c.14,.25,.95,.96,1.06,1.22s.68,.36,.79,.64-1.04,1.11-.91,1.39,.62,.39,.75,.66-.3,.82-.16,1.1,.07,.64,.21,.92,.92,.21,1.08,.48,.27,.55,.41,.82,.07,.67,.21,.92-.62,1.12-.47,1.34,1.26-.03,1.42,.23-.7,1.19-.58,1.46,1.85-.43,2.01-.2-.83,1.3-.62,1.54,.15,.65,.37,.89,.3,.57,.48,.81,.66,.29,.85,.53,.15,.66,.39,.88c.24,.23,1.92-.77,2.12-.49s.58,.28,.78,.51-.1,.89,.11,1.11,.36,.48,.57,.7-.97,1.73-.77,1.91,.95-.08,1.2,.13,.8,.06,1.03,.27,.85-.02,1.08,.19-.68,1.66-.45,1.86,1.17-.4,1.41-.2,.24,.66,.48,.86,1.18-.5,1.41-.33,.38,.49,.63,.67-.17,1.24,.08,1.42,1.16-.56,1.41-.38,.69,.07,.94,.23-.82,2.34-.57,2.5,1.07-.5,1.34-.31,.28,.72,.54,.85,.97-.41,1.22-.28,.96-.45,1.23-.28-.19,1.59,.08,1.74,1.27-1.04,1.51-.86-.59,2.45-.32,2.58,.82-.19,1.08-.1,1.26-1.17,1.51-1.06,.63,.06,.9,.19,.4,.58,.67,.7,.51,.32,.79,.44,.71-.16,.96-.05,.49,.37,.78,.48,.14,1.33,.43,1.44,.52,.39,.8,.49,.49,.51,.77,.6,.96-.99,1.25-.9,.27,1.16,.58,1.24,1.08-1.63,1.37-1.55,.06,2.16,.36,2.24,.63,.03,.93,.1,.58,.22,.88,.27,.52,.6,.81,.66,1.21-2.65,1.45-2.59,.38,1.38,.68,1.43,.45,1.13,.75,1.17,.62,.08,.92,.11,.59,.4,.89,.43,.77-1.61,1.06-1.59l.9,.07c.3,.02,.59,.1,.89,.11s.6,.1,.9,.09,.6,1.02,.9,1.02,.61-.14,.95-.11,.63,.62,.94,.61l.96-.04c.3-.07,.59-.56,.9-.59s.64,.2,.93,.17,.61-.14,.93-.17,.29-2.13,.57-2.19,.59-.03,.89-.08,.85,1.62,1.16,1.55,.29-1.87,.58-1.93,.79,1,1.08,.95c.3-.06,.34-1.3,.66-1.37s.9,1.35,1.2,1.28,.81,.73,1.12,.65,.05-2.23,.33-2.3,.84,.78,1.14,.71,.33-.97,.62-1.06,1.13,1.62,1.42,1.52,.37-.83,.66-.93,.11-1.52,.39-1.63,1.23,1.66,1.51,1.51-.15-2.1,.13-2.21,1.18,1.38,1.47,1.27,.61-.14,.92-.21,.05-1.42,.32-1.54,1.13,1.04,1.41,.92,.51-.35,.78-.48,.2-1.02,.49-1.09,.57-.23,.89-.37,.04-1.22,.31-1.37,.95,.5,1.22,.35,.14-1,.4-1.12,1.26,.92,1.52,.77,.81,.1,1.07-.05,.1-1,.37-1.15,.55-.29,.8-.47,.16-.83,.4-1.01,1.39,.83,1.62,.6-.62-1.8-.39-2.03,1.55,.96,1.79,.77,.37-.52,.61-.72,.87,.04,1.1-.17-.29-1.24-.04-1.45,.04-.85,.27-1.03,.55-.3,.77-.52,.84-.03,1.06-.25,.28-.58,.49-.8-.45-1.25-.25-1.48,1.49,.52,1.69,.29,.43-.45,.63-.68-.89-1.53-.7-1.78,1.19,.18,1.38-.06,.97,0,1.17-.27,.13-.67,.31-.92,.84-.19,1.02-.41,.16-.65,.34-.9,.31-.54,.48-.79,.94-.14,1.11-.39-1.66-1.76-1.5-2.02,.21-.55,.37-.81,1.2,.01,1.34-.25,1.21-.02,1.35-.31-1.04-1.27-.9-1.53,1.18-.05,1.33-.31-.76-1.05-.63-1.32,1.71,.15,1.83-.12-.75-1.01-.62-1.29,.33-.5,.45-.78,1.06-.25,1.19-.49,.08-.63,.19-.91-.25-.75-.15-1.03-.32-.75-.24-1.03-.16-.71-.11-.95-.28-.7-.23-.98,.3-.52,.38-.81,.68-.42,.81-.72,.88-.41,.9-.68,.18-.58,.25-.87,1.37-.32,1.43-.61-1.53-.94-1.47-1.24-.27-.66-.21-.92-.04-.61,0-.91-.15-.65-.13-.94,1.65-.38,1.69-.69,0-.62,.04-.93,.18-.61,.21-.91,.71-.57,.77-.89-2.12-.76-2.08-1.07,.55-.57,.57-.88,.28-.6,.29-.91-1.05-.61-1.04-.92,1.94-.62,1.94-.92,.31-.64,.31-.95,.25-.65,.24-.95,.11-.65,.08-.99-1.61-.5-1.64-.81,.32-.66,.28-.96-1.55-.43-1.58-.73,.39-.65,.34-.95-.24-.58-.3-.9,1.73-.92,1.67-1.21-.5-.55-.55-.85-1.76-.26-1.83-.55,2.19-1.11,2.13-1.4-1.21-.36-1.28-.68-1.18-.32-1.26-.62-.46-.49-.54-.79,.93-.9,.85-1.17-.24-.57-.33-.9,.22-.71,.13-1-1.11-.26-1.22-.55-.22-1.13-.33-1.41Z"/>
        <path class="cls-4" d="M96.58,24.92c.04-.32-1.76-.85-1.73-1.16s1.12-.51,1.16-.83,.74-.56,.77-.87-1.63-.85-1.58-1.17,.13-.63,.17-.95,1.12-.5,1.16-.81-.25-.68-.23-1-.51-.73-.46-1.05c.15-.37,.37-.71,.65-.99,.17-.18,.73-.24,.9-.31s.37-.69,.64-.79,1.44,2.03,1.69,1.93,.27-.94,.55-1.04l.82-.31c.29-.07,.81,.46,1.05,.35s-.42-2.75-.15-2.88,.92,.76,1.2,.7,.2-1.16,.47-1.26,1.11,1.28,1.39,1.18,.61-.03,.94-.15,.64,.02,.95-.09,.06-1.52,.34-1.62,1.32-.64,1.59-.74c.07,.3,.05,1.53,.16,1.82s.33,.55,.43,.87,.14,.61,.21,.92,.47,.5,.56,.84-1.25,1.01-1.17,1.3,.57,.47,.66,.82,1.06,.37,1.13,.66,.63,.5,.7,.81-.78,.81-.71,1.14,1.31,.39,1.36,.66-1.37,.88-1.32,1.18-.4,.68-.36,.98,.28,.57,.32,.9,.05,.6,.09,.95-.13,.61-.1,.92,.36,.58,.38,.88,.2,.6,.21,.92,.5,.6,.5,.91,.71,.62,.7,.94-.91,.61-.92,.91,.29,.63,.27,.91-1.56,.52-1.58,.82,2.24,.79,2.2,1.11-.14,.61-.18,.91-2.39,.34-2.43,.64,2.15,.88,2.12,1.18-.4,.56-.43,.86-.22,.59-.27,.88-.16,.59-.21,.89,.4,.71,.34,1c-.06,.3-1.09,.4-1.14,.69s-.4,.52-.47,.82,.02,.62-.05,.91,.83,.86,.75,1.15,.27,.72,.23,1-1.72,.13-1.85,.43,.87,.93,.78,1.21-1.2,.28-1.31,.51,.16,.71,.07,.96,.53,.85,.42,1.14-1.37,.1-1.5,.35,.78,1,.66,1.27-1.63-.07-1.75,.2,.26,.79,.13,1.06,.38,.88,.26,1.14-.94,.15-1.13,.43,.12,.75-.05,.98,.3,.9,.14,1.14-.33,.52-.49,.78-2.08-.57-2.2-.33,1.69,1.85,1.52,2.1-.47,.43-.65,.68-.29,.56-.47,.81-2.46-1.1-2.65-.87,.84,1.41,.65,1.65-.98-.05-1.18,.19,.03,.82-.17,1.01,.15,.94-.05,1.17-1.48-.54-1.69-.32-.88-.05-1.09,.17,.8,1.62,.58,1.81-1.21-.41-1.45-.15,.08,.95-.13,1.16-.4,.45-.63,.65-.16,.75-.4,.94-.9-.14-1.14,.05-1.07-.44-1.34-.25,.3,1.31,.03,1.5-1.1-.53-1.37-.34,.79,2.12,.53,2.3-1.7-1.37-1.94-1.2,.85,2.33,.58,2.51-1.77-1.74-2.03-1.61,.04,1.18-.22,1.34-.29,.69-.54,.85-.26,.78-.52,.93-1.44-1.31-1.7-1.17-.33,.64-.6,.78,.22,1.75-.05,1.89-.73-.09-.97,.03-1.37-1.49-1.65-1.36-.26,.84-.54,.96-.02,1.51-.3,1.62-.44,.56-.73,.66-.51,.42-.79,.52-.88-.63-1.17-.53-.44,.62-.73,.71-.85-.64-1.1-.56-.75-.44-1.06-.36-.56,.25-.84,.32-.51,.46-.8,.53-.67-.27-.96-.21-.63-.1-.92-.04-.39,1.13-.71,1.14-.59,.18-.92,.21-.77-1.07-1.06-1-.51,.76-.79,.79-.5,.97-.8,1-.71-1.14-1.01-1.12-.61-.23-.91-.21-.56,.66-.87,.68-.58,.96-.89,.96-.61,.29-.91,.29-.57-2.14-.88-2.15-.6,.36-.89,.35-.64,1.43-.98,1.42-.61-.23-.9-.25-.46-1.55-.77-1.58-.73,1.05-1,1.01-.46-1.18-.76-1.22-.73,.86-1.03,.81-.43-1-.74-1.05-.67,.43-.97,.37-.76,.67-1.06,.6-.46-.79-.76-.86-.4-.88-.7-.99-.76,.54-1.05,.47-.78,.5-1.07,.42-.22-1.46-.51-1.54-.53-.29-.83-.38-1.07,1.3-1.36,1.2-.08-1.64-.4-1.73-1.18,1.44-1.47,1.31-.15-1.32-.44-1.43-.48-.43-.76-.55-.52-.29-.8-.41-1.18,1.09-1.46,.96-.49-.42-.76-.56,.22-1.78-.05-1.93-1.23,1.02-1.5,.87-.62-.16-.89-.31-.66-.1-.93-.25-.82,.12-1.08-.03,.3-1.64,.04-1.8-.41-.48-.66-.64-.92,.21-1.13,.02-.64-.18-.88-.37,.52-1.68,.28-1.86-.62-.17-.86-.37-.63-.17-.87-.36-1.05,.24-1.27,.09-.17-.72-.41-.88-1.29,.48-1.51,.27-.06-.84-.25-1.06,.3-1.16,.08-1.38-.6-.26-.81-.48-.79-.1-1-.33,.37-1.14,.17-1.37-1.38,.39-1.58,.15-.55-.35-.74-.59,.97-1.58,.77-1.81-.27-.56-.45-.81-.42-.45-.61-.7-1.09,.04-1.26-.21,.31-.97,.13-1.23-2.01,.61-2.18,.35,.9-1.33,.74-1.59-1.26,.04-1.41-.23-.81-.28-.96-.55-.15-.66-.28-.91,.65-1.05,.51-1.33-.75-.32-.89-.61-.28-.57-.4-.88,.92-1.05,.81-1.34-1.1-.22-1.21-.52,.72-.89,.62-1.19-.2,.28-.28-.02c.3-.07-.05,.55,.26,.48s.32-1.32,.65-1.4l.92-.21c.3-.07,.76,.49,1.07,.41s.18-1.46,.52-1.54,.64,.05,.97-.03c-.22,.05-.26,.91-.59,.99s-.84-.32-1.17-.25c.28,.18,.23,1.36,.49,1.52s1.44-1.07,1.73-.92,.06,1.13,.3,1.3,.71,.07,.97,.24,.74,.01,1.01,.17-.3,1.61-.04,1.76,1.79-1.76,2.04-1.61-.46,1.92-.21,2.07,1.23-.89,1.48-.74-.09,1.34,.17,1.5,.1,1.04,.36,1.18,.52,.33,.79,.47,.95-.5,1.22-.36,.95-.53,1.21-.39,.34,.63,.61,.76,1.01-.69,1.27-.56,.15,1.03,.41,1.16,.21,.92,.51,1.02,1.18-1.15,1.46-1.03-.33,2.23-.06,2.34,.87-.43,1.13-.26,.96-.77,1.23-.64,.36,.71,.64,.83,.76-.36,1.05-.24,.41,.59,.69,.69,.08,1.55,.38,1.63,1.08-1.31,1.36-1.22,.57,.14,.86,.23,.1,1.72,.41,1.79,.53,.42,.82,.5,.93-1.19,1.23-1.07,.63-.14,.96-.05,.71-.47,1-.42,.47,.61,.76,.66,.3,1.68,.59,1.73,.97-2.17,1.26-2.14,.51,.46,.81,.49,.55,.24,.85,.28,.5,.92,.8,.95,.57,.42,.87,.44,.58,.7,.9,.77,.67-1.32,.94-1.31,.59-.32,.9-.32,.59,.21,.89,.2,.61,.25,.91,.23,.57-.25,.91-.28,.57-.27,.9-.31,.49-.82,.77-.86,.66,.57,.96,.52,.81,1.28,1.1,1.23,.52-.59,.82-.65,.32-1.34,.65-1.4,.88,1.19,1.17,1.12,.66,.13,.98,.05,.45-.68,.74-.76,.9,.87,1.16,.79-.16-2.56,.13-2.65,1.04,1.16,1.33,1.06,.79,.34,1.03,.25-.15-2.14,.13-2.25,1.45,2.09,1.78,1.95-.33-2.36-.05-2.48,1.52,1.86,1.8,1.73,.5-.44,.78-.58-.18-1.76,.09-1.9,.52-.31,.79-.45,.29-.72,.56-.87,1.38,1.15,1.65,.99,.77,.03,1.03-.14-.06-1.25,.19-1.42,.49-.38,.74-.56-.08-1.12,.16-1.31,1.65,1.12,1.88,.92,.81-.03,1.04-.24-.31-1.34-.09-1.53,.75-.12,.98-.32-.26-1.12,0-1.34-.06-.87,.15-1.11,.23-.58,.44-.81,.48-.35,.68-.58,.22-.58,.4-.82,1.48,.39,1.67,.14,.28-.56,.45-.81-.05-.77,.13-1,.17-.59,.34-.87,1.86,.43,1.99,.17-.86-1.19-.76-1.49,.39-.47,.53-.74-.35-.83-.25-1.1,1.61,.09,1.73-.18-1.71-1.39-1.59-1.67,1.07-.19,1.18-.47-.08-.66,.02-.98,.02-.61,.12-.89,1.95,0,2.06-.28-.35-.75-.24-1.04-.9-.86-.83-1.15,1.02-.36,1.09-.66,.11-.6,.16-.89,.44-.54,.49-.83-1.22-.81-1.23-1.1-.47-.65-.43-.95,1.06-.45,1.1-.75,.14-.59,.17-.88,1.3-.45,1.31-.76Zm-10.27,39.24c.26-.17-.25-2,.01-2.17s1.1,.56,1.35,.41,.89,.21,1.15,.04-.52-1.73-.27-1.88,.49-.34,.72-.53,1.14,.42,1.36,.22,.23-.65,.46-.84,.04-.85,.26-1.03,.48-.35,.71-.56,.61-.22,.82-.43,.06-.77,.27-.99,2.17,1.23,2.37,1.01-.13-.94,.06-1.2,.42-.45,.62-.68,.97-.02,1.13-.26-1.7-2.2-1.53-2.44,1.2,.21,1.38-.03-.45-1.09-.3-1.32,1.63,.49,1.82,.24,.51-.38,.68-.62,.56-.36,.72-.61-.81-1.28-.65-1.53-.09-.77,.08-.99,1.02-.06,1.18-.27,.21-.57,.37-.83,.37-.47,.52-.74,.05-.66,.2-.92,1.6,.19,1.74-.08-.07-.74,.07-.99-.52-.95-.39-1.22-.17-.75-.05-1.02,1.09-.15,1.21-.44-.85-1.03-.73-1.31,1.62,.03,1.73-.24,.7-.39,.81-.68,.03-.65,.13-.94,.23-.58,.33-.86,.37-.52,.47-.82-.16-.67-.03-.97,0-.63,.09-.93-.3-.7-.23-1-.53-.74-.46-1.04,1.02-.39,1.08-.69-.15-.66-.13-.94,1.62-.37,1.68-.64-2.17-.96-2.14-1.26,.17-.57,.21-.87,2.4-.33,2.44-.64-2.21-.67-2.25-.97,.24-.5,.14-.79-.12-.5-.25-.76c-.11-.29-.28-.57-.5-.8-.24-.2-.62,.14-.9,.05s-.17-1.12-.49-1.17-.67-.33-1.04-.29c-.33,.09-.64,.23-.94,.4-.3,.13,.01,1.12-.25,1.31s.03,.55-.18,.8-1.66-.45-1.8-.16,.84,.87,.78,1.18-1.18,.43-1.25,.75,.27,.72,.24,1.02,.66,.82,.59,1.12-1.35,.31-1.41,.63,.94,.86,.87,1.15-1.61,.22-1.69,.51,.38,.74,.3,1.02,.53,.8,.44,1.1-.9,.33-1.03,.63,.24,.72,.14,1.01,.44,.82,.33,1.1l-.34,.87c-.11,.29-2.11-.19-2.23,.09s1.99,1.49,1.87,1.79-.39,.52-.52,.79-.18,.62-.31,.89-2.63-.64-2.76-.34,1.07,1.23,.93,1.5-.99,.14-1.13,.41,.18,.79,.02,1.06c-.16,.26,.31,.9,.15,1.17s-1.55-.27-1.72-.02-.89,.11-1.05,.36,1.06,1.48,.89,1.74-1.24-.17-1.43,.07,.21,.92,.05,1.18-.33,.51-.52,.74-.05,.76-.24,1.03-.91,0-1.12,.26-1.16-.27-1.37-.04,.46,1.26,.24,1.48-1.19-.36-1.41-.15,1.07,2,.85,2.21-1.84-1.21-2.07-1.06,1.18,2.19,.97,2.37-2.02-1.48-2.23-1.24,.26,1.14,.01,1.33-.14,.7-.36,.9-.06,.77-.27,.96-1.68-.98-1.89-.79-.15,.69-.36,.89,.93,1.41,.78,1.65-.54,.13-.63,.38-2.02,.37-2.03,.66,.74,.71,.83,1.01,1.44-.08,1.6,.19,.53,.19,.74,.42,.37,.11,.64,.29-.08,.99,.26,1.13,.55-.27,.92-.21,.71,1.81,1.05,1.79Zm-9.97,5.84c.32-.07,.19-1.93,.5-2.06s.95,.75,1.2,.58,1.04,.02,1.23-.22-1.14-1.31-1.03-1.61c.11-.2,.17-.42,.18-.64,.02-.3,1.04-.57,1-.9s-.43-.48-.51-.75-.73-.19-.86-.43c-.08-.21-.2-.4-.34-.57-.2-.21-.11-.49-.37-.63s-.53,.28-.81,.19-.21-2.49-.5-2.51-.72,.79-1.01,.84c-.37,.05-.73,.13-1.08,.25-.32,.07-1.17-.2-1.42-.01s1.45,2.31,1.25,2.57-1.14-.15-1.25,.16,.87,.59,.85,.92-1.59,.59-1.53,.93c0,.35,.02,.71,.07,1.05,.05,.38,.14,.75,.26,1.11,.19,.28,1.4-.47,1.66-.28s.48-.26,.79-.18,.27,.91,.61,.92,.78,1.35,1.12,1.3Z"/>
        <path class="cls-5" d="M17.88,46.66c.07,.3,.58,.29,.68,.59s-.38,.79-.27,1.08,.73,.39,.84,.68-1.26,1.21-1.13,1.51,2.31-.35,2.44-.07,.47,.44,.6,.72-.78,1.09-.65,1.38,.44,.47,.6,.74-.56,1.1-.41,1.33,.15,.66,.32,.9,1,.11,1.18,.37-.46,1.08-.27,1.34,1.62-.38,1.8-.11-.27,.98-.09,1.23,1.63-.46,1.83-.22-.18,.93,0,1.17,.97,0,1.16,.23c.19,.24,.57,.3,.77,.53s-.38,1.12-.17,1.35-.08,.89,.13,1.12,1.39-.47,1.6-.24,.57,.29,.79,.5-.31,1.17-.09,1.38,.1,.79,.32,1.01,.87-.03,1.09,.18,.78,.04,1.03,.24,.41,.45,.64,.65-.52,1.61-.29,1.8,1.31-.65,1.56-.47,.62,.18,.87,.35,.19,.83,.39,1.02,1.11-.54,1.36-.36,.32,.59,.58,.75,.73-.06,1,.1-.17,1.44,.09,1.6,.63,.15,.9,.3c.27,.15,1.07-.7,1.35-.56s-.47,2.17-.2,2.31,.9-.33,1.14-.19,.43,.51,.71,.64,.28,.91,.56,1.02,.57,.28,.86,.39,1.5-1.94,1.74-1.81,.53,.27,.82,.38,.26,1.14,.5,1.25,.85-.55,1.12-.44,.4,.72,.69,.81,.83-.6,1.1-.51,.28,1.23,.58,1.32,.51,.44,.81,.51,.43,.87,.73,.92,.75-.46,1.05-.41,.68-.25,.92-.21,.68-.29,.99-.23,.54,.43,.83,.48,.71-.68,1-.63,.4,1.75,.66,1.79,.71-.73,1.01-.69,.68-.73,.98-.7,.52,.75,.83,.78,.58,.28,.89,.3,.57,.7,.87,.71,.61,.46,.9,.46,.67-1.33,.94-1.33,.62,1.32,.92,1.32,.62-.22,.92-.21,.53-1.91,.82-1.93,.83,2.3,1.12,2.23,.58-.57,.84-.58,.61-.14,.92-.21,.62,.05,.93,0,.68,.4,.98,.35,.3-1.89,.6-1.94c.3-.05,.82,1.11,1.12,1.05s.57-.29,.89-.36,.56-.33,.88-.41,.72,.33,1.03,.25,.21-1.55,.5-1.64,.72,.35,1.03,.26,.92,.88,1.2,.78,.7,.11,.98,.02-.2-2.36,.08-2.47,.84,.55,1.07,.44,1.09,1.05,1.36,.94,.01-1.54,.29-1.66,1.24,1.17,1.48,1.05,.27-.89,.54-1.02,.69,0,.94-.13-.51-2.23-.22-2.37,1.23,1.1,1.53,.95,1.02,.54,1.28,.4-.24-1.64,.02-1.78,.31-.64,.58-.79,1.33,.94,1.57,.78-.67-2.12-.42-2.29,1.2,.7,1.46,.55-.25-1.38,0-1.56,1.99,1.71,2.23,1.53-.95-2.27-.71-2.45,.91,.21,1.14,.03,.45-.41,.68-.59,1.13,.4,1.36,.21-.3-1.31-.11-1.5,1.01,.16,1.19-.03-.47-1.38-.26-1.58,2.03,1.23,2.25,1.02-1.26-2.11-1.06-2.32,1.3,.42,1.51,.21-.23-1.02-.02-1.24,.21-.6,.4-.82,1.78,.73,1.99,.51,.76-.17,.94-.42,.13-.68,.32-.93-.38-1.04-.2-1.29,.34-.5,.51-.74,.32-.51,.5-.76,.07-.67,.24-.92,.05-.67,.21-.92,1.34,.1,1.49-.16,.25-.55,.39-.82-.18-.79-.04-1.06-.11-.72,.03-.98-.1-.71,.03-.98,.57-.38,.7-.65,.2-.55,.32-.83,.77-.31,.88-.59-1.02-1.05-.91-1.33,2.4,.28,2.5,0-.7-.91-.59-1.19,.97-.31,1.06-.59-1.7-1.18-1.61-1.47,1.54-.15,1.62-.44-.22-.69-.13-.94-.15-.66-.09-.95,1-.37,1.07-.67-.96-.83-.89-1.12,.71-.46,.8-.76-.76-.75-.71-1.04,1.8-.29,1.81-.57,.15-.6,.19-.9-1.79-.86-1.76-1.16,1.39-.42,1.43-.72,1.22-.48,1.26-.78,.15-.62,.18-.92-1.89-.78-1.87-1.09,.42-.58,.44-.89-1.22-.64-1.19-.95,.18-.59,.17-.89,.24-.59,.24-.9-.41-.58-.43-.87,2.42-.73,2.4-1.04,.29-.66,.26-.97-2.6-.37-2.63-.68,.6-.67,.57-.98-.55-.53-.6-.83,.71-.72,.66-1.02,.28-.68,.23-.98-.74-.48-.8-.79-1.06-.39-1.14-.71,.47-.72,.38-1.06,1.81-1.1,1.73-1.37-.83-.42-.91-.76-.86-.39-.95-.69-.54-.47-.63-.77-.73-.39-.83-.67,1.36-1.12,1.26-1.41-.74-.41-.84-.7c.28-.06,.11-1.47,.38-1.57s.98,1.1,1.2,1.01,.32-.78,.6-.88,1.16,1.61,1.43,1.52,.5-2.06,.75-2.12c.07,.3,.32,1.09,.43,1.38s.95,.34,1.05,.63,.31,.57,.4,.88-.13,.71-.05,.98-1.54,1.09-1.45,1.39,2.04,.08,2.12,.38-2.04,1.16-1.97,1.43,1.29,.32,1.37,.66,.78,.47,.85,.78-1.5,.93-1.44,1.24,1.62,.33,1.67,.59-1.12,.81-1.08,1.11,1.49,.4,1.54,.72-1.27,.79-1.23,1.09,1.51,.45,1.55,.76-.25,.65-.23,.96-1.88,.75-1.86,1.06,.33,.58,.35,.89,.29,.59,.31,.9,1.97,.58,1.97,.88-.7,.64-.75,.96-.3,.61-.3,.92-.36,.61-.37,.91,.52,.65,.5,.95,.51,.67,.5,.97-1.85,.43-1.89,.77,2.05,.83,2.01,1.14-1.49,.44-1.53,.75-.13,.6-.18,.91,.21,.65,.16,.94-1.17,.41-1.22,.7-.09,.58-.15,.88,.84,.78,.78,1.07-1.26,.29-1.31,.62,1.53,.99,1.45,1.28-2.02,.09-2.1,.38,.71,.81,.62,1.1-.32,.52-.41,.81-.5,.46-.59,.75,.93,.94,.83,1.23-.9,.33-.98,.61-1.01,.23-1.11,.54,1.85,1.38,1.73,1.66-.14,.61-.26,.89-.3,.54-.42,.82-1.43,0-1.56,.28,.61,.97,.48,1.24-.02,.68-.15,.94-1.72-.21-1.86,.06,1.36,1.42,1.2,1.67-.8,.25-.95,.52-.13,.63-.28,.89-1.39-.14-1.55,.11-.94,.16-1.05,.41,.5,1.04,.3,1.3-.11,.67-.27,.92-1.51-.31-1.69-.06,1.13,1.56,.95,1.81-1.47-.33-1.64-.09-.65,.26-.86,.5,1.42,1.96,1.25,2.19-.37,.52-.57,.75-1.21-.23-1.42,0-.36,.5-.56,.73-.99-.09-1.2,.13,.92,1.73,.71,1.97-1.32-.44-1.54-.22-.61,.25-.87,.46-.37,.49-.61,.7-1.05-.33-1.32-.12,.3,1.32,.09,1.5-.82-.03-1.06,.16,.46,1.57,.21,1.76-1.14-.47-1.38-.28-.12,.89-.37,1.06-.28,.69-.54,.86-.83-.34-1.09-.14-.79-.09-1.04,.08-.22,.81-.49,.97-.63,.14-.91,.29-1.14-.71-1.36-.54-.54,.25-.8,.4-.62,.09-.92,.21l-.81,.38c-.27,.14,.6,2.61,.3,2.74s-.77-.24-1.03-.12-.8-.29-1.08-.17-.39,.62-.67,.75-.7-.1-.97,0-.74-.22-1-.11-.49,.42-.76,.53-.69-.1-.97,0-.46,.51-.74,.61-.67-.14-.98-.04-.52,.37-.81,.46-.76-.48-1.06-.39-.47,.52-.77,.6-.23,1.54-.52,1.62-.89-1.06-1.2-.99-.49,.56-.83,.64-.36,1.32-.65,1.38-.75-.65-1.05-.59-.54,.51-.84,.56-.89-1.86-1.19-1.82-.58,.13-.87,.2-.38,2.03-.67,2.1-.71-.98-1.01-.95-.68-1.11-.99-1.08-.53,1.22-.82,1.23-.59,.66-.89,.67l-.96,.06c-.3,0-.61-.55-.91-.55s-.58-1.11-.88-1.12-.61,.14-.92,.21-.65,.85-.95,.83-.71,1.14-1,1.07-.46-1.73-.76-1.77-.54-.51-.85-.54-.77,1.82-1.06,1.78-.41-1.46-.71-1.51-.79,1.16-1.11,1.06-.28-1.88-.57-1.91-.77,.86-1.08,.8-.39-1.02-.69-1.09-.76,.62-1.06,.56-.22-1.53-.51-1.6-.62,.03-.91-.06-.66,.15-.95,.08-.6-.08-.88-.17-.6-.08-.89-.18-1.17,1.5-1.46,1.37,0-1.74-.29-1.88-.31-.9-.58-.98-.46-.43-.74-.55-1.39,1.73-1.67,1.61-.02-1.43-.29-1.57-.57-.17-.85-.3-.87,.46-1.18,.34-.68,0-.96-.14-.53-.32-.8-.46-.84,.26-1.11,.12,.18-1.59-.09-1.73-.61-.17-.88-.32-.65-.11-.91-.27,.05-1.23-.21-1.39-1.68,1.47-1.95,1.3,.81-2.3,.56-2.47-.65-.11-.9-.3-.46-.38-.7-.57-1.52,.99-1.76,.8-.53-.35-.77-.53,.9-2.08,.66-2.27-1.69,1.1-1.96,.91,.31-1.29,.07-1.49-1.72,.96-1.93,.75,.93-1.89,.7-2.11-.63-.21-.85-.43-1.57,.66-1.79,.41,1.42-2.27,1.26-2.46-2.23,1.21-2.44,.98,1.09-1.79,.9-2.02-.51-.35-.7-.59-.78-.14-.97-.38-.31-.54-.49-.78,.39-1.06,.21-1.29-2.41,.99-2.58,.74,1.25-1.63,1.08-1.88-.31-.52-.47-.78-2.14,.65-2.29,.38,.46-1.03,.31-1.29-.68-.32-.84-.59,.19-.83,.04-1.1,.68-1.06,.53-1.34-.84-.23-.98-.5-.31-.52-.45-.8-.14-.61-.29-.91-.72-.34-.85-.62,.36-.82,.23-1.1-.48-.45-.61-.74,.38-.82,.26-1.1-.22,.17-.38-.07c.28-.13-.73-1.4-.45-1.53s.62-.14,.92-.21,1.46,1.73,1.74,1.59-.05-1.59,.23-1.73,.51,.13,.78-.02Z"/>
        <path class="cls-7" d="M37.5,47.71c.25,.12,.06,1.1,.28,1.23s1.16-1.16,1.41-1.05-.27,1.93-.02,2.06,.95-.72,1.2-.6,.77-.35,1.03-.24,.56,.17,.82,.29,.54,.64,.85,.78,.65,.1,1.03,.23-.16,2.13,.13,2.24,.68,.03,1,.12,.51,.55,.8,.64,.89-.91,1.18-.78,.82-.67,1.09-.58,.16,2.18,.47,2.24c.31,.07,.93-1.6,1.24-1.55s.53,.57,.83,.61,.76-.93,1.04-.9,.59,.11,.9,.13,.61-.27,.92-.21,.53,1.32,.83,1.33,.7-1.19,.95-1.19,.59,.28,.9,.29,.62,2.25,.93,2.25,.62-.91,.92-.92,.65,.82,.96,.85,.54-2.4,.86-2.4,.7,2.14,1.02,2.13,.63-.09,.95-.1,.62-.57,.93-.58,.56-1.24,.86-1.31,.62,.05,.92,.02,.8,1.35,1.11,1.31,.49-.99,.8-1.05,.67,.15,.99,.07,.84,.64,1.15,.55,.74,.02,1.03-.08,.35-.9,.64-1.02,.07-1.57,.35-1.68,1.04,1.05,1.32,.95,.43-.59,.71-.7,.43-.53,.72-.65,.96,.68,1.24,.55,.2-1.02,.49-1.09,1.24,1.17,1.54,1.03-.41-2.13-.15-2.28,1.4,1.28,1.67,1.13-.37-1.86-.12-2.02,.73,.05,.95-.1,.64-.15,.9-.3,1.16,.59,1.41,.41-.36-1.55-.12-1.73,.96,.25,1.2,.07,.35-.56,.59-.75,0-.97,.23-1.13,1.65,.92,1.88,.71-.78-1.77-.55-1.93,.19-.65,.4-.86,.78-.07,.99-.3,1.07,.15,1.27-.07,.08-.76,.27-.99-.51-1.2-.33-1.43,.98,.04,1.19-.22,.63-.28,.85-.54,.57-.35,.74-.6,.86-.2,1.03-.43-1.56-1.69-1.42-1.95,1.89,.44,2.04,.18,.05-.68,.2-.95-.69-1.13-.51-1.38,2.1,.39,2.24,.11-1.27-1.29-1.13-1.57-.02-.66,.11-.93,2.17,.26,2.28-.02-1.94-1.45-1.83-1.74,2.15,.17,2.26-.11-.54-.85-.44-1.13-1.35-1.09-1.29-1.37,1.33-.2,1.42-.49,.15-.49,.23-.72-.24,.15-.16-.09c-.02,.3,.57,.03,.55,.34s.14,.6,.07,.96-.23,.58-.26,.88-1.5,.35-1.55,.67c-.04,.32,.72,.71,.66,1s0,.6-.06,.9-.56,.48-.63,.77,1.41,.89,1.34,1.2-1.22,.28-1.29,.6-.76,.39-.82,.67,1.32,1.05,1.22,1.33-.24,.57-.34,.85-.31,.54-.42,.82-.03,.65-.15,.93-.59,.41-.72,.68-1.55-.08-1.68,.19-.09,.59-.23,.86,.8,1.09,.64,1.35-1.58-.23-1.73,.03,.17,.76-.02,.98l-.49,.76c-.17,.25,1.37,1.71,1.21,1.96s-2.53-1.08-2.72-.83,.21,.92,0,1.14,.09,.85-.11,1.09-.51,.38-.71,.61,.09,.95-.12,1.15-.37,.52-.59,.74-.14,.76-.37,.98-.7,.16-.88,.4-1.62-.93-1.85-.73,1.06,2.26,.81,2.45-1.46-.85-1.7-.67-.85-.13-1.1,.06-.41,.44-.68,.61-.82-.18-1.08-.01,.04,1.19-.22,1.35-.71-.02-.94,.13l-.79,.45c-.28,.14-.42,.5-.7,.64s.21,1.8-.06,1.96-1.55-1.63-1.84-1.5,.26,2.09-.03,2.2-1.35-1.63-1.66-1.56-.43,.55-.71,.66,.11,2.05-.18,2.15-.58,.29-.88,.39-.97-.94-1.26-.88-.55,.29-.88,.4-1.02-1.33-1.26-1.26-.41,.65-.71,.73-.06,2.24-.35,2.31-1.02-1.71-1.35-1.63-.21,1.99-.5,2.06-.75-.63-1.04-.59-.51,.76-.79,.79-.86-1.87-1.15-1.84-.37,2.15-.67,2.18-.73-1.33-1.03-1.31-.57,.48-.86,.49-.63-.83-.94-.86-.58-.84-.89-.87-.58,.91-.88,.9-.67,1.29-.93,1.27-.65,.5-.95,.48-.53-1.18-.83-1.2-.7,.91-1,.88-.58-.37-.88-.41-.36-1.55-.69-1.59-.43-.87-.73-.93-.63,.23-.92,.21-.9,1.4-1.19,1.34-.17-1.91-.46-1.99-.64,.2-.94,.12-.48-.43-.77-.51-.7,.34-.99,.23-.59-.08-.87-.17-.67,.16-.96,.07-.88,.73-1.17,.64-.39-.72-.67-.82-.03-1.63-.3-1.73-1.47,2.05-1.7,1.93,.05-1.73-.23-1.84-.35-.7-.62-.83-1.1,1.07-1.38,.95-.86,.48-1.15,.36,.26-2-.01-2.12-.65,0-.92-.13-.2-.87-.5-.99-.88,.42-1.13,.26-.88,.41-1.15,.27,.17-1.61-.08-1.75-.84,.32-1.11,.18-.17-.93-.42-1.07-.84,.3-1.1,.15-.3-.65-.56-.84-.81,.19-1.07,.06-.04-1.08-.29-1.24-.9,.31-1.14,.15-1.26,.87-1.51,.72-.07-1.08-.34-1.25-.45-.46-.72-.63-1.03,.46-1.3,.3-.03-1.13-.3-1.31-.59-.17-.87-.34c.32-.07,.76,.8,.97,.75s.16-2.2,.39-2.25,.91,2.15,1.23,2.12,.43-2.11,.75-2.12,.82,1.82,1.13,1.79,.45-1.99,.76-2.01,.79,1.93,1.11,1.9,.63,.02,.97,0l.96-.04c.3-.07,.25-.2,.57-.06s1.53-1.55,1.8-1.39c.27,.16-.21,1.56,.04,1.7s.6,.11,.85,.26,1.1-.71,1.35-.55-.6,2.13-.35,2.28,1.53-1.41,1.78-1.26,.49,.28,.74,.44,.34,.56,.56,.73Z"/>
        <path class="cls-6" d="M85.96,62.98c-.35,.02-.69,1.21-.97,1.2s-.05-2.31-.34-2.42-.98,.9-1.24,.71c-.23-.2-.44-.43-.61-.69-.21-.23-.21-.54-.38-.83s-1.34-.06-1.43-.32c-.06-.35-.07-.7-.04-1.05-.09-.36-.12-.74-.1-1.11,.07-.27,2.03,.37,2.19,.12s-1.25-1.66-1.03-1.87,0-.87,.22-1.02,.74-.06,.92-.21,.63-.14,.83-.38,1.48,.82,1.69,.64-.27-1.17-.04-1.36,1.25,.56,1.46,.36-.95-1.92-.74-2.11,.83,.02,1.06-.19,.68-.16,.89-.36-.12-.94,.08-1.2,1.07,.19,1.28-.02-.02-.83,.2-1.02,.25-.57,.45-.8,.23-.58,.41-.82,2.16,.93,2.32,.7-1.15-1.68-.96-1.91,0-.72,.19-.97,0-.72,.16-1.01,2.62,1.05,2.8,.79,.32-.55,.49-.8-1.64-1.72-1.49-1.98,1.97,.45,2.11,.18-.93-1.22-.79-1.49,1.35,.03,1.49-.25,.35-.52,.48-.79,.5-.46,.63-.73,.06-.66,.18-.93-1.71-1.5-1.59-1.75,.21-.54,.32-.82,.61-.39,.72-.68-.15-.65,0-.97,.9-.33,.97-.61,.89-.36,.96-.65,.33-.54,.41-.83-1.13-.94-1.05-1.23,1.06-.34,1.14-.64,.81-.43,.88-.73-.15-.66-.07-.96-.59-.79-.52-1.11,.36-.59,.43-.91-.28-.72-.24-1.03,1.7-.04,1.87-.33-.04-.5,.16-.75-.56-1.44-.3-1.63,1.31,1.2,1.61,1.08,.27-.26,.59-.29,.46-.76,.81-.71,.89-.68,1.17-.55-.38,1.64-.15,1.84,1.75-.84,1.94-.58,.84,.53,.96,.83-1.79,1.09-1.76,1.38,1.47,.58,1.42,.9-1.97,.38-2.01,.68,1.14,.71,1.09,1.05,.22,.66,.16,.94,.35,.69,.3,.99-.23,.59-.3,.89-.17,.59-.24,.89-1.25,.29-1.31,.61,1.33,.99,1.27,1.28-.76,.43-.81,.71-1.34,.21-1.43,.5,1.03,.98,.93,1.26-1.14,.26-1.24,.53-.09,.61-.2,.89-.07,.61-.19,.9,.5,.86,.38,1.15-.77,.32-.89,.6c-.12,.28-1.1,.15-1.24,.42s1.85,1.58,1.71,1.85-.53,.42-.67,.7-1.27,.02-1.41,.33-.73,.29-.85,.54-.84,.19-.99,.46,1.18,1.41,1.04,1.71-.31,.53-.47,.78,.08,.78-.09,.99-.02,.73-.17,1.01-1.68-.4-1.84-.15,.86,1.36,.68,1.6-.84,.15-1.02,.39-1.38-.18-1.55,.08-.07,.71-.26,.94,.39,1.1,.2,1.33-1.35-.33-1.54-.1-.05,.75-.24,1.03-.52,.34-.72,.58,.47,1.26,.25,1.48-.62,.26-.86,.49-.9-.03-1.12,.18-.76,.08-.98,.28-.39,.48-.6,.68-.82-.01-1.05,.18,.82,1.85,.58,2.05-1.92-1.36-2.15-1.16-.11,.8-.35,.98-.6,.14-.9,.32,.03,1.15-.23,1.32-.7,.04-.92,.21-.52,.1-.77,.27Z"/>
        <g class="cls-3">
          <polygon class="cls-1" points="122.84 34.63 124.63 34.13 125.7 35.31 125.16 34 125.66 32.98 124.97 32.38 123.57 33.43 124.2 32.36 124.7 32.24 124.81 32.43 125.26 31.64 126.34 31.34 125 31.22 125.59 30.47 123.69 29.57 124.2 28.64 124.28 27.69 125.25 28.33 124.86 27.74 123.6 26.95 126.69 25.84 124.57 26.24 125.24 25.04 124.82 24.21 123.97 23.4 125.37 23.11 126.3 22.23 124.61 22.65 122.72 21.83 124.79 20.6 123.37 18.95 125.45 19.61 124.01 19.99 125.12 18.74 123.71 17.56 126.2 17.63 124.21 18.82 123.58 19.27 122.99 17.66 121.18 17.8 123.74 18.25 122.92 16.59 123.65 15.48 122.48 15.97 120.69 15.33 123.62 15.4 122.95 13.81 122.53 12.99 122.68 12.95 123.02 11.95 122.72 11.91 121.66 11.55 122.73 10.26 122.1 9.35 119.96 10.32 120.14 9.37 120.5 8.93 120.03 8.81 118.92 9.26 119.19 9.04 120.2 8.6 118.38 9.02 117.56 7.49 117.02 8.45 115.87 8.88 116.46 9.42 116.05 10.14 115.95 10.66 115.54 12.07 114.8 12.74 115.67 11.76 113.77 11.91 114.16 12.51 114.15 13.24 113.61 13.92 115.19 14.78 115.33 15.52 112.53 16 114.78 16.11 112.39 17.25 114.19 17.66 114.76 18.32 112.61 19.31 115.6 19.72 115.81 20.46 114.62 21.28 114.66 22.01 113.4 22.75 114.45 23.46 113.15 24.16 114.64 24.92 114.35 25.63 113.88 26.33 113.35 27 115.54 27.94 113.11 28.4 115.53 29.44 114.12 29.99 114.05 30.71 114.48 31.53 112.74 31.94 114.99 33.13 112.91 33.44 113.28 34.27 112.28 34.77 114.33 36.04 113.86 36.68 114.01 37.5 113.56 38.14 112.45 38.57 112.3 39.29 112.84 40.24 110.61 40.26 112.37 41.65 112.22 42.38 111.6 42.94 109.21 42.8 110.48 44.08 110.33 44.8 110.31 45.59 109.68 46.12 108.57 46.43 110.06 47.91 108.1 47.8 107.41 48.28 106.83 48.8 105.97 49.17 107.8 50.92 108.08 51.89 106.5 51.88 106.1 52.49 106.51 53.56 106.08 54.16 104.6 54.14 104.71 55.05 104.49 55.77 103.74 56.16 104.38 57.44 101.69 56.55 102.42 57.89 101.87 58.39 101.58 59.07 102.3 60.47 101.32 60.66 99.67 60.33 101.03 62.26 99.43 61.96 99.81 63.16 97.49 62.27 97.04 62.82 96.8 63.55 98.64 65.98 98.18 66.55 97.11 66.61 94.8 65.59 96.62 68.13 94.67 67.38 93.39 67.18 95.15 69.78 93.2 68.95 94.14 70.87 92.26 70.05 91.99 70.8 92.18 72.04 91.37 72.26 91.38 73.35 89.83 72.73 89.35 73.27 89.38 74.43 89.25 75.44 88.29 75.43 87.6 75.74 87.24 76.49 86.33 76.5 85.02 75.9 84.25 76.03 83.67 76.43 83.49 77.49 82.95 77.98 82.83 79.23 81.65 78.62 81.28 79.47 81.17 80.86 79.17 78.47 79.72 81.33 78.41 80.23 77.23 79.32 76.61 79.69 75.86 79.72 75.83 81.62 74.73 80.76 74.64 82.66 73.23 80.78 73.39 83.6 72.12 82 72.03 84.26 70.75 82.43 70.33 83.66 69.4 82.98 68.97 84.3 67.93 83.03 67.72 85.55 66.89 85.16 65.96 84.26 65.41 85.34 64.78 86.05 63.68 83.77 62.93 83.63 62.48 85.67 61.62 84.78 61.07 86.36 60.13 84.49 59.42 84.63 58.82 86.13 58.21 86.02 57.89 86.87 56.55 85.45 56.18 86.55 54.99 85.34 54.28 85.44 54.27 87.88 52.85 85.53 52.65 87.61 51.67 86.61 50.78 85.74 50.55 88.47 49.76 88.22 49.03 88.33 48.15 86.57 47.45 86.46 46.83 89.01 46.11 87.95 46.22 88.91 45.47 88.58 45.65 88.26 46.55 88.38 47.73 87.53 48.22 88.78 48.17 89 49.68 88.87 49.72 89.69 48.8 90.02 49.74 90.23 48.51 88.59 50.2 88.07 49.31 89.45 48.87 90.3 50.2 92.34 49.83 89.64 51.5 90.05 52.32 90.47 53.36 89.6 53.5 90.51 53.9 91.73 54.93 91.1 56.11 91.63 55.68 92.16 56.91 90.11 58.38 91.3 57.73 89.74 58.37 90.45 57.28 91.39 58.53 90.9 59.47 90.48 59.81 90.93 60.23 91.37 61.18 89.49 60.61 91.35 61.98 90.59 62.81 92.29 64.63 90.78 63.76 93.53 62.6 91.13 63.94 90.76 64.43 88.59 65.32 92.07 65.24 91.13 64.6 92.1 66.31 93.68 67.08 91.24 67.55 91.63 66.79 90.84 68.8 90.56 67.78 88.66 67.84 90.4 67.99 91.02 67.47 91.92 69.03 93.39 67.9 91.22 69.37 90.86 68.48 90.04 69.66 90.04 69.33 90.62 70.57 90.83 71.59 91.52 73.16 90.91 72.34 90.69 73.17 90.37 73.69 88.05 73.21 90.67 74.9 89.97 76.02 89.74 75.51 88.54 75.96 89.47 77 91.19 77.88 89.48 78.12 91.77 77.91 89.93 78.59 89.91 77.5 89.05 77.96 88.47 78.75 87.05 79.67 88.01 80.13 88.76 79.5 89.88 81.07 88.93 82.38 90.09 81.42 88.77 83.03 87.93 82.43 87.44 83.82 86.82 82.64 88.65 83.59 87.75 82.66 87.61 84.35 87.53 84.37 88.46 85.44 87.94 85.95 87.49 86.69 86.81 86.09 87.15 87.04 87.15 87.58 85.64 87.41 86.59 88.71 86.4 88.26 87.76 89.28 87.88 87.84 86.28 88.2 85.47 88.75 84.45 89.47 83.94 91.36 83.67 90.89 85.17 90.78 84.69 91.71 84.61 92.74 84.69 92.84 84.74 93.07 83.42 91.99 81.24 94.29 82.12 93.66 83.82 93.79 82.78 95.33 83.1 93.19 82.79 94.17 81.7 95.44 81.25 94.83 83.06 95.01 81.45 97.55 82.56 96.17 81.51 95.47 81.15 96.92 81.28 96.39 82.09 98.59 80.58 98.16 81.54 99.71 80.95 98.26 80.11 98.7 81.61 100.17 81.34 99.9 81.19 100.44 80.18 101.83 79.41 101.72 78.66 98.59 79.22 99.9 77.96 100.04 79.07 101.42 78.36 102.1 79.37 101.71 77.56 104.41 79.39 102.49 77.54 103.1 76.13 103.31 76.61 104.35 76.52 105.06 76.03 104.48 76.62 105.9 75.4 106.06 75.78 105.88 75.49 107.08 75.55 107.6 74.81 107.54 75.15 107.77 73.7 106.58 74.09 108.35 72.16 106.52 71.32 107.66 72.55 107.87 73.8 109.22 72.62 109.29 71.48 108.97 69.99 110.62 72.26 110.1 70 111.96 69.58 111.29 69.74 110.49 68.79 110.76 68.18 110.39 66.78 112.25 67.14 111.43 65.45 112.52 67.35 114.18 65.25 115.06 66.88 113.19 66.75 114.7 64.93 114.9 65.76 114.17 63.91 114.41 64.26 114.05 64.2 114.95 63.61 115.44 62.87 114.24 61.37 113.87 61.16 115.37 60.11 116.16 61.89 115.78 60.03 117.59 60.07 116.76 58.59 117.21 59.02 118.49 58.02 116.3 56.41 116.2 56.5 117.25 56.57 118.53 56.29 118.38 55.39 118.94 57.08 120.15 54.77 119.54 55.11 120.64 54.6 121.58 54.13 120.64 52.7 121.76 52.19 122.08 51.35 121.72 50.29 120.64 48.96 121.39 48.22 122.52 47.47 120 47.97 120.63 46.67 121.33 45.45 121.52 45.72 122.54 45.57 120.9 45.34 122.08 44.51 123.47 44.35 123.43 43.8 125.17 43.84 122.93 42.46 123.32 41.63 125.8 41.18 125.17 40.15 123.87 39.04 124.31 38.25 124.49 39.1 124.64 36.88 122.73 38.11 123.36 36.65 124.34 36.1 126.81 36.71 125.05 34.97 123.9 35.74 122.28 34.62 122.84 34.63"/>
        </g>
      </g>
    </g>
  </g>
</svg>