<?xml version="1.0" encoding="UTF-8"?>
<svg id="_圖層_6" data-name="圖層 6" xmlns="http://www.w3.org/2000/svg" viewBox="0 0 80 80">
  <defs>
    <style>
      .cls-1 {
        fill: #f4b3cb;
      }

      .cls-2 {
        fill: #f2a7c4;
      }

      .cls-3 {
        fill: #eb6897;
      }

      .cls-4 {
        fill: #ee87b4;
      }
    </style>
  </defs>
  <path class="cls-3" d="M66.41,14.91c-.22-.04-.45,.06-.65,.03s-.28-.96-.5-.99-.47,.38-.7,.36c-.32-.04-.41-.35-.39-.58,.03-.29,.05-.56,.06-.82s-.6-.51-.61-.8,.17-.05-.23,.04c-.2,.05-.42,.05-.63,.1s-.62-.74-.81-.7c-.22,.05-.19,1.1-.37,1.14-.39,.09-1.46-.62-1.48-.9-.02-.24,1.17-.61,1.14-.83s-.42-.39-.47-.63c-.06-.29-.96-.67-1.33-.52-.19,.07-.33,.29-.51,.37s-.12,.8-.3,.88c-.2,.08-.42,.08-.59,.15-.37,.15-1.53-.26-1.62-.55-.07-.23,1.05-.82,.98-1.03s-.21-.43-.3-.66c-.11-.28-.9,.4-1.25,.57-.18,.09-.64-.35-.82-.26s-.66-.37-.83-.28c-.2,.1,.01,.98-.15,1.06-.33,.17-.58-.32-.71-.58-.1-.2-.42-.29-.53-.47s.09-.57-.04-.77c-.17-.25-.94,.13-1.25,.33-.27,.17-.61,.17-.83,.33s-.68,.05-.92,.23c-.23,.17-.12-.01-.36-.15-.21-.12-.74,.36-.95,.25s-.06-.9-.28-1.01c-.16-.08-.59,.68-.77,.72-.19,.05-.65-.14-.72,.02-.08,.18-.57,.25-.67,.51-.08,.2-.05,.47-.15,.71-.08,.21,.72,.76,.63,.99-.08,.21-.03,.48-.11,.71-.08,.22-.84,.2-.92,.43-.08,.22-.15,.45-.23,.68s.3,.6,.23,.83-.07,.47-.14,.7-.58,.31-.65,.54-.44,.36-.51,.59,.24,.56,.17,.79-.05,.48-.11,.71-.49,.36-.55,.59,.05,.51,0,.74,.05,.5,0,.73-.24,.44-.29,.67,.18,.53,.14,.76-.43,.41-.47,.64,.5,.57,.46,.8-.61,.39-.64,.63,.81,.57,.78,.8-1.25,.37-1.27,.61-.1,.5-.11,.73,.65,.5,.65,.73c0,.25,.59,.44,.6,.68,.02,.24,.04,.44,.07,.67,.03,.24-1.19,.71-1.14,.94,.06,.24,1.2,.16,1.28,.38,.08,.23-.84,.93-.73,1.13,.12,.21,.6,.29,.75,.46s.69-.06,.89,.07,.27,.43,.5,.51,.43,.37,.67,.39c.23,.03,.53,.42,.78,.4,.23-.01,.4-.84,.64-.89,.23-.04,.4-.24,.64-.31,.22-.06,.33-.4,.56-.49,.22-.08,.91,1.02,1.14,.92s.42-.29,.64-.4,.23-.62,.45-.74,.42-.22,.63-.34,.37-.32,.57-.44,.01-.86,.21-.99,.58,.04,.78-.1,.44-.2,.63-.34,.79,.28,.98,.14,.32-.38,.51-.53,.34-.35,.53-.49,.03-.73,.22-.88,.3-.39,.48-.54,.19-.52,.37-.67,.42-.24,.6-.4,.91,.32,1.09,.16,.31-.38,.49-.54-.1-.84,.08-1,1.04,.43,1.21,.27,.32-.37,.5-.53-.11-.83,.06-1,.55-.12,.72-.29,.44-.25,.61-.41-.17-.87,0-1.03,.83,.15,.99-.02-.18-.86-.01-1.02,1.18,.49,1.34,.32-.27-.94-.11-1.11c.17-.18,.72,.02,.88-.14,.17-.18,0-.67,.16-.84,.17-.18,.92,.19,1.07,.02,.18-.19-.45-1.09-.3-1.25,.18-.2,.56-.18,.69-.32,.24-.27,.15-.01-.27-.09Z"/>
  <path class="cls-3" d="M78.14,32.79c-.14-.18-.06-.54-.19-.7s-1.25,.52-1.4,.36,.86-1.37,.7-1.54c-.22-.23-.85-.18-.59-.36,.21-.15,.63,0,.81-.13,.2-.15-.04-.83,.15-.99s.32-.34,.51-.5c.16-.14,.71,.05,.65-.12-.05-.15-.06-.93-.26-1.01-.22-.09-.96,1.15-1.18,1.07s.06-1.47-.15-1.55c-.24-.09-.9,.96-1.1,.88-.41-.16-.75-1.47-.48-1.73,.22-.21,.23-.56,.43-.77s1.21,.36,1.41,.12c.14-.16,.4-.85,.3-1.01-.08-.14-.91,.83-1.12,.79-.23-.05-.17-1.38-.4-1.43s-.39-.5-.61-.55c-.25-.05-.66,.73-.87,.69s-.25-.18-.34-.31c-.11-.15,.28,.15,.41-.01,.18-.24-.26-.92-.11-1.14s.17-.53,.32-.78c.11-.17,.63-.51,.5-.65-.1-.12-.66,.45-.86,.43-.24-.03-.53,.35-.77,.32s-.38-.97-.61-1c-.26-.03-.47-.31-.69-.34-.43-.06-1.57-.48-1.41-.77,.12-.23,.2-.41,.3-.63s.62-.22,.71-.46c.13-.31,.25-.72-.2-.73-.25,0-.49,.41-.72,.41-.24,0-.46,.62-.7,.63s-.49-1.16-.73-1.15c-.35,.01-1.15,.29-1.2,.04-.04-.22,.41-.52,.35-.73s.32-.53,.25-.75c-.05-.17-.41-.97-.61-1.03-.18-.05-.93,.04-1.11,.12s.24,1.58,0,1.69c-.2,.09-.96-.95-1.19-.84-.2,.1-.46,.13-.68,.24-.21,.1-.12,.82-.34,.93-.21,.1-.77-.48-.99-.37-.21,.11,.12,1.27-.1,1.39s-.53,0-.75,.11-.63-.19-.85-.08-.15,.73-.36,.84-.64-.18-.85-.07-.81-.5-1.02-.38-.18,.66-.39,.78,.14,1.23-.07,1.35-1.04-.88-1.25-.76-.21,.6-.42,.72-.18,.64-.38,.76-.78-.39-.99-.26,.08,1.07-.12,1.2-.76-.33-.97-.2-.85-.45-1.06-.33-.24,.54-.44,.67,.31,1.37,.11,1.5-.52,.07-.72,.2-.79-.31-.99-.18,.24,1.18,.05,1.32-.78-.27-.97-.13-.81-.28-1-.14,.2,1.06,.02,1.2-.52,.11-.7,.26-.76-.15-.94,0,.42,1.19,.24,1.35c-.18,.17-.59,.06-.75,.22-.18,.17-1.04-.32-1.2-.15-.17,.18-.67,.12-.82,.3-.16,.2,.59,1.09,.46,1.28-.14,.21-.9,.07-1,.27-.12,.23,1.12,.94,1.06,1.16-.07,.24-.41,.22-.41,.45,0,.24,.05,.24,.15,.47s-.39,.71-.23,.89c.15,.16-.13,1.05,.08,1.19,.18,.12,1-.71,1.23-.6,.2,.1,.54-.2,.78-.11,.21,.08,.45-.03,.68,.04,.22,.06,.04,1.76,.28,1.81,.22,.05,.62-.56,.86-.51,.23,.04,.63-.99,.87-.96s.41,.29,.66,.32,.31,1.46,.56,1.48,.51-.23,.75-.21,.53-.78,.77-.77,.48-.19,.72-.18,.42,1.35,.66,1.36,.49-.68,.73-.67,.47,.71,.7,.71,.48-1.04,.71-1.04,.47,.39,.71,.38,.49,.61,.72,.6,.46-.75,.7-.76,.46-.35,.7-.36,.45-.52,.69-.53,.54,1.43,.78,1.41,.42-1.06,.66-1.07,.51,.56,.75,.54,.41-1.1,.65-1.11,.5,.36,.74,.34,.47-.12,.71-.14,.54,.75,.77,.73,.46-.22,.7-.24,.52,.45,.75,.42,.36-1.29,.59-1.31,.48,.08,.72,.06,.6,1.17,.83,1.15,.44-.37,.68-.39,.44-.45,.67-.48,.56,.63,.79,.61,.47-.17,.7-.2,.41-.65,.64-.68,.4-.63,.63-.65c.24-.03,.44-.31,.67-.34,.24-.03,.68,1.43,.9,1.4,.25-.03,.27-1.6,.49-1.63,.25-.04,.75,1.75,.97,1.72,.26-.04,.45-.37,.66-.4,.23-.04,1.02-.35,1.1-.5,.09-.16-.5-.88-.64-1.06Z"/>
  <path class="cls-3" d="M55.7,68.43c.14-.23,.62-.25,.74-.45,.13-.22,.21-.49,.33-.71s-.96-1.06-.84-1.29c.08-.17,.54-.71,.71-.78s.47,1.5,.65,1.55c.22,.06,.65-.73,.86-.68,.22,.05,.27,.85,.48,.89s.44,.07,.66,.12c.21,.04,.63-1,.85-.96,.24,.04,.6,.56,.77,.43s.72-.63,.71-.86-.53-.45-.55-.68,.02-.48,0-.7c-.01-.25,.41-.51,.4-.72-.01-.22-.35-.25-.17-.39,.16-.13,.33-1.04,.56-1.02,.26,.03,.36,1.53,.6,1.55s.52-.11,.78-.1c.24,.01,.5-.02,.76,0,.24,0,1.08-.11,1.23-.26,.16-.16-.79-.85-.85-1.08s-.39-.36-.45-.58,.26-.56,.2-.76c-.07-.24-.4-.37-.47-.57-.07-.22,.43-.76,.58-.92,.14-.15,.47-.89,.71-.9,.27,0,.53,.79,.78,.78s.44-.87,.69-.89c.24-.02,.63,1.59,.89,1.56,.24-.02-.14-1.34-.02-1.51,.13-.18,1.06-.2,.96-.41s-.05-.5-.15-.71-.82-.15-.92-.35c-.11-.23,.2-.63,.12-.82s-.84-.59-.72-.76c.11-.16,.66-.52,.88-.56,.24-.04,.52,.26,.74,.22s.58,.53,.81,.48c.22-.05,.17-1.28,.41-1.34,.23-.05,1,.83,1.09,.66,.1-.18-.74-.33-.87-.51-.14-.2,.69-1.05,.56-1.23-.14-.19-1.42,.48-1.56,.3s.07-.61-.08-.8c-.21-.26,.33-.6,.62-.81,.25-.18,.13-.83,.37-1.01s.15-.71,.39-.91c.18-.15,1.56,.07,1.53-.12s-1.09,.02-1.31-.07c-.2-.08-.54,.15-.79,.05-.21-.08-.33-.44-.57-.53-.21-.08-.24-.71-.48-.8-.22-.08-.79,.8-1.03,.72-.22-.08-.01-1.39-.25-1.47-.22-.08-.8,.86-1.04,.78s-.29-.64-.52-.72-.68,.52-.91,.44-.09-1.26-.32-1.34-.87,1.13-1.1,1.06-.08-1.33-.31-1.4-.63,.41-.87,.34-.33-.56-.56-.63-.73,.78-.97,.71-.2-1.03-.43-1.1-.69,.67-.93,.6-.33-.62-.56-.68-.33-.62-.57-.68-.61,.39-.84,.33-.59,.35-.82,.29-.44-.22-.68-.28-.37-.53-.61-.58-.55,.25-.79,.2-.41-.37-.65-.43-.41-.43-.64-.48-.62,.63-.86,.59-.2-1.61-.44-1.65-.77,1.58-1.01,1.54-.43-.35-.67-.39-.4-.6-.64-.63-.4-.81-.64-.83-.55,.51-.79,.49-.55,.77-.78,.75-.43-1.29-.67-1.3-.52-.24-.76-.24-.45,1.72-.69,1.73c-.25,.01-.52-.73-.76-.7-.25,.03-.55-.32-.78-.28-.25,.04-.25,1.08-.48,1.14-.24,.07-.37,.16-.59,.25-.23,.1-.61-.29-.81-.17-.21,.13-.34,.27-.5,.44s-.75,.05-.87,.26,.81,.76,.75,1c-.06,.22-1.59,.22-1.61,.47-.01,.23,.68,.52,.7,.76,.02,.23-.28,.53-.24,.77,.04,.23-.16,.56-.09,.79,.06,.22,1.2,.14,1.28,.37,.07,.22-.27,.58-.18,.81s-.47,.72-.37,.94,1.44-.14,1.54,.08-.15,.58-.04,.8,.39,.32,.5,.53,.39,.31,.51,.52,.34,.34,.46,.54,.23,.39,.36,.6-.48,.85-.35,1.05,.67,.13,.8,.33-.65,1.01-.52,1.21,1.23-.27,1.37-.07-.12,.66,.02,.85,.02,.58,.16,.77,1.13-.24,1.27-.05-.87,1.25-.73,1.44,1.33-.41,1.48-.22-.64,1.1-.49,1.29,1.12-.27,1.27-.08,.57,.16,.72,.34-.36,.91-.21,1.09,.61,.12,.76,.3-.15,.75,0,.93,.41,.29,.56,.47,.54,.17,.69,.35-.26,.86-.11,1.04,.15,.52,.3,.69,.33,.36,.48,.53c.16,.18,.47,.23,.62,.4,.16,.18,.39,.3,.54,.47,.17,.18,.7,.02,.85,.19,.17,.18,.92-.2,1.07-.04,.18,.19,.11,.57,.25,.72,.17,.18-.05-.04,.18-.08s.79,.6,.92,.39Z"/>
  <path class="cls-4" d="M22.34,65.69c.3,0,.61-1.34,.88-1.33,.28,.01,.52,.81,.8,.83s.56-.11,.85-.08c.21,.02,.86-.22,1.01-.06s-.56,.9-.52,1.1c.06,.27,.02,.56,.08,.82s1.04,.3,1.11,.56-.98,.8-.9,1.07c.07,.25,1.64,.08,1.72,.36,.08,.28-.78,.97-.58,1.14,.24,.2,.4-.58,.64-.68,.22-.1,.91,.85,1.13,.75s.05-1.07,.26-1.16c.24-.11,.85,.64,1.04,.55,.22-.1,.66-.92,.9-.76,.2,.14,.75,.58,.84,.84,.08,.23,.07,.46,.16,.68s-.86,.85-.77,1.07,.54,.28,.64,.49,.55,.25,.65,.46c.13,.27,.13,.32,.37,.38,.26,.07-.03-.19,.16-.4,.19-.2,1.09,.23,1.27,.02s.17-.61,.34-.81c.19-.23,.61-.27,.76-.47,.16-.21,.08-.9,.29-.92,.23-.02,1.04,.16,1.17,.38,.12,.22,.43,.34,.53,.53,.11,.21-.19,.65-.09,.85s-.92,.93-.82,1.15c.1,.22,1.25,.84,1.43,.79,.15-.04-.43-1.38-.3-1.58,.12-.18,.11-.47,.24-.65s1.41,.5,1.54,.33-.18-.68-.05-.84c.14-.18-.18-.74-.05-.89,.16-.18,.82,.58,1.01,.56,.23-.03,.97-.73,1.07-.53,.14,.28-.84,1.07-.72,1.31s1.41-.09,1.55,.18c.1,.2-.41,.12-.13,.06,.21-.05,1.1,.97,1.3,.8,.19-.17-.52-1.38-.34-1.53,.19-.16,.64-.02,.82-.18s.44-.23,.63-.39-.17-.95,.02-1.11c.18-.15,1.14,1.17,1.38,1.12,.25-.06,.14-.24,.34-.16,.24,.09,.59-.1,.82-.03s.67-.61,.92-.55c.23,.06,.42,.28,.68,.33,.19,.04,.2-.57,.42-.61s1.05,1.64,1.23,1.55c.23-.12,.11-1.11,.17-1.26,.08-.22,.52-.4,.57-.65,.05-.23-.91-.62-.89-.87,.02-.23-.19-.44-.19-.69,0-.23,.77-.46,.76-.71,0-.23-.08-.47-.1-.72s-.98-.36-1.01-.61,1.57-.69,1.54-.94-.34-.44-.39-.69-1.22-.25-1.27-.49,.88-.68,.83-.92-.98-.26-1.04-.49,1.09-.78,1.03-1.02-.32-.42-.39-.65,.37-.62,.3-.86-1.9,.09-1.97-.15,.2-.56,.12-.8,.23-.59,.15-.82-.99-.15-1.08-.38,.19-.58,.11-.8,.54-.72,.46-.95-.5-.32-.59-.55,.52-.74,.42-.96-1.16-.04-1.26-.26,.54-.77,.45-.99-1.35,.07-1.45-.15,.85-.92,.75-1.14-.29-.4-.39-.62,.12-.6,.01-.82,.21-.66,.1-.88-1.12,.02-1.24-.19,.13-.62,.01-.84-.52-.28-.64-.49-.58-.23-.7-.44-.1-.5-.22-.71,.24-.72,.12-.92-.93,0-1.05-.2,.03-.6-.1-.8-.1-.52-.24-.72-.91,.05-1.05-.14-.11-.51-.26-.7,.64-1.14,.48-1.33c-.16-.19-1.44,.58-1.59,.4-.17-.19,.77-1.4,.61-1.57-.18-.18-1.25,.56-1.42,.41-.19-.17-.67,.12-.85-.02-.2-.16,.39-1.44,.2-1.55-.23-.13-.94,.96-1.15,.89-.25-.08-.22-.9-.44-.9-.23,0-.39,.3-.62,.38-.22,.07-.78-.56-1-.44-.2,.11,.22,1.17,.03,1.32-.18,.14-.13,.45-.31,.62-.17,.16-.47,.12-.64,.3-.16,.17-1.11-.33-1.26-.14-.15,.18-.25,.43-.39,.63s.73,1.09,.59,1.29-.25,.37-.38,.58-1.55-.42-1.68-.21-.08,.52-.2,.73,.94,1.09,.82,1.3-.42,.3-.54,.51-1.62-.33-1.74-.12-.29,.4-.4,.61,.75,.92,.64,1.14-1,.04-1.11,.26,1.35,1.19,1.25,1.41-1.01,.05-1.11,.26-.76,.17-.87,.39-.4,.35-.5,.56,1.01,.99,.91,1.21,.05,.55-.05,.77-1.35-.08-1.45,.14-.05,.51-.15,.73,.26,.65,.17,.87-.4,.35-.5,.57,.13,.58,.03,.8-1.38-.08-1.47,.14,.02,.54-.07,.76,.57,.78,.47,1,.16,.6,.06,.82-.7,.22-.79,.44,.33,.68,.23,.9-.29,.4-.39,.62-.06,.51-.16,.72-.91,.11-1.01,.33,.37,.72,.26,.93,.13,.62,.03,.83-1.43-.19-1.54,.02c-.12,.22,.41,.75,.29,.95-.09,.25-.05,.16,.12,.33,.15,.15,.18,1.05,.44,1.05Z"/>
  <path class="cls-2" d="M3.47,49.94c.17,.13,.03,.66,.19,.78s-.19,1.04-.01,1.16c.17,.11,.88-.62,1.07-.51,.27,.16,.25,.64,.03,.94-.14,.19,.12,.64,0,.81-.13,.19-.7,.06-.82,.25s-.89-.04-1.01,.15c-.11,.18,.42,.78,.3,.98s-.21,.49-.14,.66c.08,.17,.37-.08,.61-.07s.46,1.06,.7,1.06,.49,.16,.73,.17c.26,0,.55-1.55,.77-1.55,.23,0,.2,.92,.29,1.08s.46,.38,.35,.58c-.12,.23,.14,.64,.03,.85s-.86,.13-.97,.36c-.1,.22,.12,.59,.01,.83s-.49,.46-.37,.62,.54,.55,.79,.52,.42-.78,.67-.82,.58,.31,.83,.27c.28-.04,.46-.55,.69-.59,.25-.04-.05,.91,.07,1.05s.23-.34,.14-.11c-.09,.25,.97,.87,.89,1.11s-.82,.26-.9,.51-.43,.4-.5,.66-.1,1.06,.06,1.19,1.01,.48,1.26,.42c.2-.05,.34-.39,.54-.45s.33-.42,.53-.48c.21-.05,.58,.51,.77,.46,.22-.06,.06-1.54,.24-1.59,.24-.06,.42,.88,.57,.99,.16,.12,0,0-.05,.24s-.22,.47-.25,.69,.58,.56,.55,.79c-.03,.23-.4,.42-.43,.67s.63,.06,.82,.17c.17,.1-.13-.19,.12-.28,.21-.08,.82,.89,1.02,.81,.21-.08,.31-.41,.51-.49s.51,.08,.71-.01,.57,.2,.77,.1c.18-.08-.13,0,.03,.04,.18,.04,.52-.63,.6-.46,.08,.19,.06,.42,.15,.6s1.01-.08,1.1,.1,.25,.28,.35,.47c.13,.22-.42,.68-.17,.67,.23-.01,.42-.08,.59-.28,.14-.16,.23-.41,.39-.61,.15-.17,.12-.5,.28-.7,.15-.18,.21-.43,.37-.62,.15-.18,1.32,.47,1.48,.28,.15-.18-.4-.93-.25-1.12,.15-.18,.81,.04,.96-.15s.06-.56,.21-.75,.46-.25,.61-.44-.45-.96-.31-1.15,.39-.3,.54-.49,.92,.1,1.07-.09,.14-.49,.29-.69,.1-.52,.25-.72,.63-.13,.77-.32-.33-.84-.19-1.03,1.22,.3,1.36,.11,.07-.55,.21-.74-.17-.71-.03-.91-.01-.6,.13-.79,.66-.12,.8-.32-.62-1.01-.48-1.21,1.47,.42,1.6,.22,0-.58,.14-.78,.14-.49,.28-.69,.56-.22,.69-.42-.11-.65,.02-.85-.31-.76-.18-.97,.54-.23,.66-.44,1.2,.16,1.32-.05-.22-.7-.1-.91-.45-.82-.34-1.03,1.19,.11,1.31-.1-.33-.73-.21-.94,.38-.35,.49-.56-.36-.71-.25-.93,.56-.26,.66-.48,.94-.12,1.04-.34-.34-.67-.25-.89c.09-.23-.65-.74-.58-.96,.08-.23,1.48-.03,1.55-.26,.07-.24,.03-.53,.08-.75,.05-.25,.21-.51,.24-.74,.03-.25-.24-.56-.23-.79,0-.25-.72-.41-.76-.63-.05-.25,.55-.68,.44-.88-.11-.21-.22-.58-.4-.74s-.95,.78-1.18,.69c-.21-.09-.23-.35-.48-.4-.22-.04-.39-.03-.64-.04-.23-.01-.47-1.1-.72-1.08-.23,.01-.49,.16-.74,.19-.23,.03-.4,.6-.64,.64-.23,.04-.57-.46-.81-.4-.23,.05-.58-.34-.82-.28s-.18,1.26-.41,1.32-.72-.79-.96-.72-.16,1.1-.4,1.18-.28,.64-.51,.72-.71-.62-.94-.54-.72-.58-.95-.5-.55-.09-.78,0-.07,1.14-.3,1.23-.37,.36-.59,.45-.85-.81-1.07-.71-.22,.72-.44,.82-.29,.54-.51,.64-.54-.03-.76,.06-.11,.94-.33,1.03-.56-.08-.78,.02-.59-.13-.81-.03-.4,.29-.62,.39-.81-.56-1.02-.46-.4,.29-.62,.4-.35,.39-.57,.5-.54,0-.76,.11-.1,.88-.32,.99-.8-.5-1.01-.39-.39,.3-.61,.41-.06,.94-.27,1.05-.15,.76-.36,.87-.81-.5-1.03-.39-.44,.22-.65,.33-.73-.33-.94-.21-.2,.65-.41,.77-.49,.12-.7,.24-.06,.9-.26,1.02-.94-.68-1.14-.57c-.22,.12-.06,.89-.26,1.01-.22,.12-.05,.9-.25,1.01-.22,.12-.96-.68-1.16-.57-.22,.13,.06,1.08-.13,1.2-.23,.13-1.1-.89-1.29-.78-.2,.12-.32,.65-.38,.83-.07,.21,.58,.03,.76,.16Z"/>
  <path class="cls-4" d="M46.88,10.2c-.21,.05-.32,.48-.51,.52-.2,.05-.25,.62-.45,.67s-.67-.91-.87-.85c-.29,.08,.04,.21-.11,.01-.19-.25-.78-.14-.96-.35s-.06-.7-.28-.93-1.32-.22-1.58,0c-.2,.17-.36,.39-.56,.56-.22,.18-.37,.42-.54,.57-.25,.21-.38,.19-.61-.03-.19-.18-.8,.11-.99-.05s-.12-.61-.33-.78c-.27-.22-.71-.11-.92,.14-.16,.19-.3,.41-.45,.59-.17,.21-.57,.22-.7,.39-.2,.26-.3,.1-.59-.1-.23-.17-.55-.18-.77-.33s-.73,.18-.98,.02c-.31-.19-.85-.52-1.02-.25-.14,.21-.25,.46-.38,.67-.15,.24-.3,.45-.41,.64-.16,.26-.28,.22-.59,.05-.25-.13-.83,.46-1.07,.34s-.03-1.15-.3-1.27c-.34-.15-1.55,.24-1.67,.52-.11,.24-.22,.48-.3,.7s-.22,.46-.3,.71c-.07,.23,.2,.89-.13,.86-.28-.02-.55,.26-.81,.25s-.49-.47-.78-.48c-.43,0-1.11,.27-1,.56,.07,.18,.64,.22,.75,.48,.08,.2,.15,.42,.26,.66,.09,.2,.02,.49,.13,.72,.09,.21-.05,.54,.05,.77,.1,.21,.65,.22,.76,.44,.1,.21-.35,.69-.24,.91s.24,.41,.35,.63,.8,.12,.91,.34-.2,.63-.09,.85,.02,.53,.14,.74,.42,.32,.54,.53,.97,0,1.09,.22-.27,.7-.15,.91-.35,.76-.23,.97,.94,0,1.06,.21,.23,.42,.36,.62,.68,.13,.81,.33-.51,.91-.37,1.11-.06,.64,.07,.83,.99-.11,1.13,.09,.57,.17,.71,.36,.24,.41,.39,.6,.28,.37,.44,.56,.22,.44,.37,.61,.5,.17,.67,.34,.06,.6,.23,.77,.44,.22,.62,.37-.11,.9,.07,1.04c.19,.15,.38,.36,.57,.49,.21,.14,.66-.12,.87,0,.22,.12,.33,.46,.55,.55,.23,.09,.69-.67,.92-.62s.34,.32,.58,.34,.45,.43,.69,.4,.67,.45,.89,.37,.42-.42,.63-.55,.31-.45,.5-.6,.25-.44,.41-.61c.16-.17,.23-.41,.38-.61s.12-.47,.25-.68,1,.03,1.12-.18-.45-.77-.35-.99,.26-.39,.36-.62-.31-.62-.23-.84,.82-.2,.89-.43,.17-.44,.24-.67-.06-.51,0-.74-.28-.56-.22-.79,.05-.47,.1-.7,1.05-.25,1.1-.49-.49-.59-.45-.82-.18-.51-.14-.75,1.16-.29,1.19-.53-.47-.57-.44-.8-.15-.51-.12-.74-.12-.5-.09-.74,.49-.43,.51-.66,.49-.44,.51-.67-1.06-.59-1.04-.82-.02-.48,0-.71,1.08-.4,1.1-.63c.02-.25,.24-.48,.25-.71,.01-.25-1.19-.55-1.18-.78,.01-.25,1.26-.44,1.27-.66,0-.26-.31-.52-.31-.73,0-.28-.51-.52-.51-.71,0-.29-.29-.98-.68-.9Z"/>
  <path class="cls-2" d="M26.74,9.67c-.15,.17-.26,.34-.39,.5-.14,.16-.8-.11-.93,.06s.31,.77,.18,.95c-.19,.25-.83,.49-1.06,.44-.29-.07-.44-.7-.7-.75s-.63,.54-.93,.5c-.16-.02-.17-.1-.33,.01s.18,.25,.14,.41c-.07,.26-1.27,.21-1.34,.46-.08,.28,.41,.71,.34,.93-.09,.33-.55,.92-.86,.89-.26-.02-.5,.1-.75,.09s-.47-.15-.74-.15c-.17,0-.76-.68-.9-.55s-.5,.69-.52,.86c-.03,.25,1.25,.64,1.23,.88-.02,.27-.44,.49-.45,.71-.01,.17,.08,.82-.06,.95s-.79-.5-.96-.49c-.29,.02-.53,.3-.79,.32s-.49,.22-.78,.26c-.17,.02-.35-.04-.48,.09-.14,.14-.87,.3-.86,.47,0,.25,0,.52,0,.77,0,.28,.78,.52,.78,.74,0,.31-.54,.33-.89,.4-.28,.06-.38,.83-.64,.89s-.57-.16-.86-.08c-.17,.05-.71-.21-.83-.07-.13,.16-.43,.75-.41,.91,.05,.26,1.15,.27,1.2,.49s-.74,.67-.67,.92c.07,.23,.09,.16-.19,.35-.24,.16-.31,.57-.53,.73s-.67,.02-.91,.2c-.36,.27,0,.64,.26,.79,.17,.1,.25,.43,.49,.57,.19,.11,.53-.02,.76,.1,.2,.11,.43,.16,.65,.28,.2,.11-.09,1.19,.13,1.3,.21,.11,.46,.14,.68,.26,.21,.1,.83-.61,1.05-.51s.46,.12,.69,.22,.47,.11,.69,.22,.3,.47,.52,.57,.34,.41,.56,.51,.53-.04,.76,.05,.55-.09,.77,0-.02,1.35,.21,1.43,.8-.76,1.03-.67,.51-.02,.74,.06,.12,1.14,.34,1.22,.57-.19,.8-.11,.52-.06,.76,0,.36,.5,.59,.56,.58-.3,.81-.25,.27,.98,.51,1.03,.73-1.15,.97-1.1,.34,.85,.57,.88,.43,.53,.67,.56,.55-.44,.79-.42,.5-.2,.74-.19,.48-.13,.71-.14,.44-.29,.68-.31,.46,.02,.69-.02,.57,.31,.79,.24,.38-.34,.59-.44,.36-.28,.56-.42,.72,.1,.89-.07-.15-.76-.02-.95,.37-.29,.48-.51,.34-.37,.41-.6,.49-.39,.53-.64-.17-.52-.16-.77-.12-.48-.12-.73-.14-.46-.16-.71,.3-.52,.27-.76-.9-.32-.95-.56-.14-.43-.2-.67,.99-.74,.93-.98,.03-.52-.04-.76-.38-.39-.46-.62,.03-.53-.05-.76-.66-.27-.75-.5-.83-.18-.92-.4,.93-.92,.84-1.15-.44-.34-.54-.56-.76-.18-.87-.4,.42-.75,.31-.96-.23-.43-.34-.65-1.12,.04-1.23-.18-.2-.44-.32-.65,.46-.81,.34-1.02-.21-.44-.33-.65,.09-.62-.03-.82c-.13-.21-1.12,.1-1.24-.09-.13-.21-.46-.29-.58-.48-.14-.22,.2-.71,.08-.9-.14-.22,.33-.83,.21-1.01-.16-.23-.93,0-1.05-.15-.16-.23-.31-.05-.59,.27Z"/>
  <path class="cls-3" d="M7.97,22.12c-.06,.28-.31,.53-.35,.77s.16,.56,.14,.84c-.02,.26,.14,.28-.18,.37-.27,.07-.45,.43-.69,.5-.26,.07-.41,.43-.67,.51-.24,.07-.33,.62-.59,.71-.19,.06-1.29-1.14-1.4-1-.13,.17-.24,1.37-.15,1.52,.13,.21,.68,.17,.81,.37,.14,.22,.31,.42,.42,.6,.16,.26,.26,.48-.15,.63-.23,.09-.75-.61-.96-.53s-.07,1.05-.29,1.14c-.2,.09-.65-.37-.88-.27-.19,.08-.47,.46-.55,.61-.1,.18,.12,.66,.26,.79,.18,.18,.28,.47,.46,.64,.2,.19,1.04-.34,1.21-.19,.14,.13-.64,.65-.74,.83-.07,.14,.29,.76,.1,.85-.23,.11-.62-.13-.82-.03s.03,1.05-.18,1.17c-.2,.11-.54-.04-.76,.09-.18,.1-.13-.06-.2,.09-.08,.19-.71,.46-.55,.57,.23,.17,.3,.57,.53,.73,.25,.18,.64,.13,.84,.28,.28,.2,.64,.74,.26,.99-.2,.13-1.06-.74-1.25-.61s-.35,.32-.54,.45c-.18,.13,.17,1.01-.02,1.15-.17,.13-.2,.14-.24,.3-.05,.19-.29,.51-.11,.6s.52-.12,.69-.03,.49-.14,.68-.06-.11,1.33,.09,1.4c.28,.11,1.05-.06,.85,.24-.17,.26-.26,.52-.41,.76s-1.33-.13-1.48,.15c-.12,.2,0,1.02,.09,1.16s.71-.19,.94-.22c.21-.02,.46,.09,.73,.05,.22-.03,.57,.75,.82,.71,.22-.03,.22-1.83,.47-1.86,.23-.03,.66,1.31,.91,1.27,.23-.03,.48,.03,.73,0,.23-.04,.26-1.38,.5-1.42s.62,.88,.86,.84,.48,0,.72-.04,.48-.02,.72-.06,.26-1.28,.5-1.33,.73,1.38,.97,1.33,.37-.62,.61-.67,.58,.51,.82,.47,.37-.58,.61-.63,.54,.27,.77,.22,.29-.96,.53-1.01,.42-.29,.66-.34,.65,.76,.88,.71,.56,.33,.8,.27,.29-.92,.52-.97,.49-.01,.72-.07,.52,.1,.75,.05,.53,.14,.77,.08,.21-1.17,.44-1.22,.39-.4,.62-.46,.74,.93,.97,.86,.65,.54,.88,.47,.21-1.05,.44-1.12,.44-.22,.67-.29,.34-.53,.57-.6,.73,.72,.96,.64,.4-.33,.63-.4,.16-.98,.39-1.06,.4-.26,.63-.35,.58,.18,.79,.09,.97,1.07,1.19,.98,.35-.46,.56-.56,.36-.41,.57-.52c.22-.11,.58,0,.78-.11,.22-.12-.27-1.44-.08-1.56,.21-.13,.4-.19,.59-.33,.2-.15,.51-.07,.68-.22,.19-.16,.21-.39,.36-.56,.17-.19,.01-.42,.12-.62,.13-.22,1.78,.19,1.83-.03,.06-.24-.91-.66-.95-.89s.27-.59,.16-.82c-.1-.2-.58-.2-.74-.4-.14-.18,0-.66-.18-.83-.17-.16-1.11,.63-1.31,.48-.18-.14,.15-.97-.05-1.11-.19-.13-.32-.39-.53-.52-.2-.12-.19-.67-.41-.79s-.29-.55-.51-.65-.66,.23-.88,.13-.55,.03-.77-.07-.54,.03-.76-.06-.12-1.02-.35-1.11-.75,.61-.98,.53-.74,.67-.97,.59-.24-.77-.47-.85-.24-.82-.47-.89-.43-.26-.66-.33-.52,.03-.75-.04-.49-.08-.72-.15-.35-.57-.58-.63-.79,1.04-1.03,.98-.28-.86-.51-.92-.72,.82-.95,.76-.14-1.45-.38-1.51-.64,.56-.88,.5-.7,.85-.94,.8-.16-1.47-.4-1.52-.77,1.2-1,1.15-.28-1.02-.51-1.06-.34-.78-.57-.83c-.24-.05-.8,1.45-1.03,1.4-.25-.05-.32-.91-.55-.95-.25-.05-.35-.81-.57-.85-.26-.05-.78,1.46-1,1.42-.27-.05-.48-.2-.68-.23-.19-.03-.44-.97-.6-.87-.18,.11-.66,.44-.69,.62Z"/>
  <path class="cls-1" d="M42.92,12.87c-.29,.06-.51,.4-.76,.46-.27,.07-.39,.65-.65,.73s-.77-.63-1.04-.54c-.19,.06-.32,.97-.52,.94s.02-1.02-.12-1.14c-.18-.15-1.02,.55-1.19,.42-.18-.14-.3-.31-.47-.43s.03-.79-.16-.92c-.17-.12-.54,.04-.73-.08-.21-.13-.36,.52-.62,.54-.28,.02-.12-.25-.26-.08-.14,.17-.28,.34-.41,.52s-.42,.24-.55,.41c-.14,.19-.99-.17-1.11,0-.13,.17-.13-.19-.38-.14-.24,.04-.3,.63-.51,.54-.24-.11-.3-.62-.53-.72s-.51-.14-.75-.23c-.23-.08-.8,.84-1.06,.76-.23-.07-.39-.67-.63-.59-.27,.09,.3,.65,.23,.86-.07,.2-.32,.31-.38,.51s-1.4,0-1.45,.19c-.06,.21,.05,.48,0,.65-.06,.2,.51,1.1,.27,1.2-.22,.09-.57-1.22-.8-1.26-.27-.05-.74,1.13-.99,1.09s-.5,.04-.76,.01c-.25-.03-.4-1.29-.67-1.31-.24-.02-.78,.33-.98,.45-.24,.14,.03,.77,.01,.98-.02,.21,.49,.45,.47,.66s-.55,.38-.56,.58c-.01,.22,.56,.47,.54,.66-.01,.2-.73,.65-.93,.8-.18,.13-.6,.46-.82,.47-.25,.01-.57-1.15-.81-1.13s-.41,.83-.66,.87c-.23,.03-.51-.18-.76-.14-.23,.04-.07,.64-.23,.79-.2,.18-.44-.03-.4,.16,.06,.31-.8,.8-.73,1.07s.51,.47,.6,.77c.08,.27,.4,.93,.04,1.13-.21,.12-.43,.16-.63,.27s-.98-.69-1.18-.56-.33,.36-.53,.49c-.19,.14-.04,.79-.1,.96-.08,.23,.03,.45,.22,.55,.18,.09,.74-.33,.97-.19,.18,.12-.2,1.11,0,1.26,.18,.13,.93-.48,1.13-.33,.18,.14,.35,.33,.54,.49,.18,.14-.22,1.04-.03,1.19,.18,.15,.47,.16,.66,.32s.52,.11,.71,.27,.71-.12,.9,.03-.33,1.13-.14,1.29,.73-.14,.91,.02,.79-.21,.97-.05-.16,.94,.02,1.1,.36,.32,.54,.47,.15,.57,.33,.73,.91-.36,1.1-.2-.13,.93,.06,1.08,.88-.33,1.07-.18,.28,.41,.47,.56,.57,.05,.76,.19,.18,.55,.37,.7,.5,.14,.69,.28,.16,.6,.35,.74,.61-.02,.8,.11,.02,.83,.21,.96,.33,.39,.53,.52,.24,.55,.44,.68,.76-.3,.97-.18c.21,.12,.76-.38,.97-.27,.22,.12,.12,.82,.33,.92,.23,.11,.46,.2,.67,.28,.23,.09,.39,.42,.61,.49,.24,.07,.46,.52,.68,.55,.25,.04,.57-1.17,.79-1.18,.25-.02,.2-.24,.41-.34,.22-.1,.93,.74,1.13,.61s.61-.06,.8-.21,.06-.71,.24-.88,.6-.12,.76-.31,.25-.45,.4-.65-.58-.97-.45-1.18,.59-.17,.71-.39-.11-.57,0-.79,.14-.43,.24-.66,1.3,.02,1.39-.21-.4-.67-.33-.9-.05-.51,.02-.75,.85-.25,.92-.49-.19-.55-.13-.79,.74-.34,.79-.57-.85-.67-.81-.91,0-.48,.04-.72,.69-.38,.72-.62-.44-.55-.41-.79,.31-.45,.34-.69-.16-.5-.13-.74-.02-.48,0-.73,.99-.43,1-.67-1.46-.56-1.45-.8,1.12-.45,1.13-.69-.79-.5-.78-.74-.18-.48-.18-.72,.05-.48,.05-.72,.41-.5,.4-.74-.53-.46-.55-.7,1.31-.57,1.29-.81-.25-.48-.27-.72-1.16-.37-1.19-.61,.35-.53,.32-.76,.58-.57,.54-.81,.29-.55,.25-.78c-.04-.21-1.05-.19-1.33-.3-.23-.09-.56-.64-.81-.59Z"/>
  <path class="cls-2" d="M67.68,31.64c-.24-.13,.25-1.58,.03-1.7s-.87,.6-1.1,.49-.51-.05-.76-.16c-.35-.16,.21-.57,.37-.85,.13-.24-.94-1.09-.83-1.3,.12-.23-.04-.55,.07-.78s.87-.13,.98-.38c.09-.21-.02-.04-.18-.2-.14-.13-.05-.77-.29-.78-.27,0-.57,1.2-.84,1.19s-.51-1.8-.77-1.8c-.29,0-.58,.7-.82,.7s-.62,.22-.76,.09c-.16-.15,.6-.34,.67-.54s-1.46-.91-1.4-1.11,.3-.32,.35-.53c.05-.2,.71-.24,.76-.45s.41-.85,.21-.99c-.17-.12-.61,1.13-.85,1.16-.27,.03-.68-1.13-.94-1.1s-.5,.4-.76,.44c-.29,.04-.58-.08-.82-.04s.04-.61-.13-.72c-.2-.13-.33,.5-.3,.27s-1.08-.57-1.06-.78,1.69-.28,1.71-.49c.01-.2-.41-.46-.4-.69s-1.11,.36-1.33,.24c-.18-.1,.16-.3-.08-.25-.27,.06-.84-1.18-1.11-1.12s-.51,.31-.77,.37c-.29,.07-.4,.87-.64,.93-.23,.05-.83,.41-1.02,.32-.21-.1-.78-.89-.79-1.11s1.4-.51,1.38-.7-.51-.36-.53-.56c-.02-.19,.64-.5,.61-.71-.04-.22-.98-.61-1.21-.7-.2-.08-.73-.15-.96-.07-.27,.09-.54,.17-.78,.26-.26,.1-.18,1.04-.43,1.14s-.79-.54-1.05-.44c-.18,.07-.18,.1-.36,.07-.19-.04-.66,.37-.78,.22-.19-.24-.32-.49-.52-.71s-.12-.66-.34-.89c-.16-.17-.5-1-.74-.99s-.65,.77-.8,.95c-.13,.16-.63,.07-.8,.28-.14,.17-.48,.21-.64,.42-.14,.18,.76,1.18,.61,1.38-.14,.18-.16,.46-.31,.65-.14,.18-.33,.33-.47,.53-.14,.19-1.33-.4-1.48-.21s.59,1.01,.45,1.21,.11,.65-.03,.85-.74,.04-.88,.24-.92-.07-1.06,.13,1.03,1.29,.89,1.49-1.69-.59-1.83-.39,.58,.96,.44,1.16-1.13-.18-1.26,.01-.23,.42-.36,.62,1.22,1.35,1.09,1.55-.96-.05-1.09,.15,.14,.65,.02,.85-.34,.34-.46,.55-.58,.2-.71,.41-.77,.1-.89,.31-.55,.24-.67,.45,1.27,1.26,1.15,1.47-1.2-.11-1.31,.1-.56,.25-.67,.46,.26,.68,.16,.89-.5,.29-.6,.51-.55,.28-.64,.5-.27,.42-.37,.64-.16,.47-.25,.69,.06,.56-.02,.78-.59,.32-.66,.54,1.21,.91,1.14,1.13,.16,.52,.1,.74c-.06,.24-.07,.44-.11,.66-.05,.24-.87,.31-.9,.54-.03,.24-.87,.44-.88,.67-.01,.25,.71,.53,.73,.75,.02,.25-.66,.66-.61,.88,.06,.24,.76,.35,.86,.56s-.04,.69,.11,.87,1.07-.47,1.27-.33,.3,.16,.53,.26c.21,.09,.34,.15,.58,.21,.22,.05,.34,.52,.59,.55,.23,.03,.45,.22,.7,.23,.23,0,.49,.37,.74,.36,.23-.01,.38-1.2,.62-1.23,.23-.02,.55,.74,.79,.7s.35-.71,.59-.75,.43-.17,.67-.22,.7,.95,.93,.9,.39-.41,.63-.48,.4-.32,.64-.39,.34-.5,.57-.57,.32-.52,.55-.6,.52,.1,.75,.02,.6,.28,.82,.2,.34-.46,.56-.54,.53,.09,.76,0,.54,.1,.77,0,.55,.09,.77,0,.23-.71,.45-.8,.19-.77,.42-.86,.83,.75,1.05,.65,.78,.6,1,.5-.32-1.92-.1-2.02,.7,.4,.92,.3,.38-.33,.6-.43,.27-.55,.49-.65,.42-.24,.63-.34,.74,.43,.95,.33,.68,.3,.9,.19,.34-.4,.56-.51,.74,.4,.95,.29-.2-1.48,.01-1.58,.37-.33,.58-.44,1.05,1,1.26,.89-.18-1.4,.03-1.51,.5-.08,.71-.19,.45-.18,.66-.3,1.07,.96,1.28,.85-.46-1.87-.25-1.98,1.05,.92,1.26,.8c.22-.12,.67,.2,.87,.09,.22-.12,.17-.7,.38-.81,.22-.12,.18-.67,.38-.78,.22-.12,.55-.02,.75-.14,.22-.13,.26-.54,.45-.65,.23-.13,.31-.45,.49-.56,.22-.13,.27,.08,.26-.11s-.24,.33-.46,.21Z"/>
  <path class="cls-4" d="M68.48,52.03c.08-.23,.38-.35,.45-.55,.08-.22-.71-.76-.63-.97s.46-.29,.55-.51c.06-.16,.64,.36,.82,.28,.16-.07,.08-.28,.27-.27,.25,.02,.53-.42,.77-.4,.25,.02,.44,.77,.68,.79s.56-1.21,.81-1.2c.23,.01,.4,1.43,.66,1.45,.23,.01,.56-.66,.73-.73,.24-.11-.25-.3-.31-.49-.08-.24,.78-.79,.7-1.04-.08-.27-.19-.51-.26-.74-.05-.19-.33-.3-.13-.41,.15-.08,.34,.41,.56,.42,.28,.02,.6-1.01,.86-1s.5-.05,.78-.06c.26,0,.51,.28,.8,.26,.24-.02,.5,.21,.62,.08,.15-.16-.22-.16-.35-.36-.13-.19,.03-.58-.1-.78s-.91,.02-1.03-.17c-.14-.21,1.11-1.3,.99-1.49-.13-.2-.35,.16-.28-.03s-.18-.37,.06-.42c.25-.05,.31-.8,.54-.86s.37-.3,.6-.38c.22-.07,.67,.51,.91,.42,.22-.09,.69-.15,.73-.34s.16-1.01-.01-1.17c-.18-.17-1.03,.35-1.21,.17s.38-1.1,.21-1.27c-.19-.2-.45-.28-.6-.45-.15-.16-.6,.12-.58-.05,.01-.19-.03-.45,.17-.52,.2-.07,.75,.69,.93,.61s-.2-1.37-.01-1.46c.17-.09,.8,.63,.98,.53,.19-.11-.37-.67-.37-.86,0-.18-.13,.26-.31,.13-.21-.16,.26-1.19,.08-1.34s-1.19,.65-1.38,.49-.07-.68-.27-.85c-.28-.24,.22-.79,.4-1.04,.16-.22-.07-.7,.07-.92,.14-.21-.27-.77-.12-1.01,.12-.19,.73,.05,.63-.15s-.36,.02-.56-.06c-.21-.09-.11-1-.34-1.09-.22-.08-.71,.57-.94,.5s-.27-.67-.5-.75-.59,.32-.82,.25-.61,.48-.85,.41-.25-.88-.48-.94-.47-.07-.7-.12-.52,.17-.76,.12-.17-1.45-.41-1.5-.49,0-.73-.05-.71,1.19-.95,1.15-.24-1.39-.48-1.43-.65,1.02-.88,.99-.32-1.07-.56-1.1-.54,.37-.77,.34-.45-.24-.69-.27-.55,.57-.78,.54-.43-.48-.67-.5-.5,.25-.74,.24-.46-.32-.7-.34-.53,.94-.77,.92-.48,.14-.71,.13-.45-.61-.69-.62-.48,.48-.72,.48-.48-1.61-.72-1.61-.49,.36-.72,.37-.44,1.07-.68,1.08-.48-.07-.71-.06-.46,.15-.7,.17-.5-.25-.73-.22-.53-.4-.76-.37-.4,.58-.63,.62-.37,.54-.6,.58-.67-.89-.9-.84-.45,.23-.67,.29-.69-.54-.91-.47,.04,1.55-.18,1.64-.93-.95-1.14-.85c-.22,.1-.26,.61-.46,.73-.21,.12-.35,.36-.54,.49s-.27,.41-.45,.56-.32,.32-.47,.5-.6,.16-.72,.36,.49,.71,.41,.93c-.08,.22-1.23,.19-1.26,.42s-.34,.6-.32,.84,.55,.49,.6,.73c.05,.22,.31,.43,.4,.66,.08,.21,.91,.09,1.02,.31,.1,.21-.43,.74-.3,.94,.12,.2-.41,.85-.28,1.05s.87-.02,1.02,.18,.2,.45,.35,.64,.47,.23,.63,.41,.15,.51,.31,.69,.3,.38,.47,.55,.62,.04,.79,.21,.59,.04,.77,.2,.53,.09,.71,.25,.04,.66,.23,.81,.74-.17,.92-.02,.29,.38,.47,.52,.33,.33,.52,.47,.08,.66,.27,.81,.26,.45,.45,.59,.25,.46,.45,.6,.31,.4,.5,.53,.26,.48,.45,.61,.92-.51,1.12-.37,.4,.25,.6,.38,.17,.62,.37,.75,.11,.73,.31,.85,.71-.22,.91-.1,.15,.68,.35,.8,.59-.05,.79,.07,.21,.59,.42,.71,.45,.2,.66,.31,.7-.26,.91-.14,.27,.51,.47,.63,.14,.76,.35,.87,.44,.2,.65,.31,1.21-1.33,1.42-1.23c.22,.11,.3,.45,.51,.55,.22,.11,.54,1.27,.76,1.17s.27-.9,.35-1.12Z"/>
  <path class="cls-1" d="M57.26,50.58c.12-.28,.33-.49,.42-.75s-.68-.79-.6-1.08c.08-.27,1.23,.07,1.57,.09,.28,.02,.53,.51,.79,.52,.27,0,.56-.95,.82-.94,.25,0,.51-.47,.79-.47,.21,0,0,.15,.13,.04,.15-.13,.34,.22,.29,.04-.08-.26,.91-.87,.83-1.13-.09-.28-.78-.36-.85-.59-.06-.18-.04-.13,.11-.26,.12-.11,.17,.1,.37,.09,.24-.01,.49,.17,.71,.16s.45-.13,.68-.15c.22-.02,.47,.11,.71,.08,.21-.03,.55-.63,.66-.76,.13-.15,.44-.88,.34-1.05-.14-.24-1.02-.06-1.17-.3-.16-.26-.46-.41-.6-.61-.11-.17-.25-.96-.14-1.11,.1-.13,.75,.04,.95,0,.24-.04,.54,.3,.76,.26s.35-.55,.58-.6c.22-.05,.37-.38,.6-.44,.2-.05,.49,.3,.57,.17,.1-.16,.43-.64,.3-.8s-1.12,.38-1.25,.23,.68-1.08,.56-1.23c-.14-.17-.33-.27-.44-.41-.23-.28-.46-.57-.05-.69,.21-.07,.63,.52,.83,.46s-.04-1.42,.16-1.49c.19-.07,.65,.59,.86,.51,.41-.16,.47-.38,.18-.64-.16-.15-.76,.23-.91,.1-.16-.14,.3-.98,.14-1.11s.04-.71-.14-.85c-.24-.19-.85-.2-.61-.42,.21-.19,.36-.38,.54-.57s.18-.52,.38-.72c.15-.16,1.36-.31,1.29-.47-.06-.15-.99,.02-1.2-.02s-.39-.4-.65-.45c-.22-.04-.47-.05-.72-.1-.23-.04-.54,.34-.79,.3-.23-.04-.56,.5-.81,.46-.23-.04-.49,.06-.74,.02-.23-.04-.41-.45-.65-.49s-.37-.73-.62-.77-.61,.88-.86,.84-.49,.06-.73,.03-.42-.42-.67-.46-.35-.98-.6-1.02-.43-.44-.67-.47-.48-.07-.72-.1-.51,.23-.75,.2-.48-.05-.72-.08-.46-.29-.7-.32-.57,.84-.81,.82-.41-.79-.65-.81-.57,.96-.82,.94-.38-1.33-.62-1.35-.61,1.55-.85,1.54-.45-.49-.69-.51-.44-.8-.68-.82-.5,.14-.74,.12-.48-.34-.72-.35-.49-.18-.73-.18-.5,.25-.74,.24-.5,.59-.74,.59-.49-.87-.73-.87-.46,1.73-.7,1.74-.48-.15-.72-.14-.54-1.18-.78-1.17-.52-.2-.76-.18-.42,.9-.65,.93-.55-.4-.78-.36c-.25,.03-.59-.41-.82-.37-.25,.04-.54,.03-.77,.09-.25,.06-.54,.14-.76,.21-.24,.07-.19,1.07-.4,1.16-.24,.1-.04,.92-.24,1.03-.22,.13-.88-.54-1.06-.39-.19,.17-.23,.43-.36,.63-.13,.21-.13,.41-.18,.65s-.71,.5-.68,.75c.03,.23,.29,.5,.37,.74,.08,.21,.07,.54,.18,.76,.11,.2,.52,.27,.65,.48,.13,.19,.79,0,.94,.21,.14,.19-.72,1.19-.56,1.38,.15,.18,.5,.23,.67,.41s.08,.61,.25,.79,1.16-.47,1.33-.3,.62,.03,.8,.19-.32,1.06-.14,1.23,1.1-.54,1.29-.39-.54,1.39-.36,1.54,1.18-.7,1.37-.55-.27,1.11-.08,1.26,.98-.49,1.18-.34-.06,.88,.13,1.02,.16,.6,.36,.74,.25,.49,.44,.63,1.24-.91,1.44-.77,.46,.18,.65,.32-.08,.96,.12,1.1,.14,.67,.34,.8,.74-.24,.94-.1,.48,.16,.68,.29,.25,.51,.45,.64,.46,.19,.66,.31,0,.91,.21,1.03,.97-.64,1.17-.51,.67-.16,.87-.04-.01,.95,.19,1.07c.21,.13,.81-.41,1.01-.29,.21,.13,.35,.36,.55,.48,.22,.13,.25,.54,.45,.66,.22,.13,.67-.17,.86-.06,.23,.13,.5,.13,.68,.23s-.24,.25-.04,.2c.2-.06,.48,.44,.55,.26Z"/>
  <path class="cls-2" d="M38.2,58.35c.24-.05,.58,.45,.8,.4,.23-.05,.22-1.29,.45-1.33s.47,.05,.71,0c.34-.07,1.33,.05,1.49,.31,.14,.22-.6,.99-.46,1.19s0,.63,.15,.84c.14,.19,1.34-.4,1.51-.19,.13,.17-.05,.05,.15,.07s.11,.26,.26,.11c.15-.14,.15-.46,.3-.6s.36-.25,.5-.38c.17-.15,.88,.35,1.02,.23,.15-.13,.17-.47,.38-.46s.14,.44,.28,.57c.15,.14,.69-.15,.84-.02s.28,.29,.44,.42,.11,.5,.27,.64c.15,.12,.55,.64,.73,.62s.79-.41,.9-.57c.16-.24-.81-1.2-.67-1.43,.16-.26,1.56,.28,1.69,.08,.19-.3,.31-1.03,.48-.79,.14,.18,.48,.23,.59,.4s-.04,.53,.07,.72c.14,.22-.54,.05-.4-.29,.11-.27,.16-.57,.27-.83,.12-.29,.36-.52,.46-.75,.13-.33,1.4-.6,1.52-.42,.2,.27-.54,1.39-.24,1.64,.19,.15,1.11-.6,1.21-.97,.06-.21,.25-.38,.3-.57,.05-.2-.74-.61-.69-.81s.02-.4,.07-.61c.07-.3,.91-.88,1.15-.9,.23-.02,.48,.26,.74,.23,.21-.02,.4-.49,.68-.52,.21-.02,.99,.93,1.11,.78,.14-.17-.5-.76-.56-.93-.08-.22,.37-.64,.28-.86s-.14-.46-.24-.69-.05-.51-.15-.73-1.25,.07-1.36-.15,.28-.66,.17-.87-.64-.19-.75-.4-.34-.34-.45-.55,.86-1.03,.74-1.24-.12-.49-.25-.69-.26-.4-.39-.61-.26-.41-.39-.61-.51-.24-.65-.44-.32-.36-.45-.56-.37-.33-.51-.52-.66-.11-.8-.3-.22-.42-.36-.61,.32-.85,.18-1.04-.55-.18-.7-.36-.11-.53-.27-.71-.53-.19-.68-.37,.02-.66-.14-.84-.42-.28-.58-.46-1.12,.39-1.28,.22-.02-.64-.19-.8,.15-.83-.02-1-.78,.12-.96-.04-.53-.11-.71-.27,.25-1.03,.07-1.18-.75,.16-.94,.01-.19-.55-.38-.69-.88,.42-1.07,.28,.15-1.1-.05-1.23-.62,.08-.82-.03-.4-.29-.61-.39-.21-.77-.43-.86-.83,.8-1.05,.73-.53,.28-.76,.23-.32-.67-.55-.7-.46-.41-.69-.41c-.26,0-.56,.14-.77,.25s-.42,.32-.58,.51c-.15,.17,.32,.71,.21,.94-.1,.2-.77,.14-.85,.39-.07,.22,.39,.58,.33,.82-.05,.23-.21,.41-.24,.66-.04,.23-.96,.35-.99,.6-.03,.23,1.05,.58,1.04,.82s-1.12,.41-1.13,.66,.26,.5,.25,.74-.04,.48-.04,.73-.03,.48-.02,.73,.95,.46,.96,.7-.47,.5-.46,.74-.84,.53-.83,.77,.9,.43,.91,.67,.16,.47,.17,.72,.16,.47,.17,.72-.18,.5-.16,.74,.28,.46,.31,.71-.29,.52-.27,.76-.56,.55-.54,.79-.17,.51-.15,.75,.04,.49,.07,.73,1.45,.34,1.47,.58-.21,.52-.19,.75-.19,.51-.16,.75-.76,.57-.73,.8c.02,.25,1.32,.37,1.34,.6,.02,.25-.13,.51-.11,.74,.02,.25-.38,.53-.36,.76,.02,.26-.67,.53-.67,.75,.01,.27,.14,.47,.13,.68,0,.21,.75,.32,.95,.43,.17,.1,.38,.43,.6,.38Z"/>
  <path class="cls-1" d="M14.33,52.46c.29,.09,.83-.83,1.1-.76s.29,1.4,.6,1.45c.29,.05-.06-.62-.16-.34-.08,.23,.09,.54,.02,.75-.07,.22,.26,.56,.2,.78s.52,.59,.46,.83c-.1,.37-.5,.19-.07,.07,.22-.06,.73,.89,.96,.83s.08-1.5,.29-1.56c.24-.07,.57,.22,.77,.16,.43-.12,.58,.35,.55,.71-.03,.29-.52,.57-.53,.84s.81,.56,.82,.86c0,.21,.02,.82,.24,.88,.18,.05,.72,.05,.92-.04,.23-.1,.29-.63,.51-.73s.45-.25,.66-.35c.25-.11,.24-.71,.44-.81,.2-.09,.47,1.11,.66,1.16,.22,.05,.37-.47,.43-.28,.09,.3,.83,.32,.94,.59s-.02,.6,.13,.88c.1,.18,.1,.53,.35,.57,.23,.04,.33-.41,.52-.52,.2-.11,.19-.57,.39-.68,.21-.12,.92,.62,1.1,.51,.22-.13-.05-.99,.12-1.1,.17-.1,.56,.97,.77,1.02s.25-.2,.37-.04c.14,.18,.54,.14,.68,.3s.7-.08,.85,.08c.14,.15-.09,.66,.08,.82,.15,.14,.19,.8,.39,.85,.24,.06,.32-.74,.43-.87,.18-.2,.44-.28,.59-.47s.04-.58,.2-.79c.16-.2,.96,.2,1.3,.39,.19,.11,.2,.55,.39,.65s.32,.35,.51,.44c.18,.09,.85-.78,1.05-.69,.2,.09,.15,.34,.3,.32,.21-.03,.04,.09,.02-.11-.02-.23,.14-.5,.13-.74s.53-.47,.54-.71,.01-.45,.03-.69,.28-.43,.31-.67-.53-.53-.49-.77-.27-.53-.23-.76,1.07-.27,1.12-.5-1.2-.75-1.15-.98,1.37-.15,1.43-.39,.14-.44,.2-.67-1.12-.8-1.05-1.03,.79-.27,.85-.49,.21-.43,.28-.66,.21-.43,.29-.65-.27-.59-.19-.82,.47-.34,.55-.57,.69-.26,.77-.49-.63-.73-.55-.95-.22-.59-.14-.81,.83-.21,.91-.43,.38-.37,.47-.59,.16-.45,.24-.67-.5-.69-.42-.91,1.19-.09,1.27-.31-1.22-.93-1.15-1.15,.17-.44,.24-.66,1.24-.1,1.31-.33c.07-.23-.21-.57-.15-.8,.07-.24,.63-.34,.69-.56,.06-.24-.05-.54,0-.76,.05-.25-.32-.57-.29-.79,.03-.26-.5-.49-.5-.7,0-.27,.65-.56,.58-.76-.08-.25-.57-.1-.76-.23-.19-.13-.3-.13-.55-.19-.22-.06-.35-.6-.61-.61-.22,0-.42,.46-.67,.49-.22,.03-.66-.98-.9-.93-.22,.05-.1,1.48-.34,1.55-.22,.07-.48-.05-.71,.04-.22,.08-.67-.46-.9-.36-.22,.09-.3,.5-.52,.6s-.51,.02-.73,.13-.56-.07-.78,.04-.3,.45-.52,.56-.3,.44-.51,.56-.39,.26-.6,.38-.36,.31-.57,.43-.7-.25-.91-.13-.45,.18-.66,.3-.51,.08-.72,.21-.11,.7-.31,.83-.16,.62-.36,.75-1.04-.69-1.24-.55-.36,.33-.55,.47,.21,1.12,.01,1.26-.78-.27-.97-.13-.55,.06-.75,.2,.28,1.18,.09,1.33-.45,.19-.64,.33-.96-.47-1.15-.33,.23,1.09,.04,1.24-.52,.11-.71,.25-.18,.54-.37,.69-.78-.2-.96-.05-.23,.48-.41,.63-.11,.61-.3,.77-.31,.38-.49,.53-.34,.34-.52,.49-1.18-.63-1.36-.48-.35,.34-.53,.5,.1,.85-.07,1.01-.56,.1-.73,.26,.27,1,.09,1.16-.88-.24-1.05-.08,0,.69-.17,.85-.67-.01-.84,.15c-.3,.3-.4,1.12-.04,1.24Z"/>
  <path class="cls-3" d="M6.38,38.1c.05,.3,1.04,.36,1.1,.62,.06,.27-.82,.76-.74,1.03,.07,.25,.53,.92,.26,1.19-.16,.16-.96-.32-1.11-.17-.16,.16-.31,.31-.47,.46s.13,.76-.03,.91-.18,.45-.35,.6c-.15,.14-.35,.05-.4,.21-.07,.21-.63,.95-.48,1.04,.19,.13,.46,.21,.65,.32,.21,.12,.71-.29,.88-.2,.25,.12,.83,1.09,.52,1.42-.16,.17-1.19-.49-1.34-.33-.15,.17,0,.61-.15,.78s-.36,.26-.52,.44c-.29,.32-.1,.29,.24,.38,.26,.07,.25,1.36,.52,1.42,.29,.06,.59,.23,.84,.27,.2,.03,1.02-.88,1.07-.71,.05,.16-.7,.41-.81,.58-.12,.19-.75,.05-.85,.23-.11,.18,.21,.64,.1,.82s.2,.59,.09,.79c-.1,.19-.8,.66-.7,.82,.1,.15,.74,.45,.96,.49,.25,.04,.49,.29,.75,.33s.56-.17,.81-.13c.28,.04,.71-1.28,.94-1.25,.23,.03,0,1.29,.13,1.44,.15,.17,1.3,.33,1.23,.54-.07,.21-1.12,.09-1.18,.28s.58,.6,.53,.8c-.05,.19-.93,.16-.99,.38-.06,.23,.3,.7,.49,.88,.16,.15,.52,.04,.78,.06,.24,.02,.41,1.01,.64,1.03s.54-.94,.77-.93,.44,.81,.68,.82,.49-1.13,.73-1.12c.23,0,.04,1.18,.23,1.29,.21,.13,1.58-.64,1.65-.44,.07,.22-.42,.61-.35,.82s-.31,.56-.24,.78,.63,.27,.69,.49c.07,.25-.02,.65,.27,.77s.68,.12,.92,0c.23-.11,.32-.47,.53-.58,.22-.13,.33-.41,.52-.53,.22-.14,.81,.29,1,.15,.21-.15,.26-.5,.44-.66,.19-.17,.88,.12,1.04-.05,.17-.19,.42-.41,.56-.61,.15-.2-.17-.77-.05-.98s.7-.26,.8-.48-1.07-.95-.99-1.18,.86-.22,.93-.46,.19-.45,.26-.69,.12-.47,.18-.71,.64-.32,.71-.56-.48-.63-.41-.87-.61-.72-.53-.96c.08-.22,.27-.44,.36-.67,.09-.22,.22-.45,.33-.68,.1-.22,1.22,.04,1.34-.18,.11-.21,.38-.31,.5-.53,.12-.21-.45-.8-.32-1.01s.25-.41,.39-.63c.13-.2-.01-.61,.13-.81,.14-.19,1.02,.2,1.18,0s.19-.42,.36-.6-.5-1.12-.33-1.29,1.16,.5,1.33,.33,.58-.05,.75-.21-.33-1.09-.15-1.24,.42-.24,.61-.39,.1-.64,.28-.79,.91,.38,1.1,.23-.36-1.25-.17-1.4,.42-.25,.61-.4,.84,.3,1.03,.16,.27-.44,.46-.58,0-.76,.19-.91,1.2,.74,1.38,.59c.19-.15,.4-.29,.58-.44,.19-.16-.54-1.33-.38-1.48,.18-.17,1.5,.8,1.65,.64,.17-.19,.01-.72,.14-.89,.15-.21,.73-.35,.81-.54,.09-.24-.2-.86-.26-1.07-.06-.21-1.08,.34-1.3,.17-.17-.12,.26-1.32,0-1.42-.2-.08-.8,1.14-1.06,1.08-.22-.05-.16-1.5-.41-1.54-.22-.03-.56,.62-.81,.59-.23-.02-.45-.17-.7-.19-.23-.01-.47,.05-.72,.04-.23,0-.47-.14-.71-.14s-.46,.82-.71,.82-.47-.15-.71-.15-.51-.95-.75-.94-.5-.35-.74-.34-.48,.02-.72,.04-.46,.27-.7,.29-.37,1.12-.61,1.14-.54-.64-.78-.61-.54-.53-.78-.5-.29,1.59-.52,1.62-.54-.46-.78-.43-.4,.58-.63,.61-.55-.47-.79-.44-.5-.09-.74-.05-.34,.87-.57,.91-.64-.82-.87-.78-.38,.58-.61,.62-.61-.56-.84-.52-.28,.99-.52,1.04-.69-.89-.92-.83-.4,.44-.63,.49-.58-.34-.81-.28-.53-.1-.76-.04-.14,1.31-.36,1.37-.71-.71-.94-.65-.62-.32-.84-.24-.21,.91-.43,.99c-.23,.08-.68-.4-.89-.32-.23,.09-.36,.46-.57,.55-.23,.1-.68-.28-.88-.18-.19,.08-.16,.96-.27,1.16s-.26,.59-.23,.78Z"/>
  <path class="cls-1" d="M15.41,28.5c0,.26-.12,.5-.09,.72s.1,.45,.15,.71c.04,.23-.62,.03-.94,.22-.2,.12,.23,1.27,.05,1.38s-.27,.34-.45,.47-.36,.2-.54,.34c-.17,.13-1.29-.91-1.47-.76-.17,.14-.43,.65-.5,.82-.1,.24,.37,1.06,.51,1.15,.18,.12,.87-.61,1.05-.51,.21,.12-.09,1.15,.07,1.24,.15,.07-.29-.44-.4-.21-.07,.14-.03,.11-.17,.26-.16,.16-.43,.23-.58,.39s.88,1.41,.73,1.58-.86-.19-1.01-.02c-.14,.16-.14,.44-.28,.62-.14,.17-.52,.18-.58,.33-.11,.28,.15,1.39,.34,1.37,.22-.02,.38-.87,.61-.88,.25-.01,.48,.18,.69,.19,.2,0,.93,.12,.88,.4-.03,.17-1.03,.09-1.15,.28-.12,.2-.59,.21-.7,.4-.11,.2,.97,1.05,.86,1.25s-.19,.38-.29,.59-.91,.06-1.01,.28c-.1,.23,.79,.39,.83,.57,.04,.25-.58,.28-.36,.29,.21,0,.41,1.16,.62,1.16s.43-.76,.63-.76c.22,0,.44-.74,.63-.74,.21,0,.72,.69,.8,.94,.06,.19-.45,.49-.51,.73-.07,.28,.73,.71,.68,.97s-.03,.51-.06,.78-1.4,.38-1.43,.66c-.02,.25,.6,.56,.72,.75,.14,.22,.36,.02,.58,0,.22-.03,.5,.4,.7,.36,.21-.04,.25-.73,.45-.78s.79,1.11,1,1.03c.3-.1,.4-.6,.51-.17,.06,.24-.12,.54-.06,.77s-.47,.68-.39,.91,1.17,.09,1.26,.32c.09,.23,.36-.23,.51-.16,.19,.09,.8,1.11,.92,.89,.11-.21-.1-.56,.02-.76s.28-.36,.4-.56-.53-.93-.39-1.12,.13-.53,.27-.71,.75-.01,.91-.19,.86,.16,1.03-.01-.35-.99-.18-1.15,.24-.45,.42-.61,.45-.22,.63-.38,.02-.74,.21-.89,.81,.25,1,.11,.32-.37,.52-.5,.99,.63,1.19,.5-.5-1.64-.3-1.77,.93,.6,1.13,.48,.27-.49,.47-.6,.15-.73,.36-.84,.33-.43,.54-.54,.68,.27,.9,.17,.92,.82,1.13,.72,.23-.62,.44-.72,.09-.97,.31-1.06,.82,.7,1.04,.61-.04-1.35,.18-1.43,.95,1.08,1.17,.99,.43-.19,.65-.27-.02-1.39,.2-1.47,.44-.2,.66-.29,.53,.04,.74-.04,.85,.9,1.06,.82,.21-.82,.42-.9c.23-.09,.64,.34,.86,.26,.23-.09,.44-.22,.65-.31,.23-.09,.23-.71,.44-.8,.23-.1,.5-.08,.7-.18,.23-.11,.68,.19,.86,.08,.24-.14,.39-.45,.54-.58,.22-.2,.83-.57,.84-.77,0-.21-.92-.33-1.1-.56-.13-.17,.03-.66-.18-.84-.17-.14-.88,.44-1.1,.29-.19-.13-.07-.73-.29-.86-.2-.11,.02-1.06-.21-1.18-.21-.11-1,.93-1.23,.83-.21-.1-.25-.6-.47-.7-.22-.09-.59,.18-.82,.09s-.43-.19-.67-.28-.29-.58-.52-.67-.63,.34-.86,.26-.39-.33-.62-.4-.38-.37-.62-.45-.52,.04-.75-.03-.36-.5-.59-.57-.59,.32-.83,.25-.53,.1-.76,.04-.48-.06-.71-.12-.4-.39-.64-.45-.29-.89-.53-.95-.76,1.2-1,1.14-.39-.49-.63-.54-.46-.17-.7-.22-.38-.63-.62-.67-.41-.52-.65-.56-.46-.26-.7-.3-.68,1.24-.92,1.2-.45-.29-.69-.32-.51,.25-.75,.22-.44-.55-.68-.57-.49-.08-.73-.1-.51,.53-.75,.52-.45-1.27-.69-1.27-.5,1.29-.73,1.29-.48-.43-.72-.42-.44,.56-.67,.58c-.19,.02-.65-.94-.8-.82-.18,.14,.13,.56,.13,.74Z"/>
  <path class="cls-4" d="M40.78,35.7c-.06,.23-1.55-.03-1.64,.18s.46,.66,.35,.86,.75,1.05,.62,1.24-1.52-.57-1.67-.4-.08,.48-.27,.62-.29,.29-.5,.4-.53-.37-.75-.3-.19,.82-.43,.85-.53,1.09-.77,1.07c-.23-.02-.27-1.33-.51-1.4s-.57,.2-.81,.14-.46-.2-.7-.27-.26-.79-.5-.87-1.05,1.44-1.28,1.35,.19-1.71-.03-1.81c-.23-.11-.82,.49-1.02,.36-.22-.14-1.11,.39-1.28,.22-.18-.18-.14-.84-.25-1.06s.49-.73,.47-.99c-.01-.23,.08-.41,.15-.68s.23-.37,.34-.54c.15-.23,.34,.19,.54,.12s.21-1,.47-.96c.21,.03,.75-.66,1-.57,.21,.08,.1,1.09,.33,1.19,.21,.09,.1,.91,.32,1.01s.77-.54,.99-.44,.14,.98,.36,1.06,.7-.48,.93-.42,.44,.98,.67,.99,.48-1.05,.71-1.09,.6,.51,.82,.45,.17-1.03,.38-1.1c.22-.08,.48,0,.68-.09,.23-.09,.51,0,.71-.07,.25-.09,.39-.81,.57-.83,.28-.04,.66,.68,.69,.95,.02,.15,.38,.52,.3,.81Z"/>
  <path class="cls-4" d="M39.63,35.88c-.24,.04-.61-1.31-.84-1.3s-.41,.64-.64,.63-.62,1.03-.85,.99-.14-1.5-.36-1.57-.47,.1-.68,0-.39-.15-.58-.29,.08-.61-.08-.78-.79,.13-.91-.08-1.14-.06-1.22-.29c-.07-.22,1-.77,.96-1.02s-.39-.43-.43-.69-.01-.5-.05-.75,.56-.56,.53-.81-1.61-.37-1.63-.62,1.5-.54,1.51-.78c0-.26-.72-.53-.69-.77,.04-.26-.74-.82-.66-1.04,.09-.24,.67-.48,.82-.67s.83,.1,1.05-.02c.2-.11,.41-.11,.68-.15s.44,.05,.64,.08c.27,.04,0,.37,.16,.52s.94-.18,1.01,.08c.06,.21,.85,.42,.87,.67,.02,.22-.88,.54-.87,.79,0,.23-.72,.47-.72,.71s.75,.47,.75,.72-.77,.53-.75,.77,.67,.44,.71,.67-.64,.78-.56,.99,1.08,.03,1.2,.22-.17,.73-.03,.9,.95-.22,1.1-.06c.16,.17,.22,.43,.38,.58,.18,.17,.22,.45,.37,.6,.19,.19,.85,.04,.95,.19,.16,.24-.29,.85-.53,1-.13,.08-.32,.53-.62,.58Z"/>
</svg>