<?xml version="1.0" encoding="UTF-8"?>
<svg xmlns="http://www.w3.org/2000/svg" viewBox="0 0 40 40">
  <defs>
    <style>
      .cls-1 {
        fill: #dbaab8;
      }

      .cls-2 {
        isolation: isolate;
      }

      .cls-3 {
        mix-blend-mode: multiply;
        opacity: .8;
      }

      .cls-4 {
        fill: #f4c89f;
      }

      .cls-5 {
        fill: #f7f3e3;
      }
    </style>
  </defs>
  <g class="cls-2">
    <g id="_圖層_6" data-name="圖層 6">
      <g>
        <polygon class="cls-4" points="38.45 20 38.47 20.71 38.59 21.43 38.63 22.15 38.32 22.83 38.31 23.55 37.99 24.21 38.79 25.17 37.92 25.68 37.93 26.44 36.73 26.75 37.74 27.96 37.28 28.56 37.06 29.28 36.02 29.52 35.39 29.97 35.54 30.93 35.42 31.76 34.06 31.6 34.03 32.51 33.89 33.37 32.54 33.04 32.19 33.68 32.22 34.82 31.52 35.12 30.97 35.6 30.58 36.35 29.26 35.58 28.95 36.46 28.38 36.93 27.56 36.87 27.15 37.73 26.3 37.55 25.77 38.23 25.16 38.76 24.14 37.69 23.51 38.11 22.89 38.73 22.21 39.11 21.47 39.12 20.73 38.97 20 38.04 19.29 38.46 18.51 39.4 17.84 38.67 17.04 39.14 16.42 38.44 15.84 37.77 15.01 38.15 14.41 37.64 13.86 37.09 13.13 37.03 12.61 36.47 11.79 36.57 10.76 36.98 10.36 36.21 9.48 36.24 8.97 35.67 9.07 34.34 8.41 34.05 7.28 34.27 6.96 33.54 6.38 33.1 6.4 32.11 6.07 31.48 5.13 31.33 4.39 30.98 4.65 29.94 3.4 29.87 3.19 29.14 2.87 28.48 2.72 27.74 3.05 26.83 2.56 26.26 1.63 25.81 1.36 25.12 1.52 24.33 1.43 23.6 1.36 22.88 1.13 22.18 1.17 21.45 1.76 20.7 1.15 20 1.13 19.28 .96 18.54 1.92 17.91 .77 17.03 1.95 16.5 2.1 15.81 1.93 15.03 1.54 14.15 2.41 13.68 3.04 13.16 2.31 12.06 3.22 11.69 3.91 11.25 4.26 10.64 3.73 9.46 4.59 9.16 5.01 8.57 5.88 8.35 6.15 7.65 7.04 7.52 6.63 6.11 7.51 5.98 8.14 5.61 8.75 5.24 9.51 5.09 9.97 4.51 10.77 4.46 11.37 4.13 11.46 2.75 12.13 2.43 12.84 2.24 13.67 2.39 14.16 1.54 15.13 2.27 15.83 2.16 16.37 1.27 17.03 .79 17.83 1.21 18.62 2.02 19.31 2 20 1.28 20.72 1.12 21.43 1.41 22.11 1.74 22.82 1.74 23.7 .94 24.23 1.93 24.98 1.91 25.48 2.69 26.49 1.94 26.93 2.82 27.46 3.37 28.24 3.36 28.62 4.15 29.84 3.45 30.48 3.82 30.58 4.97 31.79 4.54 31.97 5.49 32.01 6.53 32.79 6.71 33.21 7.29 33.71 7.78 34.97 7.66 34.98 8.58 35.11 9.37 35.81 9.77 35.51 10.78 36.26 11.16 37.16 11.5 36.86 12.44 37.86 12.8 37.96 13.55 37.4 14.49 37.35 15.23 38.77 15.61 38.23 16.46 37.99 17.22 39.08 17.8 39.04 18.54 38.98 19.27 38.45 20"/>
        <polygon class="cls-5" points="20.02 14.55 18.9 13.76 19.54 12.69 18.37 12.75 18.46 11.69 17.27 11.71 16.98 10.89 16.52 10.07 17.24 9.27 17.47 8.49 17.41 7.69 17.78 6.75 16.69 6.66 16.3 6.9 15.61 6.93 15.1 7.47 14.61 8.05 13.79 8.41 12.92 8.34 12.21 8.07 11.47 8.58 10.75 8.89 10.14 8.81 9.67 9.12 8.83 8.77 9.37 9.33 9.51 9.89 9.23 11.01 10.15 11.1 10.69 11.62 10.82 12.36 11.25 13.03 10.86 13.73 11.42 14.64 11.55 15.35 10.88 16.2 11.31 17.08 12.3 16.99 13.09 16.66 13.66 16.04 13.66 14.93 14.37 14.33 15.41 14.63 16.14 14.86 16.97 14.08 17.52 14.83 18.22 14.1 19.04 15.12 20.02 14.55"/>
        <polygon class="cls-5" points="13.67 21.33 12.62 20.92 12.26 19.95 11.24 19.91 11.38 18.92 10.69 18.42 10.54 17.9 10.25 17.85 9.8 17.65 9.37 18.1 9.15 18.68 8.41 19.1 7.81 19.91 7.15 20.22 6.68 20.34 7.03 20.68 7.68 20.99 8.38 21.72 8.47 22.63 8.35 23.32 8.93 23.79 9.4 23.87 9.71 23.75 9.9 23.24 10.64 22.94 10.93 22 11.87 21.72 12.8 22.11 13.67 21.33"/>
        <g class="cls-3">
          <polygon class="cls-1" points="35.64 9.33 34.77 10.14 35.53 10.83 34.91 11.76 35.76 12.37 36.1 13.12 35.9 13.91 36.23 14.69 36.35 15.54 36.19 16.39 35.25 17.09 36.22 17.94 35.61 18.64 35.3 19.35 35.73 20.19 35.56 20.94 35.39 21.68 35.14 22.41 34.5 23.01 34.44 23.78 33.74 24.32 34.42 25.41 33.76 25.95 33.72 26.79 32.7 27.08 32.88 28.1 31.91 28.34 31.3 28.8 31.4 29.88 30.91 30.54 30.24 30.85 29.2 30.62 29.14 31.65 28.28 31.65 27.84 32.2 27.03 32.24 26.32 32.51 25.87 33.41 25.12 33.71 24.22 33.53 23.89 34.45 23.39 35.12 22.35 34.46 21.92 35.34 21.31 35.82 20.39 35.24 19.72 35.42 19.02 35.51 18.4 36.07 17.68 36.09 16.97 36.28 16.24 35.66 15.54 35.82 14.82 36.29 14.08 35.74 13.31 35.93 12.49 36.36 11.68 36.41 11.13 35.34 10.33 35.41 9.55 35.36 9.17 35.38 9.21 35.75 10.21 35.51 10.48 36.42 11.19 36.59 12.09 36.36 12.31 37.55 13.34 36.92 13.9 37.37 14.43 38 15.21 37.82 15.91 37.86 16.57 38.08 17.28 37.95 17.89 38.63 18.59 38.69 19.28 39.14 20 38.94 20.71 38.42 21.39 38.12 22.11 38.27 22.84 38.35 23.66 38.84 24.4 38.8 25.01 38.21 25.58 37.63 26.27 37.44 27.17 37.78 27.42 36.56 28.12 36.39 28.72 36.03 29.67 36.27 30.32 35.92 31.1 35.77 31.49 35.07 31.68 34.16 32.59 34.12 32.64 33.13 33.27 32.77 33.59 32.1 34.38 31.85 34.79 31.27 35.39 30.82 36.14 30.45 36.6 29.87 36.21 28.81 36.56 28.2 37.1 27.66 37.81 27.18 37.94 26.44 37.58 25.56 37.63 24.85 38.34 24.29 37.81 23.46 37.98 22.78 38.19 22.1 38.66 21.43 38.7 20.72 39.07 20 38.33 19.29 38.96 18.52 38.36 17.84 38.9 17.03 38.12 16.42 37.8 15.76 37.56 15.09 38.11 14.16 37.3 13.67 36.96 13.04 36.97 12.24 36.34 11.75 36.89 10.63 36.11 10.22 35.64 9.33"/>
        </g>
      </g>
    </g>
  </g>
</svg>