<?xml version="1.0" encoding="UTF-8"?>
<svg id="_圖層_6" data-name="圖層 6" xmlns="http://www.w3.org/2000/svg" viewBox="0 0 80 80">
  <defs>
    <style>
      .cls-1 {
        fill: #de462f;
      }

      .cls-2 {
        fill: #e97d6d;
      }

      .cls-3 {
        fill: #e77363;
      }

      .cls-4 {
        fill: #e15646;
      }
    </style>
  </defs>
  <path class="cls-1" d="M66.82,17.3c-.23-.04-.45,.06-.66,.03s-.29-.97-.51-1-.48,.39-.71,.36c-.32-.04-.41-.36-.39-.59,.03-.3,.05-.56,.06-.83s-.61-.52-.61-.81,.17-.05-.23,.04c-.21,.05-.43,.05-.63,.1s-.63-.75-.82-.7c-.22,.05-.19,1.11-.37,1.16-.39,.09-1.47-.62-1.5-.91-.02-.24,1.18-.62,1.15-.84s-.42-.4-.47-.64c-.06-.3-.97-.68-1.35-.53-.19,.07-.33,.3-.52,.37s-.12,.81-.3,.89c-.2,.08-.42,.08-.59,.15-.37,.15-1.55-.27-1.63-.56-.07-.24,1.07-.83,.99-1.05s-.21-.43-.31-.67c-.12-.28-.91,.4-1.26,.58-.19,.09-.64-.35-.83-.26s-.67-.38-.84-.29c-.2,.1,.01,.99-.15,1.07-.34,.17-.58-.32-.72-.59-.11-.21-.43-.29-.54-.48s.09-.58-.04-.78c-.17-.26-.95,.13-1.27,.33-.27,.17-.61,.17-.84,.33s-.68,.05-.93,.24c-.23,.17-.12-.01-.37-.15-.21-.12-.75,.36-.96,.25s-.06-.91-.28-1.02c-.16-.08-.6,.69-.78,.73-.19,.05-.66-.14-.72,.02-.08,.18-.57,.25-.68,.51-.08,.2-.05,.48-.15,.72-.08,.21,.73,.77,.64,1.01-.08,.21-.03,.48-.11,.72-.08,.22-.85,.2-.93,.44-.08,.22-.15,.45-.23,.69s.31,.6,.23,.84-.07,.47-.15,.71-.59,.31-.66,.55-.45,.37-.52,.6,.24,.57,.17,.8-.05,.48-.11,.72-.5,.37-.56,.6,.05,.51,0,.75,.05,.51,0,.74-.24,.44-.29,.68,.19,.53,.14,.77-.43,.41-.48,.65,.51,.57,.47,.81-.62,.4-.65,.64,.82,.58,.79,.81-1.27,.38-1.28,.61-.1,.5-.11,.74,.65,.51,.66,.74c0,.25,.59,.45,.61,.68,.02,.25,.04,.44,.07,.67,.03,.25-1.21,.72-1.15,.95,.06,.24,1.22,.16,1.3,.38,.08,.23-.85,.94-.73,1.14,.12,.22,.61,.29,.76,.47s.7-.06,.9,.07,.27,.44,.51,.52,.43,.37,.68,.4c.23,.03,.54,.42,.79,.41,.23-.01,.4-.85,.65-.9,.23-.04,.41-.25,.65-.31,.23-.06,.33-.41,.57-.49,.22-.08,.92,1.03,1.15,.93s.42-.29,.65-.4,.23-.63,.45-.74,.43-.22,.64-.35,.37-.32,.58-.45,.01-.87,.22-1,.59,.04,.79-.1,.44-.2,.64-.34,.8,.29,.99,.14,.32-.39,.51-.53,.34-.35,.54-.5,.03-.74,.22-.89,.3-.39,.49-.54,.19-.52,.37-.68,.42-.24,.61-.4,.92,.32,1.1,.16,.31-.39,.49-.55-.1-.85,.08-1.01,1.05,.43,1.23,.27,.32-.37,.5-.54-.11-.84,.06-1.01,.56-.12,.73-.29,.44-.25,.62-.42-.17-.88,0-1.04,.84,.15,1.01-.02-.18-.87,0-1.04,1.19,.49,1.36,.33-.28-.95-.11-1.12c.17-.18,.73,.02,.89-.15,.17-.18,0-.68,.16-.85,.18-.19,.93,.19,1.08,.02,.18-.19-.45-1.1-.3-1.26,.19-.2,.56-.18,.7-.33,.24-.27,.15-.01-.27-.09Z"/>
  <path class="cls-1" d="M78.69,35.39c-.14-.18-.06-.54-.2-.71s-1.27,.53-1.41,.36,.87-1.39,.71-1.56c-.23-.24-.86-.18-.6-.37,.22-.15,.63,0,.82-.14,.2-.15-.04-.84,.15-1s.32-.34,.52-.51c.16-.14,.72,.05,.66-.13-.05-.15-.06-.94-.26-1.02-.22-.09-.98,1.17-1.2,1.08s.06-1.49-.15-1.57c-.24-.09-.91,.97-1.11,.89-.42-.16-.76-1.49-.48-1.75,.23-.22,.24-.57,.44-.78s1.22,.36,1.43,.12c.14-.16,.41-.86,.3-1.02-.09-.14-.92,.84-1.14,.79-.23-.05-.17-1.4-.4-1.45s-.39-.51-.61-.56c-.25-.05-.67,.74-.88,.7s-.25-.18-.34-.31c-.11-.16,.29,.15,.41-.01,.19-.24-.27-.93-.11-1.15s.17-.53,.33-.79c.11-.17,.63-.51,.51-.66-.1-.12-.66,.46-.87,.43-.24-.03-.54,.36-.78,.33s-.38-.98-.61-1.01c-.26-.03-.48-.32-.7-.34-.44-.06-1.59-.48-1.43-.78,.12-.24,.2-.41,.3-.64s.62-.22,.72-.47c.07-.18,.61-.37,.46-.5-.12-.1-.47,.19-.67,.18-.25,0-.49,.62-.72,.62-.24,0-.48-1.18-.72-1.18s-.45,.91-.7,.92c-.35,.01-.7-.7-.75-.96-.04-.22,.35-.54,.3-.75s.27-.55,.2-.77c-.05-.18-.8-.83-1.01-.89-.18-.05-.29,1.41-.47,1.49s-.95-.98-1.2-.86c-.2,.09-.46,.12-.7,.24-.21,.1-.12,.83-.35,.94-.21,.1-.77-.49-1-.38-.21,.1,.11,1.29-.11,1.4-.21,.11-.54,0-.76,.11s-.64-.19-.86-.08-.16,.74-.37,.85-.64-.19-.86-.07-.82-.51-1.04-.39-.18,.67-.4,.78,.14,1.24-.07,1.36-1.05-.9-1.26-.78-.21,.6-.42,.72-.18,.65-.39,.77-.79-.4-1-.27,.08,1.08-.13,1.21-.77-.34-.97-.21-.86-.47-1.07-.34-.24,.54-.45,.67,.3,1.39,.1,1.52-.53,.07-.73,.2-.8-.32-1-.19,.23,1.2,.03,1.34-.78-.28-.98-.15-.82-.3-1.01-.16,.19,1.07,0,1.22-.53,.1-.72,.25-.76-.17-.95-.02,.39,1.21,.21,1.37-.6,.04-.77,.2c-.18,.17-1.03-.37-1.2-.2-.18,.18-.68,.08-.84,.25-.17,.18,.52,1.14,.38,1.32-.16,.2-.9-.03-1.03,.16-.14,.21,.98,1.14,.88,1.34-.12,.23-.48,.2-.54,.42-.07,.25-.04,.32-.03,.55,0,.24-.64,.53-.54,.75s-.4,1.03-.23,1.22c.15,.16,1.15-.49,1.36-.34,.19,.13,.55-.14,.78-.03,.21,.1,.43,0,.67,.09,.22,.08-.07,1.78,.17,1.84,.22,.06,.66-.53,.9-.47,.23,.05,.67-.98,.92-.94,.23,.04,.41,.3,.65,.34s.28,1.49,.52,1.52,.52-.22,.76-.2,.55-.78,.79-.76,.48-.18,.73-.17,.41,1.37,.65,1.38,.51-.68,.75-.67,.46,.73,.7,.73,.49-1.05,.73-1.04,.47,.4,.72,.39,.49,.62,.73,.62,.47-.76,.71-.76,.47-.35,.71-.36,.46-.52,.7-.53,.54,1.45,.78,1.44,.43-1.07,.67-1.08,.51,.57,.75,.56,.42-1.11,.66-1.12,.5,.37,.75,.35,.47-.12,.72-.14,.54,.76,.78,.74,.47-.22,.71-.24,.52,.45,.76,.43,.37-1.3,.61-1.32,.49,.08,.73,.06,.6,1.19,.84,1.16,.45-.37,.69-.39,.44-.46,.67-.48,.56,.64,.8,.62,.47-.17,.71-.2,.41-.66,.65-.68,.41-.63,.64-.66,.45-.31,.68-.34c.25-.03,.68,1.45,.91,1.42,.25-.03,.28-1.61,.5-1.64,.25-.03,.74,1.78,.97,1.75,.25-.04,.45-.37,.67-.4,.26-.04,.54,.15,.74,.11,.23-.04,.71-.74,.8-.89,.09-.16-.22-.74-.36-.91Z"/>
  <path class="cls-1" d="M55.99,71.44c.14-.23,.63-.25,.75-.46,.13-.22,.21-.49,.33-.72s-.97-1.07-.85-1.31c.08-.17,.55-.72,.72-.79s.47,1.52,.65,1.57c.22,.06,.66-.74,.87-.69,.22,.05,.27,.86,.48,.9s.45,.07,.67,.12c.21,.04,.63-1.01,.86-.97,.24,.04,.6,.57,.78,.43s.73-.63,.72-.87-.54-.45-.55-.69,.02-.49,0-.71c-.01-.26,.41-.52,.4-.73-.01-.23-.35-.25-.18-.39,.16-.13,.34-1.06,.57-1.03,.26,.03,.36,1.54,.61,1.57s.53-.12,.79-.1c.24,.01,.51-.02,.77,0,.25,0,1.09-.11,1.24-.26,.16-.17-.8-.86-.86-1.09s-.39-.36-.46-.58,.26-.56,.2-.77c-.07-.24-.41-.37-.47-.57-.07-.22,.43-.77,.58-.93,.14-.15,.48-.9,.72-.91,.27,0,.54,.8,.79,.79s.44-.88,.7-.9c.24-.02,.64,1.61,.9,1.58,.24-.02-.14-1.36-.02-1.52,.13-.18,1.07-.2,.98-.42s-.05-.5-.15-.72-.83-.15-.93-.35c-.11-.23,.21-.64,.12-.83s-.85-.6-.73-.77c.11-.16,.67-.53,.89-.57,.24-.04,.52,.27,.75,.22s.59,.53,.82,.48c.22-.05,.17-1.3,.42-1.35,.23-.05,1.01,.84,1.1,.67,.1-.19-.75-.33-.88-.52-.14-.2,.69-1.07,.56-1.25-.14-.19-1.43,.48-1.58,.3s.07-.62-.08-.81c-.21-.27,.33-.61,.63-.82,.17-.12-.02-.72,.13-.84s.02-.6,.18-.73,1.32,.99,1.48,.85c.18-.15-.56-.98-.59-1.17s-.13,.15-.35,.07c-.2-.08-.31-.44-.56-.53-.21-.08-.22-.72-.46-.81-.21-.08-.79,.81-1.03,.72-.22-.08,0-1.4-.23-1.48-.22-.08-.81,.87-1.04,.79-.22-.08-.27-.64-.51-.72s-.68,.53-.91,.45-.07-1.27-.3-1.35-.88,1.14-1.11,1.07-.06-1.34-.29-1.42-.63,.42-.86,.34-.32-.57-.55-.64-.74,.79-.97,.72-.18-1.04-.41-1.11-.69,.68-.92,.61-.31-.62-.54-.69-.32-.62-.55-.69-.6,.39-.84,.33-.59,.35-.82,.29-.43-.23-.66-.29-.36-.54-.59-.59-.55,.25-.79,.19-.4-.38-.63-.44-.39-.44-.63-.49-.63,.63-.86,.58-.16-1.63-.39-1.67-.8,1.58-1.03,1.54-.42-.36-.65-.41-.38-.62-.62-.65-.37-.83-.6-.86-.56,.5-.8,.47-.57,.76-.8,.73-.36-1.32-.6-1.34-.49-.27-.72-.28-.56,1.71-.8,1.7-.46-.77-.7-.77-.5-.38-.74-.37c-.25,.01-.39,1.05-.62,1.08-.25,.03-.43,.1-.66,.14-.24,.04-.55-.43-.77-.37-.24,.07-.43,.16-.64,.25-.23,.1-.71-.28-.9-.16-.21,.13,.33,1.08,.17,1.25-.17,.18-1.55-.52-1.66-.31s.42,.78,.35,1.02c-.06,.22-.44,.46-.45,.71-.01,.23-.28,.55-.26,.8,.02,.23,1.17,.33,1.21,.58,.04,.23-.35,.54-.28,.78,.06,.23-.54,.68-.47,.91,.07,.22,1.46-.02,1.55,.21s-.19,.57-.1,.8,.37,.34,.48,.56,.38,.33,.49,.55,.32,.35,.44,.56,.22,.41,.34,.62-.51,.84-.39,1.05,.67,.15,.79,.35-.69,1-.56,1.21,1.25-.24,1.38-.04-.14,.66,0,.86,0,.58,.14,.78,1.15-.22,1.29-.03-.91,1.25-.77,1.44,1.36-.4,1.5-.2-.67,1.1-.52,1.3,1.14-.26,1.28-.06,.57,.17,.72,.36-.38,.91-.23,1.1,.62,.13,.77,.32-.16,.76,0,.94,.41,.3,.56,.48,.55,.18,.7,.36-.27,.87-.12,1.05,.14,.52,.3,.7,.33,.36,.48,.54,.47,.24,.63,.41,.39,.31,.54,.48c.16,.18,.7,.03,.86,.2,.17,.18,.93-.19,1.09-.02,.17,.19,.09,.58,.25,.74,.17,.19,.43,.27,.59,.43,.18,.19-.4,1.07-.25,1.22,.17,.18,.76,.3,1,.26s.62-.36,.76-.57Z"/>
  <path class="cls-4" d="M22.24,68.66c.22,0,.46-1.36,.67-1.36,.22,0,.4,.8,.61,.82s.43-.13,.65-.11,.47-.49,.69-.46c.21,.02,.08,1.07,.24,1.22s.07,.17,.11,.38c.04,.22,1.03,.24,1.07,.44s-1.03,.68-.98,.89,1.63,.04,1.69,.25-1.03,.71-.97,.93c.06,.2,1.07,.14,1.13,.36,.08,.28-.72,1.06-.52,1.23,.25,.2,.59-.53,.83-.63,.22-.1,.83,.66,1.06,.56s.03-1.13,.24-1.23c.24-.11,.4-.35,.59-.44,.23-.1,1.2,.09,1.44,.25,.2,.14-.42,1.06-.33,1.32,.08,.23,.53,.32,.62,.53s.54,.29,.64,.5,.13,.44,.23,.66,.56,.24,.67,.46c.13,.27-.33,1.03-.09,1.09,.26,.07,.63-.26,.83-.47,.14-.15,.51-.11,.66-.27s-.26-.79-.12-.95,.08-.48,.21-.64c.14-.17,.09-.45,.2-.61,.16-.21,1.03-.19,1.24-.21,.24-.02-.25,.88-.13,1.1,.12,.22,.18,.43,.28,.64,.11,.21,1.6-.28,1.7-.07s.37,.36,.47,.59c.1,.22-.31,1.27-.13,1.22,.15-.04,.22-.74,.36-.94,.12-.18-.27-.72-.14-.89s1.11,.27,1.24,.1-.66-1.08-.52-1.24c.15-.18,1.23,.45,1.36,.3,.16-.18-.15-1.4,.04-1.42,.23-.03,.97,.59,1.07,.79,.14,.29-.97,1.14-.85,1.39s1.51-.12,1.65,.15c.11,.2-.14,.38,.14,.31,.21-.05,.45-.05,.65-.22,.2-.17-.16-.98,.02-1.13,.2-.16,1.46,.95,1.65,.79s.27-.45,.46-.61,.19-.54,.39-.7c.18-.15,.1-.96,.35-1.01,.26-.06,.7,.13,.92,.21,.24,.09,.65-.43,.88-.36s-.02,1.97,.23,2.03c.23,.06,.69-.71,.95-.66,.19,.04,.56,.41,.78,.36s.12-1.07,.3-1.17c.24-.12-.03-.08,.02-.24,.08-.22,.88-.2,.93-.45,.05-.22,.02-.48,.05-.72,.02-.23-.92-.5-.91-.74,0-.23,1.67-.47,1.66-.72,0-.23-.29-.48-.31-.73s-1.2-.35-1.23-.6,.95-.6,.91-.84-.96-.32-1.01-.56,1.16-.7,1.11-.94-.3-.44-.35-.67,.41-.6,.35-.83-1.92,0-1.98-.24,.24-.55,.17-.78,.26-.57,.19-.8-.99-.19-1.07-.42,.22-.56,.15-.79,.58-.7,.51-.93-.49-.34-.57-.56,.55-.71,.47-.94-1.17-.07-1.25-.3,.58-.74,.5-.96-1.36,.04-1.45-.19,.9-.89,.8-1.11-.27-.41-.37-.63,.15-.6,.05-.82,.24-.65,.14-.87-1.13-.01-1.23-.23,.16-.61,.06-.83-.51-.29-.62-.51-.57-.25-.68-.46-.07-.5-.18-.72,.29-.71,.17-.92-.93-.04-1.05-.25,.07-.59-.05-.8-.06-.53-.19-.73-.91,0-1.04-.21-.07-.52-.2-.72,.75-1.08,.62-1.28-1.5,.44-1.64,.25,.96-1.29,.82-1.48-1.33,.39-1.47,.2-.7-.03-.85-.21c-.16-.19,.76-1.29,.61-1.46-.17-.18-1.28,.55-1.44,.38-.18-.18,.24-.93,.07-1.08-.19-.17-.54-.1-.72-.24-.2-.15,.03-.97-.16-1.09-.22-.13-.89,.8-1.1,.73-.24-.08-.28,.18-.5,.18-.24,0-.3-.24-.54-.16-.22,.07-.85-.81-1.07-.68-.2,.11-.41,.34-.61,.5-.18,.14,.47,1.23,.28,1.4-.17,.16-.29,.29-.46,.48-.16,.17-1.49-.66-1.65-.46-.15,.18-.15,.52-.3,.72s.84,1.18,.7,1.39-.45,.25-.58,.46-1.62-.45-1.75-.24-.32,.39-.44,.61,.71,.97,.59,1.19-1.02,0-1.13,.21,1.32,1.25,1.21,1.47-1.02,0-1.13,.22-.78,.15-.89,.37-.42,.34-.52,.56,1,1.03,.9,1.25,.04,.55-.06,.77-1.36-.11-1.47,.11-.06,.51-.16,.73,.26,.65,.16,.87-.41,.35-.51,.57,.12,.59,.02,.81-1.39-.09-1.49,.14,.02,.54-.08,.77,.58,.79,.48,1.01,.16,.61,.07,.83-.7,.23-.8,.45,.34,.69,.24,.91-.29,.41-.39,.63-.05,.51-.15,.73-.92,.13-1.01,.35,.39,.71,.29,.93,.16,.61,.06,.83-1.45-.13-1.55,.09,.44,.75,.34,.97-.18,.46-.29,.67-.88,.11-.99,.32,.26,.69,.15,.89c-.12,.22,.37,.7,.26,.91-.09,.25-1.25,.73-1.08,.9,.16,.15,.93,.29,1.2,.29Z"/>
  <path class="cls-3" d="M3.16,52.73c.18,.14,.03,.67,.19,.79s-.19,1.06-.01,1.17c.17,.11,.89-.63,1.09-.51,.27,.17,.25,.64,.03,.95-.14,.19,.13,.65,0,.82-.13,.19-.71,.06-.83,.25s-.9-.04-1.02,.15c-.12,.18,.42,.79,.3,.99s-.21,.5-.14,.67c.08,.18,.37-.08,.62-.07s.46,1.07,.71,1.08,.5,.16,.73,.17c.27,0,.56-1.57,.78-1.56,.24,0,.21,.93,.29,1.1s.46,.38,.35,.59c-.12,.24,.14,.64,.03,.86s-.87,.13-.98,.37c-.1,.22,.12,.6,.01,.84s-.49,.47-.37,.62,.54,.56,.8,.53,.42-.79,.68-.83,.59,.31,.84,.27c.28-.04,.46-.56,.7-.6,.25-.04-.06,.92,.07,1.06s.23-.35,.14-.11c-.09,.25,.98,.88,.9,1.12s-.83,.27-.91,.52-.43,.4-.5,.66-.1,1.07,.06,1.21,1.02,.49,1.28,.42c.21-.05,.34-.4,.55-.45s.34-.43,.54-.48c.21-.05,.58,.52,.78,.47,.22-.06,.06-1.56,.25-1.61,.24-.06,.42,.89,.58,1,.16,.12,0,0-.05,.24s-.22,.47-.25,.7,.59,.56,.56,.8c-.03,.23-.41,.43-.43,.68s.64,.06,.83,.17c.17,.1-.13-.19,.12-.28,.21-.08,.83,.9,1.03,.82,.21-.08,.31-.41,.51-.5s.51,.08,.72-.01,.57,.2,.78,.1c.19-.09-.14,0,.03,.04,.19,.04,.52-.64,.6-.46,.09,.19,.06,.43,.15,.61s1.02-.08,1.12,.1,.25,.29,.36,.47c.13,.23-.43,.69-.17,.67,.23-.01,.42-.08,.6-.29,.14-.16,.22-.4,.39-.6,.14-.17,.12-.5,.28-.7,.14-.17,.21-.42,.37-.62,.14-.18,1.33,.49,1.49,.3,.14-.18-.41-.93-.26-1.12,.14-.18,.81,.05,.97-.14s.06-.56,.21-.75,.45-.24,.6-.43-.47-.96-.32-1.15,.39-.29,.53-.48,.92,.11,1.07-.08,.14-.49,.28-.68,.1-.52,.24-.71,.63-.12,.77-.31-.34-.84-.2-1.03,1.23,.32,1.37,.12,.06-.54,.2-.74-.17-.71-.03-.9-.02-.59,.12-.79,.66-.11,.8-.31-.63-1.02-.49-1.21,1.48,.44,1.61,.24,0-.58,.13-.78,.14-.48,.27-.68,.56-.21,.69-.41-.12-.65,.01-.85-.31-.77-.19-.97,.54-.22,.67-.42,1.2,.17,1.33-.03-.22-.7-.1-.9-.46-.82-.34-1.03,1.2,.13,1.31-.07-.33-.73-.21-.94,.39-.34,.5-.54-.35-.72-.25-.93,.57-.25,.67-.46,.95-.09,1.05-.3-.33-.68-.24-.89-.64-.76-.56-.98c.09-.23,1.5,.03,1.57-.19,.08-.23,.05-.52,.12-.74,.07-.24,.24-.47,.28-.7,.05-.24-.19-.56-.16-.79,.03-.25-.67-.51-.67-.74,0-.25,.69-.54,.64-.76-.05-.24-.02-.6-.13-.8-.11-.21-1.15,.42-1.33,.27s-.06-.37-.29-.47c-.21-.09-.33-.09-.57-.13-.22-.04-.32-1.16-.57-1.17-.23-.01-.5,.12-.75,.13-.23,0-.43,.58-.68,.6-.23,.02-.54-.49-.79-.45-.23,.04-.57-.37-.81-.32-.23,.05-.21,1.26-.45,1.32s-.7-.82-.93-.76-.18,1.11-.42,1.17-.29,.64-.52,.71-.69-.65-.92-.57-.71-.6-.94-.52-.55-.1-.78-.02-.09,1.15-.31,1.23-.37,.35-.59,.44-.84-.83-1.06-.74-.22,.72-.44,.81-.29,.54-.51,.64-.53-.05-.75,.05-.11,.94-.33,1.04-.56-.09-.77,0-.58-.14-.8-.04-.39,.28-.61,.38-.8-.58-1.02-.48-.4,.29-.62,.39-.35,.39-.57,.49-.54,0-.76,.1-.1,.88-.32,.99-.79-.52-1.01-.41-.39,.3-.6,.4-.06,.95-.27,1.06-.15,.76-.36,.87-.81-.52-1.02-.41-.43,.21-.64,.32-.73-.34-.94-.23-.2,.65-.41,.77-.49,.12-.69,.23-.06,.91-.26,1.02-.93-.7-1.14-.59-.06,.9-.26,1.01-.05,.9-.25,1.02c-.21,.12-.95-.71-1.15-.59-.22,.12,.06,1.09-.14,1.2-.22,.12-1.09-.92-1.28-.81-.22,.13-.3,.47-.49,.58-.22,.13-.59-.02-.77,.09-.21,.12-.08,.78-.14,.96-.07,.22,.38-.04,.55,.1Z"/>
  <path class="cls-4" d="M47.06,12.54c-.21,.05-.32,.48-.51,.53-.2,.05-.25,.63-.45,.68s-.67-.92-.88-.86c-.29,.08,.04,.21-.11,.01-.19-.25-.79-.14-.97-.36s-.06-.71-.28-.94-1.34-.22-1.6,0c-.2,.17-.37,.4-.57,.56-.22,.19-.37,.43-.55,.57-.26,.22-.39,.19-.62-.03-.2-.19-.81,.12-1-.05s-.12-.62-.33-.79c-.27-.22-.72-.11-.93,.14-.16,.19-.3,.41-.45,.6-.17,.21-.58,.22-.71,.4-.2,.26-.31,.1-.59-.1-.23-.17-.56-.19-.78-.34s-.73,.18-.99,.02c-.31-.19-.86-.53-1.03-.26-.14,.22-.25,.46-.38,.68-.15,.24-.3,.46-.42,.65-.17,.26-.28,.22-.6,.05-.25-.13-.84,.46-1.08,.35s-.03-1.16-.3-1.28c-.34-.15-1.57,.24-1.69,.52-.11,.25-.22,.49-.3,.71s-.23,.47-.31,.72c-.07,.23,.2,.9-.13,.87-.28-.02-.55,.26-.82,.25s-.5-.48-.79-.48c-.44,0-1.13,.27-1.01,.57,.07,.19,.65,.22,.76,.48,.08,.2,.16,.43,.26,.67,.09,.21,.02,.5,.13,.73,.09,.21-.05,.55,.05,.77,.1,.21,.66,.22,.76,.44,.1,.21-.35,.7-.24,.92s.25,.42,.36,.64,.81,.13,.92,.34-.2,.64-.09,.86,.02,.53,.14,.75,.43,.32,.54,.53,.98,0,1.1,.22-.28,.71-.16,.92-.36,.77-.23,.98,.95,0,1.07,.21,.24,.42,.37,.63,.69,.13,.82,.34-.51,.92-.38,1.12-.06,.64,.07,.84,1-.11,1.15,.09,.57,.17,.72,.37,.24,.41,.39,.6,.29,.38,.44,.56,.22,.44,.38,.62,.51,.17,.67,.35,.06,.61,.23,.77,.44,.22,.62,.38-.11,.91,.07,1.05c.2,.15,.38,.36,.58,.5,.21,.14,.67-.12,.88,0,.22,.12,.34,.46,.56,.55,.23,.09,.7-.68,.93-.62s.35,.33,.59,.34,.46,.44,.7,.4,.67,.46,.9,.38,.43-.43,.64-.55,.32-.45,.51-.61,.25-.44,.42-.62c.16-.17,.23-.42,.38-.61s.12-.48,.25-.68,1.02,.03,1.13-.19-.45-.78-.35-1,.26-.4,.36-.62-.31-.62-.23-.85,.83-.2,.9-.43,.18-.45,.25-.68-.06-.52,0-.75-.28-.56-.22-.8,.05-.47,.1-.71,1.06-.26,1.11-.49-.5-.6-.45-.83-.18-.52-.14-.76,1.17-.3,1.21-.53-.48-.57-.44-.81-.15-.51-.12-.75-.12-.5-.09-.74,.49-.43,.52-.67,.5-.44,.52-.68-1.07-.59-1.05-.83-.02-.49,0-.72,1.1-.41,1.11-.64c.02-.25,.24-.48,.25-.71,.02-.25-1.2-.56-1.19-.79,.01-.25,1.28-.44,1.28-.67,0-.26-.32-.52-.31-.74,0-.28-.52-.53-.52-.72,0-.3-.29-1-.69-.91Z"/>
  <path class="cls-3" d="M26.69,12c-.15,.17-.26,.35-.4,.5-.14,.17-.81-.11-.94,.06s.32,.78,.18,.96c-.19,.25-.84,.5-1.07,.44-.3-.07-.44-.71-.71-.76s-.64,.54-.94,.5c-.16-.02-.17-.1-.33,.01s.19,.25,.14,.41c-.08,.26-1.28,.21-1.35,.47-.08,.29,.41,.72,.35,.94-.05,.16-.02,.56-.16,.67s-.56,.38-.72,.37c-.27-.02-.49-.17-.74-.18s-.48-.94-.76-.93c-.17,0-.78,.21-.93,.34s.83,.87,.81,1.04c-.03,.25-.45,.46-.47,.71-.02,.28,.38,.56,.36,.78-.01,.17-.95,.13-1.1,.27s-.17,.42-.34,.43c-.29,.02-.53,.21-.8,.23s-.54-.1-.83-.06c-.17,.02-.79-.35-.92-.21-.14,.14-.43,.77-.43,.93,0,.26,.78,.51,.79,.76,0,.28-.49,.56-.49,.78,0,.16,.55,.59,.42,.73-.13,.13-.55,.05-.72,.09-.28,.06-.67-.42-.93-.35s-.56,.01-.85,.09c-.17,.05,.2,1.06,.08,1.2-.13,.16-.98,.1-.95,.26,.05,.26,.16,.49,.21,.72s.41,.39,.48,.64c.07,.23-.3,.2-.58,.39-.25,.16,.03,1.06-.2,1.22s-.58,.12-.83,.3c-.37,.27-.36,.09-.1,.25,.17,.1,.4,.17,.65,.31,.19,.11-.14,1.19,.09,1.32,.2,.11,.46,.15,.68,.27,.2,.11,.85-.6,1.07-.49,.21,.11,.46,.13,.69,.24,.21,.11,.47,.12,.69,.23s.29,.49,.52,.59,.33,.42,.56,.53,.54-.03,.76,.07,.55-.08,.78,.02-.05,1.36,.17,1.45,.83-.75,1.06-.65,.52,0,.75,.08,.08,1.16,.31,1.24,.58-.17,.81-.09,.53-.05,.76,.03,.35,.52,.58,.59,.6-.28,.83-.21,.23,1,.46,1.07,.8-1.12,1.04-1.06,.29,.87,.53,.93,.4,.56,.63,.61,.58-.4,.82-.36,.52-.16,.76-.13,.5-.08,.74-.06,.49-.24,.73-.23,.47,.09,.71,.08,.51,.41,.75,.38,.45-.26,.69-.3,.44-.19,.66-.26,.66,.31,.88,.21,.11-.77,.31-.91,.45-.14,.63-.31,.45-.24,.59-.44,.6-.25,.7-.47-.03-.57,.04-.8-.01-.5,.03-.75-.06-.48-.04-.73,.38-.47,.37-.72-.87-.42-.89-.67-.09-.44-.13-.68,1.07-.66,1.02-.91,.07-.53,0-.77-.36-.43-.43-.66,.06-.54-.01-.77-.65-.31-.73-.54-.83-.21-.92-.44,.98-.89,.89-1.12-.43-.36-.53-.59-.76-.2-.86-.43,.45-.74,.34-.96-.22-.44-.33-.67-1.13,0-1.24-.21-.19-.45-.3-.66,.48-.81,.37-1.02-.2-.46-.32-.67,.11-.63-.01-.84-1.14,.08-1.26-.13-.45-.3-.58-.5c-.13-.22,.22-.71,.1-.91-.13-.22,.36-.82,.24-1.01-.14-.22-.93,0-1.05-.19-.14-.22-.37-.37-.49-.55-.16-.24-.57-.23-.69-.39-.16-.23,.05-.31-.23,.01Z"/>
  <path class="cls-1" d="M7.7,24.6c-.06,.28-.32,.53-.35,.78s.17,.57,.14,.85c-.02,.26,.14,.29-.19,.37-.27,.07-.45,.43-.7,.5-.26,.07-.42,.43-.68,.51-.24,.07-.33,.63-.6,.72-.19,.06-1.31-1.15-1.41-1.02-.13,.17-.24,1.39-.15,1.54,.13,.21,.69,.17,.82,.37,.14,.23,.31,.42,.42,.6,.09,.15,.4,.14,.28,.31-.1,.13-.55-.54-.74-.47-.23,.09-.1,1.06-.32,1.15s-.66-.38-.88-.29c-.21,.09-.38,.28-.61,.37-.19,.08-.3,.5-.38,.64-.11,.18-.19,.65-.06,.78,.18,.18,1.04-.33,1.23-.15,.21,.19-.32,1.17-.15,1.32,.14,.13,.72,.18,.62,.37-.07,.15-.54,.07-.73,.17-.23,.11,0,1.07-.21,1.18s-.55-.04-.77,.08c-.2,.11-.44,.16-.67,.29-.18,.11-.88-.32-.94-.17-.08,.19-.11,1.02,.05,1.14,.23,.17,.63,.12,.86,.29,.26,.18,.98-.33,1.18-.18,.16,.11-.78,.44-.85,.63-.05,.15,.16-.03-.01,.08-.2,.13,.12,1.04-.07,1.16s-.39,.25-.58,.38c-.18,.13-.63-.09-.82,.06-.17,.13-.03,.49-.07,.64-.05,.19,.1-.06,.29,.03s-.18,1.34,0,1.43,.91-1.03,1.1-.95,.38,.08,.58,.16c.29,.11-.39,.59-.59,.89-.17,.26-.25,.58-.41,.83s.26,.84,.11,1.11c-.12,.21-.24,.36-.14,.5s.4,1.05,.63,1.02c.21-.02,.23-1.84,.5-1.87,.22-.03,.65,1.33,.9,1.3,.23-.03,.49,.04,.74,0,.23-.03,.28-1.39,.53-1.43,.23-.03,.62,.9,.86,.86,.23-.04,.48,0,.73-.04s.48-.01,.73-.05,.27-1.3,.51-1.34,.72,1.4,.97,1.36,.38-.63,.62-.67,.58,.52,.83,.48,.39-.59,.63-.63,.54,.27,.78,.23,.3-.97,.54-1.02,.43-.29,.67-.34,.65,.77,.88,.72,.56,.34,.8,.29,.3-.93,.54-.98,.49,0,.73-.06,.52,.11,.76,.06,.53,.15,.77,.09,.22-1.18,.46-1.23,.4-.4,.64-.46,.74,.95,.97,.89,.65,.55,.88,.49,.23-1.06,.46-1.12,.45-.22,.68-.28,.36-.53,.59-.59,.73,.74,.96,.67,.42-.32,.65-.39,.19-.99,.42-1.07,.42-.26,.65-.33,.58,.2,.8,.12,.94,1.12,1.16,1.04,.37-.45,.59-.54,.38-.4,.6-.49,.57,.05,.79-.05-.16-1.47,.05-1.58c.22-.11,.44-.16,.65-.28,.22-.12,.53-.01,.73-.14,.22-.13,.3-.38,.5-.51,.21-.15,.18-.47,.35-.62,.19-.17,1.57,.89,1.72,.72,.17-.19-.46-1.04-.35-1.24,.13-.22,.61-.3,.66-.53,.06-.24-.34-.51-.37-.75s.31-.6,.2-.82c-.1-.2-1.22,.3-1.37,.1-.14-.18,.4-.89,.22-1.07-.16-.16-.24-.43-.43-.59-.18-.14-.1-.69-.31-.83-.19-.13-.24-.58-.45-.7-.2-.12-.68,.18-.89,.07s-.54,0-.76-.11-.53,0-.75-.09-.06-1.03-.29-1.13-.77,.59-1,.5-.76,.65-.98,.57-.2-.79-.42-.87-.2-.83-.43-.91-.42-.27-.64-.34-.52,.02-.74-.05-.47-.09-.7-.16-.33-.58-.55-.65-.81,1.04-1.04,.97-.25-.87-.48-.93-.73,.82-.96,.75-.1-1.47-.33-1.53-.65,.56-.88,.5-.71,.85-.94,.79-.13-1.49-.36-1.54-.79,1.21-1.02,1.15-.25-1.03-.48-1.08-.32-.79-.55-.84-.82,1.46-1.05,1.41-.29-.92-.52-.97-.32-.82-.55-.87c-.24-.05-.79,1.46-1.02,1.42-.24-.05-.45-.2-.67-.25-.25-.05-.28-1.14-.5-1.18-.25-.05-.62,.66-.84,.62-.26-.05-.27-1.41-.47-1.44-.19-.03-.7,.65-.87,.76-.18,.11-.68,.43-.71,.61Z"/>
  <path class="cls-2" d="M43.06,15.24c-.29,.06-.51,.4-.77,.46-.28,.07-.39,.66-.66,.74s-.78-.64-1.06-.54c-.19,.06-.32,.99-.53,.96s.02-1.03-.12-1.15c-.18-.15-1.03,.56-1.2,.43-.18-.14-.3-.31-.48-.44s.03-.8-.16-.93c-.18-.12-.54,.04-.74-.08-.21-.13-.37,.53-.63,.55-.28,.02-.12-.26-.26-.08-.14,.18-.28,.35-.42,.52s-.43,.24-.56,.41c-.15,.19-1-.17-1.12,0-.13,.18-.13-.19-.39-.14-.24,.04-.31,.64-.52,.54-.24-.11-.31-.63-.54-.73s-.51-.15-.76-.23c-.23-.08-.81,.85-1.07,.76-.23-.08-.4-.68-.64-.6-.27,.09,.31,.66,.23,.87-.07,.2-.32,.32-.39,.52s-1.41,0-1.47,.19c-.07,.21,.06,.48,0,.66-.06,.21,.52,1.11,.27,1.22-.22,.1-.57-1.23-.81-1.28-.27-.05-.75,1.14-1,1.1s-.5,.04-.77,.01c-.25-.03-.4-1.3-.68-1.32-.24-.02-.79,.34-.99,.46-.24,.14,.03,.78,.01,.99-.02,.21,.49,.46,.48,.67s-.55,.39-.57,.59c-.01,.23,.56,.48,.55,.67-.01,.2-.73,.66-.94,.81-.18,.13-.6,.47-.83,.48-.26,.01-.58-1.17-.82-1.15s-.41,.84-.66,.88c-.24,.03-.51-.19-.77-.14-.23,.04-.07,.65-.24,.8-.2,.18-.45-.03-.41,.16,.06,.31-.81,.81-.74,1.09s.52,.48,.61,.77c.08,.27,.41,.94,.04,1.15-.21,.12-.44,.16-.64,.28s-.99-.69-1.19-.56-.33,.36-.54,.5c-.2,.14-.04,.8-.1,.97-.09,.23,.03,.45,.22,.55,.18,.1,.75-.33,.98-.19,.19,.12-.2,1.13,0,1.28,.18,.13,.95-.49,1.15-.34,.18,.14,.35,.34,.55,.49,.18,.14-.22,1.05-.03,1.21,.18,.15,.48,.17,.67,.32s.53,.11,.72,.27,.72-.13,.91,.03-.33,1.15-.14,1.3,.74-.14,.92,.02,.8-.21,.98-.05-.17,.95,.02,1.11,.36,.32,.55,.47,.15,.58,.34,.73,.92-.36,1.11-.21-.13,.94,.06,1.09,.89-.33,1.08-.18,.29,.42,.48,.57,.58,.05,.77,.2,.18,.56,.37,.71,.5,.14,.7,.28,.16,.6,.36,.74,.61-.02,.81,.12,.02,.84,.21,.97,.33,.4,.53,.53,.24,.56,.45,.69,.77-.31,.98-.19c.22,.13,.77-.39,.98-.28,.22,.12,.12,.83,.33,.93,.23,.11,.46,.2,.68,.29,.24,.1,.4,.43,.62,.49,.25,.07,.47,.53,.69,.56,.26,.04,.57-1.18,.8-1.2,.26-.02,.2-.24,.41-.34,.22-.1,.92,.76,1.13,.63s.6-.05,.79-.2,.06-.71,.23-.88,.6-.11,.76-.29,.25-.44,.4-.64-.59-.98-.45-1.18,.59-.16,.71-.37-.11-.57,0-.78,.14-.42,.24-.64,1.31,.05,1.4-.18-.41-.67-.33-.89-.05-.51,.03-.73,.86-.24,.93-.47-.19-.55-.13-.78,.74-.32,.8-.55-.86-.68-.81-.91,0-.48,.05-.71,.7-.36,.73-.6-.44-.55-.41-.78,.32-.44,.34-.67-.15-.5-.13-.73-.02-.48,0-.71,1-.41,1.02-.65-1.47-.56-1.46-.8,1.14-.43,1.15-.66-.79-.5-.78-.74-.17-.47-.17-.71,.06-.47,.06-.71,.43-.48,.42-.72-.53-.46-.54-.7,1.33-.55,1.32-.79-.24-.47-.26-.71-1.17-.38-1.19-.62,.37-.51,.34-.74,.6-.56,.57-.79,.3-.54,.27-.77-.94-.34-.98-.57c-.04-.22-.27-.18-.54-.29-.23-.09-.5-.81-.76-.76Z"/>
  <path class="cls-3" d="M68.1,34.23c-.24-.13,.25-1.6,.03-1.72s-.88,.61-1.12,.5-.52-.05-.77-.16c-.35-.16,.21-.57,.37-.86,.13-.24-.95-1.1-.84-1.32,.12-.23-.04-.55,.07-.79s.88-.13,.99-.39c.09-.21-.02-.04-.18-.2-.14-.14-.05-.78-.3-.78-.27,0-.58,1.21-.85,1.2s-.52-1.82-.78-1.82c-.29,0-.59,.71-.83,.71s-.63,.22-.77,.1c-.16-.15,.6-.34,.67-.55s-1.48-.92-1.42-1.12,.3-.32,.36-.53c.05-.2,.72-.24,.77-.46s.41-.86,.22-1c-.17-.12-.62,1.14-.86,1.17-.27,.03-.69-1.15-.95-1.11s-.51,.41-.77,.44c-.29,.04-.59-.08-.83-.04s.04-.62-.13-.73c-.2-.13-.34,.5-.3,.28s-1.09-.58-1.07-.78,1.71-.28,1.73-.5c.01-.21-.42-.47-.41-.69s-1.13,.36-1.34,.25c-.18-.1,.16-.31-.08-.25-.2,.04-.7-1.23-.91-1.18s-.38,.28-.58,.33c-.21,.05-.25,.85-.45,.89-.22,.05-.33,.55-.52,.59-.23,.05-.95-.03-1.13-.12-.21-.1,.66-.99,.65-1.21s-.5-.39-.52-.59,.67-.5,.64-.7c-.02-.19-.59-.33-.62-.55-.04-.22-.44-.76-.67-.85-.2-.08-.77-.12-1-.04-.28,.1-.22,1.06-.47,1.15-.26,.1-.8-.57-1.05-.46s-.49,.24-.75,.35c-.18,.08-.31,.68-.5,.65-.2-.04-.5-.28-.62-.42-.13-.16,.02-.54-.11-.69s.27-.78,.13-.93c-.13-.14-.72,.11-.86-.04-.17-.17-.59-.78-.83-.78s-1.2,.19-1.35,.37c-.13,.16,.76,1.2,.59,1.41-.14,.17-.17,.45-.32,.65-.14,.18-.33,.33-.49,.53-.14,.18-1.34-.43-1.49-.23-.14,.19,.58,1.03,.43,1.23-.14,.19,.1,.66-.05,.86s-.75,.03-.9,.23-.93-.08-1.07,.12,1.02,1.31,.88,1.51-1.7-.62-1.84-.42,.57,.98,.43,1.18-1.14-.2-1.28,0-.24,.42-.37,.62,1.22,1.38,1.08,1.58-.97-.07-1.1,.13,.14,.66,0,.86-.35,.34-.48,.55-.59,.19-.72,.4-.78,.09-.91,.29-.56,.23-.68,.44,1.26,1.3,1.14,1.51-1.21-.14-1.33,.07-.58,.24-.69,.45,.25,.69,.14,.9-.51,.28-.62,.49-.56,.27-.67,.48-.29,.41-.39,.63-.18,.47-.28,.68,.04,.56-.06,.78-.61,.29-.7,.51,1.17,.99,1.09,1.21,.12,.54,.04,.76-.11,.45-.18,.67-.91,.23-.97,.46c-.06,.24-.92,.31-.97,.54-.05,.24,.63,.63,.59,.86-.03,.25-.79,.46-.8,.69-.01,.25,.63,.54,.65,.77,.02,.25-.31,.6-.26,.82,.06,.24,1.19,.1,1.29,.31s.17,.28,.32,.46,.19,.25,.4,.39c.19,.13,.11,.6,.33,.69,.21,.09,.37,.33,.61,.39,.22,.05,.41,.47,.66,.5,.23,.03,.54-1.15,.78-1.14,.23,0,.44,.81,.69,.8,.23,0,.41-.67,.65-.7,.23-.02,.43-.13,.67-.16s.62,1.01,.86,.97,.41-.39,.65-.44,.41-.3,.65-.35,.36-.49,.59-.55,.33-.51,.57-.58,.51,.12,.74,.05,.58,.31,.81,.24,.35-.45,.57-.53,.53,.11,.76,.03,.54,.12,.76,.04,.54,.11,.77,.03,.24-.71,.46-.79,.2-.77,.42-.86,.82,.78,1.04,.69,.77,.62,.99,.53-.3-1.95-.08-2.04,.69,.42,.91,.33,.38-.32,.59-.42,.28-.55,.49-.64,.42-.23,.63-.33,.73,.45,.94,.35,.67,.32,.89,.21,.34-.4,.56-.5,.73,.42,.95,.32-.19-1.49,.02-1.6,.37-.33,.58-.43,1.04,1.03,1.26,.92-.18-1.42,.03-1.52,.5-.07,.71-.17,.45-.17,.66-.28,1.05,.99,1.26,.88-.45-1.89-.24-2,1.05,.94,1.25,.83,.67,.22,.87,.1,.17-.7,.38-.81,.18-.67,.39-.78c.21-.12,.54,0,.75-.12,.21-.12,.26-.53,.46-.64,.22-.12,.31-.44,.5-.55,.22-.12,.51-.09,.7-.2,.22-.13,.1-.8,.29-.91,.23-.13,.71,.23,.89,.13,.22-.13,.19,0,.18-.18s-.21,.33-.43,.21Z"/>
  <path class="cls-4" d="M68.91,54.85c.08-.23,.38-.35,.46-.55,.08-.22-.72-.77-.64-.98s.47-.29,.55-.51c.06-.16,.65,.36,.83,.28,.16-.07,.08-.29,.27-.27,.26,.02,.54-.43,.78-.41,.25,.02,.44,.78,.69,.8s.57-1.23,.82-1.21c.24,.01,.41,1.45,.66,1.46,.23,.01,.57-.67,.74-.74,.24-.11-.25-.3-.31-.49-.08-.25,.78-.8,.71-1.05-.08-.27-.2-.52-.26-.75-.05-.19-.33-.31-.13-.42,.15-.08,.34,.41,.56,.43,.28,.02,.61-1.02,.87-1.01s.51-.05,.79-.06c.26,0,.52,.29,.81,.27,.25-.02,.5,.22,.63,.08,.15-.17-.22-.17-.36-.37-.13-.19,.03-.59-.1-.79s-.92,.02-1.04-.17c-.14-.21,1.12-1.32,1-1.5-.13-.21-.35,.16-.28-.03s-.18-.37,.06-.42c.25-.05,.31-.81,.54-.87s.37-.3,.61-.38c.22-.08,.68,.52,.92,.42,.22-.09,.7-.15,.74-.34s.17-1.02-.01-1.19c-.19-.17-1.04,.36-1.22,.18s.38-1.11,.21-1.29c-.19-.2-.45-.28-.61-.45-.15-.16-.6,.12-.59-.06,.01-.2-.03-.46,.17-.53,.2-.08,.76,.7,.94,.62s-.2-1.38-.02-1.48c.17-.09,.8,.64,.99,.53,.19-.11-.37-.67-.38-.87,0-.18-.13,.27-.32,.13-.21-.16,.27-1.21,.08-1.36s-1.2,.66-1.39,.5-.08-.69-.27-.86c-.28-.25,.22-.8,.4-1.05,.16-.22-.08-.71,.07-.93,.14-.21-.28-.78-.12-1.02,.12-.19,.73,.05,.64-.15s-.37,.02-.56-.06c-.22-.09-.11-1.01-.34-1.1-.22-.08-.72,.58-.95,.5s-.27-.68-.51-.76-.6,.33-.83,.26-.62,.48-.86,.42-.25-.89-.48-.95-.47-.07-.71-.12-.53,.17-.76,.12-.18-1.47-.41-1.52-.5,0-.74-.05-.72,1.21-.96,1.17-.24-1.4-.48-1.44-.66,1.03-.89,1-.33-1.08-.57-1.12-.54,.37-.78,.34-.46-.25-.7-.27-.55,.58-.79,.55-.44-.48-.68-.51-.51,.26-.75,.24-.46-.33-.7-.34-.54,.95-.78,.94-.48,.15-.72,.14-.46-.62-.7-.62-.49,.48-.73,.48-.49-1.63-.73-1.63-.49,.37-.73,.37-.45,1.08-.69,1.09-.48-.07-.72-.06-.47,.15-.7,.17-.5-.25-.74-.22-.54-.4-.77-.37-.4,.59-.64,.63-.38,.55-.61,.59-.68-.91-.91-.85-.45,.23-.68,.29-.69-.54-.92-.47,.04,1.57-.18,1.66-.94-.96-1.15-.86c-.22,.11-.26,.62-.46,.73-.21,.12-.35,.36-.54,.5s-.28,.41-.45,.57-.32,.33-.47,.51-.61,.16-.73,.37,.5,.72,.42,.95c-.08,.23-1.25,.19-1.28,.43s-.35,.6-.33,.85,.55,.49,.61,.73c.05,.23,.31,.43,.4,.66,.08,.22,.92,.09,1.03,.31,.1,.21-.43,.74-.31,.96,.12,.2-.42,.86-.28,1.06s.88-.02,1.03,.18,.2,.46,.36,.65,.47,.23,.63,.41,.15,.52,.32,.69,.3,.38,.47,.55,.63,.04,.8,.21,.6,.04,.78,.21,.54,.09,.72,.25,.04,.67,.23,.82,.75-.17,.94-.02,.29,.38,.48,.53,.34,.33,.53,.48,.08,.67,.28,.82,.26,.45,.45,.59,.26,.47,.45,.61,.31,.4,.51,.54,.26,.48,.46,.62,.93-.51,1.13-.38,.41,.26,.61,.39,.17,.63,.37,.76,.11,.73,.31,.86,.71-.23,.92-.1,.15,.69,.35,.81,.6-.05,.8,.07,.21,.6,.42,.72,.46,.2,.66,.32,.71-.26,.92-.15,.27,.52,.48,.63,.14,.77,.35,.88,.45,.21,.66,.31,1.23-1.34,1.43-1.24c.22,.11,.31,.45,.51,.55,.22,.11,.55,1.29,.77,1.19s.27-.91,.35-1.14Z"/>
  <path class="cls-2" d="M57.56,53.38c.12-.29,.33-.5,.43-.76s-.69-.79-.6-1.09c.08-.27,1.25,.08,1.59,.09,.29,.02,.54,.51,.8,.52,.27,0,.56-.96,.83-.95,.26,0,.51-.48,.8-.48,.21,0,0,.15,.13,.04,.15-.13,.35,.23,.29,.04-.08-.26,.92-.88,.84-1.14-.09-.29-.78-.36-.86-.59-.06-.18-.04-.13,.11-.26,.12-.11,.17,.1,.37,.09,.24-.01,.49,.18,.72,.16s.46-.13,.69-.16c.22-.02,.47,.11,.72,.08,.21-.03,.56-.64,.67-.77,.13-.15,.45-.89,.35-1.07-.14-.25-1.03-.06-1.18-.3-.16-.26-.47-.41-.6-.62-.11-.17-.25-.97-.14-1.12,.1-.13,.76,.04,.96,0,.24-.04,.54,.3,.76,.26s.36-.56,.59-.61c.22-.05,.37-.38,.61-.44,.21-.05,.49,.31,.58,.17,.1-.16,.43-.64,.31-.8s-1.13,.39-1.26,.23,.69-1.09,.57-1.24c-.14-.17-.33-.28-.44-.42-.23-.28-.46-.57-.05-.7,.22-.07,.64,.53,.84,.46s-.04-1.44,.16-1.51c.2-.07,.66,.6,.87,.51,.2-.08,.2-.19,.26-.34,.07-.17-.39,.34-.54,.2-.16-.15,.32-.99,.17-1.13-.16-.14,.05-.73-.11-.86s-.93,.49-1.1,.36c-.25-.19-.29-.99-.05-1.21,.21-.19,.22-.53,.41-.71s1.39,.61,1.59,.4c.15-.16-.41-.96-.48-1.12-.07-.15-.19-.62-.41-.66-.21-.04-.45-.06-.71-.11-.22-.04-.53,.35-.78,.3-.22-.04-.56,.51-.81,.46-.23-.04-.48,.06-.73,.02-.23-.04-.4-.46-.64-.5-.23-.04-.36-.74-.6-.78s-.61,.89-.85,.85-.48,.06-.72,.03-.41-.43-.65-.46-.34-1-.58-1.03-.42-.45-.66-.48-.47-.08-.71-.11-.51,.23-.75,.2-.47-.05-.71-.08-.45-.3-.68-.33-.57,.85-.81,.82-.4-.8-.64-.82-.58,.97-.82,.95-.36-1.35-.6-1.37-.62,1.57-.86,1.55-.44-.5-.68-.52-.42-.82-.66-.83-.49,.13-.73,.12-.47-.35-.7-.37-.48-.18-.72-.2-.5,.24-.74,.23-.5,.59-.74,.58-.47-.89-.71-.9-.5,1.74-.74,1.74-.47-.17-.71-.16-.5-1.21-.74-1.21-.5-.22-.74-.21-.44,.89-.68,.91-.52-.43-.75-.41-.55-.45-.78-.42-.52,0-.75,.02c-.24,.04-.52,.09-.74,.13-.24,.05-.3,1.05-.52,1.1-.24,.06-.22,.92-.44,.99-.24,.07-.75-.74-.96-.65-.23,.1-.38,.33-.58,.44-.22,.13-.35,.3-.52,.45-.19,.17-.89-.05-1.01,.14-.13,.21-.09,.63-.14,.86s-.19,.58-.17,.82c.03,.22,.41,.45,.49,.68,.07,.21,.76,.15,.87,.38,.1,.2-.91,1.06-.78,1.27,.12,.19,.47,.29,.62,.49,.14,.18,.02,.63,.17,.81,.15,.18,1.2-.39,1.36-.21s.61,.05,.78,.23-.4,1.05-.22,1.22,1.13-.51,1.3-.34-.62,1.37-.44,1.53,1.21-.67,1.4-.51-.32,1.1-.14,1.26,1-.47,1.18-.32-.1,.88,.08,1.02,.14,.6,.32,.75,.23,.5,.42,.64,1.26-.9,1.45-.76,.44,.19,.64,.33-.11,.96,.08,1.1,.11,.67,.31,.81,.74-.23,.94-.1,.47,.16,.67,.29,.23,.51,.43,.64,.45,.19,.65,.32-.02,.91,.18,1.04,.98-.63,1.18-.51,.67-.16,.87-.04-.04,.96,.16,1.08,.82-.41,1.02-.29,.33,.36,.53,.48,.23,.54,.42,.66c.21,.13,.66-.17,.86-.05,.21,.13,.48,.13,.68,.24,.21,.13,.3,.44,.49,.55,.22,.13-.13,1.21,.06,1.32,.23,.13,1.01-.8,1.19-.7s.26,1.61,.45,1.56c.2-.06,.06-1.05,.14-1.23Z"/>
  <path class="cls-3" d="M38.29,61.25c.25-.05,.58,.45,.81,.41,.24-.05,.22-1.3,.46-1.35s.48,.05,.72,0c.34-.07,1.34,.05,1.5,.31,.14,.22-.6,1-.47,1.2s0,.64,.15,.85c.14,.19,1.36-.41,1.53-.19,.13,.17-.05,.05,.16,.07s.11,.26,.26,.11c.15-.14,.15-.47,.3-.61s.36-.25,.51-.39c.17-.15,.89,.36,1.04,.24,.15-.13,.17-.48,.39-.47s.14,.44,.28,.58c.16,.15,.7-.15,.85-.02s.28,.3,.45,.43,.11,.51,.28,.64c.15,.12,.55,.65,.74,.63s.8-.42,.91-.58c.16-.24-.82-1.22-.67-1.45,.17-.26,1.58,.29,1.71,.08,.19-.31,.31-1.04,.49-.8,.14,.19,.48,.23,.59,.4s-.04,.54,.07,.73c.14,.23-.54,.05-.4-.29,.11-.27,.16-.57,.27-.84,.12-.3,.37-.53,.46-.76,.13-.33,1.41-.6,1.54-.43,.2,.27-.54,1.41-.24,1.66,.19,.16,1.12-.6,1.23-.98,.06-.21,.25-.38,.31-.57,.05-.21-.74-.62-.69-.82s.02-.4,.07-.62c.07-.3,.92-.89,1.17-.91,.23-.02,.48,.26,.75,.23,.22-.02,.4-.5,.68-.53,.21-.02,1,.94,1.12,.79,.14-.17-.5-.77-.56-.94-.08-.22,.37-.64,.28-.87s-.14-.47-.24-.69-.05-.51-.15-.73-1.27,.07-1.37-.15,.28-.67,.17-.88-.65-.19-.76-.41-.34-.35-.46-.56,.87-1.04,.75-1.25-.12-.5-.25-.7-.27-.41-.39-.62-.26-.41-.39-.61-.52-.24-.65-.44-.32-.37-.46-.56-.37-.33-.51-.53-.67-.11-.81-.3-.22-.43-.37-.62,.33-.86,.18-1.05-.56-.18-.71-.37-.12-.53-.27-.72-.53-.19-.69-.37,.02-.67-.14-.85-.42-.29-.58-.46-1.13,.4-1.3,.23-.02-.64-.19-.81,.15-.84-.02-1.01-.79,.13-.97-.04-.54-.12-.72-.27,.25-1.04,.07-1.2-.76,.16-.95,.01-.19-.56-.38-.7-.89,.42-1.08,.29,.15-1.12-.05-1.24-.63,.08-.83-.03-.4-.29-.62-.39-.22-.77-.43-.87-.84,.81-1.06,.74-.54,.28-.77,.23-.32-.68-.56-.71-.46-.41-.7-.41c-.25,0-.55,.14-.76,.24s-.41,.31-.58,.49c-.15,.16,.32,.71,.2,.93-.1,.2-.77,.12-.86,.36-.07,.21,.39,.57,.33,.81-.05,.22-.21,.4-.25,.64-.04,.23-.98,.33-1.01,.58-.03,.23,1.06,.58,1.04,.82s-1.14,.39-1.15,.64,.26,.49,.25,.73-.04,.47-.04,.71-.03,.48-.03,.71,.96,.45,.97,.69-.48,.48-.47,.72-.86,.52-.84,.75,.9,.43,.92,.66,.16,.46,.17,.7,.15,.46,.17,.7-.19,.49-.17,.73,.28,.46,.3,.69-.3,.51-.28,.75-.57,.54-.55,.78-.18,.5-.15,.74,.04,.48,.06,.72,1.46,.33,1.49,.57-.22,.51-.19,.74-.19,.5-.17,.74-.77,.56-.74,.79,1.33,.35,1.35,.58c.02,.24-.13,.5-.1,.73,.02,.25-.38,.52-.36,.75,.02,.25-.67,.53-.66,.76,.02,.25,.15,.47,.16,.69,.01,.27,.69,.48,.69,.69,0,.21,0,.44,.2,.55,.17,.1,.46,.3,.68,.26Z"/>
  <path class="cls-2" d="M14.14,55.29c.3,.09,.84-.84,1.12-.77s.29,1.41,.61,1.47c.29,.05-.06-.63-.16-.35-.08,.23,.09,.55,.02,.76-.07,.22,.26,.57,.2,.79s.53,.6,.46,.84c-.1,.37-.51,.19-.07,.07,.23-.06,.74,.9,.97,.83s.08-1.52,.3-1.58c.25-.07,.58,.22,.78,.16,.43-.13,.58,.35,.55,.71-.03,.3-.53,.57-.54,.85s.82,.57,.83,.87c0,.21,.02,.83,.24,.89,.18,.05,.72,.05,.93-.04,.24-.1,.29-.64,.52-.74s.45-.25,.67-.35c.25-.11,.24-.72,.45-.82,.2-.1,.48,1.12,.67,1.17,.22,.05,.38-.48,.44-.28,.09,.3,.84,.32,.95,.59s-.02,.6,.13,.89c.1,.19,.1,.54,.35,.58,.23,.04,.33-.42,.52-.52,.21-.11,.2-.57,.39-.69,.21-.12,.93,.63,1.11,.52,.22-.13-.05-1,.12-1.11,.17-.11,.57,.98,.78,1.03s.25-.2,.37-.04c.14,.18,.54,.14,.68,.3s.71-.08,.86,.08c.14,.15-.09,.67,.08,.83,.15,.15,.2,.81,.39,.86,.24,.06,.32-.75,.43-.88,.18-.2,.44-.28,.6-.47s.04-.59,.21-.8c.16-.2,.97,.2,1.31,.39,.19,.11,.2,.55,.39,.65s.32,.35,.52,.45c.19,.09,.86-.79,1.06-.69,.2,.09,.15,.34,.3,.32,.22-.03,.04,.09,.02-.11-.02-.23,.14-.5,.14-.75s.54-.47,.55-.71,.01-.46,.03-.7,.28-.43,.31-.67-.53-.54-.5-.78-.27-.53-.23-.77,1.09-.27,1.14-.51-1.21-.76-1.16-.99,1.39-.16,1.45-.39,.14-.44,.2-.68-1.13-.81-1.06-1.04,.79-.27,.86-.5,.21-.43,.29-.66,.21-.43,.29-.66-.27-.6-.2-.83,.48-.35,.56-.57,.7-.27,.78-.49-.64-.74-.56-.96-.22-.59-.14-.82,.83-.21,.92-.44,.39-.37,.47-.6,.16-.46,.24-.68-.51-.7-.43-.92,1.2-.09,1.28-.31-1.24-.94-1.16-1.17,.17-.45,.25-.67,1.25-.11,1.32-.33c.07-.24-.21-.58-.15-.8,.07-.24,.64-.35,.7-.57,.06-.24-.05-.54,0-.77,.05-.25-.32-.57-.29-.8,.03-.26-.5-.49-.5-.71,0-.27,.66-.57,.59-.77-.08-.25-.58-.1-.77-.23-.19-.13-.31-.13-.55-.2-.22-.06-.35-.61-.61-.62-.22,0-.43,.46-.68,.49-.23,.03-.67-.99-.91-.94-.22,.05-.1,1.5-.34,1.57-.22,.07-.48-.05-.72,.04-.22,.08-.68-.46-.91-.37-.22,.09-.3,.51-.53,.61s-.51,.02-.73,.13-.57-.07-.79,.04-.31,.46-.52,.57-.3,.45-.52,.57-.4,.26-.61,.38-.36,.31-.57,.44-.71-.26-.92-.13-.46,.18-.66,.31-.52,.08-.72,.22-.11,.71-.32,.84-.16,.63-.36,.76-1.05-.69-1.25-.56-.36,.34-.56,.47,.21,1.14,0,1.28-.79-.27-.98-.13-.56,.06-.76,.2,.28,1.2,.09,1.34-.46,.19-.65,.34-.97-.48-1.16-.33,.24,1.1,.04,1.25-.53,.11-.72,.26-.19,.55-.37,.7-.79-.21-.98-.06-.23,.49-.42,.64-.12,.62-.3,.78-.31,.38-.5,.53-.34,.34-.53,.5-1.19-.64-1.38-.48-.35,.35-.53,.51,.11,.86-.07,1.02-.56,.1-.74,.26,.27,1.01,.1,1.17-.89-.25-1.07-.08,0,.69-.18,.86-.68-.01-.85,.15c-.31,.3-.41,1.14-.04,1.25Z"/>
  <path class="cls-1" d="M6.1,40.76c.05,.3,1.05,.37,1.11,.62,.06,.27-.83,.77-.75,1.05,.07,.25,.54,.93,.26,1.21-.16,.17-.97-.33-1.12-.18-.16,.16-.32,.31-.47,.46s.13,.76-.03,.92-.18,.45-.35,.61c-.15,.14-.36,.05-.41,.21-.07,.21-.63,.96-.49,1.05,.19,.13,.47,.22,.65,.32,.22,.12,.72-.29,.89-.2,.25,.12,.84,1.1,.52,1.43-.16,.17-1.21-.5-1.35-.34-.16,.17,0,.62-.15,.79s-.36,.27-.52,.44c-.29,.32-.1,.29,.24,.39,.26,.07,.25,1.38,.52,1.43,.29,.06,.6,.24,.85,.27,.2,.03,1.03-.89,1.08-.71,.05,.16-.7,.41-.81,.59-.12,.19-.75,.05-.86,.23-.11,.19,.21,.64,.1,.83s.2,.6,.09,.8c-.11,.19-.81,.67-.71,.83,.1,.15,.75,.46,.97,.5,.25,.04,.5,.29,.76,.33s.57-.17,.82-.13c.28,.04,.72-1.29,.95-1.26,.23,.03,0,1.3,.13,1.46,.16,.18,1.31,.34,1.24,.55-.07,.21-1.13,.09-1.19,.28s.59,.61,.53,.81c-.05,.19-.94,.17-1,.38-.06,.23,.3,.7,.5,.89,.17,.16,.53,.04,.79,.06,.25,.02,.42,1.02,.65,1.04s.54-.95,.78-.94,.45,.82,.69,.83,.49-1.14,.74-1.14c.23,0,.04,1.19,.23,1.31,.21,.13,1.6-.64,1.67-.44,.07,.22-.42,.62-.36,.83s-.31,.57-.25,.79,.63,.27,.7,.49c.08,.26-.02,.66,.27,.78s.68,.12,.93,0c.22-.11,.3-.46,.5-.57,.22-.12,.31-.4,.5-.52,.21-.13,.8,.31,.98,.18,.2-.15,.25-.49,.42-.64,.19-.16,.87,.16,1.03,0,.17-.18,.42-.39,.56-.57,.15-.19-.16-.77-.04-.97s.71-.22,.81-.43-1.06-.98-.97-1.2,.87-.18,.94-.41,.2-.44,.26-.67,.12-.45,.18-.69,.64-.31,.71-.54-.5-.62-.43-.85-.64-.69-.57-.93,.26-.43,.34-.66,.21-.44,.3-.67,1.23,.02,1.33-.2c.1-.21,.37-.31,.48-.53s-.49-.77-.37-.99c.11-.2,.23-.41,.36-.62s-.05-.59,.09-.8,1.05,.15,1.19-.05c.14-.19,.17-.43,.32-.62s-.55-1.11-.39-1.29,1.19,.46,1.36,.29,.58-.06,.75-.23-.37-1.09-.19-1.25,.42-.25,.61-.41,.09-.65,.27-.81,.93,.37,1.12,.22-.38-1.26-.19-1.41,.42-.26,.61-.4,.85,.3,1.04,.16,.28-.44,.47-.59,.02-.78,.21-.92,1.21,.76,1.4,.61,.41-.28,.59-.43c.19-.16-.51-1.36-.33-1.51,.19-.16,1.46,.89,1.63,.74,.19-.17,.05-.7,.21-.87,.18-.19,.73-.14,.85-.32,.16-.22,.05-.73,.12-.93,.09-.25-1.06-.43-1.12-.65-.06-.22,.85-1.01,.63-1.18-.17-.13-.99,.96-1.24,.86-.21-.08,0-1.53-.25-1.59-.22-.05-.61,.59-.86,.55-.23-.04-.45-.2-.7-.22-.23-.02-.48,.03-.73,.02-.23-.01-.47-.15-.72-.16-.24,0-.49,.81-.73,.81s-.47-.17-.71-.16-.5-.97-.75-.97-.5-.37-.75-.35-.49,.01-.73,.03-.47,.27-.71,.29-.39,1.12-.63,1.15-.54-.65-.78-.63-.54-.54-.79-.51-.3,1.6-.55,1.63-.54-.47-.78-.44-.41,.58-.65,.61-.55-.48-.79-.45-.5-.1-.74-.06-.35,.87-.59,.91-.63-.84-.87-.8-.39,.58-.63,.63-.61-.58-.84-.53-.3,1-.53,1.04-.69-.9-.93-.85-.41,.44-.64,.49-.59-.35-.82-.29-.54-.11-.77-.05-.16,1.32-.39,1.38-.71-.73-.94-.67-.62-.33-.85-.26-.23,.92-.46,.99-.67-.42-.89-.34c-.24,.08-.37,.45-.59,.54-.23,.09-.68-.31-.89-.22-.23,.1-.18,.84-.39,.94-.19,.08-.77,.16-.89,.36s.05,.78,.09,.97Z"/>
  <path class="cls-2" d="M15.23,31.05c0,.27-.12,.5-.09,.73s.1,.46,.15,.71c.04,.23-.63,.03-.95,.22-.2,.12,.24,1.28,.05,1.4s-.27,.35-.46,.47-.36,.2-.55,.34c-.17,.13-1.3-.92-1.49-.77-.17,.14-.44,.66-.51,.83-.1,.24,.37,1.07,.52,1.17,.19,.12,.88-.62,1.07-.52,.21,.12-.09,1.17,.07,1.25,.15,.08-.3-.45-.41-.22-.07,.14-.03,.11-.18,.26-.16,.16-.43,.24-.58,.4s.89,1.43,.74,1.6-.87-.19-1.02-.02c-.14,.16-.14,.44-.29,.63-.14,.17-.53,.18-.59,.34-.11,.28,.16,1.4,.34,1.38,.23-.02,.38-.88,.62-.89,.25-.01,.48,.18,.7,.19,.2,0,.94,.12,.89,.4-.03,.17-1.05,.09-1.17,.29-.13,.2-.6,.21-.71,.4-.12,.2,.98,1.06,.87,1.26s-.19,.39-.29,.6-.93,.06-1.02,.28c-.1,.23,.8,.39,.84,.58,.04,.26-.59,.29-.36,.29,.21,0,.41,1.17,.63,1.17s.44-.77,.64-.77c.23,0,.45-.75,.64-.75,.22,0,.73,.7,.81,.95,.06,.19-.46,.5-.52,.74-.07,.28,.74,.72,.69,.98s-.03,.51-.07,.79-1.42,.39-1.44,.67c-.02,.25,.61,.57,.73,.76,.14,.22,.36,.02,.58,0,.23-.03,.5,.4,.71,.36,.21-.04,.25-.73,.46-.79s.8,1.12,1.01,1.05c.3-.11,.4-.61,.51-.17,.06,.25-.12,.55-.06,.78s-.47,.69-.39,.92,1.18,.09,1.27,.32c.09,.23,.36-.23,.51-.16,.19,.09,.81,1.12,.93,.9,.11-.21-.1-.56,.02-.77s.28-.36,.41-.56-.54-.94-.4-1.14,.13-.54,.28-.72,.76-.01,.92-.19,.87,.16,1.04-.01-.35-1-.18-1.17,.25-.45,.42-.62,.46-.23,.64-.38,.02-.75,.21-.9,.82,.25,1.01,.11,.33-.37,.52-.51,1,.63,1.2,.5-.5-1.66-.3-1.79,.94,.61,1.15,.49,.27-.49,.48-.61,.15-.74,.36-.85,.33-.43,.54-.54,.69,.28,.91,.17,.93,.83,1.15,.73,.23-.63,.45-.72,.09-.98,.31-1.07,.83,.71,1.05,.61-.04-1.36,.18-1.45,.96,1.09,1.18,1,.44-.19,.66-.28-.02-1.4,.2-1.49,.44-.21,.66-.29,.53,.04,.75-.04,.86,.91,1.08,.83,.21-.83,.43-.91c.23-.09,.65,.34,.87,.26,.23-.09,.44-.23,.66-.31,.23-.09,.24-.72,.45-.81,.24-.1,.5-.08,.71-.18,.24-.11,.68,.19,.87,.08,.24-.14,.4-.45,.55-.59,.22-.2,.84-.58,.85-.78,0-.21-.93-.32-1.1-.55-.12-.17,.05-.66-.16-.84-.16-.14-.88,.45-1.1,.3-.18-.12-.06-.73-.27-.86-.2-.11,.04-1.07-.18-1.18-.2-.11-1,.94-1.23,.84-.21-.1-.23-.6-.46-.7-.21-.09-.59,.19-.82,.09s-.43-.19-.65-.28-.28-.59-.51-.67-.63,.34-.86,.26-.38-.33-.61-.4-.37-.38-.6-.45-.51,.05-.74-.02-.34-.5-.58-.57-.59,.32-.82,.26-.52,.1-.75,.04-.47-.06-.7-.12-.39-.39-.62-.45-.27-.9-.51-.96-.77,1.21-1,1.16-.38-.49-.61-.54-.45-.17-.69-.22-.36-.64-.6-.68-.4-.53-.63-.57-.45-.27-.69-.31-.68,1.24-.92,1.21-.44-.3-.68-.33-.51,.25-.75,.22-.42-.56-.65-.59-.48-.09-.72-.11-.52,.53-.76,.51-.41-1.29-.65-1.3-.52,1.29-.75,1.28-.47-.45-.7-.45-.45,.55-.68,.56-.54-1.09-.77-1.07c-.19,.02-.68,.02-.83,.15-.18,.14,.24,.72,.25,.89Z"/>
  <path class="cls-4" d="M40.9,38.33c-.06,.23-1.57-.03-1.66,.19s.47,.66,.36,.87,.76,1.06,.63,1.25-1.54-.58-1.69-.41-.09,.48-.27,.63-.29,.3-.5,.41-.53-.37-.76-.3-.2,.83-.44,.86-.54,1.1-.78,1.08c-.23-.02-.27-1.35-.51-1.41-.21-.06-.53,.22-.75,.16s-.42-.19-.64-.25-.23-.79-.44-.86-1,1.48-1.21,1.41,.19-1.72-.02-1.81c-.22-.09-.76,.56-.95,.45-.21-.12-1,.55-1.18,.41-.19-.14-.2-.73-.34-.9-.15-.18,.3-.82,.22-1.02s-.05-.38-.06-.62c0-.21,.12-.35,.19-.59,.08-.28,.53-.15,.64-.32,.15-.23-.39-.98-.18-1.06s.67-.9,.93-.86c.22,.03,.29,1.08,.54,1.17,.21,.08,.11,.9,.35,1,.21,.09,.77-.55,.99-.45s.09,.99,.32,1.08,.73-.44,.95-.36,.23,1.03,.46,1.09,.72-.93,.95-.92,.54,.6,.77,.57,.27-1.01,.5-1.07,.47,.03,.68-.05c.22-.08,.5,.02,.71-.06,.23-.09,.22-.79,.42-.87,.26-.1,.7,.35,.88,.33,.28-.04-.4,.24-.37,.52,.02,.16,1.38,.41,1.3,.71Z"/>
  <path class="cls-4" d="M39.73,38.52c-.24,.04-.61-1.33-.85-1.31s-.41,.65-.65,.64-.63,1.04-.86,1-.14-1.52-.37-1.59-.47,.1-.68,0-.39-.15-.58-.29,.08-.61-.08-.79-.8,.13-.92-.08-1.15-.06-1.23-.29c-.08-.22,1.01-.78,.97-1.03-.04-.22-.39-.39-.43-.63s0-.46-.04-.69,.57-.53,.54-.76-1.63-.3-1.65-.53,1.51-.54,1.5-.76c0-.24-.76-.46-.74-.68,.02-.24-.84-.67-.79-.88,.05-.23,.55-.48,.64-.68,.1-.21,.82-.09,.97-.26s.33-.21,.54-.32c.19-.09,.37-.05,.62-.09,.28-.05,.37,.38,.57,.41,.28,.04,.71-.69,.87-.53s1.04,.25,1.11,.5c.06,.21-.79,.7-.77,.96,.02,.23-.71,.48-.7,.73,0,.23,.76,.47,.76,.72s-.79,.49-.79,.74,.65,.48,.67,.72-.77,.62-.73,.86,1.06,.28,1.15,.49-.28,.71-.15,.91,.97-.13,1.12,.05,.18,.43,.34,.59c.17,.17,.2,.46,.36,.61,.18,.17,.77-.1,.92,.05,.19,.19,0,.75,.1,.9,.16,.24-.34-.21-.58-.06-.13,.08,.16,1.33-.15,1.38Z"/>
</svg>