<?xml version="1.0" encoding="UTF-8"?>
<svg xmlns="http://www.w3.org/2000/svg" viewBox="0 0 45 45">
  <defs>
    <style>
      .cls-1 {
        isolation: isolate;
      }

      .cls-2 {
        mix-blend-mode: multiply;
        opacity: .8;
      }

      .cls-3 {
        fill: #9e4997;
      }

      .cls-4 {
        fill: #c38d9f;
      }

      .cls-5 {
        fill: #e4c0da;
      }
    </style>
  </defs>
  <g class="cls-1">
    <g id="_圖層_6" data-name="圖層 6">
      <g>
        <polygon class="cls-3" points="38.78 13.33 38.76 14.1 40.39 14.22 40.14 15.1 40.1 15.88 40.98 16.35 40.93 17.13 41.03 17.86 40.3 18.77 40.96 19.35 41.66 19.95 41.57 20.71 41.36 21.46 42.3 22.09 41.66 22.88 41.43 23.61 41.01 24.33 41.27 25.03 42.42 25.78 41.66 26.48 41.44 27.18 40.87 27.82 41.75 28.68 41.73 29.42 40.85 29.97 41.58 30.91 41.48 31.66 40.3 32.03 39.57 32.5 40.14 33.51 40.04 34.27 39.98 35.09 38.42 35 38.64 35.99 37.64 36.14 38.29 37.59 36.68 37.12 36.37 37.79 36.03 38.45 35.6 39.04 34.84 39.2 34.1 39.35 33.59 39.85 33.06 40.33 32.42 40.62 31.95 41.3 31.18 41.33 30.85 42.51 30.18 42.85 29.42 42.91 28.58 42.61 28.01 43.36 27.1 42.61 26.42 42.88 25.65 42.55 25.04 43.49 24.3 43.35 23.52 42.54 22.84 42.99 22.12 42.63 21.4 43.18 20.64 44.06 20.01 42.68 19.23 43.28 18.54 42.95 17.84 42.81 17.17 42.49 16.56 41.99 15.64 42.7 14.97 42.38 14.54 41.4 13.57 41.98 12.68 42.2 12.07 41.73 11.64 40.95 11.08 40.47 10.78 39.6 10.03 39.47 9.02 39.63 8.93 38.59 7.68 38.9 7.38 38.14 6.81 37.66 6.06 37.3 5.57 36.72 5.66 35.75 5.02 35.28 5.26 34.32 4.73 33.77 4.72 32.99 3.78 32.57 3.46 31.89 3.9 30.99 3.4 30.37 3.2 29.66 3.22 28.91 3.71 28.11 2.58 27.51 3.05 26.73 3.75 25.98 3.76 25.27 3.45 24.56 2.93 23.82 3.1 23.1 2.82 22.35 2.99 21.63 3.4 20.95 2.89 20.12 2.8 19.35 3.85 18.82 3.86 18.08 4.25 17.43 4.89 16.88 4.36 15.95 4.1 15.07 5.71 14.91 5.08 13.87 5.12 13.08 5.4 12.39 5.83 11.78 6.53 11.32 6.32 10.34 6.73 9.71 8.24 9.85 8.64 9.26 8.96 8.61 9.37 8.02 10.07 7.7 10.61 7.24 10.59 6.2 10.98 5.53 11.43 4.9 12.5 5.12 12.89 4.42 13.24 3.58 14.02 3.44 14.68 3.13 15.17 2.43 16.17 2.94 16.61 2.03 17.69 3.07 18.32 2.77 19.02 2.76 19.54 1.64 20.26 1.56 21.06 2.44 21.72 1.76 22.43 1.68 23.18 .94 23.85 1.87 24.49 2.43 25.19 2.45 26.03 1.85 26.73 2.05 27.26 2.79 27.98 2.85 28.95 2.32 29.41 3.11 30.08 3.38 30.8 3.56 31.15 4.4 32.09 4.24 32.57 4.81 33.47 4.82 33.69 5.73 34.42 5.98 34.54 6.91 34.74 7.71 35.97 7.52 36.43 8.09 37.11 8.48 37.36 9.21 37.7 9.85 38.01 10.52 38.89 10.84 38.74 11.76 38.24 12.81 38.78 13.33"/>
        <polygon class="cls-5" points="23.26 13.99 22.21 13.25 21.86 12.76 21.59 12.03 20.91 11.78 20.97 10.66 20.18 10.43 19.64 9.84 19.73 9.07 19.1 8.39 20.39 7.6 19.57 7 18.66 6.75 18.9 5.2 18.03 6.1 17.3 6.27 17.04 6.98 16.1 7.16 16.94 8.47 15.45 8.37 14.87 8.65 14.56 9.79 13.72 9.28 12.93 8.74 12.45 10.23 11.88 10.31 11.35 10.52 11.92 10.87 11.71 11.77 12.51 11.88 12.48 13.17 13.06 13.43 14.08 13.62 13.72 14.54 14.84 15.25 14.75 15.89 14.32 16.58 13.59 17.47 14.62 17.88 15.16 18.22 15.61 17.81 15.79 17.22 16.42 17.02 16.87 16.56 17.43 16.13 17.89 15.46 18.84 15.46 19.27 14.57 20.1 14.97 20.79 14.52 21.39 14.14 22.33 14.62 23.26 13.99"/>
        <polygon class="cls-5" points="18.1 22.59 17.14 22.12 16.37 22 15.87 21.15 14.95 20.72 15.06 20.01 14.79 19.37 14.13 19.37 13.96 19.81 13.67 20.29 12.66 20.72 12.53 21.15 12.23 21.51 12 22.17 11.08 22.27 11.1 23.15 11.51 23.27 11.98 24.31 13.06 24.12 13.3 25.1 13.14 25.88 14.03 26.11 14.37 26.77 15.16 26.39 14.9 25.51 15.29 24.94 15.43 24.31 16.01 23.99 16.62 24.02 17.12 23.1 18.1 22.59"/>
        <g class="cls-2">
          <polygon class="cls-4" points="32.2 5.15 31.48 5.39 31.64 6.14 31.79 6.84 32.3 7.28 33.41 7.34 33.06 8.34 34.31 8.39 33.88 9.39 34.23 9.92 35.15 10.19 34.52 11.17 35.17 11.7 35.97 12.2 35.4 13.16 35.9 13.77 35.55 14.62 36.88 15.04 36.46 15.89 36.13 16.7 37.26 17.23 36.74 18.06 36.77 18.81 37.12 19.51 37.67 20.23 36.99 21.01 37.64 21.77 37.66 22.53 36.65 23.19 36.95 23.97 37.13 24.77 36.45 25.38 35.85 25.98 36.82 27.09 35.9 27.51 36.01 28.35 34.68 28.55 34.96 29.47 34.32 29.98 33.92 30.57 34.39 31.57 34.02 32.12 33.88 32.85 32.61 32.69 32.34 33.41 32.68 34.58 31.58 34.68 30.88 35.06 30.91 36.07 30.04 36.26 29.57 36.84 28.67 36.92 28.47 37.82 28.16 38.64 27.63 39.19 27.09 39.77 26.2 39.76 25.34 39.72 24.98 40.66 23.85 39.88 23.38 40.45 22.96 41.25 22.46 41.97 21.73 42.05 20.94 41.77 20.2 41.52 19.59 42.1 18.89 41.89 19.65 41.55 20.29 42.13 21.04 41.6 21.74 41.66 22.41 42.93 23.14 42.74 23.84 42.16 24.58 42.46 25.31 42.51 25.94 41.74 26.65 41.71 27.34 41.57 27.98 41.21 28.88 41.89 29.62 41.79 30.03 40.74 30.88 41 31.67 40.98 32.46 40.91 32.98 40.31 33.37 39.55 33.62 38.66 34.87 39.14 35.1 38.26 36.14 38.34 36.35 37.48 37.02 37.11 37.15 36.25 37.67 35.75 37.48 34.73 38.76 34.73 38.18 33.54 38.92 33.15 38.85 32.33 39.6 31.9 39.32 31.03 40.36 30.66 40.81 30.05 41 29.34 40.94 28.58 41.49 27.96 40.86 27.11 41.63 26.5 42.04 25.81 41.94 25.06 40.91 24.28 40.7 23.58 41.02 22.88 40.85 22.18 41.58 21.42 41.43 20.71 41.69 19.94 40.6 19.38 41.25 18.54 40.23 18.03 40.37 17.26 41.02 16.34 40.6 15.7 40.32 15.03 39.12 14.71 40.15 13.52 39.59 12.96 39.18 12.35 38.46 11.91 37.85 11.44 37.38 10.91 37.96 9.68 36.95 9.5 36.38 9.04 36.55 7.98 35.43 8.01 35.3 7.15 34.88 6.55 34 6.46 33.22 6.3 32.73 5.8 32.89 4.36 32.2 5.15"/>
        </g>
      </g>
    </g>
  </g>
</svg>