<?xml version="1.0" encoding="UTF-8"?>
<svg xmlns="http://www.w3.org/2000/svg" viewBox="0 0 60 60">
  <defs>
    <style>
      .cls-1 {
        fill: #40220f;
      }

      .cls-2 {
        fill: #dbaab8;
      }

      .cls-3 {
        isolation: isolate;
      }

      .cls-4 {
        mix-blend-mode: multiply;
        opacity: .8;
      }

      .cls-5 {
        fill: #7db570;
      }

      .cls-6 {
        fill: #a0d098;
      }

      .cls-7 {
        fill: #56a34e;
      }
    </style>
  </defs>
  <g class="cls-3">
    <g id="_圖層_6" data-name="圖層 6">
      <g>
        <path class="cls-7" d="M54.71,46.31c-.23,.09-.49,.09-.71,.17s-.89-1.05-1.12-.97-.06,1.26-.29,1.34-.61-.3-.84-.22-.38,.37-.61,.45-.63-.37-.86-.3-.57-.21-.8-.14,.03,1.74-.2,1.81-.59-.26-.82-.2-.63-.44-.86-.38-.58-.29-.81-.23-.5-.02-.73,.05-.18,1.22-.41,1.28-.63-.54-.87-.48-.22,1.15-.46,1.2-.63-.58-.87-.53-.44,.26-.67,.31-.67-.89-.91-.84-.41,.38-.64,.43-.46,.12-.7,.16-.41,.45-.64,.49-.41,.5-.65,.54-.6-.79-.84-.76-.31,1.28-.55,1.31-.59-.78-.82-.75-.39,.81-.63,.83-.61-1.23-.85-1.21-.45,.32-.69,.34-.48-.11-.72-.09-.48-.05-.72-.04-.41,1.35-.65,1.36-.52-1.11-.76-1.11-.46,.84-.7,.85-.49-.8-.73-.8-.48,.86-.72,.86-.48-.09-.72-.09-.46-.67-.7-.68-.5,.6-.74,.59-.47-.22-.71-.23-.42-.88-.66-.9-.52,.61-.76,.59-.49,.13-.73,.11-.39-.86-.63-.88-.61,1.1-.84,1.07-.35-1.01-.59-1.05-.49,.07-.73,.03-.62,.89-.86,.85-.32-1.04-.55-1.07-.65,.93-.88,.88-.38-.61-.61-.66-.47-.1-.7-.15-.51,.08-.74,.02-.4-.43-.63-.49-.36-.54-.6-.6-.42-.27-.66-.32-.44-.17-.68-.23-.66,.65-.89,.59-.33-.62-.56-.69-.67,.64-.9,.57-.29-.72-.52-.79-.46-.13-.69-.2-.78,.89-1.01,.82-.3-.65-.53-.73-.22-.87-.45-.95-.72,.65-.95,.57-.36-.43-.59-.51-.73,.6-.96,.52,.05-1.56-.18-1.64-.58,.19-.81,.1-.3-.42-.52-.53-.72,.31-.92,.17-.09-.66-.28-.82-.56-.09-.72-.27-.2-.44-.35-.64-.61-.19-.73-.41-.29-.43-.38-.66-.35-.44-.42-.68,.26-.58,.22-.82-.84-.47-.84-.72,1.58-.43,1.61-.67-.48-.51-.42-.75-.37-.58-.32-.81,.42-.4,.48-.63-.27-.55-.22-.79,.46-.39,.51-.62-.5-.61-.45-.84,.95-.28,1-.51,.49-.38,.55-.62-1.18-.76-1.12-.99,.77-.32,.82-.55,.5-.38,.55-.61-.17-.53-.12-.76-.63-.63-.58-.87,.71-.33,.76-.57-.52-.61-.47-.85,.9-.29,.96-.52,.43-.39,.49-.63-.29-.56-.23-.79-.5-.61-.45-.84,.66-.34,.71-.58-.47-.6-.42-.83,.46-.39,.51-.62-.56-.62-.5-.85,1.67-.11,1.72-.35-1.27-.78-1.22-1.01,1.5-.15,1.55-.39-.3-.56-.25-.79-.1-.52-.05-.75-.59-.63-.53-.86,.35-.41,.4-.65,.81-.28,.88-.51-.07-.51,.02-.73,.53-.28,.63-.5-.18-.59-.07-.8-.59-.9-.47-1.1,1.32,.26,1.46,.07-.07-.62,.08-.81,.58-.12,.73-.3-.43-1.07-.26-1.24,.41-.31,.59-.47,.62-.03,.81-.18,.25-.5,.45-.63,.71,.21,.91,.09,.16-.71,.37-.82,.69,.33,.91,.23,.4-.26,.62-.34,.29-.68,.52-.74,.38-.61,.61-.67,.62,.55,.86,.51,.53,.43,.77,.41,.45-.55,.69-.56,.48,.23,.72,.24,.43,.46,.67,.49,.38,.42,.62,.46,.64-.83,.88-.79,.43,.43,.67,.46,.57-.55,.81-.52,.42,.51,.66,.54,.54-.4,.78-.37,.47,.13,.71,.15,.4,.96,.64,.98,.54-.55,.78-.53,.43,.79,.68,.8,.5-.14,.75-.12,.55-1.39,.8-1.38,.45,.98,.69,.99,.51-.95,.75-.95,.48,.15,.72,.15,.48,.67,.73,.67,.47-.81,.71-.82,.53,1.66,.77,1.65,.48-.49,.72-.5,.47-.39,.71-.4,.46-.38,.7-.4,.47-.19,.71-.21,.55,.72,.79,.7,.42-.72,.66-.75,.51,.18,.75,.16,.4-.66,.64-.69,.52,.26,.76,.22,.6,.76,.84,.72,.47-.19,.71-.23,.54,.23,.78,.19,.46,.11,.7,.09,.39-.95,.63-.96,.5-.48,.74-.48,.48,.47,.72,.49,.51-.09,.75-.05,.58-.31,.81-.26,.26,.99,.49,1.06,.69-.55,.92-.46,.09,1.09,.31,1.18,.96-.89,1.17-.78-.24,1.44-.03,1.56,.8-.39,1-.25,.78-.21,.97-.06,.18,.59,.36,.75-.06,.77,.11,.94,1.01-.27,1.17-.09,.1,.59,.24,.78-.13,.7,0,.89,.03,.53,.15,.74-.05,.53,.06,.75,.66,.19,.76,.41,.5,.31,.59,.54-.62,.69-.55,.92,.68,.29,.74,.53,.42,.4,.47,.63-.13,.52-.08,.76-.04,.5,.02,.74-.41,.58-.35,.82,1.57,.14,1.62,.37-.82,.68-.76,.91,.17,.45,.23,.69-.28,.56-.22,.79-.24,.55-.19,.78,.47,.39,.52,.62,1.06,.25,1.11,.49-1.09,.74-1.04,.97,.03,.49,.09,.72,.47,.39,.52,.62,.14,.46,.19,.7,.41,.4,.46,.63,.57,.36,.63,.6,.12,.46,.17,.7,.33,.42,.39,.65-.52,.61-.46,.84,.39,.4,.44,.64,.58,.36,.63,.6-.69,.65-.64,.88-.65,.64-.6,.87,.85,.3,.9,.54-.39,.58-.34,.82,.32,.42,.37,.65,.96,.27,1.02,.51-.72,.66-.67,.89,.47,.42,.5,.66-.46,.5-.47,.74,.1,.47,.07,.71,.64,.65,.57,.88-.86,.25-.96,.47-.28,.37-.4,.58-.34,.3-.48,.5,0,.58-.17,.76-.6,.02-.79,.18-.13,.55-.33,.69-.05,.9-.27,1.02-.48,.28-.71,.36Z"/>
        <path class="cls-5" d="M52.06,30.94c-.16-.18-.51-.2-.66-.38s-.34-.34-.5-.52-.16-.5-.32-.68-.42-.27-.58-.45-.25-.43-.41-.61-.84,.12-1-.06,.15-.79-.02-.96-.5-.2-.66-.37-.35-.33-.51-.51-.24-.43-.41-.61-.22-.46-.39-.63-.63-.06-.8-.23,.02-.68-.15-.86-.31-.37-.48-.54-.63-.06-.79-.23,.07-.75-.1-.92-.68,0-.85-.18-.38-.3-.55-.47-.54-.14-.71-.31-.1-.58-.28-.75c-.21-.21-.74-.1-.95-.3-.17-.17,.41-.8,.35-1-.06-.22-.4-.35-.34-.55s.03-.57,.18-.72,.59,.31,.81,.27c.2-.04,.39-.6,.62-.52,.35,.12,.23,.46,.57,.58s.36,.08,.71,.2,.49-.31,.84-.19,.25,.39,.6,.51,.19,.57,.54,.69,.31,.24,.65,.36,.68-.83,1.02-.71,.24,.42,.59,.54,.39,0,.74,.11,.3,.27,.65,.39c.29,.09,.45,.04,.65-.07,.23-.11,.42-.21,.51-.45s-.11-.38-.2-.62c-.09-.21,.13-.81-.15-.93,0,0-.52,.56-.92,.4-.18-.08-.11-.85-.35-.95-.2-.08-.56,.19-.79,.09-.2-.08-.5,.02-.72-.08-.2-.09-.23-.62-.46-.71-.21-.09-.46-.1-.68-.19-.21-.09-.63,.32-.85,.23s-.27-.55-.49-.64-.3-.48-.51-.57-.75,.58-.97,.49-.08-1.02-.3-1.11-.82,.46-1,.32c-.19-.15,.13-.8,0-.99s-.91-.07-.99-.29,.9-.64,.88-.87-.34-.37-.3-.6,.37-.25,.47-.46-.35-.73-.19-.9,.67,.17,.87,.05c.19-.12,.29-.14,.53-.21,.03,0-.2-.84-.18-.85,.29-.09,.11,.03,.07-.23s.18-.48-.13-.49c-.23,0-.47,.4-.73,.4-.23,0-.47,.04-.73,.05-.24,0-.48,0-.73,0-.24,.01-.5-.33-.75-.31s-.51-.28-.75-.26-.44,.58-.69,.6-.51-.26-.75-.24-.45,.48-.7,.5-.55-.59-.79-.56-.5-.06-.75-.03-.49,.07-.74,.09-.46,.36-.7,.39-.45,.44-.68,.47c-.25,.03-.54-.33-.78-.3-.26,.03-.52-.12-.76-.08-.26,.04-.42,.59-.65,.63-.27,.04-.49,.15-.7,.19-.31,.05-.75-.79-.91-.74s-.26,.61-.42,.59c-.23-.04-.45-.15-.68-.19s-.36-.73-.59-.77-.56,.54-.79,.51-.4-.43-.64-.47-.49,.07-.72,.03-.48,.04-.71,0-.55,.53-.78,.5-.33-1.01-.56-1.04-.56,.66-.79,.63-.45-.14-.68-.16-.4-.67-.63-.69-.49,.14-.72,.12-.51,.57-.74,.56-.44-.53-.67-.54-.46-.45-.69-.45-.48,.59-.71,.59-.48-.54-.71-.54-.43,.88-.66,.89c-.23,.02-.58-.37-.68-.2s-.35,.6-.3,.79,.43,.64,.65,.71c.03,0,.03,.09,.06,.1,.24,.08,.37,.08,.56,.21,.2,.14,.53,.04,.67,.23s.9,.14,.99,.36-.81,.69-.8,.93-.01,.36-.07,.6,.42,.66,.29,.87-.55,.16-.74,.32c-.18,.15-.05,.95-.28,1.05s-.88-.78-1.12-.68-.01,1.22-.24,1.32-.49,.12-.72,.23-.74-.41-.96-.3-.3,.54-.53,.65-.32,.5-.54,.61-.48,.15-.71,.26-.63-.16-.86-.05-.46,.21-.68,.32-.48,.17-.7,.29c-.22,.11-.89,.1-.96,.28-.07,.2,.67,.55,.74,.75s-.18,.83,.01,.93c.17,.09,.74,.3,.98,.24,.22-.06,.38-.38,.6-.44s.47-.05,.69-.11,.34-.49,.56-.55,.34-.48,.56-.54,.67,.63,.89,.56,.49,.02,.71-.05,.17-1.01,.39-1.08,.72,.75,.94,.68,.05-1.33,.27-1.4,.83,1.04,1.04,.96,.12-1.09,.34-1.16,.67-.16,.87-.12c.22,.05,.55,.36,.71,.51s.21,.53,.28,.74-.49,.38-.54,.59c-.05,.2,.33,.59,.16,.76-.24,.24-.77,.2-1.01,.44-.17,.17,.19,.87,.02,1.04s-.88-.19-1.05-.02,.32,.99,.15,1.16-.37,.31-.53,.49-1.2-.49-1.37-.32,.25,.91,.08,1.08-.33,.35-.5,.52-.81-.11-.98,.07,.08,.74-.08,.92-.74-.03-.91,.14-.11,.56-.27,.74-.15,.52-.31,.7-.3,.37-.47,.55-.2,.47-.36,.65-.81-.08-.97,.1-.13,.53-.29,.71-.54,.17-.7,.35,.04,.67-.12,.86-.37,.32-.53,.5-.53,.18-.68,.37c-.19,.22-.15,.84,.04,1.08,.21,.28,.76,.22,1.04,0,.19-.15,.66,.06,.85-.09s.39-.29,.58-.44,.05-.71,.24-.86,.59-.04,.77-.19,.54-.1,.73-.25,.44-.23,.63-.38-.01-.77,.18-.93,.11-.62,.3-.77,.73,.13,.92-.03-.05-.8,.13-.96c.19-.17,.61-.06,.8-.22s.46-.24,.65-.41,.25-.48,.44-.65,.73,.07,.92-.09,.28-.44,.47-.61,.25-.48,.44-.65,.2-.54,.39-.7,.89,.25,1.07,.08,.26-.47,.45-.63,.09-.66,.28-.82,.4-.43,.6-.47c.22-.04,.57,.04,.77,.11s.15,.54,.29,.71-.16,.31-.13,.54c.03,.2,.65,.39,.55,.61-.09,.2-.67,.2-.75,.4s-.18,.41-.27,.61c-.09,.23,.09,.57,0,.8s.19,.61,.1,.83,.11,.58,.02,.8-1.06,.09-1.16,.32-.31,.41-.4,.63,.84,.87,.75,1.09-.57,.3-.66,.52-.2,.45-.29,.68-.73,.24-.82,.47,.03,.54-.06,.77-.11,.48-.2,.71-.61,.29-.7,.52-.1,.49-.18,.72,.03,.54-.05,.77,.09,.56,0,.79-.07,.49-.16,.72-.84,.21-.93,.44,.75,.79,.67,1.02-1.1,.13-1.18,.36,.87,.82,.78,1.05-.91,.2-.99,.43c-.1,.27,.49,.51,.58,.72,.11,.23,.28,0,.51,.09s.11,.18,.35,.11c.22-.07,.95,.45,1.08,.2,.12-.22,.22-.44,.34-.65s-.1-.61,.02-.82-.21-.66-.09-.88,.75-.16,.86-.38,.38-.36,.49-.57-.21-.66-.1-.87,.4-.35,.51-.56,.1-.5,.21-.72,.66-.22,.77-.44,.04-.53,.15-.75,.32-.39,.43-.61,.27-.41,.38-.63,.02-.53,.13-.75-.37-.72-.26-.94,.06-.51,.16-.73,.66-.23,.76-.45-.1-.59,0-.81,.64-.24,.75-.46-.28-.67-.18-.89,.82-.16,.93-.38,.37-.37,.47-.59,.45-.33,.56-.55,.11-.49,.21-.71-.61-.81-.51-1.03c.11-.25,.81,.06,1.01-.05,.22-.11,.3-.37,.54-.32s.26,.27,.42,.46c.14,.17,1.1,.21,1.1,.49,0,.24-.32,.48-.32,.73s-.8,.49-.8,.74,.47,.47,.47,.72,.39,.48,.4,.72-.42,.49-.42,.73,.56,.48,.56,.72-.87,.5-.87,.75,.9,.47,.91,.72-.13,.49-.12,.74-.72,.51-.72,.75-.06,.49-.06,.74,.12,.49,.13,.73,.64,.47,.64,.71-.33,.5-.33,.74c0,.25-.27,.5-.26,.73,0,.25,.16,.49,.17,.72,0,.23,.34,.45,.34,.68s-.25,.47-.24,.7,.73,.43,.74,.66-.94,.5-.93,.73,.7,.43,.72,.66-.15,.47-.14,.7,.25,.45,.26,.68,.15,.45,.16,.68-.43,.49-.42,.72,.07,.46,.09,.69-.59,.5-.57,.73,.22,.45,.23,.68c0,0,.6-.03,.6-.03,0,.28-.25,.67-.07,.85s.57,.19,.85,.19,.2-.48,.38-.66,.94-.09,.94-.37c.02-.24-.14-.48-.13-.72s-.35-.5-.34-.74-.13-.49-.11-.73,1.01-.42,1.03-.67-.66-.52-.64-.76-.08-.49-.07-.73-.16-.49-.15-.73,.96-.44,.97-.68-.68-.51-.67-.75-.35-.5-.34-.74,1.14-.44,1.15-.68-1.12-.52-1.11-.76,1.17-.44,1.18-.68-.04-.48-.04-.72-.1-.49-.1-.73-.16-.49-.15-.73,.28-.47,.28-.72-.42-.49-.41-.73,.44-.47,.45-.71-1.02-.5-1.01-.74,.22-.48,.22-.72,.43-.47,.43-.71-.43-.49-.43-.73c0-.21,.13-.43,.13-.64s.45-.43,.45-.64-.78-.44-.78-.65c0-.24,.98-.21,1.09-.38,.12-.19-.22-.82-.03-.92s.53,.21,.75,.22,.38,.05,.56,.18c.17,.12,.95-.05,1.04,.18,.09,.21-.86,.87-.77,1.08,.1,.22,.99,.1,1.09,.32s.24,.42,.34,.65-.54,.78-.44,1,.49,.31,.59,.53-.25,.65-.15,.87,.93,.11,1.03,.33-.08,.57,.02,.79,.3,.4,.4,.62,.57,.27,.68,.49-.68,.86-.57,1.08,.32,.39,.43,.61,.42,.34,.53,.56,.53,.28,.64,.5,.5,.29,.61,.51-.41,.75-.3,.96,.5,.29,.61,.51-.23,.66-.12,.88,.16,.47,.27,.68,.11,.49,.22,.71,.53,.27,.64,.49,.83,.11,.94,.33c.13,.25,.13,.14,.35,.21,.24,.08,.41,.65,.64,.56s.08-.56,.19-.78c.1-.2-.15-.13-.23-.4-.07-.23,.01-.51-.06-.75s.78-.76,.71-.99-1.08-.16-1.15-.4,.81-.78,.73-1.01-.47-.36-.54-.59-.46-.36-.54-.59-.22-.44-.3-.67-.17-.46-.25-.69-.44-.36-.52-.59,.37-.65,.28-.88-.87-.2-.95-.43,.33-.64,.25-.87-.45-.35-.54-.58,.71-.79,.63-1.01-1.08-.11-1.17-.34,.72-.8,.64-1.02-.85-.19-.94-.42,.2-.6,.11-.82-.32-.4-.41-.62-.28-.41-.37-.64-.54-.3-.63-.53c-.12-.29,.14-.74,.03-1.03-.09-.23-.56-.53-.53-.73,.03-.22,1.03,0,1.17-.16s0-.41,.21-.48,.26,.05,.48,.1c.2,.04,.67-.45,.85-.28,.02,.02-.21,.27-.19,.29,.18,.16,.22,.48,.39,.64s.16,.54,.34,.7,.52,.15,.7,.31,.48,.18,.66,.34,.59,.06,.77,.22,.64,0,.82,.16-.1,.84,.08,1,.38,.3,.56,.45,.32,.37,.5,.53,.64-.01,.83,.15,.05,.68,.23,.84,.43,.24,.61,.4,.28,.42,.46,.57,.42,.25,.61,.4,.78-.2,.97-.04-.26,1.08-.08,1.23,.9-.34,1.08-.19-.19,1.01,0,1.16,.46,.2,.65,.35,.99-.49,1.18-.34c.19,.14,.06,.93,.29,.92s.17-.65,.36-.81c.21-.18,.43-.13,.45-.39s.34-.71,.16-.92Z"/>
        <path class="cls-6" d="M42.62,13.96c0,.24-.7,.48-.72,.71s.06,.49,.03,.72-.61,.37-.66,.6,.5,.6,.43,.83,.36,.65,.27,.87-.9,.16-1,.38,.43,.79,.31,.99-1.2-.2-1.34,0,.71,1.16,.56,1.34-1.17-.41-1.34-.24-.45,.15-.63,.31,.33,1.17,.13,1.31-.35,.4-.55,.53-.77-.35-.98-.24-.12,.86-.34,.96-.57-.07-.8,.02-.65-.4-.88-.33-.23,.92-.46,.99-.57-.28-.81-.23-.55-.4-.79-.36-.38,.69-.62,.72-.47,.21-.71,.23-.51-.44-.75-.43-.47,.25-.72,.25-.48-.14-.72-.15-.52,.43-.75,.41-.38-1.01-.62-1.04-.48,.07-.71,.03-.49,.09-.73,.04-.47-.08-.7-.14-.34-.48-.57-.55-.69,.53-.91,.45-.18-.8-.39-.9-.96,.85-1.17,.74-.14-.77-.34-.9-.43-.23-.62-.37-.39-.29-.57-.45-.64-.05-.81-.22,.07-.74-.08-.92-.87,.03-1.01-.16,.33-.81,.21-1.01,.22-.62,.11-.84-.51-.26-.6-.49-.59-.31-.66-.54-.16-.47-.21-.71,.35-.54,.32-.78-.11-.46-.13-.7-.14-.47-.14-.71c0-.26,.02-.51,.04-.73,.01-.26,.56-.43,.59-.66,.04-.26-.64-.63-.58-.85,.07-.26,.92-.11,1.03-.3,.13-.22-.44-.93-.25-1.08s.55-.1,.79-.18c.21-.07,.45-.24,.71-.28,.22-.03,.49,.05,.75,.05,.23,0,.44,.73,.7,.74,.23,.01,.53-.94,.78-.92,.23,.02,.47,.1,.72,.12,.23,.02,.39,.94,.64,.97,.23,.02,.57-1,.82-.98,.23,.02,.42,.65,.67,.67,.24,.02,.46,.36,.71,.38s.5-.3,.75-.29,.5-.53,.75-.52,.48-.05,.72-.05,.48-.17,.73-.17,.48,.6,.73,.59,.47-.1,.7-.11,.48,.11,.71,.1,.44-.67,.67-.68,.55,1.27,.78,1.25,.45-.39,.68-.41c.24-.02,.48,0,.71-.03,.24-.02,.39-.94,.62-.96,.24-.02,.5,.2,.72,.18,.24-.02,.46-.23,.68-.26,.24-.02,.53,.44,.75,.42,.25-.02,.52,.48,.74,.47,.25-.02,.45-.49,.67-.5,.25,0,.5-.6,.72-.59,.25,.01,.56,.05,.77,.09,.25,.05,.38,.6,.57,.7,.21,.11,.25,.37,.41,.56,.14,.16-.23,.51-.13,.74,.08,.2,.46,.23,.51,.48,.04,.21,.29,.38,.32,.63,.02,.22-.07,.45-.06,.7,0,.22,.82,.45,.82,.7Z"/>
        <g>
          <path class="cls-1" d="M12.49,21.18c-.15,.12-.78-.34-.93-.22-.1,.09-.13,.42-.17,.54-.06,.12-.2,.35-.19,.49,0,.14,0,.42,.07,.54,.04,.12,.72-.21,.81-.12,.07,.05-.26,.63-.2,.68,.16,.09,.47-.3,.65-.3,.09-.01,.25,.44,.33,.42,.17-.05,.1-.57,.23-.69,.15-.12,.34-.21,.5-.33,.1-.09,.47,.02,.51-.1,.06-.12-.25-.32-.26-.46,0-.14,.09-.25,.03-.37-.04-.12,.23-.59,.13-.68-.07-.05-.39,.17-.46,.12-.16-.09-.36-.05-.54-.05-.09,.01-.28-.44-.37-.43-.17,.05,0,.52-.12,.65,.03,.16-.02,.3-.02,.3Z"/>
          <path class="cls-1" d="M17.78,28.58c-.02,.1-.12,.25-.16,.35,.03-.08-.72-.5-.69-.58-.05,.11,.57,.58,.5,.67,.05-.07-.15-.33-.1-.4-.06,.08-.01,.25-.08,.31-.1,.09-.49,.03-.53,.16-.06,.12-.36,.37-.36,.51,0,.14,1.09,.05,1.15,.17,.04,.12-.22,.24-.12,.33,.07,.05-.11,.42-.04,.47,.16,.09,.41,.45,.59,.45,.09-.01,.28,.06,.37,.05,.17-.05,.04-.81,.16-.94,.06-.05,.45,.19,.5,.13,.1-.12-.38-.63-.3-.77s.55-.06,.61-.21c.03-.08-.05-.19-.04-.27,.04-.13,.71-.31,.68-.44,0-.13-.28-.36-.36-.48-.06-.12-.25-.29-.36-.36-.1-.09-.39,.03-.52,0-.09-.01-.2,.26-.29,.25-.18,0-.54-.47-.7-.38-.07,.05,.36,.74,.3,.79-.12,.12-.58,.05-.63,.22,.14,.11,.43-.04,.43-.04Z"/>
          <path class="cls-1" d="M24.15,31.3s.39,0,.4,.02c-.01-.09-.2-.15-.21-.24,.01,.11-.37,.2-.39,.32,.01-.09,.01-.2,.03-.28-.02,.11,.37,.29,.32,.4,.03-.08,.04-.17,.07-.25,0,.02,.38,.29,.37,.31-.07,.11-.63-.03-.63,.1-.03,.13,.04,.28,.08,.42,.03,.13-.15,.44-.06,.54,.07,.11,.67-.5,.79-.43,.08,.03-.03,.41,.05,.44,.18,.05,.16-.28,.34-.33,.08-.03,.2,.2,.28,.17,.15-.09,.18-.11,.26-.26,.07-.14,.82-.04,.87-.19s-.1-.41-.08-.56c.03-.23-.27-.52-.32-.74-.03-.13-.16-.22-.25-.32-.07-.11-.09-.31-.21-.37-.11-.07-.24-.42-.38-.43-.13-.03-.5-.1-.63-.06-.08,.03-.21,.14-.29,.17-.15,.09-.32,.48-.41,.63-.03,.08,.3,.33,.26,.41-.05,.18-.48,.14-.43,.31-.04,.07,.18,.22,.18,.22Z"/>
          <path class="cls-1" d="M22.6,24.92s.37,.1,.37,.13c.01-.09-.15-.2-.13-.29-.02,.11-.41,.09-.45,.2,.04-.08,.07-.18,.1-.27-.05,.1,.26,.38,.19,.47,.05-.07,.08-.15,.14-.22-.02,.02,.28,.38,.26,.4-.1,.09-.58-.2-.63-.07-.07,.12-.04,.28-.04,.42,0,.13-.26,.38-.21,.5,.04,.12,.77-.28,.86-.19,.07,.05-.14,.38-.07,.43,.16,.1,.23-.22,.42-.21,.09-.01,.14,.24,.22,.23,.17-.04,.2-.06,.33-.18,.1-.12,.79,.18,.87,.05s.02-.42,.08-.56c.09-.21-.11-.57-.09-.8,0-.13-.09-.26-.15-.38-.04-.12,0-.32-.1-.41-.09-.1-.12-.47-.24-.51-.12-.07-.45-.23-.58-.23-.09,.01-.24,.07-.32,.08-.17,.04-.44,.37-.57,.49-.05,.07,.19,.4,.13,.47-.1,.16-.49,0-.5,.19-.06,.06,.11,.26,.11,.26Z"/>
          <path class="cls-1" d="M15.51,11.47s.1,.38,.07,.39c.08-.03,.1-.23,.19-.26-.11,.04-.28-.31-.4-.3,.09,0,.19-.03,.28-.04-.11,.01-.2,.42-.32,.41,.09,.01,.17,0,.26,.01-.02,0-.2,.44-.22,.43-.13-.04-.11-.62-.24-.59-.14,0-.27,.1-.39,.17-.12,.06-.47-.05-.54,.06-.09,.09,.64,.54,.6,.67-.01,.09-.4,.06-.42,.15,0,.18,.31,.09,.4,.25,.05,.07-.15,.24-.1,.31,.12,.13,.15,.15,.32,.2,.15,.03,.23,.79,.38,.8s.38-.19,.53-.21c.23-.03,.44-.39,.65-.48,.12-.06,.18-.2,.26-.31,.09-.09,.28-.16,.31-.29,.04-.13,.36-.34,.33-.47,0-.14-.02-.51-.09-.63-.05-.07-.18-.17-.23-.24-.12-.13-.54-.2-.71-.26-.09-.01-.26,.37-.34,.35-.18,0-.24-.44-.4-.35-.08-.02-.18,.23-.18,.23Z"/>
          <path class="cls-1" d="M43.3,14.65s.1,.38,.07,.39c.08-.03,.1-.23,.19-.26-.11,.04-.28-.31-.4-.3,.09,0,.19-.03,.28-.04-.11,.01-.2,.42-.32,.41,.09,.01,.17,0,.26,.01-.02,0-.2,.44-.22,.43-.13-.04-.11-.62-.24-.59-.14,0-.27,.1-.39,.17-.12,.06-.47-.05-.54,.06-.09,.09,.64,.54,.6,.67-.01,.09-.4,.06-.42,.15,0,.18,.31,.09,.4,.25,.05,.07-.15,.24-.1,.31,.12,.13,.15,.15,.32,.2,.15,.03,.23,.79,.38,.8s.38-.19,.53-.21c.23-.03,.44-.39,.65-.48,.12-.06,.18-.2,.26-.31,.09-.09,.28-.16,.31-.29,.04-.13,.36-.34,.33-.47,0-.14-.02-.51-.09-.63-.05-.07-.18-.17-.23-.24-.12-.13-.54-.2-.71-.26-.09-.01-.26,.37-.34,.35-.18,0-.24-.44-.4-.35-.08-.02-.18,.23-.18,.23Z"/>
          <path class="cls-1" d="M33.43,31.06c-.03,.11,.22,.27,.2,.38,0,.03-.19,.03-.19,.06,0,.03-.15,.07-.15,.1,0,.01,.18,.01,.19,.02,.01,.1,0,.21,.02,.3,0,.05,.45-.06,.47,0,.04,.1,.03,.18,.08,.28,.01,.03-.09,.1-.07,.12,.06,.12,.1,.11,.21,.18,.1,.09-.07,.76,.06,.79,.13,.04,.41-.09,.54-.12,.13,0,.06-.53,.18-.6,.07-.05,.03-.16,.09-.21,.12-.12,.52,.03,.56-.14,.01-.09,.1-.18,.11-.27,0-.18,.05-.48-.04-.64-.03-.04,.05-.09,.04-.13,.03,.08-.37,.35-.34,.43-.03-.06-.16-.15-.17-.22,.01,.09,.03,.19,.04,.27,0-.07,.32-.16,.33-.23-.01,.09-.34,.14-.35,.22,0-.02,.02-.08,.02-.1,.04-.13,0-.17-.02-.3,0-.13,.43-.42,.35-.53-.06-.12-.43,0-.54-.07-.1-.09-.22,.14-.35,.1-.09-.01-.1-.62-.18-.63-.18,0-.62-.13-.77-.04-.07,.05,.25,.65,.18,.7-.12,.12-.3,.18-.35,.35-.05,.04-.16-.08-.16-.08Z"/>
          <path class="cls-1" d="M42.35,30.22s.06-.66,.08-.66c-.09-.01-.16-.17-.25-.18,.04,0,.15,.07,.19,.09-.08-.03-.16-.07-.24-.1,.04,.02,.23-.03,.26,0-.07-.05-.32,.13-.39,.08,.03,.02-.26,.34-.23,.37-.05-.07,.09-.28,.04-.35,.02,.03-.14,.13-.12,.17-.03-.08,.31-.32,.28-.4,.01,.03-.33,.16-.32,.2-.01-.09,.47-.24,.45-.33,0,0-.13,.05-.13,.05,0,.14-.17,.27-.11,.39,.04,.12-.05,.41,.05,.5,.09,.1,.29,.19,.42,.23,.12,.06,.35,.01,.49,0,.09-.01,.22,.09,.31,.08,.17-.05,.24-.4,.37-.52,.05-.07,.12-.12,.17-.19,.09-.16-.17-.31-.17-.49-.01-.1,.28-.21,.26-.31,0-.01-.27,.06-.27,.05-.04-.11,.44-.44,.39-.53,0-.01-.67,.38-.68,.37-.05-.08,.23-.39,.17-.46-.02-.02,.06-.14,.04-.16,0,0-.31,.36-.31,.35-.07-.05,.37-.77,.3-.82-.01,0-.06-.03-.07-.03-.09-.06-.5,.43-.6,.39-.03-.01,.01-.16-.02-.17-.1-.02-.21,.13-.31,.12-.01,0,0-.59-.01-.59-.14,0-.32,.33-.44,.39-.12,.04-.32,.08-.41,.18-.1,.09-.42,.16-.46,.29-.06,.12,.52,.39,.53,.53,.01,.09-.15,.18-.14,.27,.05,.17-.05,.47,.07,.6,.07,.05,.35-.17,.42-.12,.16,.09,.17,.29,.35,.29,.09,.22,.08,.44,.08,.44Z"/>
          <path class="cls-1" d="M46.91,22.21s.07-.46,.07-.45c-.09-.01-.22,.28-.31,.26,.02,0-.17,.6-.15,.61-.08-.03-.06-.32-.14-.35,.13,.06,.59-.4,.71-.32,.06,.04-.08,.35-.02,.38,.01,0,.03,0,.04,0,.09,.04,.19,.03,.28,.06,.1,.04,.15,.56,.25,.56,.14,0,.42,0,.54-.07,.12-.04,.21-.33,.31-.42,.1-.09,.31-.21,.35-.34,.06-.12-.32-.35-.33-.49-.01-.09-.19-.12-.21-.2-.05-.17,.33-.55,.21-.68-.07-.05-.48,.37-.55,.32-.16-.09-.13-.54-.31-.54,0,0,.06-.43,.06-.43,.09,.01,.17,.04,.26,.05-.02,0,.1,0,.08,0,.08,.03-.07,.61,0,.64-.13-.06,.08-.64-.03-.72-.06-.04-.3,.13-.36,.09-.01,0,.02-.14,0-.14-.09-.04-.32,.19-.41,.16-.1-.04-.24-.13-.35-.13-.14,0-.45-.25-.57-.19-.12,.04-.42,.16-.51,.26-.1,.09,.3,.61,.26,.73-.06,.12-.37,.22-.37,.36,.01,.09-.22,.26-.21,.35,.05,.17,.41,.39,.53,.51,.07,.05,.2,.07,.27,.12,.16,.09,.41,.3,.6,.3,0,0,0-.3,0-.3Z"/>
          <path class="cls-1" d="M43.92,12.33c.08,0,.12,.43,.2,.44-.09-.01-.18-.01-.27-.02,.17,.02,.4-.4,.57-.38,.08,0,.14-.33,.22-.33,.14,0,.23,.44,.35,.37,.12-.04,.07-.24,.16-.34,.1-.09,.29-.04,.33-.16,.06-.12,.15-.22,.14-.36-.01-.09,.32-.26,.31-.34-.05-.17-.37-.35-.49-.48-.07-.05-.03-.31-.1-.37-.16-.09-.53-.02-.71-.02-.08,0-.23,.7-.31,.69,.09,.01,.27-.67,.36-.66-.17-.02-.42,.57-.59,.55-.08,0-.11,.04-.18,.04-.14,0-.22-.37-.34-.31-.12,.04-.46-.17-.55-.07-.1,.09-.4,.21-.44,.33-.06,.12,.25,.43,.26,.57,.01,.09,0,.2,0,.28,.05,.17,.5,.01,.63,.14,.07,.05-.32,.69-.25,.74,.16,.09,.64-.02,.82-.02,.06-.05-.12-.3-.12-.3Z"/>
          <path class="cls-1" d="M35.6,27.11s-.17,.15-.16,.16c-.05-.07,.27-.43,.22-.49,.03,.03,.31,0,.32,.04-.03-.08-.54,.04-.57-.04,.02,.04,.45,0,.45,.04-.01-.09-.35-.13-.36-.22,0,.04-.21,.05-.21,.09,.01-.09,.74-.08,.75-.17,0,.02-.74-.09-.74-.07-.04,.13,.28,.33,.31,.47,0,.13-.2,.36-.12,.48,.06,.12,.05,.45,.16,.52,.1,.09,.43,0,.56,.04,.09,.01,.22-.35,.31-.33,.18,0,.27,.02,.42-.08,.07-.05,.5,.32,.57,.27,.12-.12,.32-.47,.37-.64,0-.02-.71-.2-.7-.22,.01-.1-.09-.18-.08-.28,0-.01,.87,.02,.87,.01,0-.02-.15-.08-.15-.1-.01-.1-.48-.14-.5-.23,0-.01,.42-.11,.42-.12,0-.02-.46,.09-.47,.07-.03-.09,.21-.29,.17-.37,0,0-.49,.22-.5,.21-.01-.02,.68-.45,.66-.47-.05-.08-.59,.2-.65,.13,0,0,.16-.15,.15-.16-.09-.1-.3,.1-.43,.06-.12-.06-.13-.09-.27-.08-.14,0-.17-.03-.29,.03-.12,.04-.35-.14-.44-.04-.05,.07,.26,.37,.21,.44-.09,.16-.89,.13-.89,.31,.01,.09,.33,.19,.34,.27,.05,.17,.27,.29,.39,.41,.01,.06-.1,.08-.1,.08Z"/>
          <path class="cls-1" d="M27.88,27.26c0,.16,.23,.32,.23,.48,0,.14-.16,.15-.09,.27,.04,.12,.09,.1,.19,.19,.09,.1-.22,.84-.1,.88,.12,.06,.41-.68,.54-.68,.09-.01,.25,.5,.33,.48,.17-.05,.36-.24,.48-.36,.05-.07,.05-.19,.1-.26,.09-.16-.31-.35-.31-.53,0-.16,.01-.32,.01-.47,0-.14,.72-.41,.66-.53-.04-.12-.64,.1-.74,0-.09-.1,.11-.65-.01-.69-.12-.06-.38,.11-.52,.12-.09,.01-.13,.3-.22,.31-.17,.05-.45-.13-.57,0-.05,.07-.42-.04-.47,.03-.09,.16,.52,.31,.52,.49,.08,.07-.04,.28-.04,.28Z"/>
          <path class="cls-1" d="M16.58,22.16c-.2,.15-.44,.23-.64,.38-.12,.06-.09,.3-.16,.41-.09,.1-.5,.09-.53,.22-.04,.13-.08,.4-.05,.53,0,.13,.6,.07,.68,.18,.05,.07-.34,.5-.29,.57,.12,.12,.52-.06,.69-.02,.09,.01,.17-.12,.26-.11,.18,0,.33,.14,.49,.05,.2-.15,.67,.11,.87-.04,.12-.06-.23-.68-.16-.79,.09-.1,.54-.01,.57-.14,.04-.13-.53-.28-.56-.41,0-.13,.1-.16,.03-.27-.05-.07,.07-.24,.01-.31-.12-.12-.28,0-.45-.05-.09-.01-.1-.75-.19-.76-.18,0-.41,.26-.57,.35-.04,0,0,.2,0,.2Z"/>
          <path class="cls-1" d="M14.53,16.09s-.08,.06-.12,.06c-.14,0-.27-.05-.39,.01-.12,.04,.04,.39-.05,.49-.1,.09-.8-.22-.84-.1-.06,.12,.09,.42,.1,.56,.01,.09,.01,.21,.02,.3,.05,.17,.56,.03,.69,.15,.07,.05,0,.19,.08,.25,.16,.09,.23,0,.41,0,.04,0,.08,.3,.12,.3,.14,0,.39,.27,.51,.2,.12-.04,.14-.37,.23-.47,.1-.09-.15-.35-.11-.48,.06-.12,.07-.11,.07-.24-.01-.09,.27-.2,.26-.29-.05-.17-.05-.4-.18-.52-.07-.05,.01-.37-.06-.42-.16-.09-.54,.01-.72,.01,0,0,0,.19,0,.19Z"/>
          <path class="cls-1" d="M41.96,23.93c.08,.04-.01,.37,.07,.4,.11,.07,.42-.31,.56-.3,.13,.03,.35,.54,.49,.5,.13-.03,.03-.61,.13-.7,.11-.07,.27-.04,.33-.16,.03-.08,0-.18,.03-.26,.05-.18,.11-.31,.06-.49-.03-.08,.34-.37,.31-.45-.09-.15-.67,.1-.82,0-.08-.04-.14-.11-.22-.15-.11-.07-.1-.66-.24-.67-.13-.03-.26,.63-.39,.67-.13,.03-.4-.26-.49-.17-.11,.07-.42,.12-.48,.24-.03,.08,.11,.27,.08,.35-.05,.18,.29,.33,.33,.51,.03,.08,.09,.1,.13,.18,.09,.15,.17,.07,.32,.16,0,0-.19,.32-.19,.32Z"/>
        </g>
        <g class="cls-4">
          <path class="cls-2" d="M58.21,38.41c-.05-.24-1.1-.25-1.15-.49s-.3-.43-.36-.67,.81-.68,.76-.92-.71-.34-.77-.57,.26-.56,.21-.79-.06-.48-.11-.72,.21-.55,.16-.78-.26-.44-.31-.68-.26-.44-.31-.68-.55-.37-.6-.61-.44-.4-.49-.64,1.17-.76,1.12-1-.63-.36-.68-.59,.42-.59,.37-.83-1.29-.21-1.34-.44,.8-.68,.74-.92-.58-.37-.63-.6,.13-.53,.08-.77-.81-.31-.86-.55-.03-.49-.08-.73-.1-.48-.15-.71,.28-.56,.22-.8,.23-.55,.17-.79-.81-.31-.87-.55,1.05-.74,1-.97-.94-.29-.99-.52-.52-.38-.57-.62,.6-.63,.55-.87c-.06-.24,.48-.66,.41-.9s-1.47-.03-1.56-.26,.96-.92,.86-1.14-1.17,.02-1.28-.2,.9-1.09,.77-1.3-.28-.47-.43-.67-.42-.36-.57-.55-.93,.13-1.09-.05-.21-.48-.39-.65-.48-.5-.67-.66c-.01,.24-.37,.64-.39,.88s.13,.48,.11,.72,.28,.52,.24,.75-.78,.33-.82,.57,.53,.59,.47,.82-.91,.24-.97,.47-.13,.43-.2,.65,.66,.72,.57,.94,.54,.74,.45,.96-.25,.44-.35,.66-.45,.34-.56,.55-.11,.5-.23,.71-.15,.49-.27,.7-1.47-.32-1.61-.12c-.11,.21,1.01,1.1,.9,1.31s-.76,.14-.88,.35-.36,.34-.48,.55-.87,.01-1,.21-.25,.39-.38,.58,.26,.74,.12,.94-.03,.57-.17,.76-.98-.16-1.13,.03,.56,1.06,.41,1.24-.59,.13-.74,.31-.6,.1-.76,.27-.28,.38-.45,.55,.07,.73-.1,.9,.05,.75-.12,.91-1.2-.56-1.37-.4,.2,.92,.02,1.08-.09,.64-.27,.8-.6,.05-.78,.2-1.16-.69-1.35-.54,.1,.9-.09,1.04-.21,.52-.4,.66-.08,.73-.27,.86-1.26-.98-1.46-.85-.38,.27-.58,.4,.14,1.09-.06,1.21-.37,.32-.57,.44-.6-.08-.81,.05-.03,.91-.24,1.03-.46,.18-.67,.29-1.06-.97-1.27-.86-.4,.25-.61,.36-.45,.14-.67,.24-.38,.29-.6,.39-.27,.54-.49,.64-.36,.37-.57,.46-.26,.61-.48,.71-.36,.41-.58,.5-.62-.27-.85-.18-.55-.1-.77-.02-.29,.6-.51,.68-.43,.23-.65,.3c-.22,.07-.69-.61-.92-.53s-.53-.15-.76-.08-.26,.76-.49,.82-.6-.44-.83-.38-.18,1.2-.41,1.26-.51-.09-.74-.04-.36,.61-.59,.66-.73-1.21-.97-1.16-.34,.7-.58,.74-.38,.59-.62,.63-.56-.46-.79-.43-.53-.37-.76-.34-.41,.49-.65,.52-.47,.09-.7,.11-.53-.64-.77-.62-.46,.09-.69,.11-.4,1.22-.64,1.23-.51-.9-.75-.9-.47-.11-.71-.11-.47,.78-.71,.78-.48,.14-.72,.13-.47-.22-.71-.23-.5,.35-.74,.33-.37-1.44-.6-1.46-.58,1.13-.82,1.1-.38-.84-.61-.87-.48,.03-.71,0-.65,.98-.89,.93-.37-.66-.6-.7-.32-.75-.55-.81c-.07-.01-.99,.3-1.07,.28,.04,.22,1.49,.35,1.55,.56s.06,.39,.15,.6,0,.45,.12,.64-.24,.69-.1,.87,.49,.18,.65,.35,.69-.14,.87,0-.45,1.35-.25,1.47,.98-.77,1.19-.67,0,1.09,.23,1.17c.23,.08,.6-.25,.83-.16s.41,.28,.63,.36,.51,0,.74,.08,.45,.15,.68,.23,.44,.2,.66,.28,.62-.36,.85-.28,.44,.18,.67,.25,.26,.78,.49,.85,.4,.36,.62,.43,.75-.86,.98-.8,.1,1.42,.33,1.49,.72-.83,.95-.77,.3,.75,.53,.8,.69-.81,.92-.76,.33,.65,.56,.7,.46,.11,.7,.16,.51-.11,.74-.06,.35,.68,.58,.72,.54-.25,.77-.21,.41,.39,.65,.44,.54-.31,.77-.27,.54-.42,.78-.38,.4,.52,.64,.56,.39,.73,.62,.76,.45,.29,.69,.32,.62-1.3,.86-1.28,.41,.7,.65,.72,.51-.45,.75-.44,.43,.62,.67,.64,.47,.26,.7,.27,.5-.54,.74-.53,.47,.08,.71,.08,.47,.1,.71,.1,.48-.44,.71-.44,.47-.05,.71-.05,.49,.85,.73,.84,.49,.13,.72,.12,.44-.8,.68-.81,.49,.3,.73,.29,.48,.03,.72,.01,.52,.5,.76,.47,.5,.18,.74,.15,.3-1.67,.53-1.7,.48,.05,.71,.02,.59,.86,.83,.82,.36-.83,.59-.87,.5,.16,.73,.12,.5,.13,.73,.09,.34-.75,.57-.8,.67,.97,.9,.92,.49,.01,.72-.04,.35-.62,.58-.67,.32-.71,.55-.77,.8,1.32,1.03,1.26,.23-1.05,.46-1.11,.42-.27,.65-.33,.52,.11,.75,.04,.53,.12,.75,.06,.5,.03,.73-.04,.54,.14,.77,.07,.13-1.18,.36-1.25,.5,.02,.73-.06,.6,.3,.83,.22,.28-.64,.51-.72,.57,.2,.8,.12,.5,0,.73-.09,.7,.51,.92,.43,.43-.23,.66-.32c.23-.09,.19-.87,.4-.98s.11-.69,.31-.83,.83,.32,1.01,.16,.17-.53,.33-.7-.01-.59,.13-.78,.14-.41,.26-.62,.32-.31,.41-.54,1.05-.16,1.11-.39-.1-.56-.07-.8-.35-.52-.35-.76-.44-.42-.47-.66,.95-.63,.9-.87Z"/>
        </g>
      </g>
    </g>
  </g>
</svg>