<?xml version="1.0" encoding="UTF-8"?>
<svg xmlns="http://www.w3.org/2000/svg" viewBox="0 0 80 80">
  <defs>
    <style>
      .cls-1 {
        fill: #dbaab8;
      }

      .cls-2 {
        isolation: isolate;
      }

      .cls-3 {
        fill: #fdfcfd;
      }

      .cls-4 {
        fill: #efb786;
      }

      .cls-5 {
        fill: #f4d3bd;
      }

      .cls-6 {
        mix-blend-mode: multiply;
        opacity: .8;
      }
    </style>
  </defs>
  <g class="cls-2">
    <g id="_圖層_6" data-name="圖層 6">
      <g>
        <path class="cls-4" d="M77.33,40.05c0,.24,.83,.48,.83,.71s.5,.49,.49,.73-.27,.47-.28,.71,.66,.53,.64,.77-1.75,.33-1.77,.57-.24,.44-.26,.67-.08,.45-.11,.69,1.05,.62,1.02,.86,.48,.57,.44,.8-1.3,.25-1.34,.49-.03,.47-.08,.7,.08,.5,.02,.73,1.36,.82,1.3,1.05-1.18,.2-1.24,.43,.49,.64,.42,.87-.51,.36-.58,.58-.8,.25-.87,.47,.32,.61,.24,.83-.53,.31-.62,.54,.48,.7,.39,.92,.5,.73,.41,.95-1.75-.22-1.85,0-.51,.28-.61,.49-.26,.38-.37,.6,1.12,1.08,1.01,1.29-1.36-.17-1.47,.04,1.18,1.18,1.06,1.39-.14,.49-.25,.7-.34,.37-.46,.58-.89,.02-1.02,.22-.81,.04-.94,.24,.65,1.01,.51,1.2-.29,.39-.43,.58-.03,.58-.17,.78-1.15-.26-1.29-.07,.12,.7-.03,.89-1.14-.32-1.29-.14,1.05,1.51,.89,1.69-.57,.15-.73,.33-1.01-.27-1.17-.1-.27,.39-.43,.57,.56,1.22,.39,1.39-1.14-.47-1.31-.31,.6,1.34,.42,1.5-1.35-.76-1.53-.6-.48,.17-.66,.33,.65,1.51,.46,1.67-.35,.35-.54,.5-1.41-1.01-1.6-.87-.68-.14-.87,0-.01,.77-.21,.91,.09,.97-.11,1.1-.73-.23-.93-.1-.06,.8-.26,.92-.38,.31-.58,.43-.18,.65-.39,.77-.64-.13-.85-.01-.42,.25-.63,.36-.76-.42-.97-.31-.24,.59-.46,.69-.4,.29-.62,.39-.7-.39-.92-.29,.11,1.49-.11,1.58-1.18-1.64-1.4-1.55-.27,.59-.5,.67-.32,.52-.54,.6-.38,.37-.61,.45-.65-.47-.88-.4-.25,.82-.48,.88-.31,.7-.54,.76-.44,.25-.68,.31-.63-.55-.87-.5-.58-.43-.82-.39-.43,.26-.67,.3-.46,.14-.69,.18-.57-.58-.81-.55-.34,.98-.58,1.01-.49-.06-.73-.03-.4,.84-.64,.86-.6-1.4-.84-1.38-.4,1.23-.64,1.24-.48,.33-.72,.34-.52-1.35-.76-1.34-.47,1.14-.71,1.14-.47-.98-.71-.98-.5,.76-.74,.75-.46-.45-.7-.46-.41-.97-.65-.99-.57,1.14-.81,1.11-.36-1.17-.59-1.19-.57,.75-.8,.72-.5,.09-.73,.05-.32-.97-.56-1.01-.61,.73-.84,.68-.31-.88-.54-.93-.73,1.13-.96,1.07-.28-.91-.51-.96-.33-.61-.56-.67-.68,.68-.91,.62-.2-.97-.43-1.04-.72,.69-.94,.62-.29-.63-.51-.71-.32-.48-.55-.57-.81,.81-1.04,.72-.51-.02-.73-.11-.55,.06-.77-.04-.51-.06-.73-.16-.04-1.05-.25-1.16-.47-.13-.68-.23-.54,0-.75-.11-.12-.77-.33-.89-.83,.49-1.04,.37-.49-.12-.7-.25-.37-.32-.58-.45,.28-1.31,.08-1.44-.68,.17-.87,.03-1.13,.77-1.32,.63-.42-.26-.62-.4-.25-.5-.44-.64,.39-1.27,.2-1.42-.84,.28-1.02,.12-.68,.05-.86-.11,.22-.98,.04-1.14,.29-1.01,.12-1.17-1.69,1.09-1.86,.92,.85-1.55,.68-1.72-1.51,.82-1.68,.64-.09-.59-.25-.77-.15-.52-.31-.7-.03-.61-.19-.79-.25-.41-.4-.6-.57-.15-.72-.33-1.05,.2-1.19,.01,1.34-1.61,1.2-1.8-.93,.1-1.07-.1-.02-.56-.15-.76-1.22,.24-1.35,.04-.51-.26-.64-.46-.25-.43-.37-.63,.11-.64,0-.84,.95-1.08,.84-1.29-.77-.12-.88-.33-.59-.23-.69-.45,.07-.57-.04-.78-1.01-.06-1.11-.28,1.26-1.09,1.16-1.31-1.21,0-1.3-.22,.97-.9,.88-1.12-.75-.21-.83-.44-.78-.22-.86-.45,.24-.59,.16-.81-1.28-.1-1.35-.33,.5-.66,.44-.89,.46-.62,.4-.85-.7-.31-.76-.55-.11-.47-.16-.71,.26-.55,.21-.78-1.2-.26-1.25-.49,.81-.64,.77-.88,.82-.61,.78-.85-.93-.35-.96-.58,.93-.59,.91-.83-1-.37-1.02-.61,.16-.49,.14-.73,.11-.48,.1-.72-.96-.44-.97-.68,.99-.51,.98-.75-.78-.47-.78-.71,1.32-.46,1.32-.7,.19-.46,.2-.7-.06-.46-.04-.7-.7-.51-.69-.75-1.12-.58-1.1-.82,.79-.41,.81-.65,.26-.45,.29-.69-.19-.51-.15-.75,.4-.42,.44-.66,1.04-.29,1.08-.52-.93-.66-.88-.89,1.24-.21,1.3-.44-.36-.56-.3-.79-.97-.74-.9-.97,.05-.49,.12-.72,.49-.36,.56-.59,.14-.46,.22-.69-.07-.53,0-.76,.23-.43,.31-.66,.34-.39,.42-.61,1.2-.02,1.29-.24-.83-.87-.74-1.08,.28-.4,.38-.62,.73-.18,.84-.39-.61-.83-.5-1.05,1.09,.03,1.2-.18,.02-.52,.13-.73,.48-.27,.6-.47-.49-.84-.37-1.05-.12-.64,.01-.84,1.5,.4,1.63,.2-.94-1.2-.81-1.4,.02-.58,.16-.78,.83,0,.97-.2-.25-.8-.1-.99,1.35,.45,1.5,.26-.1-.69,.05-.88,.39-.29,.55-.47,.27-.39,.43-.57,.81,.1,.97-.08-.87-1.48-.7-1.65,1.05,.35,1.22,.18,.06-.63,.23-.8,.4-.29,.57-.45,.8,.17,.98,.01-.14-.88,.04-1.04,.59-.04,.78-.2,.53-.11,.71-.26-.2-1.04-.01-1.19,.8,.26,1,.12,0-.82,.2-.95,1.22,.92,1.42,.78-.51-1.63-.31-1.76,.37-.34,.57-.47,1.23,1.09,1.44,.96-.24-1.35-.04-1.47,.28-.5,.49-.62,.61,.09,.82-.02,1.17,1.22,1.38,1.11,.03-1,.24-1.11,.43-.2,.65-.3,.1-.96,.32-1.06,.9,.9,1.12,.8,.52,.05,.75-.04-.18-1.83,.04-1.91,1.19,1.88,1.41,1.8-.12-1.82,.11-1.89,.6,.28,.83,.21,.26-.84,.49-.9,.43-.32,.66-.39,.77,1.04,1,.98,.64,.65,.87,.6,.41-.28,.65-.33,.27-1.09,.5-1.14,.72,1.34,.95,1.3,.13-2.21,.37-2.25,.49-.08,.73-.11,.52,.16,.76,.14,.61,1.22,.85,1.19,.38-1.18,.62-1.2,.49-.09,.72-.1,.55,1.63,.79,1.62,.43-1.45,.67-1.45,.49,.66,.73,.66,.48-.25,.72-.24,.51-.78,.75-.77,.5-.16,.74-.15,.45,.66,.69,.67,.41,.89,.64,.91,.4,.7,.63,.73,.49-.24,.73-.21,.52-.31,.75-.28,.46,.1,.7,.14,.55-.38,.78-.33,.27,1.05,.5,1.1,.78-1.35,1.01-1.29,.12,1.55,.35,1.61,.39,.32,.62,.38,.63-.54,.86-.48,.82-1.05,1.04-.98,.05,1.43,.27,1.51,.79-.83,1.01-.75,.55-.09,.78,0-.12,1.65,.1,1.73,.38,.29,.6,.38,1.11-1.4,1.33-1.3,.07,1.03,.29,1.13,.23,.61,.45,.71,.62-.19,.83-.08,.07,.89,.28,1,1.4-1.58,1.61-1.46,.28,.51,.49,.63,.19,.64,.39,.76,.4,.28,.6,.41,.77-.29,.97-.16,.03,.84,.22,.98,.77-.25,.97-.11,.34,.37,.53,.51-.27,1.16-.08,1.3,.8-.25,.99-.1,.12,.62,.3,.77,.26,.43,.44,.59-.22,.96-.04,1.12,.82-.21,1-.05,.94-.29,1.11-.12-.69,1.38-.52,1.55,.51,.15,.68,.32,1.63-.87,1.79-.7-.03,.7,.12,.88-.38,.98-.23,1.16-.34,.9-.19,1.08,.41,.25,.56,.44,.32,.33,.47,.52,1.75-.72,1.89-.53-.34,.84-.2,1.04,1.05-.14,1.19,.06-1.31,1.45-1.18,1.65,1.03-.1,1.16,.1,.9,.02,1.02,.22-1.05,1.18-.93,1.38,.74,.12,.85,.33,1.19-.09,1.3,.12-1.57,1.35-1.47,1.56,1.4-.16,1.5,.05-.68,.84-.58,1.06,.88,.12,.98,.34,1.13,.05,1.22,.27-.94,.91-.86,1.13-.54,.71-.45,.93,1.91-.18,1.99,.04-.23,.6-.16,.83-.51,.67-.44,.9,1.28,.12,1.35,.35-.78,.72-.72,.95-.63,.65-.57,.88,.76,.3,.81,.54,.25,.44,.3,.67-.22,.53-.18,.77,1.18,.28,1.22,.52-.93,.64-.9,.88-.32,.52-.29,.76-.38,.51-.35,.75,.9,.38,.93,.62,.51,.44,.53,.68-1.06,.54-1.05,.78,.56,.44,.57,.68-.65,.49-.65,.73-.17,.46-.17,.7Z"/>
        <path class="cls-3" d="M73.52,39.14c0,.24-1.04,.47-1.04,.71s.79,.5,.78,.74-.07,.48-.08,.72,.47,.53,.45,.77-.79,.41-.82,.65,.17,.51,.14,.74-1.2,.31-1.24,.54-.05,.46-.09,.69,1.26,.72,1.21,.95-1.57,.16-1.62,.39,1.53,.85,1.48,1.08-.41,.4-.47,.63-1.38,.11-1.44,.34,.85,.75,.78,.98-.02,.5-.1,.73-1.22,.07-1.3,.3,.52,.7,.43,.92-.45,.33-.54,.55,.38,.68,.29,.9,.08,.57-.02,.79-.89,.11-1,.32,.16,.62,.05,.83,.06,.58-.06,.79-.89,.05-1.01,.26,.6,.92,.48,1.12-.36,.35-.49,.56,0,.59-.14,.79-.69,.13-.83,.32-.25,.42-.4,.61-.88-.06-1.03,.13-.02,.59-.17,.77-.22,.44-.37,.63-.1,.55-.26,.73-.26,.42-.43,.6-1.37-.63-1.53-.46,.15,.8-.02,.97,.26,.95,.08,1.12-1.08-.45-1.25-.29-.25,.43-.43,.59-.11,.6-.29,.76-.63-.02-.82,.13-.68-.11-.87,.04,.05,.84-.15,.98-.6-.03-.8,.11-.19,.55-.39,.69-.82-.41-1.02-.28,.48,1.68,.28,1.8-1.16-1.02-1.37-.9-.19,.61-.4,.73-.11,.8-.32,.91-.31,.47-.52,.58-.62-.16-.83-.05-.78-.56-.99-.47-.03,1.14-.25,1.23-.85-.85-1.07-.76-.08,1.13-.31,1.21-.54-.1-.77-.02-.48,.08-.71,.15-.36,.47-.59,.54-.62-.46-.86-.4-.4,.35-.63,.41-.36,.57-.6,.62-.37,.63-.61,.67-.78-1.56-1.01-1.51-.26,1.34-.5,1.37-.65-1.21-.89-1.18-.46,.05-.7,.08-.42,.5-.66,.52-.47,.11-.71,.12-.5-.57-.74-.56-.45,.43-.69,.43-.47,.92-.71,.92-.46-1.23-.7-1.24-.46-.19-.69-.2-.58,1.79-.81,1.77-.41-.99-.65-1.01-.56,.76-.8,.73-.42-.58-.66-.62-.49,.03-.73,0-.39-.61-.62-.65-.69,1.03-.92,.99-.27-1.09-.5-1.15-.57,.33-.8,.28-.25-.95-.48-1.01-.34-.51-.57-.57-.7,.71-.93,.63-.78,.82-1.01,.74-.11-1.15-.34-1.23-.35-.42-.57-.5-.78,.64-1,.55-.41-.29-.63-.39,.08-1.33-.13-1.44-.71,.39-.92,.29-.58,.08-.79-.03-.17-.7-.37-.82-.69,.25-.89,.13-.2-.6-.41-.72-.85,.45-1.05,.32-.45-.22-.65-.35,.25-1.22,.06-1.35-.78,.27-.97,.13-.22-.51-.41-.65-.6-.01-.79-.16-.48-.18-.66-.34-.66,.01-.84-.15,.38-1.15,.2-1.31-.56-.1-.73-.27-.04-.64-.21-.81-.94,.25-1.11,.08-.39-.31-.55-.48,.76-1.32,.6-1.5-1.75,.87-1.9,.68,.94-1.4,.79-1.59-1.23,.36-1.38,.17-.14-.5-.28-.7,.32-.81,.18-1.01-.48-.24-.61-.44-.58-.19-.71-.39-.6-.2-.73-.41,.73-.99,.61-1.2-.6-.2-.72-.41-.72-.16-.83-.38,.63-.86,.52-1.07-.7-.19-.8-.41-.16-.46-.25-.68,.31-.65,.22-.87-1.22-.03-1.31-.25,1.24-.97,1.16-1.2-.63-.27-.71-.5,.32-.59,.25-.82-.41-.36-.48-.59-1.54-.07-1.6-.3,1.54-.89,1.49-1.12-.77-.3-.82-.53-.59-.37-.64-.6,.5-.58,.45-.82-.03-.47-.06-.71-.84-.36-.87-.6,.82-.58,.8-.82,.34-.5,.32-.74-1-.4-1.02-.64-.05-.48-.06-.72,.06-.48,.05-.72-.87-.48-.87-.72,.71-.48,.71-.72-.69-.51-.68-.75,1.28-.42,1.29-.66-.99-.56-.97-.8,1.43-.34,1.45-.58-.65-.55-.62-.79-.3-.53-.26-.77,.65-.38,.69-.62-.88-.66-.83-.89,.63-.37,.69-.6,.45-.39,.51-.62-.45-.61-.38-.84-.32-.6-.26-.83,.92-.24,.99-.46,.7-.27,.78-.5-.22-.58-.14-.8,.92-.15,1.01-.38-.17-.57-.08-.79,.23-.41,.32-.63-.57-.78-.47-1,.08-.5,.18-.72,.35-.37,.46-.58,1.02,0,1.14-.2-.33-.73-.22-.94-.02-.57,.11-.78-.13-.66,0-.86,1.16,.18,1.29-.02,.04-.55,.18-.74,.71-.07,.86-.26-.55-1.01-.4-1.2,1.1,.26,1.25,.07,.26-.39,.42-.57-.38-.95-.22-1.13,.64-.08,.8-.25,.76,.07,.93-.1,.12-.53,.29-.7,.47-.19,.64-.35,.47-.18,.65-.34,.3-.36,.48-.51,.31-.35,.49-.51,.14-.57,.33-.72-.12-.93,.07-1.08,.81,.27,1,.13,.75,.24,.94,.1,.16-.58,.36-.72,.58,.04,.79-.09,.48-.1,.69-.22-.32-1.47-.11-1.59,.21-.64,.42-.75,.47-.17,.69-.28,.41-.29,.62-.4,1.23,1.46,1.45,1.36-.15-1.47,.07-1.57,.63,.24,.85,.15,.41-.27,.63-.36,.2-.85,.43-.93,1,1.4,1.23,1.32-.02-1.6,.21-1.67,.41-.36,.64-.43,.62,.38,.85,.32,.41-.39,.64-.45,.55,.21,.79,.16,.46-.18,.69-.23,.49,0,.73-.05,.48-.07,.72-.11,.4-.67,.64-.7,.53,.26,.77,.23,.53,.37,.76,.35,.56,1.11,.8,1.1,.44-.34,.68-.35,.46-.35,.7-.35,.47-.95,.71-.95,.47,.83,.71,.84,.5-.68,.74-.67,.45,.7,.68,.71,.48-.08,.72-.06,.43,.46,.67,.48,.43,.35,.66,.38,.71-1.6,.95-1.56,.4,.62,.63,.66,.28,1.11,.51,1.16,.74-1.21,.98-1.16,.35,.64,.58,.7,.28,.83,.51,.89,.69-.72,.92-.65,.69-.57,.92-.5,.25,.82,.48,.89,.18,.93,.4,1.02,.63-.33,.85-.24,.6-.21,.82-.12,.15,.87,.37,.97,.34,.38,.56,.48,.96-.89,1.17-.78,.02,1.03,.23,1.14,.17,.67,.38,.79,1.24-1.22,1.45-1.1-.09,1.11,.11,1.24,.1,.73,.3,.86,1.08-.78,1.28-.65,.53,.1,.73,.24-.54,1.57-.34,1.71,1.39-1.06,1.58-.91,.28,.44,.47,.59-.26,1.07-.07,1.23,.26,.42,.44,.57,.26,.41,.44,.57,.9-.27,1.08-.1-.45,1.13-.28,1.3,1.52-.82,1.68-.64-.42,1.05-.25,1.23,.38,.29,.54,.47,1.07-.28,1.22-.09-.46,1-.31,1.19,.78,0,.93,.19-.83,1.21-.69,1.41,1.02-.16,1.16,.04-.43,.86-.3,1.06,1.37-.33,1.49-.13,.4,.33,.53,.53,.45,.31,.57,.51-.41,.79-.29,1,.45,.31,.56,.52,.18,.45,.28,.67,.79,.17,.89,.38,.05,.52,.14,.74-.45,.72-.36,.94-.67,.78-.59,1,1.43-.03,1.52,.19,.28,.42,.36,.65,.47,.37,.54,.6-.3,.61-.23,.84,.41,.4,.47,.63-.91,.73-.85,.96,.23,.43,.28,.67,.97,.29,1.02,.53-.05,.51-.01,.75-1.3,.69-1.26,.93,1.86,.22,1.89,.46-1.26,.64-1.24,.88,.4,.44,.42,.68,.11,.47,.13,.71-.16,.49-.15,.73-.17,.48-.16,.72,.95,.47,.95,.71Z"/>
        <g>
          <path class="cls-4" d="M45.33,13.04c.05-.24-.07-.35-.12-.58s.01-.38-.13-.57,.14-.96-.07-1.08-.69,.3-.94,.28-.49,.22-.73,.2-.49,.36-.72,.35-.44-.94-.68-.95-.48,.22-.72,.22-.5-.46-.74-.46-.45,.91-.69,.92-.54-.85-.78-.84-.49,.07-.73,.1-.4,.82-.64,.85-.52-.3-.76-.27-.56-.44-.8-.4-.44,.32-.68,.37-.52-.07-.75-.02-.52-.06-.76,0-.47,.17-.7,.23-.47,.18-.7,.25-.38,.43-.61,.5-.24,.81-.47,.89-.66-.41-.88-.33-.66-.33-.88-.24-.33,.49-.55,.59-.58-.08-.8,.02-.52,.08-.73,.18,.11,1.31-.1,1.42-.23,.56-.44,.68-.44,.17-.65,.29-.37,.29-.57,.42-1.26-1.09-1.46-.96,.25,1.27,.05,1.4-.62-.06-.82,.08-.34,.35-.54,.49,0,.78-.19,.93-1.27-.81-1.46-.65,.47,1.31,.29,1.47-.22,.45-.4,.61-.66-.02-.83,.15-.17,.5-.35,.67-.54,.14-.7,.31-.27,.39-.44,.57-.37,.3-.53,.49-.32,.36-.47,.54c-.17,.21,.28,.44,.22,.69-.06,.26-.32,.22-.26,.47s-.2,.51-.03,.71-.08,1.21,.17,1.32c.22,.1,.54-.05,.76,.05s.56-.05,.77,.06,.8-.5,1.02-.39,.1,.86,.32,.97,.71-.29,.93-.18,.15,.74,.36,.86,.47,.15,.69,.27,.25,.55,.47,.67,.3,.46,.52,.58,1.11-1.04,1.33-.92,.21,.64,.42,.76,.03,1.02,.25,1.13,.94-.82,1.16-.71c.22,.1,.24,.63,.46,.73s.18,.78,.39,.88,.75-.48,.97-.39,.7-.39,.92-.29,.19,.75,.41,.84,.16,.84,.38,.94,.62-.22,.85-.13,.58-.14,.81-.04,.19,.78,.41,.87,.37,.36,.59,.45,.86-.77,1.08-.67,.13,.91,.36,1,.27,.6,.49,.69,1.01-1.13,1.23-1.03,.1,.99,.32,1.08,.25,.64,.47,.74,.87-.78,1.09-.69,.52,.02,.74,.12-.11,1.44,.11,1.54,1.03-1.12,1.25-1.02,.38,.33,.6,.43c.26,.12,.29,.96,.55,.95,.27-.01,.72-.01,.95-.14s.66-.38,.81-.61-.38-.77-.35-1.05c.02-.24,1.01-.39,1.03-.62s-1.37-.61-1.35-.85,.92-.4,.94-.63-.03-.48-.01-.72-.8-.55-.78-.79,.89-.4,.91-.64-.48-.52-.46-.76,1.24-.37,1.26-.61-.75-.55-.72-.79,.77-.41,.79-.65-1.08-.58-1.06-.82-.1-.49-.07-.73-.15-.5-.13-.74,.69-.41,.71-.65-.16-.5-.14-.74,.09-.47,.12-.71-.49-.54-.46-.78,.21-.46,.24-.7,.65-.4,.68-.64,.84-.37,.87-.61-1.09-.63-1.05-.87-.04-.49,0-.73-.21-.52-.17-.76,.47-.42,.5-.65-.17-.52-.13-.75,.98-.32,1.02-.55-.02-.49,.02-.72-.66-.62-.62-.85,.43-.41,.47-.64Z"/>
          <path class="cls-4" d="M61.04,36.11c-.22,.06-.47,.06-.69,.13s-.66-.6-.88-.54-.33,.52-.56,.58-.39,.33-.61,.39-.54-.18-.76-.11-.35,.46-.57,.53-.52-.1-.74-.03-.29,.62-.51,.69-.43,.18-.65,.25-.66-.52-.88-.45-.32,.53-.54,.6-.49-.02-.71,.06-.37,.35-.59,.43-.41,.24-.63,.31c-.25,.08-.24,.37-.42,.5-.21,.15-.8-.19-.92,0-.13,.21-.04,.52-.05,.75s-.19,.57-.08,.79c.1,.19,.63,.04,.84,.2,.17,.13,.32,.17,.56,.26s.16,1,.4,1.09,.88-.9,1.11-.81,.13,1.1,.36,1.19,.73-.5,.96-.42,.43,.29,.67,.37,.32,.59,.56,.68,.53,.03,.76,.12,.55-.04,.79,.04,.56-.06,.79,.03c.23,.08,.24,.82,.47,.91s.56-.08,.79,0,.58-.16,.82-.08,.3,.71,.53,.78,.58-.16,.81-.09,.47,.18,.71,.25,.38,.46,.62,.53,.67-.51,.91-.44,.23,1.02,.47,1.09,.56-.16,.81-.09,.4,.42,.65,.49,.53-.04,.77,.03,.58-.78,.82-.78,.58,1.02,.81,.97c.24-.05,.41-.55,.61-.65,.22-.11,.22-.49,.38-.66,.17-.18,.59-.21,.65-.44,.07-.24,.16-.49,.22-.73s-.35-.59-.3-.84,.63-.4,.67-.64,.32-.47,.35-.72-.52-.57-.5-.83,.03-.5,.05-.75,.08-.5,.08-.75-.51-.5-.51-.75c0-.23,.43-.45,.42-.68s-.45-.42-.46-.65,.73-.51,.71-.73-.66-.38-.69-.61,.78-.57,.74-.79-.5-.38-.54-.61c-.05-.24-.33-.31-.49-.5-.15-.18-.11-.59-.34-.71-.21-.11-.6,.37-.85,.32-.24-.05-.37-.4-.63-.39s-.51-.17-.75-.1c-.22,.06-.34,.46-.56,.53s-.36,.4-.58,.46-.57-.35-.79-.29-.53-.22-.75-.16-.37,.36-.59,.42-.57-.35-.79-.29-.38,.34-.6,.4-.45,.1-.66,.16-.26,.75-.48,.82Z"/>
          <path class="cls-4" d="M58.31,31.17c.22-.09,.69,.48,.9,.4s.23-.68,.45-.76,.44-.14,.66-.22,.31-.49,.52-.57,.61,.31,.83,.23,.38-.31,.59-.39,.71,.56,.93,.48,.43-.18,.64-.26,.1-1.03,.32-1.11,.8,.79,1.01,.71,.02-1.23,.24-1.31c.23-.09,.4,.04,.56-.13s1.06,.03,1.14-.19-.54-.66-.56-.9-.14-.38-.26-.6,.45-.8,.33-1.01-.67-.18-.79-.39-.08-.52-.21-.73-.61-.18-.74-.39-.43-.28-.57-.48,.15-.69,0-.89-.51-.22-.66-.41-.46-.24-.61-.43,.1-.7-.06-.88-.82,.07-.98-.11-.25-.41-.41-.59-.48-.2-.65-.37-.09-.58-.26-.75-.36-.32-.53-.48-.01-.7-.19-.86-.52-.15-.7-.3-.42-.25-.6-.41-.49-.15-.68-.3-.41-.25-.6-.39,.18-1.07-.02-1.21-.66,.09-.86-.05-.72,.22-.92,.09-.03-.87-.23-1-.47-.16-.68-.28-.55-.01-.76-.12-.3-.48-.51-.59-.29-.53-.51-.63c-.24-.12-.74,.25-.99,.25s-.67-.15-.9-.03-.36,.53-.52,.73-.81,.38-.86,.64c-.05,.23,1.02,.69,.98,.92s-1.07,.28-1.12,.52,.21,.52,.17,.76,.36,.54,.32,.78,.11,.5,.07,.73-.35,.43-.38,.66-.63,.39-.66,.63,.63,.57,.59,.8-.81,.37-.84,.61,.63,.56,.6,.8-.24,.45-.27,.68-.11,.47-.13,.7,.18,.5,.15,.73-.46,.43-.49,.66,.11,.49,.09,.73,.27,.5,.24,.74,.31,.51,.29,.74-1.18,.37-1.2,.6,.82,.55,.8,.79-.92,.39-.94,.63-.05,.47-.07,.71,.27,.5,.24,.74,0,.48-.02,.71-.44,.44-.47,.67,.23,.5,.21,.74,.57,.53,.55,.77-.88,.4-.9,.63-.08,.73-.01,.94c.08,.23,1.24-.17,1.4,0s-.11,.76,.11,.86,.46-.4,.7-.4c.23,0,.4,.32,.63,.22s.42-.27,.65-.37,.6,.13,.83,.03,.13-.91,.36-1.01,.73,.43,.96,.33,.33-.48,.55-.58,.69,.33,.91,.24,.56,.05,.79-.05,.22-.74,.45-.84,.19-.83,.42-.93,.73,.47,.96,.37,.53-.02,.76-.11,.22-.79,.45-.88Z"/>
          <path class="cls-4" d="M21.55,45.93c.23-.06,.52,.06,.75,0s.29-.75,.52-.82,.74,.84,.97,.78,.49-.04,.72-.1,.32-.62,.55-.69,.29-.7,.52-.77,.86,1.19,1.09,1.12,.2-1.01,.43-1.08,.42-.29,.65-.36,.53,.07,.76,0,.53,.09,.76,.01,.51,0,.74-.07,.55,.11,.77,.04,.14-1.13,.37-1.2,.51,0,.74-.08,.6,.27,.83,.19,.3-.62,.53-.7,.57,.18,.8,.1,.51-.01,.73-.09,.68,.48,.91,.4,.44-.22,.66-.3,.22-.81,.45-.89,.28-.65,.51-.73,.7,.48,.89,.38c.22-.12,.28-.46,.43-.59,.19-.17-.03-.47,.05-.65,.09-.21-.01-.11-.08-.33-.06-.19,.04-.27-.14-.45-.14-.14,.23-.97,.02-1.1-.17-.11-.52-.06-.74-.16s-.61,.15-.83,.04-.62,.18-.84,.07-.07-1.05-.29-1.15-.67,.29-.9,.19-.39-.35-.61-.45-.64,.22-.86,.12,.02-1.28-.2-1.38-.98,1.02-1.21,.92-.19-.79-.42-.89-.34-.47-.56-.56c-.21-.09-.79,.68-1,.6s-.11-.94-.32-1.03-.75,.61-.97,.52-.48-.07-.69-.16-.36-.34-.57-.43-.05-1.05-.26-1.14-.86,.81-1.07,.71,.07-1.27-.14-1.37-.6,.21-.81,.11-.4-.22-.61-.33-.24-.52-.45-.63-.95,.79-1.16,.68c-.21-.11-.37-.34-.57-.46s-.23-.55-.43-.68-.52-.06-.72-.18-.07-.8-.27-.92-.9,.59-1.11,.47-.02-.91-.22-1.03-.07-.91-.28-1.02-.75,.4-.96,.3-.7,.45-.92,.36,.02-1.44-.21-1.52c-.21-.07-.7-.14-.91-.13s-.56,.45-.75,.53,.19,.95,.04,1.11-.72-.06-.8,.15-.28,.4-.35,.62,.21,.56,.14,.78-.14,.44-.2,.67,.34,.56,.28,.79-.67,.31-.72,.53-.54,.36-.59,.59,1,.67,.96,.9-1.48,.22-1.52,.45,1.32,.67,1.29,.9-.75,.37-.77,.6-.02,.47-.04,.7-.46,.44-.47,.67,0,.47-.02,.71,.26,.48,.26,.72,.09,.47,.09,.7-.49,.48-.49,.72,.31,.47,.32,.7,.66,.43,.67,.66-.35,.49-.33,.73,.03,.47,.06,.7-.7,.57-.67,.8,.31,.44,.35,.67,.28,.44,.32,.67,.54,.37,.59,.6-.11,.5-.06,.73,.08,.5,.21,.67,.08,.81,.28,.92,.79-.89,1.02-.87,.59,1.26,.81,1.19,.06-1.54,.29-1.61,.53,.07,.76,0,.58,.26,.81,.2,.3-.74,.53-.81,.64,.51,.87,.44,.3-.72,.54-.79,.76,.96,.99,.9,.28-.79,.51-.86Z"/>
          <path class="cls-4" d="M25.01,49.12c-.24,.07-.47,.21-.71,.27s-.58-.19-.82-.13-.31,.81-.55,.87-.51,.07-.75,.13-.8-1.05-1.05-.99-.48,.16-.73,.23-.51,.06-.75,.13-.47,.21-.71,.28-.4,.46-.65,.53c-.27,.07-.48,.39-.66,.56s.03,.57-.06,.82,.11,.33,.14,.59-.34,.49-.18,.72c.13,.2,.05,.55,.19,.74s.62,.14,.76,.34,.33,.34,.48,.53-.27,.82-.12,1.01,.1,.55,.26,.74,.76-.02,.92,.16-.07,.72,.09,.89,1.06-.34,1.22-.17,.2,.47,.37,.64,.66-.01,.83,.15-.46,1.21-.28,1.37,.73-.1,.91,.05,.66-.05,.84,.1,.06,.68,.25,.83,.14,.61,.34,.76,.62-.04,.82,.1,.41,.25,.61,.38,.07,.79,.27,.92,.44,.22,.65,.34,.95-.68,1.16-.57,.01,.96,.22,1.08,.38,.33,.59,.44,.74-.42,.96-.31,.48,.08,.7,.18,.36,.36,.58,.45,.56-.13,.78-.04,0,1.37,.22,1.45,.81-.84,1.03-.76,.23,.83,.46,.9,.49,.06,.72,.12,.71-.8,.94-.74,.33,.62,.56,.67,.49,.65,.71,.61,.75,.06,.94-.07-.51-1.19-.38-1.39,.18-.17,.22-.4,.25-.44,.29-.67,.59-.37,.63-.61-.15-.51-.11-.75-.43-.57-.39-.8,1.27-.23,1.32-.46-.95-.68-.9-.91,.96-.28,1.01-.52-.29-.55-.24-.78,.21-.44,.26-.67-.05-.5,0-.73,.1-.46,.15-.7,.15-.45,.2-.69-.37-.57-.31-.8,.14-.46,.19-.69,.69-.33,.74-.56,.31-.42,.36-.65-.8-.67-.75-.9,1.29-.19,1.34-.42-.77-.66-.72-.9,.67-.33,.73-.56-.74-.66-.68-.89,.59-.35,.65-.58,.11-.46,.16-.69-.09-.51-.03-.74,.62-.35,.68-.58-.21-.53-.16-.76,.38-.4,.43-.64c.05-.25-.3-.52-.35-.75-.05-.24-.49-.15-.64-.34s.05-.56-.16-.68-.34-.78-.58-.79c-.23-.02-.74-.16-.98-.07-.22,.08-.02,1.32-.24,1.4s-.65-.39-.87-.31-.29,.58-.51,.66-.62-.34-.85-.26-.51-.04-.74,.04-.28,.63-.5,.71-.46,.1-.69,.18-.47,.08-.7,.16-.32,.53-.54,.6-.44,.19-.66,.26-.69-.58-.92-.51-.49,.03-.71,.1-.23,.82-.46,.89-.54-.14-.77-.07-.47,.09-.69,.16-.59-.32-.82-.25-.51-.05-.73,.02-.02,1.54-.25,1.61-.48,.04-.71,.11-.69-.67-.92-.6-.26,.8-.48,.87-.52-.11-.75-.04Z"/>
          <path class="cls-4" d="M62.01,48.88c-.22-.1-.41-.25-.62-.35s-.52,0-.74-.09-.39-.27-.61-.38-.29-.49-.5-.59-.72,.41-.93,.31-.16-.75-.38-.85-.53,.02-.75-.08-.51-.03-.72-.14-.44-.18-.65-.28-.39-.29-.6-.39-.53,0-.74-.1-.29-.48-.5-.59-.31-.43-.52-.53-.71,.35-.92,.25-.36-.34-.57-.44-.03-.97-.24-1.08-.67,.27-.88,.16-.64,.2-.85,.09-.42-.22-.63-.33,.01-1.06-.2-1.16c-.24-.13-.8,.37-1.05,.37-.26,0-.64-.17-.87-.06s-.56,.34-.72,.55,.6,.74,.54,1.01c-.05,.24-1.29,.23-1.34,.47s.92,.69,.87,.92-1.27,.23-1.32,.47,.2,.54,.15,.77,.79,.67,.73,.91,.07,.51,.02,.75-.93,.29-.98,.53,.44,.6,.38,.83-.44,.4-.49,.64-.15,.46-.21,.7-.4,.41-.45,.64,.02,.5-.03,.74,.03,.5-.03,.74,.28,.57,.23,.8,.18,.54,.13,.78-1.25,.21-1.31,.44,.36,.58,.3,.82-.58,.36-.64,.6,.95,.72,.89,.95-.92,.29-.97,.53,.32,.57,.26,.81-.32,.43-.37,.66,.53,.61,.47,.85-.17,.46-.22,.7-.11,.47-.16,.71-.44,.4-.49,.64-.4,.41-.45,.65,.54,.6,.49,.84-1.14,.27-1.18,.51,.66,.62,.62,.86c-.05,.27,.32,.32,.4,.56s-.4,.69-.22,.88,.22,.88,.47,.97,.64-1.08,.91-1.12c.24-.03,.62,1.04,.86,1s.33-1.02,.57-1.06,.68,1.07,.92,1.03,.49-.08,.73-.13,.46-.21,.7-.27,.3-.8,.53-.87,.51,.03,.74-.03,.51,0,.74-.07,.52,.02,.75-.06,.41-.31,.63-.4,.34-.46,.56-.55,.69,.41,.92,.31,.22-.72,.44-.82,.76,.46,.97,.36,.45-.22,.66-.33,.08-.9,.29-1.01,.08-.83,.29-.95,.43-.19,.63-.31,.52-.05,.72-.18,.33-.36,.53-.49,.33-.35,.52-.49,1.14,.75,1.33,.61-.37-1.28-.18-1.43,.71,.13,.9-.02,.45-.21,.63-.37,.81,.17,.99,.01,.37-.34,.54-.5-.04-.75,.13-.92,.14-.53,.31-.71,.91,.19,1.07,0-.41-1.02-.25-1.2,.56-.15,.71-.33,.58-.15,.73-.34,.27-.41,.41-.6-.11-.68,.03-.87-.14-.68,0-.87,1.19,.22,1.32,.02-.36-.8-.23-1c.14-.22-.21-.36-.18-.6s.33-.29,.25-.52,.7-1.09,.52-1.27-.88,.16-1.13,.07-.57,.07-.8-.02-.65,.27-.89,.18,.04-1.45-.2-1.55-.46-.18-.7-.28-.58,.09-.81-.02Z"/>
        </g>
        <g>
          <g>
            <path class="cls-5" d="M42.33,17.4c0,.21,1.04,.45,1.04,.7,0,.22-.98,.44-.99,.68s.5,.5,.48,.73-.78,.37-.82,.59c-.04,.24,.42,.55,.36,.76-.07,.24,.09,.58-.01,.77-.12,.22-.39,.42-.57,.55s-.49-.4-.75-.4c-.24,0-.8,1.11-1.02,1.01-.21-.1-.37-.61-.55-.78-.17-.15,.43-1.02,.28-1.22-.14-.19-1.17,.22-1.3,0s.28-.7,.18-.92-.97-.2-1.04-.43c-.07-.24,1.15-.8,1.11-1.02-.05-.25,.15-.39,.15-.61s-.26-.44-.24-.68c.01-.23-1.05-.58-1.02-.82s1.32-.24,1.37-.47-1.36-.94-1.28-1.16c.09-.23,.73-.32,.87-.51,.15-.2,.73,.1,.94-.01s.27-.1,.53-.1c.25,0,.48-.31,.7-.23s.28,.39,.46,.55,1.06-.28,1.2-.08-.78,1.04-.67,1.26,.33,.31,.4,.54-.2,.46-.17,.7,.34,.38,.34,.61Z"/>
            <path class="cls-5" d="M38.38,24.4c.09,.21,.16,.46,.27,.72,.1,.23,.24,.43,.34,.68s.58,.33,.66,.57,0,.54,.06,.79c.07,.26-.25,.54-.22,.78,.03,.29,.21,.42,.16,.64-.07,.27,.12,.61-.13,.72-.2,.09-.5,.33-.74,.29-.2-.03-.67,.19-.89,.08-.19-.1-.39-.39-.58-.53-.18-.13-.56-.14-.73-.29s-.25-.48-.4-.65,.59-1.08,.45-1.26-.81,.02-.92-.17c-.13-.2-.19-.44-.28-.63s-.53-.28-.61-.5c-.08-.21-.29-.41-.36-.63s.8-.71,.75-.93-.18-.4-.21-.62c-.03-.24-.2-.42-.19-.64,.02-.25,.18-.35,.28-.54,.11-.2-.11-.78,.12-.88,.24-.11,.51,.91,.77,.95,.24,.04,.38-.22,.61-.09,.21,.12,.42,.14,.62,.32,.19,.17,1.15-.34,1.31-.13s.2,.59,.34,.81-.57,.89-.47,1.12Z"/>
          </g>
          <g>
            <path class="cls-5" d="M24.2,40.14c.21,0,.46-.22,.72-.22,.23,0,.47,.43,.71,.44s.44,.47,.67,.5c.25,.03,.39,.3,.61,.35,.26,.06,.4-.07,.58,.04,.23,.14,.39-.05,.39,.2,0,.22,.19,.51,.02,.71-.14,.16-.68-.18-.9-.05-.19,.12,.09,1.2-.14,1.3s-.51,.2-.74,.27-.68-.72-.91-.68c-.25,.04-.45,.48-.66,.48-.24,0-.52,.2-.78,.18s-.44-.69-.69-.72c-.26-.04-.65,.5-.88,.43-.27-.08-.33-.59-.5-.73-.21-.17-.73-.27-.73-.54,0-.25,.41-.47,.57-.66,.14-.18,0-.9,.23-1.03,.2-.12,.91,.83,1.16,.75,.23-.08,.39-.14,.63-.17s.42-.84,.65-.84Z"/>
            <path class="cls-5" d="M30.41,37.28c.21,.08,.87-.84,1.13-.74,.23,.09,.42,.36,.66,.47s.19,.82,.42,.94,.24,.6,.46,.73c.23,.14,.36,.27,.55,.42,.22,.18,.82-.11,.93,.08,.14,.24-.39,.31-.49,.55-.08,.2,.71,1.17,.52,1.31-.17,.12-.73-.2-.97-.12-.2,.07-.43,.26-.66,.3-.22,.03-.51-.72-.74-.71s-.47,1.24-.7,1.22-.4-.91-.62-.94-.39-.31-.6-.36c-.23-.06-.8,.88-.99,.8s-.4-.29-.61-.39c-.2-.09,.06-1.18-.14-1.29s-.34-.26-.53-.38-.31-.26-.48-.4c-.19-.15-.8,.23-.94,.07-.16-.19,.32-.6,.25-.8-.07-.22-1.31-.55-1.22-.77,.1-.25,.53-.76,.74-.91,.2-.14,1,.84,1.26,.77,.24-.06,.38-.18,.65-.19,.25-.01,.54-.9,.81-.87s.4,.8,.65,.86,.43,.25,.66,.34Z"/>
          </g>
          <g>
            <path class="cls-5" d="M40.76,50.18c-.06,.2-.13,.42-.2,.66-.06,.21-1.1,.14-1.17,.36s-.56,.27-.64,.48,.8,.8,.71,1c-.09,.22-.97,.03-1.08,.22-.12,.21-.04,.44-.18,.6-.16,.2-.12,.41-.3,.51-.2,.11-.15-.28-.38-.35-.22-.06-.53,.37-.7,.2-.15-.15-.79-.06-.9-.28-.1-.19-.04-.55-.11-.78-.06-.21,.93-.66,.89-.9s-.88-.32-.9-.55,.59-.46,.59-.69-.7-.5-.67-.72c.03-.24,.37-.42,.43-.62s-.53-.65-.45-.88c.07-.22,.49-.33,.58-.55s.32-.38,.42-.59-.11-.65,.02-.84c.14-.2,.95,.16,1.11,0,.18-.17-.12-1.22,.09-1.29s.79,.13,1.03,.2c.23,.06,.86-.03,1.03,.11s.36,.62,.48,.83c.1,.19-.74,.83-.68,1.06,.06,.21,1.12,.27,1.14,.5s-.84,.52-.84,.75,.24,.47,.21,.7,.53,.64,.47,.85Z"/>
            <path class="cls-5" d="M31.03,50.4c-.18,.12-.37,.27-.6,.41-.21,.13-.05,.9-.27,1.02s-.78-.47-1-.38c-.26,.11-.27,.95-.49,.97-.3,.04-.46-.4-.6-.6-.12-.19-.61-.47-.54-.74,.05-.22,.16-.56,.3-.8,.12-.21,.5-.31,.66-.5s.69-.03,.87-.19c.19-.18,.31-.36,.49-.48,.17-.11,.08-.71,.28-.82s.42-.2,.62-.29c.21-.09,.61,.37,.81,.31,.24-.07,.36-.31,.56-.29,.24,.02,.65-.12,.78,.07,.14,.22,.03,.65-.04,.92-.06,.23-.25,.46-.41,.7-.15,.21-.39,.34-.59,.53s-.61,0-.82,.15Z"/>
            <path class="cls-5" d="M33.93,58.12c-.11,.23-.79,0-.95,.17-.17,.18-.16,.38-.37,.47-.22,.1-.34,.26-.57,.27s-.62,.41-.84,.31-.51-.28-.65-.44c-.15-.16-.02-.6-.08-.81-.06-.2,.07-.4,.11-.64,.03-.2-.4-.61-.3-.83,.1-.19,.32-.4,.46-.62,.13-.2,.23-.47,.39-.66s.65-.1,.82-.25c.2-.18,.38-.35,.58-.44,.25-.11,.63-.37,.84-.27s.63,.36,.75,.6c.1,.2,.07,.58,.11,.83,.04,.23-.4,.53-.4,.78s-.18,.43-.22,.67c-.05,.25,.41,.66,.31,.86Z"/>
          </g>
          <g>
            <path class="cls-5" d="M52.56,45.43c.16,.14,.24,.39,.43,.55,.16,.14-.04,.7,.13,.86s.59,.03,.75,.19,.39,.27,.54,.44c.16,.18,.62,.14,.75,.31,.14,.2-.43,.82-.34,1.01,.11,.23,.74,.29,.74,.49,.01,.23-.16,.58-.32,.77-.15,.17-.36,.56-.59,.63-.2,.07-.58-.72-.82-.71-.22,0-.44,.44-.68,.41-.22-.03-.37-.37-.6-.43s-.68,.56-.89,.47-.19-.76-.4-.86-.09-.71-.27-.83c-.21-.13-1.21,.83-1.37,.69s-.06-.64-.23-.8c-.16-.16-.57-.12-.73-.29s.2-.8,.06-.98-.35-.32-.46-.51c-.13-.21-.17-.42-.24-.63-.08-.24-.27-.42-.25-.64s.27-.32,.43-.5c.15-.18-.07-1.06,.14-1.14s.65-.2,.89-.21c.22-.01,.47,.81,.7,.85,.22,.04,.28,.51,.5,.58s.89-.93,1.09-.83,.24,.61,.42,.73,.45,.22,.62,.37Z"/>
            <path class="cls-5" d="M48.21,53.97c-.02,.21-.24,.44-.27,.71-.03,.24-.07,.46-.11,.71s.19,.52,.12,.75c-.07,.27,.05,.54-.06,.73-.15,.26-.27,.44-.51,.42-.23-.02-.51-.1-.68-.32-.14-.18,.37-.68,.27-.93-.09-.22-.31-.34-.37-.58s-1.03-.36-1.05-.6c-.02-.27,.85-.54,.87-.76,.02-.2-.21-.45-.17-.67s-.15-.49-.1-.7c.06-.22-.1-.56-.02-.75,.09-.23,.52-.32,.66-.46,.16-.17,.39-.02,.62,0,.26,.03,.79-.24,.97-.01,.15,.19,.12,.62,.2,.89,.08,.24,.12,.54,.14,.81s-.46,.52-.49,.77Z"/>
            <path class="cls-5" d="M54.54,56.52c.12,.22,.78,.24,.82,.46,.05,.25-.22,.55-.26,.77-.04,.24-.04,.55-.17,.74s-.25,.63-.47,.75-.58,.05-.79,.08c-.22,.03-.46-.28-.67-.36-.19-.07-.14-.4-.31-.57-.14-.14-.14-.27-.26-.48-.1-.19-.4-.28-.49-.52-.08-.22,.09-.49,.03-.73s-.6-.36-.62-.59c-.03-.26-.08-.54-.03-.75,.05-.27,.23-.57,.43-.67s.51-.04,.78,0c.22,.04,.33,.39,.57,.5,.21,.1,.54-.01,.74,.13s.6,.11,.76,.28c.18,.19-.17,.74-.07,.94Z"/>
          </g>
          <path class="cls-5" d="M59.16,38.34c.2,.04,.55-.53,.79-.49,.21,.04,.35,.55,.58,.6s.43,.19,.65,.25,.3,.58,.52,.65c.22,.07,.66-.45,.86-.36,.22,.1,.1,.79,.28,.9,.21,.14,1.06-.33,1.17-.16,.13,.19-1.13,.56-1.17,.8-.04,.22,.84,.71,.68,.89-.14,.16-.58,0-.79,.13-.18,.12-.02,1.02-.25,1.11-.21,.08-.67-.44-.9-.38s-.32,.85-.55,.89-.58-.47-.8-.46-.51,.42-.73,.41c-.25,0-.39-1.02-.6-1.06s-.55,.43-.78,.37c-.22-.05-.51,.06-.73,0s-.31-.56-.52-.64-.26-.48-.46-.59c-.22-.12-.25-.28-.42-.42-.19-.16-.21-.13-.3-.33s-1-.27-.95-.51c.04-.23,.02-.72,.15-.9s.43-.5,.62-.63c.18-.12,.72,.25,.94,.17,.21-.08,.35-.55,.58-.6s.51-.03,.74-.04,.49,.25,.72,.26,.46,.1,.68,.14Z"/>
          <path class="cls-5" d="M52.22,28.38c.19-.09,.08-.89,.3-.99,.2-.09,.27-.52,.49-.61s.43-.2,.64-.28,.55,.12,.76,.06c.23-.07,.59,.44,.8,.4,.24-.05,.38-.76,.59-.77,.25,0,.37,.64,.56,.71,.21,.09,.53-.08,.63,.14,.09,.21,.31,.47,.28,.71-.02,.21-.04,.52-.14,.75-.08,.2-.4,.33-.53,.53-.12,.19-.66,.05-.81,.23s.11,.7-.05,.87-.78-.2-.95-.06,.03,.78-.16,.91c-.21,.13-.43,.22-.62,.31s-.55-.16-.77-.07c-.21,.08-.5-.1-.72-.03s-.1,1.35-.33,1.4-.65-.88-.87-.86c-.24,.03-.46,.67-.68,.65-.25-.03-.4-.42-.59-.53s.21-.49,.11-.71c-.1-.21-.61-.16-.61-.38s.57-.2,.66-.42c.08-.2,0-.33,.14-.53,.12-.18-.1-.58,.06-.75s.28-.34,.46-.48,.53,.01,.72-.11,.44,0,.64-.09Z"/>
          <path class="cls-5" d="M50.34,25.02c.07-.2-.34-.6-.25-.85,.08-.21,.93-.14,1.02-.36s.23-.38,.34-.6c.11-.22-.34-.73-.22-.91,.15-.22,.34-.4,.5-.53,.21-.17,.23,.39,.46,.47,.21,.08,1.16-.68,1.29-.45,.1,.19-.6,.78-.54,1.03,.05,.22,.23,.42,.24,.66s0,.47-.01,.71,.55,.58,.51,.8c-.04,.25-.31,.5-.39,.71-.08,.22-.42,.38-.52,.62s-.8,.15-.92,.38c-.13,.23,.56,.95,.41,1.14-.17,.22-.3,.72-.49,.84-.23,.14-.91,0-1.16-.09-.24-.08-.38-.52-.52-.74-.12-.19,.41-.57,.36-.83-.04-.23-.24-.37-.24-.63,0-.24-.07-.45-.03-.69s.08-.46,.16-.68Z"/>
        </g>
        <g class="cls-6">
          <path class="cls-1" d="M17.05,70.02c.19,.14,.24,1.25,.44,1.38s.45,.23,.64,.36,.99-.62,1.19-.49,.35,.35,.55,.47-.02,.98,.19,1.1,.49,.14,.7,.26,.61-.09,.82,.02,.56-.02,.77,.09,.9-.74,1.11-.63,.07,.94,.29,1.04,.6-.19,.82-.09,.41,.22,.64,.31,.23,.7,.45,.79,.73-.57,.95-.49-.13,1.75,.1,1.83,.48,.13,.71,.2,.44,.24,.67,.31,.97-1.53,1.2-1.46-.03,1.88,.2,1.95,.95-1.71,1.18-1.66,.28,.85,.51,.91,.53-.18,.76-.13,.32,.84,.55,.89,.48,.08,.71,.12,.52-.2,.76-.16,.52-.28,.76-.25,.53-.48,.77-.45,.4,.62,.64,.65,.43,.53,.67,.55,.55-1.1,.79-1.09,.4,1.48,.64,1.49,.51-.89,.75-.89,.47,1.07,.71,1.07,.48-.52,.72-.52,.45-.84,.69-.85,.46-.12,.7-.14,.58,1.55,.81,1.53,.34-1.73,.58-1.75,.5,.31,.74,.28,.65,1.37,.89,1.34,.27-1.54,.51-1.57,.71,1.42,.95,1.38,.18-1.76,.41-1.81,.49,.07,.72,.02,.65,.78,.89,.73,.47-.1,.7-.16,.19-1.18,.42-1.24,.82,1.2,1.05,1.14,.16-1.16,.39-1.23,.82,1,1.04,.92,.55,.09,.78,0,.06-1.28,.28-1.37,.44-.18,.66-.27,.25-.64,.47-.73,.83,.76,1.05,.67,.54,.02,.76-.08,.06-1.01,.28-1.11,.32-.4,.54-.51,.64,.22,.85,.11,.38-.29,.59-.4,.05-.87,.26-.99,.58,.08,.79-.05,1.23,1.09,1.44,.97,.29-.47,.49-.6-.18-1.14,.02-1.28,.95,.53,1.14,.39,.28-.44,.48-.58,.39-.29,.58-.44,.13-.62,.32-.77-.1-.87,.08-1.02,.51-.12,.7-.27,.75,.14,.93-.02-.13-.85,.05-1.01,.73,.09,.91-.08,.69,.02,.86-.15-.28-.94-.11-1.12,.71,.02,.88-.16,.68-.03,.84-.21,.46-.25,.62-.43,.17-.5,.32-.69-.64-1.14-.49-1.33,1.47,.54,1.62,.35-.22-.78-.07-.97-.45-.91-.31-1.11,.1-.5,.24-.69,1.05,.14,1.18-.06-.16-.67-.03-.87-.18-.66-.05-.86,1.93,.59,2.05,.38-.35-.76-.23-.97,.3-.39,.42-.6,.45-.32,.55-.53,.03-.53,.13-.75-1.03-1.01-.93-1.23,.32-.37,.41-.59,.49-.3,.58-.52-.05-.52,.04-.75,1.48,.05,1.56-.17,.32-.41,.4-.64-.28-.61-.21-.84-1.01-.82-.94-1.05,.17-.43,.24-.66,1.38-.11,1.44-.34,.04-.49,.09-.73,.09-.48,.14-.71,.25-.45,.29-.68-.7-.63-.65-.86-.18-.51-.14-.75-.33-.52-.29-.76,.07-.46,.1-.69,.26-.44,.29-.67,.6-.41,.63-.65-.25-.5-.24-.73,.37-.45,.38-.69,.11-.47,.12-.71-.74-.49-.74-.73,.7-.47,.7-.7-.58-.46-.59-.7-.13-.46-.14-.7,1.61-.56,1.6-.8-.56-.45-.57-.69,.51-.53,.48-.77-1.04-.38-1.06-.62-.75-.38-.78-.62,.73-.58,.69-.82-.74-.36-.78-.59,1.53-.77,1.48-1-.98-.3-1.03-.54,0-.49-.05-.73-.07-.48-.13-.71,.66-.68,.6-.91-.23-.45-.3-.68-1.81,.04-1.88-.18,.06-.51-.01-.73,.5-.67,.42-.9,.12-.55,.03-.78,.37-.67,.28-.89-1.51,.09-1.6-.13,.64-.79,.54-1.01-1.29,.06-1.39-.16,1.2-1.1,1.1-1.31,.02-.56-.09-.77-1.09,.02-1.2-.2-1.07,.05-1.19-.16,.63-.9,.51-1.11-.94,.01-1.07-.19,.28-.72,.15-.93-.47-.26-.6-.46,0-.58-.13-.77,.33-.82,.19-1.02-1.14,.24-1.29,.05,.16-.72,.02-.91,.04-.65-.11-.84-.39-.31-.55-.49-.83,.08-.99-.1,.61-1.19,.45-1.37-1.6,.81-1.76,.64-.22-.44-.38-.61-.59-.07-.76-.24,.2-.88,.02-1.04-.39-.27-.57-.43,0-.71-.18-.87-.66,.03-.84-.13-.51-.89-.69-1.05c-.3,.2-.61,.19-.83,.47s.09,.53-.13,.81,.64,.94,.42,1.23-.93-.26-1.15,.02-.48,.09-.7,.37,.97,1.2,.75,1.48-1.13-.41-1.35-.13,.09,.52-.13,.81-.98-.3-1.2-.02,.49,.83,.27,1.12-.21,.29-.43,.58-1.05-.35-1.27-.07,.46,.81,.24,1.1,0,.45-.23,.74-.52,.06-.74,.34,.32,.7,.1,.98,.03,.48-.19,.76-.84-.19-1.06,.1-.9-.23-1.12,.05,.88,1.13,.66,1.42-.71-.09-.93,.19-.32,.21-.54,.5-.41,.14-.63,.42-.43,.12-.65,.41,.1,.53-.12,.81,.52,.85,.3,1.13-1.14-.42-1.35-.14-.27,.24-.49,.53-.55,.03-.77,.31,.91,1.15,.69,1.44,.19,.6-.03,.88-1.7-.85-1.92-.57,.93,1.17,.71,1.45-.49,.08-.71,.36-.04,.42-.26,.7-1.1-.39-1.32-.11,0,.45-.22,.74,.75,1.03,.53,1.31-.89-.23-1.11,.05,.14,.56-.08,.85-.03,.43-.25,.72-.8-.16-1.02,.12,.12,.54-.1,.83-.59,0-.8,.29-.26,.25-.48,.54-.12,.37-.34,.65-.28,.24-.5,.53,.56,.89,.34,1.18-1.03-.34-1.25-.05-.02,.44-.24,.73-.93-.26-1.16,.02,1.08,1.29,.86,1.57-1.16-.44-1.38-.15-.4,.15-.62,.44-.44,.11-.66,.4,.58,.9,.36,1.18,.41,.77,.19,1.05-.58,0-.8,.29-.44,.12-.66,.4-.35,.19-.57,.47-.22,.29-.44,.57-.49,.08-.71,.37,.63,.94,.41,1.23-1.36-.59-1.58-.3-.08,.39-.3,.68,.83,1.1,.61,1.38-.37,.17-.59,.46-.69-.07-.91,.21-.65-.04-.87,.24,.96,1.2,.74,1.48-.34,.2-.56,.48-.48,.09-.7,.37-1.13-.41-1.35-.13,.21,.62-.01,.9,.09,.53-.13,.82,.14,.57-.08,.85-.82-.17-1.04,.12-.04,.43-.26,.71,.05,.49-.17,.78-.29,.24-.51,.52,0,.46-.22,.75-.33,.2-.55,.49,.02,.47-.2,.76-.7-.08-.92,.21-.6,0-.82,.28,.25,.65,.03,.93-1.19-.46-1.41-.18,1.17,1.35,.95,1.64-.97-.29-1.2,0-.82-.17-1.04,.11,1.02,1.24,.8,1.53-.53,.05-.75,.34-.51,.07-.73,.36-.23,.28-.45,.57,.2,.61-.03,.9-.07,.41-.29,.7-.38,.17-.6,.46-1.26-.51-1.48-.22,1.08,1.29,.86,1.58-1.24-.49-1.46-.21,0,.46-.22,.75,.52,.86,.3,1.15-.57,.02-.8,.31-.11,.38-.33,.67-1.02-.72-1.34-.54c-.44,.25-.31,.86-.43,1.21Z"/>
        </g>
      </g>
    </g>
  </g>
</svg>