<?xml version="1.0" encoding="UTF-8"?>
<svg xmlns="http://www.w3.org/2000/svg" viewBox="0 0 80 80">
  <defs>
    <style>
      .cls-1 {
        fill: #dbaab8;
      }

      .cls-2 {
        isolation: isolate;
      }

      .cls-3 {
        fill: #fdfcfd;
      }

      .cls-4 {
        fill: #efb786;
      }

      .cls-5 {
        fill: #f4d3bd;
      }

      .cls-6 {
        mix-blend-mode: multiply;
        opacity: .8;
      }
    </style>
  </defs>
  <g class="cls-2">
    <g id="_圖層_6" data-name="圖層 6">
      <g>
        <path class="cls-4" d="M72.04,17.78c-.08-.23-.67-.33-.77-.55s.21-.76,.08-.96-1.08,.14-1.24-.05-.77,.15-.95-.01,.17-.89-.03-1.03-.71,.31-.93,.2,.22-1.67,0-1.76-.78,.66-1.01,.6-.46-.21-.71-.24-.5-.09-.74-.08-.61-.76-.85-.73-.57,.2-.81,.26,.09,1.76-.13,1.85-.44-.03-.66,.09-.75-.33-.95-.18-.56,.06-.75,.21-.72-.17-.92-.03,.44,1.42,.24,1.56-.9-.43-1.1-.29,.28,1.24,.08,1.38-1.26-.97-1.46-.83-.54,.06-.74,.19,.13,1.06-.07,1.2,.12,1.06-.09,1.19-.94-.55-1.14-.42,.02,.94-.18,1.07-.73-.25-.94-.12-.28,.47-.49,.6c-.2,.12-.57-.03-.77,.1s-.78-.37-.98-.25,.13,1.14-.07,1.26-.69-.23-.89-.11-.62-.12-.83,0-.35,.34-.55,.46-.06,.82-.26,.94-1.03-.8-1.23-.68,.46,1.7,.26,1.82-.48,.12-.68,.24-.22,.55-.42,.67-.79-.4-.99-.27-.37,.31-.57,.43-.67-.19-.88-.07-.17,.63-.37,.76-.77-.35-.98-.22-.58-.03-.78,.1-.2,.58-.39,.71,.18,1.14-.02,1.27-.88-.48-1.07-.34-.57,0-.77,.13,.43,1.48,.24,1.61-1.02-.66-1.22-.52-.17,.58-.36,.72-.94-.49-1.13-.35,.13,.99-.06,1.13-.37,.29-.56,.43-1-.52-1.19-.38,.14,.96-.05,1.1-.21,.5-.39,.65c-.19,.15-.61,.02-.79,.17s.03,.82-.16,.97-.19,.54-.38,.69-.85-.3-1.04-.15-.89-.36-1.08-.22,.44,1.37,.25,1.52-.76-.19-.95-.05-.46,.19-.65,.34-.53,.1-.72,.24-.54,.07-.74,.21-.16,.6-.36,.74,.13,1.02-.07,1.16-1.04-.65-1.24-.52-.43,.22-.63,.35-.63-.08-.83,.06,.37,1.43,.17,1.56-.13,.69-.33,.82-1.39-1.28-1.59-1.15,.35,1.46,.15,1.58-.59-.03-.79,.1-.3,.44-.51,.56-.97-.68-1.18-.56-.27,.48-.48,.6,.18,1.27-.03,1.39-.83-.48-1.04-.36-.2,.63-.41,.74-.31,.44-.52,.56-.77-.4-.98-.29-.23,.6-.45,.71-.64-.18-.85-.07-.46,.17-.67,.28c-.2,.1-.34,.32-.54,.42s-.43,.14-.63,.24,.09,1.04-.11,1.14c-.03,.03-.73-.7-1.16-.42-.17,.11-.25,.46-.51,.63-.19,.12-.88-.48-1.13-.32-.2,.13,.45,1.62,.21,1.77-.2,.13-1.05-.72-1.28-.57-.22,.14-.54,.08-.76,.21s-.57,.02-.79,.14,.05,1.11-.17,1.23-.09,.93-.31,1.05-.67-.16-.9-.04l-.12-.24c-.21,.11-.48,.08-.67,.21s-.37,.28-.55,.43-.59,.11-.74,.29,.58,.96,.45,1.16-1.47-.27-1.56-.05-.05,.56-.12,.79,1.15,.72,1.11,.95-.24,.35-.24,.58-.57,.45-.55,.68-.45,.58-.39,.81,1.5-.04,1.59,.18,0,.37,.12,.58-.07,.49,.08,.68-.53,1.11-.36,1.28,.71-.05,.89,.11,.61,.04,.79,.2,.64-.03,.83,.13-.12,.87,.07,1.02,.51,.13,.69,.28,.57,.03,.76,.17,.32,.35,.52,.49,.54,.05,.73,.19,.3,.38,.5,.51,.55,.01,.75,.14,.07,.75,.27,.88,.16,.65,.37,.77,.7-.25,.91-.14-.17,1.28,.04,1.4,1.23-1.28,1.44-1.17-.01,1.05,.2,1.15,.11,.88,.32,.98,1.08-1.19,1.3-1.09,.27,.54,.49,.63,.3,.51,.52,.6,.44,.19,.66,.28,.62-.31,.85-.23,.5-.02,.73,.06,.38,.33,.6,.41,.06,1.37,.29,1.44,.92-1.41,1.15-1.34,.11,1.34,.35,1.4,.53-.14,.77-.08,.67-.78,.91-.73,.36,.53,.59,.58,.49-.04,.72,0,.2,1.5,.44,1.54,.48,.08,.72,.12,.61-.79,.85-.75,.37,.85,.61,.88,.54-.43,.78-.41,.49-.07,.73-.05,.45,.39,.69,.41,.49,.03,.73,.04,.55-1.41,.8-1.39,.45,.65,.69,.66,.47,1.15,.71,1.15,.47-1.71,.71-1.71,.47,.11,.71,.1,.53,1.19,.77,1.17,.49,0,.73-.03,.41-.89,.65-.92,.44-.28,.68-.31,.56,.67,.8,.64,.54,.29,.77,.25,.54,.23,.78,.19,.18-1.64,.42-1.68,.5,.1,.73,.05,.44-.18,.68-.23,.87,1.49,1.11,1.43,.21-1.09,.44-1.16,.73,.75,.96,.68,.43-.3,.66-.37,.24-.83,.46-.91,.3-.58,.53-.66,.46-.12,.69-.21,.57,.14,.8,.05,.59,.14,.81,.04,.59,.12,.81,.02,.1-.92,.32-1.03,.61,.14,.83,.03-.09-1.2,.12-1.31,.37-.3,.58-.42,.83,.49,1.04,.37,.71,.24,.91,.11-.39-1.51-.18-1.64,1.21,.97,1.41,.84,.52-.12,.71-.26,.58-.04,.78-.18-.36-1.3-.16-1.44,1,.49,1.19,.34-.04-.83,.15-.98-.28-1.07-.1-1.23,.94,.36,1.12,.2,.34-.34,.52-.5-.04-.73,.14-.9,.27-.4,.44-.57,.2-.46,.36-.63,.59-.09,.75-.27,.08-.56,.24-.74,.57-.13,.72-.32,.18-.46,.33-.64,.94,.15,1.09-.04,.86,.05,1-.14-.27-.81-.12-1-.48-.94-.34-1.13,1.51,.47,1.65,.28-.3-.79-.17-.99,.06-.53,.19-.73,.47-.27,.6-.47,.9-.02,1.02-.23-1.28-1.29-1.17-1.5,1.09,.07,1.21-.14,.95-.04,1.06-.25-.87-.99-.77-1.2-.15-.59-.05-.81,.21-.41,.31-.63,1.69,.23,1.78,0-.09-.57,0-.79,.2-.44,.29-.67-.25-.61-.17-.84-.31-.62-.23-.84,1.31-.06,1.39-.29-.08-.54-.01-.77-.21-.57-.14-.8-.72-.69-.66-.92,1.2-.18,1.25-.41,.24-.44,.3-.68,.34-.43,.39-.66-.89-.67-.85-.9-.26-.53-.22-.76,1.56-.24,1.6-.47-1.85-.74-1.82-.98,1.53-.29,1.55-.53-.42-.53-.39-.76,0-.48,.01-.72,.76-.44,.77-.67-.73-.52-.72-.76,.36-.47,.37-.71-1.03-.48-1.03-.72-.19-.46-.2-.7,.24-.47,.23-.71,.79-.51,.78-.75,.44-.51,.42-.75-.35-.46-.38-.69-.24-.46-.27-.69,.07-.49,.04-.73-.73-.38-.77-.61-.42-.4-.46-.64,1.52-.76,1.47-.99-.43-.41-.48-.65-.52-.38-.57-.61,.35-.58,.29-.81,.21-.56,.15-.79-1.89,.03-1.95-.2,.57-.66,.49-.88,.81-.76,.73-.99Z"/>
        <path class="cls-3" d="M63.38,14.04c-.18,.15-.46-.53-.64-.38s-.48,.14-.66,.28,.46,1.36,.28,1.5-1.38-1.04-1.57-.9,.44,1.36,.25,1.5-.58,0-.77,.14-.05,.73-.24,.86-.3,.4-.49,.53-.91-.48-1.1-.35-.72-.23-.92-.1-.3,.38-.49,.51,.05,.91-.15,1.04-1-.67-1.19-.55,.51,1.65,.31,1.77-.39,.26-.59,.39-.49,.1-.69,.23-.91-.58-1.11-.46c-.2,.12,.05,.99-.15,1.12s-.38,.28-.58,.41-1.06-.84-1.26-.72,.16,1.19-.04,1.31-.67-.2-.87-.07-.31,.41-.51,.53-.1,.76-.3,.88-.34,.36-.54,.48-.65-.17-.86-.05-.74-.32-.95-.2-.67-.19-.87-.07-.29,.44-.49,.56-.26,.49-.46,.62-.42,.23-.62,.35-.22,.55-.42,.68-.8-.39-1-.26,.2,1.21,0,1.34-1.01-.71-1.21-.58-.49,.12-.69,.25-.11,.7-.31,.83,.13,1.05-.06,1.18-.97-.6-1.17-.46,.06,.92-.13,1.06-.26,.44-.46,.58-1.09-.71-1.28-.58-.44,.2-.64,.34,.41,1.34,.22,1.48-.8-.27-.99-.13-.59,.02-.78,.16-.16,.56-.34,.71c-.19,.15-.74-.15-.93,0s.6,1.53,.41,1.68-.53,.11-.72,.26-.6,.02-.79,.17-.4,.28-.59,.43-.08,.7-.27,.85-.71-.13-.9,.02-.09,.69-.29,.83-.44,.23-.63,.37-.88-.39-1.08-.25-.09,.71-.28,.85-.57,.03-.77,.16-.47,.17-.67,.31-.77-.28-.97-.14-.09,.72-.29,.85-.04,.81-.24,.94-1.02-.68-1.22-.55-.29,.43-.5,.55,.32,1.41,.12,1.54-.61-.07-.82,.06-.78-.36-.99-.24-.74-.31-.95-.19-.35,.34-.56,.47-.39,.27-.6,.39,.27,1.46,.06,1.58-.71-.28-.92-.16-.08,.87-.29,.98-1.11-1.06-1.33-.94-.1,.85-.31,.96-.16,.74-.38,.85-.96-.81-1.17-.7c-.2,.1-.2,.6-.4,.7s-.02,.94-.22,1.05-1.15-1.15-1.35-1.04c-.03,.03,.34,1.01-.06,1.27-.19,.13-.79-.37-.99-.25s-.07,.73-.26,.86,.03,.91-.16,1.03-.89-.54-1.09-.42-.69-.25-.89-.13,.34,1.46,.14,1.58-.57-.04-.77,.08-.66-.23-.87-.12,.03,1.03-.18,1.14-.75-.43-.95-.32c-.11,.06-.77,.09-.88,.15,.15,.19,.8,.3,.95,.48s.39,.29,.54,.47,.12,.52,.28,.7,.94-.23,1.1-.05-.25,.88-.08,1.05,.12,.55,.29,.72,.11,.58,.29,.74,.8-.16,.98,0,.59,.04,.77,.2-.18,.95,0,1.1,.63-.02,.82,.13,.07,.7,.25,.85,.45,.2,.65,.34,.9-.45,1.1-.32,.08,.72,.28,.85,.28,.44,.49,.57,.16,.67,.37,.79,.45,.2,.66,.32,.87-.57,1.07-.46,.37,.31,.58,.42,.1,.87,.32,.98,.48,.12,.7,.21,.57-.1,.79,0,.53-.04,.75,.05,.77-.68,.99-.6,.19,.83,.41,.91,.56-.19,.79-.12,.43,.17,.66,.25,.31,.6,.54,.67,.64-.54,.87-.48,.11,1.53,.34,1.59,.49,.08,.72,.13,.47,.18,.71,.23,.74-1.4,.98-1.36,.23,1.64,.46,1.67,.7-1.56,.94-1.53,.39,.71,.63,.73,.5-.21,.73-.19,.43,.69,.67,.7,.49,.02,.73,.03,.49-.23,.73-.23,.48-.3,.72-.31,.46-.48,.7-.48,.49,.48,.73,.47,.51,.4,.74,.38,.39-1.02,.63-1.04,.61,1.21,.85,1.18,.38-.84,.61-.87,.61,.83,.85,.8,.4-.52,.64-.57,.33-.8,.56-.85,.44-.19,.67-.24,.79,1.22,1.02,1.16,.08-1.55,.32-1.61,.53,.17,.76,.1,.83,1.05,1.06,.97,.05-1.37,.27-1.45,.9,1.07,1.12,.98-.08-1.55,.14-1.64,.48-.05,.7-.14,.75,.53,.97,.43,.44-.2,.66-.3,.01-1.06,.22-1.17,.97,.84,1.18,.73-.02-1.04,.19-1.16,.93,.66,1.14,.54,.54-.06,.74-.19-.14-1.13,.06-1.26,.39-.27,.59-.41,.14-.62,.33-.76,.9,.44,1.1,.3,.51-.13,.7-.27-.1-.9,.09-1.05,.24-.45,.42-.6,.64,.01,.81-.15,.31-.36,.49-.53-.1-.78,.08-.95,.55-.1,.72-.27,1.32,.6,1.48,.43,.19-.5,.35-.68-.36-.96-.2-1.15,.95,.18,1.11,0,.18-.49,.33-.67,.3-.38,.44-.58,0-.6,.14-.79-.25-.75-.12-.95,.44-.27,.57-.47,.7-.12,.82-.32-.28-.73-.16-.93,.66-.16,.78-.37,.61-.22,.72-.43-.44-.77-.33-.98,.63-.22,.73-.44,.58-.26,.68-.48,.34-.39,.44-.61,.03-.52,.12-.74-.81-.83-.72-1.05,1.38,0,1.46-.23-.37-.64-.29-.87-.59-.69-.52-.92-.03-.49,.03-.72,.91-.24,.97-.47-.3-.56-.24-.8-.32-.55-.27-.78,1.76-.13,1.81-.37-.49-.59-.45-.82,.15-.47,.18-.71,.28-.46,.31-.69-.13-.51-.1-.75-1.13-.58-1.11-.82,.15-.45,.16-.69,.31-.45,.31-.69-.2-.47-.2-.71,1.21-.48,1.21-.72,.13-.5,.12-.74-.42-.47-.44-.71-1.07-.41-1.09-.64,0-.46-.03-.7,1.06-.59,1.04-.83-.14-.47-.17-.71-.09-.48-.13-.71,.04-.5,0-.74-.78-.34-.83-.57-.33-.41-.38-.64-.45-.37-.51-.6-.11-.45-.17-.68,.04-.49-.03-.72,.32-.59,.25-.82-.39-.37-.47-.59,.12-.54,.03-.77-.1-.47-.19-.69-.78-.19-.88-.41,.36-.67,.26-.89-.65-.22-.75-.43-.3-.37-.4-.58,.3-.2,.19-.41Z"/>
        <g>
          <path class="cls-4" d="M55.13,33.88c-.23-.02-.46-.11-.69-.14s-.39-.81-.62-.83-.5,.36-.73,.34-.48,.16-.71,.14-.44-.37-.67-.39-.49,.3-.72,.28-.45-.29-.68-.3-.5,.47-.73,.46-.47,0-.7,0-.42-.73-.65-.75-.49,.38-.72,.36-.45-.2-.69-.21-.48,.19-.71,.18-.47,.07-.7,.06c-.26-.01-.36,.26-.57,.31-.25,.06-.68-.48-.86-.35-.2,.15-.23,.47-.33,.68s-.39,.46-.36,.71c.02,.22,.58,.27,.71,.49,.11,.19,.24,.27,.43,.45s-.22,1-.04,1.17,1.15-.52,1.34-.35-.29,1.07-.1,1.24,.86-.2,1.05-.04,.3,.42,.48,.59,.08,.67,.26,.84,.48,.22,.67,.39,.53,.16,.72,.33,.54,.15,.73,.32c.19,.17-.09,.85,.1,1.02s.55,.13,.74,.29,.6,.06,.79,.22,.01,.77,.21,.93,.6,.06,.79,.22,.37,.34,.56,.49,.18,.57,.38,.73,.81-.23,1.01-.08-.17,1.04,.03,1.19,.58,.06,.78,.21,.22,.54,.42,.69,.51,.16,.71,.31,.83-.52,1.05-.43,.17,1.16,.4,1.2c.24,.04,.58-.36,.81-.38,.25-.03,.39-.37,.59-.47,.22-.11,.63,.02,.77-.17,.15-.2,.33-.39,.47-.6s-.11-.68,.03-.89,.73-.14,.86-.35,.47-.32,.59-.54-.28-.73-.16-.95,.21-.45,.32-.68,.25-.43,.35-.67-.29-.66-.2-.89c.08-.21,.56-.26,.64-.48s-.26-.56-.19-.77,.87-.2,.93-.42-.48-.6-.42-.82,.94-.24,.99-.46-.32-.54-.28-.76c.05-.24-.19-.41-.27-.65-.08-.22,.11-.59-.05-.79-.15-.18-.7,.13-.91-.01-.2-.14-.2-.51-.44-.6s-.41-.35-.66-.37c-.23-.02-.49,.31-.71,.29s-.48,.24-.71,.22-.4-.54-.63-.56-.42-.4-.64-.43-.48,.2-.7,.17-.4-.54-.63-.56-.48,.18-.7,.16-.45-.08-.68-.1-.52,.61-.75,.59Z"/>
          <path class="cls-4" d="M60.4,15.79c-.19,.14-.29,.56-.49,.7s-.39,.28-.59,.42-.51,.12-.7,.26-.06,.76-.26,.9-.67-.12-.87,.02-.66-.12-.86,.01-.15,.65-.35,.78-.69-.17-.89-.04-.14,.68-.34,.81-.46,.17-.67,.3-.45,.19-.66,.32c-.2,.12-.15,.66-.35,.78s-.67-.2-.87-.08-.19,.59-.39,.71-.76-.35-.96-.23-.45,.16-.65,.28-.38,.27-.58,.4-.21,.57-.41,.69-.09,.76-.29,.88-.6-.09-.8,.03-.46,.15-.66,.27-.33,.35-.54,.48-.49,.09-.69,.22-.67-.19-.87-.07-.12,.71-.32,.83-.72-.27-.92-.15-.33,.5-.52,.63c-.06,.12,.32,.61,.26,.73-.11,.22-.11,.36-.12,.59-.01,.24-.17,.43-.09,.65s.2,.39,.36,.56,.38,.16,.6,.25c.21,.08,.36,.14,.61,.13s.5,.07,.75,.05,.52,.55,.77,.54,.47-.6,.71-.61,.5,.03,.74,.02,.51,.29,.75,.28,.48-.5,.72-.51,.51,.5,.76,.49,.49-.14,.74-.14,.5,.14,.74,.13,.49-.45,.73-.46,.49-.23,.74-.23,.5,.77,.74,.77c.23,0,.46-.76,.7-.76s.46-.16,.7-.16,.46,.35,.69,.35,.47-.35,.7-.35,.46,.7,.69,.71,.47-.26,.7-.26,.46,.07,.69,.07,.46-.02,.69-.02,.46,.35,.69,.35,.47-.85,.7-.85,.46,.53,.69,.53c.25,0,.39-.24,.61-.34s.37-.16,.53-.34,.57-.21,.65-.44-.28-.48-.31-.73,.13-.5,.1-.74,.06-.5,.03-.74-.56-.39-.61-.63,.27-.54,.22-.77-.43-.39-.49-.63,.63-.65,.57-.88-.95-.24-1.01-.48-.17-.44-.24-.67,.64-.71,.56-.94-.79-.24-.87-.46-.31-.39-.4-.61,0-.51-.08-.74,.59-.78,.49-1-.62-.25-.72-.47-.21-.44-.31-.65-.24-.51-.35-.72Z"/>
          <path class="cls-4" d="M33.5,33.79c-.19,.15-.61,.02-.8,.17s-.09,.68-.28,.82-.42,.24-.61,.38-.14,.62-.33,.76-.84-.33-1.03-.19-.02,.79-.21,.93-.3,.41-.49,.55-.8-.31-1-.17-.05,.76-.25,.9-.68-.15-.88-.02-.17,.6-.37,.73-.52,.08-.72,.21-.67-.15-.87-.02-.07,.78-.27,.9-.72-.25-.92-.12-.18,.61-.38,.74-.36,.32-.57,.44-.65-.16-.86-.04-.19,.61-.4,.73-.62-.13-.83,0-.09,.81-.3,.92-.62-.14-.83-.03-.54,0-.75,.11-.21,.61-.42,.73-.63-.18-.85-.07-.21,.63-.42,.74-.55-.02-.76,.09c-.2,.1-.48,.04-.68,.14s-.15,.69-.35,.79-.35,.28-.55,.38c-.03,.03-.11,.26-.5,.52-.28,.19-.36,.24-.65,.42,.14,.19-.16,.28,0,.46s.34,.34,.49,.52,.41,.27,.56,.45,.08,.57,.24,.75,.64,.04,.81,.21,.38,.28,.55,.45,.31,.36,.48,.52-.09,.81,.09,.97,.54,.11,.72,.27,.78-.21,.97-.06,.37,.27,.56,.42,.29,.38,.48,.53,0,.81,.2,.94,.58-.12,.8-.07,.35-.2,.58-.25,.56,.31,.75,.17,.79-.06,.91-.26-.62-.94-.49-1.14,1.01,.07,1.13-.13-.48-.86-.35-1.06,.41-.3,.54-.5,.36-.33,.49-.53,.43-.29,.56-.49,.3-.37,.43-.57,.11-.5,.24-.69-.15-.67-.02-.87,1.15,.2,1.29,0-.09-.63,.05-.83,.4-.3,.53-.5-.23-.73-.1-.93,.14-.48,.28-.67,.28-.39,.41-.58,.45-.27,.59-.46,.86,.02,.99-.18,0-.57,.14-.77,.09-.51,.23-.71,.4-.3,.54-.49-.11-.65,.02-.85,.96,.08,1.09-.11-.21-.72-.08-.92,.8-.02,.94-.22,0-.58,.13-.77-.02-.59,.11-.78,.45-.27,.58-.47c.16-.24-.36-.59-.33-.84,.03-.27,.36-.4,.26-.64s-.05-.58-.25-.76Z"/>
          <path class="cls-4" d="M51.37,46.07c-.17-.17-.28-.38-.44-.55s-.51-.17-.67-.34-.26-.41-.42-.58-.06-.59-.22-.76-.89,.18-1.05,0,.18-.81,.02-.98-.53-.16-.69-.33-.48-.2-.64-.38-.35-.32-.51-.5-.24-.42-.4-.59-.52-.17-.68-.35-.06-.58-.21-.76-.11-.53-.27-.71-.86,.12-1.01-.06-.2-.46-.35-.63,.41-.99,.26-1.17-.78,.05-.94-.12-.71,0-.87-.19-.31-.36-.46-.54,.5-1.06,.34-1.24c-.18-.21-.94,.11-1.18,.01-.24-.1-.54-.43-.79-.41s-.66,.11-.89,.25,.37,.99,.22,1.22c-.13,.2-1.42-.35-1.56-.14s.72,1.05,.58,1.26-1.39-.34-1.53-.14,.02,.6-.11,.8,.59,.98,.45,1.18-.11,.52-.24,.72-1.06-.14-1.2,.06,.25,.76,.11,.96-.59,.18-.73,.38-.32,.37-.45,.57-.55,.21-.69,.41-.15,.49-.29,.69-.15,.49-.28,.69,.1,.66-.04,.86,0,.59-.14,.79-1.37-.36-1.51-.16,.17,.71,.03,.91-.73,.09-.87,.29,.73,1.1,.6,1.3-1.05-.13-1.19,.07,.13,.68,0,.88-.48,.26-.61,.46,.34,.81,.2,1.01-.34,.36-.47,.56-.28,.4-.41,.6-.6,.18-.73,.39-.56,.22-.69,.42,.35,.81,.22,1.01-1.28-.24-1.41-.04,.47,.87,.34,1.08c-.15,.23,.24,.41,.22,.66s-.71,.49-.62,.73-.17,.96,.03,1.13,1.07-.92,1.33-.85c.23,.06,.16,1.33,.39,1.39s.71-.95,.95-.9,.21,1.4,.45,1.45,.49,.1,.73,.14,.51-.04,.75,0,.59-.73,.83-.7,.46,.24,.7,.26,.47,.21,.71,.23,.48,.24,.72,.25,.5-.16,.74-.16,.49-.34,.73-.35,.5,.72,.74,.71,.46-.66,.71-.67,.54,.8,.78,.79,.5-.04,.74-.06,.39-.91,.63-.94,.36-.83,.6-.87,.47,0,.7-.05,.51,.18,.74,.13,.43-.23,.67-.28,.43-.22,.66-.28,.83,1.28,1.06,1.22,.08-1.49,.31-1.56,.63,.45,.86,.38,.5-.01,.73-.09,.72,.54,.94,.46,.47-.18,.69-.27,.21-.78,.43-.87,.32-.48,.53-.58,.82,.6,1.04,.5-.07-1.21,.15-1.32,.6,.11,.81,0,.62,.11,.83,0,.4-.29,.6-.41,.11-.73,.32-.86,.08-.74,.28-.87,1.11,.76,1.3,.62-.1-.95,.1-1.09c.21-.16-.13-.41-.02-.62s.44-.1,.45-.35,1.19-.8,1.09-1.03-.97-.13-1.16-.31-.57-.12-.76-.29-.75,.06-.94-.11,.69-1.47,.51-1.65-.36-.34-.54-.52-.6-.1-.78-.28Z"/>
        </g>
        <g>
          <g>
            <path class="cls-5" d="M31.22,36.03c-.19,.14-.15-.26-.34-.11s-.21,.54-.4,.68-.97-.52-1.16-.38,.19,1.11,0,1.25-.97-.55-1.17-.41,.03,.9-.17,1.04-.64-.08-.84,.06-.31,.4-.51,.54-.32,.35-.53,.48c-.06,.25,.31,.53,.27,.78-.03,.27-.48,.46-.47,.71,.01,.28,.5,.36,.58,.58,.09,.26-.59,1.09-.39,1.24,.19,.15,.79,.01,1.02-.01,.2-.02,.59,0,.81-.13,.18-.1-.02-.82,.16-.98,.17-.14,.57-.02,.73-.19s.48-.19,.63-.36,.54-.16,.68-.34,.1-.53,.24-.7c.15-.19,.13-.5,.26-.66,.15-.2-.01-.61,.11-.84s-.2-.59-.11-.83,.85-.25,.9-.5c.05-.26,.05-.53,.04-.78,0-.27-.26,.09-.35-.14Z"/>
            <path class="cls-5" d="M18.91,43.54c.06,.29,.2,.27,.42,.51,.16,.18,.11,.6,.33,.69s.48-.17,.72-.19c.23-.02,.32-.21,.54-.31,.2-.09,.38-.09,.56-.26,.18-.17,.82-.01,.97-.26,.14-.23-.29-.74-.2-.99s.77-.39,.8-.65c.04-.29-.28-.77-.35-.99-.22,.13-.47,.44-.69,.57s-.42,.29-.64,.41-.44,.25-.66,.37-.35,.4-.58,.53-.61-.07-.84,.05-.19,.4-.41,.52Z"/>
          </g>
          <g>
            <path class="cls-5" d="M43.88,39.39c.09,.18,.06,.46,.17,.68,.1,.19-.27,.63-.17,.84s1.02,.05,1.11,.26-.88,.84-.81,1.05c.08,.22,.95,.19,1,.4,.06,.24-.33,.55-.31,.76,.02,.25,.03,.43-.04,.62-.08,.22,.23,1.08,.02,1.19-.2,.1-.73-1.08-.97-1.09-.21-.01-.61,.91-.84,.82-.21-.08-.51-.16-.72-.28-.19-.11,.13-1.02-.06-1.16s-.57,.01-.75-.14,.1-.7-.05-.87-1.01,.24-1.14,.06c-.14-.2,.04-.59-.06-.78s-.31-.35-.41-.57c-.09-.21-.62-.25-.71-.47s.92-.79,.85-1.01-.25-.36-.28-.58c-.04-.24-.32-.38-.31-.6,.01-.25-.32-.56-.22-.76s.16-.77,.39-.88c.21-.11,.68,.58,.91,.58s.47-.32,.69-.25c.21,.07,.13,.67,.33,.8,.19,.11,.25,.27,.43,.42s.17,.35,.32,.52,.56,.06,.69,.24,.85,.03,.95,.22Z"/>
            <path class="cls-5" d="M36.5,45.69c-.1,.19,.31,.69,.19,.93-.11,.21-.16,.49-.29,.7s-.16,.54-.3,.73c-.17,.22-.9-.17-1.07-.04-.24,.18-.23,.75-.45,.64-.2-.1-.71-.3-.79-.58-.06-.21,.87-.59,.87-.86,0-.24-.97-.56-.93-.81s1.07-.27,1.14-.5c.08-.26,.08-.42,.18-.62,.09-.18,.1-.41,.21-.6s.09-.44,.22-.62c.13-.19,.42-.18,.56-.32,.17-.18,.05-.56,.23-.64,.21-.1,.18,.21,.38,.32,.24,.12,1.01-.19,1.09,.09,.07,.23-.08,.64-.1,.93-.02,.26-.43,.47-.5,.73s-.53,.31-.65,.53Z"/>
            <path class="cls-5" d="M42.29,50.37c.03,.25-.67,.48-.71,.7-.05,.24,.32,.63,.2,.82-.13,.21-.43,.33-.62,.46s-.44,.39-.68,.42-.56,.09-.76,.04c-.21-.06-.33-.48-.49-.62-.15-.14-.31-.3-.4-.51-.08-.18,.31-.45,.28-.69-.02-.21-.17-.41-.17-.66,0-.23-.42-.5-.39-.74s.37-.43,.44-.65c.07-.25,.05-.5,.17-.68,.15-.23,.27-.73,.5-.76s.37,.59,.6,.73c.19,.12,.42,.15,.6,.34,.16,.17,.53,.21,.66,.41s.36,.41,.45,.63c.1,.24,.3,.54,.32,.76Z"/>
          </g>
          <path class="cls-5" d="M52.85,34.81c.17,.11,.05,.73,.26,.87,.18,.12,.75-.31,.94-.18s-.1,.95,.08,1.09,.22,.44,.39,.58c.18,.15,.09,.52,.24,.67,.17,.17,.34,.18,.46,.35,.14,.21,1.22-.03,1.26,.17,.05,.23-.84,.31-.96,.52-.12,.19,.03,.48-.19,.59-.19,.1-.43-.08-.67-.03-.21,.04-.37,1.2-.61,1.2-.22,0-.51-.42-.74-.44s-.29-1.04-.52-1.09-.57,.45-.79,.38-.63,.29-.84,.2c-.23-.1-.21-.69-.39-.8s-.77,.31-.96,.18c-.19-.13,.27-1.14,.09-1.29s-1.09,.54-1.25,.38-.26-.49-.4-.67c-.16-.19,.46-.88,.36-1.07-.12-.22-.04-.25-.06-.47s-.16-.19-.03-.4c.12-.2-.26-.87-.07-.99s.6,.17,.83,.12c.21-.05,.41,.28,.65,.29,.22,0,.41-.16,.64-.12s.53-.29,.75-.22,.31,.46,.51,.55,.81-.48,1-.37Z"/>
          <path class="cls-5" d="M49.74,22.63s-.43-.49-.46-.48c-.19,.11-.34,.33-.53,.44s-.23,.48-.42,.59-.19,.54-.38,.65-.31,.34-.5,.45-.86-.58-1.05-.46,.39,1.23,.2,1.34c-.03,.13-1.23,0-1.23,.14,.01,.25,1.39,.05,1.53,.22s-.35,1.07-.13,1.19c.19,.1,.7-.56,.94-.49,.22,.06,.46-.3,.69-.26s.39,.16,.62,.17,.43,1.23,.66,1.23c.24,0,.5-.02,.72-.03s.43-.53,.67-.58c.22-.04,.25-.72,.48-.79s.68,.58,.9,.48,.55,0,.75-.11,.08-.78,.26-.91c.2-.14,.53-.08,.69-.24,.17-.18,.16-.46,.26-.65,.11-.21,.8-.41,.79-.63-.01-.24-.45-.61-.62-.77-.15-.14-.39-.45-.63-.53-.2-.07-.47-.23-.71-.27-.21-.04-.51,.2-.75,.18s-.48,.81-.71,.81-.43,.22-.66,.22-.47-.64-.69-.63c-.25,.01-.5-.31-.7-.3Z"/>
        </g>
        <g class="cls-6">
          <path class="cls-1" d="M71.62,17.92c-.08-.23-.5-.35-.6-.57s-.33-.37-.46-.57,.42-.97,.27-1.15-1.22,.46-1.4,.3,.4-1.3,.2-1.44-1.14,.88-1.35,.77-.01-1.12-.24-1.2-.69,.56-.93,.5-.48,.28-.72,.25-.39-.14-.64-.14-.56-1.14-.8-1.11-.54,.11-.78,.17-.35,.59-.58,.69-.14,.74-.35,.86-.8-.37-1-.22c-.18,.14-.49,.1-.67,.24s0,.76-.18,.89-.52,.07-.7,.2-.27,.41-.45,.54-.73-.24-.91-.11-.23,.46-.42,.59-.57,.25-.75,.38c-.04,.24-.22,.6-.27,.83s.17,.52,.13,.75,.7,.62,.66,.86,.11,.52,.07,.75-.71,.35-.76,.58,.32,.57,.26,.8-.7,.33-.76,.56,.53,.65,.47,.88-.95,.23-1.02,.46c-.07,.23-.35,.39-.42,.62s-.47,.35-.54,.58-.03,.49-.1,.72,.91,.8,.84,1.03-1.05,.16-1.12,.39,.17,.56,.09,.79-.39,.38-.46,.6,.95,.83,.87,1.06-.55,.32-.63,.55-1.11,.12-1.19,.35,.39,.65,.31,.87,.3,.62,.22,.84-.67,.27-.76,.5,.48,.69,.4,.92-1.2,.07-1.29,.3,.89,.84,.8,1.07-.33,.39-.42,.62-1.03,.13-1.11,.35-.26,.42-.34,.64-.04,.5-.13,.72,.56,.73,.47,.95c-.09,.22-.58,.29-.67,.51s-.51,.32-.59,.54,0,.51-.09,.74,.2,.59,.11,.82-.49,.32-.58,.55,.65,.78,.56,1-1.3,0-1.39,.22,.62,.77,.53,.99-.39,.37-.48,.59,.08,.56,0,.78-.04,.51-.13,.73-.72,.23-.81,.45-.13,.47-.23,.69-.9,.14-1,.37,.03,.54-.06,.76,.51,.74,.41,.97-.67,.23-.77,.46-.01,.52-.11,.74,.39,.7,.29,.92-1.1,.04-1.2,.26,0,.53-.1,.75,.24,.64,.13,.86-.03,.53-.13,.74-1.33-.1-1.43,.12,.56,.81,.46,1.03-.09,.5-.2,.71-.01,.54-.12,.76-1.27-.1-1.38,.12,.57,.83,.45,1.05,.19,.65,.08,.86-1.47-.23-1.59-.02,1.03,1.11,.92,1.32-1.51-.28-1.62-.06-.17,.46-.29,.67-.11,.49-.23,.7-.05,.53-.17,.74-.53,.25-.65,.45,.21,.69,.09,.9-.71,.13-.84,.33,.83,1.1,.7,1.3-.48,.27-.61,.48-.7,.12-.84,.32,.19,.71,.05,.91-.41,.31-.55,.51-.74,.07-.88,.27,.57,.29,.42,.48c.24,0-.06,.87,.18,.85s.42-.94,.66-.96,.52,.44,.76,.41,.48-.07,.72-.1,.35-.97,.59-1.01,.68,1.34,.92,1.3,.29-1.15,.53-1.19,.45-.14,.69-.19,.68,.9,.91,.84,.38-.5,.62-.55,.63,.49,.86,.43,.2-1.09,.43-1.16,.57,.25,.8,.18,.42-.27,.65-.34,.29-.63,.51-.71,.87,1,1.1,.92,.4-.32,.63-.41,.34-.45,.56-.54,.27-.59,.49-.69,.26-.56,.48-.66,.81,.59,1.02,.48,.26-.56,.47-.67,.72,.34,.93,.23,.48-.15,.69-.27,.51-.1,.72-.22,.2-.61,.41-.74-.05-.97,.15-1.1,.33-.34,.53-.48,.84,.39,1.04,.25,.04-.76,.23-.9,.17-.55,.36-.7,.5-.12,.68-.27,1.14,.65,1.33,.5-.42-1.24-.24-1.4,1.2,.64,1.38,.48,.08-.63,.26-.8,.07-.62,.24-.79,.28-.39,.45-.56,.33-.35,.49-.52,.05-.6,.21-.77,.85,.12,1-.06-.4-.97-.25-1.15c.15-.18,.81,.06,.97-.12s0-.61,.15-.79,1.23,.35,1.37,.16-.69-1.12-.55-1.31,1.26,.32,1.4,.13-.47-.92-.33-1.11,.69-.11,.82-.31,.1-.51,.23-.71,.14-.48,.26-.68-.18-.66-.06-.87,.69-.15,.81-.35-.26-.69-.15-.9,1.37,.19,1.48-.02-.1-.6,.01-.81,.38-.36,.48-.57-.56-.79-.46-1.01,.59-.26,.68-.48,.43-.34,.52-.56,.52-.32,.61-.54-.11-.56-.03-.79-.06-.53,.02-.76-.26-.59-.18-.82-.37-.61-.3-.84,.97-.2,1.04-.43,.1-.47,.16-.7,.2-.44,.26-.67-.41-.59-.36-.82,.7-.33,.74-.57-.02-.49,.03-.73,.26-.44,.3-.68-.02-.49,.01-.73-.74-.58-.71-.82,1.31-.32,1.34-.56-.99-.58-.96-.82,1.18-.38,1.2-.62-.12-.5-.11-.73-1.23-.53-1.22-.77,1.07-.44,1.07-.68-.83-.48-.83-.72,.31-.47,.3-.71-.49-.45-.5-.69,.78-.51,.77-.75-.15-.47-.16-.71,.59-.54,.57-.77-.76-.4-.79-.64-.67-.39-.7-.63,.82-.59,.78-.83-.91-.33-.95-.56,1.2-.7,1.16-.94-1.52-.18-1.57-.41,1.2-.75,1.15-.98,.12-.53,.06-.76-1.36-.14-1.42-.37-.26-.41-.33-.64,.64-.68,.57-.91,.05-.52-.02-.75Z"/>
        </g>
      </g>
    </g>
  </g>
</svg>