<?xml version="1.0" encoding="UTF-8"?>
<svg id="_圖層_6" data-name="圖層 6" xmlns="http://www.w3.org/2000/svg" viewBox="0 0 80 80">
  <defs>
    <style>
      .cls-1 {
        fill: #f9d5e5;
      }

      .cls-2 {
        fill: #f8cad1;
      }

      .cls-3 {
        fill: #e898a5;
      }

      .cls-4 {
        fill: #f7fbf9;
      }

      .cls-5 {
        fill: #d78997;
      }

      .cls-6 {
        fill: #fadce9;
      }

      .cls-7 {
        fill: #fffefe;
      }
    </style>
  </defs>
  <path class="cls-5" d="M36.12,12.02c-.36,.09-1-1.1-1.32-.89s.15,.91-.17,1.12,.17,.95-.14,1.16-1.07-.94-1.38-.73,.51,1.46,.2,1.67-.37,.12-.69,.33-1.51-1.61-1.83-1.4,1.2,2.51,.88,2.72-1.03-.89-1.38-.75-.13,1.53-.5,1.59-.8-2.72-1.17-2.66-.08,1.93-.46,1.99-.28,.66-.66,.72-.39-.04-.77,.02-.32,.45-.69,.51-1.1-2.08-1.41-1.85c-.28,.21,.23,.88,.1,1.2s-1.17-.09-1.3,.23,2.27,1.29,2.14,1.62-1.81-.35-1.94-.02-.34,.24-.47,.57,1.56,1.01,1.42,1.33-2.48-.62-2.62-.29,2.33,1.32,2.2,1.64-1.23-.11-1.36,.21-.47,.19-.61,.52-.79,.07-.92,.39-.32,.26-.45,.59,.82,.46,.52,.66-.05,1.9-.39,1.9-.35-2.27-.69-2.27-.35,2.45-.69,2.45-.35-2.35-.7-2.35-.37-.36-.71-.35c-.37,0-.34,1.35-.71,1.36s-.37,.02-.75,.03-.42-1.56-.8-1.55-.3,2.25-.68,2.26-.39,.04-.76,.04c-.43,0-.44-1.47-.87-1.47s-1.01-.66-1.39-.46c-.32,.17-.91,.66-1.06,.99s1.7,1.23,1.55,1.56-.4,.21-.55,.53-1.89-.52-2.05-.19,1.27,1.02,1.11,1.35-.85,0-1.01,.32,.7,.66,.65,1.02-.2,.29-.14,.64-.45,.44-.39,.78-.93,.52-.87,.86,3.01-.17,3.07,.18-.7,.48-.64,.83-.41,.43-.35,.78,.52,.27,.58,.61,.61,.25,.67,.6-1.82,.68-1.76,1.02,.35,.3,.41,.64,.57,.26,.63,.61,.83,.21,.89,.56-.69,.48-.63,.83,.9,.2,.96,.55-1.32,.59-1.26,.94,.61,.28,.63,.63-.07,.37-.09,.73-1.04,.29-1.06,.65,1.38,.44,1.36,.79-.6,.32-.62,.67,1.12,.42,1.1,.78-.81,.31-.83,.66-1,.29-1.02,.65,1.95,.47,1.93,.83-2.39,.22-2.41,.57,.32,.38,.3,.73-.71,.72-.62,1.06,1.34,.08,1.52,.38,.4,.17,.57,.48-1.19,1.1-1.02,1.4,.6,.06,.78,.37,.05,.38,.23,.69,2-.75,2.18-.45-1.45,1.25-1.27,1.55,.41,.17,.59,.48-.11,.47,.07,.78,1.9-.69,2.08-.38-.5,.7-.32,1-.31,.59-.13,.9,.66,.03,.83,.33,.9-.11,1.08,.2,.6,.06,.77,.37-1.26,1.14-1.08,1.45,.16,.32,.34,.63-1.05,1.02-.87,1.33,1.04,.15,1.33,.36,.41,1.02,.76,1.1,.74-1.64,1.09-1.56,.23,.67,.59,.75,.61-1.05,.96-.97-.1,2.13,.26,2.21,.55-.81,.91-.73,.37,0,.73,.09,.64-1.21,1-1.13-.17,2.47,.19,2.55,.4-.11,.76-.03,.87-2.24,1.23-2.16,0,1.75,.35,1.83,.41-.15,.77-.08,.78-1.82,1.14-1.74-.09,2.14,.27,2.22,.71-1.48,1.07-1.4,.05,.37,.42,.34c.35-.03,.9,2,1.22,1.87s-.57-2.31-.25-2.45,.87,1.22,1.2,1.09,.74,.88,1.06,.75-.41-1.92-.08-2.05,.66,.69,.98,.56,.45,.17,.77,.04,.57,.46,.89,.33-.7-2.65-.38-2.79,.22-.39,.54-.53,.43,.12,.75-.02,.49,.28,.82,.14,.53,.35,.85,.22,.41-.17,.76-.18-.05,1.65,.29,1.76,.51-.41,.86-.31,.23,.51,.58,.62,.65-.9,1-.79,.78-1.32,1.13-1.21-.01,1.3,.34,1.41,.79-1.33,1.14-1.23,.36,.08,.71,.19,.03,1.17,.38,1.28,.23,.66,.59,.59,.5,.04,.77-.19-.31-.93-.04-1.16,1.7,1.46,1.97,1.23-.07-.64,.2-.87-.11-.68,.16-.91,.67,.24,.94,.01-1.13-1.9-.86-2.13,2,1.83,2.28,1.6-.46-1.1-.18-1.33,.54,.09,.82-.14-.24-.84,.04-1.07,1.23,.91,1.51,.68,.26-.24,.54-.47-1.39-2.22-1.12-2.45,.76,.35,1.04,.12,.34-.15,.62-.38,.18-.34,.46-.58-.24-.84,.03-1.07-.01-.57,.26-.81,.9,.51,1.17,.28-.33-.95-.05-1.18,.89,.5,1.17,.26,.97,.59,1.25,.36-1.13-1.43-.91-1.72-.12-.08,.02-.41,1.93,.46,2.07,.14-1.19-.91-1.05-1.24,.18-.31,.32-.64,2.12,.55,2.27,.23-.3-.52-.15-.84-1.3-.96-1.16-1.29-.31-.53-.16-.85,.34-.24,.48-.57,1.77,.4,1.92,.07,.69-.09,.83-.41-.48-.6-.34-.93-1.59-1.09-1.45-1.42,2.03,.51,2.17,.18-.47-.6-.33-.93-.8-.74-.65-1.07,.66-.1,.8-.43-.46-.07-.47-.43,1.79-.77,1.63-1.08-.73-.01-.9-.32-.37-.2-.54-.52,.39-.61,.22-.92,.59-.71,.42-1.03-1.87,.59-2.03,.28,1.02-.94,.86-1.26-1.39,.34-1.56,.03,1.55-1.22,1.39-1.53-2.59,.98-2.76,.67,.67-.76,.51-1.07,.07-.44-.09-.75-1.2,.23-1.36-.08-.53-.12-.69-.44,.54-.69,.37-1,1.64-1.27,1.48-1.59-2.07,.7-2.24,.38,.92-.89,.75-1.21,.46-.65,.29-.96-2.05,.69-2.22,.37,.8-.83,.63-1.14-.24-.28-.4-.59,.13-.47-.04-.79-.61-.08-.78-.4-.16-.32-.32-.64,.66-.75,.49-1.07-.42-.38-.71-.6-.75,.97-1.08,.89-.45,.37-.78,.29,.35-2.88,.02-2.96-.69,1.37-1.02,1.29-.52,.65-.85,.57-.11-.99-.45-1.08-.7,1.37-1.03,1.29,.02-1.31-.26-1.51-.66,.13-.86-.15-.37-.16-.57-.45-1.01,.28-1.21,0,2.18-1.97,1.98-2.25-2.07,1.03-2.27,.75,1.89-1.76,1.69-2.05-1.39,.55-1.59,.27-1.2,.42-1.41,.13-.42-.13-.63-.41-.27-.24-.47-.53,1.8-1.7,1.6-1.98-2,.98-2.2,.69,.45-.35,.14-.53,.22-2.26-.13-2.29-.37,.18-.72,.15-.5,1.63-.85,1.6-.38,.31-.73,.28-.32-.33-.67-.36-.3-.58-.65-.61-.46,1.16-.81,1.12-.23-1.28-.58-1.32-.28-.75-.63-.78-.52,1.81-.87,1.78-.33-.26-.68-.29-.17-1.92-.52-1.96-.45,1.1-.79,1.18-.27,.19-.61,.28Z"/>
  <path class="cls-6" d="M35.31,63.15c.17,.32-.45,.58-.71,.95-.12,.17-.03,.59-.21,.79-.14,.17-.34,.38-.53,.56-.16,.16-1.17-.66-1.37-.5-.18,.14,.4,1.35,.19,1.48-.19,.13-.88-.56-1.1-.44-.21,.11,.02,1.2-.21,1.3-.22,.09-.93-1.22-1.17-1.15-.22,.07-.23,.84-.47,.89-.23,.05-.55-.63-.8-.59-.23,.03-.38,.57-.63,.58-.23,.01-.45-.48-.7-.48-.23,0-.45,.24-.69,.22-.23-.02-.41-.26-.66-.29-.23-.03-.71,1.36-.96,1.31-.24-.05-.38-.64-.6-.69-.24-.05-.37-.54-.6-.59-.24-.06-.75,.83-.97,.77-.24-.07-.22-.97-.43-1.04-.24-.08-.62,.25-.83,.16-.24-.1-.51-.14-.7-.24-.23-.12-.67,.06-.86-.06-.22-.14,.27-1.26,.1-1.4-.2-.16-.81,.17-.96,.02-.18-.18-.75-.01-.9-.18-.16-.19,.27-.88,.1-1.03s-.37-.26-.6-.37c-.19-.09-.54,.49-.8,.43-.22-.04-.19-1.46-.43-1.5-.22-.04-.55,.54-.78,.51s-.39-.59-.62-.61-.55,.66-.78,.64-.36-.79-.59-.82-.54,.52-.76,.49-.47-.05-.69-.1c-.24-.05-.3-.74-.51-.79-.24-.06-.91,1.27-1.11,1.2-.23-.09-.05-1.12-.22-1.23-.21-.14-.98,.19-1.09,0-.11-.18-.35-.54-.41-.79-.05-.21,.55-.58,.53-.83-.02-.22-.08-.45-.09-.69,0-.22,.41-.45,.41-.68s.01-.45,.02-.68,.18-.46,.18-.69,.04-.48,.03-.71-.11-.49-.12-.72c-.02-.24-.26-.47-.3-.69-.04-.24,.27-.64,.19-.84-.08-.21-.89-.15-.99-.39-.09-.21-.47-.31-.57-.53-.09-.21,.24-.62,.15-.85-.09-.22-.8-.21-.88-.45s.2-.59,.13-.83,.02-.51-.03-.75-.22-.46-.25-.7,.46-.51,.46-.76-.8-.5-.79-.75,.38-.47,.41-.71-.43-.62-.37-.86c.06-.23,.49-.4,.57-.63,.08-.24,.77-.24,.87-.45,.11-.23-.19-.68-.06-.88,.14-.22-.04-.71,.11-.9,.16-.2,.89,.08,1.06-.08,.19-.18,.31-.41,.5-.56,.21-.15,.5-.15,.7-.27,.23-.13,.31-.54,.52-.63,.26-.11,.48-.33,.68-.39,.43-.13,.48,0,.79,.19s.63-.14,.88,.11,.16,.35,.41,.6-.39,.9-.14,1.15,.38,.12,.64,.37,.9-.4,1.15-.15,.32,.18,.57,.43-.42,.92-.17,1.17,.74-.25,1,0-.19,.69,.07,.94,.88-.38,1.13-.13-.51,1.01-.26,1.26,.06,.44,.31,.69,.18,.32,.43,.57,.46,.04,.71,.29,.88-.38,1.13-.13-.05,.56,.2,.81,.6-.1,.86,.15,.14,.36,.39,.61-.15,.65,.1,.9,.77-.27,1.02-.02,.36,.14,.62,.39-.77,1.28-.52,1.53,.54-.04,.79,.21,.62-.13,.88,.12-.03,.53,.22,.78,.63-.14,.88,.11,.44,.06,.7,.31-.24,.74,.01,1,.76-.25,1.01,0-.02,.53,.23,.78,.2,.3,.45,.56-.39,.9-.14,1.15,.95-.45,1.21-.2,0,.51,.25,.76,.88-.38,1.13-.12,.15,.35,.4,.6-.29,.8-.04,1.05,.44,.07,.69,.32,.29,.22,.54,.47,.69-.18,.94,.07-.4,.91-.14,1.16,.31,.25,.65,.37c.5,.17,.81-.06,.98,.26Z"/>
  <path class="cls-5" d="M35.1,62.77c.16,.32,.35,.71-.04,.91-.18,.1-.92-.8-1.16-.67-.2,.1-.18,.67-.41,.78-.21,.1-.63-.22-.85-.11s-.1,.89-.32,.99-.37,.36-.59,.46-.98-1.01-1.2-.92-.13,.93-.34,1.02c-.23,.09-.71-.53-.92-.46-.25,.09-.23,.87-.44,.92-.21,.05-.33,.78-.59,.83-.23,.04-.62-.74-.88-.7-.23,.03-.49-.14-.74-.12-.24,.02-.47,.02-.72,.03s-.53,.92-.78,.9-.34-1.39-.58-1.43-.78,1.38-1.02,1.32-.33-.76-.56-.85-.24-.61-.46-.73-.34-.28-.54-.43-.87,.25-1.05,.07,.01-.66-.13-.87c-.14-.2-.72-.17-.83-.39-.12-.23,.19-.66,.11-.88-.09-.24-.39-.43-.44-.66-.06-.25,.46-.57,.44-.81-.02-.25-1.01-.5-1-.74s-.05-.55-.02-.79,.3-.47,.33-.72,1.2-.37,1.22-.62-1.32-.53-1.32-.78,1.07-.55,1.03-.8c-.03-.23-.43-.43-.5-.68-.07-.22,.33-.67,.23-.91-.09-.21-.11-.56-.24-.79-.12-.2-.59-.25-.74-.47-.14-.2-1.12,.29-1.27,.11s-.18-.4-.36-.56-.17-.46-.36-.61-.13-.61-.32-.74-.81,.43-1.01,.31-.02-.9-.23-1.01-.68,.32-.89,.22,.03-1.25-.19-1.34-.47-.16-.7-.24-.83,.87-1.05,.79-.38-.35-.6-.42c-.23-.08-.46-.15-.68-.23-.24-.08-.31-.62-.52-.7-.24-.08-.56,.09-.77,.01-.25-.1-.72,.21-.9,.11-.25-.14,.21-1.04,.12-1.21-.1-.18-.11-.14-.02-.44,.06-.21-.56-.76-.42-1,.11-.2,1.06,.09,1.21-.13,.13-.2,.08-.52,.23-.73s.04-.6,.2-.79,.83,.05,.99-.13-.02-.69,.14-.87c.18-.19,.6-.14,.76-.31,.19-.2,.15-.59,.3-.74,.32-.32,.34-1.52,.69-1.38s-.06,1.02,.2,1.26,.02,.51,.29,.75,.56-.08,.82,.16,.13,.39,.39,.63-.13,.67,.14,.91,.42,.07,.68,.31,.31,.19,.57,.43,1.04-.62,1.31-.38,.06,.46,.33,.7,.14,.37,.41,.61,.62-.15,.89,.09-.57,1.16-.31,1.4,.41,.09,.67,.33,.25,.25,.52,.49,.73-.27,.99-.03-.2,.75,.06,.99,.73-.27,1-.03-.43,1-.16,1.24,.34,.16,.6,.4,.37,.13,.63,.37,.8-.35,1.07-.11,.24,.26,.51,.5-.53,1.11-.27,1.35,1.15-.73,1.41-.49-.02,.55,.25,.79,.07,.46,.33,.7,.12,.4,.39,.64,.39,.1,.66,.35,.51-.03,.78,.21-.17,.72,.09,.96,.97-.53,1.24-.29,.08,.45,.35,.69,.37,.12,.64,.37,.38,.12,.64,.36,.08,.44,.34,.68-.5,1.08-.23,1.32,1.23-.81,1.49-.57-.54,1.12-.27,1.36,1.12-.69,1.39-.45-.29,.85-.02,1.1,.32,.18,.57,.45c.23,.25,.2,.23,.36,.56Z"/>
  <path class="cls-2" d="M58.91,49.71c.33,.09,.36-1.03,.77-1.14,.19-.05,.39-.2,.64-.27,.21-.05,.76,1.11,.99,1.04,.21-.06,.34-.49,.57-.55,.22-.06,.5,.07,.73,0s.15-1.08,.37-1.15,.36-.38,.58-.45,.41-.21,.62-.29,.5,.03,.71-.06c.22-.09,.89,.88,1.09,.79,.22-.1,.19-.77,.38-.87,.23-.12,.73,.15,.89,.04,.23-.17,.63-.53,.71-.69,.12-.25-1.01-.84-.98-1.08,.03-.25,.29-.39,.26-.64s.75-.59,.72-.84c-.03-.24-.9-.42-.9-.69,0-.24-.23-.6-.18-.86,.04-.23,.41-.48,.51-.74,.07-.2,.15-.48,.29-.73,.1-.2,.23-.43,.37-.65,.12-.2,1.32,.25,1.46,.03,.12-.2-.64-.96-.51-1.18,.13-.2,.86-.04,.98-.25s.33-.38,.46-.59-.02-.59,.1-.8-.32-.73-.21-.95,.4-.34,.5-.57,.18-.45,.27-.68-.3-.6-.23-.84,.45-.35,.5-.59,.67-.4,.69-.64,.61-.58,.6-.82-.56-.53-.62-.77c-.06-.21-.66-.27-.77-.52-.09-.21,.76-.91,.64-1.14-.11-.21-1.04,0-1.17-.21-.12-.2-.62-.17-.76-.38-.13-.2,.69-1.03,.55-1.24s-.51-.24-.66-.44-.48-.26-.62-.45-.36-.33-.51-.53-.05-.59-.2-.78-1.25,.4-1.41,.21,.09-.7-.06-.89-.49-.22-.65-.4-.3-.38-.46-.56-.13-.54-.3-.72-.25-.43-.42-.61-.6-.09-.77-.26-.41-.27-.58-.43c-.18-.17-.26-.43-.43-.59-.19-.17,.5-1.34,.32-1.49-.2-.17-.55-.18-.73-.31-.21-.16-.91,.37-1.09,.25-.24-.16-.34-.48-.52-.54-.2-.07-.55,.48-.83,.44-.22-.04-.33-1.27-.59-1.29-.23-.02-.52,.13-.77,.11-.24-.01-.51,.4-.76,.39s-.49,.89-.74,.89-.5-1.29-.75-1.28-.49,.47-.74,.48-.5,.04-.75,.05-.49,.35-.73,.36c-.26,.01-.48,.43-.72,.44-.27,.02-.6-1.26-.83-1.25-.28,.02-.45,1.22-.66,1.24-.46,.03-1.06-1.5-1.34-1.26s.71,.96,.63,1.42c-.04,.2-.82,.32-.86,.59-.03,.22,1.35,.65,1.31,.91-.03,.22-1.12,.32-1.15,.58-.03,.23-.64,.41-.67,.66-.02,.23,.15,.5,.13,.75-.02,.23-.12,.48-.14,.73-.02,.23,1.08,.54,1.07,.79s-.95,.44-.96,.69,.05,.49,.05,.73-.47,.49-.47,.73,.05,.49,.06,.73,1.35,.45,1.36,.69-.79,.51-.77,.75-.5,.52-.48,.76,1.2,.39,1.22,.63-.22,.5-.19,.74-.51,.55-.48,.79,.81,.38,.85,.62-.63,.59-.59,.83,1.12,.29,1.17,.53-.01,.48,.04,.72,.15,.45,.21,.69-.57,.63-.51,.87-.45,.63-.39,.86,1.37,.11,1.44,.34-.24,.57-.17,.81,.6,.3,.68,.53-.28,.61-.2,.84,.69,.23,.79,.46-.29,.64-.2,.86,.59,.25,.69,.47,.18,.43,.29,.65-.61,.86-.5,1.08,.42,.33,.54,.54,.45,.29,.58,.5,.12,.5,.25,.7,.67,.12,.81,.32,.15,.48,.29,.67,.05,.57,.2,.76-.39,.97-.24,1.15,.56,.18,.73,.36,.99-.25,1.16-.07-.07,1.24,.1,1.41Z"/>
  <path class="cls-3" d="M57.82,47.55c.35,.04,.45,.76,.87,.64,.19-.06,.12-1.06,.36-1.15,.2-.08,.85,.78,1.07,.67,.2-.1-.27-1.47-.06-1.59,.19-.11,.29-.28,.48-.42,.18-.13,1.02,.57,1.2,.41s.63-.1,.79-.27-.6-1.1-.46-1.3,.28-.31,.4-.51,.83-.09,.93-.31c.09-.21-.21-.58-.14-.81,.08-.24,.11-.47,.17-.68,.07-.24,.95-.28,1-.5,.05-.25-1.21-.73-1.17-.95,.04-.25,1.2-.33,1.22-.56,.02-.25-.06-.52-.05-.74,0-.25-1.11-.47-1.11-.7,0-.25,.55-.49,.54-.72-.02-.24-.7-.44-.72-.67s.21-.52,.21-.76-.02-.53,.01-.77c.02-.22,.24-.49,.29-.73,.05-.2,.45-.35,.52-.59,.06-.21,.46-.33,.54-.56,.07-.21,.41-.34,.49-.57,.07-.22,.4-.36,.47-.58s-.11-.52-.04-.75,.36-.39,.43-.62-.85-.72-.8-.94-.13-.49-.08-.72,1.35-.24,1.39-.47-.79-.6-.78-.82c.02-.24,.06-.47,.05-.69,0-.24,.1-.49,.06-.71-.04-.24,.24-.62,.16-.83s-.2-.58-.34-.77c-.13-.17-.8,.05-.99-.15-.16-.16-.22-.45-.41-.63-.17-.16-.76,.17-.96,0-.18-.15,.03-.79-.17-.95-.19-.14-.43-.23-.64-.38s0-.88-.2-1.02-.77,.28-.98,.14-.42-.25-.64-.38-.78,.4-.99,.29,.15-1.34-.07-1.45-.72,.34-.94,.24-.72,.47-.95,.37-.34-.4-.57-.49-.38-.35-.62-.42-.24-1.04-.48-1.09-.74,1.18-.97,1.14-.33-1.53-.57-1.55-.56,.6-.8,.61-.54-.11-.78-.07-.51,.2-.73,.28c-.21,.08-.24,.5-.4,.71-.13,.17-.91,.09-1.01,.33-.08,.2,.72,.72,.67,.97-.05,.22-.92,.32-.96,.57-.03,.22,1.27,.58,1.26,.82-.01,.23-1.03,.41-1.03,.66,0,.23-.14,.48-.13,.72,0,.23,.82,.44,.84,.68s-.96,.53-.94,.78,.86,.4,.88,.64,.05,.46,.08,.7-.48,.53-.45,.77,.45,.41,.49,.65-.37,.53-.33,.77-.34,.54-.3,.77,.87,.33,.91,.56,.64,.35,.69,.59-.14,.5-.09,.74-.52,.59-.47,.83-.24,.54-.19,.78,.62,.35,.67,.58,.07,.47,.13,.7-.2,.54-.14,.77,1.21,.17,1.27,.4,.09,.46,.15,.69-.28,.57-.22,.8,.47,.36,.54,.58,.32,.4,.39,.62-.86,.77-.78,.99,.52,.33,.59,.56-.19,.57-.11,.79,.77,.23,.85,.45-.67,.76-.59,.98,.55,.31,.64,.52c.09,.23,.92,.13,1.01,.34,.1,.23-.89,.92-.79,1.13,.1,.22,.18,.47,.28,.68,.11,.22,.23,.46,.35,.65,.13,.22,.63,.21,.75,.4,.15,.22,.06,.63,.2,.78,.19,.21,.68-.02,.86,.07Z"/>
  <path class="cls-1" d="M67.51,45.48c.34,.12,.6-.75,1.01-.59,.19,.08,.18,.79,.41,.91,.2,.1,.2,.58,.41,.72,.2,.12,.24,.4,.43,.56s0,.56,.16,.73,.49,.05,.62,.25,.35,.23,.44,.46c.08,.22,1.65,.22,1.66,.46s-.28,.67-.32,.9-.14,.57-.22,.8-1.38-.04-1.48,.17-.5,.22-.61,.43,1.46,1.37,1.34,1.57-1.52-.35-1.64-.15c-.12,.21,.84,1.03,.73,1.22-.12,.22-1.98-.45-2.07-.25-.11,.24,1.45,.98,1.43,1.17-.02,.21-.2,.33-.16,.6,.03,.22,.47,.38,.52,.63,.04,.23-1.29,.71-1.25,.96,.04,.24,1.12,.36,1.14,.61s-.79,.51-.8,.76,.43,.53,.38,.78-.96,.18-1.05,.41c-.09,.22-.46,.13-.59,.35-.12,.2,1.47,1.65,1.3,1.84-.15,.18-.94-.13-1.13,.04-.2,.17-.88-.24-1.06-.09-.2,.17-.46,.25-.63,.39-.2,.18-.63,.03-.8,.17-.21,.18,.22,1.04,.05,1.18-.21,.17-.62-.02-.8,.1-.21,.14-.06,.84-.27,.95s-.85-.94-1.1-.85c-.21,.07-.05,1.25-.31,1.33-.22,.07-.56-.91-.83-.9-.23,.02-.45,1.72-.7,1.72-.24,0-.41-1.46-.66-1.48s-.48,.02-.73,0-.49-.12-.74-.14-.53,.38-.77,.38-.56-.76-.8-.74-.52,.58-.75,.62-.27,.87-.49,.96-.76-.37-.96-.23c-.18,.13-.45,.12-.68,.26-.2,.12-.34,.32-.57,.44-.21,.11-.41,.22-.64,.34-.21,.11-.12,.87-.35,.97s-.7-.4-.93-.31,0,1.41-.23,1.49-.54,.05-.77,.12-.62-.28-.86-.21-.81-1.16-1.05-1.1-.14,1.64-.38,1.69-.63-.67-.87-.63-.51-.22-.75-.19-.42,1.49-.67,1.49-.52-1.39-.76-1.4-.61,1.11-.85,1.07c-.22-.03-.23-1.5-.47-1.55-.22-.05-.74,1.1-.97,1.03-.22-.06-.49-.09-.72-.16s-.34-.5-.57-.59-.7,.46-.93,.37-.07-1.09-.29-1.19-.42-.21-.64-.31-.04-.97-.25-1.08-1.29,1.46-1.5,1.35-.25-.56-.46-.68-.51-.11-.71-.23,.18-1.21-.02-1.34-.15-.62-.34-.75-1.18,.87-1.37,.74-.41-.27-.6-.42-.43-.27-.61-.42-.31-.41-.49-.56c-.18-.16-.78,.06-.94-.1-.17-.17,.61-1.28,.47-1.45-.16-.19-.6-.24-.73-.42,.1-.34-.17-.97,.24-1.2,.17-.1,.34-.29,.58-.43,.19-.11,.67,.27,.9,.15,.2-.11,.75,.39,.97,.27,.2-.11-.22-1.36,0-1.48,.2-.11,1.36,1.49,1.57,1.37,.2-.11,.07-.85,.28-.97,.2-.11,.74,.37,.95,.25s.1-.79,.31-.91,.2-.62,.41-.73,.33-.37,.55-.49,.87,.62,1.09,.51,.62,.16,.83,.04-.52-1.97-.31-2.08,1.18,1.2,1.39,1.08,.5-.07,.71-.18,.48-.11,.69-.22-.35-1.67-.14-1.78,.72,.35,.93,.24,.68,.27,.89,.16,.59,.11,.8,0-.43-1.85-.22-1.96,1.18,1.23,1.39,1.12,.04-.95,.26-1.06,.9,.7,1.11,.59,.05-.94,.27-1.05,.23-.61,.44-.72,.32-.44,.53-.54,.34-.4,.55-.51,.53-.03,.74-.14,.22-.64,.43-.75,.68,.28,.9,.18,.46-.15,.68-.26,1.16,1.27,1.37,1.16,.32-.44,.53-.54-.03-1.17,.18-1.27,.44-.2,.65-.3,.67,.3,.89,.19,.34-.41,.55-.51,.46-.15,.68-.25,.18-.76,.4-.86,.57,.08,.78-.01,.37-.36,.58-.45,.16-.86,.37-.96,1.12,1.42,1.34,1.33c.23-.09,.36-.39,.57-.47,.23-.09-.13-1.68,.08-1.77,.23-.09,.93,1.07,1.14,.99,.23-.08,.69,.55,.91,.48,.24-.08,.44-.12,.66-.18,.25-.07,.4-.17,.61-.22,.26-.06,.38,0,.58-.03,.31-.03,.41-.9,.56-.82Z"/>
  <path class="cls-2" d="M62.98,47.6c.26,.24-.02,.5,.19,.88,.1,.18,.26,.38,.38,.62,.09,.2,.16,.44,.25,.68,.08,.21,0,.5,.07,.74,.07,.22,.13,.45,.19,.69s.13,.46,.16,.7,.32,.47,.33,.71-.62,.45-.64,.69,.25,.5,.2,.73-.41,.35-.49,.58,.46,.73,.34,.94c-.11,.2-.47,.3-.61,.5-.13,.19-.63,.08-.8,.26-.15,.17,.18,.85,0,1.02-.18,.16-.35,.4-.54,.54s-.73-.14-.93,0-.28,.48-.49,.6-.74-.33-.96-.22-.07,.95-.29,1.05-.71-.41-.94-.32-.17,.94-.4,1.02-.71-.57-.94-.5-.28,.84-.51,.9c-.24,.06-.6-.34-.83-.29-.25,.05-.52-.07-.75-.03-.25,.04-.45,.37-.68,.4-.26,.03-.54-.27-.76-.25-.28,.03-.51,.14-.71,.15-.46,.02-.64,.65-.92,.42s.4-.82,.19-1.1-.95,.27-1.16,0,.22-.59,.01-.87-.17-.31-.37-.59-.42-.12-.63-.4-.46-.1-.66-.38,.4-.73,.2-1.01-.65,.04-.85-.24,.36-.7,.15-.98-.68,.06-.89-.22,.14-.41,.04-.74-.27-.19,.08-.47c.15-.13,.27-.37,.48-.54,.17-.13,.72,.19,.93,.03,.18-.14,.16-.55,.36-.69,.18-.14,.61,.05,.81-.09,.19-.13,.43-.19,.63-.33s.15-.6,.35-.74,.62,.09,.82-.04,.11-.7,.31-.83,.31-.4,.51-.53,.66,.18,.86,.07,.18-.64,.39-.76,.64,.2,.85,.09,.4-.26,.61-.36,.41-.24,.62-.34,.31-.51,.53-.59,.67,.45,.89,.38,.41-.21,.63-.27,.44-.09,.67-.14,.32-1.02,.55-1.05,.53,.18,.76,.17c.24,0,.51,0,.74,.04s.42,.41,.64,.48,.8-.29,1.01-.18Z"/>
  <path class="cls-2" d="M9.18,34.16c.01,.22,.6,.36,.64,.6,.03,.22-1.46,.71-1.41,.95,.04,.22,.17,.47,.23,.71,.05,.22-.29,.59-.22,.83,.06,.22,.72,.29,.8,.52s1.92-.17,2,.06-1.24,.93-1.16,1.16,.57,.27,.66,.5-1.13,.98-1.04,1.2,1.07,.06,1.16,.28-.06,.55,.05,.77,1.59-.25,1.7-.03-.14,.58-.04,.79-.33,.69-.22,.9,.42,.31,.53,.52-.38,.75-.26,.96,1.61-.38,1.73-.18-1.97,1.71-1.85,1.91,1.95-.62,2.08-.42,.7,.11,.83,.32c.13,.2-1.25,1.36-1.12,1.56s.6,.18,.73,.38,1.31-.31,1.44-.12-.17,.68-.03,.88-.41,.88-.27,1.07,.11,.52,.25,.71-.18,.75-.04,.94,.96-.13,1.1,.06-.29,.86-.14,1.05,1.63-.72,1.78-.53,.49,.2,.64,.38-.58,1.14-.42,1.32-.22,.86-.06,1.04,1.02-.29,1.19-.11-.26,.93-.09,1.1,1.33-.64,1.5-.48-.55,1.26-.38,1.43,1.25-.64,1.43-.48-.24,.98-.06,1.14,1.01-.45,1.19-.3-.8,1.76-.62,1.91,1.38-.99,1.57-.85,.38,.27,.58,.4-.4,1.43-.2,1.57,1.51-1.47,1.71-1.34-.7,2.08-.49,2.2,.31,.52,.51,.63,.4,.39,.61,.49c.22,.11,1.1-1.16,1.32-1.06s.47,.12,.69,.22,.38,.35,.6,.43c.23,.09,.2,.9,.42,.97,.23,.08,.62-.28,.85-.21,.23,.07,.54-.11,.77-.04,.24,.06,.24,1.13,.47,1.18,.24,.05,.59-.23,.82-.18,.24,.04,.57-.31,.8-.28,.25,.03,.57-1,.8-.99,.25,.02,.44,1.1,.67,1.1,.25,0,.53,.3,.76,.28,.25-.02,.28-1.79,.51-1.82,.24-.04,.88,2.13,1.11,2.08,.24-.05,.46-.44,.68-.5,.24-.07,.46-.29,.68-.37,.23-.08,.08-1.14,.3-1.23,.23-.09,.52,0,.73-.1,.22-.1,.88,.78,1.09,.69,.22-.1-.3-1.94-.09-2.03,.23-.09,1.11,1.74,1.33,1.67,.23-.07,.05-1.99,.28-2.02s.64-.01,.88,.01c.36,.03,.18,1.24,.63,1.26,.2,0,.47-.71,.74-.7,.22,0,.45,.18,.71,.19,.23,0,.46-.09,.71-.08,.23,0,.45,1.63,.7,1.63,.23,0,.48-2.11,.73-2.11s.47,.96,.71,.96,.45-1.24,.69-1.25,.47,.26,.71,.25,.46-.21,.7-.23,.48,.16,.72,.14,.44-.27,.68-.29c.23-.02,.44-.04,.67-.06s.68,1.9,.91,1.87,.34-1.01,.56-1.05c.24-.04,.28-.94,.5-.99,.24-.05,.64,.76,.85,.7,.24-.07,.49-.07,.69-.15,.24-.09,.66,.11,.83,0,.22-.14-.24-.87-.14-1.05,.11-.2-.28,.03-.36-.22-.07-.23,1.56-1.58,1.39-1.76-.15-.16-.84-.22-1.06-.34-.19-.11-.72,.17-.95,.08-.21-.08-.36-.69-.6-.75-.22-.05-.66,.68-.9,.64-.23-.04-.36-1.08-.6-1.11s-.53,.12-.77,.1-.54,.75-.78,.74-.49,.59-.73,.59-.45-1.82-.69-1.83-.49,1.53-.73,1.53-.46,1.32-.7,1.33-.52-2.5-.76-2.49-.47,.54-.71,.55-.5-.73-.73-.72c-.25,0-.46,.89-.69,.9-.25,0-.48-.3-.71-.3-.25,0-.47-.06-.69-.06-.26,0-.65,2.22-.85,2.2-.3-.03-.73-.65-.89-.71-.23-.09-.25-.41-.49-.47s-.38-.37-.62-.41c-.23-.03-.59,.9-.84,.87-.23-.03-.54,.08-.79,.04-.22-.04,.08-2.66-.16-2.72-.22-.06-1,1.81-1.23,1.73-.22-.07,.1-1.62-.13-1.72-.21-.09-.82,.72-1.05,.6-.21-.1,.08-1.1-.14-1.23-.2-.11-.13-.59-.35-.73-.2-.13-1.15,.9-1.36,.76-.18-.13-.68,.2-.9,.06-.19-.13-.63,.15-.85,.02-.2-.12-.29-.4-.51-.53-.2-.12,.67-2.04,.46-2.16-.2-.12-.8,.4-1.01,.28s.1-1.13-.11-1.25-.72,.29-.93,.16-.64,.15-.85,.03,.14-1.21-.08-1.33-1.69,2-1.9,1.88,.79-2.37,.58-2.49-.88,.57-1.09,.45-.25-.53-.46-.65-.32-.42-.53-.54-.91,.6-1.12,.48-.1-.8-.31-.93-1.08,.88-1.29,.76-.53-.08-.74-.2,.25-1.37,.05-1.5-.28-.47-.49-.59-.76,.3-.96,.18,.27-1.31,.07-1.44-.91,.52-1.11,.39c-.21-.14-.04-.8-.23-.93-.2-.14-1.02,.6-1.21,.46-.2-.15,.44-1.36,.26-1.5-.2-.16-1.04,.53-1.21,.38-.19-.17-.59-.11-.74-.27-.15-.16-.64-.02-.82-.21-.15-.16,.83-1.41,.66-1.59-.16-.17-.39-.26-.56-.44-.16-.17-1.91,1.11-2.08,.93s.53-1.12,.37-1.3,.69-1.22,.54-1.4-1.91,.99-2.07,.81,1-1.43,.85-1.62-.52-.18-.67-.37-1.47,.49-1.61,.3,.47-.93,.33-1.13-.17-.46-.3-.67-1.14,.12-1.26-.08,.23-.72,.12-.93,.05-.58-.05-.8-.93-.13-1.02-.35,1.97-1.28,1.89-1.5-1.03-.11-1.1-.34,.35-.53,.3-.76-1.94-.17-1.96-.41,1.04-.59,1.04-.83,.12-.45,.14-.69-.34-.53-.29-.76,.83-.23,.91-.46,.04-.42,.15-.64-1.2-1.26-1.07-1.47c.13-.21,.39-.46,.53-.63,.15-.19,1.6,.76,1.76,.6,.18-.17,.66,.29,.85,.16,.2-.14-.48-1.67-.27-1.76,.22-.1,.55-.05,.78-.09s.52-.26,.75-.26,.37,.99,.6,1.03,.93-1.55,1.15-1.48,.02,1.37,.24,1.47,1.2-1.14,1.4-1.02-.62,1.92-.43,2.05,1.44-1.11,1.62-.97c.19,.15,.19,.61,.36,.76,.19,.17-.88,1.66-.72,1.82,.19,.18,1.3-.59,1.44-.44,.29,.31,.41,1.31,.56,1,.22-.46-1.43-.72-1.41-1.24,.01-.36,1.47-.57,1.17-.9-.14-.15-1.34,.68-1.53,.49-.16-.16,.89-1.65,.7-1.82-.17-.16-.08-.74-.28-.9s-.7,0-.91-.13-.68,.04-.89-.09-.38-.46-.6-.56-1.03,1.19-1.26,1.11-.21-.99-.44-1.03-.52-.16-.76-.16c-.23,0-.44,.5-.69,.54-.23,.04-.58-.37-.82-.3-.22,.07-.49,.13-.72,.23-.21,.09,.32,1.63,.11,1.75s-1.66-1.82-1.86-1.68-.39,.42-.58,.57-.25,.54-.43,.71,.69,1.35,.52,1.53-.27,.33-.42,.52-1.73-.65-1.87-.45-.21,.52-.33,.74,1.79,1.45,1.68,1.67-2.75-.64-2.83-.41,2.44,1.34,2.37,1.58-2.47-.15-2.53,.08,1.84,.84,1.8,1.08-2.04,.26-2.06,.51,.66,.56,.66,.81,.69,.47,.7,.72Z"/>
  <path class="cls-4" d="M14.39,46.56c.13,.2-.36,.47-.23,.67s.45,.28,.59,.47,.64,.14,.78,.34,.6,.16,.74,.35-.91,1.23-.77,1.43,.02,.59,.16,.79,1.55-.57,1.7-.38-.5,.99-.35,1.18,.15,.5,.3,.69,.63,.11,.78,.3-.31,.9-.15,1.08,.36,.35,.51,.53,1.49-.7,1.66-.52-.71,1.32-.54,1.49,.68,.03,.85,.2,.22,.47,.39,.64,.76-.09,.93,.08,.63,.02,.8,.18-.2,.94-.02,1.1,.04,.72,.22,.87,1.31-.85,1.5-.7,.53,.06,.72,.21-.39,1.34-.2,1.48,.22,.56,.42,.69,.7-.17,.9-.05,.64-.13,.84,0,.11,.79,.32,.9,.44,.22,.66,.32c.22,.11,.63-.19,.85-.09s.26,.64,.47,.73,.48,.15,.69,.24c.23,.09,.25,.77,.47,.85,.23,.08,.78-.74,1-.67,.23,.07,.22,1.02,.45,1.08,.24,.06,.48,.25,.71,.3,.24,.05,.57-.14,.8-.1,.24,.04,.71-1.4,.94-1.38,.25,.03,.39,.89,.62,.91,.25,.02,.5-.22,.73-.22,.25,0,.5,.25,.73,.23,.25-.02,.52,.11,.75,.07,.24-.04,.57,.19,.79,.14,.24-.05,.07-1.65,.29-1.72,.24-.07,.4-.15,.62-.22,.23-.08,.44-.07,.66-.15,.23-.09,.5,0,.71-.1,.22-.1,.51-.04,.72-.14,.22-.1,.36-.46,.57-.54,.23-.09,.87,.98,1.09,.91,.23-.07,.43,.22,.66,.19s.32-.17,.56-.15c.36,.03,.31-.7,.76-.68,.2,0,.47-.9,.74-.89,.22,0,.45,0,.71,.02,.23,0,.45,.22,.7,.22,.23,0,.45,1.1,.7,1.1,.23,0,.47,.65,.72,.65s.47-1.31,.71-1.31,.48,.63,.72,.63,.48,.03,.72,.02,.5,.37,.74,.36,.51,.2,.75,.19,.59-.81,.82-.83c-.06-.17-.07-.66-.2-.9-.09-.18-.97,.12-1.11-.08-.12-.17,.62-1.05,.45-1.23-.15-.15-.76,.15-.95,0-.17-.13,.23-1.18,.03-1.3-.18-.11-.9,.67-1.12,.57-.2-.09-.61,.5-.83,.43-.23-.07-.1-1.72-.35-1.76s-.58,.03-.83,.02-.49,1.62-.74,1.63-.56-1.25-.8-1.23-.46,.33-.71,.36-.62-.71-.86-.67-.51,.01-.75,.06-.44,.38-.68,.42-.27,1.32-.51,1.36c-.25,.04-.71-1.38-.94-1.35-.26,.03-.39,.85-.62,.87-.26,.02-.44-.64-.66-.66-.27-.02-.99,1.62-1.19,1.53-.13-.06,.2-1.33-.09-1.5-.18-.1-.88,.59-1.11,.45-.19-.11,.12-1.08-.1-1.22-.19-.12-.91,.58-1.12,.45-.2-.12,.08-1.02-.13-1.15-.2-.12-.36-.32-.57-.46-.2-.12-.42-.23-.63-.36s-.16-.65-.37-.78-.44-.2-.65-.33-.8,.38-1.01,.25,0-.91-.2-1.03-1.02,.73-1.22,.6-.3-.42-.51-.55-.6,.05-.8-.08-.05-.82-.26-.95-.52-.08-.72-.2-.12-.73-.33-.86-.99,.7-1.2,.57,.41-1.62,.2-1.75-1.29,1.2-1.5,1.08-.16-.69-.36-.81-.37-.33-.58-.45,.02-1-.18-1.12-1.33,1.33-1.54,1.21-.27-.49-.48-.61,.52-1.91,.31-2.03-1.33,1.39-1.54,1.27-.47-.14-.68-.26c-.22-.12,.13-1.28-.08-1.39-.22-.12-.27-.58-.48-.68-.22-.11-.77,.45-.98,.35-.23-.11-.1-1-.31-1.09-.24-.1-1.06,1.28-1.27,1.2-.26-.1-.33-.43-.53-.48-.32-.08-.3-.2-.45-.15-.23,.08-.86-1.15-1.11-1.08s-.44,.17-.68,.23-.43,.38-.67,.44c-.25,.06-.56,.02-.79,.09-.25,.08,.09,.97-.12,1.07Z"/>
  <path class="cls-5" d="M42.86,55.65c-.23,.27-.07-.23,.34-.07,.19,.07,.52-.23,.78-.15,.2,.06,.17,1.07,.41,1.13,.21,.05,.48,.04,.73,.09,.22,.04,.58-.73,.82-.7,.22,.03,.39,.74,.63,.76,.23,.02,.49-.57,.73-.57s.48,.8,.72,.78,.44-.49,.68-.52,.48,.05,.72,.01,.54,.23,.78,.17,.22-.96,.45-1.03,.47,0,.69-.08,.69,.43,.91,.34,.44-.22,.65-.33c.21-.11,.48-.17,.68-.3s.25-.52,.44-.65,.12-.63,.3-.77,.38-.26,.56-.41,.44-.21,.61-.38,.64-.05,.8-.22,.42-.28,.57-.46-.4-.93-.25-1.11,.88,.07,1.02-.12,.23-.43,.36-.63-.3-.75-.18-.95,.88-.04,1-.24c.12-.21-.3-.71-.19-.91,.11-.22,.86-.11,.96-.31,.11-.22-.27-.67-.18-.87,.1-.23,.59-.29,.68-.49,.1-.25-.03-.56,.04-.75,.15-.41,.53-.51,.19-.43s-.36-.06-.67,.13-.27,.25-.59,.44-.59-.29-.9-.11-.15,.47-.47,.65-.5-.14-.82,.04-.15,.48-.46,.66,0,.73-.31,.92-.73-.55-1.05-.37-.36,.1-.67,.28-.25,.29-.56,.47-.34,.13-.66,.31-.21,.36-.52,.54-.07,.61-.39,.79-.37,.09-.69,.27-.46-.08-.78,.1-.14,.49-.45,.67-.51-.15-.82,.03-.43-.01-.75,.17-.23,.34-.54,.52-.38,.08-.69,.26-.17,.44-.49,.62-.41,.01-.73,.2-.25,.3-.56,.49-.47-.09-.79,.09-.16,.45-.48,.63-.57-.25-.89-.07,.17,.84-.08,1.1-.38,.06-.61,.35Z"/>
  <path class="cls-1" d="M61.06,39.91c.29-.2,.22-.02,.44-.39,.1-.17,.39-.28,.51-.51,.11-.19-.02-.53,.09-.75,.11-.2,.22-.4,.33-.62s.13-.45,.24-.66,.47-.3,.56-.51,.18-.44,.26-.66,.36-.39,.43-.6c.07-.23,.01-.51,.06-.72,.06-.25-.01-.5,0-.71,.02-.26,.3-.57,.24-.77-.07-.23-.55-.33-.62-.55s.3-.62,.21-.84c-.09-.23-.32-.42-.43-.61-.12-.23-.3-.44-.44-.6-.17-.19-.44-.34-.65-.41s-.55-.2-.81-.11c-.19,.06-.13,.67-.35,.83-.18,.14-.71-.11-.91,.07-.18,.16-.1,.61-.28,.8-.17,.17-.51,.2-.68,.38s-.17,.53-.34,.71-.33,.38-.5,.56-.61,.15-.77,.34c-.17,.2-.24,.48-.39,.66-.18,.22-.43,.34-.57,.51-.29,.36-.58,.45-.34,.74,.21,.26,.18-.31,.5-.52,.17-.11,.38-.21,.59-.33,.19-.11,.49-.02,.69-.1,.22-.09,.41-.17,.61-.18,.24,0,.24,.16,.39,.32,.12,.13,.07,.18,.1,.47,.02,.22,.59,.44,.58,.7,0,.23-.42,.46-.44,.71-.02,.24-.19,.45-.23,.7s.13,.51,.09,.75,.15,.53,.11,.77-.31,.45-.36,.68c-.05,.25-.14,.49-.19,.71-.06,.27,.08,.56,.03,.76-.11,.44-.64,.67-.28,.62s.27-.25,.61-.43,.39-.07,.73-.25,.54,.07,.82-.19c.3-.28,.04-.55,.35-.78Z"/>
  <path class="cls-3" d="M23.04,27.97c-.09-.35-1.6,.68-1.91,.37-.14-.14,.86-1.53,.67-1.71-.16-.15-1.38,.86-1.57,.7-.17-.15,.63-1.48,.43-1.63-.18-.14-.55-.1-.74-.24s-.53-.09-.73-.22-.51-.08-.72-.2-.16-.81-.38-.91-.87,.96-1.1,.89-.32-.46-.55-.49c-.24-.03-.41,.16-.64,.18s-.15,.55-.37,.63-1.18-1.26-1.37-1.11c-.18,.14,.59,1.45,.4,1.62-.17,.15-1.21-.65-1.39-.48-.17,.16,.61,1.19,.45,1.38s-.68,0-.82,.2-.01,.49-.13,.71-.03,.43-.12,.65-1.34,.03-1.4,.26-.43,.47-.47,.71c-.03,.23,.99,.59,.98,.84,0,.23-.34,.47-.32,.71,.02,.23,.17,.45,.21,.7,.04,.23,1.02,.22,1.08,.46,.06,.22-1.11,.78-1.03,1.02,.07,.22,.65,.26,.74,.49,.09,.21,.69,.18,.79,.4,.1,.21-.75,.88-.64,1.1,.11,.2,.84,.06,.97,.27,.12,.2-.62,.92-.48,1.13,.12,.2,.05,.56,.19,.76s1.66-.59,1.8-.39-.29,.79-.14,.98,.82-.07,.98,.12,.27,.36,.43,.55-.43,.98-.27,1.16-.26,.88-.1,1.06,1.46-.71,1.63-.53,.39,.27,.56,.44-.1,.76,.07,.93,.44,.22,.62,.39,.49,.16,.67,.32-.63,1.37-.45,1.53,.86-.23,1.05-.07,.34,.33,.52,.5,.59,.04,.77,.2,.26,.43,.45,.59,.71-.14,.9,.02c.29,.22-.65,1.31-.27,1.58,.17,.12,1.37-1.17,1.6-1.01,.18,.13,.06,.72,.27,.86,.19,.13,0,.83,.21,.97,.19,.13,.24,.5,.45,.64,.19,.13,.97-.6,1.18-.46,.2,.13,.27,.45,.48,.59s.7-.21,.91-.07-.04,.95,.16,1.08,.78-.34,.99-.21,.5,.09,.71,.22,.41,.24,.62,.37-.49,1.72-.28,1.85,.99-.7,1.2-.58,.04,.88,.25,1.01,.77-.37,.98-.25,.02,.95,.23,1.07,.56,0,.78,.11,.83-.51,1.05-.4-.16,1.36,.05,1.48,1.02-.91,1.23-.8,.58-.1,.8,.01,.33,.42,.55,.52-.23,1.68,0,1.78,.68-.31,.91-.21,.9-.9,1.12-.82,.05,1.21,.28,1.3,.34,.55,.57,.63,.44,.33,.66,.4,.54,.03,.77,.09,.78-1.13,1.01-1.08c.24,.05,.47-.05,.71-.01,.25,.04,.38,.79,.62,.81,.25,.02,.49-.5,.72-.5,.25,0,.85,.48,1.08,.45,.07-.35-.02-.79-.36-1.11-.15-.14-1.22,.67-1.42,.48-.16-.15-.17-.49-.36-.67-.16-.15-.2-.46-.39-.64-.17-.16-.17-.5-.35-.68-.17-.16,0-.68-.18-.85-.17-.16-.1-.58-.27-.75-.17-.16-1.06,.42-1.24,.25s-.41-.26-.58-.43,.32-1.01,.15-1.18-.23-.44-.4-.61-1.61,.96-1.79,.79,.13-.81-.04-.98,.44-1.11,.27-1.28-1.05,.37-1.22,.2-.29-.38-.46-.55,.04-.71-.13-.88-1.08,.39-1.25,.22,.68-1.32,.51-1.49-1.57,.85-1.74,.68,.08-.74-.09-.91,.58-1.21,.42-1.39-.28-.39-.44-.57-.92,.21-1.09,.03-.87,.15-1.03-.03-.07-.59-.23-.77,.25-.88,.09-1.05-.59-.12-.75-.3-.43-.26-.59-.44,.3-.9,.14-1.08-1.5,.66-1.66,.47-.16-.5-.32-.69-.36-.34-.51-.52-.6-.14-.75-.33,1.07-1.49,.92-1.67-.64-.1-.79-.29-1.22,.33-1.37,.14,.12-.71-.02-.9-.79-.03-.93-.22,.29-.81,.16-1.01-.63-.16-.77-.35,.13-.68,0-.87-.95,0-1.07-.19,.57-.92,.46-1.12c-.12-.22-1.03,0-1.14-.21-.12-.22,.51-.82,.42-1.03-.11-.23-.48-.34-.56-.55-.09-.23-.08-.52-.14-.74-.07-.24-.34-.47-.38-.69-.04-.25,.99-.53,.99-.75,0-.25,.11-.69,.19-.9Z"/>
  <path class="cls-5" d="M21.28,32.69c-.16-.31-.12-.14-.53-.2-.2-.03-.44-.18-.69-.19-.23,0-.46,.19-.69,.22s-.53-.16-.75-.09-.49,.21-.67,.36-.35,.38-.47,.6c-.1,.19-.2,.46-.23,.72-.03,.25,.18,.5,.25,.74,.07,.22,.01,.54,.15,.76,.13,.2,.43,.29,.61,.47,.16,.17,.24,.46,.43,.62s.5,.16,.7,.31,.34,.38,.54,.51,.52,.09,.73,.21c.23,.13,.44,.25,.64,.35,.24,.12,.41,.35,.6,.43,.4,.19,.43,.6,.51,.24s.12-.31,.06-.65,.08-.37,.02-.71-.3-.3-.37-.64,.02-.36-.04-.7-.2-.32-.27-.66,.22-.4,.15-.74-.38-.29-.44-.63,.09-.37,0-.71-.1-.3-.26-.61Z"/>
  <path class="cls-1" d="M21.98,28.57c-.3,.21-.04,.49-.14,.94-.05,.2-.19,.43-.25,.7-.04,.22,.51,.57,.47,.83-.04,.23-.76,.37-.79,.62-.03,.23,.45,.54,.42,.79s.04,.48,.02,.73-.18,.47-.18,.72,.05,.48,.06,.73,.23,.46,.25,.71-.78,.59-.75,.83,.28,.48,.33,.71,.32,.44,.4,.67-.04,.59,.07,.8,.74,.12,.88,.31c.14,.18,.05,.55,.21,.73,.15,.17,.22,.44,.39,.61s.72-.09,.9,.07,.03,.66,.21,.81,.71-.12,.89,.02,.33,.32,.51,.47,.4,.24,.59,.38-.12,.96,.08,1.1,.42,.23,.62,.36,.3,.42,.49,.54,.68-.16,.87-.03c.2,.13,.36,.32,.55,.44,.21,.13,.58-.02,.77,.1,.22,.13,.43,.22,.62,.34,.23,.14,.31,.45,.49,.55,.38,.22,.23,.55,.49,.32s.02-.17-.14-.6c-.07-.19,.12-.52,.02-.78-.08-.2-.82-.17-.92-.41-.08-.21,0-.5-.09-.73-.09-.21,.29-.62,.2-.85-.09-.21-.69-.22-.79-.45-.09-.21-.1-.47-.2-.69s0-.52-.09-.74-.29-.39-.38-.62-.6-.25-.7-.47,.56-.77,.46-.99-.8-.16-.9-.38,.47-.75,.36-.97-.41-.34-.52-.55-.08-.5-.19-.72-.72-.18-.83-.39,.23-.67,.12-.88-.11-.5-.22-.71-.86-.07-.97-.28-.21-.43-.34-.64-.48-.26-.6-.46,0-.58-.13-.77c-.14-.2,.12-.7-.02-.88-.15-.2-.92,.12-1.07-.05-.17-.19,.16-.82,0-.98-.19-.18-.75,.16-.93,.03-.22-.15-.38-.86-.59-.93Z"/>
  <path class="cls-4" d="M31.84,44.87c-.06,.13-.2,.06-.53-.17-.16-.11-.33-.27-.52-.44-.16-.14-.63,.02-.81-.16-.16-.15,.01-.65-.15-.83-.15-.16-.54-.12-.7-.3s-.38-.29-.53-.47,.1-.68-.04-.86-.18-.44-.32-.62-.24-.38-.37-.57-.7-.1-.81-.29c-.13-.2,.38-.74,.27-.94-.11-.22-.79-.13-.87-.33-.1-.24-.08-.52-.15-.75s.23-.57,.18-.81-.1-.48-.14-.72c-.04-.26-.48-.45-.5-.69-.03-.26-.42-.48-.45-.72-.03-.27,.05-.52,.02-.75-.04-.28-.25-.44-.3-.65-.08-.3,.42-.81,.26-.94-.2-.15-.62,.14-.83,.06-.21-.09-.3-.45-.51-.55-.2-.09-.49-.06-.68-.21-.16-.13-.08-.5-.23-.71-.12-.16-.55-.18-.67-.44-.09-.2-.39-.37-.48-.62-.08-.22,.58-.7,.51-.94s-.32-.41-.38-.64c-.06-.25-.45-.42-.49-.65-.04-.27-.2-.53-.21-.75,0-.34,.5-.4,.62-.51,.06-.06-.28,.26,.03,.56,.14,.14,.31,.27,.49,.47,.15,.16,.85-.16,1.02,.04,.15,.17,.16,.47,.32,.67,.14,.17,.26,.39,.41,.58,.14,.18-.03,.61,.12,.81,.14,.18,.84-.05,.98,.14s.18,.45,.33,.65,.05,.54,.19,.74,.3,.36,.44,.56,.21,.43,.34,.63,.41,.29,.55,.49,.54,.21,.67,.41-.25,.73-.12,.93,.71,.11,.84,.31,.07,.52,.2,.72,.17,.45,.3,.66,.16,.46,.28,.66,.38,.33,.5,.54,.37,.35,.48,.56-.4,.74-.3,.96,.19,.43,.29,.65,.77,.18,.86,.4-.44,.69-.35,.91c.09,.23,.5,.32,.57,.54,.08,.23,.09,.47,.15,.69,.07,.24,.14,.45,.18,.67,.05,.25-.15,.47-.14,.7,.02,.25,.03,.41,0,.63-.03,.25,.28,.5,.19,.71Z"/>
  <path class="cls-5" d="M55.55,43.99c-.06-.37-.52-.21-.66-.55s.04-.31-.21-.59,.48,.29,.19,.65c-.13,.16-.95-.21-1.14,0-.15,.17-.05,.57-.23,.76-.16,.16-.27,.4-.45,.57-.17,.16-.34,.34-.53,.5-.18,.16-.64-.03-.84,.13-.18,.15-.27,.41-.47,.56s-.51,.09-.72,.23,.07,.99-.14,1.12-.85-.49-1.06-.37-.13,.77-.35,.88-.52,.03-.75,.13-.4,.3-.63,.39-.65-.44-.89-.36-.32,.56-.56,.62-.5-.09-.74-.04-.32,1.02-.56,1.05-.58-.63-.82-.6-.5-.47-.74-.46-.46,.52-.7,.52-.44-.51-.69-.53-.52,.6-.77,.57-.49-.03-.73-.07-.4-.42-.64-.48-.71,.83-.95,.77-.45-.27-.69-.35-.21-.89-.44-.98-.79,.68-1.02,.58-.17-.86-.39-.96-.37-.33-.59-.44-.3-.45-.52-.57-.94,.69-1.16,.56,.19-1.25-.03-1.38-1.01-.1-1.21-.24c-.3,.26-.14,.6-.24,.98-.09,.34,0,.59,.34,.87,.16,.12,1.08-.67,1.29-.51,.17,.13-.13,.89,.06,1.05,.17,.14,.46,.15,.65,.3,.18,.14,.26,.42,.45,.57,.18,.14,.56,.04,.75,.18s.35,.3,.54,.44,.62-.05,.81,.1-.16,.98,.02,1.12,.41,.24,.59,.38,.89-.39,1.07-.25-.32,1.21-.14,1.35c.19,.15,.72-.17,.91-.03,.2,.15,.5,.13,.68,.26,.2,.15-.13,1,.05,1.12,.21,.15,.68-.08,.85,.04,.25,.17,.32,.59,.45,.66,.15,.08,.67,0,.98-.07,.2-.04,.35-.47,.6-.56,.2-.07,.32-.38,.56-.49,.2-.09,.83,.67,1.05,.56,.2-.1-.09-1.19,.13-1.31,.2-.11,.41-.2,.62-.32,.2-.11,.67,.22,.87,.09s.18-.58,.39-.71,.7,.21,.9,.08,.18-.56,.38-.7,.05-.72,.24-.86,.61,.05,.8-.09,.29-.39,.47-.53,.24-.44,.42-.59,.68,.09,.86-.07,.43-.22,.61-.38-.03-.73,.14-.89,.53-.12,.7-.29,.98,.29,1.14,.11,.17-.51,.33-.69-.29-.88-.14-1.06,.64-.08,.79-.27,.12-.5,.25-.69,.46-.31,.59-.51Z"/>
  <path class="cls-5" d="M43.4,39.2c-.17,.32-.02,.57-.46,.7-.2,.06-.5-.13-.77-.05-.21,.07-.35,.4-.6,.48-.22,.07-.55-.16-.79-.07-.22,.08-.44,.17-.68,.26-.22,.09-.57-.12-.8-.02s-.25,.64-.48,.74-.53,0-.76,.1-.36,.35-.58,.46-.45,.18-.66,.31-.36,.34-.56,.47-.35,.34-.55,.47-.79-.25-.98-.1-.4,.31-.58,.47-.32,.4-.49,.58,.12,.75-.03,.94-.5,.21-.63,.41,.07,.55-.03,.77-.68,.62-.75,.86c-.35-.06-.09-.6-.2-1.04-.05-.2-.28-.39-.35-.65-.05-.21-.08-.45-.15-.7-.06-.22,.59-.64,.53-.89-.06-.22-.5-.35-.57-.59-.06-.22-.14-.45-.21-.69s-.37-.38-.44-.62,.13-.54,.06-.77-.25-.42-.33-.65-.1-.47-.18-.7,.17-.58,.09-.8-.65-.27-.74-.5,.16-.59,.07-.81-.17-.46-.26-.68-.05-.52-.15-.74-.36-.38-.47-.59-.64-.22-.75-.43-.43-.3-.55-.5,.39-.82,.26-1.01c-.14-.21-.43,.22-.57,.04,.33-.11-.26,.09,.07,.38,.15,.13,.52,.06,.71,.23,.16,.14,.14,.51,.33,.67,.16,.15,.81-.23,.99-.07,.17,.15,.13,.53,.31,.69,.17,.15,.56,.06,.73,.22s.01,.67,.18,.83,.39,.26,.56,.42,.42,.24,.59,.4,.67-.03,.84,.13,.36,.3,.53,.46,.11,.56,.27,.72c.16,.16,.2,.52,.42,.62,.2,.09,.43,.29,.68,.33,.22,.04,.51-.57,.76-.56,.23,0,.43,.01,.67,0,.23-.01,.46,.14,.7,.12s.53,.52,.77,.48,.45-.18,.68-.22,.38-.55,.62-.59,.53,.27,.76,.23,.44-.26,.67-.29c.24-.04,.52,.27,.74,.24,.24-.03,.45-.22,.68-.23,.25-.01,.46,.13,.68,.15,.26,.02,.54-.26,.73-.19,.24,.09,.29,.23,.42,.41Z"/>
  <path class="cls-1" d="M43.04,39.24c.02-.37,.03,.26-.38,.04-.19-.1-.35-.31-.6-.45-.2-.11-.37-.32-.6-.44-.21-.11-.4-.28-.63-.4-.21-.11-.25-.58-.47-.7s-.45-.21-.67-.32-.76,.41-.98,.29-.38-.36-.6-.47-.16-.82-.39-.92-.49-.15-.71-.25c-.24-.11-.5-.15-.72-.24-.25-.1-.51-.16-.72-.24-.27-.1-.49-.35-.68-.4-.21-.05-.45-.18-.71-.22-.22-.04-.6,.81-.85,.78-.23-.03-.34-.99-.59-1.02s-.52,.26-.76,.23-.51,.12-.75,.09-.47-.15-.71-.19-.48-.09-.71-.14c-.25-.05-.56,.22-.79,.16-.25-.06-.4-.45-.61-.52-.25-.08-.32-.47-.51-.57-.25-.13-.88,.03-1-.14,0,.37,.75,.06,.97,.47,.1,.19,.12,.45,.26,.69,.11,.2,.26,.39,.4,.61,.12,.2-.17,.68-.03,.9,.13,.2,.55,.22,.69,.42s.23,.44,.38,.64,.17,.5,.33,.69,.35,.36,.52,.54,.48,.21,.67,.38,.39,.29,.59,.44,.5,.11,.71,.24,.37,.27,.59,.38,.23,.82,.47,.88c.23,.06,.53-.06,.77-.02,.23,.04,.51-.23,.76-.2s.48-.24,.72-.23,.46-.03,.7-.03,.5,.66,.75,.64,.48-.17,.72-.19,.49-.06,.72-.09,.48-.14,.71-.17,.47-.15,.7-.19,.57,.35,.79,.31c.25-.05,.36-.73,.58-.78,.25-.05,.6,.39,.82,.34,.27-.06,.45-.34,.65-.39,.43-.11,.19,.11,.2-.25Z"/>
  <path class="cls-5" d="M53.13,22.93c.36-.05,.18,.04,.48,.37,.14,.15,.47,.19,.64,.4,.14,.17,.26,.4,.41,.61,.13,.19,.02,.54,.14,.76,.11,.2,.27,.38,.38,.61,.1,.21,.21,.42,.3,.65,.08,.22,.41,.38,.47,.61s-.42,.58-.38,.82,.14,.44,.16,.68,.48,.46,.47,.7-.54,.44-.57,.69,.22,.49,.17,.74,.03,.49-.04,.73c-.06,.23,.08,.54,0,.77-.08,.22-.38,.38-.47,.6s-.54,.27-.65,.49c-.11,.21,.06,.48-.06,.69-.34-.07-.04-.18-.12-.61-.04-.2,.2-.48,.16-.75-.04-.21-.72-.32-.77-.57-.04-.22,.41-.54,.37-.78-.04-.22-.26-.42-.3-.66s-.36-.41-.4-.65,.28-.52,.24-.75-.08-.46-.12-.69,.19-.5,.16-.74-.63-.39-.66-.62,0-.48-.02-.71,.45-.53,.43-.76c-.03-.24-.66-.42-.68-.64-.02-.25,.17-.5,.15-.73-.01-.25-.16-.49-.16-.71,0-.26,.25-.36,.27-.56Z"/>
  <path class="cls-5" d="M53.23,27.03c.25,.28,.15,.13,.3,.57,.07,.2,.65,.29,.73,.56,.07,.22-.42,.62-.35,.88,.06,.23,.35,.42,.4,.67s.14,.48,.19,.73-.31,.55-.27,.8,.41,.45,.44,.7,.2,.5,.2,.75c0,.26-.56,.47-.58,.71-.03,.26,.18,.51,.12,.74-.08,.25,.01,.57-.13,.76-.13,.17-.51,.17-.68,.36-.15,.17,.07,.68-.1,.87-.16,.17-.7-.02-.87,.16-.17,.17-.34,.32-.52,.49s-.32,.34-.5,.5-.2,.5-.38,.66-.27,.45-.45,.59-.33,.39-.52,.53c-.2,.14-.65-.08-.85,.04-.21,.13-.38,.33-.58,.44-.23,.12-.54-.02-.74,.06-.25,.1-.41,.21-.62,.24-.27,.03-.36,0-.54-.11-.22-.13-.73,.22-.95,.08s-.22-.65-.44-.79c-.23-.14-.72,.13-.92,0-.24-.15-.46-.31-.65-.43-.4-.25-.42-.32-.49-.7-.06-.35,.11-.29,.44-.59,.15-.13,.42-.19,.62-.37,.16-.15,.26-.4,.45-.57,.17-.15,.7,.07,.88-.09,.17-.15,.08-.61,.26-.77,.17-.16,.4-.26,.58-.42s.14-.54,.31-.71,.45-.22,.62-.39,.55-.12,.72-.28-.04-.72,.13-.89,.68,0,.85-.16,.49-.2,.66-.37,.34-.35,.51-.52,.19-.49,.35-.67,.19-.48,.35-.66,.33-.35,.48-.53c.16-.19,.2-.47,.34-.65,.16-.2,.43-.29,.56-.47,.15-.21,.25-.43,.36-.61,.14-.23,.45-.35,.53-.54,.12-.27-.21-.39-.24-.57Z"/>
  <path class="cls-2" d="M22.76,27.97c.34,.13-.07-.51-.01-.96,.03-.2-.01-.46,.03-.73,.04-.22,.35-.41,.4-.66,.05-.22-.16-.52-.1-.76,.05-.22,.24-.43,.31-.67,.06-.22,.22-.43,.29-.67s.12-.46,.2-.7,.1-.48,.2-.7,.61-.25,.71-.47,.2-.42,.31-.64-.42-.77-.3-.99,.58-.22,.71-.42,.14-.49,.28-.69,.35-.35,.5-.54,.11-.56,.27-.74,.6-.1,.77-.27,.33-.35,.52-.51,.38-.29,.58-.44,.23-.53,.44-.66,.44-.24,.65-.36,.4,.06,.62-.04c-.07-.35-.13,.04-.56-.07-.2-.05-.4-.24-.66-.29-.22-.04-.5,.3-.75,.26-.23-.03-.43-.18-.68-.2-.23-.02-.45-.42-.7-.42s-.45,.53-.69,.54-.45,0-.69,.04-.62-.57-.85-.51-.31,.59-.53,.69c-.21,.09-.59-.06-.79,.11-.17,.15,0,.65-.15,.85-.15,.18-.23,.38-.37,.59-.13,.2-.74,.11-.86,.33-.11,.21,.28,.68,.17,.9s-.75,.19-.84,.42,.29,.64,.21,.87-.47,.35-.55,.58,.25,.59,.17,.82-.37,.4-.43,.63-.5,.38-.56,.61c-.06,.25,.4,.61,.35,.84-.06,.25-.38,.43-.42,.65-.05,.27-.45,.47-.48,.68-.05,.4,.42,.59,.48,.64,.24,.23,.34,.12,.58,.35s-.2,.71,.04,.94,.55-.11,.8,.12,.03,.47,.27,.69,.16,.18,.33,.47c.21,.36,.43,.36,.74,.48Z"/>
  <path class="cls-3" d="M30.15,15.52c-.25-.23,.08,.21-.31,.37-.18,.08-.62-.35-.84-.24-.19,.09-.1,.76-.31,.88-.19,.11-.54-.06-.74,.06s-.72-.23-.91-.1-.16,.58-.33,.73-.42,.25-.58,.42-.44,.3-.56,.49c-.12,.19-.11,.5-.24,.71-.12,.2,.13,.62,0,.84-.12,.2-.15,.45-.27,.67s-.1,.47-.21,.69-.6,.24-.7,.46-.57,.28-.67,.51,.51,.73,.42,.95-.73,.25-.8,.48-.29,.44-.35,.67,.66,.67,.61,.9-.49,.39-.53,.63,.13,.49,.12,.73-.56,.5-.54,.73c.02,.25,.13,.61,.18,.84,.2,.31,.86-.17,1.09,.12s-.21,.64,.02,.93,.63-.03,.86,.26-.13,.57,.1,.86,.6,0,.83,.29-.25,.67-.02,.97,.45,.12,.68,.41-.14,.67,.14,.92c.26,.24,.41,.39,.75,.46s.55-.59,.55-1.05c0-.2-.76-.44-.75-.72,0-.22-.17-.47-.16-.73,0-.22,.93-.42,.94-.68,.01-.23-.82-.51-.8-.76,.01-.23,.25-.46,.27-.7,.02-.23,.39-.44,.41-.68,.02-.23,.29-.44,.31-.68s0-.47,.02-.71-.08-.48-.05-.72-.03-.48,0-.72-.33-.53-.29-.77,.72-.35,.77-.59-.78-.63-.73-.87,.12-.47,.18-.7,.83-.3,.89-.54-.4-.59-.34-.82-.02-.5,.04-.74,.84-.26,.91-.49-.31-.59-.23-.82,.69-.28,.77-.51-.68-.74-.6-.97,.92-.17,1-.4-.58-.75-.49-.97,.39-.09,.49-.31Z"/>
  <path class="cls-3" d="M43.5,38.36c.35,.02,.06-.46,.38-.78,.14-.14,.22-.39,.4-.58,.15-.16,.93,.25,1.1,.06,.15-.16,.15-.5,.31-.68,.15-.17,.37-.3,.53-.49,.15-.17,.01-.6,.17-.78,.14-.18,.51-.19,.66-.38s.15-.48,.3-.67,.64-.12,.78-.31-.02-.6,.12-.79,.49-.25,.62-.45-.59-.93-.47-1.14,.55-.21,.67-.42,.42-.3,.53-.51,.41-.32,.52-.53,.23-.42,.33-.64-.45-.72-.36-.94,.19-.42,.28-.64,.33-.37,.41-.59,.88-.22,.95-.45-.22-.57-.16-.79,.07-.48,.12-.71-.62-.57-.59-.8,1.17-.35,1.19-.58-.66-.52-.66-.75,.12-.47,.11-.7,.15-.49,.12-.72,.43-.57,.39-.8c-.05-.24-.12-.51-.18-.73s-.33-.44-.4-.66-.47-.36-.55-.57-.49-.29-.6-.5,.38-.77,.26-.97-1.19,.23-1.33,.04,.79-1.23,.64-1.41-.54-.21-.7-.38-.51-.19-.69-.34-.69,.11-.88-.03,.12-1.04-.07-1.17-.59,0-.8-.1-.69,.3-.9,.2-.37-.31-.59-.4-.5,.01-.72-.07-.25-.78-.48-.85-.72,.88-.94,.83-.15-1.55-.38-1.6-.51-.02-.74-.06-.51-.02-.74-.05c-.24-.03-.57,1.02-.8,1.01-.25-.02-.46-.11-.69-.12-.25,0-.49-.79-.72-.78-.26,0-.51,.15-.72,.17-.27,.03-.61-.27-.8-.23-.19,.04-.24,1.14-.51,1.18-.22,.03-.63-.96-.89-.92-.22,.04-.26,1.13-.5,1.19-.23,.05-.76-1.05-1-.99-.22,.06-.03,1.49-.27,1.57-.22,.08-.41,.15-.63,.25s-.34,.27-.56,.38-.92-.7-1.13-.57-.1,.72-.3,.86-.79-.23-.98-.07,.38,1.1,.2,1.27-.29,.31-.45,.5-.55,.12-.69,.32-.99-.11-1.13,.1-.1,.53-.22,.74-.23,.44-.34,.66,.5,.74,.41,.97-.44,.32-.53,.55-.37,.37-.44,.61,.33,.58,.27,.82-.23,.42-.28,.66-.44,.39-.49,.63-.68,.38-.71,.62-.11,.48-.14,.73,.71,.56,.69,.81-.54,.44-.56,.68,.84,.53,.83,.77-.11,.47-.11,.71-.89,.47-.89,.71-.11,.49-.11,.74,1.05,.45,1.06,.7-.1,.48-.09,.72-.68,.52-.66,.77-.1,.49-.08,.74,1.03,.39,1.05,.64,0,.04,.03,.28c.27,.23-.16,.32,.29,.33,.2,0,.44,.02,.71,.03,.22,0,.44,.26,.7,.28,.22,.01,.42,.52,.67,.54,.23,.02,.46,0,.7,.02,.23,.02,.52-.57,.76-.54,.23,.03,.38,.71,.62,.74s.64-1.2,.88-1.16,.38,.68,.61,.72,.46,.11,.7,.16,.47,.04,.71,.1,.6-.45,.83-.39,.28,.83,.51,.89,.27,.74,.49,.81,.6-.38,.83-.3,.28,.59,.5,.67,.56-.17,.78-.08,.45,.14,.66,.24,.5,.04,.71,.15,.38,.28,.58,.41,.53,.06,.72,.19-.1,.89,.09,1.04,1.11-.57,1.28-.4-.37,1.03-.21,1.21,.69,.16,.84,.35Z"/>
  <path class="cls-2" d="M51.7,22.08c.12,.02,1-.46,.98-.88-.01-.2-.09-.49-.13-.76-.03-.22-.55-.38-.61-.63-.05-.22,.45-.6,.38-.84-.06-.22-1.06-.19-1.13-.43-.07-.22-.1-.45-.18-.68s-.07-.47-.16-.69,.08-.55-.01-.77,.13-.6,.02-.82-.49-.3-.61-.51-.82-.04-.95-.24,.65-1.05,.5-1.24-.71-.07-.87-.24-.18-.54-.35-.69-.68,.08-.88-.05-.26-.5-.48-.6c-.22-.1-.58,.15-.79,.07-.23-.09-.2-.88-.42-.95-.23-.07-.62,.38-.84,.33-.24-.06-.45-.21-.67-.24-.24-.03-.49,.09-.71,.08-.24-.01-.46,.26-.69,.27-.25,0-.44,.11-.67,.13-.24,.03-.59-.84-.81-.81-.25,.04-.44,.33-.66,.36-.25,.04-.49-.27-.7-.25-.25,.02-.52,.94-.74,.9-.2-.04-.31-.69-.57-.75-.22-.05-.51,.12-.75,.06-.22-.05-.36-.57-.6-.62s-.54,.25-.78,.21-.46-.2-.7-.23-.53,.48-.76,.46-.47-.43-.7-.42c-.25,0-.43,.39-.65,.43-.24,.05-.76-.66-.96-.56-.19,.09-.55,.25-.75,.42-.16,.14-.16,.56-.33,.75-.15,.17-.57,.17-.72,.37-.14,.18-.14,.51-.27,.71s-.04,.55-.17,.75-.06,.52-.18,.72,.13,.61,.02,.81c-.12,.22-1,.03-1.1,.24-.11,.23-.44,.37-.52,.57-.1,.24,.95,.89,.89,1.09-.1,.31-.46,.33-.43,.46,.15,.82,.15,.68,.28,.32s.17-.16,.44-.54c.13-.17-.26-.8-.08-1.02,.15-.18,.54-.19,.72-.39,.16-.17,.69,0,.87-.18,.18-.17-.23-1.01-.03-1.18s.74,.11,.95-.03,.38-.33,.6-.46,.73,.39,.96,.28,.3-.47,.54-.56,.34-.62,.59-.68c.24-.05,.59,.44,.82,.4,.24-.05,.31-1.13,.54-1.16,.25-.04,.57,.41,.8,.38,.25-.03,.52,.3,.75,.28s.48,.06,.71,.06,.45,.22,.69,.23,.54-.63,.78-.59,.45,.27,.69,.32,.47,.1,.7,.17,.58-.19,.81-.11,.36,.42,.59,.51,.51,.04,.73,.15,.11,.86,.33,.97,.77-.44,.99-.32c.22,.12,.62-.05,.83,.07s-.06,1.04,.14,1.17,.22,.52,.42,.66,.97-.47,1.16-.32,.27,.47,.45,.63c.19,.16-.18,.93-.01,1.09,.18,.17,.58,.09,.75,.26,.18,.18,.17,.49,.33,.67,.17,.19,1.17-.31,1.31-.12,.16,.2-.14,.75,0,.94,.15,.21-.1,.66,.02,.85,.14,.23,.67,.19,.78,.39,.13,.25-.22,.68-.13,.87,.19,.42,.18,.4,.39,.69Z"/>
  <path class="cls-5" d="M47.6,31.28c-.07,.18,.36,.13,.65-.29,.12-.17,.46-.25,.6-.48,.12-.19-.06-.58,.06-.81,.11-.2,.21-.42,.32-.64,.1-.21,.57-.27,.67-.49s.23-.45,.31-.67-.24-.6-.18-.83,.01-.49,.05-.72-.1-.47-.09-.71c.02-.25,.63-.5,.6-.73-.03-.24-.16-.52-.24-.74-.08-.21-.26-.41-.38-.63-.11-.2-.61-.16-.74-.36-.13-.19-.19-.41-.34-.6s-.15-.47-.3-.65-.26-.39-.42-.56-.46-.2-.63-.37-.22-.45-.39-.6-.54-.09-.72-.24-.28-.4-.46-.54c-.19-.15-.05-.73-.24-.86-.2-.14-.66,.09-.85-.03-.21-.14-.26-.53-.44-.63-.23-.13-.57,0-.76-.06-.3-.11-.56-.32-.71-.26-.18,.06,.22,.16,.53,.48,.14,.15,.12,.5,.33,.7,.16,.15,.09,.57,.28,.76,.16,.16,.55,.12,.73,.3,.16,.17,.58,.13,.75,.31,.16,.18-.09,.72,.07,.91s.71,.05,.86,.25,.25,.44,.39,.64,.27,.42,.4,.63-.14,.64-.03,.86,.15,.45,.24,.68,.81,.22,.89,.45,.02,.53,.08,.77,.26,.47,.3,.72,.03,.52,.05,.77-.46,.51-.46,.76,.37,.51,.35,.76-.18,.48-.22,.73,.1,.53,.04,.78-.57,.35-.65,.59-.21,.43-.3,.66Z"/>
  <path class="cls-4" d="M45.96,26.19c.28-.19-.18-.14-.31-.53-.06-.19,.2-.52,.11-.75-.08-.2-.22-.4-.32-.61-.09-.2-.39-.31-.5-.51s-.16-.44-.29-.62c-.14-.19-.4-.25-.56-.4-.17-.17-.22-.47-.42-.56-.22-.11-.44-.27-.67-.34s-.54,.14-.78,.1-.47-.36-.71-.36c-.25,0-.49,.24-.72,.28-.25,.04-.44,.2-.66,.29-.24,.09-.47,0-.65,.13,.3,.21,.2,.05,.67,.06,.2,0,.43,0,.71,.07,.21,.05,.46,.05,.71,.14,.21,.08,.46,.13,.69,.25,.2,.1,.34,.33,.56,.47,.19,.12,.4,.23,.61,.39,.18,.14,.29,.39,.48,.56,.17,.15,.48,.18,.66,.35,.17,.16,.27,.4,.44,.59,.16,.17,.46,.23,.62,.42,.15,.18,.17,.38,.32,.58Z"/>
  <path class="cls-1" d="M46.56,25.15c.32-.16,.25,.34,.57,.61,.16,.13,.51,.14,.66,.36,.13,.18-.03,.51,.05,.76,.07,.21,.07,.39,.08,.65,0,.22,.52,.51,.48,.77-.04,.22-.56,.34-.64,.59-.08,.21-.11,.44-.23,.68-.11,.22-.1,.49-.23,.71s-.25,.42-.38,.63-.49,.27-.63,.47,.15,.7,.01,.9-.48,.27-.62,.47-.5,.24-.65,.43-.22,.46-.37,.64c-.16,.2-.39,.31-.55,.49-.17,.19-.14,.56-.3,.73-.18,.19-.34,.39-.5,.55-.21,.19-.6,.09-.76,.21-.31,.22-.47,.65-.59,.57-.12-.07-.27-.57-.11-.92,.08-.19,.51-.26,.65-.5,.11-.19,.21-.42,.35-.63,.12-.2,.34-.35,.47-.55s.3-.37,.44-.57,.31-.38,.44-.58,.29-.4,.42-.6c.14-.21,.03-.57,.16-.76,.14-.22,.24-.45,.35-.63,.16-.26,.22-.48,.28-.63,.12-.3,.04-.21-.3,.1-.14,.13-.07,.54-.26,.72-.15,.15-.43,.2-.61,.36-.16,.15-.39,.24-.58,.39s-.45,.16-.64,.31-.15,.58-.34,.71-.62-.11-.82,0-.25,.53-.46,.62c-.22,.09-.43,.32-.65,.37-.23,.05-.53-.2-.75-.22,0-.36,.35,0,.7-.27,.16-.12,.24-.42,.45-.59,.17-.14,.54-.07,.74-.23,.18-.14,.27-.42,.46-.58,.18-.15,.11-.6,.29-.76s.71,.08,.89-.08,.14-.56,.31-.73,.5-.19,.67-.36,.2-.48,.36-.66,.16-.5,.3-.69,.38-.31,.52-.51c.14-.21,.26-.41,.37-.61,.12-.22,.42-.35,.5-.57,.09-.24,.2-.49,.22-.72,.03-.25-.18-.62-.24-.84Z"/>
  <path class="cls-7" d="M39.88,32.52c-.06,.11,.13,.04,.51-.28,.15-.13,.05-.62,.24-.8,.16-.15,.55-.1,.73-.28,.16-.16,.15-.51,.32-.69s.36-.31,.52-.5,.57-.16,.71-.35-.09-.67,.04-.86c.14-.2,.5-.26,.62-.46,.12-.22,.06-.51,.14-.72,.09-.24,.16-.44,.18-.66,.02-.27,.21-.52,.2-.76-.01-.27-.08-.53-.13-.77-.06-.27,.04-.6-.06-.82-.11-.24-.49-.35-.64-.54-.17-.21-.31-.44-.51-.58-.21-.15-.46-.29-.69-.36-.24-.07-.49-.24-.72-.25-.24,0-.54,0-.77,.06s-.27,.62-.48,.73-.58-.05-.76,.1-.19,.49-.34,.66c-.16,.19-.28,.36-.38,.56-.12,.24-.46,.38-.48,.59-.02,.27,.25,.37,.45,.5,.19,.12,.46,.38,.68,.22,.16-.11,.1-.57,.27-.73,.16-.15,.34-.31,.52-.44,.19-.15,.43-.27,.63-.32s.45,.05,.67,.18c.23,.14,.52,.26,.64,.46s-.06,.54-.02,.8c.03,.23,.35,.49,.31,.75-.03,.23,0,.53-.08,.78-.06,.23-.66,.3-.75,.54-.08,.23,.23,.62,.12,.85-.1,.22-.24,.44-.35,.67s-.48,.32-.59,.54-.17,.47-.29,.69-.07,.53-.19,.76-.14,.5-.27,.72Z"/>
  <path class="cls-5" d="M37.68,17.24c-.18-.29,.1-.54-.27-.72-.18-.09-.72,.56-.95,.47-.2-.08-.14-.96-.37-1.03-.22-.06-.48-.25-.71-.28s-.5,.6-.73,.62-.3,.39-.52,.46-.47-.16-.67-.02c-.18,.12-.71-.1-.87,.09-.14,.16-.27,.4-.43,.63-.13,.18-.48,.27-.62,.49-.12,.19,.2,.7,.07,.92-.12,.2-.09,.5-.21,.72-.11,.21-.26,.4-.37,.62s-.36,.36-.47,.58,.03,.55-.07,.77-.25,.42-.34,.64-.02,.51-.11,.74-.29,.4-.38,.63-.64,.29-.72,.53-.36,.41-.43,.64,.53,.66,.47,.9-.75,.33-.8,.57-.09,.5-.13,.74,.24,.55,.2,.79-.37,.46-.39,.7,.3,.52,.29,.77-.22,.5-.22,.74,.05,.51,.07,.75,.52,.43,.55,.67,0,.49,.05,.72-.04,.6,.04,.83c.34,.13,.44-.45,.8-.41s.3,.53,.66,.57,.36,.08,.72,.12,.37-.01,.73,.03,.39-.25,.75-.21,.28,.78,.64,.82,.43-.55,.79-.51,.39-.26,.75-.22,.35,.1,.71,.14,.33,.35,.69,.39,.34,.22,.7,.26,.32,.39,.69,.43,.44-.32,.79-.4c0-.24-.38-.45-.42-.69s-.1-.41-.17-.64,.22-.57,.12-.79-.27-.39-.39-.6-.5-.25-.62-.45,.49-.86,.37-1.07-1.06,.11-1.19-.09-.23-.43-.35-.63,.3-.73,.19-.93-.41-.32-.51-.53-.27-.41-.35-.63,.21-.53,.17-.76-.64-.42-.64-.66c0-.23,.02-.52,.07-.75,.04-.22,.72-.28,.8-.5,.07-.21,.06-.44,.16-.66s.32-.34,.43-.55-.47-.77-.35-.98,.68-.14,.8-.35,.05-.51,.16-.71,.55-.23,.66-.43,.11-.48,.21-.68-.18-.6-.09-.81c.1-.22,.26-.38,.33-.6,.08-.23-.14-.48-.09-.7,.05-.23,.34-.26,.34-.49Z"/>
  <path class="cls-4" d="M36.5,16.21c.16,.11,.03,.29-.36,.49-.19,.09-.41,.22-.66,.34-.21,.1-.59-.09-.81,.03s-.32,.46-.53,.59-.29,.43-.47,.58c-.2,.17-.53,.16-.66,.35-.12,.17-.22,.4-.39,.62-.14,.18-.37,.31-.53,.51-.15,.18-.33,.35-.49,.55s-.31,.38-.47,.56-.43,.28-.59,.46-.14,.55-.3,.72c-.18,.19-.36,.36-.53,.52-.2,.19-.35,.4-.52,.53-.3,.24-.67,.41-.77,.35-.07-.05-.1-.47,.03-.86,.06-.19,.2-.41,.31-.66,.09-.2,.42-.32,.53-.55,.1-.21,.11-.47,.23-.69,.11-.21,.25-.4,.38-.61s.21-.43,.34-.63,.24-.42,.38-.61,.2-.46,.35-.64,.26-.42,.42-.6,.55-.15,.72-.31,.29-.39,.48-.54,.42-.24,.62-.36c.21-.13,.33-.43,.55-.52,.23-.09,.47-.26,.7-.3s.52,.08,.76,.1,.54-.07,.78,.02c.21,.08,.31,.46,.52,.61Z"/>
  <path class="cls-4" d="M32.62,23.43c-.19,.3-.19,.15-.57,.32-.19,.08-.38,.2-.6,.34-.18,.12-.58,.03-.76,.2-.16,.15-.09,.55-.23,.75-.13,.18-.21,.38-.31,.61-.09,.2-.16,.41-.22,.65-.05,.22-.2,.44-.26,.68-.05,.23-.09,.47-.15,.71s-.09,.47-.15,.71,.08,.52,.02,.76-.29,.43-.35,.66c-.06,.24-.05,.5-.11,.73-.07,.25-.26,.45-.32,.67-.07,.26,.14,.58,.09,.78-.12,.43-.1,.57-.4,.75-.24,.15-.4-.24-.67-.18s-.32,.64-.59,.57c-.35-.09-.23-.57-.22-1.02,0-.21,.12-.46,.14-.73,.01-.22,.31-.44,.34-.7,.02-.23-.04-.48,0-.73,.03-.23,.16-.45,.2-.7,.04-.23-.09-.51-.03-.75s-.09-.53-.02-.77,.64-.3,.72-.53-.16-.59-.06-.81,.12-.5,.23-.71,.31-.4,.45-.6,.42-.3,.58-.49,.45-.23,.62-.41,.27-.4,.46-.56,.4-.25,.61-.38,.37-.3,.59-.41,.37-.34,.61-.43,.69-.13,.93-.19c.06,.31-.12,.37-.18,.68s-.21,.27-.38,.53Z"/>
  <path class="cls-4" d="M47.14,23.78c-.35,.11-.32-.53-.72-.76-.18-.11-.37-.29-.61-.42-.2-.11-.59,.11-.82,0-.21-.11-.3-.47-.54-.58-.22-.1-.52-.02-.75-.12s-.36-.41-.6-.49-.36-.49-.6-.56-.61,.28-.84,.22-.53,.18-.77,.14-.44-.25-.69-.27c-.25-.02-.46,.21-.7,.22-.25,.01-.6-.71-.84-.66-.24,.06-.39,.49-.6,.61s-.31,.35-.49,.53c-.16,.17-.34,.31-.5,.49s-.13,.47-.27,.67-.24,.37-.36,.58-.22,.38-.31,.6-.32,.35-.39,.58-.14,.43-.18,.67,.3,.46,.29,.7-.44,.44-.42,.68c.02,.23-.04,.47,0,.71,.04,.22,.6,.32,.66,.55,.06,.22-.37,.59-.28,.82,.08,.21,.19,.42,.3,.65,.09,.21-.04,.55,.08,.76,.11,.2,.33,.36,.46,.57,.12,.2,.07,.52,.21,.72,.13,.19,.36,.33,.51,.53,.14,.19,.58,.15,.73,.34s-.06,.65,.1,.84,.53,.17,.69,.35,.49,.19,.65,.37-.1,.74,.07,.91,.73-.06,.9,.11-.02,.2,.16,.37c-.27,.23-.18,.43-.56,.2-.17-.1-.14-.61-.37-.75-.18-.12-.17-.53-.38-.68-.18-.13-.38-.23-.58-.37-.18-.13-.34-.3-.53-.45-.18-.14-.76,.21-.94,.06s-.1-.6-.28-.76-.75,.13-.93-.04,.21-.88,.04-1.05-.35-.3-.51-.47-.88,.13-1.03-.05,.3-.83,.16-1.02-.67-.1-.8-.3-.07-.51-.18-.72-.55-.26-.65-.47-.29-.42-.37-.64,.37-.62,.31-.85-.18-.43-.22-.66c-.04-.23-.39-.43-.41-.67s.26-.49,.26-.73-.33-.5-.31-.73,.6-.4,.64-.63-.08-.48-.02-.71,.21-.42,.29-.64,.42-.3,.52-.51-.29-.68-.17-.88,.24-.42,.4-.61,.25-.45,.42-.61,.28-.49,.48-.62,.54-.09,.76-.19,.43-.32,.66-.39,.58,.47,.82,.44c.23-.03,.43,.12,.68,.12,.23,0,.48-.51,.72-.48,.23,.03,.38,.47,.62,.53,.22,.05,.57-.35,.8-.27,.22,.07,.53-.05,.76,.04,.21,.08,.39,.32,.61,.42,.21,.1,.29,.48,.51,.59,.2,.11,.64-.17,.85-.05,.2,.12,.44,.22,.64,.35,.19,.13,.34,.36,.54,.5s-.08,.9,.12,1.04,.9-.39,1.09-.24,.32,.37,.51,.53,.47,.19,.65,.35,.32,.37,.5,.53,.17,.97,.35,1.14Z"/>
  <path class="cls-5" d="M49.88,20.74c.24-.27,.35-.34,.13-.73-.1-.18-.23-.41-.38-.63-.12-.19-.84,0-.98-.21-.13-.19-.15-.46-.3-.66-.14-.18-.1-.54-.26-.72s-.27-.41-.44-.58-.62-.03-.8-.18-.16-.58-.36-.72-.49-.14-.7-.25-.3-.56-.53-.64-.59,.24-.83,.19-.46-.22-.7-.22c-.24,0-.48,0-.71,0s-.5-.22-.73-.21-.47,.22-.7,.25-.47,.13-.7,.17-.56-.24-.78-.18c-.24,.06-.38,.46-.6,.53-.23,.07-.51,.03-.72,.12-.23,.09-.25,.59-.46,.7-.22,.11-.38,.25-.57,.38-.2,.13-.42,.18-.6,.33-.19,.16-.79-.09-.93,.08-.16,.19,.34,.83,.23,1.02-.19,.35-.52-.18-.12-.33,.18-.07,.58,.31,.86,.2,.2-.08,.46-.07,.71-.16,.21-.08,.36-.4,.61-.47,.22-.07,.45-.15,.7-.21,.23-.05,.41-.46,.66-.51,.23-.04,.53,.22,.78,.19,.24-.02,.49-.01,.74-.02s.5-.27,.75-.26,.48,.32,.72,.35,.49,.02,.74,.06,.5,0,.75,.05,.35,.54,.58,.62,.68-.47,.92-.38,.16,.86,.39,.97,.66-.25,.88-.14,.17,.67,.38,.8,.5,.1,.7,.24,.31,.37,.51,.52,.34,.33,.54,.49,.46-.04,.65,.12Z"/>
  <path class="cls-1" d="M56.32,34.85c.27,.21-.66,.67-.63,1.09,.02,.2,.61,.38,.63,.63,.02,.21-.64,.48-.63,.72,.01,.22,.76,.41,.77,.65s.41,.46,.41,.69-1.07,.46-1.07,.68c0,.24,.76,.51,.74,.72-.02,.25,.22,.56,.18,.76-.04,.21-.25,.55-.37,.79-.09,.2-.15,.53-.28,.75-.12,.19-1.13-.18-1.28,.02-.14,.19,.2,.75,.05,.94-.15,.18-.62,.1-.78,.29s.3,.92,.13,1.1-.46,.25-.63,.42-1.11-.43-1.29-.26,.57,1.29,.39,1.46-.45,.25-.62,.42-1-.39-1.19-.24,.11,.89-.08,1.04-.23,.52-.42,.66c-.18,.14-.56,.07-.76,.22-.19,.14-.39,.3-.6,.44-.19,.13-.87-.48-1.08-.35-.2,.12-.29,.41-.52,.52s-.1,.9-.32,1.01-.44,.28-.67,.36-.68-.48-.92-.41-.37,.5-.61,.55-.58-.51-.82-.47-.41,.59-.65,.61-.49,.33-.74,.33-.49-.24-.74-.26-.56,.36-.8,.33-.42-.53-.66-.58-.31-.68-.55-.75-.53,.12-.76,.04-.28-.55-.51-.64-.6,.19-.82,.08-.68,.25-.9,.13-.06-.86-.27-.99-.24-.47-.45-.61-.89,.43-1.09,.28,.06-.87-.13-1.03-.5-.13-.69-.29-.8,.18-.99,.01-.61-.61-.79-.78c0-.35,.97,.14,1.32-.16,.15-.13-.32-1.06-.11-1.23,.17-.14,1.11,.66,1.31,.5,.17-.14-.07-.84,.13-.99,.18-.13,.45-.17,.65-.32,.18-.13,.28-.41,.49-.55,.19-.13,.09-.71,.29-.85,.19-.13,.56,0,.77-.14,.19-.12,.75,.31,.95,.18s.43-.17,.64-.3,.15-.67,.36-.79,.69,.28,.9,.16,.01-.96,.22-1.07,.34-.39,.55-.5,.66,.24,.87,.13,.24-.58,.46-.68,.86,.71,1.08,.61,.26-.56,.48-.66,.58,.16,.81,.07,.11-.95,.33-1.04,.59,.2,.81,.11,.39-.29,.61-.38,.49-.02,.72-.11,.4-.27,.63-.35,.5,.01,.73-.07,.35-.45,.57-.53,.37-.41,.6-.48,.76,.85,.99,.78,.11-1.27,.34-1.34,.44-.22,.67-.29,.57,.27,.8,.21,.35-.56,.58-.62,.67,.74,.9,.68,.27-.96,.5-1.01,.58,.41,.82,.36,.8-.36,1.03-.41Z"/>
  <path class="cls-4" d="M32.36,46.4c.34,.11,.42,.45,.79,.19,.16-.11-.17-1.04,.06-1.19,.18-.12,.9,.56,1.12,.42,.19-.12-.07-.99,.15-1.12,.2-.12,.39-.28,.61-.4,.2-.11,.65,.19,.86,.07,.2-.11,.36-.33,.57-.45s.63,.21,.85,.11,.04-1.01,.26-1.11,.77,.55,1,.45,.12-.92,.35-1.01,.7,.45,.92,.36,.44-.17,.66-.25,.44-.16,.67-.24,.22-.88,.45-.95,.6,.32,.83,.26,.51,.06,.74,0,.34-.69,.57-.74,.5,.02,.74-.02,.59,.68,.83,.65,.43-.37,.66-.4,.44-.53,.68-.55,.51,.58,.75,.58,.48-.57,.72-.56,.47,.31,.71,.33,.46,.18,.7,.21,1-.25,1.23-.21c-.13-.35-.74,.01-1.18-.13-.2-.06-.61,.47-.88,.39-.22-.06-.33-.56-.58-.63-.22-.06-.38-.47-.63-.53-.23-.06-.6,.46-.85,.41-.23-.05-.35-.74-.59-.79s-.55,.27-.79,.23-.5,.02-.74-.01-.52,.26-.76,.23-.47-.07-.72-.09-.46-.87-.71-.88-.49,.71-.74,.72-.5-.25-.75-.22-.42,.46-.66,.5-.69-.79-.92-.73-.29,.77-.51,.86c-.23,.09-.59-.14-.82-.05s-.54-.01-.77,.08-.39,.35-.61,.45-.31,.52-.52,.63-.68-.24-.9-.13-.29,.54-.49,.66c-.22,.13-.24,.53-.44,.67-.21,.14-.39,.26-.58,.42-.2,.16-.77-.08-.93,.1-.17,.19-.48,.35-.61,.55s.22,.7,.14,.93,.32,.48,.3,.73c-.02,.23-.89,.48-.85,.74,.03,.23,.5,.22,.58,.47Z"/>
  <path class="cls-4" d="M52.89,22.64c.21-.3,.53,.05,.97,.14,.21,.04,.34,.5,.6,.58,.22,.06,.59-.3,.83-.2,.22,.08,.36,.39,.58,.5,.21,.11,.72-.25,.93-.12s.29,.5,.48,.66,0,.7,.17,.88,.14,.44,.28,.64,.99-.03,1.1,.2c.1,.21,.18,.51,.25,.75,.07,.22-.35,.59-.3,.84,.04,.23,.54,.44,.55,.69,.01,.24-.61,.48-.63,.73-.01,.24,.3,.5,.27,.73s-.4,.41-.44,.64,.45,.59,.39,.82-.16,.47-.23,.69-.22,.44-.31,.66-.83,.14-.93,.35-.03,.49-.14,.7,.08,.59-.05,.79-.15,.48-.29,.67-.36,.33-.5,.52-.35,.33-.51,.5-.56,.11-.73,.28-.04,.63-.22,.79-.25,.44-.43,.59-.46,.2-.65,.34-.69-.16-.89-.03,.05,.96-.15,1.08-.56,0-.77,.11c-.22,.11-.33,.46-.54,.55-.22,.1-.54,.02-.75,.1-.24,.08-.56-.17-.78-.11-.25,.06-.44,.22-.66,.24-.26,.02-.46-.13-.66-.17-.26-.05-.15,.13-.29-.03,.08-.35-.34-.5,.01-.77,.16-.12,.48-.1,.7-.26,.17-.13,.6,.01,.79-.15,.17-.14,.25-.43,.44-.59,.18-.15,.44-.22,.62-.38,.18-.15,.23-.46,.41-.62s.55-.1,.73-.27-.07-.76,.1-.93,.41-.26,.57-.44,.47-.22,.62-.4,.64-.1,.79-.29,.2-.48,.34-.67,.45-.31,.57-.51-.56-.9-.45-1.1c.12-.22,.76-.16,.85-.37,.09-.23-.27-.58-.22-.81,.06-.24,.09-.41,.09-.64,0-.24,0-.48,0-.71s-.02-.47-.02-.71-.09-.46-.1-.69,.69-.52,.67-.76-.71-.38-.75-.61-.17-.4-.23-.63,.03-.46-.06-.69-.19-.39-.31-.6c-.11-.2-.17-.41-.31-.61-.13-.19,.05-.61-.11-.8-.15-.18-.36-.31-.54-.49-.16-.16-.6-.43-.79-.59Z"/>
  <path class="cls-4" d="M63.45,39.26c.18,.02-.07,.77-.19,1.14-.06,.19-.14,.39-.26,.64-.1,.2-.48,.24-.61,.47-.11,.2,.37,.76,.24,.98-.13,.2-.9-.03-1.04,.17s.26,.77,.12,.96-.03,.61-.17,.79-.79-.02-.95,.16c-.17,.19,.19,.87,.02,1.03-.18,.18-.69,.02-.87,.15-.23,.18-.69-.05-.89,.08-.25,.16-.26,.59-.47,.7-.27,.14-.25,.79-.46,.88-.27,.12-.98-.66-1.18-.53s-.62,.36-.78,.62c-.1,.16,.77,1.01,.61,1.23-.12,.17-1.17-.29-1.33-.09-.13,.18,.11,.65-.04,.84-.14,.17-.11,.51-.27,.69-.15,.17-.53,.14-.69,.31s-.67-.07-.85,.09,.12,.84-.06,.99-.7-.19-.89-.06-.33,.28-.54,.39,0,1.07-.21,1.17c-.19,.08-.64-.37-.87-.27-.2,.09-.4,.22-.63,.31-.21,.09-.39,.25-.62,.34-.21,.09-.56-.15-.78-.06s-.16,.86-.38,.95-.79-.79-1.01-.71-.29,.54-.51,.62-.22,.82-.44,.89-.53-.09-.75-.02-.68-.7-.91-.64-.39,.31-.61,.36-.3,.89-.53,.93c-.24,.04-.54-.33-.77-.31-.25,.02-.48,.05-.7,.04-.25,0-.55,.29-.76,.25-.25-.05-.17-.83-.35-.95-.2-.13-.96,.25-1.06,.03-.12-.24,.3-.63,.41-.86,.09-.19,.43-.12,.65-.3,.17-.14,.45-.03,.68-.16,.2-.11,.17-.63,.4-.74,.21-.1,.57,.15,.8,.06,.22-.09,.35-.38,.58-.47s.36-.38,.59-.47,.41-.28,.64-.36,.41-.28,.64-.36,.33-.51,.56-.6,.76,.68,.98,.59,.46-.17,.69-.25,.29-.62,.51-.71c.23-.09,.57,.1,.79,0,.23-.1,.31-.5,.52-.6,.23-.11,.27-.48,.47-.6,.22-.13,.86,.37,1.03,.23,.21-.17,.41-.43,.52-.61,.11-.18,.16-.42,.32-.63,.14-.18-.13-.71,.04-.91,.15-.18,.9,.16,1.07-.03,.16-.17-.14-.77,.04-.96,.16-.17,.67-.01,.85-.19s.05-.64,.23-.81,.71,.05,.89-.12-.13-.86,.06-1.02,.26-.45,.45-.61,.64,0,.83-.16,.86,.3,1.05,.15-.36-1.29-.17-1.43,.44-.25,.64-.39,1.08,.73,1.28,.6,0-.89,.21-1.02,.56,0,.77-.11c.22-.12,.58,.1,.79,0,.23-.11,.17-.84,.39-.92,.24-.09,.37-.6,.59-.66,.25-.07,.65,.63,.88,.61,.25-.03,.55-.78,.78-.76Z"/>
  <path class="cls-4" d="M45.64,39.72c-.34,.16-.24-.18-.7-.21-.22-.02-.5,.22-.78,.19-.24-.03-.52,.14-.78,.1-.25-.04-.5-.15-.75-.2s-.59,.19-.83,.13c-.26-.07-.21-1.06-.43-1.15-.26-.1-.83,.52-1.02,.39-.19-.13,.05-.89-.16-1.06-.19-.15-.66,.05-.87-.12-.19-.16-.26-.47-.46-.64s-.47-.23-.67-.39-.55-.13-.75-.28c-.21-.16-.43-.27-.63-.41-.22-.15-.29-.53-.5-.64-.25-.13-.58,.04-.79,0-.24-.05-.45-.12-.7-.13s-.48-.11-.73-.09-.5-.18-.75-.16-.47,.29-.72,.3-.49-.25-.74-.26-.53,.37-.78,.33c-.21-.03-.31-.57-.54-.64-.21-.06-.53,.19-.74,.1-.21-.08-.32-.38-.53-.48s-.46-.09-.66-.19-.35-.3-.54-.41c-.2-.12-.36-.28-.54-.4-.21-.13-.25-.45-.42-.57-.23-.16-.87-.19-.99-.3,.25-.25,.45-.19,.89-.23,.2-.02,.51,.87,.78,.85,.21-.02,.42-.39,.67-.4,.22-.01,.44-.22,.69-.24,.23-.01,.48,.48,.72,.48,.23,0,.43-.99,.67-.99s.48-.09,.71-.1,.46,1.1,.7,1.1,.48-.44,.71-.43,.44,.47,.68,.49,.54-.77,.77-.75,.42,.47,.65,.51c.24,.03,.42,.28,.65,.32,.24,.05,.5-.11,.72-.04,.24,.07,.57-.15,.77-.06,.2,.09,.47,.09,.69,.19,.2,.1,.47,.11,.68,.23,.2,.11,.29,.45,.5,.57s.41,.22,.61,.35,.2,.56,.4,.69,.2,.54,.4,.67,.53,.03,.72,.16,.81-.36,1-.22,.09,.69,.28,.83,.47,.15,.66,.29,.08,.67,.25,.81c.19,.15,.76-.19,.94-.04,.19,.16,.28,.42,.44,.57,.19,.17,.39,.3,.54,.46,.18,.19,.18,.51,.29,.67,.19,.25,.34,.32,.32,.48Z"/>
  <path class="cls-4" d="M43.55,52.7c.08,.03-.11-.33-.59-.21-.19,.05-.28,.8-.55,.85-.21,.04-.58-.7-.84-.67-.22,.03-.41,.4-.65,.42-.22,.03-.47,0-.71,.02-.23,.02-.47-.08-.71-.07-.23,.01-.45,.46-.69,.47s-.47-.62-.72-.62-.45-.36-.69-.37-.46,.21-.7,.19-.45-.08-.69-.1-.42-.32-.66-.35-.51,.38-.75,.34-.58,.54-.81,.49-.52,.11-.76,.05-.35-.59-.58-.65-.61,.36-.84,.29-.49-.11-.71-.19-.49-.11-.72-.2-.28-.61-.49-.71-.24-.59-.46-.7-.29-.43-.5-.55-.25-.45-.46-.58c-.15-.09-.21-.15-.43-.36-.15-.15-.27-.31-.44-.5-.15-.17-1.35,.57-1.52,.38-.15-.17-.13-.52-.28-.71-.15-.18-.47-.24-.62-.43-.14-.18,.72-1.16,.57-1.36s-.73-.03-.88-.22,.16-.71,.01-.91-1.36,.42-1.51,.23,.52-.98,.38-1.18-1.09,.2-1.23,0-.12-.51-.26-.7,.3-.81,.16-1-.02-.58-.16-.77-.47-.26-.61-.45c-.14-.2-.98,.1-1.12-.09-.14-.21,.58-1.01,.45-1.19-.15-.21-1.04,.12-1.16-.07-.15-.22-.47-.3-.58-.46-.19-.28-.34-.47-.41-.58-.15-.22,.17-.76,.04-.96-.14-.23-.05-.57-.17-.78-.13-.23-.27-.43-.37-.64-.12-.25-.19-.48-.27-.7-.1-.26-.4-.43-.44-.65-.06-.28,.02-.54,.01-.76,0-.29-.55-.67-.49-.89,.07-.28,.12-.72,.23-.9,.17-.28,.27-.3,.31-.46,.02-.06,.46,.75,.82,1.05,.15,.13,.67-.12,.88,.07,.16,.14,.55,.07,.74,.25,.16,.15,.38,.27,.56,.45,.17,.15,.4,.26,.58,.43,.17,.16,.6,.05,.78,.22,.17,.16,.31,.36,.49,.52,.17,.16-.54,1.27-.36,1.44s.43,.23,.61,.4,.91-.29,1.09-.12,.37,.3,.55,.46-.15,.86,.03,1.03,.98-.38,1.16-.22,.02,.68,.2,.84,.37,.29,.55,.45,.7-.07,.88,.09,.24,.45,.42,.61,.43,.23,.61,.39,.51,.14,.69,.29-.24,1-.05,1.16,.78-.17,.96-.02-.08,.83,.1,.99,.59,.04,.78,.19,.68-.08,.87,.07,.04,.71,.22,.86,.33,.36,.51,.51,.34,.34,.53,.49-.06,.86,.13,1.01,.56,.07,.75,.22,.18,.57,.37,.72,1.04-.58,1.23-.44-.26,1.18-.06,1.32,1.1-.71,1.29-.57,.12,.67,.31,.81,.26,.49,.45,.62,.55,.04,.75,.17,.12,.71,.33,.84,.47,.18,.67,.3,.99-.74,1.19-.62,.31,.4,.52,.52,.23,.59,.44,.7,.29,.51,.5,.61,.37,.38,.58,.48,.38,.4,.6,.48,.61-.19,.83-.12Z"/>
  <path class="cls-4" d="M43.01,37.66c-.09,.26,.5,.79,.9,.56,.17-.1,.39-.22,.62-.37,.18-.11,.19-.55,.4-.69,.19-.12,.53-.05,.73-.19,.19-.13,.08-.68,.28-.83,.19-.14,.57-.02,.76-.17s.56-.05,.75-.2,.21-.5,.39-.65,.45-.2,.63-.36-.1-.81,.07-.97,.51-.14,.68-.3,.56-.11,.72-.29,.31-.37,.47-.54,.55-.16,.71-.35,0-.62,.14-.81-.07-.63,.06-.83,.67-.13,.79-.33,.21-.43,.32-.64,0-.53,.1-.74,.78-.2,.87-.42-.5-.67-.44-.9c.07-.24-.07-.51-.02-.73,.06-.24,.22-.43,.27-.65,.05-.25,.31-.43,.33-.65,.03-.25-.22-.49-.21-.71,.01-.26,.14-.46,.13-.68-.02-.26-.16-.43-.2-.65-.06-.26,.18-.54,.09-.73-.11-.24-.09-.55-.23-.7-.18-.21-.29-.59-.46-.69-.36-.2-.46,.02-.73,.24s-.29,.11-.33,.57c-.02,.2,.24,.47,.21,.75-.03,.22-.18,.44-.22,.7-.04,.22-.4,.4-.45,.65-.05,.23,.25,.53,.19,.78-.05,.23-.58,.34-.64,.58-.06,.23,.06,.5-.01,.74-.07,.23-.14,.45-.22,.68s-.34,.38-.42,.61-.08,.47-.18,.69,.18,.59,.09,.82-.43,.32-.54,.55-.36,.35-.47,.56-.05,.51-.17,.72-.2,.43-.33,.64-.21,.43-.34,.63-.24,.41-.38,.62,.22,.76,.07,.95-.77,.02-.92,.21,.13,.74-.03,.93-.47,.24-.63,.42-.83-.13-1.01,.04-.08,.59-.26,.76-.03,.68-.21,.84-.73-.1-.92,.06-.6,.31-.79,.46Z"/>
</svg>