<?xml version="1.0" encoding="UTF-8"?>
<svg id="_圖層_6" data-name="圖層 6" xmlns="http://www.w3.org/2000/svg" viewBox="0 0 100 100">
  <defs>
    <style>
      .cls-1 {
        fill: #8c2735;
      }

      .cls-2 {
        fill: #c16374;
      }

      .cls-3 {
        fill: #ea99aa;
      }

      .cls-4 {
        fill: #791c30;
      }

      .cls-5 {
        fill: #e88da3;
      }

      .cls-6 {
        fill: #8d2134;
      }

      .cls-7 {
        fill: #b94a63;
      }

      .cls-8 {
        fill: #ce6b7d;
      }

      .cls-9 {
        fill: #f7c4d3;
      }
    </style>
  </defs>
  <path class="cls-8" d="M55.87,80.59c.29,.22-.95,.08-1.02,.53-.03,.2,1.38,.7,1.32,.97-.05,.22-.03,.51-.1,.76-.07,.22-.69,.28-.78,.52-.08,.22,.07,.55-.04,.78-.1,.21-.93,.06-1.05,.28-.11,.21,1.11,1.22,.98,1.43-.13,.2-1.21-.2-1.35,0s.08,.68-.08,.87-.56,.16-.73,.35-.69-.03-.88,.13-.45,.17-.64,.32-.22,.45-.43,.59-.1,.7-.31,.84-.5,.11-.71,.23-.92-.79-1.14-.68,.15,1.42-.08,1.52-.37,.4-.61,.49-.75-.68-.99-.6,0,1.7-.24,1.77-.5,.16-.75,.22c-.25,.06-1.04-2.27-1.28-2.21-.25,.06-.03,2.21-.26,2.26-.25,.05-.59-.35-.82-.31-.25,.04-.45,.41-.68,.44-.25,.04-.51,.1-.74,.13-.25,.03-.6-.9-.83-.88-.26,.02-.51-.56-.74-.55-.26,0-.48,1.35-.71,1.35-.26,0-.43-1.25-.66-1.27-.26-.02-.57,.73-.8,.7-.26-.04-.7,.72-.92,.67-.25-.06-.21-1.19-.42-1.26-.25-.08-.46-.16-.67-.25-.24-.1-.96,.94-1.17,.85-.23-.1-.03-1.13-.25-1.21s-.48,.08-.73,.04c-.22-.03-.34,.88-.6,.9-.22,.01-.27-.02-.53,.04-.23,.05-.76-1.15-1-1.08s-.76-.88-.99-.82-.45,.19-.68,.26-.07,1.38-.3,1.45-.47,.09-.7,.16-.47,.12-.69,.2-.63-.41-.86-.34,0,1.68-.24,1.74-.73-.74-.95-.68-.77-1.14-.99-1.09c-.24,.06-.31,.7-.54,.74-.25,.04-.43,.29-.65,.31-.25,.03-.48,1.06-.7,1.06-.26,0-.33-1.45-.55-1.5-.25-.06-.16-.16-.35-.29-.18-.12-.53,.16-.7-.03-.14-.16-1.22,.33-1.36,.13-.12-.18,1.14-1.21,1.02-1.42-.11-.2-.53-.21-.64-.42-.1-.2-1.68,.27-1.77,.05s1.01-.96,.92-1.18-1.51,.15-1.61-.07,.69-.8,.6-1.02,.51-.74,.41-.95-.79-.15-.89-.36,.76-.94,.65-1.14-.67-.2-.79-.39c-.13-.2,.15-.75,.01-.93-.15-.19-.69-.15-.85-.31-.16-.16-1.02,.4-1.2,.23-.17-.15,.14-.86-.05-1.03-.18-.15-1.08,.52-1.27,.35s-.24-.46-.42-.63,.13-.85-.04-1.02-.04-.62-.21-.8,.3-.88,.14-1.06-1.9,.98-2.06,.79-.29-.44-.43-.64-.19-.5-.32-.71,1.46-1.36,1.35-1.57-.2-.34-.3-.56-.99-.05-1.07-.28-.83-.23-.9-.46-.28-.45-.33-.69,1.51-.75,1.47-1-1.7-.24-1.73-.49c-.02-.25,1.63-.57,1.62-.81,0-.25-.8-.45-.79-.68,.01-.25-1.04-.61-1.01-.84,.03-.25,.62-.43,.67-.66,.05-.24-.77-.78-.7-1,.08-.24,1.9,.15,2-.07,.1-.23-.12-.55-.01-.76,.12-.22-.88-1.1-.75-1.3,.13-.21,2.11,.88,2.25,.69,.15-.2-.12-.62,.04-.8,.17-.2-.98-1.65-.81-1.81,.2-.19,.48-.37,.64-.5,.35-.28,.73,.99,1.08,1.03s.12,.25,.46,.37,.5-.32,.84-.2,.43-.13,.77,0,.31,.19,.65,.31,.74-.97,1.08-.85,.16,.6,.5,.72,.56-.49,.9-.37-.47,2.35-.14,2.47,.73-.95,1.07-.82,.62-.65,.96-.53,.38,0,.72,.12,.18,.55,.52,.68,.45-.17,.78-.05-.28,1.81,.06,1.93,.32,.16,.66,.28,.72-.91,1.05-.79,.04,.94,.38,1.06,1.09-1.93,1.43-1.8-.3,1.87,.04,1.99,.75-1.01,1.09-.89,.3,.24,.64,.36,.48-.27,.82-.15,.06,.89,.4,1.02,.65-.72,.98-.6,.26,.33,.6,.45,.36,.05,.7,.18,.35,.09,.69,.22,.47-.23,.81-.1-.54,2.53-.2,2.65,1.06-1.84,1.4-1.72-.12,1.39,.22,1.51,.11,.75,.45,.87,.48-.26,.82-.14,.6-.58,.94-.46,.15,.64,.49,.76,.45-.17,.79-.04,.35,.1,.69,.23,.35,.09,.69,.22,.54-.41,.88-.29-.16,1.49,.18,1.61,.39-.01,.73,.11,.71-.9,1.05-.78-.08,1.26,.26,1.38,.7-.87,1.04-.74,.05,.92,.39,1.04,.53-.38,.87-.26,.24,.41,.58,.53,.13,.69,.47,.82,.71-.89,1.05-.76,.09,.82,.43,.95,1.01-1.71,1.35-1.59-.45,2.29-.11,2.42,.59-.56,.94-.44,.33,.14,.68,.27,.2,.52,.54,.65,.95-1.55,1.29-1.42,.34,.12,.69,.25-.11,1.38,.23,1.5,.5-.28,.85-.17,.38,0,.68,.23Z"/>
  <path class="cls-1" d="M56.16,79.22c.28,.23-1.24-.45-1.52-.09-.12,.16,.31,.79,.15,1.01-.14,.18,.42,.91,.26,1.12-.14,.18-.71,.05-.86,.24-.14,.18-.85-.08-1.01,.12s.92,1.36,.76,1.55-.81-.04-.96,.15,.5,1.06,.35,1.25-1.44-.58-1.6-.4,.72,1.3,.56,1.48-1.93-1.1-2.09-.93c-.17,.18,.71,1.35,.55,1.52-.18,.18-.71-.02-.88,.14-.19,.18-.77-.17-.94-.03-.17,.14-.15,.5-.36,.65-.18,.13,.57,1.6,.37,1.75-.19,.13-1.14-.86-1.35-.72-.2,.12-.88-.61-1.1-.49s-.2,.51-.42,.62-.47,0-.69,.1-.13,.78-.35,.87-.27,.61-.49,.69-.35,.52-.58,.58-.62-.55-.86-.5-.45,.01-.69,.04-.45-.25-.69-.24-.45,.68-.69,.67-.41-.47-.64-.5-.65,.78-.88,.72,.06-1.59-.17-1.68-1.13,1.42-1.34,1.31,.48-1.71,.27-1.84-1.44,1.21-1.63,1.06c-.2-.16-.52-.24-.69-.4-.18-.17,.18-.92,.02-1.09-.17-.18,.42-.93,.28-1.12-.15-.2-1.27,.3-1.39,.1-.13-.21-.53-.31-.64-.52s.67-.85,.58-1.07,.49-.67,.41-.89-.7-.25-.77-.48-1-.18-1.07-.41,1.06-.87,.98-1.09-.36-.41-.45-.63-.9-.12-1.01-.33-.68-.11-.81-.31,.79-1.11,.64-1.31c-.14-.18,.17-.87,0-1.05-.16-.17-1.65,.98-1.83,.81-.17-.15-.53,.01-.73-.14-.18-.14-.17-.46-.38-.6-.19-.13-.14-.62-.35-.74-.2-.12,.3-1.63,.09-1.74s-.63,.07-.85-.02-.83,.81-1.05,.74-.39-.33-.62-.39-.66,.84-.89,.79-.09-2.2-.32-2.24-.79,2.38-1.02,2.36-.34-1.13-.58-1.15-.49,.63-.72,.62-.45-.54-.68-.55-.5-1.31-.73-1.31-.44,1.23-.67,1.24-.43,.59-.67,.61-.43,.47-.66,.49-.49-.21-.72-.19-.59-1.11-.82-1.08-.47,.12-.69,.15c-.24,.03-.45,.22-.68,.24-.24,.03-.49-.14-.72-.12-.25,.02-.41,1.13-.63,1.15-.25,.01-.53-1.28-.74-1.28-.26,0-.47,.22-.68,.19-.27-.04-.06-.57-.22-.69-.17-.12-1.39,.51-1.47,.25-.06-.2,1.1-.65,1.08-.91,0-.22-1.62-.5-1.61-.75,.02-.22,1.46-.33,1.5-.58,.03-.23-1.23-.68-1.18-.92s1.34-.21,1.39-.45,.78-.28,.84-.51-1.6-.9-1.54-1.13,1.15-.17,1.22-.4,.39-.37,.46-.59-.93-.8-.86-1.02c.08-.23-.5-.69-.43-.9,.08-.24,1.55,0,1.62-.2,.09-.25,.17-.47,.24-.66,.15-.41-.29-.27,.06-.28s.67-1.42,1.01-1.31,.15,.72,.49,.83,.1,.88,.45,.99,.82-1.41,1.17-1.31,.05,1.03,.4,1.13,.07,.97,.41,1.07,.34,.11,.69,.22,.47-.3,.81-.19,.76-1.21,1.1-1.11,.29,.28,.63,.39-.05,1.35,.29,1.46,.27,.34,.61,.44,.12,.8,.47,.91,.9-1.64,1.24-1.53,.49-.36,.83-.25,.28,.32,.62,.43-.24,1.96,.1,2.07,.95-1.82,1.3-1.71,.38,0,.72,.11,0,1.2,.35,1.31,.51-.41,.85-.3,.36,.05,.71,.16,.15,.73,.49,.83,.43-.16,.77-.06-.02,1.25,.33,1.36,.57-.6,.91-.49,.2,.57,.54,.67,.94-1.79,1.29-1.68-.26,2.01,.09,2.12,.46-.24,.8-.13,.14,.77,.48,.88,.68-.96,1.03-.85,.31,.21,.66,.32,.18,.62,.53,.72,.46-.25,.8-.14,.06,1.02,.4,1.13,.97-1.88,1.32-1.77,.04,1.09,.38,1.2,.27,.33,.62,.44,.31,.2,.66,.31,.39-.04,.73,.07,.79-1.29,1.13-1.18,.22,.49,.57,.6-.05,1.37,.29,1.48,.29,.28,.64,.39,.48-.31,.82-.2,.46-.26,.8-.15,.6-.68,.94-.57,.43-.15,.78-.04,.24,.46,.58,.57-.2,1.85,.14,1.96,.29,.29,.64,.4,1.09-2.24,1.44-2.14,.11,.87,.45,.98,.55-.52,.89-.41-.12,1.6,.22,1.71,.59-.66,.94-.55,.11,1.69,.47,1.73c.4,.04,.6-1.25,.89-1.02Z"/>
  <path class="cls-7" d="M78.44,47.02c.35-.06,.17,.3,.52,.02,.16-.13-.03-.73,.17-.9,.17-.14,.73,.19,.93,.03,.17-.14,0-.72,.19-.88,.17-.15,.95,.41,1.14,.25,.18-.15,.82,.23,1.01,.07s-.98-1.82-.8-1.98,.95,.37,1.13,.21,.19-.49,.36-.65,.24-.43,.41-.59,1.28,.64,1.45,.48,.38-.32,.55-.48,.12-.57,.28-.73c.17-.18-.41-1.02-.26-1.19,.16-.19,.16-.46,.3-.64,.16-.2,1.07,.19,1.19,.01,.15-.22-.36-.77-.27-.96,.12-.25,.7-.29,.7-.48,0-.25-.89-.34-.94-.56-.05-.24-.28-.23-.37-.45s.08-.44-.04-.65,.57-.89,.44-1.09-1.06,.1-1.18-.11,1.41-1.27,1.3-1.49c-.1-.21-.78-.08-.86-.31-.07-.22,.16-.45,.1-.69-.05-.22-.96-.29-.98-.54-.02-.21,.07-.46,.08-.72,0-.22,.3-.44,.32-.69,.02-.22,.24-.43,.27-.68,.02-.23-1.14-.6-1.11-.84,.03-.23,1.39-.3,1.42-.54s-.6-.55-.57-.79-.91-.58-.88-.82,.68-.39,.71-.62,.11-.46,.13-.69,.9-.4,.92-.63-.23-.5-.21-.74-1.03-.52-1.02-.75,.76-.45,.76-.68-.3-.47-.31-.7,1.37-.56,1.36-.79-2.02-.29-2.05-.52,.09-.44,.04-.67,1.67-.86,1.61-1.08-.85-.3-.93-.52-.12-.5-.21-.71-.46-.31-.59-.51-.29-.38-.44-.56c-.14-.17-.36-.27-.55-.45-.16-.16-.75,.19-.94,.03-.17-.15-.33-.27-.52-.42-.18-.14-.08-.65-.28-.79-.19-.13-.14-.62-.34-.75s-.93,.58-1.13,.45,.58-1.83,.38-1.95-1.28,1.22-1.49,1.1-.48-.08-.68-.2,.23-1.37,.02-1.49-.48-.11-.69-.22-.89,.7-1.11,.59,.2-1.45-.01-1.55-.47-.14-.68-.24-.47-.13-.68-.23-.76,.49-.97,.39-.41-.25-.63-.34-.14-.87-.36-.97-1.08,1.32-1.3,1.22-.21-.72-.43-.81-.58,.17-.8,.08-.33-.46-.55-.54-.28-.62-.5-.7-.02-1.36-.25-1.44-.82,.88-1.05,.81-.34-.51-.56-.58-.86,1.19-1.08,1.13c-.24-.07-.35-.46-.57-.52-.24-.06-.26-.93-.48-.99-.24-.06-.53,.17-.75,.13-.25-.04-.51,.22-.72,.2-.27-.02-.41,.14-.61,.17-.21,.02-.65-1.07-.91-1-.22,.05-.19,1.06-.44,1.14-.22,.07-.87-1.07-1.11-.99-.22,.08,.23,1.94,0,2.03-.22,.09-.54-.1-.76,0s-.46,.12-.68,.22-.75-.51-.97-.41-.86-.7-1.08-.6,.52,2.2,.3,2.31-1.34-1.64-1.56-1.53,.05,1.2-.16,1.31-.88-.65-1.09-.54,.09,1.25-.12,1.36-.43,.23-.64,.34c-.22,.12-.05,.93-.26,1.04-.22,.12-.79-.42-.99-.31-.23,.12-1.14-1.03-1.33-.92-.24,.13-.32,.5-.5,.6-.39,.22-.56,.53-.71,.85s1.57,.22,1.68,.67c.05,.19-.87,.67-.8,.94,.06,.21,.12,.44,.2,.69,.06,.21-.15,.53-.08,.77,.07,.22,1.44,.03,1.52,.27,.07,.22,.14,.43,.22,.67,.07,.22-1.13,.87-1.05,1.11,.08,.22-.39,.64-.31,.87s-.06,.54,.02,.77,.18,.45,.27,.68,.94,.15,1.03,.37,.48,.32,.58,.54-.59,.77-.5,.99,.89,.14,.99,.36,.68,.21,.78,.43-1.11,1.03-1.01,1.25,.28,.4,.39,.62,.61,.24,.72,.46-.08,.58,.03,.8,1.69-.34,1.8-.13-.27,.68-.16,.89,.08,.49,.2,.7,.93,.01,1.05,.22-1.4,1.37-1.28,1.57,1.72-.48,1.85-.28-1.01,1.18-.89,1.39,.6,.19,.73,.39,.33,.36,.46,.56,.23,.42,.37,.62,1.18-.25,1.32-.06-.88,1.22-.74,1.41,1.04-.17,1.18,.02,.25,.4,.4,.59-.68,1.15-.53,1.33,1.36-.48,1.51-.3,.68,.04,.84,.22-.1,.7,.06,.88,.63,.06,.79,.24-.64,1.24-.47,1.41-.23,.9-.06,1.07,.66,.04,.83,.21,.92-.25,1.09-.08,.94-.32,1.12-.15,.4,.24,.58,.4,0,.69,.19,.85,.3,.37,.49,.52,.43,.22,.61,.37,.55,.05,.74,.2-.28,1.16-.09,1.3,1.15-.8,1.35-.66,.06,.72,.26,.86,.08,.74,.28,.87,.45,.19,.65,.31,.31,.41,.52,.53,.24,.55,.45,.66,.07,.91,.28,1.02,.54,.05,.75,.16,1.22-1.36,1.44-1.26-.38,1.94-.16,2.04,.65-.23,.87-.14,1.08-1.33,1.3-1.24-.09,1.51,.13,1.6,.5-.88,.73-.79Z"/>
  <path class="cls-6" d="M75.97,46.29c.34-.11,.59,.5,.94,.21,.16-.13-.21-.91-.01-1.1,.16-.15,.37-.25,.55-.44,.16-.17,.69,0,.85-.2,.15-.18-.19-.73-.04-.94,.14-.19,1.02,.12,1.15-.09s-.66-.94-.55-1.15,.04-.46,.14-.68,1.18-.02,1.26-.25,.18-.47,.25-.71-.54-.62-.5-.86,.21-.43,.23-.67,.79-.44,.8-.68-.06-.52-.07-.77-.9-.4-.93-.65c-.03-.25,1.15-.68,1.11-.91-.04-.25-.03-.53-.08-.77-.05-.25-1.18-.28-1.23-.51-.06-.25-.66-.33-.72-.56-.07-.25,1.45-.96,1.37-1.19-.08-.24-1.66,.05-1.74-.17-.09-.24,1.3-1.08,1.21-1.3-.1-.23-1.49,.13-1.59-.08-.11-.23-.65-.2-.76-.41-.12-.22,1.25-1.24,1.14-1.45s-1.43,.21-1.55,0,.12-.64,.02-.86,.43-.72,.34-.95-1.29-.08-1.36-.32c-.07-.23,.12-.59,.07-.84-.05-.22,1.2-.69,1.16-.95-.04-.23-1.41-.27-1.44-.52-.03-.23,.02-.49,0-.74-.03-.23,1.24-.63,1.21-.88s-1.71-.28-1.74-.52,1.38-.65,1.35-.89,.18-.52,.15-.76-1.39-.29-1.42-.53,1.37-.73,1.32-.96-.36-.45-.4-.69-.34-.45-.39-.68-1.34-.15-1.4-.39,.68-.7,.61-.93-.91-.17-1-.39,.86-.91,.75-1.12-1.09,.06-1.22-.14c-.13-.21,.79-1.21,.64-1.39s-1.38,.69-1.56,.53,.52-1.68,.3-1.79c-.19-.1-.69,.26-.93,.16-.21-.09-.51,0-.75-.08-.21-.08-.69,.64-.93,.57-.22-.07-.12-1.28-.35-1.35-.22-.06-.65,.62-.89,.56s-.63,.68-.87,.62-.31-.74-.55-.79-.36-.68-.6-.72-.39-.64-.63-.68-.6,.77-.84,.74-.58,.88-.82,.86-.34-1.4-.58-1.42-.58,1.31-.82,1.29-.41-1-.65-1.01-.47-.6-.71-.6-.5-.32-.74-.32-.51-.03-.75-.02-.39,1.96-.63,1.98-.6-1.57-.84-1.54-.34,1.33-.57,1.36-.52-.34-.76-.3-.42,.27-.65,.32-.67-.71-.9-.65-.67-.41-.89-.33-.44,.37-.66,.46-.52,.18-.73,.29-.08,.91-.28,1.04-1.03-.53-1.22-.38,.66,1.5,.49,1.67c-.17,.17-.36,.12-.44,.35-.08,.21,.56,.41,.54,.67-.02,.22-1.84,.46-1.82,.72,.02,.23,.68,.43,.73,.68,.05,.23-.18,.55-.11,.8,.06,.22,.98,.19,1.06,.43,.08,.22-.59,.72-.5,.95,.09,.22,1.47-.1,1.57,.13s-1.36,1.13-1.26,1.36,1.77-.33,1.88-.11-.34,.69-.22,.91-.66,.9-.55,1.11,1.17-.1,1.29,.11,.72,.12,.85,.33,0,.55,.12,.76-1.07,1.22-.94,1.43,1.78-.55,1.91-.35-1.18,1.33-1.04,1.53,1.62-.49,1.75-.29-.73,1.07-.59,1.27,1.35-.34,1.49-.14-1.38,1.56-1.24,1.76,.26,.42,.4,.61,1.2-.27,1.34-.07-.52,.98-.37,1.18,.54,.21,.68,.4,1.14-.26,1.29-.06,.28,.39,.43,.59,.65,.1,.8,.29-.57,1.07-.42,1.26,1.13-.29,1.28-.1-.99,1.43-.84,1.62,1.36-.49,1.52-.3-.51,1.06-.35,1.24,1.36-.51,1.51-.33-.43,1-.27,1.19-.05,.7,.11,.88,.27,.42,.43,.6,.7,.03,.86,.21,.8-.07,.97,.1-.26,.91-.1,1.09,1.16-.43,1.33-.25,.04,.63,.21,.8,.69,0,.86,.17,.03,.65,.2,.82,.19,.5,.36,.67,.69-.02,.86,.14-.07,.78,.11,.94,.22,.49,.39,.65,1-.41,1.18-.26c.19,.16-.79,1.72-.61,1.87,.19,.16,.73-.1,.92,.04,.2,.15,.42,.29,.61,.42,.21,.15,1.06-.7,1.25-.58,.22,.14-.29,1.49-.09,1.59,.23,.12,1.05-1.14,1.25-1.07,.26,.09,.09,.57,.3,.58Z"/>
  <path class="cls-8" d="M87.2,37.22c.36-.03,.29,.31,.74,.27,.2-.01,.47,.29,.73,.29,.22,0,.41,1.02,.67,1.04,.23,0,.44-.34,.68-.31,.23,.03,.53-.55,.77-.5s.32,.61,.55,.67,.67-.58,.89-.49,.82-.5,1.03-.39-.31,1.47-.12,1.61,1.41-.88,1.59-.71c.17,.17,.41,.57,.54,.77s.45,.52,.54,.74-1.08,.9-1.02,1.13,.12,.43,.15,.67,.93,.42,.94,.65-.7,.5-.7,.73,1.01,.53,.99,.77-1.63,.36-1.65,.59,1.34,.61,1.32,.84,.19,.5,.16,.73c-.03,.24-.04,.46-.06,.69-.02,.25-1.54,.37-1.55,.59-.01,.25,1.24,.45,1.25,.67,.02,.26-1.1,.66-1.04,.85,.07,.2,1.06-.03,1.18,.19,.11,.19-.69,.96-.55,1.16,.12,.18,.85-.04,.99,.16,.13,.18-.97,1.22-.83,1.42s.99-.14,1.12,.06,.52,.21,.64,.42,.94,.07,1.04,.29-.78,.85-.71,1.07,1.64,.04,1.7,.27-1.57,.81-1.54,1.04,.83,.4,.83,.64-.42,.46-.44,.69c-.03,.22-.16,.43-.21,.66-.05,.22,.73,.71,.65,.94-.07,.21-.46,.37-.56,.59-.11,.24-1.05,.1-1.15,.32-.11,.24-.71,.25-.81,.47-.11,.24,.6,.83,.5,1.05-.11,.25-.5,.34-.6,.55-.11,.25,.45,.79,.35,1-.12,.24,.32,.77,.21,.97-.13,.24-.99,.07-1.11,.27-.14,.22-.98-.1-1.13,.09s-.38,.2-.56,.39c-.16,.17,.26,.89,.07,1.07-.17,.16,.18,.92-.02,1.1-.18,.16-.15,.87-.38,1.01-.2,.12-1.49-1.7-1.72-1.59-.21,.1-.5-.09-.73,0-.22,.09,.36,2.24,.12,2.33s-.58-.13-.82-.05-.39,.37-.62,.46-.37,.39-.6,.48-.77-.64-1-.54-.97-.91-1.2-.8-.16,.87-.38,.99-.2,.65-.4,.79,.3,1.07,.12,1.23-1.41-.76-1.57-.57-1.2-.03-1.33,.19c-.11,.19,1.5,1.4,1.36,1.61-.12,.19-1.75-.61-1.89-.41-.13,.19,1.6,1.72,1.46,1.92-.14,.19-1.04-.18-1.19,.01s.32,.88,.16,1.07-.8-.04-.96,.14-1.49-.72-1.65-.54-.26,.37-.43,.54,.94,1.58,.77,1.75-.5,.18-.67,.34-.33,.36-.51,.52-.9-.31-1.09-.16,.6,1.49,.42,1.64-1.84-1.59-2.03-1.44,1.12,2.33,.93,2.47-1.85-1.86-2.05-1.73,.92,2.33,.72,2.45-.77-.3-.98-.19-1.04-.95-1.25-.85-.24,.53-.46,.62-.53-.12-.75-.04-.39,.19-.62,.26c-.22,.07,0,1.74-.24,1.8-.23,.06-.58-.26-.82-.22s-.71-1.26-.95-1.22-.37,.58-.62,.62-.31,1.53-.55,1.56-.52-.21-.76-.2-.52-.52-.76-.51-.52-1.22-.76-1.22-.45,1.22-.69,1.22-.47-1.5-.71-1.51-.47,.43-.71,.42-.52,1.21-.76,1.19-.45-.61-.69-.63-.55,.8-.79,.78-.51,.14-.75,.12-.46-.31-.7-.34-.58,.63-.82,.59-.35-1.06-.59-1.1-.34-.9-.57-.95-.47-.07-.7-.12-.72,1.08-.95,1.03-.35-.67-.58-.72-.26-.89-.49-.96-.89,1.29-1.11,1.22-.14-1.14-.36-1.22c-.23-.08-.99,1.17-1.21,1.09-.23-.09-.15-.97-.36-1.07-.22-.11,.91-.74,.72-.86-.06-.35-.17,.65,.1,.27,.12-.16-.07-.59,.09-.82,.13-.17-.82-1.16-.67-1.37,.13-.18,.8,.01,.95-.19,.13-.18-.29-.79-.14-.99,.14-.18,1.2,.3,1.35,.1,.14-.19,.47-.24,.61-.44,.14-.19-1.31-1.55-1.16-1.74s1.32,.39,1.46,.19-.36-.85-.22-1.05,.09-.52,.23-.72,.77-.02,.91-.22,.27-.39,.42-.59,.4-.29,.54-.48,.23-.41,.37-.61-.32-.83-.18-1.02,.42-.28,.56-.47,1.47,.51,1.61,.32-.81-1.2-.67-1.39,1.58,.59,1.72,.4-.13-.69,.02-.88,1.14,.27,1.29,.08-1.7-1.88-1.55-2.07,2.22,1.08,2.37,.89-1.06-1.4-.91-1.59,.45-.25,.6-.45-.17-.73-.03-.92,.05-.56,.2-.75,1.21,.32,1.35,.13,.84,.04,.98-.15-.82-1.23-.67-1.42,.79,0,.93-.19,.56-.17,.71-.36-.36-.88-.22-1.07,1.03,.2,1.18,0-1.09-1.46-.95-1.65,.78,0,.93-.19,.72-.05,.87-.24,.19-.46,.34-.65,.85,.05,.99-.14,.06-.56,.21-.75-.19-.77-.04-.96-.34-.89-.19-1.07,2.06,1.03,2.21,.84-.07-.67,.08-.86,.47-.24,.62-.43,.58-.15,.73-.34-.21-.79-.06-.98-.84-1.31-.69-1.49,1.14,.3,1.29,.12-.12-.73,.03-.91,.72-.04,.87-.22-.46-1.01-.3-1.19,.43-.27,.58-.46,.86,.09,1.02-.09,1.1,.3,1.26,.12-.45-1.02-.3-1.2-.36-.95-.21-1.13,.25-.43,.4-.61,.7-.03,.86-.21,.2-.47,.36-.65,.53-.17,.69-.35,1.1,.34,1.26,.17-.03-.67,.13-.85-.49-1.12-.33-1.29,1.21,.48,1.38,.32,1.04,.35,1.2,.18c.17-.17,.02-.65,.18-.81,.18-.17-.58-1.3-.42-1.46,.18-.17,.41-.29,.58-.44,.19-.17,.4-.31,.58-.46,.19-.16,1.11,.59,1.29,.45,.2-.16-.12-.99,.06-1.11,.22-.15,.02-1.23,.21-1.31,.27-.12,.98,.31,1.17,.32Z"/>
  <path class="cls-6" d="M82.5,44.15c.34,.1,.03,.41,.39,.66,.16,.11,.66-.16,.87,0,.17,.13-.1,.83,.09,.99,.17,.14,.71-.13,.89,.04,.17,.15,.03,.62,.2,.79,.16,.16,.37,.26,.53,.44s.71,.02,.86,.2,0,.58,.13,.78-.07,.58,.05,.78,.52,.22,.63,.43,.3,.37,.38,.59,.31,.39,.38,.62,.43,.4,.48,.63-.81,.59-.78,.83,.49,.41,.49,.65-.05,.46-.07,.7-.06,.45-.1,.69,.33,.56,.27,.79-.27,.43-.35,.66-.35,.37-.45,.59c-.09,.22,.13,.59,.03,.8s-1.02,0-1.14,.2-.23,.38-.35,.59,.67,.97,.54,1.17-.78,.05-.91,.24-.07,.53-.22,.72-.63,.1-.78,.28,.14,.74-.02,.92-.62,.08-.78,.25-.45,.22-.61,.38-.43,.22-.6,.38-.21,.47-.38,.62,.17,.94,0,1.09-.56,.08-.74,.22-.4,.28-.58,.42c-.2,.14-.59,0-.78,.13-.2,.14-.44,.2-.63,.33-.21,.13-.02,.87-.21,.99-.21,.13-.58,0-.77,.11-.22,.13-.52,.1-.71,.2-.24,.13-.41,.31-.59,.4-.4,.2-.24-.25-.57-.34s-.77,.87-1.09,.7-.17-.44-.48-.62-.31-.18-.63-.35,.03-.81-.28-.98-.36-.1-.67-.28-.64,.42-.96,.25-.45,.07-.77-.1-.23-.34-.54-.52-.36-.09-.68-.27,.21-1.12-.11-1.3-.39-.04-.71-.21-.22-.35-.54-.52-.86,.81-1.18,.63-.06-.64-.38-.82-.64,.12-.88-.15,.39-.46,.58-.87c.09-.18,.32-.33,.44-.57,.1-.19-.28-.64-.16-.87,.1-.2,.39-.32,.5-.54,.1-.2,.37-.33,.48-.55,.11-.2-.16-.62-.05-.83,.11-.2,.79-.1,.91-.31,.11-.2,.23-.4,.35-.61s.34-.34,.46-.54-.08-.59,.04-.8,.22-.42,.34-.62,.58-.19,.71-.39,.18-.44,.31-.64,.36-.32,.49-.52-.53-.94-.39-1.13,.93,.07,1.07-.12-.18-.72-.03-.91,.68-.09,.82-.28,.25-.41,.4-.59,.06-.57,.21-.75,.03-.62,.18-.79,.74,.01,.9-.16,.78,.09,.94-.08,.05-.62,.22-.78,.28-.39,.46-.55,.32-.36,.5-.51,.17-.57,.36-.71,.68,.13,.87,0,.33-.37,.53-.48,.45-.15,.66-.25,.2-.84,.42-.92,.58,.14,.81,.08,.54,.34,.78,.32,.46-.22,.69-.21Z"/>
  <path class="cls-7" d="M3.22,58.24c.11,.2,1.37-.19,1.49,.02,.12,.2-.27,.75-.13,.96,.13,.19-.86,1.25-.71,1.45,.14,.19,1.91-.82,2.06-.63s-1.23,1.65-1.07,1.84,1.34-.48,1.5-.3,1.85-1.03,2.01-.85,.44,.2,.61,.37-1.82,2.45-1.65,2.62,.68,.02,.85,.19,1.39-.76,1.57-.59-.2,.92-.02,1.08-.63,1.43-.45,1.59,1.87-1.4,2.06-1.24,1.32-.82,1.5-.67-.84,1.72-.65,1.87-.08,.85,.11,1,.08,.68,.27,.83-.04,.85,.15,1,1.59-1.27,1.78-1.13-.11,.94,.08,1.09,.17,.59,.36,.74,1.7-1.54,1.9-1.4-.88,2.07-.68,2.2,1.71-1.63,1.91-1.49-.55,1.65-.35,1.79-.08,.99,.13,1.13,1.2-.95,1.41-.81c.2,.13-.98,2.41-.78,2.54s1.16-.94,1.37-.81,.84-.45,1.04-.33-.26,1.36-.06,1.49,2.06-2.55,2.26-2.43-1.57,3.65-1.36,3.77,.62-.09,.82,.03,2.07-2.74,2.28-2.63-1.54,3.82-1.33,3.94,1.72-2.21,1.94-2.1,.81-.55,1.02-.44,.23,.57,.44,.67,.89-.77,1.11-.66,0,1.05,.22,1.15,.41,.21,.63,.31,.1,.91,.32,1,.37,.34,.59,.43,.11,.96,.33,1.05,1.54-2.48,1.76-2.39-.7,2.97-.48,3.06,1.37-2.22,1.6-2.14,.25,.63,.48,.71,.47,.07,.69,.15-.65,3.32-.42,3.4,1.33-2.46,1.56-2.39-.29,2.52-.06,2.59,.83-1.03,1.05-.96,.52-.06,.75,0,.9-1.55,1.13-1.49,.35,.49,.58,.55,.24,1.03,.47,1.08,.52-.15,.75-.11,.15,1.78,.38,1.82,.62-.66,.85-.62,.84-2.44,1.08-2.4,0,3.64,.24,3.67,.53-.1,.76-.08,.5,.21,.74,.23,.69-3.83,.93-3.82,.4,.91,.63,.91c.25,0,.47,.75,.71,.76s.49,.24,.73,.23,.53,1.21,.77,1.2,.56,.81,.8,.8,.46-1,.69-1.01,.6,.81,.84,.79,.27-2.08,.51-2.11,.5,.06,.74,.03,.16-1.78,.4-1.82,1.23,3.58,1.47,3.53,.53-.16,.76-.22-.6-3.96-.37-4.03,1.84,4.1,2.06,4.02-.32-2.43-.1-2.51,1.29,1.69,1.51,1.59,.46-.38,.68-.49-1.51-3.8-1.3-3.92,.61,.26,.81,.13,1.53,1.44,1.72,1.3,1.33,.85,1.52,.7,.08-.79,.25-.94-.58-1.39-.41-1.55,1.03,.32,1.19,.14-1.46-2.01-1.3-2.19,.55-.13,.71-.31,3,1.94,3.15,1.76-2.21-2.58-2.06-2.75,.78,0,.94-.17-.76-1.62-.59-1.78,2.46,2.1,2.65,1.96,.46,.1,.67-.02-.37-1.85-.14-1.94c.33-.12-.1-.88,.32-1.05,.19-.08,1.7,2.98,1.96,2.88,.2-.08,.38-.29,.62-.39,.21-.09,.26-.58,.49-.68,.21-.09,.38-.32,.6-.42,.21-.09-.71-2.78-.49-2.88,.21-.09,.21-.66,.43-.76s.45-.12,.67-.22,1.25,1.59,1.47,1.49-.37-1.87-.15-1.98,1.68,2.41,1.89,2.3,.62,.17,.84,.06,.66,.22,.88,.11-.64-2.33-.43-2.44,1.58,1.96,1.79,1.85-.57-2.11-.36-2.22,1.39,1.49,1.59,1.38c.22-.12-1.29-3.26-1.09-3.38s2.25,2.81,2.45,2.69,.47-.27,.67-.39,.67,.02,.87-.11-2.09-3.87-1.89-4.01c.21-.15,2.52,2.53,2.7,2.38,.2-.16-1.47-2.54-1.29-2.7,.19-.17,2.03,1.41,2.19,1.24,.18-.19,.32-.56,.46-.75,.16-.22-1.8-1.48-1.72-1.69,.1-.25,1.33,.05,1.3-.18s1.6-1.89,1.42-2.1c-.16-.18-2.62,2.34-2.84,2.23s.64-3.11,.4-3.16c-.22-.05-.87,1.99-1.12,1.98-.23-.01-.58-2.29-.83-2.28-.23,.02,.01,4.14-.23,4.18-.23,.04-.55-.93-.79-.88-.23,.05-1.15-2.64-1.39-2.58s-.06,1.61-.29,1.68-.56-.16-.79-.08,.26,2.08,.03,2.16-.43,.11-.66,.2-1.82-3.17-2.04-3.07,.39,2.17,.17,2.27-1.41-1.97-1.63-1.87,1.36,4.14,1.14,4.24-1.75-2.61-1.97-2.51-.37,.38-.58,.48,.83,2.83,.62,2.94-.95-.85-1.17-.74-1.28-1.51-1.5-1.4-.55,0-.76,.1-.41,.27-.62,.37-.75-.46-.96-.36c-.22,.11,1.23,3.75,1.02,3.85-.23,.11-1.89-2.96-2.1-2.87-.23,.1,.49,2.42,.29,2.5-.25,.1-1.05-1.41-1.25-1.34-.28,.09-.21,1.82-.39,1.84-.24,.01-.14,1.24-.37,1.29s-.81-1.91-1.04-1.85-.05,1.4-.27,1.47-1.42-3.01-1.65-2.94c-.22,.07-.34,.36-.57,.43-.22,.06-.56-.55-.79-.49-.22,.06,.04,1.95-.2,2-.22,.05-.34,.67-.58,.7-.22,.03-.32,1.57-.56,1.59-.22,.02-.62-1.45-.86-1.44-.23,.01-.47-.69-.71-.69-.23,0-.55,2.65-.79,2.64-.23,0-.56,.11-.8,.09-.23-.02-.34-1.76-.58-1.79-.23-.03-.1-2.5-.34-2.53-.23-.03-1.1,3.68-1.34,3.63-.22-.04-.33-.59-.57-.63-.23-.04-.41-.3-.65-.33-.23-.03-.14-2.56-.38-2.59-.23-.03-.83,2.96-1.08,2.93s-.29-1.64-.53-1.67-.31-1.62-.55-1.64-.73,2.57-.98,2.54-.28-2.08-.52-2.1-.43-.59-.67-.61-.66,2.01-.9,1.99-.26-2.44-.5-2.46-.77,3.44-1.01,3.42-.17-3.61-.41-3.63-.76,3.4-1,3.38-.2-3.3-.44-3.32-.65,2.02-.88,2-.53,.56-.77,.54-.28-2.39-.52-2.41-.63,1.78-.87,1.76-.63,1.66-.87,1.64-.26-2.54-.5-2.57-.53,.53-.77,.51-.49,.07-.73,.05-.53,.47-.77,.44-.32-1.64-.56-1.67-.6,1.09-.84,1.07-.42-.67-.65-.69-.53,.39-.77,.36-.75,2.09-.99,2.07-.42-.65-.66-.68-.06-3.18-.29-3.22-.88,2.69-1.11,2.66-.17-2.09-.4-2.12-.66,1-.89,.96-.18-1.66-.41-1.7c-.24-.05-.27-.93-.5-.98-.24-.05-.74,1.24-.97,1.18-.24-.06-.8,1.14-1.02,1.08-.24-.07-.19-1.09-.4-1.16-.24-.08-.57,.15-.77,.07-.21-.08-.86,.92-1.1,.82-.21-.08-.37-.31-.6-.4-.21-.09,.31-2,.08-2.09-.21-.09-1.25,1.83-1.48,1.74s-.63,.28-.86,.18-.41-.28-.63-.37,.19-1.63-.03-1.73,.57-2.41,.36-2.51-.77,.61-.99,.51-1.9,2.91-2.11,2.81,1.11-3.37,.9-3.47-.78,.54-.99,.43-1.79,2.38-2,2.27,.3-1.6,.09-1.71,.84-2.43,.64-2.55-1.55,1.72-1.76,1.6-1.2,.98-1.4,.85-.03-.89-.23-1.03,1.55-3.07,1.35-3.2-.82,.41-1.01,.26-.76,.27-.95,.12-.8,.24-.98,.09,.28-1,.1-1.16,.27-.88,.1-1.05-2.87,2.11-3.03,1.93,.73-1.34,.58-1.52,.1-.68-.04-.87,.27-.73,.14-.93-.99,.08-1.11-.12,.27-.65,.17-.86,.61-.69,.52-.91-2.53,.37-2.6,.14-.66-.44-.7-.67,.07-.62,.05-.86-.68-.57-.69-.81,1.64-.55,1.65-.79,2.62-.15,2.65-.38c.03-.25-1.01-.56-.97-.79,.05-.25-.57-.59-.51-.81,.07-.24-.71-.78-.62-1,.1-.23-1.25-1.34-1.13-1.54,.12-.22,2.28,.75,2.42,.56,.15-.2,1.84,1.24,2.01,1.07s-.34-.68-.14-.82-.74-2-.53-2.11,.59,.06,.82-.01,.21-1.39,.45-1.44,.56-.57,.8-.6,.64-.08,.88-.08,.57,1.06,.81,1.07,.69-1.4,.93-1.37,.52,.6,.75,.64-.04,2.87,.2,2.92,.83-1.41,1.06-1.35-.21,2.46,0,2.53c.24,.07,1.37-2.68,1.59-2.6,.25,.08,.49,.22,.7,.3,.26,.1-.22,1.93-.03,2.01,.41,.17,2.12-.06,2.17-.41s-2.86-.14-2.94-.49,.05,.02-.11-.31,.9,.12,.48-.06c-.19-.08,.72-3.03,.46-3.13-.21-.08-.9,.94-1.14,.86-.22-.08-.38-.48-.63-.55-.23-.07-1.28,2.72-1.52,2.65s.12-2.4-.12-2.45-.41-.63-.65-.67-.73,1.39-.97,1.36-.56,1.29-.8,1.28-.37-2.2-.61-2.2-.5,.33-.74,.35-.55-.24-.79-.2-.43,.41-.67,.48-.12,.91-.35,1.01c-.21,.1-1.46-1.65-1.67-1.52-.2,.12,.34,1.44,.15,1.59-.18,.14,.25,.96,.07,1.13s-2.71-1.97-2.88-1.79,2.27,2.65,2.12,2.84-.61,.06-.75,.26,.5,.82,.38,1.03-2.37-.84-2.48-.62,.79,.95,.69,1.17-.43,.33-.52,.55,.63,.72,.56,.95-2.9-.37-2.96-.13-.49,.49-.54,.73,1.4,.85,1.36,1.09,.26,.56,.23,.8-.02,.5-.04,.75-1.43,.49-1.43,.73,3.94,.4,3.95,.65-2.69,.63-2.66,.87,2.33,.17,2.37,.41-2.6,.93-2.55,1.17,2.63-.12,2.69,.11,.24,.35,.31,.58-2.2,1.22-2.12,1.45,2.7-.57,2.79-.34,.37,.26,.47,.48-2.94,1.98-2.82,2.2Z"/>
  <path class="cls-9" d="M20.29,70.85c.2,.13-.7,.35-.5,.48s.03,.85,.23,.97,.94-.63,1.14-.5-.5,1.74-.29,1.87,.24,.54,.45,.66,1.37-1.4,1.57-1.28,.96-.75,1.17-.63-.61,2.06-.4,2.17,.59-.09,.8,.03,.04,.94,.25,1.05,.71-.32,.92-.21,.41,.26,.62,.37,.15,.79,.36,.89,.84-.63,1.06-.53,.83-.66,1.05-.56,.28,.51,.5,.61,.39,.28,.61,.38-.2,1.68,.02,1.77,.94-.99,1.16-.9,.15,.9,.37,.99,.31,.54,.53,.62,.34,.49,.56,.58,1.02-1.4,1.25-1.32,.19,.9,.42,.98,.94-1.31,1.16-1.24-.32,2.61-.1,2.68,.78-.87,1-.8,.39,.41,.62,.48,.82-1.2,1.05-1.14-.04,2.17,.19,2.23,1.16-2.86,1.39-2.81,.21,1.23,.44,1.28,.24,1.28,.48,1.32,.82-1.92,1.05-1.88,.19,1.85,.43,1.88,.51-.09,.74-.06,.64-1.53,.87-1.51,.37,1.08,.61,1.1,.4,1.69,.63,1.7,.57-2.65,.8-2.65c.25,0,.47,2.42,.71,2.42s.51-.36,.75-.37,.46-1.48,.7-1.49,.54,1.08,.78,1.07,.39-1.48,.63-1.49,.48,0,.72-.02,.34-1.04,.58-1.07,.5,.33,.74,.29,.56,.54,.8,.5,.3-.81,.54-.86,1.12,2.57,1.35,2.51,.51-.2,.73-.27-.24-2.37-.01-2.45,1.35,2.21,1.57,2.12,.29-.73,.51-.82,.6,0,.81-.11,.6-.05,.81-.17-.59-1.97-.39-2.09,1.63,1.47,1.82,1.34-.03-.95,.16-1.1,.26-.5,.44-.66-1.04-1.82-.87-1.99,.47-.15,.64-.32,.27-.36,.43-.54,.85,.12,1.01-.06,.19-.48,.35-.66,1.53,.68,1.68,.5-.3-.92-.13-1.09,1.03,.4,1.21,.24-1.19-2.24-.99-2.38,1.5,1.31,1.71,1.19,.39-.13,.62-.21c.33-.12-.51-1.97-.09-2.14,.19-.08,1.62,2.79,1.88,2.68,.2-.08,.15-.84,.38-.94,.21-.09,.33-.42,.56-.52,.21-.09-.08-1.37,.14-1.47,.21-.09,.06-1.01,.28-1.11,.21-.09,1.4,1.98,1.62,1.88s-.23-1.64,0-1.74,.97,.97,1.19,.86-.51-2.19-.3-2.3,1.3,1.63,1.52,1.53-.49-2.07-.27-2.18,1.44,1.82,1.65,1.71-.22-1.49,0-1.6,.11-.8,.32-.91,1.42,1.64,1.63,1.52,.73-.64,.93-.76c-.14-.15-1.98,.79-2.2,.6-.17-.14,.52-1.32,.3-1.47-.19-.13-.14-.7-.37-.82-.21-.11-.16-.99-.4-1.08-.22-.09-.63,.03-.87-.04-.23-.06-.81,1.48-1.06,1.44-.24-.04-.42,.27-.67,.25-.24-.01-.43-1.28-.69-1.27-.24,.01-.53-.24-.79-.2-.23,.03-.35,.71-.59,.78-.22,.06-.66-.45-.89-.36-.22,.08,.28,1.75,.06,1.86-.21,.1-1.17-1.29-1.39-1.18s.54,1.86,.33,1.98-.72-.33-.93-.19-.54,.03-.74,.16-1.35-1.1-1.55-.96,.53,1.59,.34,1.73-.89-.42-1.09-.28,.66,1.71,.47,1.86-1.19-.81-1.38-.66-1.37-1.07-1.57-.93,1.12,2.38,.92,2.52-.71-.15-.91-.01-.91-.47-1.11-.33-.11,.7-.32,.83-.5,.12-.71,.24-.93-.64-1.14-.52,.33,1.57,.12,1.68-1.28-1.47-1.49-1.37,.48,2.16,.26,2.26-1-1.2-1.22-1.11,.1,1.85-.13,1.92-1.03-2.06-1.26-2.01-.34,.3-.58,.33c-.23,.03-.34,.98-.58,1s-.37,1.8-.62,1.81-.59-3.07-.83-3.07-.45,2.49-.69,2.48-.45-1.55-.69-1.56-.52,1.12-.77,1.11-.49,.04-.73,.03-.45-.42-.68-.44-.33-1.46-.56-1.49-.61,1.29-.85,1.26-.54,.48-.78,.45-.2-2.07-.43-2.1-.54,.5-.78,.47-.82,2.14-1.05,2.1-.48-.08-.72-.12-.28-1.23-.52-1.27-.2-1.62-.43-1.66-.41-.38-.65-.42-.43-.26-.67-.31-.63,.78-.87,.73-.33-.81-.56-.86-1.02,2.71-1.26,2.67-.1-1.97-.34-2.01-.38-.56-.61-.6-.76,1.34-.99,1.29-.36-.67-.59-.71-.28-1.07-.52-1.11-.79,1.53-1.03,1.49-.1-2.05-.33-2.1-.83,1.81-1.07,1.76-.38-.59-.61-.63-.77,1.64-1,1.6-.03-2.71-.26-2.75-.48-.11-.71-.14-.64,1.01-.87,.97-.51,.2-.74,.17-.41-.69-.64-.72c-.24-.02-.44-.85-.67-.86-.24-.02-.57,1.73-.8,1.72-.25,0-.45-.21-.68-.21-.21,0-.51-1.42-.77-1.41-.22,.01-.48,.06-.73,.08-.23,.02-.32,1.69-.56,1.71s-.75-2.25-.99-2.22-.5,.22-.73,.26-.5,.26-.73,.3-.09,1.81-.31,1.87c-.24,.06-.26,.58-.47,.66-.24,.09-.22,.32-.41,.42-.23,.13,.25-1.01,.11-.85Z"/>
  <path class="cls-5" d="M61.19,65.69c-.09,.34,.11,.29,.56,.27,.2,0,.42-.35,.69-.38,.21-.02,.43-.17,.68-.2,.22-.03,.59,.74,.84,.7,.22-.04,.26-1.06,.5-1.12,.22-.05,.5,.13,.74,.06,.22-.06,.48-.03,.71-.1s.67,.49,.9,.4,.26-.7,.48-.79,.48-.1,.7-.2,.61,.14,.82,.03,.24-.59,.45-.71,.53-.05,.74-.18,.31-.42,.5-.56,.18-.56,.37-.71,.33-.34,.51-.49,.48-.16,.66-.32,.63-.04,.8-.21,.23-.46,.39-.63-.29-.88-.14-1.06,.71-.02,.86-.21c.15-.19,0-.58,.15-.78s.96,.05,1.08-.15,.27-.42,.39-.63-.23-.68-.12-.9,.12-.47,.22-.69,.7-.22,.79-.44,.26-.43,.34-.66,.23-.45,.31-.68-.92-.8-.86-1.03,.47-.36,.53-.59,.5-.37,.55-.61,.05-.49,.09-.72-.41-.57-.37-.8,.38-.42,.42-.66-.49-.54-.46-.78,.18-.45,.2-.69,.21-.46,.23-.7,.02-.48,.03-.71c.01-.25,.43-.47,.44-.7,0-.25,.28-.49,.28-.72,0-.25,.17-.5,.17-.73,0-.25-.37-.49-.38-.72,0-.26,.43-.53,.42-.75-.02-.28-.7-.47-.72-.67-.04-.45,.35-.91,.07-.7s-.15,.33-.36,.63-.51,.08-.72,.38-.18,.32-.38,.61,.36,.7,.15,.99-1.16-.38-1.37-.09,.15,.55-.05,.84-.39,.16-.6,.46-.21,.29-.42,.59-.17,.32-.38,.61,.58,.85,.37,1.15-.83-.14-1.04,.15-.52,.08-.72,.37-.07,.39-.28,.68-.14,.34-.35,.64,.08,.5-.13,.79-.5,.09-.71,.38-.14,.34-.35,.64,.59,.86,.38,1.16-.35,.19-.56,.49-.88-.18-1.08,.11,.38,.71,.17,1-.31,.22-.52,.51,.08,.49-.13,.79-.56,.04-.77,.34-.95-.23-1.16,.06,.91,1.09,.7,1.39-1.3-.48-1.51-.18,.67,.92,.46,1.21-.73-.07-.94,.22,.45,.77,.24,1.06-.8-.12-1.01,.17-.06,.4-.27,.7-.26,.26-.47,.56-.24,.27-.45,.57,.2,.59,0,.88-.26,.26-.47,.55-.62,0-.84,.3,.32,.67,.11,.97-.15,.32-.35,.63-.66-.04-.76,.31Z"/>
  <path class="cls-2" d="M76,34.94c.18-.32,.55-.18,.6-.63,.02-.21-.61-.52-.59-.79,.02-.22,.02-.46,.04-.72,.02-.23,.22-.46,.24-.71,.01-.24,.18-.47,.19-.72s-.44-.5-.44-.74,.63-.48,.63-.72-.03-.49-.03-.74-.73-.46-.75-.71,.29-.5,.27-.74,.6-.57,.57-.81c-.03-.25-.17-.5-.22-.74-.05-.25-.52-.41-.58-.63-.07-.25-.42-.35-.52-.56-.11-.24,.22-.73,.07-.89-.16-.18-.82,.11-.98-.07s.35-.98,.19-1.15-.95,.29-1.12,.13c-.18-.17-.03-.67-.21-.81-.19-.15-.17-.65-.36-.77-.21-.13-.77,.47-.98,.4-.23-.08-.34-.2-.57-.19s-.38-.01-.59,.12c-.18,.11-.61-.02-.78,.19-.13,.16,.27,.7,.15,.93-.11,.2-.51,.26-.62,.5-.1,.21-.51,.31-.6,.55-.09,.22,.54,.72,.45,.96s-.74,.25-.82,.49-.2,.45-.27,.69,.08,.54,0,.78,.15,.56,.08,.79-.42,.4-.48,.63,.08,.54,.02,.77c-.07,.25-.08,.5-.14,.73-.07,.26-.72,.35-.77,.57-.07,.27-.05,.54-.09,.74-.11,.45-.31,.44,.05,.51s.36,.15,.57-.21c.1-.18,.13-.43,.27-.64,.13-.19,.44-.23,.59-.42s.31-.29,.47-.46c.17-.18-.28-1.09-.1-1.22,.21-.14,.71,.25,.93,.23s.44-.06,.65,.1c.16,.12,.34,.28,.48,.52,.11,.19,.16,.44,.27,.67,.1,.21,.14,.45,.23,.68,.09,.22,.31,.39,.39,.62s.11,.47,.19,.7,.23,.43,.3,.66,.09,.48,.16,.71,.08,.48,.14,.71,.59,.36,.64,.59-.52,.62-.47,.85c.06,.25,.16,.47,.2,.7,.05,.25-.27,.56-.22,.78,.05,.27,.94,.34,.98,.54,.08,.44-.39,1.23-.09,1.04s.33-.33,.55-.62-.37-.73-.15-1.02,.38-.17,.6-.46,.68,.06,.9-.22-.14-.56,.07-.86,.22-.28,.4-.59Z"/>
  <path class="cls-6" d="M18.68,42.77c-.23-.29,.34-1.37-.09-1.53-.19-.07-1.01,1.45-1.27,1.36-.21-.07,.16-2-.09-2.08-.22-.07-.68,.52-.92,.45-.23-.07-.84,1.25-1.08,1.19s-.02-1.96-.27-2.01-.53,0-.77-.05-.48-.37-.72-.41-.78,2.17-1.03,2.14-.47,.53-.71,.52-.42-2.72-.66-2.72-.61-.19-.85-.17-.68-.16-.91-.12,.36,3.39,.13,3.46-.74-.98-.96-.87,.2,.87,0,1.02-.5-.18-.66,0-1.57-.51-1.69-.29c-.11,.2-.14,.47-.25,.69-.1,.21,1.6,1.22,1.5,1.44s-3.1-.71-3.18-.48-.13,.56-.2,.79-.15,.56-.21,.8,2.16,.93,2.13,1.17-1.24,.33-1.26,.57,.33,.51,.33,.76,.83,.41,.85,.66,1.05,.24,1.09,.48-1.51,.74-1.44,.97-.14,.54-.06,.77-1.15,1.04-1.05,1.27,1.8-.29,1.91-.07,1.27-.24,1.4-.04-.76,1.02-.62,1.22,1.14-.32,1.29-.13-1.83,2.18-1.66,2.36,.31,.46,.49,.63,1.22-.51,1.4-.35,.83-.21,1.01-.06,.62-.03,.81,.12,.36,.27,.55,.42-.88,2.03-.68,2.17,1.27-.98,1.47-.85,1.26-1.12,1.47-.99,.22,.48,.43,.6,.39,.21,.6,.33-1,2.77-.78,2.88,1.85-2.48,2.06-2.36,.08,.83,.3,.94,.56-.11,.78,0-.15,1.43,.07,1.53,.32,.44,.55,.54-.06,1.36,.16,1.45,1.48-2.3,1.71-2.21-.33,2.07-.11,2.16,1.1-1.5,1.32-1.42,.15,.92,.38,1,.54-.1,.77-.02-.19,1.96,.04,2.04,1.08-1.66,1.31-1.58,.18,.97,.41,1.05,.68-.55,.91-.48,.19,.98,.42,1.05,.77-.89,1.01-.82,.56-.23,.8-.16-.02,1.77,.21,1.84,.73-.79,.96-.72,.44,.19,.68,.25,.66-.69,.9-.62c.35,.08,.09,.7,.55,.79,.2,.04,.35,.56,.62,.61,.21,.04,.72-1.4,.98-1.35,.22,.04,.43,.24,.68,.28,.23,.04,.05,2.47,.3,2.51,.23,.04,.9-2.48,1.15-2.44,.23,.04,.42,.35,.66,.39,.23,.04,.45,.16,.69,.2s.2,1.81,.44,1.85,.87-2.56,1.11-2.52,.44,.21,.69,.25,.32,1.07,.57,1.1,.21,1.96,.45,1.99,.53-.33,.77-.3,.81-2.56,1.06-2.53,.4,.63,.64,.66,.38,.77,.62,.8,.31,1.45,.55,1.47,.64-1.39,.88-1.36,.42,.58,.66,.6,.44,.45,.68,.47,.45,.38,.69,.4,.42,.77,.66,.79,.54-.66,.79-.64,.58-1.32,.82-1.3,.54-.93,.78-.92,.4,1.28,.64,1.3,.51-.55,.75-.54,.45,.65,.69,.66,.48-.05,.73-.04,.49-.39,.73-.38,.48,.04,.72,.04,.48-.89,.72-.89,.5,3.06,.74,3.06,.48-1.53,.72-1.54,.54,1.4,.78,1.39,.39-2.42,.63-2.43,.6,1.98,.84,1.96,.31-2.37,.55-2.39,.73,2.57,.97,2.55,.38-1.13,.61-1.16,.18-2.09,.41-2.12,.84,2.17,1.07,2.13,.06-2.08,.29-2.13,.98,2.09,1.2,2.03,.1-1.46,.32-1.53,.36-.32,.58-.4c.23-.08,.11-.81,.33-.91,.22-.1,1.25,1.57,1.46,1.46,.22-.12,1.14-.78,1.33-.91-.08-.35-1.27,.55-1.72,.41-.19-.06-.08-1.17-.35-1.26-.21-.07-.65,.53-.9,.45-.21-.07-.49,0-.73-.09-.22-.07-.24-.77-.47-.85-.22-.07-.12-1.12-.35-1.2-.22-.07-.71,.64-.95,.56-.22-.08-1.08,1.71-1.32,1.63s-.19-.92-.42-1-.62,.35-.86,.27,.46-2.77,.23-2.85-1.2,2-1.43,1.91-.55,.13-.78,.05,.22-2.05,0-2.13-.35-.43-.58-.51-1.07,1.59-1.3,1.51,.03-1.49-.2-1.57-.98,1.3-1.21,1.22-.55,.11-.78,.03-.71,.54-.94,.46-.29-.59-.52-.68,.41-2.47,.18-2.55-.6,.25-.83,.16-.77,.68-.99,.59-.12-1.02-.35-1.11-1.33,2.14-1.56,2.05,.34-2.2,.11-2.29-.08-1.12-.3-1.21-1.46,2.4-1.68,2.32,.05-1.44-.17-1.53-.34-.45-.56-.54-.23-.71-.45-.8-.9,.95-1.13,.85,.25-1.89,.03-1.98-1.22,1.7-1.44,1.6-.06-1.11-.28-1.2-.78,.6-1,.51,.22-1.75,0-1.84-1.04,1.2-1.26,1.1-.97,1.02-1.2,.92-.17-.83-.39-.93-.57,.09-.79-.01,.67-2.68,.45-2.78-1.29,1.67-1.51,1.57-.83,.64-1.05,.53-.65,.22-.87,.12-.37-.38-.59-.48-.26-.59-.48-.7,.68-2.49,.46-2.59-.93,.8-1.15,.69-.48-.13-.69-.24-.6,.1-.81-.02,.17-1.36-.04-1.47-.47-.12-.69-.24-1.41,1.54-1.61,1.43,0-1.02-.2-1.14,.17-1.24-.04-1.37-.03-.86-.23-.99-.38-.26-.58-.38-1.78,1.91-1.98,1.78,.16-1.12-.04-1.25-1.08,.7-1.28,.56,1.16-2.41,.97-2.55-1.74,1.49-1.93,1.35-.53-.16-.71-.31c-.19-.16,.18-.96,0-1.12-.18-.17-1.46,.74-1.62,.57-.17-.18,1.84-2.34,1.69-2.52-.16-.19-1.94,.93-2.07,.74-.15-.21-1.03-.09-1.13-.3-.12-.22,1.4-1.23,1.33-1.45-.08-.24-.64-.23-.66-.46Z"/>
  <path class="cls-4" d="M20.46,48.78c-.27-.22-.37,.24-.77,.35-.19,.05-.38,.21-.62,.3-.21,.07-.46,.06-.68,.15-.21,.09-.52,0-.73,.11s-.41,.26-.6,.4-.18,.51-.34,.67-.35,.3-.46,.5,0,.45-.05,.68c-.05,.22-.1,.38-.08,.63,.02,.21-.21,.48-.13,.72,.08,.24,.23,.46,.37,.67s.44,.25,.63,.41c.18,.16,.38,.27,.6,.4,.21,.12,.25,.6,.48,.7s.54,0,.78,.08,.49,.09,.73,.15,.51-.05,.76,0,.42,.52,.66,.56,.54-.29,.79-.26,.49,.14,.73,.15c.26,.02,.51,.04,.74,.05,.26,.01,.52-.02,.75-.02,.28,0,.53-.21,.74-.21,.46,0,1.03,.54,.94,.18s-.28-.35-.49-.65-.53-.08-.74-.38-.03-.43-.24-.73-.27-.26-.48-.57-.27-.27-.48-.57-.1-.38-.31-.68-.33-.22-.54-.53-.18-.33-.39-.63-.32-.23-.54-.53,.08-.51-.14-.82-.47-.15-.61-.5c-.16-.39,.03-.54-.26-.77Z"/>
  <path class="cls-5" d="M19.49,43.9c-.19,.31-.33-.03-.24,.42,.04,.2,.36,.38,.42,.65,.05,.22-.04,.48,.02,.73,.05,.22,.07,.46,.14,.71,.06,.23,.07,.47,.14,.71,.06,.23,.29,.41,.36,.65s.22,.43,.3,.66,.03,.49,.11,.72-.53,.72-.44,.95,.6,.29,.69,.51,.77,.18,.87,.4,0,.53,.11,.74-.22,.68-.1,.89,.32,.39,.45,.59,.15,.51,.29,.7,.99-.17,1.15,.02,.29,.34,.45,.51-.24,.95-.06,1.11,.2,.61,.39,.75,1.01-.72,1.23-.61c.21,.11,.18,.67,.41,.77s.59-.2,.82-.1,.32,.46,.55,.55,.3,.6,.54,.67,.39,.4,.62,.47,.48,.1,.72,.16,.53-.09,.76-.03,.42,.33,.66,.39,.67-.78,.91-.73,.27,1.09,.5,1.14,.71-1.09,.95-1.05,.27,1.22,.51,1.27,.63-.82,.87-.78,.38,.71,.61,.74,.58-.6,.82-.57,.39,.75,.62,.78c.25,.03,.55-.44,.79-.41,.25,.03,.48,.11,.71,.13,.25,.03,.43,.58,.66,.61,.26,.03,.59-.82,.81-.8,.28,.03,.41,1.16,.62,1.18,.45,.04,1.03,0,1.18-.33s-.97,0-1.3-.33c-.14-.14-.17-.45-.37-.64-.16-.15-.32-.32-.51-.5-.16-.16-.32-.34-.5-.51-.17-.16-.24-.43-.42-.61-.17-.16-.3-.38-.48-.55-.17-.16-.24-.44-.42-.61s-.73,.08-.91-.08-.02-.68-.2-.85-.21-.49-.39-.65-.32-.36-.5-.52-.4-.27-.58-.43-.35-.33-.53-.49-.43-.24-.62-.39-.41-.26-.59-.42-.57-.08-.75-.24-.17-.54-.36-.7-.59-.05-.77-.21-.23-.48-.41-.64-.12-.62-.31-.77-.42-.25-.61-.4-.8,.23-.99,.09-.33-.36-.53-.5-.07-.7-.27-.85-.52-.12-.71-.26-.02-.8-.22-.94-.89,.41-1.09,.28-.56-.03-.76-.17,0-.88-.2-1.01-.68,.16-.88,.03-.48-.13-.69-.25-.22-.59-.43-.7c-.22-.12-.57,.06-.79-.04-.22-.11-.26-.59-.48-.68-.23-.1-.41-.32-.63-.4-.24-.09-.54,.06-.76,0-.25-.06-.41-.71-.64-.73-.26-.03-.11,.79-.33,.82Z"/>
  <path class="cls-9" d="M41.16,58.5c0,.17-.31,.52-.72,.47-.2-.02-.43-.29-.7-.36-.21-.05-.25-.78-.5-.86-.22-.07-.72,.66-.96,.58-.22-.08-.47-.12-.71-.22-.22-.09-.59,.16-.82,.06s-.15-.91-.37-1.01-.64,.22-.86,.12-.27-.58-.49-.69-.45-.2-.67-.31-.44-.23-.65-.34-.46-.2-.67-.32-.09-.77-.3-.9-.72,.2-.92,.06c-.21-.15-.06-.72-.25-.87-.2-.16-1.17,.58-1.34,.42-.17-.16,0-.72-.15-.89s-.17-.49-.32-.67,.11-.68-.03-.87-1.26,.32-1.39,.13,.77-1.1,.65-1.3-.41-.29-.53-.49-.29-.38-.41-.58c-.13-.21-.37-.35-.48-.54-.13-.21-.2-.46-.32-.65-.14-.22-1.08,.15-1.21-.03-.15-.21,.62-1.2,.47-1.35-.2-.19-.68-.47-.89-.52-.27-.06-.67,1.06-.92,1.06-.27,0-.53-.84-.79-.82s-.46-.35-.72-.37c-.25-.02-.43,.27-.7,.19-.23-.07-.36-.2-.62-.33-.18-.1-.63,.2-.84,.03-.18-.14-.41-.25-.6-.43-.17-.16-.2-.48-.38-.66-.17-.17-.63-.08-.79-.26s.08-.71-.08-.9,.01-.61-.13-.8c-.15-.2-1.28,.31-1.41,.12-.14-.21-.3-.46-.42-.65-.14-.24-.29-.54-.37-.73-.12-.3,.57-.7,.63-.86,.04-.09,.23-.48,.64-.36,.19,.06,.56-.14,.82-.04,.2,.08,.07,1.07,.31,1.17,.21,.09,.68-.38,.91-.28,.21,.09,.56-.08,.79,.03,.21,.1,.35,.38,.57,.49,.21,.1,.13,.81,.35,.92,.21,.11,.5,.06,.72,.17s.35,.36,.57,.47,.68-.26,.9-.15,.56-.02,.77,.1,.16,.69,.38,.81,.09,.81,.3,.93,.74-.33,.95-.21,.69-.24,.9-.12-.19,1.26,.02,1.39,.61-.1,.82,.03,.56,0,.76,.14,.25,.52,.45,.64,.29,.44,.49,.57,.45,.19,.65,.32,.55,.04,.75,.17,.36,.33,.56,.47,.61-.04,.81,.1,.2,.56,.4,.7,.18,.57,.38,.71,.84-.32,1.03-.18,.64-.02,.83,.12-.03,.84,.16,.99,.14,.59,.33,.74,.73-.12,.91,.04,.62,.04,.8,.2-.5,1.28-.33,1.44,.71-.06,.88,.11,.77-.07,.93,.1-.46,1.08-.31,1.25c.16,.19,.47,.21,.61,.4,.15,.2,.68,.09,.82,.28,.14,.21,.3,.4,.41,.6,.13,.22,.77,.21,.86,.43,.1,.23-.7,.79-.65,1.01,.06,.24,.41,.41,.42,.64Z"/>
  <path class="cls-4" d="M71.19,43.13c-.19-.29-.11-.5-.37-.74s-.9,.44-1.16,.2-.12-.21-.44-.34-.37-.24-.48,.21c-.05,.2-.18,.39-.26,.65-.06,.21,.36,.56,.28,.81-.07,.21,.51,.65,.43,.89-.07,.22-.39,.37-.48,.6-.08,.22-1.15,.06-1.24,.28-.09,.22,.48,.7,.38,.92s-.52,.28-.62,.5,.15,.59,.04,.81-.71,.16-.83,.37,.73,.95,.61,1.16-.23,.44-.35,.64-.51,.25-.64,.46-1-.11-1.14,.08,.54,.98,.4,1.17-.39,.31-.54,.5-.95-.18-1.11,0,.63,1.2,.46,1.38-1.41-.7-1.58-.53-.18,.46-.35,.62,.61,1.39,.42,1.54-1.07-.52-1.26-.37-.52,.08-.71,.23-.23,.47-.42,.61-.22,.53-.42,.66-.82-.47-1.03-.35,.35,1.61,.14,1.73-.42,.29-.64,.4-.77-.49-.99-.4-.72-.53-.95-.44-.17,.88-.39,.96-.46,.12-.7,.19-.26,.84-.49,.9-.75-.97-.98-.91-.25,1.06-.49,1.11-.48,.13-.72,.17-.59-.64-.83-.6-.38,.84-.62,.87-.53-.45-.78-.43-.5-.31-.74-.29-.48-.35-.72-.34-.46,.31-.71,.31-.45-.58-.7-.59-.53,1.58-.77,1.57-.47-.37-.71-.38-.42-.73-.66-.75-.42-.46-.66-.48-.54,.5-.78,.47-.57,0-.81-.04c-.14,.24,.63,.4,.6,.68s-.61,.17-.53,.44c.11,.35,.02,.54,.48,.65,.2,.05,.35,.46,.63,.53,.22,.05,.82-1.43,1.08-1.37,.22,.05,.12,1.55,.37,1.61,.23,.05,.71-.94,.96-.88,.23,.05,.26,.98,.51,1.03s.5-.03,.75,.03,.64-.63,.89-.57,.3,.88,.54,.94,.4,.41,.64,.46,.61-.49,.85-.43,.68-.76,.92-.7,.33,.79,.57,.84,.41,.44,.65,.49,.44,.29,.68,.34,.58-.33,.82-.28,.44,.31,.68,.36,.66-.72,.89-.67c.25,.05,.48,.13,.71,.17,.25,.05,.3,1.08,.52,1.12,.26,.05,.44,.42,.66,.46,.27,.05,.61-.4,.82-.37,.31,.05,.62-.69,.79-.68,.18,.01,.48,.69,.75,.53,.18-.11-.22-1.01,0-1.19,.17-.14,.57,0,.76-.18,.16-.16,1.06,.35,1.23,.16,.16-.17-.6-1.15-.44-1.35,.15-.18,1.3,.44,1.45,.24,.15-.19-.62-1.08-.47-1.28s1.28,.34,1.43,.14-.02-.62,.12-.82-.21-.73-.08-.93,1.04,.09,1.17-.11-.13-.66,0-.87-.47-.85-.34-1.06,.15-.46,.27-.68,1.11,.07,1.23-.14,.34-.37,.46-.59,.07-.52,.19-.73-.49-.8-.38-1.01,1.26,.08,1.37-.14-.46-.76-.35-.98,.72-.21,.82-.43-.14-.6-.05-.82-.45-.71-.36-.94,1.52,.08,1.61-.15-.43-.7-.35-.93,.09-.49,.17-.72,.86-.24,.93-.47-.67-.73-.6-.96,.94-.25,1-.49-.49-.64-.43-.88-.7-.66-.65-.89,.15-.45,.19-.68,.98-.56,1.02-.79Z"/>
  <path class="cls-4" d="M53.27,44.35c0,.36-.39,.61-.75,.9-.16,.13-.62-.04-.83,.14-.17,.15-.76-.15-.95,.03-.17,.15-.16,.53-.35,.7-.17,.16,.24,.94,.06,1.11-.17,.16-.38,.28-.56,.45s-1.08-.39-1.25-.22-.19,.49-.36,.67,.14,.78-.03,.97-.93-.18-1.09,0-.23,.45-.39,.64-.63,.12-.79,.31,.24,.82,.09,1.01-.13,.5-.28,.7-.53,.22-.67,.42-.74,.11-.87,.32,.73,1.03,.61,1.24-.57,.23-.68,.44-.2,.44-.3,.66,.13,.58,.03,.8-1.26,.03-1.35,.26,.23,.62,.16,.85-.16,.48-.21,.72,.2,.54,.17,.78-.28,.47-.29,.71,.05,.5,.07,.74,.04,.18,.08,.42c-.35,.1,.05,0-.24-.36-.13-.16-.31-.33-.48-.55-.14-.17-.32-.34-.49-.55-.14-.18-.15-.49-.31-.69-.15-.18-.77,.02-.93-.18-.15-.18-.33-.34-.49-.53-.15-.18,0-.62-.17-.81s-.1-.55-.27-.73-.58-.13-.74-.32-.24-.43-.4-.62-.4-.29-.57-.47-.16-.51-.33-.69-.51-.18-.68-.36-.38-.31-.55-.48-.72,.04-.9-.14,.15-.84-.02-1.01-.01-.69-.19-.86-.52-.16-.7-.33-.62-.05-.8-.22-.37-.32-.55-.48-.56-.1-.74-.25-.51-.13-.7-.28,.14-.96-.05-1.11-.41-.29-.6-.43-.19-.59-.39-.73-.54-.11-.74-.24-.43-.26-.64-.38-.32,.36-.53,.25c.29-.23-.2,.37,.25,.51,.2,.06,.76-.98,1.03-.9,.21,.06,.25,.79,.51,.87,.22,.07,.56-.2,.8-.13,.23,.07,.32,.6,.56,.67,.23,.07,.4,.36,.64,.43s.61-.32,.84-.24,.45,.19,.69,.27,.66-.47,.9-.4,.33,.6,.56,.67,.55-.1,.79-.02,.55-.08,.78,0,.3,.68,.54,.76,.34,.54,.58,.61,.59-.19,.82-.11,.51,.04,.74,.12c.22,.08,.44-.13,.68-.12s.46,.55,.7,.52c.23-.03,.5-.04,.73-.11,.22-.06,.3-.56,.53-.65,.21-.08,.81,.65,1.03,.54s.32-.46,.54-.58,.51-.1,.72-.22,.33-.4,.53-.53,.05-.81,.24-.94,.72,.23,.92,.09,.09-.71,.29-.84,.6,.04,.8-.1,.04-.8,.23-.93,.87,.44,1.07,.31,.5-.08,.7-.21-.02-.95,.18-1.07c.21-.12,.62,.13,.83,.03,.22-.11,.19-.78,.4-.86,.23-.09,.55-.03,.77-.08,.25-.06,.53,.29,.75,.29,.25,.01,1.04-.06,1.25,.05Z"/>
  <path class="cls-5" d="M52.52,44.46c-.19-.31-.08-.15-.53-.18-.2-.01-.4-.67-.68-.69-.22-.01-.47,.1-.73,.08-.23-.01-.53,.99-.78,.97-.23-.01-.43-.69-.68-.7-.23-.01-.49,.21-.73,.19s-.46-.32-.71-.33-.48,.08-.72,.07-.48-.09-.72-.1-.51,.69-.75,.68-.46-.66-.7-.67-.49,.24-.73,.23-.48-.71-.72-.71-.49,.28-.73,.28-.5-.14-.73-.14c-.25,0-.47,.99-.7,1-.25,0-.54-.96-.77-.94-.26,.02-.51,.15-.73,.17-.27,.03-.32,1.1-.52,1.14-.21,.04-.77-1.3-1.02-1.23-.21,.06-.22,.96-.45,1.03-.22,.06-.44,.15-.67,.22-.22,.07-.68-.65-.91-.58s-.35,.45-.58,.52-.42,.21-.65,.27-.39,.33-.62,.39-.43,.22-.66,.28-.56-.27-.79-.21-.22,1.07-.45,1.12-.51-.02-.73,.03c-.24,.05-.44,.36-.67,.4-.24,.04-.57-.39-.8-.37-.25,.03-.51-.29-.73-.29-.26,0-.5,.16-.71,.13-.26-.04-.84-.32-1.02-.42-.13,.33,.34,.46,.58,.84,.11,.17,.57,.16,.71,.39,.12,.18-.29,.73-.15,.95,.12,.19,.66,.11,.8,.32,.13,.19,.61,.14,.76,.34,.13,.19,.41,.27,.55,.47s-.37,.84-.23,1.04,.82-.03,.96,.17-.5,.98-.36,1.17,.97-.16,1.12,.03,.52,.18,.67,.36-.23,.8-.08,.98,.52,.18,.68,.35-.25,.87-.08,1.04,.92-.21,1.09-.04-.07,.74,.1,.9,.06,.64,.24,.8,.37,.34,.55,.49,.52,.16,.7,.31,.6,.02,.79,.16,.64-.12,.84,0c.21,.13-.12,1.21,.09,1.31,.22,.11,.48,.28,.7,.36,.23,.09,.56,.13,.79,.18,.24,.06,.66-1.18,.89-1.16s.54,1.27,.77,1.23c.23-.04,.59-.08,.82-.17,.22-.08,.09-1.04,.31-1.15,.21-.11,.46-.1,.67-.24,.19-.13,.67,.11,.87-.04s-.01-.77,.17-.93,.49-.16,.66-.33,.63-.05,.8-.23-.13-.77,.03-.96,.22-.43,.37-.61,.2-.44,.35-.62,.85,.06,1-.13,.15-.49,.29-.69,.24-.42,.38-.61,.71-.1,.85-.3-.1-.65,.03-.85,.11-.5,.24-.7,.45-.29,.57-.49,.22-.44,.34-.64-.35-.77-.22-.98,.4-.33,.52-.53c.12-.22,1.14,.08,1.25-.12,.12-.22,.16-.48,.27-.68,.12-.22,.29-.41,.4-.61,.12-.23,.39-.37,.49-.57,.13-.24-.02-.6,.07-.78,.2-.4-.03-.39-.21-.69Z"/>
  <path class="cls-4" d="M55.46,17.72c.29-.22,.1-.36,.53-.2,.19,.07,.22,.62,.48,.73,.2,.09,.46,.06,.69,.18,.2,.1,.51,.02,.73,.15,.2,.12,.5,.1,.71,.24,.19,.13,.25,.47,.45,.62,.19,.14,.19,.51,.38,.67s.58,.05,.76,.22,.21,.46,.37,.64,.4,.28,.55,.47,.16,.47,.3,.67,.24,.39,.37,.6,.57,.21,.69,.43,.01,.53,.11,.75,.36,.37,.44,.59,.06,.48,.14,.72,.24,.43,.3,.67-.31,.55-.27,.79,.55,.38,.59,.63-.37,.51-.35,.76,.54,.44,.55,.69-.24,.48-.24,.73-.21,.47-.22,.71,.26,.47,.24,.72c-.35,.07,.06-.33-.21-.71-.12-.17-.23-.38-.39-.61-.13-.18-.26-.38-.41-.6-.13-.19-.83,.01-.98-.2-.13-.19,.28-.77,.13-.98-.13-.19-.52-.22-.66-.42s-.42-.29-.56-.5-.23-.42-.37-.63-.31-.37-.45-.57,.12-.66-.02-.86-.38-.33-.51-.53-.52-.24-.65-.44-.37-.34-.5-.55-.09-.52-.22-.73-.35-.36-.48-.56-.19-.46-.31-.66-.37-.35-.49-.56,.26-.72,.15-.92c-.12-.22-.59-.24-.7-.44-.12-.22-.01-.55-.11-.76-.11-.23-.14-.47-.23-.68-.11-.24-.25-.07-.32-.27Z"/>
  <path class="cls-5" d="M58.17,22.16c.35,.1,.55,.07,.86,.4,.14,.15-.1,.72,.08,.93,.15,.17,.42,.25,.59,.45,.15,.17,.54,.17,.71,.36,.15,.18,.34,.35,.5,.55s-.23,.8-.08,1,.09,.53,.23,.73,.41,.3,.55,.5,.59,.19,.73,.39,.57,.24,.69,.45,.05,.56,.16,.77,.29,.43,.39,.65c.1,.23,.19,.49,.27,.71,.08,.24,.1,.52,.16,.75,.06,.25-.32,.55-.31,.79,.01,.25,0,.46-.04,.68-.04,.22,.43,.59,.37,.84-.06,.23-.84,.26-.92,.51-.07,.23-.23,.42-.31,.66-.08,.23,.81,.8,.72,1.03s-.54,.33-.63,.56-.29,.41-.38,.64,.13,.59,.03,.82-.96,.1-1.06,.33-.21,.43-.32,.65,.29,.7,.17,.92-.11,.51-.23,.72-.2,.47-.33,.67-.62,.19-.76,.39c-.14,.21,.2,.78,.06,.97-.16,.2-.79,.02-.95,.19-.18,.19-.68-.04-.86,.1-.21,.17,.22,1.32,.02,1.41-.24,.11-.74-.45-.97-.47-.22-.02-.4-.58-.63-.6s-.5,.41-.73,.38-.47,.02-.7,0-.54,.55-.76,.52c-.24-.03-.46-.19-.68-.22-.24-.03-.46-.17-.68-.2-.26-.04-.46-.32-.65-.35-.42-.06-.1-.09-.26-.39s-.08,.09,.1-.32c.08-.18,.1-.43,.21-.68,.09-.2-.09-.53,.01-.76,.09-.2,.5-.28,.6-.51,.09-.21-.56-.74-.47-.96,.09-.21,.74-.19,.83-.42,.09-.21,.43-.33,.52-.55s-.13-.56-.04-.78-.22-.59-.13-.81,1.16-.04,1.25-.26-.84-.84-.76-1.06,.21-.42,.29-.64,.03-.49,.12-.71,.91-.16,.99-.38,.26-.41,.34-.64,.17-.45,.25-.67,0-.51,.08-.73,.27-.41,.35-.64-.57-.7-.49-.92,.85-.23,.92-.45,.37-.39,.44-.62-.5-.65-.43-.88-.16-.54-.1-.76,.88-.26,.93-.49c.06-.24,0-.5,.06-.72,.05-.24,.22-.45,.26-.68,.05-.24-.05-.51-.02-.73,.03-.25-.6-.53-.58-.74,.01-.26,.2-.43,.17-.64-.03-.28,.36-.83,.25-1Z"/>
  <path class="cls-7" d="M19.27,41.86c.35-.01-.64-.1-.78-.53-.06-.19,.06-.49-.02-.76-.06-.21-.31-.4-.38-.65-.06-.22-.18-.45-.24-.69-.05-.22,.9-.69,.85-.93-.05-.23-.28-.41-.33-.66-.04-.23-.88-.33-.92-.57s.51-.56,.48-.8-.17-.46-.19-.7,.32-.51,.3-.75-.06-.46-.07-.71-.1-.47-.11-.71-.41-.47-.41-.71,.76-.46,.76-.7-.24-.48-.23-.72,.04-.47,.06-.71-.47-.53-.44-.77,.66-.38,.7-.62-.56-.59-.51-.83,.19-.46,.25-.69-.23-.58-.16-.81,1.18-.12,1.26-.35-.11-.53-.02-.76-.19-.6-.09-.82,.53-.28,.64-.49,.38-.33,.49-.53-.53-.88-.4-1.08,.56-.22,.7-.42,.41-.3,.56-.49-.02-.13,.13-.31c-.19-.29,.16,.22-.27,.3-.2,.04-.57-.6-.83-.54-.21,.05-.26,.81-.5,.88-.22,.06-.61-.51-.85-.44-.22,.07-.35,.42-.58,.5-.22,.07-.5-.02-.72,.07s-.36,.33-.58,.43-.25,.52-.46,.63-.83-.56-1.04-.44-.5,.14-.7,.27-.15,.63-.34,.78-.02,.68-.2,.84-.97-.3-1.13-.12c-.15,.17,.36,.84,.24,1.06-.11,.19-.9,.1-.98,.33-.08,.21,.47,.64,.41,.88-.06,.22-.31,.4-.35,.63-.04,.22,.22,.49,.19,.73s-.86,.4-.88,.63,.79,.5,.79,.74,0,.46,.01,.69-.84,.49-.83,.73,.38,.46,.4,.69,.03,.47,.05,.71-.32,.51-.29,.75,.85,.38,.88,.61,.11,.46,.14,.69,.29,.43,.33,.66-.48,.56-.44,.79c.04,.24,.45,.4,.49,.62,.05,.24-.11,.51-.06,.73,.05,.24,.18,.45,.23,.67,.06,.25-.02,.51,.04,.71,.07,.26,.4,.39,.46,.58,.13,.36-.06,.77,.02,.79,.34,.11,.55-.55,.89-.44s.06,.99,.39,1.09,.51-.44,.85-.33,.14,.73,.47,.84,.65-.85,.99-.75,.12,.78,.46,.89,.15,.46,.48,.61c.34,.16,.56-.22,.92-.23Z"/>
  <path class="cls-2" d="M21.6,21.1c-.33-.11,0,.73-.29,1.05-.14,.15-.77-.11-.95,.09-.14,.16,.36,.88,.2,1.08-.14,.17-.29,.33-.43,.53-.14,.18-1.32-.37-1.45-.17s-.27,.42-.39,.62,.71,.96,.59,1.17,.05,.52-.04,.73-.17,.38-.25,.6-.58,.26-.64,.48-.83,.33-.86,.56c-.03,.23,.68,.57,.65,.82-.03,.23-.53,.42-.55,.66s-.32,.45-.34,.7,.07,.49,.05,.73-.07,.48-.08,.73,.69,.5,.69,.74,.21,.47,.21,.71-1.1,.49-1.09,.73,.6,.47,.61,.71-.44,.51-.42,.75-.16,.51-.14,.75,.18,.49,.21,.72,.33,.45,.37,.69-.17,.54-.12,.77,.66,.36,.72,.59-.23,.58-.15,.81,.39,.39,.47,.61-.21,.65-.11,.86,.42,.37,.54,.57,.31,.6,.45,.78c.29,.19,.8-.7,1.11-.54s-.16,1.1,.15,1.26,.31,.16,.63,.31,.41-.04,.73,.11,.59-.38,.9-.23,.29,.2,.61,.36-.09,.96,.22,1.12,.5-.21,.81-.05,.45-.1,.76,.05,.01,.76,.33,.92,.87-.94,1.19-.78,.08,.49,.42,.59c.48,.13,.48,1.11,.97,1.06,.36-.04,.06-.95-.14-1.37-.09-.18-.15-.41-.27-.67-.09-.2-.1-.46-.21-.7-.09-.21-1.08-.05-1.18-.28-.09-.21,.87-.87,.77-1.11-.09-.21-1.05-.08-1.15-.32-.09-.22,.51-.71,.42-.94-.08-.22,.16-.56,.07-.8-.08-.22-.18-.43-.26-.67s-.53-.31-.61-.54-.25-.42-.33-.65,.08-.53,0-.76-.07-.48-.15-.71-.32-.4-.39-.63-1.1-.17-1.17-.41,.61-.68,.54-.92-.71-.31-.77-.54,.59-.65,.53-.89,.06-.51,0-.74-.98-.26-1.03-.5,.06-.51,.01-.75,.48-.6,.43-.84-1.01-.29-1.06-.53,.83-.65,.78-.89-.68-.37-.72-.61-.19-.46-.23-.7,.34-.54,.31-.78,.35-.53,.32-.78-1.19-.34-1.22-.58,1.31-.63,1.29-.88-.74-.41-.76-.66,.2-.5,.18-.75,.43-.51,.41-.75-.78-.44-.79-.69,.1-.78,.09-1.02Z"/>
  <path class="cls-4" d="M52.21,43.34c.33-.13-.51-.77-.35-1.21,.07-.19,.22-.38,.32-.64,.07-.2,.56-.28,.64-.53,.07-.21,.86-.21,.94-.45,.07-.22-.02-.51,.05-.75,.07-.22,.03-.49,.1-.73,.07-.22-1.1-.8-1.03-1.04s1.89,.02,1.95-.22-1.05-.76-.99-1-.37-.57-.31-.81,.34-.4,.39-.64,1.39-.2,1.44-.44-.27-.55-.22-.79-.57-.59-.53-.83-.55-.57-.51-.8,.54-.4,.57-.64,.98-.36,1.01-.6,.16-.48,.18-.72-.89-.57-.87-.81-.5-.51-.48-.75,.5-.45,.51-.69-.72-.49-.72-.73,2.07-.48,2.07-.72-.19-.5-.2-.74-.09-.5-.11-.74-.06-.5-.08-.74-1.81-.29-1.83-.53,1.72-.72,1.69-.95-1.86-.17-1.91-.41,.69-.61,.64-.85,.65-.66,.59-.89-.72-.31-.79-.54,.58-.71,.5-.94-1.46,.03-1.55-.2-.05-.47-.14-.69,.48-.75,.37-.97-.92-.04-1.04-.25,.24-.69,.11-.89-.86,.02-1-.17c-.14-.2-.53-.16-.67-.34s.61-1.1,.46-1.28-.01-.66-.18-.83-.87,.18-1.04,.01,.21-.98,.03-1.14-.96,.41-1.15,.27,.27-1.24,.07-1.37-1.25,1.06-1.45,.94,.12-1.2-.09-1.31-.2-.78-.42-.88-.48-.25-.7-.33-1.15,1.85-1.38,1.77-.11-1.26-.34-1.32-.37-.61-.6-.66-.63,.7-.86,.66-.5,.25-.74,.23-.46,.12-.7,.11-.46,.28-.69,.28-.46-.77-.7-.77-.42,.77-.66,.78-.44,.03-.68,.06-.51-.45-.75-.42-.46,.07-.69,.11-.63-.73-.86-.68-.36,.6-.59,.66-.62-.46-.85-.4-.48,.15-.7,.22-.41,.33-.64,.41-.04,1.29-.26,1.37-1.18-1.66-1.39-1.58c-.23,.09-.15,.94-.36,1.04-.23,.1-.22,.67-.43,.77-.23,.11-.68-.25-.88-.14-.23,.12-.44,.26-.62,.37-.23,.14,.15,1.08-.02,1.2-.17,.12-1.27-1.03-1.49-.88-.18,.12,.5,1.58,.29,1.72-.19,.13-.84-.41-1.05-.27-.19,.13-.14,.59-.34,.74-.19,.14-.11,.59-.3,.75-.18,.15-1.24-.74-1.42-.58s-.5,.2-.68,.37,.24,.93,.07,1.11-.36,.31-.52,.5-.84-.06-.99,.14-.06,.58-.2,.78,.38,.82,.25,1.03-.15,.44-.27,.65-.66,.18-.77,.4-.14,.46-.23,.68-1.09,.12-1.17,.35,.95,.82,.88,1.06-.64,.32-.69,.56,.42,.57,.37,.81,.33,.51,.3,.75-.53,.4-.55,.64,.15,.47,.14,.72-1.32,.45-1.32,.69-.19,.52-.18,.76,.4,.49,.42,.73-.32,.54-.3,.78,.03,.51,.06,.76,2.06,.18,2.1,.42-1.74,.8-1.69,1.04,1.94,.09,1.99,.33-.32,.55-.26,.79,.22,.42,.28,.66,.45,.35,.52,.59,.15,.44,.22,.67-.15,.54-.07,.77,.03,.48,.11,.71-.65,.75-.56,.98,1.33-.01,1.42,.21-.63,.77-.54,1,.14,.46,.24,.69,1.15,0,1.25,.23-.14,.58-.04,.8-1,1.02-.89,1.24,.62,.23,.73,.45-.26,.68-.15,.9,1.23-.1,1.34,.12,.17,.46,.28,.67-.71,.95-.59,1.16,.43,.32,.55,.53,.31,.39,.43,.6,.59,.39,.71,.61c.35,.1-.14-1.26,.28-1.45,.18-.08,1.05,1.29,1.31,1.18,.2-.09,.06-1.03,.3-1.12,.21-.09,.61,.28,.85,.18,.21-.08,.36-.37,.59-.46,.22-.08,.82,.86,1.05,.78,.22-.08-.13-1.75,.1-1.84s.96,1.34,1.2,1.26,.26-.71,.49-.78,.29-.64,.52-.71,.25-.84,.48-.91,.59,.3,.83,.24,.31-.7,.55-.76,.53,.08,.76,.02,.76,1.09,.99,1.03,.17-1.47,.41-1.52,.88,1.94,1.12,1.89,.36-.63,.59-.67,.41-.42,.65-.45,.32-1.22,.56-1.25,.63,1.18,.87,1.15,.47-.08,.71-.1,.52,.71,.76,.7,.44-.7,.68-.71,.47,.6,.71,.6,.51-1.39,.75-1.38,.44,.85,.68,.87,.61-1.22,.85-1.2,.23,1.87,.47,1.91,.48-.14,.71-.09,.61-.57,.84-.51,.18,1.04,.4,1.11,.73-.72,.95-.64,.03,1.1,.25,1.2,1.01-.39,1.22-.27Z"/>
  <path class="cls-7" d="M53.04,17.38c.13-.04-.06-.53-.23-.9-.08-.18-.14-.36-.28-.59-.11-.18-.01-.51-.15-.72-.12-.18-.64-.09-.79-.29-.13-.18,.56-1.01,.41-1.2-.14-.18-.45-.25-.6-.44-.15-.18-.23-.43-.39-.61s-.36-.32-.53-.49-.11-.56-.28-.73-1.06,.41-1.24,.24-.06-.61-.24-.77-.85,.28-1.03,.13,.59-1.46,.4-1.61-.93,.42-1.12,.28,.1-.99-.09-1.12-1.06,.78-1.27,.66,.1-1.12-.11-1.23-1.02,.99-1.23,.89-.18-.67-.4-.76-.38-.28-.6-.35-.48,.06-.7,.01-.29-1.23-.52-1.25-.55-.18-.78-.19c-.25,0-.47,1.56-.71,1.57-.25,.01-.49-.28-.73-.26-.25,.02-.56-.54-.79-.51-.25,.04-.31,1-.54,1.05-.25,.05-.46,0-.69,.07-.24,.07-.44,.11-.67,.18-.24,.08-.6-.27-.82-.18-.23,.1-.45,.18-.67,.28-.23,.11-.85-.53-1.06-.42-.22,.12,.21,1.34,0,1.46-.22,.13-.71-.19-.9-.06-.21,.14,.05,.96-.14,1.09-.21,.14-.7-.12-.9,0-.22,.14-.93-.67-1.13-.57-.23,.11,.04,1.57-.19,1.63-.2,.05-.45,.15-.7,.2-.22,.04-.74-1.39-.98-1.34-.22,.04-.44,.14-.68,.19-.22,.05-.19,1.34-.42,1.39s-.69-.95-.92-.9-.52-.09-.75-.03-.14,1.25-.36,1.32-.76-.81-.98-.74-.15,.96-.36,1.05-.15,.7-.36,.8-1.19-1.19-1.38-1.07c-.21,.13-.08,.78-.26,.92-.19,.15-1.02-.23-1.17-.06-.14,.17,1.16,1.33,1.03,1.57-.1,.2-1.03,.02-1.12,.26-.08,.22-.36,.4-.43,.65-.07,.23,.07,.53,.02,.77s-.47,.41-.52,.66,.95,.65,.92,.9,.21,.5,.18,.75-.2,.45-.23,.7-1.5,.37-1.52,.62,.36,.53,.35,.77c-.01,.25,.52,.52,.51,.76,0,.26,.25,.49,.25,.73,0,.26,.28,.47,.3,.7,.02,.27-.89,.61-.85,.82,.05,.33,.99,.09,1.08,.21,.16,.23-.56,1.1-.48,1.16,.27,.19,.61-.39,.6-.66-.03-.35,.12-.2,.19-.64,.03-.2-.39-.52-.33-.78,.05-.21-.16-.52-.1-.77,.06-.22,1.17-.14,1.25-.38,.07-.22-.9-.78-.82-1.01,.08-.22,1.21-.04,1.3-.27s-.97-.92-.87-1.14,1.44,.18,1.55-.03-.34-.69-.22-.9-.12-.63,.02-.83,.09-.54,.23-.73,1.13,.31,1.29,.13,.39-.22,.56-.39-.6-1.31-.42-1.47,.97,.42,1.16,.28c.2-.15,.34-.36,.53-.5s-.2-1.13,0-1.26,1.04,.67,1.24,.54-.28-1.36-.08-1.48,.58-.02,.78-.14,.64,.14,.85,.03,.6,.12,.81,.02,.23-.68,.45-.77,.45-.22,.67-.3,.81,.97,1.04,.9,.27-.72,.5-.77,.52,.24,.76,.2,.39-.47,.62-.51,.48,.11,.72,.09,.46-.07,.7-.09,.46-.14,.7-.15,.47,.09,.71,.09,.45,.56,.69,.56,.52-1.31,.77-1.3,.39,1.34,.64,1.36c.25,.02,.5-.32,.74-.3s.45,.24,.69,.27,.52-.28,.76-.25,.46,.17,.69,.21,.35,.64,.59,.69,.57-.37,.8-.31,.47,.1,.7,.16,.72-.71,.95-.64,.18,1,.41,1.08,.29,.58,.51,.67,1.15-1.5,1.37-1.4,.06,1.09,.27,1.19c.23,.11,.43,.23,.64,.34,.22,.12,.52,.07,.73,.19,.22,.12-.06,1.04,.14,1.16,.22,.13,.73-.26,.92-.13,.21,.14,.87-.35,1.05-.22,.21,.16,.64,.06,.81,.2,.22,.18-.25,1.13-.1,1.26,.34,.31,.06,.67,.38,.83Z"/>
  <path class="cls-2" d="M53.36,31.64c.01,.23,.09,0,.19-.49,.04-.19,.1-.41,.14-.68,.03-.21,.58-.38,.61-.62,.03-.22-.34-.5-.32-.74,.02-.22,.43-.44,.44-.68,.01-.23-.47-.48-.47-.72s-.08-.46-.09-.69-.13-.45-.14-.69-.09-.45-.12-.68,.49-.52,.45-.75-.65-.36-.7-.58,.18-.51,.12-.73-.07-.46-.16-.68-.05-.5-.15-.7-.59-.17-.73-.35,.16-.73,0-.89c-.17-.17-.55-.11-.75-.27-.18-.15-.2-.55-.41-.69-.2-.13-.52-.09-.74-.22s-.24-.58-.46-.69-.52-.08-.74-.18-.37-.4-.59-.5-.7,.4-.93,.31-.27-.68-.5-.76-.55,.08-.78,0-.39-.4-.63-.47-.49-.12-.73-.18-.6,.34-.84,.28-.4-.5-.63-.55-.58,.35-.81,.31c-.25-.05-.49-.05-.72-.08-.26-.04-.45-.49-.68-.51-.26-.02-.51-.29-.74-.29-.28,0-.56,.14-.77,.17-.31,.04-.23,.66-.36,.79-.16,.15-.12-.33,.27-.15,.18,.08,.27,.47,.53,.57,.21,.07,.48,.02,.73,.11,.21,.07,.37,.36,.61,.45,.22,.08,.44,.19,.67,.28,.22,.08,.41,.25,.64,.34,.22,.09,.64-.3,.87-.2s.3,.53,.52,.63,.49,.1,.71,.21,.42,.25,.64,.36,.36,.35,.57,.47,.25,.5,.46,.63,.69-.17,.89-.03,.42,.26,.61,.41,.19,.54,.38,.7,.22,.47,.4,.64,.63,.04,.8,.21,.58,.14,.74,.33,.05,.6,.2,.79,.44,.29,.57,.49,.21,.46,.33,.67,.37,.36,.48,.58-.13,.6-.03,.83,.23,.42,.32,.65,.59,.32,.66,.55-.32,.6-.26,.84,.59,.37,.64,.61,0,.51,.03,.75-.11,.51-.08,.76-.22,.5-.2,.75Z"/>
  <path class="cls-3" d="M47.88,26.05c.11-.36,.34-.35,.03-.68-.15-.16-.45-.23-.65-.42-.16-.16-.6-.07-.79-.25-.18-.16-.06-.67-.26-.84s-.39-.33-.59-.48-.53-.13-.74-.26-.59,.06-.81-.05c-.23-.11-.39-.26-.63-.33-.25-.07-.44-.07-.68-.08-.23,0-.46-.25-.69-.23s-.45,.13-.67,.17-.54-.23-.76-.17-.35,.45-.56,.53-.52-.01-.72,.1-.38,.29-.57,.42c-.2,.13-.38,.29-.55,.44-.18,.16-.39,.29-.54,.46-.15,.18-.23,.68-.33,.88,.35,.06,.16-.54,.56-.75,.17-.09,.45-.08,.71-.16,.2-.07,.44-.07,.7-.13,.21-.04,.41-.39,.66-.42,.22-.02,.48,.33,.74,.33,.22,0,.45,.09,.7,.1,.22,.01,.47-.17,.72-.13,.22,.03,.44,.17,.68,.22,.22,.04,.52-.21,.76-.16,.22,.05,.38,.4,.61,.47,.22,.06,.45,.1,.68,.18,.22,.07,.56-.19,.79-.11,.22,.08,.37,.36,.59,.45,.21,.09,.47,.11,.69,.2s.48,.09,.7,.2,.01,.38,.23,.49Z"/>
  <path class="cls-2" d="M47.96,24.22c.2-.3,.67,.41,1.09,.48,.21,.04,.49-.12,.74-.03,.21,.08,.34,.34,.56,.48,.19,.12,.27,.35,.45,.52,.16,.16,.86-.1,1,.11,.13,.19-.35,.75-.25,.98,.09,.21,.22,.38,.29,.62,.06,.22,.72,.33,.76,.58,.03,.22-.86,.55-.85,.81,.01,.23,.15,.43,.14,.69,0,.24-.02,.48-.03,.72s-.11,.47-.13,.72-.03,.48-.06,.72,.14,.51,.11,.75-.2,.46-.24,.7,.71,.62,.66,.86-.2,.47-.25,.71-.02,.51-.07,.75-.7,.35-.76,.59,.29,.59,.23,.82-.36,.42-.43,.65c-.07,.24-.54,.35-.62,.58-.08,.24,.38,.65,.3,.87-.09,.25-.18,.48-.27,.7-.1,.25-.56,.31-.66,.51-.12,.25-.02,.57-.14,.74-.2,.3-.32,0-.48-.01-.16-.02-.71,.25-.74-.13-.02-.2-.05-.5-.04-.78,0-.22,.22-.47,.24-.73,.02-.23,.07-.48,.1-.73,.03-.23,.5-.42,.54-.67s-.2-.51-.16-.76,.23-.46,.27-.7,.22-.46,.26-.7,.24-.46,.28-.7-.25-.54-.21-.78c.04-.25,.19-.48,.22-.71,.04-.25-.58-.58-.55-.81,.03-.27,.68-.44,.7-.66,.03-.3-.26-.55-.27-.73-.02-.39-.16-.37-.34,.03-.08,.17-.15,.4-.26,.66-.08,.19,.16,.54,.07,.78-.08,.2-.67,.21-.76,.44-.09,.21,.52,.72,.43,.94s-1.03,.04-1.13,.25-.07,.47-.18,.67,.06,.56-.05,.76,.07,.6-.05,.79-.82,0-.95,.2-.37,.26-.52,.43-.18,.41-.35,.57c-.18,.16-.27,.34-.46,.47-.2,.13-.66,.68-.87,.76-.17-.32,.24-.61,.46-1.01,.1-.18,.82-.07,.95-.31,.1-.2-.2-.63-.08-.87,.11-.21,.04-.51,.16-.74,.1-.21,.54-.27,.65-.49,.1-.21,.33-.38,.44-.6s-.36-.69-.26-.92,.94-.12,1.04-.35-.11-.57-.02-.8-.23-.61-.15-.84,.18-.45,.26-.68,.9-.22,.97-.45-.51-.67-.44-.9,.69-.33,.74-.56,.25-.47,.29-.7-.18-.55-.15-.78c.03-.25-.31-.53-.3-.76,.01-.25-.15-.47-.16-.7-.01-.25,.32-.51,.27-.74-.05-.25-.05-.51-.14-.73-.1-.23-.71-.68-.86-.86Z"/>
  <path class="cls-3" d="M43.91,37.82c-.01,.16-.05-.05,.18-.51,.09-.18,.3-.36,.41-.61,.09-.2-.32-.63-.22-.87,.08-.21,.47-.32,.55-.56,.08-.22-.02-.51,.06-.75s.42-.36,.5-.6,.05-.49,.12-.72-.06-.51,0-.75,.27-.43,.31-.67,.11-.47,.15-.71,.46-.45,.48-.68c.02-.25-.5-.53-.5-.76,0-.25-.04-.46-.07-.69-.03-.26,.34-.59,.26-.8-.09-.24-.62-.27-.71-.48-.11-.23,.03-.56-.09-.76-.13-.22-.24-.44-.38-.62-.15-.2-.49-.2-.66-.37-.18-.18-.41-.21-.6-.34-.2-.15-.23-.5-.44-.6-.22-.11-.43-.21-.65-.27-.24-.07-.46-.23-.69-.25s-.53-.2-.76-.17c-.25,.03-.43,.43-.66,.51s-.67-.2-.88-.08-.09,.73-.28,.89-.17,.45-.32,.64-.52,.19-.64,.4-.07,.49-.16,.71-.65,.3-.71,.53c-.06,.25-.25,.52-.27,.75-.03,.26,.42,.54,.44,.76,.03,.27,.28,.38,.39,.56,.14,.22,.06,.82,.31,.85,.24,.03,.36-.48,.52-.68,.12-.15,.27-.31,.37-.54,.08-.2,0-.48,.08-.69s.46-.3,.56-.5c.1-.21,.08-.5,.21-.67,.14-.19,.49-.05,.69-.14,.19-.09,.33-.69,.59-.66,.26,.03,.51,.3,.72,.4,.22,.1,.14,.6,.32,.77s.71,.02,.84,.24c.12,.2-.3,.65-.22,.89,.08,.22,.24,.38,.3,.63,.05,.23,.7,.36,.73,.61,.03,.23,0,.5,.03,.75,.02,.24-.15,.5-.14,.75,.01,.24,.22,.48,.22,.73s-.05,.49-.06,.74-.11,.48-.12,.73,.21,.5,.2,.74-.78,.44-.79,.69,.48,.52,.46,.76-.11,.48-.13,.73,.13,.5,.11,.75Z"/>
  <path class="cls-6" d="M32.24,19.28c-.29-.2-.29,.65-.72,.62-.2-.01-.39-.61-.66-.61-.22,0-.49-.56-.74-.54-.23,.02-.35,.99-.59,1.03s-.71-1.06-.94-1-.39,.5-.61,.59-.35,.4-.56,.52-.18,.52-.36,.68-.84-.14-.99,.05,0,.6-.1,.82c-.1,.2-.76,.26-.82,.5-.06,.21,.13,.54,.07,.79-.05,.22,.56,.58,.52,.83-.04,.22-.9,.34-.94,.59-.03,.23,1.13,.61,1.11,.86-.02,.23-.44,.42-.46,.67-.02,.23,.37,.49,.36,.74s-.15,.46-.16,.7-.55,.45-.55,.69-.59,.47-.59,.71,.85,.48,.85,.72-.02,.47-.01,.72-.73,.51-.72,.75,.36,.47,.38,.71-.01,.49,0,.73,.8,.41,.83,.65-.07,.48-.04,.72-.15,.5-.12,.74-.13,.51-.09,.74,.21,.45,.26,.69-.27,.55-.22,.78,.25,.44,.31,.68-.08,.53-.02,.76,.25,.44,.32,.67,.41,.38,.49,.61-.53,.71-.44,.94,.93,.16,1.02,.38,.65,.22,.75,.44-.84,.95-.73,1.16,.92,.05,1.04,.25,.18,.44,.31,.64-.44,.91-.3,1.1,.52,.24,.68,.42,.57,.17,.74,.34c.35-.02,.22-.46,.55-.57s.52,.45,.85,.34,.26-.34,.59-.45,.25-.36,.58-.47,.58,.62,.91,.51-.03-1.2,.31-1.31,.6,.69,.93,.58,.29-.24,.62-.35,.54,.51,.88,.4-.03-1.2,.31-1.31,.45,.24,.78,.13,.43,.18,.77,.07,.31-.18,.65-.29,.37,0,.71-.1,.46,.26,.79,.15,.26-.35,.59-.46,.02-1.08,.35-1.19,.61,.72,.95,.6,.03-.64,.31-.86c-.11-.22-.39,.2-.52,0s-.07-.49-.22-.68,.37-1,.2-1.17-1.23,.59-1.41,.42-.2-.46-.4-.61,.15-1.01-.04-1.15-.32-.41-.53-.54-.85,.4-1.06,.27-.35-.36-.55-.49-.38-.32-.58-.45-.78,.28-.98,.14-.31-.45-.5-.59,.32-1.23,.13-1.38-.67,.08-.85-.08-.23-.44-.39-.61-.28-.35-.44-.54-1.2,.24-1.33,.04,.32-.78,.22-1c-.1-.21,.01-.49-.06-.72s-.57-.35-.61-.59,.48-.53,.46-.77-.93-.43-.93-.67,1.22-.47,1.22-.71-.68-.49-.67-.73-.56-.52-.54-.75,1.44-.35,1.46-.59-.73-.54-.71-.78-.19-.49-.17-.73,.16-.46,.18-.7,.12-.47,.13-.7,.35-.47,.35-.7-.21-.49-.21-.72,.69-.54,.67-.78-1.04-.37-1.08-.6,.19-.52,.12-.75-.23-.39-.33-.6Z"/>
  <path class="cls-2" d="M30.01,18.61c.21,.04,.14,.42-.09,.75-.11,.16-.13,.45-.3,.66-.14,.16-.44,.21-.6,.4-.14,.17-.11,.5-.26,.69s-.22,.4-.36,.59-.79,.01-.92,.21-.28,.42-.39,.62,.2,.63,.11,.84c-.09,.23,.03,.46,0,.67-.04,.2-.3,.4-.36,.67-.05,.22-.12,.45-.18,.69-.05,.22-.18,.44-.24,.68-.06,.23,.14,.53,.08,.77s-.25,.43-.31,.66-.18,.45-.24,.68-.63,.32-.7,.54-.13,.46-.2,.69,.14,.56,.07,.78c-.08,.24,.13,.58,.05,.79-.09,.24-.64,.28-.73,.48-.11,.25-.01,.55-.11,.73-.19,.32-.27,.12-.41,.1-.1-.01,.1,.09,.04-.31-.03-.2-.75-.36-.77-.64-.02-.22,.31-.49,.3-.75,0-.23,.06-.47,.07-.72,0-.23-.22-.48-.21-.73,.01-.23,.28-.46,.3-.71s.27-.45,.29-.7,.03-.47,.06-.71,.11-.46,.15-.7-.08-.5-.04-.73-.11-.52-.06-.75-.01-.51,.05-.74,.38-.4,.45-.63,.08-.49,.16-.71-.2-.63-.1-.84,.43-.36,.54-.57,.5-.27,.64-.47,.21-.44,.36-.63,.21-.49,.39-.65,.35-.4,.55-.53,.54-.06,.76-.15,.53,.27,.77,.22,.4-.14,.65-.14c.23,0,.5-.47,.75-.43Z"/>
  <path class="cls-2" d="M28.99,30.45c-.02,.37,.44,.46,.13,.78-.15,.15-.21,.36-.38,.59-.14,.18-1.01-.09-1.14,.14-.12,.21,.18,.65,.09,.89-.09,.22-.31,.42-.37,.67-.05,.23-.45,.47-.47,.72-.02,.24,.46,.52,.48,.78,.02,.24-.04,.5,.02,.76,.05,.22-.14,.5-.09,.74,.05,.23,.84,.31,.88,.55s-.14,.51-.09,.74,.11,.46,.16,.69-.06,.49-.01,.73,.25,.44,.3,.67-.17,.52-.13,.75-.21,.52-.17,.75,.04,.48,.07,.71c.04,.25,.9,.34,.93,.57,.04,.25-.16,.53-.12,.75,.05,.27-.03,.52,0,.72,.07,.44,.41,.61,.19,.88-.25,.31-.65-.09-.97,.15s-.06,.73-.44,.86c-.33,.11-.09-.48-.28-.89-.09-.18-.26-.36-.36-.61-.09-.2-.48-.3-.58-.54-.08-.21,.27-.6,.19-.83-.08-.21-.8-.22-.88-.46-.07-.22,.73-.72,.66-.95s-.81-.26-.87-.5,.59-.62,.54-.86-.6-.36-.64-.59,.44-.54,.41-.78-.19-.44-.21-.68-.61-.43-.62-.67,.66-.49,.66-.73-.15-.46-.14-.7-.56-.52-.54-.76-.09-.52-.05-.75,.73-.35,.78-.58-.45-.62-.38-.85,.5-.35,.58-.57,.11-.47,.21-.69,.3-.38,.42-.59,.5-.24,.63-.44-.28-.79-.13-.98,.81,.06,.97-.12,.04-.61,.22-.78,.3-.19,.49-.35c.2,.39,.34,.37,.33,.81s-.24,.4-.27,.84Z"/>
  <path class="cls-3" d="M47.66,21.78c-.22,.29-.06-.35-.52-.4-.21-.02-.53,.79-.8,.77-.22-.02-.4-1.07-.66-1.08-.23-.01-.51,.41-.76,.4-.24,0-.48-.18-.73-.18-.24,0-.49,.3-.74,.3s-.5-.57-.75-.56-.5,.02-.75,.04-.42,1.03-.67,1.05-.51-.25-.75-.22-.49,.02-.73,.06-.47,.14-.71,.19-.4,.4-.63,.47-.39,.29-.62,.37-.57-.19-.79-.09-.25,.51-.46,.63-.58-.08-.77,.07-.66,0-.82,.18,.29,.8,.16,1-.15,.33-.23,.57c-.08,.23-.87,.21-.94,.44s.41,.6,.35,.84-.11,.44-.16,.68-.9,.36-.93,.6,.14,.52,.14,.76,.61,.47,.62,.71,.22,.42,.26,.66,0,.44,.05,.68-.54,.64-.46,.87-.04,.56,.06,.79,.45,.34,.57,.56,.85,.03,.99,.24-.39,.84-.24,1.04,.5,.22,.66,.4,.6,.08,.77,.26,.17,.48,.36,.65,.52,.1,.71,.26-.13,.92,.07,1.07,.53,.09,.74,.23,.44,.2,.65,.33,.27,.46,.48,.59,.25,.53,.47,.66,.78-.41,1-.3,.19,.68,.41,.79,.66-.27,.89-.16,.12,.88,.35,.98,.86-.78,1.08-.68,.3,.52,.52,.61,.41,.28,.64,.36,.6-.25,.83-.17,.5,.02,.73,.1,.54,.86,.78,.94c-.13,.33-.51-.6-.96-.64-.2-.02-.53,.78-.8,.74-.22-.03-.4-.53-.65-.57-.22-.03-.42-.34-.67-.38-.23-.04-.61,.73-.85,.68-.23-.04-.39-.5-.63-.55-.23-.05-.47-.07-.71-.13s-.43-.24-.67-.3-.51,.07-.75,0-.46-.14-.69-.21-.35-.48-.58-.56-.49-.04-.72-.12-.61,.25-.83,.16-.53-.02-.75-.11,.02-1.2-.2-1.31-.68,.31-.89,.2-.57,.03-.78-.09-.23-.55-.44-.68-.73,.22-.93,.08-.08-.72-.27-.87-.53-.11-.72-.27-.42-.27-.6-.43-.63-.09-.8-.27,.53-1.09,.38-1.28-1,.15-1.14-.05c-.14-.2,.57-.93,.44-1.14s-.72-.12-.83-.34-.65-.24-.74-.46-.3-.43-.38-.65-.2-.47-.27-.7,.77-.72,.72-.95-.93-.3-.98-.54,.05-.52,.03-.76,.86-.54,.85-.78-.09-.44-.08-.68-.61-.52-.59-.76-.06-.52-.01-.75,.23-.46,.3-.69,.35-.39,.45-.61-.21-.66-.09-.87,.66-.17,.8-.37,.49-.19,.65-.38-.18-.85,0-1.01,.44-.26,.64-.41,.78,.35,.99,.22,.18-.65,.4-.75,.53,.05,.76-.03,.51,.13,.75,.07,.23-1.06,.47-1.11,.51,.02,.75-.01,.54,.5,.78,.48,.45-.25,.7-.26,.47,.35,.72,.35,.45,.18,.7,.19,.47-.14,.71-.12,.48-.13,.72-.11,.56-.59,.8-.56,.47,.16,.71,.2,.5-.03,.74,.02,.32,.83,.56,.89,.48,0,.72,.06,.47,.08,.7,.14,.41,.31,.65,.37,.55-.17,.78-.1,.46,.14,.69,.21,.63-.36,.86-.28,.15,.49,.38,.58Z"/>
  <path class="cls-2" d="M50.06,16.79c.12-.34-.09-.3-.45-.56-.16-.12-.16-.56-.39-.71-.18-.12-.96,.62-1.18,.48-.19-.12-.24-.47-.46-.6-.2-.12-.32-.38-.54-.5-.21-.11-.49-.07-.71-.18s-.5-.02-.72-.12-.18-.81-.4-.89-.49-.07-.72-.15-.51,.03-.74-.03-.51,.16-.75,.11-.42-.35-.66-.37-.48,.25-.72,.25-.48-.49-.72-.48-.46,.22-.7,.26-.47,.08-.7,.14-.59-.18-.81-.09c-.22,.09-.24,.64-.45,.74s-.52,.02-.73,.13-.23,.57-.43,.69-.55,0-.74,.11-.59-.04-.79,.09,0,.84-.19,.97-.88-.38-1.07-.24-.31,.4-.48,.55-.52,.17-.68,.33-.05,.64-.21,.81-.25,.42-.4,.59-.75,.05-.88,.24c-.14,.2-.14,.52-.26,.72-.12,.21-.3,.42-.4,.63-.11,.22,.48,.73,.41,.94-.08,.23-.78,.27-.83,.49-.05,.24,0,.52-.02,.75-.04,.45,.52,.77,.78,.55,.13-.11-.18-.79,.03-1.02,.15-.15,.51-.14,.7-.34,.15-.16,.47-.2,.65-.38,.16-.16,.2-.47,.39-.64,.17-.16,.16-.54,.35-.71,.18-.15,.27-.45,.47-.61,.18-.15,.74,.17,.94,.02s.39-.27,.6-.4,.66,.17,.87,.05,.24-.51,.46-.63,.55,.06,.77-.05,.18-.76,.4-.85,.52,.02,.75-.06,.33-.54,.56-.62,.65,.58,.89,.52,.38-.42,.62-.47,.46-.11,.7-.15,.42-.53,.66-.56,.55,.81,.79,.8,.46-.09,.7-.1,.48-.84,.73-.83,.46,.62,.7,.63,.48-.05,.72-.02,.57-.62,.81-.59,.37,.81,.61,.85,.58-.47,.83-.41,.46,.18,.7,.23,.27,.88,.51,.94,.57-.33,.81-.26Z"/>
  <path class="cls-5" d="M66.41,31.61c.34,.08,.33,.21,.55,.59,.1,.17-.26,.65-.13,.88,.11,.19,.98-.02,1.1,.2,.11,.2-.09,.58,.02,.79,.11,.2,.73,.15,.84,.36s-.13,.6-.02,.81-.41,.72-.31,.93,.66,.22,.76,.43,.62,.27,.71,.49c.09,.23-.55,.73-.48,.94,.08,.24,.26,.43,.31,.64,.05,.21-.09,.45-.07,.71,.01,.22,.37,.45,.36,.7-.01,.22,.12,.49,.09,.73-.03,.22-.46,.4-.5,.64-.04,.22,.48,.58,.43,.81s-.25,.43-.31,.67-1.06,.19-1.13,.42,.07,.49,0,.72,.8,.75,.73,.97-.05,.49-.13,.71-1.12,.1-1.2,.33,.54,.71,.46,.93-.79,.2-.88,.42,.71,.81,.62,1.02-1.25-.02-1.34,.2-.45,.31-.55,.52-.29,.38-.39,.59,.09,.56-.02,.76,.64,.85,.54,1.06c-.1,.2-.63,.2-.75,.43-.11,.2,.24,.68,.11,.9-.12,.2-.4,.33-.53,.55-.12,.2-.77,.08-.9,.28s.38,.85,.24,1.05-.16,.51-.32,.7-1.51-.62-1.67-.43,.03,.63-.14,.81,.08,.74-.1,.91-.63,.02-.82,.18,.01,.76-.18,.91-.22,.54-.42,.69-.83-.34-1.03-.2-.02,.92-.24,1.04-.64-.13-.86-.02-.48,.14-.7,.24-.8-.73-1.03-.65-.09,1.17-.32,1.24-.57-.24-.81-.17-.26,1.05-.5,1.1-.53-.06-.77-.02-.6-.75-.84-.72-.45,.33-.69,.35-.48,.09-.72,.09-.49,.67-.73,.67-.47-1-.71-1.01-.49,.19-.73,.17-.53,.47-.78,.45-.41-.67-.66-.7-.6,.66-.84,.62-.35-.8-.59-.85-.66,.77-.9,.72-.34-.72-.58-.78-.37-.49-.61-.56-.54,.16-.78,.09-.61,.31-.85,.24,.46-1.03,.22-1.11c-.15-.33-.88,.03-.68-.41,.08-.19-.14-.56-.02-.82,.09-.2,1.27,.1,1.39-.13,.1-.2-.4-.71-.28-.94,.1-.2,.45-.29,.57-.52,.11-.2,.14-.46,.26-.68,.11-.2,.77-.11,.89-.33,.12-.2-.56-.87-.43-1.08,.12-.2-.17-.66-.04-.87s1.26,.21,1.39,0,.26-.39,.4-.6-.55-.92-.42-1.13,.88,.01,1.02-.19,.07-.52,.21-.72-.31-.8-.17-1,.42-.3,.56-.49-.04-.63,.1-.83,.32-.37,.47-.57,.36-.34,.51-.53,1.18,.3,1.33,.11,0-.61,.15-.8-.29-.85-.13-1.04,1.22,.38,1.38,.19-.02-.65,.14-.83,0-.64,.16-.83,.1-.56,.26-.75,1.34,.55,1.51,.37-.14-.77,.03-.96-.32-.96-.15-1.14,.86,.14,1.03-.04,1.02,.31,1.19,.14-.79-1.45-.62-1.62,.49-.21,.66-.38,.96,.29,1.14,.12-.39-1.1-.22-1.27,.35-.35,.52-.51,1.26,.64,1.44,.48,.11-.59,.3-.75,.23-.46,.42-.63,.42-.25,.61-.41,.44-.23,.62-.39-.02-.77,.17-.92,.87,.28,1.05,.12-.39-1.24-.2-1.39,1.1,.58,1.29,.42,.53-.11,.72-.26,0-.78,.2-.93,.43-.24,.63-.39,.2-.55,.4-.7,.56-.21,.76-.36Z"/>
  <path class="cls-9" d="M42.56,59.95c.36-.05,.57,.5,.81,.1,.1-.17-.65-.9-.51-1.14,.11-.19,.81-.04,.94-.26,.12-.19,.21-.41,.35-.63,.12-.19,.06-.52,.2-.73,.13-.19,.02-.56,.17-.76,.13-.19,.46-.26,.6-.46,.14-.19,.21-.44,.35-.64s.24-.42,.39-.61,.22-.43,.37-.62,.42-.28,.57-.47,.55-.17,.7-.36,.75,0,.91-.18-.19-.79-.03-.97-.11-.74,.06-.92,.66-.06,.82-.23,.46-.23,.63-.4,.49-.19,.66-.36,.05-.64,.22-.81,.09-.62,.26-.78,1.09,.48,1.27,.31-.29-1.06-.11-1.22,1.03,.48,1.22,.32-.22-1.03-.03-1.18,.32-.39,.51-.53,.65,.06,.85-.08,.46-.18,.66-.31,.27-.46,.48-.59,.52-.08,.73-.21,.57,.03,.78-.09,0-1,.21-1.11,.45-.2,.67-.31,.58,.07,.8-.03,.41-.27,.63-.37,.69,.43,.92,.34,.27-.65,.49-.73,.36-.46,.59-.54,1.02-.1,1.26-.17c-.21-.3-.79-.29-1.25-.23-.2,.02-.38,.6-.65,.64-.22,.03-.42,.34-.68,.38-.23,.04-.52-.26-.77-.21-.23,.04-.4,.46-.65,.5-.23,.04-.42,.29-.67,.34-.23,.05-.66-.8-.9-.75s-.38,.53-.62,.58-.57-.29-.8-.23-.49,.05-.73,.11-.34,.59-.57,.66-.35,.48-.59,.56-.45,.15-.68,.23-.49,.06-.72,.14-.47,.11-.7,.2-.73-.44-.95-.34-.41,.33-.62,.43-.47,.2-.68,.32-.29,.51-.5,.63-.11,.72-.31,.85-.24,.45-.43,.6-.36,.26-.54,.42-.46,.17-.62,.34c-.17,.18-.54,.16-.71,.34s-.15,.53-.31,.71-.33,.36-.49,.54-1.08-.31-1.24-.12,.46,1.05,.3,1.23-.88-.1-1.03,.09,.36,.92,.22,1.1-1.23-.31-1.37-.12,.19,.75,.05,.94-.76,.12-.88,.33,.1,.65,0,.86-.59,.3-.68,.52,0,.57-.08,.8-.31,.49-.35,.73,1.07,.59,1.07,.83-.43,.45-.39,.69-.24,.56-.16,.79,.88,.1,1,.33c.11,.21-.35,.74-.2,.95,.14,.19,.3-.19,.47,0Z"/>
  <path class="cls-9" d="M54.78,17.4c.03-.35,.69-.16,1.12-.27,.2-.05,.6,.71,.87,.66,.21-.04,.25-1.14,.5-1.17,.22-.03,.57,.92,.81,.89,.23-.02,.42-.16,.66-.17,.23,0,.44-.13,.68-.12s.56-1.06,.8-1.04,.41,.67,.64,.72,.59-.36,.83-.29,.53,.09,.75,.17-.03,1.25,.19,1.35,1.03-.84,1.23-.72,.02,.84,.21,.99,.26,.4,.44,.57,.96-.21,1.12-.03,.29,.45,.43,.65c.13,.19,.04,.58,.16,.79s-.76,.91-.66,1.13c.1,.21,1.1,.02,1.19,.25,.09,.23,.54,.35,.61,.58s-1.06,.84-1,1.07,1.29,.17,1.35,.41-1.04,.71-1,.95,.79,.36,.82,.6-.76,.56-.74,.8,1.42,.4,1.43,.64-.31,.52-.31,.76-.33,.49-.34,.73,.23,.51,.21,.75,.13,.52,.1,.76-1.22,.3-1.27,.54,1,.69,.95,.92-.75,.33-.81,.56,.82,.74,.75,.97-1.18,.15-1.26,.38,.3,.62,.22,.85-.6,.29-.69,.51,.47,.74,.37,.96-.08,.53-.18,.74-1.35-.16-1.47,.05,.44,.8,.31,1.01-.86,.02-.99,.23,.33,.8,.19,1,.22,.8,.08,.99-.94-.11-1.09,.07c-.16,.19-.46,.23-.63,.4-.17,.18-.34,.34-.51,.5-.19,.17,.19,1.01,.01,1.16-.2,.16-1.15-.77-1.34-.65-.22,.14,.22,1.52,.02,1.61-.25,.1-.75-.39-.97-.36-.26,.03-.2-.2-.41-.29-.09-.34,.16,.04,.37-.36,.1-.18-.43-.73-.3-.97,.1-.19,.59-.21,.71-.44,.1-.2-.24-.64-.13-.86,.1-.21,.59-.23,.7-.46,.1-.21-.01-.52,.09-.75s.68-.21,.78-.44-.68-.81-.58-1.04,.11-.46,.2-.68,.39-.35,.48-.57,1.2-.05,1.29-.28-1.06-.89-.98-1.12,1.15-.12,1.22-.34-.16-.56-.1-.79,.62-.33,.68-.56,.26-.45,.32-.68-.24-.57-.19-.8-.92-.65-.89-.88,.19-.43,.21-.67,.26-.44,.27-.67,.4-.47,.39-.7c0-.25-.79-.39-.82-.62-.03-.24,.66-.58,.6-.8-.06-.24-.66-.23-.76-.44-.1-.22,.81-.89,.72-1.1s-.23-.42-.32-.64-1.16,.01-1.26-.2-.03-.5-.13-.71-.21-.41-.32-.62,.18-.64,.05-.85-.47-.25-.61-.45-.63-.09-.78-.27,.45-1,.29-1.17-.38-.32-.55-.49-.84,.27-1.03,.12,.17-1.03-.03-1.16-.54-.08-.75-.2-.57,.06-.78-.05-.17-.79-.4-.88-.61,.24-.84,.16-.96-.08-1.19-.15Z"/>
  <path class="cls-9" d="M78.88,34.15c.2-.06,.81-.93,.89-.57,.04,.19-1.19,.63-1.18,.91,0,.22-.14,.42-.15,.69,0,.23-.27,.42-.29,.68-.02,.23,.76,.53,.73,.78-.03,.24-.57,.4-.6,.65s.77,.6,.73,.85-.33,.44-.37,.68-.65,.36-.7,.6,.47,.61,.41,.85-.76,.29-.82,.52,.77,.75,.69,.98c-.08,.24,.07,.58-.02,.8-.1,.24-.93,.14-1.04,.34-.11,.22-.5,.25-.61,.44-.12,.22,.53,.88,.41,1.06-.14,.21-.93-.06-1.05,.11-.15,.2,0,.58-.14,.75-.16,.19-.8-.06-.94,.1-.16,.19,.55,1.06,.43,1.23-.13,.19-.1,.35-.18,.57-.07,.2-1.48,.13-1.52,.38-.03,.2,.36,.47,.32,.73-.03,.21-.29,.39-.34,.64-.04,.22,.98,.66,.93,.9-.05,.22,.16,.53,.11,.77-.06,.22-.05,.49-.11,.72s-.34,.41-.42,.63-1.35,.03-1.43,.25,.48,.67,.39,.89-.68,.2-.78,.42-.24,.37-.35,.58,.99,1.09,.87,1.3-.51,.27-.64,.47-1-.14-1.14,.04,.42,.96,.26,1.14c-.15,.16-.11,.53-.29,.72-.15,.17-.56,.13-.74,.32-.16,.17-.28,.39-.46,.58-.16,.17-.32,.36-.49,.54s-1.34-.59-1.51-.41,.52,1.15,.35,1.33-.89-.19-1.07-.01-.4,.27-.58,.45-.1,.58-.27,.75,.13,.84-.05,1.01-.51,.18-.69,.34-.35,.35-.53,.51-.02,.74-.2,.9-.62,.05-.81,.2-.78-.2-.98-.05-.76-.24-.95-.1-.08,.72-.28,.84c-.21,.14-.11,.78-.31,.89-.22,.12-.93-.83-1.15-.74-.24,.1-.06,1.12-.28,1.19-.25,.07-.46,.62-.69,.63-.26,.02-.35-1.23-.57-1.29s-.38,.21-.57,.05c-.2-.17-.44-.09-.5-.31s-.14-.4-.07-.65c.05-.21,.46-.26,.57-.49,.1-.2-.92-1.1-.78-1.32,.12-.19,.76-.08,.91-.28,.14-.18,.1-.54,.26-.73,.15-.17,.34-.35,.51-.53,.15-.17,.54-.15,.7-.33s.42-.25,.58-.43,.05-.62,.22-.79,.26-.41,.43-.58,.44-.23,.61-.39,1.36,.72,1.53,.56,.18-.5,.35-.67-.3-.99-.13-1.16,.54-.14,.7-.3-.14-.81,.03-.98,1.29,.6,1.46,.43,.21-.48,.37-.65,0-.67,.15-.84-.44-1-.29-1.18c.16-.19,1.4,.53,1.55,.35,.15-.19-.11-.7,.02-.89,.14-.2,.25-.42,.36-.61,.13-.22-.11-.56-.03-.77,.09-.24-.31-.42-.28-.64,.03-.21,1.48-.23,1.53-.49,.04-.22-1.18-.74-1.12-.99,.05-.22,1.74-.02,1.81-.27,.06-.22-1.02-.78-.95-1.02,.07-.22,.93-.2,1.01-.44s-1.34-.96-1.26-1.19,1.27-.06,1.35-.29,.77-.21,.86-.44-.04-.52,.05-.74,.26-.4,.35-.63-.95-.92-.85-1.14,1.13-.03,1.23-.25,.13-.46,.23-.68,.66-.21,.77-.43,.16-.45,.26-.66-1.1-1.1-.99-1.32,1.01-.02,1.13-.23,.73-.14,.85-.35-.87-1.06-.75-1.27,.5-.27,.63-.48,.78-.07,.91-.27-.42-.87-.28-1.07,.91,.07,1.05-.12-.62-1.11-.47-1.29,.42-.32,.58-.5c.17-.18,.31-.43,.48-.59,.18-.17,.89,.22,1.07,.07,.19-.16,.75,.24,.94,.1,.2-.14-.33-1.47-.12-1.58,.22-.12,1.02,1.25,1.24,1.18Z"/>
  <path class="cls-9" d="M56.18,44.01c-.19,.28-.71-.41-1.11-.26-.18,.07-.25,.56-.49,.65-.2,.07-.41,.18-.64,.26-.21,.07-.7-.71-.93-.64-.21,.07-.03,1.47-.25,1.54s-.76-1.03-.98-.97-.41,.21-.63,.26-.23,1.24-.46,1.28-.57-.52-.8-.49c-.24,.03-.47,.75-.69,.75-.24,0-.58-.27-.79-.3-.22-.03-.49-.05-.74-.11-.22-.05-.43-.28-.67-.33-.23-.05-.37-.47-.61-.54s-.37-.47-.6-.53-.39-.41-.62-.47-.4-.4-.64-.46-.54,.14-.78,.09-.44-.35-.67-.4c-.24-.05-.69,.95-.92,.91-.25-.04-.5,.18-.73,.15-.25-.03-.45-1.38-.67-1.38-.26,0-.48,.93-.69,.98-.23,.05-.45,.08-.68,.16s-.48,.05-.7,.15-.6-.15-.81-.04-.45,.15-.66,.27-.08,.82-.29,.93-.49,.06-.7,.17-.14,.81-.35,.91-.69-.42-.92-.34-.41,.23-.64,.29c-.21,.06-.56-.64-.8-.6-.22,.04-.33,.74-.57,.77-.22,.02-.45,.04-.69,.05s-.46,.79-.7,.79-.44-1.31-.68-1.32-.49,.63-.72,.61-.54,.72-.77,.7c-.24-.02-.46-.31-.69-.34-.24-.03-.46-.28-.68-.31-.25-.04-.3-1.04-.5-1.08-.27-.06-1.33,.33-1.5,.27,.09-.34,1.33,.76,1.73,.53,.17-.1,.05-.79,.28-.92,.19-.11,.47-.08,.7-.21,.2-.11,.36-.29,.58-.41,.2-.11,.24-.53,.46-.65,.2-.11,.77,.46,.99,.35s-.02-1.07,.19-1.18,.82,.58,1.03,.48-.19-1.46,.03-1.56,.88,.75,1.1,.65,.49-.06,.71-.16,.1-.97,.32-1.06,.84,.77,1.06,.68,.12-.98,.35-1.06,.45-.18,.68-.26,.64,.38,.86,.3,.34-.54,.56-.6,.58,.32,.81,.26c.24-.06,.54,.33,.77,.29,.24-.05,.32-.91,.55-.94,.24-.03,.47-.64,.69-.65,.23,0,.49,.23,.74,.23,.23,0,.46,.67,.71,.68,.23,0,.45,.39,.69,.41s.5-.52,.75-.5,.47,.08,.71,.1,.44,.38,.68,.41,.61-1.12,.86-1.09,.48,.1,.72,.13,.42,.51,.66,.55,.54-.29,.78-.25,.52-.11,.76-.07,.29,1.17,.52,1.21,.55-.31,.79-.26,.4,.47,.63,.52,.63-.55,.86-.5,.25,1.02,.48,1.08c.24,.06,.58-.29,.8-.22,.24,.07,.72-.66,.94-.59,.24,.08,.08,1.33,.29,1.41,.24,.09,.41,.21,.62,.3,.25,.11,.39,.19,.56,.3,.26,.17,1.1,.12,1.16,.28Z"/>
  <path class="cls-9" d="M60.6,60.25c.1-.01-.38,.67-.76,.99-.15,.13,.44,1.25,.22,1.42-.17,.13-.94-.49-1.15-.34-.18,.13-.07,.72-.28,.86-.19,.13-.96-.63-1.17-.49-.2,.12-.61-.14-.83-.02-.2,.12,.85,2.4,.64,2.53-.2,.12-.87-.55-1.08-.44s-.83-.57-1.05-.45-.48,.09-.7,.19-.61-.22-.83-.12,.02,1.19-.2,1.29-.61-.24-.84-.15-.15,.92-.38,1.01-.93-1.16-1.16-1.08,0,1.44-.23,1.52-.81-1-1.04-.93,.1,2.06-.13,2.12-.9-1.5-1.14-1.44-.43,.18-.67,.23-.47,0-.71,.06-.37,.56-.61,.6-.6-.8-.84-.76-.37,.68-.62,.7-.38,.97-.62,.99-.54-.73-.78-.72-.48-.16-.72-.16-.47,.13-.71,.13-.47,0-.71,0-.52,.84-.76,.82-.43-.79-.67-.81-.66,1.48-.9,1.45c-.19-.02-.59-.28-.87-.37-.2-.06-.3-.66-.55-.76-.21-.08,.17-1.61-.07-1.71-.21-.09-1.17,1.48-1.4,1.38-.21-.1-.05-1.02-.28-1.13-.21-.1-.28-.5-.51-.61-.21-.1-1.18,1.3-1.4,1.19s.31-1.67,.09-1.78-1.04,.96-1.26,.85,.37-1.73,.15-1.84-1.1,1.04-1.32,.93-.45-.18-.67-.3-.22-.61-.43-.73-.81,.46-1.02,.34,.13-1.24-.08-1.36-.42-.26-.63-.38,.07-1.12-.14-1.24-1.52,1.68-1.73,1.56-.21-.62-.42-.74-.52-.08-.73-.2,.23-1.39,.02-1.51-.17-.69-.37-.81c-.22-.13-1.24,1.15-1.44,1.03-.22-.13-.44-.23-.64-.35-.22-.13-.46-.2-.66-.32-.22-.13-.37-.37-.56-.48-.23-.14-.78,.31-.96,.21-.29-.17,.29-1.64,.17-1.71-.22-.13-.65,.1-.85-.03-.22-.14-1.01,.6-1.21,.47-.22-.14-.52-.23-.71-.37-.21-.15-.04-.85-.23-1-.2-.16,.13-.96-.04-1.12-.19-.18-1.46,.72-1.62,.55-.18-.19,1.37-1.9,1.23-2.08-.17-.21-.95,.12-1.07-.08-.14-.23,.49-.73,.41-.94-.1-.25-.86-.16-.9-.39-.05-.26-.59-.48-.59-.7,0-.28-.16-.61-.12-.82,.05-.31,1.21-.56,1.18-.73-.01-.08-.62,1.1-.17,1.22,.19,.05,1.05-2.11,1.31-2.04,.21,.06-.12,1.94,.13,2.02,.21,.07,.37,.34,.61,.41,.21,.07,.39,.29,.63,.37,.22,.07,1.04-1.67,1.27-1.6,.22,.07,.21,.86,.44,.94,.22,.07,.24,.76,.47,.84,.22,.07,.31,.56,.54,.63s1.12-1.89,1.35-1.82-.15,1.96,.08,2.04,.75-.76,.97-.69,.07,1.3,.3,1.37,.74-.76,.97-.68,.6-.34,.83-.26,.54-.13,.76-.05,.52-.08,.75,0,.37,.38,.6,.45,.62-.39,.85-.32,.26,.76,.48,.84,.43,.22,.66,.29-.11,1.98,.12,2.05,.54-.15,.77-.08,.81-1.05,1.04-.98,.45,.14,.68,.21,.27,.76,.5,.83,.53-.12,.76-.05,.44,.2,.67,.26,.65-.56,.88-.5,.36,.48,.59,.54,.51-.07,.74-.01,.68-.7,.91-.64-.07,2.09,.16,2.15,.53-.13,.76-.07,.93-1.71,1.17-1.65,.08,1.62,.31,1.68,.26,.97,.49,1.02,.47,.14,.7,.2,.49,.05,.72,.1,.46,.19,.69,.24,.74-1.09,.98-1.03,.41,.38,.64,.43,.26,1.12,.49,1.17,.99-2.4,1.23-2.35-.03,2.57,.21,2.62,.9-2.12,1.14-2.07,.5-.12,.74-.07,.1,2.18,.33,2.22,.7-1.27,.94-1.23,.42,.41,.65,.44,.41,.53,.64,.56,.6-.8,.83-.77,.45,.25,.68,.28,.53-.48,.77-.46,.44,.26,.68,.29,.35,1.48,.59,1.5,.52-.48,.76-.46,.56-1.51,.8-1.5,.45,.23,.69,.24,.46-.25,.69-.25,.45,.19,.68,.18,.53,2,.77,1.99,.38-1.74,.61-1.76,.43-.19,.66-.21Z"/>
  <path class="cls-2" d="M52.36,42.42c.06,.39-.76,.45-.38-.08,.12-.17,.18-.41,.33-.63,.12-.18,.3-.35,.44-.56,.12-.19,.48-.25,.61-.46,.12-.2,.24-.4,.36-.62,.12-.2,.18-.44,.3-.65,.11-.2-.15-.62-.03-.83s1.08,.04,1.19-.18-.22-.65-.11-.87,.66-.21,.76-.43-.79-.9-.69-1.12,.56-.26,.66-.48,.86-.15,.95-.38-.87-.87-.78-1.09,.06-.47,.14-.7,.98-.15,1.06-.38-.21-.57-.14-.8,1.15-.15,1.22-.38-1.1-.81-1.04-1.05,1.15-.21,1.2-.44-1.14-.74-1.09-.98,1.28-.24,1.32-.48-1.05-.64-1.02-.88,.8-.38,.82-.62,.31-.47,.33-.71-.45-.5-.45-.74,.53-.5,.52-.74-.18-.49-.2-.73-.8-.38-.84-.61c-.04-.24,1.18-.7,1.14-.93-.05-.24-1.53-.19-1.58-.41-.05-.24,.69-.66,.64-.88-.06-.24-.06-.5-.13-.72-.07-.24-.56-.33-.63-.55-.09-.24-.62-.25-.71-.46-.1-.23,.86-.96,.76-1.16-.12-.22-.98,.01-1.11-.17-.15-.21,.56-1.1,.42-1.27-.17-.19-1.01,.28-1.19,.14-.2-.16-.02-.96-.22-1.06-.23-.12-.79,.59-1,.54-.26-.06-.43,.11-.64,.12-.42,.01-.99-.87-1.14-.55s.58,.43,.75,.87c.07,.19-.46,.62-.37,.88,.07,.21,0,.46,.08,.71,.07,.21,.76,.25,.82,.49,.06,.22-.51,.61-.45,.86,.06,.22,.92,.25,.98,.49,.05,.23,.38,.4,.43,.65,.05,.23-.67,.62-.62,.86s.81,.34,.85,.58-.68,.58-.64,.82,.15,.45,.18,.69,.13,.46,.15,.7,.59,.43,.61,.67-1,.54-.99,.78,.13,.46,.14,.7-.03,.46-.02,.71,1.49,.48,1.49,.72-.37,.49-.37,.73-.02,.49-.03,.73-.57,.45-.59,.69,.82,.56,.79,.8-.25,.47-.28,.71-.12,.48-.15,.72-1.13,.3-1.17,.54,.59,.59,.54,.83,.05,.5,0,.74,.33,.58,.28,.82-.06,.5-.12,.73-.19,.46-.26,.7-.12,.48-.19,.72-1.03,.17-1.11,.4-.09,.47-.18,.7-.65,.25-.74,.48,.88,.89,.79,1.11-1.21,0-1.31,.21,.18,.61,.07,.83,.73,.4,.62,.61Z"/>
</svg>