<?xml version="1.0" encoding="UTF-8"?>
<svg xmlns="http://www.w3.org/2000/svg" viewBox="0 0 60 60">
  <defs>
    <style>
      .cls-1 {
        fill: #e44a68;
      }

      .cls-2 {
        fill: #dbaab8;
      }

      .cls-3 {
        isolation: isolate;
      }

      .cls-4 {
        fill: #ef9bb5;
      }

      .cls-5 {
        mix-blend-mode: multiply;
        opacity: .8;
      }

      .cls-6 {
        fill: #f8ccdd;
      }

      .cls-7 {
        fill: #e25d7c;
      }
    </style>
  </defs>
  <g class="cls-3">
    <g id="_圖層_6" data-name="圖層 6">
      <g>
        <path class="cls-1" d="M7.99,28.11c.08-.22,.25-.41,.35-.63s.64-.22,.74-.45-.82-.92-.71-1.14,1.33,.16,1.44-.06-1.03-1.11-.91-1.32,.42-.32,.55-.53,.59-.2,.72-.41-.26-.74-.13-.94,.8-.05,.94-.25-.22-.74-.08-.94,1.17,.25,1.31,.06-.41-.9-.26-1.09,.92,.11,1.07-.08-.19-.76-.04-.95,.33-.35,.48-.54,0-.62,.17-.81,.75,0,.91-.17,.18-.48,.34-.66,.97,.24,1.14,.06,.31-.36,.47-.53-.43-1.07-.26-1.25,1.16,.47,1.33,.3-.58-1.26-.41-1.43,.51-.17,.68-.34,1.03,.4,1.21,.24-.19-.91,0-1.07,.29-.4,.47-.56,.93,.34,1.12,.19,0-.74,.18-.89,.51-.13,.7-.28,.08-.68,.27-.82,.24-.48,.43-.63,.74,.18,.93,.03,.2-.54,.4-.68,.26-.48,.45-.62,.73,.21,.93,.08,0-.9,.2-1.03,.47-.18,.67-.3,.3-.47,.51-.59,.62,.09,.83-.03,.42-.26,.63-.37,.69,.29,.9,.18,.32-.45,.53-.55,.41-.28,.63-.37,.37-.39,.59-.48,.44-.24,.66-.32,.81,.88,1.04,.81,.29-.63,.52-.7,.3-.77,.53-.83,.66,.69,.89,.64,.44-.21,.68-.25,.43-.37,.67-.39,.5,.27,.74,.25,.47,.36,.71,.36,.47-.54,.7-.53,.45,.31,.68,.34,.49-.21,.73-.18,.33,.68,.57,.73,.78-1.14,1.01-1.07,.1,1.22,.32,1.31,.55-.15,.77-.05,.66-.25,.87-.14,.55,.05,.75,.18,.25,.53,.44,.67,0,.79,.18,.94,.88-.31,1.06-.15-.23,.94-.06,1.11,.9-.22,1.06-.04,.17,.5,.32,.68,.26,.41,.4,.6,.5,.23,.64,.42-.11,.66,.02,.86,.41,.3,.54,.5,.56,.23,.68,.44,.6,.23,.71,.45-.93,1.01-.82,1.23,1.1,0,1.2,.22-.71,.84-.62,1.06,.18,.43,.27,.65,.5,.31,.59,.53,.22,.43,.3,.65-.28,.59-.2,.82,.45,.35,.52,.58,.81,.26,.88,.49-.78,.72-.72,.95,0,.49,.05,.72,1.47,.13,1.53,.37-.61,.64-.56,.87,.71,.34,.76,.58-.31,.55-.26,.79,.16,.46,.2,.7-.33,.54-.3,.78,.94,.35,.98,.59-.71,.59-.68,.83,.41,.44,.43,.67-.61,.55-.58,.79-.26,.5-.24,.74,.72,.42,.73,.66,.82,.43,.84,.67-.78,.53-.76,.77-.19,.49-.18,.73,.7,.46,.7,.7-.08,.49-.07,.73-.96,.49-.96,.73,.51,.48,.5,.72,.25,.49,.24,.73-.43,.47-.44,.71,.4,.5,.39,.74-.35,.46-.37,.7,.6,.54,.58,.77,0,.49-.02,.73-.93,.38-.96,.61,.45,.54,.41,.78-.28,.44-.32,.68,.19,.53,.15,.76,.03,.51-.02,.74,.22,.56,.16,.79-.95,.26-1.01,.48,.09,.53,.02,.75c-.07,.23-.46,.35-.54,.56-.08,.23,.43,.7,.34,.92s-.15,.49-.26,.7-1.21-.08-1.32,.13,1.02,1.15,.9,1.36-1.31-.26-1.45-.06,.47,.93,.33,1.12-.42,.31-.58,.49-.74,0-.9,.18-.18,.48-.35,.66-.14,.55-.32,.72-.17,.57-.35,.72-.93-.38-1.12-.23-.19,.55-.38,.69-.16,.63-.37,.77-.8-.36-1-.24-.21,.6-.42,.72-.45,.19-.66,.3-.61-.17-.83-.07-.1,.99-.33,1.08-.87-.91-1.09-.82-.31,.52-.54,.6-.56-.22-.79-.15-.39,.34-.62,.4-.21,1.22-.44,1.27-.74-1.19-.98-1.15-.37,.6-.61,.64-.42,.45-.67,.49-.53-.4-.78-.37-.48,0-.72,.02-.45,.63-.69,.64-.5-.67-.75-.67-.47-.3-.71-.3-.5,.74-.74,.73-.49,0-.73-.02-.48-.1-.72-.12-.56,.61-.81,.58-.42-.6-.66-.64-.58,.46-.82,.42-.3-1.04-.54-1.09-.65,.67-.88,.62-.22-1.15-.45-1.21-.61,.4-.84,.34-.55,.14-.78,.06-.33-.57-.56-.65-.72,.55-.95,.47-.31-.57-.54-.66-.35-.44-.57-.53-.63,.22-.85,.11-.61,.12-.83,.01-.16-.78-.38-.89-.21-.62-.43-.74-.57,.03-.78-.09-.09-.78-.29-.91-.55-.01-.76-.14-.37-.3-.57-.43-.77,.25-.97,.1-.46-.21-.65-.36-.32-.39-.5-.55,.08-.84-.1-1-.69,.05-.87-.11-.52-.17-.69-.34-.6-.1-.77-.28,.27-.92,.1-1.1-.48-.22-.64-.41,.01-.63-.14-.82-.94,.11-1.08-.08,.35-.86,.21-1.05-.3-.37-.43-.57-.85-.04-.98-.24,.03-.59-.09-.8,.18-.64,.07-.86-.41-.33-.51-.54-.06-.49-.15-.71-.04-.49-.12-.71-.21-.42-.28-.65-.19-.43-.26-.66-.39-.38-.45-.62-.72-.34-.77-.57,.44-.58,.4-.82,.41-.53,.38-.77-.35-.43-.37-.67,.25-.48,.24-.72,.13-.46,.13-.7-1.08-.52-1.07-.76-.31-.54-.28-.78,.12-.51,.16-.75,.03-.52,.08-.76,1.49-.15,1.56-.38-.91-.76-.84-.99,.5-.35,.59-.58Z"/>
        <path class="cls-7" d="M24.23,50.83c-.23-.08-.55,.12-.77,.03s-.5-.03-.72-.13-.6,.15-.82,.05-.53-.03-.75-.14-.25-.58-.46-.69-.3-.44-.51-.56-.62,.09-.82-.04-.45-.21-.65-.34-.03-.81-.22-.95-.23-.47-.42-.62-.71,.14-.89,0-.05-.67-.24-.83-.97,.38-1.15,.22-.24-.46-.41-.63-.66-.05-.82-.22,.48-1.1,.32-1.28-.7-.02-.86-.21-.64-.12-.79-.31,.07-.66-.07-.86,.03-.6-.1-.8-.56-.21-.69-.41-.27-.4-.38-.61,.28-.68,.18-.89-.24-.4-.34-.61-1.1-.07-1.19-.29,.55-.72,.48-.94-.04-.47-.11-.7-.75-.3-.8-.54-.22-.46-.26-.7,.09-.52,.06-.75-.36-.47-.37-.71,1.15-.52,1.14-.76-.97-.49-.96-.73,.68-.43,.71-.67-.02-.47,.02-.71-.78-.66-.72-.89,.58-.37,.65-.6,.67-.28,.75-.5,.4-.32,.5-.54c.09-.21-.89-.91-.79-1.13s.26-.41,.37-.63,.36-.36,.47-.57,.64-.18,.76-.39,.04-.52,.17-.73-.17-.67-.04-.87,1.18,.21,1.32,0-.55-.94-.41-1.14,.94,.08,1.08-.12-.02-.6,.12-.79,.36-.32,.51-.51,.17-.46,.32-.65,.29-.38,.44-.56,.33-.34,.48-.53-.03-.65,.12-.83,.34-.35,.49-.53,.73,0,.89-.17,.46-.23,.62-.4-.31-.93-.15-1.11,1.13,.42,1.3,.25-.26-.92-.1-1.09,.71,.04,.88-.13-.22-.9-.05-1.07,.66,0,.84-.17,.35-.33,.53-.49,.23-.46,.41-.62,.68,.05,.86-.11,.17-.53,.35-.69,.53-.11,.71-.26,.16-.56,.34-.71,.12-.63,.31-.77,.61,0,.8-.14,.72,.16,.91,.02,.5-.12,.69-.26-.25-1.2-.06-1.34,.7,.18,.9,.05,.18-.61,.38-.74,.66,.16,.87,.04,.5-.08,.71-.2,.19-.64,.4-.75,.45-.18,.66-.29,.46-.15,.68-.25,.29-.54,.51-.63,.44-.22,.66-.31,.69,.5,.92,.42,.48-.03,.71-.1,.3-.75,.53-.81,.53,.16,.76,.12,.48-.02,.71-.05,.49,.4,.73,.39,.43,.18,.66,.19,.6-1.31,.84-1.28,.52,.18,.75,.23,.25,.87,.48,.95,.71-.4,.92-.3,.35,.41,.56,.54,.31,.42,.5,.56,.75-.11,.93,.05-.27,.97-.11,1.15,.24,.39,.39,.58,.64,.09,.78,.29,.71,.1,.84,.3-.77,1.05-.65,1.25,.93,0,1.04,.22,.34,.36,.45,.58,.03,.52,.13,.74,0,.52,.09,.74,.05,.49,.14,.71-.06,.52,.02,.75,1.01,.15,1.09,.37,.02,.5,.09,.73-.23,.57-.16,.8,.55,.34,.61,.57-.17,.54-.12,.77-.02,.49,.04,.72-.47,.59-.42,.82,.15,.44,.2,.68,.69,.34,.73,.58,.54,.39,.58,.62-.53,.57-.49,.81,.29,.44,.33,.67,.39,.43,.42,.67,.15,.47,.18,.7-.06,.49-.04,.73-.72,.55-.7,.79,.23,.46,.25,.69,.38,.45,.39,.69,.4,.46,.41,.7-.79,.52-.78,.76,.5,.46,.5,.7-.12,.48-.12,.72,.41,.47,.42,.71-1.04,.48-1.04,.72,1.16,.49,1.16,.73-.58,.47-.59,.71-.27,.47-.28,.71,.8,.52,.79,.76-.75,.44-.77,.67,.71,.54,.69,.78,.06,.5,.04,.73-.2,.47-.23,.7-.88,.37-.91,.6,.87,.62,.83,.85-1.11,.3-1.15,.53,.29,.54,.24,.77-.12,.46-.18,.69-.42,.38-.48,.6,.83,.75,.76,.97c-.07,.23-.25,.45-.33,.66-.08,.23-.47,.35-.57,.57s-.03,.54-.14,.75-.73,.15-.85,.36,.46,.88,.33,1.08-.84,0-.99,.2-.8-.06-.96,.12,.15,.76-.02,.93,.08,.78-.1,.95-1.13-.58-1.32-.42-.35,.28-.54,.42-.19,.52-.39,.65,.04,.97-.16,1.09-.69-.22-.9-.11-.47,.12-.69,.22-.3,.5-.52,.59-.45,.18-.67,.27-.32,.57-.55,.64-.62-.33-.85-.26-.56-.25-.79-.19-.25,1.06-.49,1.11-.71-1.13-.94-1.09-.28,1.3-.52,1.33-.56-.54-.8-.52-.48,.07-.72,.09-.49-.34-.73-.33-.47,.03-.71,.03-.48,.25-.72,.24-.48,.07-.72,.06-.44-.47-.68-.49-.5,.21-.74,.18-.56,.49-.79,.45-.43-.41-.66-.45-.47-.11-.71-.16-.31-.76-.55-.81-.5,.09-.74,.03-.5,.04-.73-.03-.58,.24-.81,.16-.21-.84-.44-.92Z"/>
        <path class="cls-4" d="M24.64,49.71c-.23-.08-.5-.03-.72-.12s-.56,.1-.78,0-.52-.03-.74-.14-.58,.05-.79-.06-.39-.33-.6-.45-.53-.08-.74-.21-.35-.38-.55-.51,.11-1.03-.08-1.17-.7,.16-.9,.01-.36-.33-.55-.48-.57-.08-.75-.24-.44-.25-.62-.42,.19-.89,.02-1.07-.38-.29-.55-.47-.42-.27-.57-.45-.22-.44-.36-.63-.68-.1-.82-.3,.44-.88,.31-1.08-.46-.26-.58-.47-.31-.36-.43-.57-.98-.06-1.08-.28-.07-.52-.16-.75,.45-.69,.38-.92-.87-.23-.94-.46,.55-.65,.49-.88-.47-.4-.51-.63,.46-.55,.43-.78-.41-.44-.42-.68-.21-.49-.2-.73,.09-.49,.11-.73,.51-.42,.54-.66-.8-.64-.75-.88,.35-.44,.42-.67,.85-.22,.93-.45-.56-.73-.46-.96c.09-.21,.57-.27,.68-.49,.1-.21-.32-.7-.21-.92s1.07,.04,1.18-.18,.36-.32,.49-.53,.08-.5,.21-.7-.4-.83-.27-1.03,1.02,.11,1.16-.09-.65-1.04-.51-1.24,.59-.17,.74-.36,.65-.11,.8-.3,.31-.36,.46-.55,.1-.54,.25-.72,.44-.26,.59-.45-.2-.81-.05-.99,.98,.22,1.14,.04,.22-.44,.38-.62,.49-.19,.66-.37,.18-.48,.35-.65,.37-.31,.54-.48,.21-.47,.38-.64,.39-.28,.57-.45,.53-.14,.7-.3-.03-.74,.15-.9,.69,.05,.87-.11,.22-.47,.41-.63,.26-.43,.45-.59,.35-.33,.54-.48,.42-.24,.61-.39,.26-.45,.46-.6,.54-.08,.73-.22,.5-.11,.7-.25,.1-.71,.3-.85,.47-.17,.67-.3,.77,.35,.98,.23,.18-.64,.39-.75,.24-.58,.45-.69,.44-.22,.65-.32,.76,.51,.98,.42,.24-.67,.46-.76,.52,.03,.75-.04,.46-.12,.69-.19,.29-.88,.52-.93,.66,.9,.9,.86,.38-.92,.62-.94,.5,.97,.74,.97,.45-.24,.69-.21,.61-.68,.84-.62,.56,0,.79,.08,.18,.83,.4,.94,.66-.16,.86-.03,.24,.51,.42,.67,.34,.34,.51,.51,.15,.5,.31,.69,.39,.28,.53,.48,.37,.31,.51,.52,.55,.23,.67,.43,.47,.3,.58,.52-.64,.87-.54,1.09,.56,.25,.66,.48-.18,.59-.09,.82,1.02,.12,1.1,.34-.48,.69-.4,.92,.5,.34,.57,.57-.03,.51,.04,.74,.65,.32,.71,.55,.07,.48,.13,.72,.11,.47,.16,.71-.18,.53-.13,.77-.15,.52-.11,.76,.62,.37,.66,.61-.79,.62-.75,.86,.7,.38,.74,.61,.38,.44,.41,.68-.48,.55-.45,.79-.41,.53-.39,.77,1.08,.38,1.11,.62-.87,.56-.86,.8,.83,.43,.84,.67-.95,.53-.94,.78,.01,.47,.02,.72,.1,.47,.11,.71,.6,.47,.6,.71-.14,.49-.14,.73-.13,.48-.14,.72-.16,.48-.17,.72,.11,.49,.1,.73,.23,.5,.22,.74-.56,.44-.58,.68,.43,.52,.41,.76-.66,.41-.69,.64-.06,.47-.09,.7,.55,.57,.52,.8,.48,.59,.43,.82-.14,.48-.2,.71-.3,.44-.36,.67-.04,.51-.11,.73c-.07,.24-.07,.51-.15,.73-.08,.23-1.16,.05-1.25,.27s.73,.89,.61,1.11-.64,.22-.76,.42-.35,.35-.49,.54-.71,.04-.87,.22-.29,.34-.45,.52,.01,.66-.16,.83-.21,.5-.39,.65-.77-.22-.96-.08,.08,.95-.12,1.08-.56,.03-.76,.15-.55-.02-.77,.09-.4,.24-.62,.34-.28,.57-.5,.66-.32,.58-.55,.65-.74-.72-.98-.65-.3,.72-.54,.78-.42,.42-.65,.47-.54-.16-.78-.12-.61-.86-.85-.83-.41,.62-.65,.65-.47,.25-.71,.26-.48,.42-.72,.43-.48-1.13-.72-1.14-.46,0-.7-.02-.53,.7-.77,.68-.49,0-.73-.02-.44-.34-.68-.38-.58,.48-.82,.44-.48-.15-.71-.21-.23-1.09-.46-1.15-.46-.09-.69-.16-.43-.19-.66-.27-.49-.02-.72-.1Z"/>
        <path class="cls-6" d="M43.22,38.7c-.08-.22-.54-.14-.71-.28s-.16-.84-.38-.87-.67-.04-.89,.04c-.34,.13-.16,.62-.5,.75s-.35,.1-.69,.23-.54-.38-.88-.25,.03,1.11-.31,1.24-.59-.53-.93-.4-.3,.25-.64,.38-.35,.12-.69,.25-.17,.59-.51,.72-.4-.02-.74,.11-.42-.07-.76,.06-.54-.37-.88-.24-.07,.86-.41,.99-.27,.33-.61,.46-.42-.07-.77,.06-.42-.06-.76,.07-.53-.35-.87-.22-.19,.37-.55,.39c.07-.22,.36-.1,.43-.33s.4-.36,.47-.58-.38-.62-.31-.84-.1-.53-.03-.75,.13-.45,.2-.67,.35-.38,.42-.61,.54-.32,.62-.54-.25-.71-.17-.94c.27-.22,.56,.21,.87,.04s.18-.39,.49-.56,.25-.28,.55-.46,.29-.21,.6-.38,.38-.03,.69-.2,.49,.15,.79-.02,.12-.51,.43-.68,.54,.25,.85,.08,.09-.57,.4-.74,.32-.15,.63-.32,.44,.06,.75-.12,.4,0,.71-.17-.13-.95,.18-1.13,.66,.45,.96,.28,.09-.57,.4-.74,.43,.04,.74-.13,.51,.19,.83,.02,.13-.51,.44-.68c.27-.15,.89-.29,.99-.57s.03-.89-.08-1.19c-.08-.22-.53-.34-.69-.48s-.43-.23-.65-.27-.55-.24-.77-.17c-.34,.12-.22,.46-.56,.58s-.21,.5-.55,.62-.44-.16-.79-.04-.36,.07-.71,.19-.45-.17-.79-.04-.21,.51-.55,.63-.49-.28-.83-.16-.14,.69-.48,.81-.65-.72-.99-.6-.12,.75-.46,.88-.43-.12-.78,0-.27,.79-.64,.8c.08-.24,.14-.9,.22-1.14s-.3-.63-.22-.87,.49-.37,.57-.61-.08-.56,0-.8,.76-.28,.83-.52-.16-.58-.08-.82,.1-.6,.18-.83c.27-.25,.49,0,.8-.2s.43-.03,.74-.23,.35-.14,.67-.35,.3-.22,.61-.43-.02-.7,.3-.9,.23-.32,.54-.53,.3-.22,.61-.43,.52,.1,.83-.11,.17-.43,.48-.64,.33-.18,.65-.39c.2-.13,.41-.15,.5-.37s.56-.53,.49-.78c-.05-.2-.81,0-.95-.14s-.06-.47-.26-.52-.32,.1-.53,.16c-.35,.1-.27,.4-.63,.49s-.41-.11-.77-.01-.45-.25-.81-.16-.46-.28-.82-.18-.18,.13-.55,.09c.08-.25,.34,.1,.42-.14,.08-.26,.46-.41,.53-.64,.09-.26-.43-.7-.35-.93,.09-.27,.11-.54,.18-.76,.09-.28,.16-.53,.23-.74,.15-.47,.23-.33,.35-.69,.08-.25,.45-.52,.41-.73-.04-.24-.48-.37-.63-.54s-.47,.04-.69-.04-.37-.79-.6-.76-.72,.05-.91,.2c-.16,.13-.47,.51-.57,.75-.13,.33,.1,.42-.03,.75s.05,.4-.09,.72-.07,.35-.2,.68-.04,.36-.17,.69-.71,.09-.85,.42,.02,.39-.11,.72,.52,1.21,.17,1.28c-.33,.07-.07-.94-.28-1.2s-.39-.11-.6-.37-.38-.12-.59-.38-.39-.12-.6-.38,.02-.45-.19-.71-.01-.42-.22-.68c-.18-.23-.64,.05-.87-.03-.26-.08-.39-.26-.64-.19s-.44,.17-.62,.36-.18,.38-.23,.65c-.04,.24-.11,.42,0,.69,.14,.33-.25,.41-.08,.81,.08,.19,.43,.3,.54,.54,.09,.2,.25,.4,.35,.63,.09,.21,.44,.32,.54,.54s-.36,.68-.26,.9,.59,.27,.68,.48,.16,.46,.25,.68c.1,.23,.34,.39,.43,.59,.11,.24-.36,.71-.27,.9,.14,.33,.55,.44,.59,.54-.1,.34-.33,.25-.46,.57s.36,.52,.23,.85-.56,.15-.69,.48-.53,.16-.66,.49,.79,.7,.66,1.03-.43,.21-.56,.53,.08,.41-.05,.74-.27,.35-.62,.38-.13-.2-.32-.49-.16-.31-.36-.61-.29-.23-.49-.53-.07-.38-.27-.67-.72,.05-.91-.24-.2-.29-.4-.59,.3-.62,.1-.91,.07-.47-.12-.77-.91,.18-1.11-.12,.06-.46-.14-.76-.31-.22-.51-.52,.49-.75,.3-1.05-.36-.19-.56-.49c-.16-.23-.53-.37-.73-.48-.23-.12-.54,.39-.78,.4s-.29,.06-.51,.19-.6-.07-.73,.14-.38,.42-.39,.68c0,.23,.64,.25,.76,.51,.15,.32,.02,.28,.21,.67,.09,.18,.28,.35,.39,.59,.09,.19-.26,.63-.15,.85,.1,.2,.24,.39,.34,.61,.1,.2,.48,.28,.59,.5,.1,.21,.37,.34,.48,.55s.06,.49,.16,.7-.29,.66-.19,.87,.03,.5,.14,.72,.06,.5,.16,.71,.24,.41,.34,.62,.94,.07,1.05,.28-.56,.8-.46,1.01c.11,.22,1,.04,1.1,.25,.11,.22-.22,.65-.13,.85,.11,.22,.72,.19,.81,.39,.11,.24,.26,.43,.34,.61,.14,.29,0,.75,.06,.88-.09,.35-.66,.15-.8,.48s-.07,.36-.21,.7,.43,.57,.3,.9-.16,.32-.29,.66-.72,.1-.86,.43,.09,.43-.05,.76,.22,.48,.08,.82-.16,.61-.52,.66-.21-.38-.4-.67-.09-.36-.28-.65-.67,.01-.86-.28-.18-.3-.37-.6,.36-.65,.17-.94,.05-.45-.13-.75-.74,.06-.93-.24,.28-.6,.09-.9-.29-.24-.48-.53-.29-.23-.48-.53,.04-.44-.15-.74-.49-.1-.68-.4-.5-.1-.69-.4-.09-.36-.28-.66,.39-.67,.2-.97-.64-.02-.83-.31,.14-.51-.05-.81-.58-.05-.77-.35c-.15-.24-.2-.53-.41-.64-.23-.13-.5,.25-.74,.26s-.44-.16-.66-.04-.43,.2-.57,.41,.05,.43,.04,.69c0,.23-.48,.57-.36,.83,.16,.33,.73-.07,.93,.34,.09,.18,.07,.47,.19,.72,.1,.2,.44,.3,.56,.54,.1,.21,.13,.47,.25,.7,.11,.21-.37,.72-.26,.95,.11,.21,.81,.13,.92,.36s-.28,.68-.17,.91,.37,.36,.48,.58-.06,.57,.05,.79,.86,.11,.97,.33,.12,.49,.23,.71-.17,.64-.06,.86-.02,.56,.09,.78,.2,.45,.31,.67,.59,.25,.7,.47-.14,.62-.03,.84,.97,.07,1.08,.28c.11,.23-.09,.6,.02,.82,.12,.23,.31,.41,.41,.62,.12,.23-.22,.68-.12,.88,.12,.24,.95,.1,1.05,.3,.13,.26-.27,.7-.19,.86-.06,.3-.26,.22-.38,.5s.52,.55,.41,.84-.19,.25-.31,.54c-.09,.25-.84,.31-.86,.54-.03,.26-.06,.61-.02,.85,.05,.25,.14,.62,.26,.83s.66,.19,.84,.36,.18,.68,.4,.8,.73-.6,.98-.55,.36,.08,.61,.06,.64,.73,.87,.64,.5-.31,.7-.47c.18-.15-.08-.72,.07-.94,.13-.19,.66-.19,.75-.44,.14-.42-.28-.43-.1-.97,.08-.24,.12-.76,.23-1.08,.27-.24,.55,.07,.87-.1s.48,.15,.8-.02,.41,0,.72-.16,.25-.28,.57-.45,.23-.33,.54-.49,.19-.4,.51-.56,.54,.27,.86,.1-.09-.94,.22-1.11,.32-.17,.63-.34,.64,.45,.96,.28,.16-.46,.47-.63,.24-.31,.56-.48,.56,.29,.88,.12,.09-.6,.4-.77,.48,.15,.8-.02,.15-.48,.47-.65,.44,.06,.76-.11,.07-.64,.38-.81,.75,.65,1.07,.49,.31-.18,.63-.35,.27-.26,.59-.43,.33-.15,.65-.32,.3-.21,.62-.38c.19-.1,.19-.5,.3-.66s.3-.34,.33-.54,.08-.48,0-.68Z"/>
        <g class="cls-5">
          <path class="cls-2" d="M13,45.76c.08,.09,.16,.44,.45,.52s.4,.12,.49,.2c.17,.17,.33,.34,.51,.5s.44,.22,.62,.38,.41,.25,.59,.4-.04,.8,.15,.95,.59,.03,.78,.17-.07,.92,.13,1.06,.94-.51,1.14-.38,.11,.72,.31,.85,.57,0,.77,.12,.21,.61,.41,.73,.77-.41,.98-.3,.14,.79,.35,.9,.15,.83,.37,.93,.95-.95,1.18-.85,.39,.29,.62,.38,.36,.39,.59,.47,.37,.43,.59,.5,.51,0,.74,.08,.52-.04,.75,.03,.37,.51,.6,.57,.46,.19,.7,.24,.48,.13,.71,.18,.52-.12,.76-.08,.62-.87,.86-.84,.33,1.14,.57,1.17,.48,.11,.72,.13,.5-.12,.74-.1,.53-1.06,.76-1.05c.12,0,.57,.27,.69,.49s-.11,.15,0,.15c.24,0,.46-.53,.7-.54s.51,.88,.74,.86,.46-.31,.7-.33,.51,.23,.74,.21,.56,.47,.79,.43c.12-.02,.28-.55,.36-.84s.11-.1,.23-.12,.51-.64,.66-.46,.09,1.15,.21,1.12c.24-.05,.37-.62,.6-.67s.52,.06,.75,0,.35-.52,.58-.59,.29-.61,.52-.69,.33-.42,.55-.51,.54,.11,.76,.01,.66,.31,.87,.2c.11-.05,.23,.13,.24-.12s.35-.04,.46-.09c.21-.11,.77,.37,.98,.25,.1-.06-.34-.7-.34-.93s.22-.45,.32-.51c.2-.13,.89,.47,1.09,.34s.46-.22,.65-.36-.24-1.09-.06-1.24,.83,.23,1.01,.07c.09-.08-.03-.13-.12-.4s0-.58,.09-.66c.17-.17,.41-.24,.58-.42s.98,.22,1.13,.03,0-.63,.15-.82c.07-.1-.01-.08-.11-.3s-.17-.63-.1-.72,.45,.42,.68,.42,.73-.22,.79-.32c.12-.2-.29-.74-.18-.95s.37-.35,.48-.57c.05-.11,.06-.08-.08-.28s.12-.37,.16-.48,0-.34,.24-.38,.58,.05,.62-.07,.04-.66-.17-.87-.54-.01-.5-.13,.19,.2,.45,.15,.29-.55,.32-.67,.32-.6,.12-.78-.99-.05-.96-.17,.53-.42,.82-.48,.91,.26,.94,.14-.26-.61-.48-.78-.6-.05-.58-.17c.04-.23,.67-.36,.71-.6s-.09-.5-.06-.74c.02-.12-.11,.25,.1,.15s.47-.68,.48-.8-.69,.02-.87-.12,.05-.57,.06-.68c.02-.23,.43-.43,.45-.67s.05-.47,.07-.71,0-.48,.02-.72,.72-.45,.73-.69-.44-.5-.44-.74-.7-.49-.69-.73c0-.12,.38,.06,.62-.06s-.09-.53-.09-.65c0-.24,.24-.48,.23-.72s-.16-.48-.16-.72-.33-.47-.34-.71-.76-.43-.77-.67,.48-.5,.46-.74,.58-.52,.56-.76-.31-.45-.33-.69-.28-.45-.31-.69,.49-.54,.46-.78-.73-.39-.77-.62,.29-.53,.25-.76,.5-.57,.46-.81c-.02-.12-.38-.07-.63-.15s-1.01-.17-1.04-.28c-.04-.24,.78-.63,.73-.87s-.25-.44-.3-.67,.02-.5-.03-.73,.61-.65,.55-.88-1.37-.14-1.43-.37,.5-.63,.43-.86,0-.51-.06-.73,0-.51-.07-.74,.44-.67,.35-.9-.86-.47-.94-.69c-.33,.12-.13,.91-.4,1.14s-.66-.23-.93,0-.09,.44-.37,.67,.01,.57-.26,.8-1.09-.75-1.37-.52,.02,.59-.25,.82,0,.57-.27,.8-.46,0-.74,.24c-.14,.12-.88,.15-.81,.38s.7,.33,.56,.45c-.28,.23-.43,.05-.7,.28s-.29,.22-.56,.44-.14,.39-.42,.62c-.14,.11-.29-.14-.24,.06s-.26,.18-.4,.29,.06-.1-.16-.22-.65,.1-.79,.21c-.27,.23-.19,.33-.47,.56s.31,.94,.04,1.17-.64-.21-.91,.02-.32,.17-.6,.4c-.14,.11-.12-.12-.05,.1s-.48,.1-.62,.21c-.28,.23-.06,.48-.34,.71s.03,.6-.24,.83c-.14,.11-.38-.29-.59-.41s-.14,.37-.28,.49-.71-.04-.65,.18,.39,.35,.25,.47c-.28,.23,.08,.66-.19,.89s-.24,.27-.52,.5-.81-.41-1.09-.18-.15,.38-.43,.61-.27,.24-.55,.47-.4,.08-.67,.31-.74-.32-1.01-.09c-.14,.11-.3,.4-.21,.65s.09,.05-.05,.16c-.28,.23,.24,.85-.03,1.08s-.64-.21-.92,.02-.28,.22-.56,.45,.05,.63-.23,.86c-.14,.12-.74,.29-.96,.16s-.02-.49-.16-.38,.18,0,.24,.22-.65,.14-.79,.25c-.28,.23,.39,1.03,.11,1.26-.14,.12-.8-.05-.99-.14s-.31-.57-.45-.46c-.28,.23-.45,.03-.72,.26s.25,.87-.02,1.1,.23,.84-.04,1.08-.85-.46-1.13-.23-.39,.09-.67,.32-.71-.29-.99-.06c-.14,.11,.65,.54,.74,.78s-.42,.44-.56,.55-.04-.04-.25-.15-.62-.05-.76,.07c-.28,.23-.08,.47-.35,.7s.1,.68-.17,.91-.26,.25-.54,.48-.3,.21-.57,.44-.9-.51-1.17-.28-.44,.03-.72,.26,.55,1.22,.27,1.45-.66-.22-.93,.01-.05,.51-.33,.74-.52-.06-.8,.18-.75-.33-1.03-.1,.05,.62-.23,.85,.61,1.3,.33,1.53-1.07-.72-1.35-.49-.27,.25-.55,.48-.34,.16-.62,.4-.04,.51-.4,.59c-.23,.05-.41-.06-.55,0-.18,.09-.24,.1-.35,.28Z"/>
        </g>
      </g>
    </g>
  </g>
</svg>