<?xml version="1.0" encoding="UTF-8"?>
<svg xmlns="http://www.w3.org/2000/svg" viewBox="0 0 60 60">
  <defs>
    <style>
      .cls-1 {
        fill: #76c073;
      }

      .cls-2 {
        fill: #e44a68;
      }

      .cls-3 {
        fill: #dbaab8;
      }

      .cls-4 {
        isolation: isolate;
      }

      .cls-5 {
        fill: #f1dfdf;
      }

      .cls-6 {
        mix-blend-mode: multiply;
        opacity: .8;
      }
    </style>
  </defs>
  <g class="cls-4">
    <g id="_圖層_6" data-name="圖層 6">
      <g>
        <path class="cls-2" d="M9.57,18.59c.15-.18,.33-.36,.49-.55s.88,.17,1.05,0-.31-.98-.13-1.15,1.05,.43,1.23,.27-.44-1.21-.26-1.37,.72,.11,.91-.05,.74,.17,.93,.02,.27-.42,.46-.57-.17-1.03,.02-1.17,.73,.19,.93,.05,.43-.21,.63-.35,.62,.08,.83-.05,.29-.42,.49-.55,.25-.49,.46-.62,.27-.48,.48-.6,.51-.09,.71-.21,.57,.03,.78-.09,.04-.92,.25-1.03,.5-.09,.72-.2,.5-.09,.71-.2,.26-.55,.48-.66,.51-.07,.72-.17,.74,.43,.95,.33,.6,.18,.82,.08,.38-.32,.6-.41,.19-.76,.42-.85,.65,.33,.88,.24,.19-.83,.41-.92,.54,.07,.77-.01,.24-.77,.46-.85,.67,.45,.9,.37,.47-.1,.7-.17,.47-.12,.7-.19,.33-.58,.57-.64,.66,.56,.89,.5,.4-.36,.63-.42,.37-.53,.61-.58,.59,.42,.82,.37,.29-1.01,.53-1.06,.59,.53,.83,.49,.57,.55,.81,.52,.32-1.26,.56-1.29,.59,.9,.83,.88,.45-.43,.68-.45,.51,.7,.75,.69,.45-1.07,.69-1.07,.48,.83,.72,.84,.51-.66,.74-.65,.49,.08,.72,.11,.55-.43,.79-.4,.27,1.41,.51,1.45,.68-.96,.91-.91,.42,.35,.65,.42,.64-.37,.86-.29,.2,.9,.43,.99,.61-.2,.83-.09,.58-.03,.79,.09,.17,.7,.38,.82,.44,.22,.63,.36,.14,.59,.33,.74,.11,.55,.29,.72,.37,.26,.53,.44,.4,.25,.55,.44,1.13-.25,1.27-.06-.34,.83-.21,1.03,.43,.3,.55,.51-.14,.61-.04,.83,1.11,.02,1.21,.25,.23,.45,.32,.68,.17,.48,.25,.71,.09,.5,.16,.73-.88,.74-.82,.97,.41,.39,.46,.62,.82,.34,.86,.57,0,.5,.03,.74-.26,.53-.23,.77,.32,.46,.35,.7-.53,.53-.52,.77,.05,.47,.06,.72-.5,.49-.5,.73,.26,.47,.26,.71-.27,.47-.28,.71,.93,.5,.92,.74,.07,.49,.06,.73-.38,.46-.4,.7,.46,.53,.44,.77-.06,.49-.08,.73-.98,.37-1.01,.61,.68,.57,.64,.81-1.09,.32-1.13,.56,.05,.49,.01,.72-.11,.46-.16,.7,1.11,.7,1.07,.94-1.24,.24-1.29,.47,.43,.58,.38,.82,.24,.55,.19,.79-.09,.48-.15,.71-.93,.26-.99,.49,.72,.7,.66,.93-.99,.22-1.06,.45,.09,.53,.02,.76,.7,.73,.62,.96-.31,.41-.39,.64-1.38,.03-1.46,.26-.07,.48-.16,.7,.76,.8,.67,1.03-.43,.36-.51,.58,.02,.54-.07,.76-.49,.32-.58,.54-.44,.33-.54,.55,.46,.75,.35,.96-.06,.52-.16,.73-.38,.36-.49,.57-.73,.16-.85,.36,.27,.71,.15,.92-.08,.53-.2,.74-1.36-.29-1.48-.09,.8,1.13,.67,1.32-.43,.31-.57,.49c-.15,.2-.87-.06-1.02,.11-.16,.19,.21,.83,.05,1.01s-.76-.05-.94,.12-.07,.64-.25,.8-.55,.11-.74,.27-.75-.2-.94-.05-.32,.34-.52,.47-.07,.77-.28,.89-.46,.17-.68,.28-.44,.2-.66,.31-.44,.19-.67,.28-.24,.73-.47,.82-.82-.88-1.05-.8-.15,1.14-.39,1.2-.59-.31-.83-.25-.57-.39-.81-.35-.39,.52-.63,.56-.39,.77-.63,.8-.53-.29-.78-.27-.5-.07-.74-.06-.5-.45-.74-.44-.47-.34-.71-.35-.52,1-.76,.98-.41-1.03-.65-1.05-.46-.08-.7-.11-.55,.54-.79,.51-.4-.47-.64-.51-.47-.07-.7-.12-.67,.74-.9,.68-.41-.37-.65-.44-.22-.94-.46-1.01-.81,.96-1.04,.88-.28-.66-.51-.75-.67,.38-.9,.29,.02-1.31-.2-1.41-.43-.17-.65-.27-.55,.07-.77-.04-.69,.29-.91,.18-.53-.06-.74-.18-.49-.14-.7-.26-.09-.79-.29-.92-.11-.7-.32-.83-.4-.25-.6-.39-.57-.02-.76-.17-.88,.34-1.07,.19,.04-.83-.15-.98-.25-.45-.43-.6-.69,.05-.87-.12,.19-.91,.02-1.08-1.08,.41-1.25,.23,.13-.8-.04-.98-.43-.26-.59-.44-.34-.34-.5-.53-.87,.08-1.02-.11-.24-.45-.39-.64-.04-.59-.18-.78,.13-.68,0-.88-.25-.41-.38-.61-.95,.02-1.08-.19-.29-.41-.41-.62,.5-.83,.39-1.05,.16-.61,.05-.82-1.21,.04-1.31-.18,.81-.88,.72-1.1-.25-.4-.34-.63-.82-.21-.9-.44-.12-.47-.19-.71,.5-.65,.44-.88-.83-.28-.89-.51,.49-.6,.44-.84-.57-.38-.61-.61-.28-.45-.31-.69-.46-.45-.49-.69,1.19-.59,1.17-.83-.15-.46-.16-.7-.06-.46-.06-.71,.01-.47,.02-.71-.59-.52-.56-.76-.18-.52-.15-.76,.2-.47,.24-.71,.72-.35,.77-.58,.28-.41,.35-.64-.18-.54-.11-.77,.11-.46,.2-.69-.11-.56-.02-.78-.04-.56,.07-.78,.66-.21,.78-.42,.14-.47,.26-.68,.24-.42,.37-.62,.64-.12,.78-.32-.4-.93-.25-1.11Z"/>
        <g>
          <path class="cls-5" d="M33.95,13.44c.16-.08,.28-.4,.53-.47,.21-.06,.48,.09,.7,.05,.24-.04,.47-.48,.68-.47,.29,.02,.35,.49,.44,.65s.15,.31,0,.55c-.11,.17-.07,.53-.24,.7-.16,.16-.31,.4-.48,.53-.2,.16-.62,0-.78,.09-.19,.1-.38,.22-.57,.24-.22,.02-.41-.08-.59-.16-.19-.08-.53-.1-.62-.28s.02-.48,.07-.68c.04-.19,.27-.28,.41-.44,.13-.15,.26-.22,.46-.32Z"/>
          <path class="cls-5" d="M20.29,15.67c.17-.11,.72,.4,.96,.29,.21-.09,.2-.73,.44-.82s.47-.15,.71-.21,.47-.35,.7-.38c.26-.04,.52,.82,.73,.85,.29,.03,.61-.39,.72-.21s.03,.44-.06,.72c-.07,.2-.4,.27-.54,.5-.12,.19,.36,.85,.21,1.05s-.59,.17-.76,.34-.65,.04-.82,.19c-.2,.18-.39,.26-.56,.37-.22,.14-.25,.53-.48,.6-.25,.08-.49,.07-.72,.07-.26,0-.71,.42-.92,.32-.22-.11-.09-.77-.23-.98s-.75-.36-.75-.61c0-.24,.25-.59,.35-.82,.09-.22,.82-.01,.99-.2,.16-.18-.18-.9,.04-1.04Z"/>
          <path class="cls-5" d="M24.77,26.82c.15-.09,.4-.18,.63-.27,.2-.08,.52,.23,.74,.18,.23-.06,.38-.45,.58-.46,.28-.01,.41,.22,.51,.37s.15,.31,.03,.56c-.09,.17-.14,.42-.29,.6-.14,.17-.58,.05-.73,.2-.18,.17-.27,.33-.42,.42-.27,.17-.44,.77-.71,.77-.32,0-.73-.36-.88-.61s-.15-.69-.03-.99c.1-.25,.32-.6,.59-.77Z"/>
          <path class="cls-5" d="M13.52,25.87c.15-.1,.43-.13,.66-.23,.19-.08,.47,.02,.68-.05s.37-.38,.58-.42c.23-.04,.51-.19,.7-.18,.27,0,.65,.32,.75,.47s-.3,.41-.4,.66c-.07,.18-.12,.36-.25,.55-.12,.17-.01,.54-.16,.7s-.61,.02-.76,.16c-.18,.17-.16,.52-.31,.61-.22,.14-.46,.2-.69,.25-.26,.05-.49,.02-.71-.05-.24-.07-.53-.13-.66-.34s-.48-.54-.44-.8c.03-.23,.3-.55,.45-.76,.13-.19,.35-.46,.57-.6Z"/>
          <path class="cls-5" d="M17.82,37.95c.15-.12,.34-.2,.57-.33,.19-.11,.3-.39,.52-.49s.51,.06,.72,0c.24-.07,.42-.01,.63-.03,.29-.02,.19-.11,.31,.04s.24,.09,.16,.37c-.06,.2,.26,.59,.14,.81-.11,.2-.55,.21-.69,.4s-.11,.51-.26,.68c-.17,.2-.49,.22-.63,.34-.22,.18-.34,.51-.58,.59-.27,.08-.53-.29-.77-.34-.27-.05-.37-.06-.54-.26s-.42-.31-.42-.59c0-.25,.27-.4,.4-.64,.12-.22,.22-.38,.43-.56Z"/>
          <path class="cls-5" d="M27.44,46.37c.06-.18-.1-.51,.04-.75,.12-.19,.19-.46,.33-.65,.16-.2,.41-.34,.57-.47,.23-.19,.46-.05,.63,0s.4,.11,.45,.4c.04,.21-.05,.46-.06,.71,0,.24-.24,.44-.27,.66-.04,.27,.07,.51,0,.68-.08,.21-.27,.27-.4,.42-.15,.17-.1,.56-.28,.63-.21,.08-.36-.29-.56-.36s-.62,.15-.73-.04c-.1-.17-.2-.46-.21-.69,0-.2,.41-.36,.49-.57Z"/>
          <path class="cls-5" d="M39.84,43.02c.07-.16,.31-.31,.46-.51,.12-.17,.41-.22,.56-.38,.16-.17,.33-.26,.49-.37,.23-.16,.44-.75,.6-.68s.22,.58,.25,.86c.02,.2,0,.45-.02,.68-.02,.22-.17,.43-.22,.64-.06,.25-.18,.44-.26,.6-.09,.19-.28,.24-.42,.37-.15,.15-.15,.53-.33,.58-.2,.06-.49,.02-.67-.06s-.38-.29-.47-.48c-.08-.17,.21-.41,.22-.62,0-.19-.28-.45-.19-.64Z"/>
          <path class="cls-5" d="M32.16,34.9c.09-.16,.35-.3,.54-.51,.16-.18,.26-.46,.44-.59,.25-.19,.58-.29,.74-.21s.33,.42,.32,.73c-.01,.22,.02,.53-.04,.76-.07,.27-.2,.55-.29,.72-.13,.24-.48,.35-.68,.45-.23,.12-.4-.1-.62-.22s-.24-.16-.27-.42c-.03-.22-.27-.49-.15-.73Z"/>
          <path class="cls-5" d="M45.56,30.19c.04-.21,.23-.38,.34-.67,.09-.24-.31-.71-.19-.95,.14-.25,.21-.59,.36-.78,.22-.26,.72-.58,.93-.54s.62,.49,.74,.81c.09,.22-.28,.63-.23,.91,.04,.27,.41,.52,.42,.77,0,.31-.29,.58-.33,.79-.04,.25-.24,.39-.36,.59-.13,.22-.18,.42-.38,.54-.21,.13-.35-.11-.59-.15s-.75,.4-.91,.21c-.15-.17,.35-.68,.3-.93-.05-.22-.16-.35-.11-.6Z"/>
          <path class="cls-5" d="M36.99,23.64c.12-.16,.34-.23,.55-.42,.18-.16,.14-.59,.34-.73,.22-.15,.51-.12,.71-.2,.29-.12,.44-.21,.6-.1s.23,.3,.19,.62c-.03,.22,.01,.5-.07,.75-.08,.23-.03,.55-.13,.77-.12,.25-.58,.29-.7,.45-.14,.19-.29,.29-.47,.4-.2,.12-.35,.19-.56,.2-.23,.01-.32-.08-.5-.21s-.57-.14-.62-.37c-.04-.2,.34-.41,.41-.64,.06-.2,.12-.33,.26-.52Z"/>
          <path class="cls-5" d="M44.33,14.13c.09-.2,.47-.29,.65-.53,.15-.21,.33-.38,.52-.57,.2-.21,.37-.34,.58-.48,.28-.18,.51-.71,.71-.62s.46,.53,.51,.87c.04,.24-.12,.56-.14,.84-.02,.27-.16,.53-.22,.78-.06,.3-.42,.44-.51,.63-.1,.24,.07,.59-.11,.75-.19,.17-.51-.07-.74-.02-.24,.06-.52,.67-.75,.56s-.09-.65-.21-.87c-.11-.21-.7-.34-.7-.6,0-.23,.3-.51,.4-.75Z"/>
        </g>
        <g class="cls-6">
          <path class="cls-3" d="M8.78,37.21c.1,.22,1.05,.71,1.16,.93s.22,.41,.33,.62-.38,.74-.26,.95,.32,.37,.45,.57-.14,.65-.01,.85,.74,.1,.87,.3-.03,.6,.11,.8,.68,.1,.82,.29,.3,.36,.45,.55-.28,.85-.13,1.04,.61,.12,.77,.3,.25,.42,.42,.6,.51,.17,.68,.35-.05,.74,.12,.91,.83-.18,1.01-.02,.48,.17,.67,.32,.12,.59,.31,.74,.1,.65,.28,.8,.37,.33,.56,.47,.33,.39,.52,.53,.57,.04,.77,.17,.39,.29,.59,.42,.38,.31,.59,.43,.61-.09,.82,.03,.6-.11,.81,0,.21,.63,.43,.73,.4,.29,.61,.39,.6-.17,.82-.08,.56-.14,.79-.06,.09,1.11,.32,1.19,.66-.43,.89-.36,.37,.43,.59,.5,.41,.35,.64,.41,.51-.02,.74,.04,.4,.49,.63,.54,.69-1.13,.93-1.09,.33,.99,.56,1.02,.46,.29,.7,.31,.5-.08,.74-.06,.5-.11,.73-.1,.49-.57,.73-.57,.46-.11,.7-.12,.5,.53,.74,.51,.54,.51,.78,.48,.36-1.04,.59-1.07,.61,.74,.85,.7,.29-.97,.52-1.02,.61,.48,.84,.42,.47-.13,.7-.2,.47-.12,.7-.2,.6,.17,.82,.08-.02-1.23,.19-1.33,.42-.18,.63-.29,.77,.4,.97,.28,.55-.05,.75-.19-.13-1.02,.06-1.17,.9,.39,1.09,.24,.27-.44,.45-.6,.61-.07,.78-.24-.34-1-.18-1.18,1.03,.26,1.18,.07-.65-1.11-.5-1.31,1.15,.26,1.29,.06-.61-.97-.47-1.18,1.28,.25,1.41,.04-.71-.97-.59-1.18,.45-.28,.56-.5-.1-.58,.01-.8,1-.02,1.11-.24-.58-.8-.47-1.02,.93-.09,1.03-.31-.12-.57-.03-.79,.53-.29,.63-.51,.27-.41,.36-.63-.25-.61-.17-.83-.22-.59-.14-.81,1.17-.09,1.25-.32,.26-.43,.33-.65-.31-.61-.24-.84,.23-.43,.3-.66-.47-.63-.4-.86,.44-.37,.5-.6,.1-.47,.16-.7-.08-.51-.03-.74,.38-.4,.43-.63-.01-.49,.04-.73-.17-.52-.12-.76,.44-.4,.49-.64,.7-.37,.74-.6-.97-.65-.93-.88,.84-.36,.87-.6-.09-.5-.06-.74,.13-.47,.15-.71,.04-.48,.07-.72-.63-.53-.62-.77,.26-.46,.27-.7,.47-.46,.48-.7,.39-.48,.39-.72-.16-.49-.16-.73-.37-.32-.37-.56c-.36,0-.38-.16-.72-.03s-.46-.21-.79-.09-.2,.47-.54,.6-.19,.53-.52,.65-.52-.38-.86-.25-.42-.1-.76,.03-.16,.6-.5,.73-.56-.46-.89-.34,0,1.04-.33,1.17-.39-.03-.73,.1-.22,.43-.56,.56-.6-.6-.94-.47-.04,.92-.37,1.05-.7-.87-1.04-.75-.27,.31-.6,.43-.21,.46-.55,.59-.28,.26-.62,.39-.62-.64-.95-.51,0,1.04-.33,1.17-.31,.18-.65,.31-.33,.15-.66,.28-.69-.84-1.03-.71,0,1.01-.34,1.14-.3,.23-.64,.35-.37,.05-.7,.17-.42-.09-.75,.04-.31,.21-.64,.33-.28,.28-.62,.41-.56-.48-.9-.36-.51-.36-.85-.23,.05,1.17-.28,1.3-.35,.1-.68,.22-.54-.43-.88-.3-.24,.38-.58,.51-.19,.53-.52,.66-.72-.91-1.06-.79,0,1.02-.34,1.14-.35,.1-.69,.22-.63-.67-.97-.54-.34,.11-.68,.24-.08,.81-.42,.94-.22,.43-.56,.56-.41-.08-.75,.05-.6-.57-.94-.45-.4-.04-.74,.08,.06,1.18-.28,1.3-.69-.82-1.02-.7-.3,.23-.63,.36-.21,.48-.54,.6-.25,.36-.59,.49-.38,.02-.72,.14-.48-.25-.81-.12-.38,.02-.71,.14-.21,.46-.55,.58-.23,.42-.57,.55-.53-.38-.87-.26-.42-.1-.76,.03-.29,.25-.63,.38-.21,.48-.55,.61-.19,.53-.53,.65-.61-.61-.95-.49-.44-.15-.78-.03-.32,.18-.66,.31-.07,.38-.43,.33c-.57-.08-.86-.04-1.14,.19Z"/>
        </g>
        <path class="cls-1" d="M15.59,48.08c-.26-.25,.39-.98,0-1.22-.17-.11-.8,.44-1.04,.29-.19-.12,.09-.99-.12-1.14-.19-.13-1.11,.82-1.32,.68-.19-.13-.09-.72-.29-.87s-.83,.33-1.03,.19-.12-.67-.32-.81,.06-.88-.14-1.02-.42-.25-.61-.4-.85,.27-1.03,.11-.3-.41-.48-.57-.08-.64-.25-.81c-.18-.17-1.07,.35-1.23,.18-.17-.18-.16-.59-.3-.77-.16-.2-.22-.53-.34-.72-.14-.23,.77-.88,.7-1.08-.08-.26-1.48-.44-1.43-.66s1.19,.17,1.41,0c.2-.15-.01-.91,.2-1,.22-.1,.44-.52,.67-.57s.58,.48,.81,.49,.64-.65,.88-.59,.34,.71,.56,.8,.33,.41,.54,.52,.69-.17,.88-.04,.23,.52,.41,.67,.18,.51,.35,.67,.3,.35,.46,.53,.83-.05,.97,.14,.01,.61,.14,.8,.82,.12,.93,.32c.12,.22-.76,.92-.68,1.13,.1,.26,.17,.88,.35,1s.78-.17,1.04-.16c.22,0,.62,.48,.88,.42,.22-.05,.36-.66,.6-.74,.22-.07,.5-.05,.73-.14s.61,.21,.84,.12-.03-1.39,.19-1.48,.77,.64,.99,.56c.24-.08,.47-.07,.7-.13,.25-.07,.34-.9,.57-.92,.26-.03,.63-.1,.85-.07,.25,.04,.12,1,.32,1.14,.18,.13,.29,.1,.42,.34,.13,.25-.25,.46-.21,.68,.05,.27,.15,.18,.08,.4-.07,.24,.71,.85,.55,1.05-.15,.19-1.03-.44-1.24-.29-.2,.15-.22,.43-.45,.56s-.04,.97-.26,1.08-.3,.52-.51,.64c-.24,.13-.67-.17-.85-.04-.26,.18-.87,.61-.91,.81,.26,.24,.55,.42,.98,.46,.2,.02,.49-.65,.75-.62,.21,.03,.39,.41,.63,.45,.22,.03,.53-.41,.76-.36,.22,.04,.38,.4,.61,.45s.38,.32,.61,.38,.37,.26,.59,.34,.96-1.17,1.17-1.08,.11,.94,.31,1.05,.49,.12,.67,.26c.19,.14,.22,.46,.38,.62,.16,.18,.87,.03,.98,.24s.2,.59,.24,.83-.35,.56-.37,.8,.32,.62,.25,.85-.89,.15-1.01,.35-.08,.49-.25,.66-.37,.27-.57,.4-.14,.89-.37,.97c-.21,.08-.6-.04-.84,0-.22,.03-.53-.1-.77-.11-.22-.01-.43-.39-.67-.44-.22-.05-.39-.23-.63-.31-.21-.08-.71,.48-.94,.37-.2-.1-.19-.67-.4-.8-.2-.12-.16-.58-.36-.72-.19-.13-.49-.08-.69-.24-.18-.14-.47-.15-.66-.32-.17-.15-.89,.25-1.07,.08-.17-.16,.41-1.08,.24-1.26-.16-.17-.52-.15-.68-.33-.15-.17-.21-.43-.37-.62s-.42-.26-.57-.45-.52-.2-.67-.39,0-.59-.14-.78-.34-.34-.48-.54-.54-.09-.67-.3Z"/>
      </g>
    </g>
  </g>
</svg>