<?xml version="1.0" encoding="UTF-8"?>
<svg id="_圖層_6" data-name="圖層 6" xmlns="http://www.w3.org/2000/svg" viewBox="0 0 200 120">
  <defs>
    <style>
      .cls-1 {
        fill: none;
        stroke: #956134;
        stroke-linecap: round;
        stroke-linejoin: round;
        stroke-width: 8px;
      }

      .cls-2 {
        fill: #efefef;
      }

      .cls-3 {
        fill: #b5b5b6;
      }

      .cls-4 {
        fill: #df4061;
      }
    </style>
  </defs>
  <g>
    <path class="cls-2" d="M191.08,111.24c0-.36-1.66-.36-1.66-.72s.39-.36,.39-.72-1.68-.36-1.68-.72,2.55-.36,2.55-.72,.71-.36,.71-.72-1.93-.36-1.93-.72-.66-.36-.66-.72-1.26-.36-1.26-.72,0-.36,0-.72,5-.36,5-.72-1.68-.36-1.68-.72-1.34-.36-1.34-.72,1.76-.36,1.76-.72,1.12-.36,1.12-.72-1.87-.36-1.87-.72-.02-.36-.02-.72-3.43-.36-3.43-.72,.3-.36,.3-.72,3.89-.36,3.89-.72-2.54-.36-2.54-.72-1-.36-1-.72,2.78-.36,2.78-.72,.78-.36,.78-.72,.15-.36,.15-.72-3.22-.36-3.22-.72,1.34-.36,1.34-.72,.75-.36,.75-.72,1.28-.36,1.28-.72-4.72-.36-4.72-.72,1.91-.36,1.91-.72-1.11-.36-1.11-.72,2.9-.36,2.9-.72-1.79-.36-1.79-.72,.96-.36,.96-.72,.25-.36,.25-.72,.82-.36,.82-.72-.78-.36-.78-.72-2.64-.36-2.64-.72,.91-.36,.91-.72,1.28-.36,1.28-.72-2.71-.36-2.71-.72,5.63-.36,5.63-.72-2.03-.36-2.03-.72-.53-.36-.53-.72-.06-.36-.06-.72,.66-.36,.66-.72-1.6-.36-1.6-.72,3.59-.36,3.59-.72-3.58-.36-3.58-.72,.58-.36,.58-.72,3-.36,3-.72-2.32-.36-2.32-.72,.21-.36,.21-.72-3.39-.36-3.39-.72,3.03-.36,3.03-.72,.79-.36,.79-.72,1.64-.36,1.64-.72-2.05-.36-2.05-.72-3.45-.36-3.45-.72,4.91-.36,4.91-.72-2.67-.36-2.67-.72-.97-.36-.97-.72,.55-.36,.55-.72-1.49-.36-1.49-.72,5.16-.36,5.16-.72-4.29-.36-4.29-.72,4.31-.36,4.31-.72-.54-.36-.54-.72-2.2-.36-2.2-.72-.96-.36-.96-.72,.09-.36,.09-.72,2.95-.36,2.95-.72-4.63-.36-4.63-.72,1.27-.36,1.27-.72-.35-.36-.35-.72,1.88-.36,1.88-.72-1.74-.36-1.74-.72,2.38-.36,2.38-.72,.44-.36,.44-.72-2.53-.36-2.53-.72,.78-.36,.78-.72,2.71-.36,2.71-.72-5.51-.36-5.51-.72,4.01-.36,4.01-.72,.14-.36,.14-.72-3.89-.36-3.89-.72,2.41-.36,2.41-.72,2.31-.36,2.31-.72-4.42-.36-4.42-.72,4.61-.36,4.61-.72-2.2-.36-2.2-.72-.54-.36-.54-.72,2.86-.36,2.86-.72-1.74-.36-1.74-.72-.26-.36-.26-.72,2.03-.36,2.03-.72-1.13-.36-1.13-.72-.63-.36-.63-.72,1.94-.36,1.94-.72-1.35-.36-1.35-.72,.07-.36,.07-.72-.12-.36-.12-.72-2.35-.36-2.35-.72-.98-.36-.98-.72,4.84-.36,4.84-.72-3.15-.36-3.15-.72,2.7-.36,2.7-.72-2.21-.36-2.21-.72-2.55-.36-2.55-.72,2.48-.36,2.48-.72-2.49-.36-2.49-.72,2.47-.36,2.47-.72,2.02-.36,2.02-.73-4.36-.36-4.36-.72,4.01-.36,4.01-.72,.12-.36,.12-.72-3.37-.36-3.37-.72,3.05-.36,3.05-.72-3-.36-3-.73,1.92-.36,1.92-.73,1.91-.36,1.91-.72,.52-.36,.52-.72-5.01-.36-5.01-.72,3.35-.36,3.35-.72,.69-.36,.69-.72,.77-.36,.77-.72-.63-.36-.63-.72-.7-.36-.7-.73-3.29-.36-3.29-.72-.22-.36-.22-.72,3.83-.36,3.83-.72-3.76-.36-3.76-.73,4.26-.36,4.26-.73,.49-.36,.49-.73-4.87-.36-4.87-.73,.9-.36,.9-.73,.21-.36,.21-.73,1.13-.36,1.13-.73,1.07-.36,1.07-.73,1.4-.37,1.4-.73-1-.37-1-.73,.98-.37,.98-.73"/>
    <path class="cls-1" d="M191.08,111.24c0-.36-1.66-.36-1.66-.72s.39-.36,.39-.72-1.68-.36-1.68-.72,2.55-.36,2.55-.72,.71-.36,.71-.72-1.93-.36-1.93-.72-.66-.36-.66-.72-1.26-.36-1.26-.72,0-.36,0-.72,5-.36,5-.72-1.68-.36-1.68-.72-1.34-.36-1.34-.72,1.76-.36,1.76-.72,1.12-.36,1.12-.72-1.87-.36-1.87-.72-.02-.36-.02-.72-3.43-.36-3.43-.72,.3-.36,.3-.72,3.89-.36,3.89-.72-2.54-.36-2.54-.72-1-.36-1-.72,2.78-.36,2.78-.72,.78-.36,.78-.72,.15-.36,.15-.72-3.22-.36-3.22-.72,1.34-.36,1.34-.72,.75-.36,.75-.72,1.28-.36,1.28-.72-4.72-.36-4.72-.72,1.91-.36,1.91-.72-1.11-.36-1.11-.72,2.9-.36,2.9-.72-1.79-.36-1.79-.72,.96-.36,.96-.72,.25-.36,.25-.72,.82-.36,.82-.72-.78-.36-.78-.72-2.64-.36-2.64-.72,.91-.36,.91-.72,1.28-.36,1.28-.72-2.71-.36-2.71-.72,5.63-.36,5.63-.72-2.03-.36-2.03-.72-.53-.36-.53-.72-.06-.36-.06-.72,.66-.36,.66-.72-1.6-.36-1.6-.72,3.59-.36,3.59-.72-3.58-.36-3.58-.72,.58-.36,.58-.72,3-.36,3-.72-2.32-.36-2.32-.72,.21-.36,.21-.72-3.39-.36-3.39-.72,3.03-.36,3.03-.72,.79-.36,.79-.72,1.64-.36,1.64-.72-2.05-.36-2.05-.72-3.45-.36-3.45-.72,4.91-.36,4.91-.72-2.67-.36-2.67-.72-.97-.36-.97-.72,.55-.36,.55-.72-1.49-.36-1.49-.72,5.16-.36,5.16-.72-4.29-.36-4.29-.72,4.31-.36,4.31-.72-.54-.36-.54-.72-2.2-.36-2.2-.72-.96-.36-.96-.72,.09-.36,.09-.72,2.95-.36,2.95-.72-4.63-.36-4.63-.72,1.27-.36,1.27-.72-.35-.36-.35-.72,1.88-.36,1.88-.72-1.74-.36-1.74-.72,2.38-.36,2.38-.72,.44-.36,.44-.72-2.53-.36-2.53-.72,.78-.36,.78-.72,2.71-.36,2.71-.72-5.51-.36-5.51-.72,4.01-.36,4.01-.72,.14-.36,.14-.72-3.89-.36-3.89-.72,2.41-.36,2.41-.72,2.31-.36,2.31-.72-4.42-.36-4.42-.72,4.61-.36,4.61-.72-2.2-.36-2.2-.72-.54-.36-.54-.72,2.86-.36,2.86-.72-1.74-.36-1.74-.72-.26-.36-.26-.72,2.03-.36,2.03-.72-1.13-.36-1.13-.72-.63-.36-.63-.72,1.94-.36,1.94-.72-1.35-.36-1.35-.72,.07-.36,.07-.72-.12-.36-.12-.72-2.35-.36-2.35-.72-.98-.36-.98-.72,4.84-.36,4.84-.72-3.15-.36-3.15-.72,2.7-.36,2.7-.72-2.21-.36-2.21-.72-2.55-.36-2.55-.72,2.48-.36,2.48-.72-2.49-.36-2.49-.72,2.47-.36,2.47-.72,2.02-.36,2.02-.73-4.36-.36-4.36-.72,4.01-.36,4.01-.72,.12-.36,.12-.72-3.37-.36-3.37-.72,3.05-.36,3.05-.72-3-.36-3-.73,1.92-.36,1.92-.73,1.91-.36,1.91-.72,.52-.36,.52-.72-5.01-.36-5.01-.72,3.35-.36,3.35-.72,.69-.36,.69-.72,.77-.36,.77-.72-.63-.36-.63-.72-.7-.36-.7-.73-3.29-.36-3.29-.72-.22-.36-.22-.72,3.83-.36,3.83-.72-3.76-.36-3.76-.73,4.26-.36,4.26-.73,.49-.36,.49-.73-4.87-.36-4.87-.73,.9-.36,.9-.73,.21-.36,.21-.73,1.13-.36,1.13-.73,1.07-.36,1.07-.73,1.4-.37,1.4-.73-1-.37-1-.73,.98-.37,.98-.73"/>
  </g>
  <g>
    <path class="cls-2" d="M12.73,111.24c0-.36,.52-.36,.52-.72s-5.01-.36-5.01-.72,3.35-.36,3.35-.72,.69-.36,.69-.72,.77-.36,.77-.72-.63-.36-.63-.72-.7-.36-.7-.72-3.29-.36-3.29-.72-.22-.36-.22-.72,3.83-.36,3.83-.72-3.76-.36-3.76-.72,4.26-.36,4.26-.72,.49-.36,.49-.72-4.87-.36-4.87-.72,.9-.36,.9-.72,.21-.36,.21-.72,1.13-.36,1.13-.72,1.07-.36,1.07-.72,1.4-.36,1.4-.72-1-.36-1-.72,.98-.36,.98-.72-4.02-.36-4.02-.72,.21-.36,.21-.72-.56-.36-.56-.72,2.97-.36,2.97-.72-3.49-.36-3.49-.72,4.25-.36,4.25-.72,.58-.36,.58-.72-1.56-.36-1.56-.72-2.05-.36-2.05-.72,.66-.36,.66-.72,1.66-.36,1.66-.72-.57-.36-.57-.72-2.17-.36-2.17-.72,1.97-.36,1.97-.72-1.16-.36-1.16-.72-.7-.36-.7-.72,3.07-.36,3.07-.72-1.51-.36-1.51-.72-1.68-.36-1.68-.72,.89-.36,.89-.72,2.96-.36,2.96-.72,.12-.36,.12-.72-2.93-.36-2.93-.72-.84-.36-.84-.72,1-.36,1-.72-.74-.36-.74-.72-.22-.36-.22-.72,2.15-.36,2.15-.72,1.77-.36,1.77-.72,.01-.36,.01-.72-.97-.36-.97-.72-4.39-.36-4.39-.72,2.95-.36,2.95-.72,.76-.36,.76-.72-.78-.36-.78-.72,2.9-.36,2.9-.72-.82-.36-.82-.72-4.58-.36-4.58-.72,5.24-.36,5.24-.72-2.14-.36-2.14-.72-1.26-.36-1.26-.72,3.42-.36,3.42-.72-4.93-.36-4.93-.72,.51-.36,.51-.72,4.49-.36,4.49-.72-3.17-.36-3.17-.72-.03-.36-.03-.72,2.71-.36,2.71-.72-3.17-.36-3.17-.72-.73-.36-.73-.72,4.16-.36,4.16-.72-1.78-.36-1.78-.72-.75-.36-.75-.72-2.63-.36-2.63-.72,2.85-.36,2.85-.72-1.96-.36-1.96-.72-.12-.36-.12-.72,.9-.36,.9-.72-1.95-.36-1.95-.72,4.05-.36,4.05-.72,.31-.36,.31-.72-2.93-.36-2.93-.72,.57-.36,.57-.72,.22-.36,.22-.72,1.72-.36,1.72-.72-.41-.36-.41-.72,2.19-.36,2.19-.72-4.06-.36-4.06-.72,3.09-.36,3.09-.72-.44-.36-.44-.72-1.55-.36-1.55-.72,2.31-.36,2.31-.72-.25-.36-.25-.72,.46-.36,.46-.72-4.54-.36-4.54-.72,.63-.36,.63-.72,1.64-.36,1.64-.72-.55-.36-.55-.72,1.34-.36,1.34-.72-.88-.36-.88-.72-1.85-.36-1.85-.72-.95-.36-.95-.72,3.14-.36,3.14-.72-2.71-.36-2.71-.72-.48-.36-.48-.72,3.55-.36,3.55-.72-2.44-.36-2.44-.72,3.12-.36,3.12-.72-4.37-.36-4.37-.72,4.17-.36,4.17-.72-3.6-.36-3.6-.72,2.55-.36,2.55-.73-.92-.36-.92-.72-.14-.36-.14-.72,1.28-.36,1.28-.72,1.8-.36,1.8-.72-5.22-.36-5.22-.72,2.16-.36,2.16-.73,3.81-.36,3.81-.73-1.25-.36-1.25-.72,.08-.36,.08-.72-2.75-.36-2.75-.72-.42-.36-.42-.72,4.32-.36,4.32-.72-4-.36-4-.72-1.8-.36-1.8-.72,4.61-.36,4.61-.73,.48-.36,.48-.72-4.86-.36-4.86-.72,.58-.36,.58-.72,.99-.36,.99-.73-1.05-.36-1.05-.73,.69-.36,.69-.73-.95-.36-.95-.73,3.37-.36,3.37-.73,1.28-.36,1.28-.73-.94-.36-.94-.73,1.15-.36,1.15-.73-5.22-.37-5.22-.73,5.77-.37,5.77-.73-.98-.37-.98-.73"/>
    <path class="cls-1" d="M12.73,111.24c0-.36,.52-.36,.52-.72s-5.01-.36-5.01-.72,3.35-.36,3.35-.72,.69-.36,.69-.72,.77-.36,.77-.72-.63-.36-.63-.72-.7-.36-.7-.72-3.29-.36-3.29-.72-.22-.36-.22-.72,3.83-.36,3.83-.72-3.76-.36-3.76-.72,4.26-.36,4.26-.72,.49-.36,.49-.72-4.87-.36-4.87-.72,.9-.36,.9-.72,.21-.36,.21-.72,1.13-.36,1.13-.72,1.07-.36,1.07-.72,1.4-.36,1.4-.72-1-.36-1-.72,.98-.36,.98-.72-4.02-.36-4.02-.72,.21-.36,.21-.72-.56-.36-.56-.72,2.97-.36,2.97-.72-3.49-.36-3.49-.72,4.25-.36,4.25-.72,.58-.36,.58-.72-1.56-.36-1.56-.72-2.05-.36-2.05-.72,.66-.36,.66-.72,1.66-.36,1.66-.72-.57-.36-.57-.72-2.17-.36-2.17-.72,1.97-.36,1.97-.72-1.16-.36-1.16-.72-.7-.36-.7-.72,3.07-.36,3.07-.72-1.51-.36-1.51-.72-1.68-.36-1.68-.72,.89-.36,.89-.72,2.96-.36,2.96-.72,.12-.36,.12-.72-2.93-.36-2.93-.72-.84-.36-.84-.72,1-.36,1-.72-.74-.36-.74-.72-.22-.36-.22-.72,2.15-.36,2.15-.72,1.77-.36,1.77-.72,.01-.36,.01-.72-.97-.36-.97-.72-4.39-.36-4.39-.72,2.95-.36,2.95-.72,.76-.36,.76-.72-.78-.36-.78-.72,2.9-.36,2.9-.72-.82-.36-.82-.72-4.58-.36-4.58-.72,5.24-.36,5.24-.72-2.14-.36-2.14-.72-1.26-.36-1.26-.72,3.42-.36,3.42-.72-4.93-.36-4.93-.72,.51-.36,.51-.72,4.49-.36,4.49-.72-3.17-.36-3.17-.72-.03-.36-.03-.72,2.71-.36,2.71-.72-3.17-.36-3.17-.72-.73-.36-.73-.72,4.16-.36,4.16-.72-1.78-.36-1.78-.72-.75-.36-.75-.72-2.63-.36-2.63-.72,2.85-.36,2.85-.72-1.96-.36-1.96-.72-.12-.36-.12-.72,.9-.36,.9-.72-1.95-.36-1.95-.72,4.05-.36,4.05-.72,.31-.36,.31-.72-2.93-.36-2.93-.72,.57-.36,.57-.72,.22-.36,.22-.72,1.72-.36,1.72-.72-.41-.36-.41-.72,2.19-.36,2.19-.72-4.06-.36-4.06-.72,3.09-.36,3.09-.72-.44-.36-.44-.72-1.55-.36-1.55-.72,2.31-.36,2.31-.72-.25-.36-.25-.72,.46-.36,.46-.72-4.54-.36-4.54-.72,.63-.36,.63-.72,1.64-.36,1.64-.72-.55-.36-.55-.72,1.34-.36,1.34-.72-.88-.36-.88-.72-1.85-.36-1.85-.72-.95-.36-.95-.72,3.14-.36,3.14-.72-2.71-.36-2.71-.72-.48-.36-.48-.72,3.55-.36,3.55-.72-2.44-.36-2.44-.72,3.12-.36,3.12-.72-4.37-.36-4.37-.72,4.17-.36,4.17-.72-3.6-.36-3.6-.72,2.55-.36,2.55-.73-.92-.36-.92-.72-.14-.36-.14-.72,1.28-.36,1.28-.72,1.8-.36,1.8-.72-5.22-.36-5.22-.72,2.16-.36,2.16-.73,3.81-.36,3.81-.73-1.25-.36-1.25-.72,.08-.36,.08-.72-2.75-.36-2.75-.72-.42-.36-.42-.72,4.32-.36,4.32-.72-4-.36-4-.72-1.8-.36-1.8-.72,4.61-.36,4.61-.73,.48-.36,.48-.72-4.86-.36-4.86-.72,.58-.36,.58-.72,.99-.36,.99-.73-1.05-.36-1.05-.73,.69-.36,.69-.73-.95-.36-.95-.73,3.37-.36,3.37-.73,1.28-.36,1.28-.73-.94-.36-.94-.73,1.15-.36,1.15-.73-5.22-.37-5.22-.73,5.77-.37,5.77-.73-.98-.37-.98-.73"/>
  </g>
  <g>
    <polygon class="cls-3" points="183.5 80.4 182.79 77.76 182.07 79.73 181.35 77.92 180.63 81.51 179.91 77.38 179.19 80.56 178.47 80.1 177.75 81.24 177.03 77.22 176.31 79.78 175.6 81.96 174.88 82.11 174.16 81.91 173.44 82.35 172.72 78.97 172 77.78 171.28 77.51 170.57 79.6 169.85 79.87 169.13 81.46 168.41 81.87 167.7 81.79 166.98 79.69 166.26 80.47 165.55 80.09 164.83 79.11 164.11 82.18 163.4 80.14 162.68 77.48 161.97 79.19 161.25 77.77 160.54 81 159.82 81.06 159.1 77.42 158.39 79.18 157.67 77.17 156.96 80.77 156.24 81.32 155.53 78.16 154.81 80.94 154.1 77.55 153.38 77.42 152.67 78.95 151.95 78.96 151.24 79.4 150.52 78.13 149.81 77.3 149.09 80.78 148.38 80.14 147.66 77.7 146.95 81.75 146.23 79.18 145.52 81.64 144.8 82 144.08 78.08 143.37 77.65 142.65 77.66 141.94 78.49 141.22 81.92 140.5 79.71 139.79 81.46 139.07 79.01 138.35 78.62 137.63 77.21 136.92 77.81 136.2 80.3 135.48 81.08 134.76 77.34 134.04 78.07 133.32 80.21 132.6 77.83 131.88 81.98 131.16 78.66 130.44 80.45 129.72 80.67 129 80.61 128.28 79.9 127.56 79.59 126.84 81.63 126.12 77.72 125.4 78.39 124.68 78.42 123.96 80.4 123.24 81.79 122.52 77.16 121.8 79.91 121.08 77.65 120.37 82.16 119.65 80.39 118.93 79.12 118.21 77.5 117.49 80.39 116.77 79.43 116.06 78.83 115.34 80.37 114.62 79 113.9 77.43 113.19 78.06 112.47 77.24 111.75 77.98 111.03 78.73 110.31 79.93 109.6 80.3 108.88 78.77 108.16 79.6 107.44 82.12 106.72 77.42 106 81.58 105.28 77.8 104.56 80.27 103.84 79.78 103.12 81.02 102.4 78.41 101.68 79.91 100.96 80.24 100.24 78.32 99.52 81.33 98.8 77.31 98.07 81.01 97.35 77.42 96.63 81.37 95.91 80.01 95.19 78.08 94.47 77.79 93.75 77.24 93.03 79.29 92.31 80.29 91.59 79.73 90.87 77.42 90.15 77.32 89.43 77.55 88.71 77.26 87.99 77.59 87.27 81.36 86.55 78.88 85.83 81.32 85.11 78.27 84.39 81.87 83.67 81.15 82.95 78.55 82.23 79.72 81.51 77.2 80.79 78.5 80.06 81.09 79.34 79.81 78.62 81.16 77.9 80.5 77.18 81.45 76.46 81.68 75.73 79.49 75.01 77.53 74.29 78.55 73.57 77.9 72.85 81.04 72.13 82.29 71.41 80.43 70.69 82.28 69.97 79.2 69.25 78.54 68.52 77.62 67.8 79.48 67.08 80.17 66.36 81.32 65.63 80.89 64.91 81.73 64.19 78.11 63.47 80.45 62.75 77.65 62.04 82.1 61.32 79.99 60.6 77.14 59.88 81.14 59.16 77.69 58.44 81.68 57.71 82.05 56.99 78.59 56.27 81 55.55 81.99 54.83 80.6 54.11 79.17 53.39 78.01 52.67 79.17 51.95 80.89 51.23 78.71 50.51 82.21 49.79 77.55 49.07 78.15 48.35 77.53 47.63 81.97 46.91 80.88 46.19 78.1 45.46 81.14 44.74 78.78 44.01 78.81 43.29 77.3 42.57 80.66 41.85 78.29 41.13 78.11 40.4 78.65 39.68 82.15 38.96 81.27 38.23 77.62 37.51 77.65 36.78 79.66 36.06 81.37 35.34 81.69 34.61 81.42 33.89 79.04 33.17 79.24 32.44 77.7 31.72 80.1 30.99 77.8 30.27 82.35 29.55 77.97 28.83 80.77 28.11 81.28 27.38 78.52 26.65 81.82 25.93 80.72 25.21 81.97 24.48 81.35 23.75 79.45 23.03 79.44 22.3 82.13 21.57 80.02 20.84 77.01 20.12 81.26 19.39 81.28 18.66 77.36 17.93 82.03 17.2 80.7 16.46 81.83 15.61 80.81 14.46 81.85 14.59 78.69 14.78 76.94 12.66 79.24 12.66 78.03 10.88 78.68 9.59 78.48 9.71 77.28 10.1 76.15 11.6 74.94 9.81 74.54 8.78 73.74 9.18 73.02 9.73 72.3 11.8 71.58 8.15 70.86 10.06 70.14 11.84 69.42 8.22 68.7 8.62 67.99 11.31 67.27 9.69 66.55 12.9 65.84 8.8 65.12 10.82 64.41 7.91 63.69 11.32 62.97 10.36 62.26 12.21 61.54 9.61 60.82 10.87 60.1 10.75 59.38 10.1 58.66 12.41 57.95 10.57 57.23 8.02 56.51 9.42 55.8 12.12 55.08 8.68 54.37 7.95 53.65 8.08 52.93 8.39 52.22 8.55 51.5 10.68 50.78 9.32 50.07 9.45 49.35 12.38 48.62 10.14 47.9 9.1 47.18 9.1 46.46 11.5 45.75 10.2 45.03 8.82 44.31 8.06 43.59 11.23 42.87 10.3 42.15 9.58 41.43 9.84 40.71 13.03 39.99 12.82 39.27 11.12 38.55 9.71 37.83 8.07 37.11 10.44 36.39 9.54 35.66 8.86 34.94 12.21 34.22 10.89 33.5 11.39 32.78 7.86 32.07 8.86 31.35 9.19 30.63 9.96 29.9 11.57 29.18 12.05 28.46 13.07 27.74 11.23 27.02 10.34 26.29 8.8 25.57 10.14 24.85 12.17 24.12 12.56 23.4 9.39 22.68 9.42 21.95 8.36 21.22 12.97 20.49 12.71 19.76 8.16 18.76 8.76 17.86 9.65 17.18 9.13 15.91 11.93 16.63 11.44 15.31 12.25 15 12.26 13.68 14.48 15.97 15.12 16.22 14.69 12.54 15.44 11.35 16.46 11.34 17.18 12.51 17.9 13.2 18.62 13.8 19.34 12.55 20.06 14.56 20.77 13.31 21.49 13.89 22.21 11.91 22.93 13.22 23.65 14.59 24.37 13.72 25.09 15.82 25.81 12.31 26.53 15.17 27.25 15.78 27.97 14.59 28.68 14.75 29.4 15.82 30.12 14.72 30.84 16.22 31.55 14.6 32.27 14.29 32.99 13.47 33.7 13.39 34.42 12.71 35.14 11.58 35.85 16.06 36.57 13.52 37.29 12.12 38 13.85 38.72 16.09 39.43 12.44 40.15 11.31 40.86 16.31 41.58 13.91 42.29 14.7 43.01 15.8 43.72 11.98 44.44 11.74 45.15 13.23 45.87 16.33 46.58 11.66 47.3 14.3 48.01 15.41 48.73 13.27 49.44 15.92 50.16 16.41 50.87 11.91 51.59 14.03 52.31 11.39 53.02 15.94 53.74 13.1 54.45 13.22 55.17 12.69 55.88 12.08 56.6 11.96 57.32 11.22 58.03 12.88 58.75 16.46 59.46 13.99 60.18 11.22 60.9 14.17 61.62 15.78 62.33 14.87 63.05 12.72 63.77 12.37 64.49 15.34 65.21 12.61 65.92 11.27 66.64 15.66 67.36 16.38 68.08 15.34 68.8 11.82 69.52 14.14 70.24 13.48 70.97 13.57 71.69 11.78 72.41 12.79 73.13 15.44 73.85 12.05 74.57 14.74 75.29 12.24 76.01 14.74 76.73 15.12 77.45 14.99 78.17 12.4 78.88 16.35 79.6 12.29 80.32 13.58 81.04 14.46 81.76 13.45 82.47 13.48 83.19 11.64 83.91 15.94 84.63 15.5 85.35 14.52 86.06 14.84 86.78 11.9 87.5 16.11 88.22 11.89 88.94 15.92 89.65 12.87 90.37 11.59 91.09 11.73 91.81 16.39 92.53 12.37 93.25 11.41 93.97 12.83 94.68 11.15 95.4 16.39 96.12 11.56 96.84 15.51 97.56 13.21 98.29 14.04 99.01 12.07 99.73 15.03 100.45 15.63 101.17 12.59 101.89 11.67 102.61 15.15 103.34 15.92 104.06 15.95 104.78 12.8 105.5 15.11 106.22 16.28 106.94 16.27 107.66 12.86 108.38 11.15 109.1 12.22 109.82 11.82 110.53 14.71 111.25 13.93 111.97 11.62 112.69 13.43 113.41 11.23 114.13 15.87 114.85 16.33 115.57 15.32 116.29 14.08 117.02 11.53 117.74 13.85 118.46 15.71 119.18 12.03 119.9 15.93 120.63 12.98 121.35 14.97 122.07 14.72 122.79 12.14 123.51 15.41 124.23 12.25 124.95 13.49 125.67 14.48 126.39 16.21 127.12 14.17 127.84 15.4 128.56 12.44 129.28 16.46 130 12.12 130.72 14.02 131.44 13.72 132.17 12.04 132.89 11.57 133.61 15.53 134.33 15.96 135.06 11.63 135.78 16.27 136.5 16.19 137.22 12.86 137.93 15.92 138.65 12.99 139.37 11.93 140.09 14.56 140.81 16.17 141.53 15.67 142.26 11.18 142.98 16.15 143.7 14.09 144.42 15.72 145.14 13.91 145.86 12.3 146.58 13.73 147.3 15.6 148.02 13.56 148.74 13.42 149.46 14.27 150.18 13.79 150.9 11.92 151.62 16.31 152.34 13.4 153.06 16.37 153.78 12.21 154.51 13.6 155.23 12.54 155.95 13.13 156.68 12.69 157.4 16.34 158.12 12.27 158.84 14.76 159.56 14.48 160.29 13.14 161.01 15.88 161.73 14.01 162.46 11.95 163.18 11.87 163.91 13.54 164.63 15.64 165.35 11.89 166.08 12.14 166.8 13.02 167.53 14.16 168.25 12.08 168.98 11.79 169.7 14.54 170.42 15.93 171.14 12.23 171.86 13.6 172.59 11.75 173.31 11.28 174.04 14.98 174.76 11.9 175.49 12.85 176.21 14.88 176.94 14.61 177.67 11.37 178.4 13.85 179.12 15.59 179.85 11.6 180.58 14.65 181.31 14.37 182.04 12.86 182.77 13.39 183.5 14.92 184.27 13.49 185.02 13.61 184.73 16.53 185.22 16.49 188.33 12.78 186.77 16.07 187.17 16.52 187.86 16.76 189.05 16.85 187.01 18.43 190.87 17.95 189.77 19 187.67 19.76 191.53 20.48 190.27 21.2 188.13 21.92 191.1 22.64 186.9 23.36 187 24.08 190.88 24.79 188.91 25.51 188.41 26.23 187.81 26.95 191.8 27.66 190.72 28.38 188.06 29.09 190.51 29.81 191.66 30.52 190.68 31.24 188.92 31.96 190.6 32.68 188.39 33.4 190.24 34.12 189.11 34.84 191.71 35.55 189.18 36.27 189.39 36.99 190.97 37.7 189.99 38.42 187.17 39.13 187.54 39.85 189.84 40.56 190.97 41.28 187.35 42 189.49 42.72 191.17 43.43 191.42 44.15 191.97 44.87 187.76 45.6 188.84 46.32 189.95 47.03 187.24 47.75 192.01 48.47 190.71 49.19 191.08 49.91 191.8 50.63 190.84 51.35 187.14 52.07 191.44 52.79 188.77 53.51 191.83 54.23 191.16 54.95 188.03 55.67 189.71 56.39 187.73 57.11 187 57.83 191.68 58.56 187.76 59.28 189.01 60 190.99 60.71 189.07 61.43 189.44 62.15 186.91 62.87 191.46 63.59 186.87 64.32 189.64 65.04 187.37 65.76 188.11 66.48 189.98 67.2 188 67.93 190.42 68.65 188.41 69.38 188.37 70.1 191.73 70.82 191.13 71.55 188.43 72.28 187.1 73.01 190.47 73.74 189.45 74.46 188.84 75.05 187.31 75.18 187.15 75.65 187.74 76.66 187.1 76.93 185.69 76.2 186.01 77.37 186.65 79.74 186.39 81.36 184.72 78.66 184.08 78.49 183.5 80.4"/>
    <polygon class="cls-2" points="183.5 87.56 182.79 84.92 182.07 86.89 181.35 85.07 180.63 88.67 179.91 84.53 179.19 87.72 178.47 87.26 177.75 88.39 177.03 84.38 176.31 86.94 175.6 89.11 174.88 89.26 174.16 89.06 173.44 89.51 172.72 86.12 172 84.93 171.28 84.66 170.57 86.75 169.85 87.02 169.13 88.62 168.41 89.03 167.7 88.95 166.98 86.84 166.26 87.62 165.55 87.24 164.83 86.26 164.11 89.34 163.4 87.29 162.68 84.63 161.97 86.35 161.25 84.92 160.54 88.15 159.82 88.21 159.1 84.57 158.39 86.33 157.67 84.33 156.96 87.92 156.24 88.47 155.53 85.31 154.81 88.09 154.1 84.7 153.38 84.58 152.67 86.1 151.95 86.12 151.24 86.55 150.52 85.28 149.81 84.45 149.09 87.93 148.38 87.29 147.66 84.85 146.95 88.91 146.23 86.33 145.52 88.79 144.8 89.15 144.08 85.23 143.37 84.8 142.65 84.81 141.94 85.65 141.22 89.08 140.5 86.86 139.79 88.62 139.07 86.17 138.35 85.77 137.63 84.36 136.92 84.96 136.2 87.46 135.48 88.24 134.76 84.49 134.04 85.22 133.32 87.36 132.6 84.98 131.88 89.14 131.16 85.81 130.44 87.61 129.72 87.82 129 87.77 128.28 87.06 127.56 86.75 126.84 88.78 126.12 84.88 125.4 85.55 124.68 85.58 123.96 87.55 123.24 88.94 122.52 84.32 121.8 87.07 121.08 84.8 120.37 89.31 119.65 87.54 118.93 86.27 118.21 84.65 117.49 87.55 116.77 86.58 116.06 85.98 115.34 87.52 114.62 86.15 113.9 84.58 113.19 85.22 112.47 84.4 111.75 85.13 111.03 85.88 110.31 87.09 109.6 87.46 108.88 85.92 108.16 86.75 107.44 89.27 106.72 84.57 106 88.73 105.28 84.95 104.56 87.42 103.84 86.93 103.12 88.17 102.4 85.57 101.68 87.06 100.96 87.39 100.24 85.48 99.52 88.49 98.8 84.46 98.07 88.17 97.35 84.57 96.63 88.52 95.91 87.16 95.19 85.24 94.47 84.95 93.75 84.39 93.03 86.45 92.31 87.45 91.59 86.88 90.87 84.57 90.15 84.48 89.43 84.7 88.71 84.41 87.99 84.74 87.27 88.51 86.55 86.03 85.83 88.47 85.11 85.42 84.39 89.02 83.67 88.31 82.95 85.71 82.23 86.87 81.51 84.35 80.79 85.66 80.06 88.24 79.34 86.96 78.62 88.31 77.9 87.66 77.18 88.6 76.46 88.84 75.73 86.64 75.01 84.69 74.29 85.71 73.57 85.06 72.85 88.2 72.13 89.44 71.41 87.58 70.69 89.43 69.97 86.36 69.25 85.7 68.52 84.78 67.8 86.64 67.08 87.33 66.36 88.47 65.63 88.05 64.91 88.88 64.19 85.27 63.47 87.6 62.75 84.81 62.04 89.25 61.32 87.15 60.6 84.29 59.88 88.29 59.16 84.85 58.44 88.83 57.71 89.21 56.99 85.74 56.27 88.15 55.55 89.14 54.83 87.75 54.11 86.33 53.39 85.17 52.67 86.33 51.95 88.04 51.23 85.87 50.51 89.37 49.79 84.71 49.07 85.3 48.35 84.68 47.63 89.13 46.91 88.04 46.19 85.25 45.46 88.29 44.74 85.93 44.01 85.97 43.29 84.46 42.57 87.82 41.85 85.44 41.13 85.26 40.4 85.8 39.68 89.3 38.96 88.42 38.23 84.78 37.51 84.8 36.78 86.81 36.06 88.52 35.34 88.84 34.61 88.58 33.89 86.19 33.17 86.4 32.44 84.85 31.72 87.26 30.99 84.96 30.27 89.51 29.55 85.13 28.83 87.93 28.11 88.44 27.38 85.67 26.65 88.98 25.93 87.87 25.21 89.13 24.48 88.5 23.75 86.6 23.03 86.59 22.3 89.28 21.57 87.18 20.84 84.17 20.12 88.42 19.39 88.43 18.66 84.52 17.93 89.19 17.2 87.86 16.46 88.99 15.61 87.97 14.46 89 14.59 85.84 14.78 84.09 12.66 86.4 12.66 85.18 10.88 85.84 9.59 85.64 9.71 84.43 10.1 83.3 11.6 82.09 9.81 81.7 8.78 80.89 9.18 80.17 9.73 79.46 11.8 78.74 8.15 78.02 10.06 77.3 11.84 76.59 8.22 75.87 8.62 75.15 11.31 74.43 9.69 73.71 12.9 72.99 8.8 72.27 10.82 71.55 7.91 70.83 11.32 70.12 10.36 69.4 12.21 68.68 9.61 67.97 10.87 67.26 10.75 66.54 10.1 65.82 12.41 65.11 10.57 64.39 8.02 63.67 9.42 62.95 12.12 62.23 8.68 61.51 7.95 60.79 8.08 60.08 8.39 59.36 8.55 58.65 10.68 57.93 9.32 57.21 9.45 56.5 12.38 55.78 10.14 55.07 9.1 54.35 9.1 53.63 11.5 52.91 10.2 52.19 8.82 51.47 8.06 50.75 11.23 50.03 10.3 49.31 9.58 48.59 9.84 47.88 13.03 47.16 12.82 46.44 11.12 45.72 9.71 45 8.07 44.28 10.44 43.56 9.54 42.84 8.86 42.12 12.21 41.4 10.89 40.68 11.39 39.96 7.86 39.23 8.86 38.51 9.19 37.79 9.96 37.07 11.57 36.35 12.05 35.63 13.07 34.91 11.23 34.2 10.34 33.48 8.8 32.75 10.14 32.03 12.17 31.31 12.56 30.59 9.39 29.86 9.42 29.14 8.36 28.42 12.97 27.69 12.71 26.97 8.1 26.24 8.53 25.52 9.18 24.8 8.18 24.07 10.96 23.34 9.75 22.61 10.15 21.84 9.28 20.84 12.46 21.09 13.11 20.85 10.35 18.38 10.12 16.98 10.88 16.31 12.34 16.64 13.42 16.8 14.35 17.03 14.74 15.6 15.84 17.45 16.46 16.16 17.18 16.73 17.9 14.76 18.62 16.07 19.34 17.44 20.06 16.56 20.77 18.67 21.49 15.16 22.21 18.02 22.93 18.63 23.65 17.43 24.37 17.59 25.09 18.67 25.81 17.56 26.53 19.06 27.25 17.45 27.97 17.13 28.68 16.32 29.4 16.23 30.12 15.56 30.84 14.43 31.55 18.9 32.27 16.37 32.99 14.97 33.7 16.7 34.42 18.94 35.14 15.29 35.85 14.16 36.57 19.16 37.29 16.75 38 17.54 38.72 18.65 39.43 14.82 40.15 14.59 40.86 16.08 41.58 19.17 42.29 14.51 43.01 17.14 43.72 18.26 44.44 16.12 45.15 18.77 45.87 19.26 46.58 14.75 47.3 16.88 48.01 14.24 48.73 18.78 49.44 15.95 50.16 16.07 50.87 15.54 51.59 14.92 52.31 14.81 53.02 14.06 53.74 15.73 54.45 19.3 55.17 16.84 55.88 14.07 56.6 17.02 57.32 18.62 58.03 17.72 58.75 15.57 59.46 15.21 60.18 18.19 60.9 15.45 61.62 14.12 62.33 18.5 63.05 19.22 63.77 18.19 64.49 14.67 65.21 16.98 65.92 16.33 66.64 16.41 67.36 14.62 68.08 15.63 68.8 18.28 69.52 14.89 70.24 17.59 70.97 15.09 71.69 17.59 72.41 17.97 73.13 17.83 73.85 15.25 74.57 19.19 75.29 15.13 76.01 16.42 76.73 17.3 77.45 16.3 78.17 16.33 78.88 14.49 79.6 18.79 80.32 18.34 81.04 17.37 81.76 17.68 82.47 14.74 83.19 18.96 83.91 14.73 84.63 18.76 85.35 15.72 86.06 14.44 86.78 14.58 87.5 19.23 88.22 15.22 88.94 14.25 89.65 15.67 90.37 13.99 91.09 19.24 91.81 14.41 92.53 18.36 93.25 16.06 93.97 16.89 94.68 14.91 95.4 17.88 96.12 18.48 96.84 15.43 97.56 14.52 98.29 18 99.01 18.76 99.73 18.8 100.45 15.65 101.17 17.96 101.89 19.13 102.61 19.12 103.34 15.7 104.06 14 104.78 15.07 105.5 14.66 106.22 17.56 106.94 16.78 107.66 14.46 108.38 16.28 109.1 14.07 109.82 18.71 110.53 19.18 111.25 18.16 111.97 16.93 112.69 14.37 113.41 16.7 114.13 18.56 114.85 14.88 115.57 18.78 116.29 15.83 117.02 17.81 117.74 17.56 118.46 14.98 119.18 18.25 119.9 15.1 120.63 16.33 121.35 17.33 122.07 19.06 122.79 17.01 123.51 18.25 124.23 15.29 124.95 19.31 125.67 14.97 126.39 16.86 127.12 16.57 127.84 14.88 128.56 14.42 129.28 18.37 130 18.8 130.72 14.48 131.44 19.12 132.17 19.03 132.89 15.7 133.61 18.77 134.33 15.84 135.06 14.77 135.78 17.4 136.5 19.02 137.22 18.51 137.93 14.03 138.65 18.99 139.37 16.93 140.09 18.57 140.81 16.75 141.53 15.14 142.26 16.57 142.98 18.45 143.7 16.41 144.42 16.27 145.14 17.11 145.86 16.63 146.58 14.76 147.3 19.16 148.02 16.25 148.74 19.21 149.46 15.06 150.18 16.44 150.9 15.39 151.62 15.98 152.34 15.54 153.06 19.19 153.78 15.11 154.51 17.61 155.23 17.33 155.95 15.99 156.68 18.73 157.4 16.86 158.12 14.79 158.84 14.72 159.56 16.38 160.29 18.48 161.01 14.74 161.73 14.99 162.46 15.87 163.18 17.01 163.91 14.92 164.63 14.64 165.35 17.39 166.08 18.77 166.8 15.08 167.53 16.44 168.25 14.6 168.98 14.13 169.7 17.83 170.42 14.74 171.14 15.7 171.86 17.73 172.59 17.45 173.31 14.21 174.04 16.7 174.76 18.44 175.49 14.44 176.21 17.49 176.94 17.22 177.67 15.71 178.4 16.24 179.12 17.77 179.85 16.29 180.58 16.27 181.31 19.15 182.04 18.91 182.77 14.12 183.5 17.68 184.1 17.75 184.77 17.47 185.73 16.75 185.24 19.29 187.82 16.37 187.69 17.89 186.63 19.84 190.11 18.05 189.49 19.47 187.83 20.97 190.88 20.79 186.88 22.2 187 22.61 190.88 23.33 188.91 24.04 188.41 24.76 187.81 25.48 191.8 26.2 190.72 26.91 188.06 27.63 190.51 28.35 191.66 29.07 190.68 29.79 188.92 30.51 190.6 31.23 188.39 31.95 190.24 32.66 189.11 33.38 191.71 34.1 189.18 34.81 189.39 35.53 190.97 36.24 189.99 36.96 187.17 37.68 187.54 38.39 189.84 39.11 190.97 39.83 187.35 40.55 189.49 41.27 191.17 41.99 191.42 42.71 191.97 43.42 187.76 44.14 188.84 44.85 189.95 45.57 187.24 46.29 192.01 47 190.71 47.72 191.08 48.43 191.8 49.15 190.84 49.87 187.14 50.59 191.44 51.31 188.77 52.03 191.83 52.75 191.16 53.47 188.03 54.19 189.71 54.91 187.73 55.62 187 56.34 191.68 57.06 187.76 57.78 189.01 58.5 190.99 59.22 189.07 59.94 189.44 60.66 186.91 61.38 191.46 62.1 186.87 62.82 189.64 63.54 187.37 64.27 188.11 64.99 189.98 65.71 188 66.43 190.42 67.15 188.41 67.87 188.37 68.58 191.73 69.3 191.13 70.02 188.43 70.75 187.1 71.47 190.47 72.19 189.49 72.91 189 73.64 187.58 74.36 187.61 75.08 188.65 75.81 188.31 76.53 186.8 77.25 187.92 77.98 190.28 78.7 191.65 79.43 188.57 80.16 188.29 80.89 188 81.44 189.6 82.39 190.96 83.72 188.88 83.71 188.32 84.22 188.06 84.92 188.11 86.09 187.39 86.52 187.21 87.95 185.7 86.68 184.81 86.2 184.45 88.67 183.5 87.56"/>
  </g>
  <g>
    <path class="cls-4" d="M40.8,77.62l-.76,.09-.78-.04-.49-1.27-.79,.18-1.33,.88,.91-2.59-1.07,.27,.47-1.04-.2-.47-1.61-.13-1.34-.53,.71-.88,1.89-.76-1.74-.72,.49-.72,.47-.72-1.72-.72,.64-.72-.77-.72,2.13-.72-2.12-.72,1.81-.72-1.23-.72,.38-.72-.41-.72-.26-.72,1.53-.72-.99-.72-.71-.72,1.02-.72,.94-.72,.42-.72-.13-.72-2.43-.73,2.15-.72-1.98-.72,2.08-.72-2.03-.72,.18-.72,1.88-.73-.75-.73,.86-.73-1.49-.72-.42-.72,2.11-.72-2.13-.72,.13-.72-.37-.73,2.48-.73-.59-.72-.24-.72-.74-.73-.81-.73,2.15-.73-2.22-.73,1.31-.73,.77-.73-.07-.73-1.03-.73-.95-.73,2.45-.73-2.74-.73,2.13-.73-.65-.71,.81-.59-1.48-1.05,1.22-.39,.4-.55,.43-.5-.04-1.07,.58-.56,1.23,.97,.72,.37,.45-.83,.69,.49,.63-.25,.72-1.11,.81-.51,.83-.06,.86,.07-.13,1.95,.5,.33,1.67-.63-.7,1.41,.43,.52-.49,.82,1.65,.36-1.71,.88,.24,.63,1.72,.72,.64,.72,.07,.72-.61,.72-.49,.72,1.05,.72-1.8,.72,1.76,.72-2.11,.72-.44,.72,2.44,.73-2.29,.72,2.12,.72-2.23,.72,2.43,.73,.16,.72-.53,.72,.16,.73-.66,.73-.57,.73,.14,.72-.05,.73,.6,.73-.78,.73,1.17,.73-2.17,.72,1.76,.72-1.16,.72,.03,.72-.78,.72,2.14,.72-1.2,.72,1.86,.72-2.03,.72,1.05,.72,.54,.73-1.43,.72,.63,.72-1.45,.72,.12,.73,.84,.72-.49,.72,1.87,.73-1.68,.73,1.26,.73-.31,.72-1.55,.73,1.05,.73,1.14,.73-.12,.73-.48,.74-1.71,.49,1.84,1.08-2.07,.03,.92,1.15-1.46-.29-.31,.39,.29,1.49-1.15-.91-.31,1.05-.42,1.74-.98-2.16-.65,1.52Z"/>
    <path class="cls-4" d="M147.79,77.64l-.76,1.42-.73-.68-.72-.4-.67-.72-.91,1.46-.8,.2-.43-1.87-.99,1.15-.42-1.37-.61-.44-1.06,.88-.83,.04-.46-.86-.69-.28-.97,.2-.46-.73,.23-1.64-1.04,.23-.12-.97-1.16,.22-1.33,.25,.96-1.86,.06-.91-1.23,.05-.83-.31,.88-1.34-.26-.62-.33-.59-1.01-.3-1.23-.28-.37-.65-.28-.69,.91-1.03-.59-.57-1.54-.38,2.49-1.28-1.07-.5,.87-.86-.07-.69-1.6-.5-1.3-.59,.75-.81,1.89-.86-1.81-.6,.47-.74,.45-.73-1.76-.69,.65-.75-.79-.72,2.17-.72-2.16-.72,1.84-.72-1.26-.72,.39-.72-.41-.72-.26-.72,1.56-.72-1.01-.72-.72-.72,1.04-.72,.95-.72,.43-.72-.13-.72-2.47-.72,2.19-.73-2.02-.72,2.12-.72-2.07-.73,.18-.72,1.91-.72-.76-.72,.87-.73-1.52-.73-.43-.73,2.15-.73-2.15-.77,.21-.76-.21-.87,2.61,.13-.29-.76,.14-.63-.05-1.01,.19-1.14,1.59,1.65-.03-2.36,1.01,1.15,.74,.7,.64-.09,.72-1.03,.87-.88,.17,2.59,1.55-2.42-.27,2.27,.92-.2-.09,.97,1.79-.4-.61,1.14,.1,.68,.08,.67,.88,.62,.17,.74-1.43,.71-.59,.71,.74,.71-.58,.71,.23,.71,1.16,.71,.6,.72,.23,.71,.21,.71-1.85,.71,.02,.71,1.66,.71-1.41,.71,.16,.71-.74,.72,1.58,.71-1.83,.71,.23,.71,1.76,.72,.65,.72,.08,.72-.63,.72-.5,.72,1.07,.72-1.83,.72,1.8,.72-2.15,.72-.44,.72,2.48,.72-2.32,.72,2.18,.65-2.24,.8,2.52,.53,.22,.65-.45,.73,.26,.64-.54,.78-.41,.81,.33,.64,.17,.68,.82,.4-.4,.97,1.36-.06-1.25,1.98,1.84-.7-.11,1.4,.74,.4,.5,1.07,1.4-1.85,.49,1.34,.93-1.81,.66,2.09,.73-1.09,.64-.62,1.01,1.28,.56-.84,1.35,1.03,.73-.56,.16-1.2,.95-.23-1.03-1.77,1.81,.35-.8-1.22,.56-.49,1.74-.15-.82-1.02-.96-.94,.25-.63,.57-.6,1.76-.49-1.98-.91,2.04-.56-1.32-.78,1.41-.68-.05-.73-1.42-.73,1.35-.73-.92-.73-1.65-.73,2.3-.73-1.3-.73,1.43-.73-1.07-.73,.98-.73-1.95-.73,2.24-.73-1.73-.73,.25-.73-.62-.73,2.18-.74-1.39-.74-1.18-.74-.08-.74,.11-.7-.24-.7,1.83-.7,.65-.7,.15-.7-1.13-.7-.15-.7-.87-.7-.22-.71,.04-.71,1.14-.71-.39-.78,.3-.75,.68-.6-1.27-1.35,1.39-.22,1.52,.41-.12-1.1,.93,.36,.07-1.89,.8-.22,.96,1.87,.65-.98,.64,1.11,.94-1.85,.88-.1,.1,1.86,1.38-.95-.63,1.85,.28,.44,1.01,.12,.24,.64,.39,.64-.6,.78-.42,.68,1.89,.73-.34,.73-1.32,.73,2.2,.73-1.4,.73,1.33,.73,.2,.73-2.13,.73-.23,.72v.72s.46,.73,.46,.73l1.86,.73-1.2,.73,.95,.73-1.33,.73-.21,.73-.77,.73,.33,.73,1.35,.73,.42,.73-2.03,.73,.4,.73,1.16,.73-1.29,.73,2.25,.74-1.8,.74,.97,.74,.11,.73-.04,.73-.41,.71-.2,.71,1.06,.8-2.17,.56,.3,.74-.06,.7,.97,.85,.64,.84-2.59,.28,1.33,.97-1.35,.43,2.21,1.27-1.12,.47-.86,.49-1.05,.38,1.23,1.2-.76,.47-.58,.51,.43,1.01-.99,.28-1.08,.15-.08,.75-.75,.27-.1,.77-.15,.79-.03,.97-.4,.65-1.08-.17-.29,.79,.14,1.55-1.94-1.8,.45,2.32-1.54-1.53-.12,1.51h-.77s-.49,.88-.49,.88l-1.09-1.16-.49,.96-.68,.32-.88-.9-.48,1.72-.96-2.09-.54,2.06-.83-1.9-.65,2.17-.75-1.17Z"/>
    <polygon class="cls-4" points="109.77 45.43 109.28 46.16 108.88 46.85 109.61 47.65 109.49 48.37 109.27 49.08 107.74 49.44 109.03 50.54 108.1 51 108.83 52.03 106.78 52 106.57 52.66 108.07 54.13 107.78 54.82 106.52 54.99 106.33 55.7 104.98 55.74 105.96 57.17 106.15 58.16 105.99 58.94 104.27 58.65 104.91 60.01 104 60.24 103.29 60.62 102.37 60.81 103.02 62.28 102.75 63.02 101.05 62.5 101.47 63.86 100.14 63.63 99.48 63.98 99.73 65.25 99.43 65.98 98.51 66.08 98.01 66.61 97.85 67.53 97.07 67.75 95.62 67.18 95.55 68.21 94.6 68.18 94.57 69.31 94.62 70.57 92.96 69.57 92.05 69.54 92.01 70.72 91.69 71.53 90.35 70.83 89.71 71.16 89.13 71.57 88.9 72.58 88.77 73.77 87.98 74.21 87.08 74.36 86.48 73.18 85.71 73.25 84.39 73.93 85.17 71.46 84.08 71.78 84.03 70.61 83.47 70.18 82.07 70.89 80.81 71.36 80.68 70.31 81.22 68.45 79.65 69.28 79.38 68.47 79.1 67.67 77.51 68.43 77.35 67.49 76.32 67.55 77.14 65.59 75.25 66.54 75.9 64.82 74.57 65.14 74.31 64.37 73.53 64.11 72.86 63.73 73.42 62.23 72.25 62.31 71.27 62.18 71.53 61.01 71.77 59.9 71.64 59.1 71.12 58.61 68.86 59.37 70.09 57.62 68.14 58.06 69.39 56.39 67.39 56.78 67.16 56.06 68.34 54.57 67.39 54.28 67.79 53.29 66.22 53.23 65.57 52.71 67.14 51.32 65.02 51.33 64.9 50.59 64.35 49.97 66.43 48.71 65.75 48.16 65.42 47.51 64.64 46.89 63.82 46.21 65.82 45.44 63.75 44.68 65.02 44.01 65.81 43.39 65.84 42.71 65.03 41.83 64.35 40.88 66.76 40.87 64.61 39.3 66.73 39.43 66.48 38.52 67.44 38.28 66.56 36.79 67.78 36.82 68.34 36.37 68.88 35.93 68.98 34.9 69.52 34.36 70.81 35.13 71.62 35.33 71.97 34.46 72.76 34.76 73.33 34.39 73.83 33.23 74.51 32.6 75.28 32.36 76.07 32.19 76.63 33.96 77.3 34.06 78.37 32.74 78.69 34.2 79.39 34.32 79.73 35.22 81.04 34.28 80.74 36.08 81.4 36.29 82.97 35.49 83.95 35.57 84.56 36.1 84.63 37.07 84.72 37.94 85.96 38.02 85.1 39.59 86.52 38.56 86.6 40.63 87.62 41.03 87.69 38.65 89.45 40.03 88.45 38.17 90.58 38.78 89.22 36.8 89.63 36.11 90.54 35.9 91.01 35.27 91.99 35.28 92.89 35.3 93.43 34.82 94.08 34.53 94.52 33.72 95.46 34.15 95.85 32.89 97 34.71 97.41 32.97 98.23 33.98 98.91 33.93 99.53 34.68 100.43 32.76 100.96 33.99 102.1 32.48 102.22 34.52 103.25 33.87 104.16 33.76 104.11 35.28 105.03 35.19 104.71 36.68 105.25 37.03 106.28 36.98 106.35 37.8 108.2 37.38 107.23 38.82 108.6 38.92 108.63 39.72 107.51 40.87 108.66 41.23 109.87 41.68 109.91 42.45 109.6 43.25 108.13 44.1 110.06 44.7 109.77 45.43"/>
  </g>
</svg>