<?xml version="1.0" encoding="UTF-8"?>
<svg id="_圖層_6" data-name="圖層 6" xmlns="http://www.w3.org/2000/svg" viewBox="0 0 250 130">
  <defs>
    <style>
      .cls-1 {
        fill: #f7f8f8;
        filter: drop-shadow(0px -3px 5px rgba(81,24,24,0.5));
      }

      .cls-2 {
        fill: #d34493;
      }
    </style>
  </defs>
  <path class="cls-1"
    d="M243.43,88.37l-1.71,.33h-.98s.78-1.79,.78-1.79l.65-2.05-2.54,2.14,.15-1.62-.56-.63-.51-.85-.58-.88-1.08,.65-1.18,1.94-.21-2.78-.76-.26-.75-1.04-.8,3.31-.56,1.23-1.17-4.24-.16,3.45-.83-.61-1.04,.7,.9-2.62-1.06-.09-2.31,1.79,.53-2.03-1.16,.56-.85,.21v-1.85s-1.02,.71-1.02,.71l-.44-1.23-.67-.28-.75,.19-.68-.24-.75,2.26-.67-2.38-.72,.64,.25-2.26-2.35,3.1,.33-2.85-.66-.76-.71-.86-1.2,2.16-.9,1.74-.56-1.11-.68-.65-.74-.35-.62-.33-.28-1.02-1.61,2.02,1.6-1.99-.15,.17-1.99-2.51,.77-.26,1.27,.6,1.44,.1-2.67-2.32,.55-.34,.92-.24,2.76,.19-1.04-1.04-.8-.85-1.03-.67,1.71-.72-.63-.63-.92-.44-.02-.65-.85-.28v-.68s-.93-.09-.93-.09l.71-1.37,.29-1.3-1.47,.51,1.15-2.73-2.92,2.93,.53-2.26,.04-1.94-2.11,3.08-.35-1.07-.48-1-.73-.19-.93,1.1-.75,.4-1.6-.76,2.31-2.26-3.89,.38,2.49-1.78-.96-.42-2.2,.63,.41-1.14-.71-.25,2.39-1.8,.07,.9-1.27-1.81,1.95,.48-.53-1.29,.19-.77,1.1-.12,.41-.61-2.33-2.6,1.65,.28,2.62,1-2.85-3,.69-.46,2.68,1.24,.24-.23-1.3-1.72-.18-.81,1.84,.21,1.08-.36,.97-.54-3.5-1.49,.54-.51-.17-.59,3.87-1.07-2.5-.42,1.89-1.4-.68-.72-1.89,.03-1.26-.05-.3-.6,.17-1.07,.06-1.15-.08-1.17-1.78,1.01-.11-1.22-1.93,1.92-.66-.09,.15-2.11-.28-1.53-1.7,3.19,.11-3.57-.73-.6-.76-.83-1.06,2.91-.72-2.4-.79,1.61-.54,2.43-.97-2.01-.74,.19-.38,1.46-.57,.42-1.59,.78-1.05-1.57-.94,.27-.12-1.02-.74,.03,.17-2.07-.15-1.85-1.26,1.34-1.23,2v-3.66s-1,1.51-1,1.51l-.75,.5-.66-.65-.73-1.81-.55,4.21-.84-2.29-1-1.83-.5,3.02-1.29,.47-.56-.28,.7-3.88-.98,.46-.72-.26-.98,.87-.92,1.03-.27-2.99-.84,.49-.85,.8-.82,2.07-.73-2.65-.81-.29-.86-.51-.48,2.48-.88,.97-.09-3.73-1.82,4.3-.17-3.6-.96,1.02-.74,.07-.75-1.74-.71,1.82-.82-.76-.36,2.54-.53,.56-.75-.42-1.09-1.65-.04-1.3-1.03,.36-.87,.15-.62-.53-1.14,1.33-.85,.66,.03-3.93-.92,.69-.87,.91-.68-1.17-.78-.84-.74,4.35-.76-1.7-.89-1.58-.65,1.02-.72,.26-.69-.62-.72,.3-.75-.52-1.08,2.44-.61-2.38-.79,.83-.75,.13-.8-.38-.86-.45-.46,1.63-1.19-1.53-.47,.09-.88,1.17-.07-2.23-1.2,1.47-.75,.04-.84,.93-.58-1.29-.76,1.59-.81-3.08-.75,1.37-.68,.91-1.18-2.18-.5,2.3-.52-1.5-.78-.03-1.04,1.47-.54-1.14-.55-1.83-.77-.51-.93,3.64-.69-1.17-.68,.51-.72-.52-.68,.21-.93-.32-.46-1.13,2.25,.42-2.06-1.8,2.78,.39-1.05-1.23-.52-.91,1.87-.31-.2-.85-1.94-.79,1.41-.78,1.04-1.03-3.11,.12,2.78-1.94-2.9,.66,1.68-2.04-2.6,1.14,2.19-3.24-1.5,.34-.05-1.42-2.03,1.63,.35-2.3-.77-.45-1.9,2.64-.71-.03-.38-1.38-1,1.3-.68,.03-.66-.13-.65-1.31-.78-1.11-.63,2.03-.81-1.01-.47,1.69-1.12-2.15-.85-.19-.74,.27-.34,1.32-.1,1.58-1.23-1.01-.97-.23,.42,2.01-.37,.59-2.65-2.14,.34,2.24-.86-.88,.65-2.51-1.86,1.56-.12-1.55-.96,.16-.88,.13-1.29,1.95v-3.57s-1.18,2.51-1.18,2.51l-.68-.37-.65-2.32-.82,.67-.65,2.26-.88-1.75-.99-1.45-.39,2.27-1.2-1.77,.12,3.24-1.38-1.85-1.03-.44-.78,.28-.87,.15-.6,.64-.05,1.37,.99,2.45-2.89-2.24-.64,.55,1.14,2.08-1.48-.23,1.85,2.16-3.71-1.42,3.25,2.56-.54,.43-2.6-.07,.96,1.18,.8,1.12-.51,.59-1.69,.12-.34,.66-.48,.61-2.2-.07,2.35,1.71-2.43-.15-.72,.51,.64,1.05-.18,.06,.47,1.07-.6,1.41-1.14-2.76-.88-.46-.21,3.44-1.38-3.2,.16,4.62-1.72-4.26,.09,3.71-.65,.42-.83-.24-.88-.34-1.36-1.79-.12,2.12-1.21-1.14,.22,2.82-1.71-2.33,.57,3.38-.71,.13-2.44-3.73,.55,3.01-.65,.32-1.74-1.82,.29,2.18-1.64-1.45-.12,1.34-.18,1.15-.56,.48-.27,.91-1.95-1.56-.07,1.21-1.24-.4,.47,1.82-.72,.26-1.22-.3-.36,.72-.09,.98-1.69-.64-.56,.53,.91,1.84-1.41-.24-1.24-.02-.77,.4,1.34,1.92,.83,1.42-2.13-.51,1.66,1.82-1.49-.03-.72,.44,.35,.96-2.08-.07,.23,.93,.45,.96,.74,.99-2.91,.02,.47,.93,1.41,1.03,.46,.79-.23,.69-1.57,.66-1.29,.79,2.42,.71-1.9,.91,.07,.81,1.2,.61,1.62,1.21-.83,1.91-1.96-2.94-.94-.07,1.35,3.87-1.36-.94-.59,.35-1.96-1.15v1.14s-.33,.73-.33,.73l-1.83-.43-.24,.87,.27,1.11,.55,1.14,.04,.8-2.73-.22,3.15,1.82-3.69-.23,3.69,1.65h-2.98s1.98,1.23,1.98,1.23l.9,.96-.46,.62-3.46-.1-.13,.7,1.15,1.01,1.57,1.1-2.25,.2-.78,.55,1.55,1.1-.82,.44-.7,.51-1.03-1.7-.76,.84-.93-.24-.79-.06-.53,.93-.05,2.45-.46,.79-1.23-1.5-.23,1.42-1.29-1.39,.1,2.09-1.64-2-.94-.27-1.12-.57-.51,.67,.91,3.19-1.99-2.02-.13,1.22-1.01-.22,1.26,3.21-1.26-.59-2.33-1.95,.4,1.8,.31,1.56-1.57-.75,.77,1.99-2.71-1.88,1.73,2.87-.85,.14-2.45-1.29-.72,.41-.2,.85,1.32,2-1.45-.18-1.28,.02,.02,.94,.59,1.26-1.23,.16,1.93,1.89-3.46-.92,1.94,1.75-.88,.42,.51,.98,.18,.81-1.81,.18-.04,.77-2.38,.23,.51,.94,2.05,1.11-1.61,.55,.5,.82,1.81,.82-2.89,.69,.66,.77,1.44,.66,.64,.65-3.47,1.22,2.59,.36,.54,.64,.81,.54-3.11,1.64h2.68s1.52,.22,1.52,.22l-3.54,2.22,4.12-.98-3.46,2.55,.6,.64,.8,.5,.98,.33-.3,1.23,1.73-.34-.66,1.64,3.25-2.01-.03,1.02-.46,1.63,1.6-.78,.28,.82-.3,1.79,2.14-2.03-1.12,3.5,1.89-2.01,.07,1.57,.72,.23,1.59-2.26-.6,4.15,1.59-2.82h.7s.14,3.03,.14,3.03l.95-1.02,.56,1.9,1-2.84,.67,1.18,.75-.38,.67-1.5,.96,3.54,.75-.53,.66-.94,.53-1.39,.47-1.29,1.27,2.32,.43-1.29,1.23,1.57,.83,.02,.91,.18,.28-1.43-.3-2.56,.49-.56,1.68,1.75-.2-1.87,.08-1.19,.89,.15,2.61,2.51-1.51-3.31,2.87,2.45-.18-1.43-.24-1.37,.35-.67,.48-.53-.32-1.24,2.03,.79-1.66-2.29,1.96,.62-.47-1.23,3.27,1.31-2.59-2.55,3.39,1.15-1.94-1.96h1.64s-.18-.92-.18-.92l-.07-.85-1.07-1.21,1.67-.15-1.31-1.23,3.8,.46-.76-1.04,.72-.58-2.15-1.41,1.4-.38,.93-.53,1.22-.46-.66-.96-.83-.56,.91-.33,1.6-.49-1.45,2.17,.59,.42,.4,.65,1.46-.88-.34,1.86,.8,.05,.49,.77h.82s1.35-2.08,1.35-2.08l-.17,3.73,1.28-2.84,.32,3.38,.85-.39,.82-3.62,.75,3.04,.58-2.46,.78,.83,.5-1.48,1.05,2.21,.66-.44,.97,1.73,.4-2.16,.45-1.87,1.07,2.47,.36-2.55,1.3,3.63-.14-4.3,1.6,3.59,.97,.43-.54-3.76,.41-.63,1.49,1.86,.93-2.27,.59,1.05,.65,2.05,.79-2.73,.75,1.35,.84,1.64,.63-2.13,.69-.59,.91,1.5,.64-.87,.79,.34,.48-1.61,1.32,3.09,.68-.59,.61-.77,.71-.31,1.15,.91-.33-2.49,.79,1.99,1.24-3.69,.22,2.14,.73-.02,.72,.04,.74-1.26,.73,1.89,.56-2.39,.97,2.36,.9,1.58,.68-1.26,.66-1.58,.77-.17,.88,1.43,.84-.28,.69-.28,.68,.13,.68,1.79,.65-2.49,1.08,2.75,.31-3.13,.88,.56,.59-.6,.81,.04,1.79,1.87-.86-3.24,.7-.21,2.49,1.93-.94-3.52,.37,2.35,.2,1.35,1.22-.66,1.35-1.46,.7-.03,.76-.44,.32,2.09,.77-.22,.71,.46,.7-2.18,.86,4.33,.72-1.23,.75,.09,.69-3.03,.76,.82,.74-.63,.77,1.64,.89,1.74,.71-1.6,.48-2.06,.68-.12,1.12,1.41,.65,.78,.55,1.79,.99-1.08,.86-.66,.78,.41,.81-.89,.73,1.72,.74,.12,.77-2.75,.7,2.64,.76-1.71,.75-.65,.72,.86,.68,2.24,.82-3.16,.69,2.04,.73-2.67,.68,.45,.77,.85,.57-.95,1.37,3.13,.57-1.15,1.03,.51,.05-3.12,1.46-.64,.29,.94,.69-.04-.35,3.92,1.58-3.62,.25,2.6,.79-.25,.76-.32,.85-2.13,.73,.11,.52,3.77,.91-3,.55,2.82,.8-1.05,.82-1.28,.71,1.51,.86,1.71,.57-4.12,1,2.24,.37-2.28,1.03,2.07,.06,1.41,1.56-2.07,.2,2.19,1.11-1.38,.88-.91,.39,3.52,.87-.99,.93-1.57,.66,1.36,.66,1.2,.87-1.01,.96-1.7,.76,.27,.58,2.76,.86-.02,.79-3.53,.68-.6,1.11,4.08,.76-.79,.4-2.31,.78,1.9,1.22-1.81v1.6s1.59-2.16,1.59-2.16l-.64,3.92,1.49-2.53,.41,1.18,.92-1.21,.62,.18,.8,.28,.65,1.43,1.1-1.95,.29,4,1.07-1.33,.87-.63,.79-.59,1.05-.61,.15,2.65,1.44-1.58,1.09-1.29,.36,2.09,.84-.76,.57,.93,.65,.38,.45,1.64,.84-.72,.57,1.09,.8-.67,.66,1.34,.76-1.34,1-2.72,2.32,1.37-1.93,1.61-1.78,.17-1.05,.58,1.39,1.24-.29,.76,2.02,1.02-3.3,.43,.72,.84,.85,.76-1.96,.92,1.4,.66,2.82,.23-2.7,1.35,2.92-.09-1.12,1.11,.33,.63,.5,.55-1.64,1.73,.26,.8,1.14,.21,.09,.92,1.95-.6h1.04s-1.2,2.18-1.2,2.18l2.28-1.35-.75,1.96,2.2-1.67,.48,.42,.58,.28-.43,2.09-.48,2.61,1.24-.74,.52,.81,1.18-.96,.62,.54,.4,1.51,.74,.45,1.27-2.52,.54,1.34,.65,1.2,.86-.85,.78-.26,.78,.6,.85,.92,.68-1.4,.88,.59,.76-.3,.78-.17,.96,.44,.31-1.64-.05-2.22,1.1,.84,.24-1.15,1.56,1.45-.24-1.9,1.89,1.64-.67-2.32,1.14,.35,1.3,.43,.49-.62,.26-.85,.95-.11-.44-1.48,.51-.42-.65-1.5,1.52,.53,.14-1.79,.8,2.85,1.37-3.55,.42,2.11,.7,.71,.74-2.27,.95,3.99,.88-.16,.26-3.02,.88,.56,.44-.95,1.78,2.35,.09-1.64,.85-.08,1.34,.45-1.41-2.89,1.07,.15,1.4,.23-.94-1.59h1.32s.53-.59,.53-.59l-.81-1.12,1.02-.41,.86-.63-.72-.91,.15-.76-2.14-.57,.09-.6,.4-.73-.34-.56,2.53-2.02-1.05-.42-2.43,.8-1.27-1.31,2.41-.51,.74-.34,.92-.19-1.61-2.28,2.14,.83,.83-.25,.46-.55-.7-1.54,1.59,.39-1.1-1.88,.35-.66,2.23,.97-.78-1.55-.78-.98,2.58,1.18,1.4,.02-2.23-2.21,.81-.3,1.17-.26,.46-.64-.91-1,1.73-.53,.09-.85-1.79-.71,.3-.76-2.31-.13,2.16-1.36-.53-.58,.81-1.3-1.26-.15ZM100.51,62.25l1.22,1.18,.44,.85-1.94-.07-.37-2.1-1.22,3.08-.55-1.51-.73-.31-.78-.54-.88-.55-.68,1.04-.29,2.26-1.41-2.41-.84,.11-1.18-.59,.71,3.34,.03,1.37-3.02-3.21,1.42,3.16-1.04-.13-.14,.86-2.46-1.1v1.06s1.98,2.16,1.98,2.16l-2.06-.36,.63,1.12,.26,.84-1.65-.34-.62,1.25-.7-1.21-.69-.25-.75,.21-.69-.23-.8,2.26-.63-2.4-.7,.61-.84-2.06-.38,3.86-.9-2.69,.88,1.24,.38,1.05-.62-2.39-.46-1.92,1.2,.43,.97,.05,.82-.19,.56-.51,1.1,.04-1.26-2.28,2.96,1.72,.22-.86-1.9-2.55,.79-.28,1.54,.23,1.47,.09-2.48-2.55,.66-.41,1.02-.22,2.7,.67-.74-1.28-.47-1.09-.64-1.12,1.9,.06-.18-.9,.58-1.82,1.58,.95,.97-.11,.45,.65,.88-.33v1.55s.24,1.29,.24,1.29l1.11-1.07-.08,2.95,1.64-3.79,.25,2.3,.49,1.85,1.1-3.56,.61,.94,.68,.86,.72,.03,.66-1.25,.57-.48,1.83,1.02-2.93,.63,3.15,2.29-2.66-.48Zm86.8,11.34l-.81-.99-.14-.97,1.82,.63,1.97,.72-1.67-2.89,.93,1.24-.66,.41-.91,.35-.96,.33,.66,.92-.23,.25Z" />
  <path class="cls-2"
    d="M237.32,91.47l-.71-.43-.54-.61-.74-.31-.8-.11-.78,.42-.72,.12-.71,.2-.6,.44-.48,.56-.77,.31-.07,.89-1,.16-.08,.89-.62,.46-.49,.56-.23,.77-.66,.42-.68,.4v.95s-.93,.19-.93,.19l-.07,.88-.46,.58-.82,.3-.27,.79-.87-.07-.54,.84-.73-.18-.65,.42-.65-.69-.6-.16-.99,.39-.43-.83,.2-.71-.2-.82,.6-.4,.15-.71,.74-.35,.7-.37,.16-.79,.71-.36-.02-.92,.7-.36,.64-.41-.15-1.03,.7-.37,.29-.78,.61-.56,.05-.79,.57-.59-.56-.54,.11-.8-.64-.45-.72-.21-.59-.55-.78-.06-.79-.08-.73,.35-.61,.47-.89,.03-.4,.72-.33,.7-.59,.5-.24,.73-.9,.24-.13,.81-.32,.67-.5,.54-.83,.29,.11,.98-.48,.55-.38,.62-.46,.57-.58,.46-.21,.71-.74,.39-.2,.7-.24,.99-.94-.71,.02-.65,.67-.43,.38-.64,.22-.76,.55-.52,.36-.66,.39-.63,.9-.25,.3-.7,.68-.41,.45-.58,.05-.89,.55-.52,.32-.67,.74-.55,.28-.85,.31-.7-.72-.52-.33-.49-.53-.4-.56-.32-.57-.53-.69-.25-.7,.36-.68,.05-.78-.06-.54,.52-.61,.67-.22-.93-.36-.68-.78-.26-.32-.84-.9,.08-.54-.62-.82,.13-.62-.65-.74-.11-.76,.26-.73-.32h-.75s-.67,.57-.67,.57l-.71,.1-.73,.04-.7,.19-.63,.38-.71,.2-.71,.22-.68,.3-.34,.79-.5,.53-.44,.58-.89,.1-.14,.86-.9,.19-.33,.67-.08,.81-.77,.39,.18,.89-.6,.53-.07,.74-.18,.69-.37,.67,.34,.85-.59,.54-.48-.22-.76,.08-.93,.14,.42-.8,.85-.29,.14-.76,.51-.51,.15-.75,.12-.77,1.02-.18,.18-.73,.21-.72,.37-.61,.33-.64,.48-.53,.28-.67,.39-.59,.62-.44,.32-.64,.7-.38-.11-.93,.55-.49,.39-.59,.29-.66,.81-.3,.2-.72,.74-.35,.13-.77,.32-.64,.74-.35-.18-.99,.44-.56,.85-.27,.53-.49,.14-.77,.29-.67,.79-.31,.32-.64,.47-.53,.33-.63,.38-.65,.5-.78-.06-.95,.46-.64-.64-.48-.07-.71-.65-.42-.61-.48-.79,.04-.74,.13-.79-.47-.68,.44-.73,.23-.58,.5-.69,.38-.14,.89-.42,.61-.79,.33-.31,.66-.26,.68-.59,.45-.56,.47-.38,.6-.34,.63-.56,.48-.3,.66-.33,.63-.32,.63-.09,.78-.54,.48-.68,.39-.56,.47,.03,.87-.71,.38-.03,.83-.27,.67-.9,.26-.17,1.07-.32-1.02-.81-.25-.2-.93-.97,.14-.56-.5-.71-.18-.65-.42-.77,.08-.66-.61-.74,.57h-.7s-.71,0-.71,0l-.68,.19h-.73s-.71,.15-.71,.15l-.68,.24-.68,.26-.74,.17-.3,.87-.53,.47-.76,.18-.21,.82-.56,.4-.96,.05,.03,.95-.66,.33-.39-.35-.14-.9-.62-.59-.51-.67-.21-.69-.32-.62v-.71s.03-.66,.03-.66l-.73-.71,.2-1.03,.51-.83-.28-.72-.1-.93-.6-.36-.59-.38-.72,.16-.68,.12-.82-.3-.63,.43-.51,.55-.42,.59-.83,.3,.16,.95-.47,.52-.4,.56-.86,.25-.15,.74-.1,.76-.69,.36-.29,.63-.36,.59-.44,.54-.68,.38,.02,.98-.55,.63-.47,.77,.43,.64,.06,.68,.79,.14,.22,.87,.65,.45,.82-.3,.73,.17,.75-.1,.43-.73,.88-.04,.52-.56,.31-.7,.4-.49,.28-.88,.21,1.04,.53,.65-.15,.95,.49,.61,.55,.67-.39,.79-.36,.59-.14,.67-.44,.63-.67,.44-.78-.15-.74,.28-.76-.02-.77-.2-.75-.38-.8,.26-.73-.6-.73,.18-.72-.13-.74-.02-.71,.22-.6,.47-.69,.32-.54,.57-.25,.74,.04,.76,.12,.78,.13,.89,.94,.1,.6,.49,.73,.28,.75,.31h.7s.69,.12,.69,.12l.75-.57,.67,.3,.68,.15,.71-.14,.65,.46,.74-.37,.72,.37,.74-.41,.73,.09,.69-.3,.71-.1,.85,.28,.77-.13,.62-.47,.67-.35,.26-.37,.15,.68,.79,.32,.59,.44,.51,.56,.69,.27,.54,.7,.76,.17,.77,.06,.69-.06,.7-.18,.69-.06,.61,.52,.69-.07,.66-.26,.67,.26,.7,.03,.63-.29,.39-.7,.78-.03,.3,.68,.61,.4,.32,.83,.94-.37,.61,.39,.72,.07,.63,.6,.74-.12,.75-.18,.7,.19,.7-.12,.66,.23,.74,.48,.61-.61,.79,.11-.04-.34,.62,.31,.35,.8,.76,.04,.75-.1,.57,.64,.83-.32,.73,.2,.64,.67,.85-.39,.66,.59,.69-.56,.76,.2,.59-.49,.59-.41,.82-.11,.45,.66,.39,.56,.65,.26,.59,.35,.54,.86,.67,.13,.77-.36,.66,.17,.66,.15,.6,.46,.69,.08,.68,.25,.7-.25,.63-.02,.65,.28,.6,.53,.78,.1,.78,.02,.68,.52,.8-.55,.74,.51,.71-.65,.59,.38-.03,.53-.29,.59-.66,.3-.72-.07-.64-.44-.83,.41-.54-.84-.8,.27-.68-.3-.7-.12-.66-.3h-.72s-.73,.06-.73,.06l-.67-.34-.67-.38-.73,.2-.71,.1-.7,.24-.71-.24-.72-.11-.58,.7-.77-.14h-.78s-.6,.47-.6,.47l-.79,.09-.36,.79-.62,.37-.56,.45-.65,.35-.15,.77-.49,.49-.53,.5-.04,.74-.12,.67v.68s-.31,.68-.31,.68l-.58,.72,.2,.76,.38,.7,.08,.74,.6,.56,.05,.77,.17,.76,.47,.59,.62,.42,.65,.34,.26,.76,.66,.31,.6,.36,.58,.41,.67,.23,.64,.3,.69,.15,.67,.24,.76-.18,.66,.46,.71,.16,.72-.33,.72,.07,.79,.36,.72-.18,.56-.66,.65-.27,.76-.05,.54-.52,.57-.43,.82-.08,.68-.32,.28-.79,.79-.23,.39-.64,.29-.69,.41-.57,.48-.5,.54-.45,.23-.72,.56-.44,.4-.57,.67-.36,.39-.32,.59-.19,.65,.35h.73s.65,.3,.65,.3l.8-.25,.68,.22,.6,.41,.66,.29,.72,.24,.63-.69,.7,.06,.6-.32,.22-.7,.98-.15-.28-.85,.66-.72-.38-.81-.66-.49-.74-.22-.73-.14-.69-.27-.66-.53-.69-.4-.82,.09-.79-.19,.28-.76,.91-.21-.11-1,.72-.35,.18-.78,.67-.39,.58-.46,.27-.71,.85-.25,.24-.73,.39-.61,.57-.45,.57-.45,.48-.53,.39-.6,.12-.82,.33-.66,.52-.51,.92-.18,.05-.9,.72-.34,.44-.58,.42-.6,.63-.44,.4-.82,.17-.87-.18-.64,.54-.78-.38-.65Zm-50.78-3.36l-.18,.73-.57,.49-.41,.59-.34,.63v.84s-.38,.6-.38,.6l-.43,.57-.46,.64-.66,.49-.82-.22-.8,.42-.92-.81-.81,.32-.57-.52-.42-.58-.48-.66,.27-.75,.41-.65-.35-.87,.86-.42-.07-.87,.44-.6,.82-.25,.24-.8,.8-.07,.19-.91,.75-.06,.5-.6,.82,.48h.62s.71-.65,.71-.65l.56,.47,.44,.46,.83-.06,.23,.83,.38,.8-.59,.56-.59,.43Zm20.52,3.56l-.26,.78-.63,.51-.48,.62-.41,.66-.08,.89-.45,.64-.55,.51-.59,.46-.71,.33-.76-.32-.79,.38-.54-.79-.88,.24-.54-.63-.34-.69-.39-.76,.33-.78,.44-.59-.3-.86,.88-.31v-.84s.46-.53,.46-.53l.81-.15,.27-.75,.88-.06,.34-.94,.84-.03,.67-.56,.83,.59,.69,.12,.78-.5,.43,.59,.31,.55,.87,.29-.18,.83v.83s-.96,.27-.96,.27Zm4.51,23.85l-.53,.55-.75,.04-.69,.1-.69,.06-.78,.34-.78-.24-.67-.47-.62-.54-.47-.67,.22-.82-.39-.82,.86-.49-.08-.86,.66-.39,.63-.34,.6-.52,.77,.12,.72,.25,.74-.57,.65,.69,.78-.38,.71,.15,.62,.61,.81-.24,.61,.61,.86-.46,.66,.48-.21,.83-1,.12-.54,.5-.02,1.02-.77,.28-.71,.31-.23,.9-.97-.13Z" />
  <path class="cls-2"
    d="M153.04,90.17l-.71,.39-.68,.02-.68,.15-.65-.46-.73,.81-.49-1.8-.76,.35-.9-.06v-.84s-.49-.73-.49-.73l.55-.68-.28-1,1.2-.11,.77-.27-.55-1.51h1.06s.84-.16,.84-.16l.36-.71,.07-1.11,1.01,.08,.16-.91,.83,.91,.74,.34,.68-.52,.49-.81,.85,.3,.13-.89,.67-.23-.46-.8,1.83-.39-1.56-.6,1.1-1.29-.96-.32-.78-.16-.86,.53-.59-.39-.62-.85-.74,.18-.69-.48-.75,.39-.79,.98-.63-1.42-.74,.4-.69-.45-.78,1.09-.72-.11-.81-.48-.96,.07-.05-1.15-.76-.64,.39-.85-.52-.55-.87,.12-.66,.35-.48-.78-.78-.49-.53,.76-.72,.16-.88,.2-.81,.42,.5,1.16-.65,.44,.32,.91-.73,.39,.16,.83-.6,.76-.05-1.25-.91,.05-.1-1.09-.74-.23-1.27,1.1-.24-1.21-.92,.83-.58-.28-.55-.82-.74,.82-.62-1.85-.76,.52-.71,.45-.67,.47-.66,.3-.9-.63-.46,.92-.75,.02-.35,.89-.77,.03-1.1-.38-.53,.55-.8,.21-.7,.37,.2,1.21-.07,.85-.81,.24-.27,.66,.03,.8-1.19,.17,.45,.95-1.24,.31,1.08,1.02-1.62,.39,.71,.83,.62,.73-.39,.67-.62,.76,1.07,.59-.31,1.14-1.06-.43-.75-.28-.16-.06-.12-.08-.07-.8,1.09-.31-.31-.9-.05-.79,.52-.54,.42-.58,.8-.42-1.23-1.3,1.23-.24,.19-.68,.62-.57,.52-.69-.36-.81-1.13-.67,1.06-1.13-.36-.87-.88-.44-.66-.53-.86-.15-.89,.15-.68-.21-.74,.11-.66-.77-.76,.3-.59,.58-.83-.74-.95-.61-.42,1.03-.89-.24-.57,.53-.95,1.1,.95-1.06-.11-.82,.77-.44,.15-.7-.47-.96,1.04-.34,.39-.6,.42-.59-.07-.79,.7-.46-.07-.79-.46-.96,1.15-.27-.87-1.15,.48-.56,.53-.54,1.44-.14-.56-1.02,.39-.73-.46-.98,1.6-.65-1.17-.52-.09-.62-.32-.61-.39-1-.99,.34-.74,1.02-.58,.12-1.13-1.27-.58,.68-.04,1.13-.48,.46-1.61-.24-.18,.84,.08,.9,.28,.92-1.36,.23,.39,.97-1.1,.34-.29,.68,.27,.91-.05,.78-.25,.69,.48,.99-.66,.52,.02,.8-1.53,.17,.62,1.04-.37,.64-.92,.42,.93,1.17-1.47,.21,.82,1.12-.73,1.17-1.1-.57-.17-1.31-.68-.56-.77,.56-.67,.44-.73-.23v-.61s.17-.73,.17-.73l.51-.58,1.24-.45-.97-1.16-.31-.71,.74-.71-1.1,.05-.25-.37-.24-.81-.7,.12-.7-1.37-.62,1.36-.88-.35-.89,.08-.92,.28-.11,1.04,.1,.96-.87,.43-.75,.51,.61,1-1.09,.35,.72,1.02-1.11,.35,.02,.41-.26,.49-.67-.44-.59,1.2-.9-.87-.72,.3-.94-.11-.6,.65,.42,1.29-.75,.24h-.83s-.24-1.01-.24-1.01l-.63-.35-.68-.21-.6-.6-.85,.74-.68-.11-.68,.07-.66,.37-.76-.95-.56,1.19-.72-.16-.76-.18-.72,.06-.88-.3-.59,.5-.74,.17-.42,.75-.08,1.16-1.13-.39-.91,.04-.59,.46,.32,1.34-.77,.24-1.1,.05,.32,1.15,.24,.98-.96,.24,.11,.82-1.16,.3,.7,.97-.52,.58,.41,.76-1.33,.58,.05,.75,1.03,.67,.22,.66-1.15,.84,.48,.57,1.03,.98-1.24-.03-.78-.6-.66,.56-.86-.9-.7,.27-.58,1.08-.64,.62-1.45-.19,.56-1.35-.31-.84,1.31-.39-.13-.79-.16-.8,.07-.74,.94-.5-.08-.78,.97-.48-.4-.87-.26-.84,.99-.47-1.18-1.11,.44-.63,.81-.52-.43-.89,.79-.52,.13-.72,.63-.57-.11-.79,1.13-.41-.84-1.02v-.77s.94-.46,.94-.46l-.17-.82-.27-.84,.74-.52,.73-.53-.85-1.04,.6-.58,1.28-.35-.85-1.05,1-.45-.46-.96,1.33-.37-.93-1.41,.84-.32,1,.54,.75-.14,.17-1.22,.8-.03h.86s.02-1.22,.02-1.22l.81-.1,.25-.79,1,.06,.78-.24-.66-1.6,.59-.38,1.12,.02,.67-.39-.57-1.27,.65-.39-.02-.82,1.51,.07,.44-.58-.15-.88-.05-.81,.47-.56-.07-.79,1.63-.11-.07-.8-.11-.83-.03-.8,.29-.67,1.09-.37-.92-1.13,1.3-.29-1.15-1.22,1.23-.31-.53-.99,1.28-.28-.03-.79,.66-.52-.75-1.08,1.07-.36-.41-.95,1.31-.27-.67-1.06,.3-.99,1.11,1.04,.75,.19,.61-1.67,.73-.18,.75,.23,.79,.78,.74,.05,.75,.36,.62-1.73,.77,.57,.77,.64,.75,.16,1.08-.93-.85,.84-.67,.48-.03,.75,.19,.84-.35,.61,.26,.86-.03,.74-1.26,.24,.09,1.2-.16,.62-.89,.46,.76,.78-.37,.61-.46,.83,1.07,.36,.2,.63,.82,.04-.08,1.31,.83-.16,.75-.27,.43,.94,.74-.49,.63,.2,.65-.3,.72,1.52,.71-.66,.69-1.19,.77,.32,.81,1.4,.69-1.15,.73-.21,.8,1.19,.72-.69,.7-.02,.58-.85,.79,.55,.44-.86,.43-.51,1.46,1.14,.23-1,.55-.56v-1s1.11,.24,1.11,.24l-.23,1.35,1.21-.58,.5,.41,.38,.9,.8-.29,.6,.54,.67,.65,.75,.09,.65-1.52,.68,.94,.65-.99,.68,1.72,.66-.53,.77-.35,1,.65,.53-.97,.2-1.27,.76-.12,.9,.61,.77-.28,.34,.49,.54,.25,.43,.79,.74-.34,.65-.15,.63,.26,.62-.06,.35,.32-.35,.37,.69,1.17-.87,.39,.02,.83-1.36,.15,.31,.98,.22,.93-1.38,.15-.49,.58,.74,1.17-.88,.39-.16,.73-.36,.64-.51,.57-.78,.45,.94,1.25-1.06,.32-.45,.61,.51,1.05-1.38,.3,.95,1.17-.34,.6-1.03,.81,.78,.43,.07,.94,1.24-.58,.37,1.15,.81-.39,.85,.58,.36-1.65,.93,.46,.52-.53,.95-.08,.62-.52-.57-1.26v-.77s.42-.6,.42-.6l.97-.34,.73-.47-.45-1.04,.21-.72,.19-.72,1.26-.2,.36-.64-.71-1.17,1.36-.14,.35-.64-.62-1.13h1.62s-.09-.85-.09-.85l.29-.67-.03-.83,1.14-.23,.3-.66,.47-.58-.93-1.3,.67-.48,1.05-.28,.41-.62-.29-1.11,.74,.41,.62,.31-.11,1.48,1.01-.33,.53,.9,.94-1.39,.54,1.15,.78-1.15,.6,1.31,.71-.33,.73,.09,.73-.13,.73,.13,.78,.52,.77-.06,.63-.72,.29-1.12,.56-.13,.41,.7,.5,.58-1.33,.11,.17,.94-.6,.51-.42,.61,.05,.87,.25,.98-1.66-.07,1.06,1.41-1.35,.1,.62,1.16-1.1,.24v.81s-.13,.76-.13,.76l-.62,.49-.94,.33,.22,.94-.68,.47-.83,.39-.07,.8,.14,.91-.87,.5,.45,1.05-.93,.67,1.35,.38-.65,.84,.93-.1-.29,1.66h.91s.82-.49,.82-.49h.72s.47-.96,.47-.96l.54-.19,1.49,1.07-.23-1.45,1.13,.04,.43-.64,.36-.68-.3-.99-.08-.87,.73-.44,1.34-.11-1.01-1.39,1.15-.21-.08-.88,1.44-.04-.61-1.18,.6-.51,.38-.63,.05-.81-.08-.87,.52-.54,1.63,.09,.2-.72,.43-.59,.22-.71-.07-.88,.93-.31-.54-1.16,.8-.38,.4-.62,.13-1.53,.09,1.77,.87,.17,.27,.94,.85,.14,.82-.2,.85-.81,.42,1.64,.87-1.36,.66,.2,.69-.04,.71-.03,.68,.68,.72,.34,.73-.1,.76,.36,.71-.33,.52-.77,.55-.39,.8,.15,.99,.31-.04-1.36,.08,.67,.24,.68,1.07-.1,.38,.74,.55,.61,.73,.32,.85-.05,.67,.47,.85-.31,.65,.91,.76-.87,.66,.4,.65-.46,.72,.46,.58-.67,1.54-.17-1.69,.65,.52,1.11-.99-.27-.34,.21-.77,.64-.6-.7-.65-.3-.76,.71-.71,.28-.51-1.49-.87,1.46-.59-1.27-.77,.72-.65-1.1-.77,1.23-.68-1.37-.71,1.33-.68,.28-.75-.82-.63,.76-.91-1.4-.51,1.2-.8-.28-.44,.81-.42,.66-1.31-1.2-.15,1.16-.38,.62-.66,.2-1.03-.13-.22,.77,.23,1.09-.92,.16-.76,.39,.75,1.1-.61,.47-.23,.64-.18,.67-.65,.7-.11,.77-.12,.81,1.1,.49-.32,.9,.84,.4-.16,.65,.15,.49,.42,.86,.51,.24,.57-.28,.69-.38,.71,.55-.02,1.25,.76,.17,.66,.32,.57,.54,.98-.6,.69,.09,.36,1.64,.95-1.1,.55,1.49,.82-.87,.72-.23,.76,1.23,.62-1.66,.67-.17,.81,.54,.7-.18,.92,.44,.48-.81,.98,.33,.25-1.09,.69-.26,.73-.24,.74-.26-.3-1.41,1.43,.42-.54-1.48,1.01-.07,.43-.57,.2-.75h1.15s-.65-1.38-.65-1.38l1.29,.08,.17-.75,.79-.32-.69-1.27,.84-.8,1.17-.14,.75,.25,.7,.62,.77,.07,.83-.33,.6,1.26,.87-1.07,.69-.03,.68,.17,.96,1.11,.44-1.11,.52-.38,.31-.52,.47-.41,.65-.54-1.07-.57,.72-.86-.36-.72-.59-.54-.61-.59-1.04,1.11-.71,.26-.56-.86-.66-.13-.74,.38-.66-.14-.41-.68,.14-.59,.33-.67,.61-.48-.15-.99,1.66,.24-.21-1.02,.49-.55,.35-.66-.23-1.04,.73-.39,1.1-.13-.61-1.3,1.07-.14-.05-.92,1.49,.16,.42-.59,.3-.68-.91-1.54,.42-.6,.78-.35,1.51,.18-.94-1.57,1.3,.02,.94-.25-.99-1.61,1.28-.42-1.09-.59,.8-.88-.57-.47-.92-.04-.54-.5-.79,.27-.58-.89-.71,.07-.58,.6-.44,.55-.68-.02-.57,.3-.3,.6-.63,.32-.98,.26-.54,.46-.39,.58-.03,.82-.34,.62,.07,.89-.9,.22-.13,.75,.15,.93-1.77-.36,.9,1.44-1.09,.1-.99,.17-.35,.62-.45,.27-.13,1.19-.96-.34-.43,1.13-.89-1.09-.62,1.54-.67-1.09-1.13,.96-.15-1.43-.67-.63,.71-.45-.24-.9,1.04-.14-.71-1.34,.66-.45,.89-.29-.04-.91,.13-.79,1.52,.14,.52-.53-.49-1.21,.87-.3-.28-1.12,1.33-.21,.24-.87-.8-.62-.1-.51-.6-.18,.04-1.22-.91,.14-.62-.99-.76-.12-.62,1.32-.99-1.29-.31,1.27-.94-.22-.97,.05,.55,1.53-.55,.4-.61,.51,.45-1.2-.27-.66-1.51,.26v-.89s-.81-.12-.81-.12l-.33-.69-.72-.1-.58-.36-.74,.14-.48-1.06-.7-.33-.77,1.09-.65,.03-.7-.31-.81-.48-.37,1.19-.74-.09-1.01-.4-.18,.08-.04-.31-1.51,.62-.1-1.08-.64-.4-.77,.28-.67-.22-.73-.19-.6,.51-.9-.23-.84,.21,.53,1.51-1.47-.19,.46,1.05-.31,.59-.95,.21,.49,1.05-.26,.61-.78,.28,.47-.82-1.05-.62,.82-1.06-1.07-.43,.23-1.07-1.65,.3,.72-1.68-1.57,.79-.18-.92-.93,.39-.03-1.92-.9,.43-.65-.65-.76-.2-.75,1.41-.72-.56-.61,.58-.94-.87-.26,1.42-.95-.45-.65,.33-.33-.06-.02-.4-1.46,.65-.2-.97-.79,.34-.59-.78-.72-.29-.69,.37-.81-.11-.86,.1-.46,.74-.35,.71,.52,1.11-1.68-.06,.51,1.11-.84,.39,.19,.94-.61,.51-.94,.34,.81,1.26-1.44,.08,.47,1.08-.58,.52,.36,1.01-.53,.55-.26,.7-.71,.47-.63,.51-.88,.38,.55,1.31-.84-.63-.69,.81-.66-.92-.57,.34-.41-.85,1.33-.12-.49-1.03v-.79s1.06-.25,1.06-.25l.7-.43-.21-.89,.57-.49,.68-.43,.29-.63,.56-.49-.81-1.2,.67-.44-.24-.92,1.05-.29,.81-.65-.99-1.06,.18-.54-.08-.61-.43-.46-.94,.26-.43-.89-.78,.5-.7-.31-.86-.5-.83,.11-.62,.56,.18,1.37-1.1,.62-.4-1.38-1.09,.28,.09-1.42-1.1,.71-.46-.7-.77,.32-.53-1.08-.79,1.15-.66-1.72-.72,1.04-.67,.45-.85-.76-.82-.2-.33,1.56-.81-.21-1.06-.61-.28,1.13-1.07-.39-.61,.46-.49,.61-.44,1.01,.62-1.23-.5-.93-1.58,.95-.34-1-.7-.65-.78,.74-.83-.46-.75,1.12-.83-1.71-1.19,1.3,.14-1.32,.64-.5,.87-.4,.47-.58,.46-.59-.57-1.06,.39-.62,.24-.68,1.03-.31,.21-.69,.41-.6-.46-1.02-.17-.88,1.56-.05-.65-1.11,1.02-.32,.82-.42-.47-.96v-.72s-.54-.63-.54-.63l1.39-1.02-1.63,.12,.31-1.43-.78-.15-.81,.25-.61-.31-.65,.73-.73-.79-.54,.77-1.03-.95-.03,1.56-1.12-.5,.21,1.24-1.39-.32-.68,.46,.8,1.22-.51,.68-.16,.74-.78,.44-.48,.58,.58,1.07-.24,.69-.7,.49-1.14,.28,1.07,1.29-1.13,.29,.43,.98-.73,.46-1.28,.22,1.18,1.31-.21,.7-.86,.42-.81,.44-.02,.79-.82-.06-.23,1.26-.73,.29-.78-.54-.78-.61-.71,.61-.78-.52h-.74s-.71,.57-.71,.57l-.7,.7-.75-.04-.81-.97-.65,1.35-1.3-.41,.25-1.27,.12-.74,.94-.41-.37-.95,.81-.46,.71-.5-.04-.81,.96-.39-.95-1.19,.14-.73,1.39-.19-.02-.8-.57-1.04,.5-.58,.31-.67,1.37-.21-.79-1.06,.53-.5,.02-.66,1.35-.64-.42-.92-.99-.33-1.08,.37,.09-1.66-1.04,1.24-.53-.58-.69-.79-.59,1.29-.95-.81-.8,.19-.88,.17-.63,.59,.05,1.1-1.07,.24,.61,1.16,.12,.9-1.88,.03,.21,.89,.15,.86-1.26,.27,.61,1.05-.49,.6,.11,.84,.11,.84-.78,.47-.48,.6,.47,.97-1.66,.12,.79,1.1-1.12,.35-.47,.61,.97,1.18-.94,.42-.63,.08-.27-.07h-.68s-.59,1.24-.59,1.24l-.68,.34-.83-.87-.74-.15-.66,.55-.73-.06-.55,1.33-.93-1.62-.6,.8-.7,.12-.54,.87-.86-.65-.45,1.14-1.08-1.39-.25,1.74-.67,.18-.9-.53-.57,.5-.75-.03-.94-.47-.25,1.32-.87-.22-.84-.11-.45,.75-.4,.81-1.21-.76-.05,1.42-1.26-.74-.63,.38,.12,1.52-.63,.32-.69,.25-.58,.4-.32,.71-.87,.06-.68,.32v1.01s-.63,.36-.63,.36h-1.08s-.04,.89-.04,.89l-.59,.44-.23,.71-.73,.37-.65,.46-.53,.55-.15,.75,1.12,1.27-.77,.45,.03,.75-.96,.48-.43,.67,.45,.81-.59,.68,.97,.76-1.41,.76,.19,.76,.33,.72-.22,.84,.24,.76,1.51,.29-.65,1.06,.59,.56,.51,.56-.22,1.09,1.26-.03,.77,.26,.35,.67,.49,.55,.38,.74,.37,.83,1.23-.71,.16,1.31,.6,.52,.79,.03,.84-.23,.41,.13-.75-.12,.17,1.08-.76,.27-.02,.93v.94s-1.68-.53-1.68-.53l.6,1.44-.65,.36-1.33-.22-.52,.48-.49,.51,.25,1.12,.17,1.06-1.13,.35,.32-1.29-.35-.66-.46-.6-.03-.81-.34-.66-.22-.71-1.78,.05-.16-.75,.68-1.17-1.45,.05,.7-1.37-1.43,.3-.51-.3-.12-1.2-.76-.05-.69,1.04-.81-1.29-.74,.21-.1,1.31-.74,.02v.81s-.3,.5-.3,.5l-1.67-.09,.11,.83-.26,.66-.08,.72-.5,.61-.4,.64-.17,.7,1.2,1.05-1.15,.44,.58,.89-1.34,.4,.88,.96-.53,.61-.14,.7,.17,.78,.45,.85-1.22,.44,.44,.85-.88,.52,.08,.76,.66,.9-1.24,.44-.73,.56,1.38,1.06-1.64,.35,.55,.87v.74s-.61,.59-.61,.59l-.34,.66-.14,.71,1.2,1-1.39,.42,.75,.9-.84,.55-.6,.6,.04,.74,.14,.76-.82,.56,.21,.78,.79,.9-1.46,.4,.65,.86-.29,.65,.27,.79-1.13,.43,.53,.87-.2,.68-1.08,.4,.64,.93-.24,.66-.69,.49,.9,1.11-.39,.62-.53,.55-1.34,.05,.34,1.02-.85,.23-.61,.34-.54,.36-.38,.55-.67,.12-.14,1.19-.99-.7-.55,.38-.68,.3-.7,.95-.88,.45-.69-.93-1.03,.38-.7-.57,.2-1.43-1.45,.51-.27-.76-.06-.81-.83-.4,1.24-1.2-1.54-.25-.17-.8,.58-.86-.95-.78,1.43-.68-1.14-.95,.41-.74,.14-.8,.09-.81,1.21-.27,.64-.46-.23-1.01,.36-.67,.92-.19,.7-.32-.02-1.08,.97,.06,.46-.52v-1.25s.92,.11,.92,.11l1.01,.36,.34-.83,.22-1.17,1.1,.71,.41-.84,.82,.15,.67-.19,.78,.11,.64-.3,.74,.08,.33-1.06,.73,.03,.34-.74,.14-.65,1.58,.36-1-1.31,.48-.46,.63-.75-.2-.74-1.01-.1,.26-1.48-.74-.46-1.08,.81-.76,.4-.73-.89-.81-.13-.88-.32-.52,1-.57,.61-.84-.32-.62,.42-.88-.29-.39,.97-.65,.29-1.12-.67,.15,1.86-.83-.06-.94-.2-.92-.09-.15,1.11-1.08-.22-.28,.91-.24,.91-.3,.78-1.23-.29-.7,.36,.41,1.45-1.5-.39-.44,.62,.1,1.03-.64,.44,.02,.9-.98,.23,.36,1.03-.15,.71-.33,.6-1.57,.11-.44,.64,.55,.96,.33,.83-.94,.51-.3,.69-.07,.74,.19,.75-.02,.73-.31,.74-.46,.78,1.64,.55-1.23,.92,.84,.58-.08,.77-.12,.81,.27,.71,.82,.46-.43,1.04,1.36,.09-.21,1,.6,.48,.45,.59,.6,.44,.31,.77,.53,.55,.89,.02,1.1-.47-.05,1.72,1.04-.47,.53,.74,.67,.48,.86-.31,.86-.85,.65,.77,.74-.74,.76,1.14,.66-1.03,.69-.21,.9,.89,.91,.55,.54-.97,.66-.4,.55-.64,1.16,.86,.59-.57,.04-1.52,1.22,.63,.81-.17,.23-.97,.82-.18-.28-1.41,.54-.46,1.27,.18,.86-.25-.74-1.51,.77-.32,1.01-.2,.79-.4-.28-1.01,.6-.53,.54-.58-.78-1.11,1.01-.4-.62-.96,.31-.65,.52-.6,.79-.53-.36-.85,.56-.6,.31-.67-.51-.88-.41-.85,.47-.63,.06-.73,1.05-.5-.4-.84,1.06-.5-.57-.89,.16-.69,1.26-.44-.34-.81-.84-.93,1.18-.45-.92-.95,.57-.59,.91-.52-.69-.9,1.07-.47v-.73s.56-.59,.56-.59l-.82-.93,1.17-.44,.33-.65-1.36-1.07,1.67-.3-1.04-1,.73-.54-.68-.91,1.45-.35,.39-.64-.65-.62,.34,.46,.5,.64,.62,.59-.65,1.16,.37,.7,1.23,.04-.15,1.24,1.04-.26,.66,.26,.73,.06h.75s.34-.87,.34-.87l.3-.65,1.34,.48-.15-1.1,1.28,.12,.45-.59-.12-1.03-.18-1.07h1.22s.89-.25,.89-.25l.46-.57-.49-1.32,.12-.85,1.35,.12,.23-.68,.64,.88-.74,.52-.39,.63-.42,.62,.63,.95-.23,.68-1.8,.19,.02,.76-.18,.7-.26,.67,.16,.8,.66,.94-.45,.61,.06,.76-1.65,.26,1.27,1.11-1.19,.39,.03,.75-.3,.66,.02,.75,.46,.87-.15,.71-1.37,.36,.27,.9-.4,.73,.28,.84-.58,.75,.24,.81,.17,.72,.03,.82,.51,.62,.78,.27,1.03-.47,.16,1.5,.86-.3,.78-.72,.7,1.17,.72-.51,.7-.3,.89,1.04,.55-1.22,.82,.59,.76,.24h.72s.58-1.04,.58-1.04l.86,.92,.47-1.78,.87,.47,.7-.25,1,.19,.77-.43,.58-.71,.05-.52,.53-.64,.32,.58,.67-.04,.61,.17,.7-.16,.67,.22,.71,.67,.75,.15,.74-.21,.83,.88,.65-1.13,.67-.23,.66-.25,.8,.58,.57-.66,.8,.37,.8,.15,.51-.9,.6-.54,1.12,.19,.79-.38-.63-1.54,1.14-.39-.62,1.55,1.02,.25,.33,.87,1.21-.95,.3,1.25,.76-.37,.67-.23,.72,.87,.67-.1,.59-1.2,.74,.78,.72,.63,.55-1.76,.74,.91,.65-.51,.68,.37,.77,.45,.56-1.54,.26,1.51,.69,.47,.74-.89,.61-.43,.67-.02,.4-.59,1.15,.32-.51-1.36,.63-.31,.37-.55,1.29-.23-.89-1.14,1.67-.16-.69-1.06,.52-.6-.25-.9-.02-.81,.42-.63,1.35-.26-.93-1.17,1.24-.31-.66-1.1,.67-.54,.68-.49-.31-1.17,1.32,.09-.06-1.26,.94-.12,.98,.5h.65s.75-.89,.75-.89l.78,.3,.62,.62,.09,.81-.28,.82-.3,.78-.46,.64,.07,.86-1.01,.41,.49,1.03-1.23,.32-.3,.7,.54,1.04,.11,.87-.9,.5-.71,.69-.28,.93,.35,.78,1.28,.17-.69,1.39,1.16-.22,.71,.26,.48,1.02,.93-.66,.75,.61,.74-.66,.79,.88,.73-1.47,.77,.65,.76-.05,.77,.81,.76-.22,.67-.74,.6-.43,.74,.3,.52-.44,1.19,.61-.21-.65,.86-.24,.6,.48,.63,.56,.73,.32,.77,.04,.82-1.02,.72-.08,.74,1.44,.77-1.51,.74,1.06,.75,.27,.75,.02,.76-.53,.76-.41,.71,1.37,.79-1.6,.71,1.6,.68-1.54,.65,.16,.72,.3,.4-.77,1.19,.81,.68-.45-.34-1.14,.54-.48-.82-.71,1.24-.85-.94-.39-.45-.61-.78-.04-.68-.52-.8,.52-.71-.61-.73-.04-.71-.49-.74,.48-.74,.41-.71-.9-.73,.43-.71-.65-.73,.5-.73,.26-.73,.2-.59-.96-.71,.58-.44-.6-.41-.24-.17-.35-1.1-.86,1.16,.31,.77,.98,.77,.06,.78-1,.76,.11,.77-.02,.77,.04,.73,.35,.76,.45,.58-1.81,.76,.52,.95,.94,.78-.2v-1.83s.92,.43,.92,.43l.41-1.17,.8,.51,.53,.15,.57-.31,.92,.46,.69-.39,.47-.63,.56-.56-.27-1.01,.88-.41,.52-.58-.33-1.4,1.08,.24,.72-.07,.7,.16,.3,.53,.18,.68-.99,.04v1.04s-1.52-.39-1.52-.39l.39,1.33-.37,.62,.03,.85-1.13,.13-.51,.56-.48,.63,.02,.77-.46,.72,.5,.74,.31,.68,.88,.49,.09,.61,.07,.65,.27,.59,.14,.75-.13,1.19,1.14-.26,.93-.31,.13,1.39,.62,.57,.87-.67,.71-.35,.77-.5,.69,.99,.69,.84,.82-1.35,.75-.21,.66,1.27,.72,.32,.74-.49,.62-.94,.89,1.24,.79-.11,.44-.86,.52-.49-.39-1.05,1.6-.02-.29-.83-.52-.68,.1-.89h-.93s-.31-1.37-.31-1.37l-1.08,1.32-.63-1.06Zm21.05-22.47l-.34,.72-.6,.36-.61,.41-.77-.27-.66,.9-.59-1.75-.75,.46h-1.03s.88-.49,.88-.49l.13-.85,.69-.47-.49-.82,.91-.82,.08-1.09-1.65,.14,.14-.81,.75,.25,.61-.43,.64-.89,.77,.65,.75-.69,.68,.93,.67,.43,.72-.36,.75-.6,.59,.69,.74-.57,.62,.47,1.49-.07-1.98,.39,.75,1.54-1.69-.38-.14,.86-.34,.71v1.09s-.77,.33-.77,.33h-.95Zm-10.29-23.07l-.1-.74,.33-.64,.31-.7,.82-.19,.17-1.14,1.34,1.28,.44-.72,.64-.6,.69,.38,.78-.3,.56,.6,1.03-.12-.31,1.15-.28,.62,1.42,.68-.86,.67-.62,.58v.78s.36,1.07,.36,1.07l-1,.28,.07,1.05-1.18-.03-.79,.25-.26,.74-.39,.94-.9-.39-.69,.72-.76-.42-.84,.64-.33-1.85-1.23,1.14,.48-1.61-.71-.16-.51-.32-.31-.94,.62-.5,1.05-.23,.18-.75,.75-.41,.03-.86Zm-20.52-1.3l-.13-.73,.3-.66,.28-.71,.81-.23,.11-1.14,1.39,1.22,.4-.74,.61-.62,.71,.35,.76-.34,.58,.58,1.02-.17-.26,1.16-.25,.63,1.45,.62-.83,.7-.6,.6,.04,.78,.4,1.06-.98,.32,.11,1.04-1.18,.02-.77,.28-.23,.75-.34,.95-.91-.35-.65,.75-.78-.38-.81,.68-.41-1.83-1.18,1.2,.4-1.63-.71-.13-.52-.3-.35-.93,.59-.52,1.04-.27,.15-.75,.74-.44v-.86Zm-24.27-1.5l.19-.8,.51-.51,.49-.58,.83,.02,.4-1.07,1.07,1.52,.56-.63,.7-.48,.58,.51,.8-.08,.33,.8,.91,.65-1.06,.62-.66,.45,.98,1.24-.97,.28-.69,.42-.02,.74,.44,.96-.9,.32,.34,.92-1.19,.2-.72,.14-.43,.68-.63,.83-.84-.56-.73,.66-.7-.45-1,.46,.45-1.78-1.61,.31,1.3-1.07-.5-.53-.19-.67-.61-.87,.51-.63,1.01-.28,.16-.69,.75-.26,.13-.78Zm-13.56-.11l.62-.43,.76-.1,.76-.23,.78,.39,.74-.88,.89,1.67,.74-.69,.92-.6-.62,.74,.08,.8-.63,.48,.43,.86-1.09,.41-.57,.63,1.33,.87-.78,.62-.44,.71,.36,.7,.78,1.07-1.06-.61-.66,.63-.6-.9-.78-.34-.71,.47-.71,.7-.75-.59-.7,.68-.74-.36-.69,.77-.06-1.33-1.03-.48,1.73-.07-.12-.87,.09-.78-.41-1,.55-.58,1.02-.37,.09-.78,.7-.51-.18-.74Zm-45.11,11.28l-.03-.85,.34-.67,.28-.73,.79-.32-.14-1.13,1.75,.67,.12-.92,.21-.88,.8-.18,.35-.78,.84-.08,.29-.97,1.1,.47,.84,.07,.07-1.61,.97,.4,.84,.15,.58-.53,.46-1.01,.9,.44,.54-.87,.92,.7,.79,.21,.64-.57,.62-.79,.82,.5,.65-.74,.79,.31,.73-.82,.33,1.45,.94,.28-1.72,.13,.16,.85-.04,.77,.47,.96-.51,.59-.99,.41-.04,.76-.66,.53,.16,.84,.72,1.04-1.54,.22,.17,.84-.63,.55,.8,1.09-.34,.68-.67,.53-.07,.79-.89,.38,.16,.93-.94,.3-.32,.66,.04,.95-.08,.94-1.05,.08-.9,.11-.21,.9-.76,.21-.85-.06-.78-.08-.32,1.18-.8-.19-.61,.81-.77-.42-.74,.51-.75-.16-.48-1.12-.85,.4-.26-1.02-.64-.18-1.5,.78,.21-1.26-1.28,.08-.28-.76,.37-.96-1.06-.44,1.65-1.02-.56-.56-.39-.67-.3-.74-.02-.74,1-.42-.44-.91,.96-.31Zm21.09,37.31l-.15,.79-.56,.48-.59,.49-.81-.2-.59,.96-.84-1.67-.7,.55-.85,.33-.5-.67-.83-.28,.02-.87-.83-.63,.9-.8,.49-.62-1.23-1.03,.96-.47,.71-.42,.13-.75-.18-1.08,1-.04,.17-1.01,1.08,.42,.72,.13,.55-.55,.65-.7,.59,.7,.86-.38,.4,.71,1.21,.21-1.17,1.53,1.66,.48-1.53,.74,.41,.65,.1,.69,.52,.92-.55,.56-1.02,.19-.21,.66Zm7.71-6.88l-.38-.65,.38-.27,.87,.18-.86,.75Zm4.47,6.96l-.11-.58,.19-.72,.07-.77,.65-.56-.55-.99,1.87-.1-.3-.89-.24-.88,.59-.57-.14-.84,.63-.56-.16-1.22,1.06,.77,.69,.39,.58-1.47,.86,.66,.92,.26,.51-.6,.45,.75-.89,.43,.4,.93-1.09,.36-.6,.54,.15,.83,.38,.91-.83,.45,.36,.9-.62,.54,.44,.93-1.89,.07,.99,1.5-.99-1.43-.6,.47-.74,.28-.7,.82-.77-.22-.57-.42Zm35.98-7.52l-.76,.43-.75,.06-.75,.19-.77-.43-.3-1.12,1.77,.58,.07-.85,.31-.82,.8,.05,.61-.57,.74,.35,.77-.61,.33,1.1-.05,.54,1.5,.22-.97,.59-.7-.12-.54,.42-.62,.87-.7-.88Z" />
</svg>